<svg version="1.1" xmlns="http://www.w3.org/2000/svg" xmlns:xlink="http://www.w3.org/1999/xlink" width="77.18239" height="73.03244" viewBox="0,0,77.18239,73.03244"><defs><linearGradient x1="221.21613" y1="185.36579" x2="258.78389" y2="185.36579" gradientUnits="userSpaceOnUse" id="color-1"><stop offset="0" stop-color="#ff866e"/><stop offset="1" stop-color="#ff6242"/></linearGradient><radialGradient cx="237.76277" cy="163.55086" r="9.39643" gradientUnits="userSpaceOnUse" id="color-2"><stop offset="0" stop-color="#9ceb60"/><stop offset="1" stop-color="#6dd627"/></radialGradient><radialGradient cx="236.72148" cy="166.04354" r="1.85945" gradientUnits="userSpaceOnUse" id="color-3"><stop offset="0" stop-color="#9ceb60"/><stop offset="1" stop-color="#6dd627"/></radialGradient></defs><g transform="translate(-205.64277,-145.48998)"><g data-paper-data="{&quot;isPaintingLayer&quot;:true}" fill-rule="nonzero" stroke-linejoin="miter" stroke-miterlimit="10" stroke-dasharray="" stroke-dashoffset="0" style="mix-blend-mode: normal"><path d="M264.7659,150.79454c0.41106,1.18048 -0.76942,1.59154 -0.76942,1.59154l-0.06528,0.02273c-9.60796,3.34563 -19.21254,6.51925 -28.90418,9.50665c0,0 -1.19472,0.36761 -1.56233,-0.82712c-0.36761,-1.19472 0.82712,-1.56233 0.82712,-1.56233c9.66607,-2.96907 19.23747,-6.14233 28.81727,-9.47816l0.06528,-0.02273c0,0 1.18048,-0.41106 1.59154,0.76942z" fill="#00ff2c" stroke="none" stroke-width="0.5" stroke-linecap="butt"/><path d="M258.53639,184.66037c-1.19452,6.55389 -1.19574,10.12271 -7.13737,15.58914c-6.36023,5.85155 -7.40433,0.13973 -11.6684,0.13973c-3.83815,0 -4.77286,5.41496 -10.42993,0.49192c-4.49851,-3.91482 -8.08456,-10.17769 -8.08456,-17.21819c0,-5.51752 0.57637,-9.77499 3.81696,-13.44507c1.23551,-1.39926 3.48194,-3.19699 4.80594,-2.4851c2.74798,1.47753 4.65416,1.90427 7.96388,1.90427c2.64887,0 -1.57541,0.93307 9.73782,-2.33824c6.97282,-2.01625 12.49554,9.13223 10.99565,17.36154z" fill="url(#color-1)" stroke="#45413c" stroke-width="2.5" stroke-linecap="butt"/><path d="M232.1738,172.49383c0,1.25 -1.25,1.25 -1.25,1.25l-0.51896,-0.05272c-1.43339,0.25871 -1.29966,1.13801 -2.07999,2.39237c0,0 -0.6625,1.06 -1.7225,0.3975c-1.06,-0.6625 -0.3975,-1.7225 -0.3975,-1.7225c1.22673,-1.95242 1.16524,-2.62411 3.48162,-3.46194l1.23734,-0.05272c0,0 1.25,0 1.25,1.25z" fill="#ffd9c6" stroke="none" stroke-width="0.5" stroke-linecap="butt"/><path d="M217.92469,178.7757c-1.11803,-0.55902 -0.55902,-1.67705 -0.55902,-1.67705l0.09566,-0.12476c0.40535,-1.61383 0.63649,-3.22907 0.93435,-4.86831c0,0 0.22361,-1.22984 1.45344,-1.00623c1.22984,0.22361 1.00623,1.45344 1.00623,1.45344c-0.30805,1.69324 -0.55328,3.35867 -0.96867,5.02743l-0.28495,0.63645c0,0 -0.55902,1.11803 -1.67705,0.55902z" fill="#ff5500" stroke="none" stroke-width="0.5" stroke-linecap="butt"/><path d="M252.56256,176.36959c-1.18585,0.39528 -1.58114,-0.79057 -1.58114,-0.79057l-0.38356,-1.15078c-0.99647,-3.10208 -1.19911,-6.39074 -1.39116,-9.63775c0,0 -0.0734,-1.24784 1.17444,-1.32125c1.24784,-0.0734 1.32125,1.17444 1.32125,1.17444c0.17655,3.01849 0.32562,6.13433 1.27308,9.01191l0.37765,1.13285c0,0 0.39528,1.18585 -0.79057,1.58114z" fill="#00ff83" stroke="none" stroke-width="0.5" stroke-linecap="butt"/><path d="M243.57987,196.86634c-0.55902,1.11803 -1.67705,0.55902 -1.67705,0.55902l-1.17262,-0.58685c-5.0043,-2.86414 -7.27681,-7.74405 -13.33558,-8.81648c0,0 -1.22984,-0.22361 -1.00623,-1.45344c0.22361,-1.22984 1.45344,-1.00623 1.45344,-1.00623c2.13978,0.398 4.53154,1.00538 6.35854,2.27611c2.88989,2.01 4.61235,5.02927 7.70947,6.79586l1.11101,0.55497c0,0 1.11803,0.55902 0.55902,1.67705z" fill="#ff0032" stroke="none" stroke-width="0.5" stroke-linecap="butt"/><path d="M256.5002,199.36685c-0.39528,-1.18585 0.79057,-1.58114 0.79057,-1.58114l1.49214,-0.4728c2.56757,-2.26969 4.7801,-4.5652 5.08009,-7.96964c0,0 0.11317,-1.24487 1.35804,-1.1317c1.24487,0.11317 1.1317,1.35804 1.1317,1.35804c-0.39886,4.27006 -3.09307,7.1985 -6.33807,9.9188l-1.93331,0.66901c0,0 -1.18585,0.39528 -1.58114,-0.79057z" fill="#002eff" stroke="none" stroke-width="0.5" stroke-linecap="butt"/><path d="M242.27154,183.85553c-1.25,0 -1.25,-1.25 -1.25,-1.25l0.00432,-0.29411c0.41815,-5.00364 1.10341,-10.87151 -0.33683,-15.72852c0,0 -0.3434,-1.2019 0.8585,-1.54531c1.2019,-0.3434 1.54531,0.8585 1.54531,0.8585c1.4519,5.23491 0.8713,11.24511 0.42438,16.62293l0.00432,0.0865c0,0 0,1.25 -1.25,1.25z" fill="#00ff14" stroke="none" stroke-width="0.5" stroke-linecap="butt"/><path d="M226.52045,202.60199c-0.39528,1.18585 -1.58114,0.79057 -1.58114,0.79057l-0.69288,-0.2382c-6.88821,-3.17805 -7.28563,-9.49791 -9.24365,-16.00299c0,0 -0.35918,-1.19728 0.8381,-1.55647c1.19728,-0.35918 1.55647,0.8381 1.55647,0.8381c1.68729,5.64186 1.84138,11.74728 7.88359,14.44544l0.44894,0.14241c0,0 1.18585,0.39528 0.79057,1.58114z" fill="#0009ff" stroke="none" stroke-width="0.5" stroke-linecap="butt"/><path d="M231.18204,192.58576c-1.2263,-0.24224 -0.98406,-1.46855 -0.98406,-1.46855l0.29032,-1.4518c1.65263,-4.63312 3.18881,-9.29655 4.4862,-14.04423c0.70957,-2.59661 0.82282,-5.44299 1.99234,-7.84736c0,0 0.55902,-1.11803 1.67705,-0.55902c1.11803,0.55902 0.55902,1.67705 0.55902,1.67705c-1.11907,2.15667 -1.16419,4.99881 -1.81372,7.37685c-1.29821,4.75302 -2.82372,9.42847 -4.49113,14.06233l-0.24748,1.27067c0,0 -0.24224,1.2263 -1.46855,0.98406z" fill="#00ff39" stroke="none" stroke-width="0.5" stroke-linecap="butt"/><path d="M233.46535,188.79576c-1.24235,0.13804 -1.38039,-1.10432 -1.38039,-1.10432l-0.17881,-1.63285c-1.53426,-6.2443 -3.47355,-12.58872 -6.52835,-18.27129c-1.06471,-1.98058 -2.82798,-5.02285 -5.10394,-5.47329c0,0 -1.21268,-0.30317 -0.90951,-1.51585c0.30317,-1.21268 1.51585,-0.90951 1.51585,-0.90951c3.12106,0.8815 5.17409,3.90309 6.69483,6.70608c3.20066,5.8994 5.21161,12.53083 6.79284,19.02803l0.2018,1.7926c0,0 0.13804,1.24235 -1.10432,1.38039z" fill="#00c2ff" stroke="none" stroke-width="0.5" stroke-linecap="butt"/><path d="M246.56764,170.88519c-1.22023,-0.27116 -0.94907,-1.4914 -0.94907,-1.4914l0.35176,-1.48953c-0.39496,-2.44538 -0.56427,-6.68305 -2.86974,-8.04649c0,0 -1.04006,-0.69338 -0.34669,-1.73344c0.69338,-1.04006 1.73344,-0.34669 1.73344,-0.34669c3.10951,2.21666 3.51617,6.64367 3.98115,10.22256l-0.40945,1.93592c0,0 -0.27116,1.22023 -1.4914,0.94907z" fill="#ff0000" stroke="none" stroke-width="0.5" stroke-linecap="butt"/><path d="M222.27787,195.52233c-1.11803,0.55902 -1.67705,-0.55902 -1.67705,-0.55902l-0.43273,-0.88066c-0.75391,-2.03963 -1.37272,-3.30555 -3.17213,-4.56057c0,0 -1.01717,-0.72655 -0.29062,-1.74371c0.72655,-1.01717 1.74371,-0.29062 1.74371,-0.29062c2.17872,1.58532 3.10919,3.22098 4.05937,5.71577l0.32848,0.64176c0,0 0.55902,1.11803 -0.55902,1.67705z" fill="#ff0000" stroke="none" stroke-width="0.5" stroke-linecap="butt"/><path d="M251.2859,188.19684c-0.64344,-1.07167 0.42824,-1.71511 0.42824,-1.71511l1.60103,-0.95754c3.90939,-3.17148 7.69434,-7.24704 11.28941,-10.84374c0,0 0.88388,-0.88388 1.76777,0c0.88388,0.88388 0,1.76777 0,1.76777c-3.70833,3.7067 -7.59896,7.83169 -11.62035,11.12183l-1.75098,1.05503c0,0 -1.07167,0.64344 -1.71511,-0.42824z" fill="#ff0000" stroke="none" stroke-width="0.5" stroke-linecap="butt"/><path d="M226.89604,167.58039c-0.96028,0.80023 -1.76051,-0.16005 -1.76051,-0.16005l-0.95151,-1.14182c-2.41212,-2.89491 -4.7401,-3.22802 -8.35873,-4.3653c0,0 -1.19249,-0.37478 -0.81771,-1.56728c0.37478,-1.19249 1.56728,-0.81771 1.56728,-0.81771c4.05656,1.27492 6.76211,1.82911 9.52972,5.14983l0.95151,1.14182c0,0 0.80023,0.96028 -0.16005,1.76051z" fill="#ff0000" stroke="none" stroke-width="0.5" stroke-linecap="butt"/><path d="M235.54074,183.20051c-0.74656,-0.28867 -0.83022,-0.87054 -0.79383,-1.25175c-0.95229,-0.56474 -0.4516,-1.60013 -0.4516,-1.60013l0.34884,-0.69818c1.12946,-3.3416 2.98755,-6.50369 4.94708,-9.52711c0.41857,-1.52267 0.63077,-2.99641 0.48392,-4.34157c0,0 -0.11317,-1.24487 1.1317,-1.35804c1.24487,-0.11317 1.35804,1.1317 1.35804,1.1317c0.02364,0.30686 0.03363,0.61661 0.03108,0.92886c0.221,-0.0086 0.47302,0.05322 0.74955,0.23757c1.04006,0.69338 0.34669,1.73344 0.34669,1.73344c-0.64731,0.97096 -1.31296,1.9578 -1.9686,2.96151c-1.15598,3.73176 -3.19545,7.52363 -4.45708,10.78647l-0.1091,0.28215c0,0 -0.45081,1.16588 -1.61669,0.71507z" fill="#beff00" stroke="none" stroke-width="0.5" stroke-linecap="butt"/><path d="M253.35143,162.63283c1.13275,-0.52857 1.66132,0.60417 1.66132,0.60417l0.04538,0.09726c2.01018,4.30788 3.75674,8.80152 5.62305,13.21241c0.34131,0.09325 0.68019,0.19471 1.01591,0.30575c0,0 1.18585,0.39528 0.79057,1.58114c-0.14583,0.4375 -0.39927,0.65979 -0.66106,0.76611c0.70479,1.59453 1.43585,3.17082 2.21184,4.71578c2.11435,4.2096 4.68754,6.82113 4.98174,11.75163c0,0 0.06934,1.24808 -1.17874,1.31741c-1.24808,0.06934 -1.31741,-1.17874 -1.31741,-1.17874c-0.22836,-4.48975 -2.78181,-6.91009 -4.71963,-10.76822c-0.79029,-1.57344 -1.5342,-3.179 -2.25128,-4.80308c-3.72525,5.5517 -8.44628,9.67257 -13.97768,13.53106l-1.22245,0.615c0,0 -0.49817,0.24909 -0.99571,0.08218c0.246,0.22062 0.44267,0.57643 0.3303,1.13826c-0.24515,1.22573 -1.47087,0.98058 -1.47087,0.98058l-1.00954,-0.20335c-1.13856,-0.28994 -2.24771,-0.7153 -3.30069,-1.23646c0,0 -1.11803,-0.55902 -0.55902,-1.67705c0.55902,-1.11803 1.67705,-0.55902 1.67705,-0.55902c0.88607,0.44833 1.82437,0.81135 2.78899,1.04717l0.89349,0.17725c0,0 0.10289,0.02058 0.2431,0.07962c-0.09977,-0.09853 -0.19287,-0.22564 -0.27416,-0.38821c-0.55902,-1.11803 0.55902,-1.67705 0.55902,-1.67705l1.06118,-0.52681c5.33552,-3.74919 9.89114,-7.71751 13.44074,-13.16393c-0.26932,-0.04666 -0.53907,-0.09004 -0.80878,-0.13102l-0.00623,0.01407c0,0 -1.25,-0.00299 -1.24701,-1.25299c0.00299,-1.25 1.25299,-1.24701 1.25299,-1.24701l0.38039,0.01499c0.13402,0.02085 0.26804,0.04226 0.40201,0.06431c-1.60804,-3.86418 -3.16296,-7.76443 -4.91759,-11.52466l-0.04538,-0.09726c0,0 -0.52857,-1.13275 0.60417,-1.66132z" fill="#beff00" stroke="none" stroke-width="0.5" stroke-linecap="butt"/><path d="M234.11269,169.15212c-1.00959,-0.73704 -0.27255,-1.74663 -0.27255,-1.74663l0.17803,-0.24386c3.99177,-5.4679 8.00869,-10.82494 13.89023,-14.36366c0,0 1.07187,-0.64312 1.71499,0.42875c0.64312,1.07187 -0.42875,1.71499 -0.42875,1.71499c-5.58513,3.34106 -9.37466,8.51259 -13.15729,13.69401l-0.17803,0.24386c0,0 -0.73704,1.00959 -1.74663,0.27255z" fill="#beff00" stroke="none" stroke-width="0.5" stroke-linecap="butt"/><path d="M224.11661,176.22602c-0.28107,-1.21799 0.93691,-1.49906 0.93691,-1.49906l0.07591,-0.01752c2.32767,-0.53716 4.57394,-1.02306 6.81918,-1.84226c0,0 1.17474,-0.42718 1.60192,0.74756c0.42718,1.17474 -0.74756,1.60192 -0.74756,1.60192c-2.34345,0.84949 -4.68432,1.36866 -7.11139,1.92876l-0.07591,0.01752c0,0 -1.21799,0.28107 -1.49906,-0.93691z" fill="#beff00" stroke="none" stroke-width="0.5" stroke-linecap="butt"/><path d="M230.47277,172.62768c-1.25,0 -1.25,-1.25 -1.25,-1.25v-0.95151c0,-3.83415 0.22461,-7.51401 0.97579,-11.2827c0,0 0.24515,-1.22573 1.47087,-0.98058c1.22573,0.24515 0.98058,1.47087 0.98058,1.47087c-0.72364,3.60532 -0.92724,7.12438 -0.92724,10.79241v0.95151c0,0 0,1.25 -1.25,1.25z" fill="#00ff2c" stroke="none" stroke-width="0.5" stroke-linecap="butt"/><path d="M260.22562,165.63394c-0.2694,0.37716 -0.57876,0.51458 -0.8614,0.53819c0.26393,0.4775 0.07857,1.03357 0.07857,1.03357c-3.23128,9.536 -12.84845,18.02649 -22.13842,21.42529l-1.83717,0.66806c0,0 -1.17474,0.42718 -1.60192,-0.74756c-0.42718,-1.17474 0.74756,-1.60192 0.74756,-1.60192l1.83717,-0.66806c8.49997,-3.07027 17.75277,-11.08941 20.62107,-19.86638c0,0 0.24242,-0.72725 0.91709,-0.85287l-0.65473,-0.48043c-1.71067,-0.46052 -3.43403,-0.74368 -5.18139,-1.03478c0,0 -1.23299,-0.2055 -1.02749,-1.43849c0.2055,-1.23299 1.43849,-1.02749 1.43849,-1.02749c1.99517,0.33267 3.91767,0.67305 5.85617,1.24886l1.51578,1.0603c0,0 1.01717,0.72655 0.29062,1.74371z" fill="#00ff2c" stroke="none" stroke-width="0.5" stroke-linecap="butt"/><path d="M225.21213,188.21286c-1.04006,-0.69338 -0.34669,-1.73344 -0.34669,-1.73344l0.23679,-0.27869c0.67137,-1.97826 1.12005,-4.02726 1.40581,-6.10474c-0.38547,-0.83148 -0.78192,-1.65692 -1.16539,-2.48285c0,0 -0.52639,-1.13376 0.60737,-1.66015c0.37665,-0.17487 0.68627,-0.16652 0.93183,-0.07739c0.04148,-0.92962 0.05884,-1.85925 0.05729,-2.78521c0,0 0,-1.25 1.25,-1.25c1.25,0 1.25,1.25 1.25,1.25c-0.00333,2.20336 -0.10505,4.41953 -0.3675,6.61126c0.8255,1.8279 1.57681,3.68853 2.0427,5.64474c0.69305,2.91 0.88649,5.71631 2.59416,8.25716l1.19953,0.39154c0,0 1.17041,0.4389 0.73151,1.60932c-0.06763,0.18036 -0.15264,0.3225 -0.24805,0.43392c3.09871,2.12724 5.41249,5.02638 8.14454,7.75842l0.53187,0.10389c0,0 1.1606,0.46424 0.69636,1.62483c-0.46424,1.1606 -1.62483,0.69636 -1.62483,0.69636l-1.37116,-0.65732c-3.17529,-3.17529 -5.76403,-6.78088 -9.92107,-8.69538c0,0 -1.13273,-0.52861 -0.60412,-1.66134c0.10043,-0.2152 0.22265,-0.37043 0.35478,-0.48072c-1.75336,-2.77176 -2.13112,-5.48107 -2.90846,-8.77274c-0.12776,-0.54101 -0.27961,-1.07435 -0.45023,-1.60147c-0.21903,0.89321 -0.4739,1.77751 -0.76916,2.65017l-0.52442,0.86313c0,0 -0.69338,1.04006 -1.73344,0.34669z" fill="#00ff2c" stroke="none" stroke-width="0.5" stroke-linecap="butt"/><path d="M251.41727,186.1728c1,-0.75 1.75,0.25 1.75,0.25l0.78363,1.04484c0.59449,0.80713 1.24921,1.51097 1.95582,2.12827c1.48443,-8.72528 3.20237,-17.45552 5.32421,-25.94321c0,0 0.30317,-1.21268 1.51585,-0.90951c1.21268,0.30317 0.90951,1.51585 0.90951,1.51585c-2.20277,8.81075 -3.96814,17.88584 -5.48718,26.94317c1.73147,0.99597 3.666,1.66634 5.71949,2.17971c0,0 1.21268,0.30317 0.90951,1.51585c-0.30317,1.21268 -1.51585,0.90951 -1.51585,0.90951c-1.98108,-0.49527 -3.83768,-1.13715 -5.54082,-2.01676c-0.52002,3.19362 -1.01164,6.38168 -1.48326,9.5518l0.01363,0.19651c0,0 0,1.25 -1.25,1.25c-1.25,0 -1.25,-1.25 -1.25,-1.25l0.01363,-0.5647c0.52382,-3.51506 1.07176,-7.05185 1.65522,-10.59381c-1.28285,-0.92871 -2.45155,-2.04912 -3.48976,-3.41267l-0.78363,-1.04484c0,0 -0.75,-1 0.25,-1.75z" fill="#00ff2c" stroke="none" stroke-width="0.5" stroke-linecap="butt"/><path d="M267.68282,185.73659c1.24591,0.10106 1.14485,1.34696 1.14485,1.34696l-0.0859,1.05903c-0.33822,4.16992 -0.83677,8.30008 -1.26069,12.45779c-0.27642,2.71101 -0.08774,3.79119 -2.14393,5.61146c0,0 -0.96028,0.80023 -1.76051,-0.16005c-0.80023,-0.96028 0.16005,-1.76051 0.16005,-1.76051c1.53293,-1.15383 1.0503,-1.89126 1.25715,-3.9431c0.28407,-2.81788 0.60718,-5.62289 0.8908,-8.43628c-0.27507,0.163 -0.65691,0.23899 -1.14552,-0.00531c-1.11803,-0.55902 -0.55902,-1.67705 -0.55902,-1.67705l0.27125,-0.43886c0.82883,-4.29707 1.7501,-8.11789 -0.4441,-12.11129c0,0 -0.59262,-1.10059 0.50796,-1.69321c1.10059,-0.59262 1.69321,0.50796 1.69321,0.50796c1.67101,3.15693 1.83121,6.1094 1.46083,9.2414c0.00451,0.00033 0.00903,0.00068 0.01357,0.00105z" fill="#00ff2c" stroke="none" stroke-width="0.5" stroke-linecap="butt"/><path d="M245.72906,199.32255c-1.17718,-0.42042 -0.75676,-1.5976 -0.75676,-1.5976l0.14832,-0.4153c0.76894,-2.1413 1.32599,-3.407 0.79778,-5.61942c0,0 -0.27116,-1.22023 0.94907,-1.4914c1.22023,-0.27116 1.4914,0.94907 1.4914,0.94907c0.56839,2.71016 0.03708,4.41078 -0.8839,7.00258l-0.14832,0.4153c0,0 -0.42042,1.17718 -1.5976,0.75676z" fill="#00ffe6" stroke="none" stroke-width="0.5" stroke-linecap="butt"/><path d="M223.13793,196.95838c0,-1.25 1.25,-1.25 1.25,-1.25c1.66667,0 5.45529,0 7.12196,0c0,0 1.25,0 1.25,1.25c0,1.25 -1.25,1.25 -1.25,1.25c-1.66667,0 -3.33333,0 -5,0h-2.12196c0,0 -1.25,0 -1.25,-1.25z" fill="#00ffe6" stroke="none" stroke-width="0.5" stroke-linecap="butt"/><path d="M249.17997,171.43802c0,1.25 -1.25,1.25 -1.25,1.25l-0.77027,-0.01256c-3.74889,-0.53684 -7.35907,-1.58872 -11.09678,-2.17889c0,0 -1.2347,-0.19495 -1.03975,-1.42966c0.19495,-1.2347 1.42966,-1.03975 1.42966,-1.03975c3.72635,0.58837 7.3242,1.64102 11.06043,2.17342l0.41672,-0.01256c0,0 1.25,0 1.25,1.25z" fill="#00ffe6" stroke="none" stroke-width="0.5" stroke-linecap="butt"/><path d="M265.34695,168.32117c-1.23546,-0.19007 -1.04539,-1.42554 -1.04539,-1.42554l0.01552,-0.10089c0.58973,-3.80494 2.22552,-7.39794 2.64211,-11.20166c-0.09121,0.03533 -0.15193,0.04934 -0.15193,0.04934c-3.40375,0.7751 -6.73552,0.62087 -10.21582,0.62409l-1.53837,0.00142c0,0 -1.25,0.00115 -1.25115,-1.24884c-0.00115,-1.25 1.24884,-1.25115 1.24884,-1.25115l1.53837,-0.00142c3.27809,-0.00302 6.45678,0.18912 9.65598,-0.56007c0,0 0.48781,-0.11257 0.91725,0.11348c0.13511,-0.34545 0.44294,-0.73899 1.14432,-0.73899c1.25,0 1.25,1.25 1.25,1.25c-0.01007,4.64482 -2.07567,8.80333 -2.76867,13.34394l-0.01552,0.10089c0,0 -0.19007,1.23546 -1.42554,1.04539z" fill="#00ffe6" stroke="none" stroke-width="0.5" stroke-linecap="butt"/><path d="M213.67922,174.05268c-1.22984,-0.22361 -1.00623,-1.45344 -1.00623,-1.45344l0.38055,-2.0648c-0.00187,-1.94183 -0.11754,-3.0073 -0.73223,-4.83393c0,0 -0.39528,-1.18585 0.79057,-1.58114c1.18585,-0.39528 1.58114,0.79057 1.58114,0.79057c0.70744,2.14043 0.85225,3.57654 0.85042,5.84901l-0.41078,2.2875c0,0 -0.22361,1.22984 -1.45344,1.00623z" fill="#00ffe6" stroke="none" stroke-width="0.5" stroke-linecap="butt"/><path d="M231.8659,211.67294c-0.12834,1.24339 -1.37173,1.11506 -1.37173,1.11506l-1.02642,-0.10594c-4.28376,-0.44567 -10.0086,-1.02232 -13.87693,-2.91395c0,0 -1.11803,-0.55902 -0.55902,-1.67705c0.55902,-1.11803 1.67705,-0.55902 1.67705,-0.55902c0.30537,0.15717 0.62686,0.30415 0.96193,0.44179c0.29372,-0.44954 0.85844,-0.55321 0.85844,-0.55321l0.23626,-0.04337c1.8415,-0.33805 3.59756,-0.65191 5.36029,-1.12277c-0.23217,-0.04815 -0.46394,-0.09538 -0.69529,-0.14158c0,0 -1.22573,-0.24515 -0.98058,-1.47087c0.24515,-1.22573 1.47087,-0.98058 1.47087,-0.98058c7.27896,1.45832 15.07736,4.04558 22.51659,4.02807h2.13125c0,0 1.25,0 1.25,1.25c0,1.25 -1.25,1.25 -1.25,1.25h-2.13125c-6.24409,-0.01337 -12.67022,-1.73492 -18.8906,-3.17735c-0.02278,0.80436 -0.87077,1.08703 -0.87077,1.08703c-1.47422,0.48946 -2.92427,0.84424 -4.39705,1.15045c2.56871,0.48046 5.26833,0.7228 7.44548,0.94561l1.02642,0.10594c0,0 1.24339,0.12834 1.11506,1.37173z" fill="#00ffe6" stroke="none" stroke-width="0.5" stroke-linecap="butt"/><path d="M259.8573,211.05789c-0.44327,0 -0.83265,-0.23073 -1.05459,-0.57863c-0.80249,0.00262 -1.60785,-0.00027 -2.41885,-0.00027c0,0 -1.25,0 -1.25,-1.25c0,-1.25 1.25,-1.25 1.25,-1.25c2.83674,0 5.60579,0.04708 8.42519,-0.26843l0.12037,-0.01337c0,0 1.24235,-0.13804 1.38039,1.10432c0.13804,1.24235 -1.10432,1.38039 -1.10432,1.38039l-0.12037,0.01337c-1.39398,0.15384 -2.77497,0.22542 -4.15724,0.25824c-0.21891,0.36223 -0.61647,0.6044 -1.07059,0.6044z" fill="#00ffe6" stroke="none" stroke-width="0.5" stroke-linecap="butt"/><path d="M244.13463,170.73168c0,-1.25 1.25,-1.25 1.25,-1.25l2.55201,0.02255c1.17263,0.45269 2.37157,0.839 3.58046,1.18335c0,0 1.2019,0.3434 0.8585,1.54531c-0.3434,1.2019 -1.54531,0.8585 -1.54531,0.8585c-1.13812,-0.3261 -2.27395,-0.67604 -3.36642,-1.13227l-2.07924,0.02255c0,0 -1.25,0 -1.25,-1.25z" fill="#8b00ff" stroke="none" stroke-width="0.5" stroke-linecap="butt"/><path d="M221.04648,178.08558c-0.40702,-1.18188 0.77486,-1.5889 0.77486,-1.5889l1.38632,-0.46009c1.32017,-1.02519 2.75738,-1.90925 4.25076,-2.66005c0,0 1.11803,-0.55902 1.67705,0.55902c0.55902,1.11803 -0.55902,1.67705 -0.55902,1.67705c-1.47442,0.73275 -2.87495,1.62661 -4.1839,2.62535l-1.75717,0.62248c0,0 -1.18188,0.40702 -1.5889,-0.77486z" fill="#8b00ff" stroke="none" stroke-width="0.5" stroke-linecap="butt"/><path d="M216.07747,184.58021c-0.82313,-0.94072 0.11759,-1.76385 0.11759,-1.76385c0.62715,-0.54875 1.68848,-1.47742 2.31563,-2.02617c0,0 0.82689,-0.72353 1.60852,-0.03865c0.03208,-0.37016 0.21497,-1.0327 1.10275,-1.13135c1.24235,-0.13804 1.38039,1.10432 1.38039,1.10432c0.15633,1.66843 1.28555,3.33191 2.68896,4.24762l0.52495,0.34997c0,0 1.04006,0.69338 0.34669,1.73344c-0.69338,1.04006 -1.73344,0.34669 -1.73344,0.34669l-0.52495,-0.34997c-2.44402,-1.65838 -3.14617,-2.32928 -3.5676,-4.58253c-0.09591,0.12831 -0.18,0.2019 -0.18,0.2019c-0.62715,0.54875 -1.25429,1.09751 -1.88144,1.64626l-0.43419,0.37991c0,0 -0.94072,0.82313 -1.76385,-0.11759z" fill="#8b00ff" stroke="none" stroke-width="0.5" stroke-linecap="butt"/><path d="M238.80238,190.0411c-0.2055,1.23299 -1.43849,1.02749 -1.43849,1.02749c-0.82199,-0.137 -2.65145,-0.44191 -3.47344,-0.57891c0,0 -1.23299,-0.2055 -1.02749,-1.43849c0.2055,-1.23299 1.43849,-1.02749 1.43849,-1.02749c0.82199,0.137 1.64399,0.274 2.46598,0.411l1.00746,0.16791c0,0 1.23299,0.2055 1.02749,1.43849z" fill="#8b00ff" stroke="none" stroke-width="0.5" stroke-linecap="butt"/><path d="M258.10686,188.15375c-1.21268,-0.30317 -0.90951,-1.51585 -0.90951,-1.51585l0.25457,-0.93262c0.50201,-8.03214 1.12917,-17.09901 5.07558,-24.26426c0,0 0.60705,-1.0927 1.69975,-0.48564c1.0927,0.60705 0.48564,1.69975 0.48564,1.69975c-3.79542,6.76547 -4.29053,15.60121 -4.76584,23.2061l-0.32434,1.38301c0,0 -0.30317,1.21268 -1.51585,0.90951z" fill="#8b00ff" stroke="none" stroke-width="0.5" stroke-linecap="butt"/><path d="M250.15769,180.7219c-1.01717,-0.72655 -0.29062,-1.74371 -0.29062,-1.74371l1.45578,-2.03795c0.29234,-0.38983 0.58467,-0.77966 0.87701,-1.16949c0,0 0.75,-1 1.75,-0.25c1,0.75 0.25,1.75 0.25,1.75c-0.28657,0.38205 -0.57314,0.76409 -0.85971,1.14614l-1.43875,2.0144c0,0 -0.72655,1.01717 -1.74371,0.29062z" fill="#8b00ff" stroke="none" stroke-width="0.5" stroke-linecap="butt"/><path d="M231.99106,202.46518c-0.18308,-1.23652 1.05344,-1.4196 1.05344,-1.4196l0.90412,-0.13386c1.29439,-0.19044 2.78928,-0.76654 4.15245,-0.80842c-0.08707,-0.23366 -0.10051,-0.52815 0.04443,-0.89051c0.46424,-1.1606 1.62483,-0.69636 1.62483,-0.69636l1.42023,0.56809c0.47474,0.17726 0.8128,0.63486 0.8128,1.17141c0,0.499 -0.2924,0.92971 -0.7152,1.13014l-1.7125,0.85625l-0.13225,-0.2645c-1.47115,0.78257 -2.88787,1.07319 -5.12864,1.40694l-0.90412,0.13386c0,0 -1.23652,0.18308 -1.4196,-1.05344z" fill="#8b00ff" stroke="none" stroke-width="0.5" stroke-linecap="butt"/><path d="M213.83962,190.64447c1.2173,-0.28404 1.50134,0.93326 1.50134,0.93326l0.32195,1.37979c0.73179,3.13626 1.55638,6.24811 2.01381,9.43724c0,0 0.17678,1.23744 -1.06066,1.41421c-1.23744,0.17678 -1.41421,-1.06066 -1.41421,-1.06066c-0.44328,-3.11629 -1.25856,-6.15853 -1.97354,-9.22272l-0.32195,-1.37979c0,0 -0.28404,-1.2173 0.93326,-1.50134z" fill="#8b00ff" stroke="none" stroke-width="0.5" stroke-linecap="butt"/><path d="M214.5053,187.23052v1.55235v2.5c0,0 0,1.25 -1.25,1.25c-1.25,0 -1.25,-1.25 -1.25,-1.25v-2.5v-1.55235" fill="#8b00ff" stroke="none" stroke-width="0.5" stroke-linecap="butt"/><path d="M233.15458,158.62364c0.24624,-3.32423 0.64076,-8.6503 0.887,-11.97452c0,0 0.09234,-1.24658 1.33892,-1.15425c1.24658,0.09234 1.15425,1.33892 1.15425,1.33892c-0.24624,3.32423 -0.49248,6.64845 -0.73872,9.97268l-0.14828,2.00184c0,0 -0.00354,0.04781 -0.0186,0.12402c0.03527,0.23352 0.00796,0.41408 0.00796,0.41408l-0.6666,1.3727c-0.08471,0.049 -0.17006,0.09785 -0.256,0.14636c4.47382,0.15269 8.9591,0.51151 13.45957,0.51151h0.47133c0.00327,-0.20721 0.06931,-0.44 0.23822,-0.69336c0.69338,-1.04006 1.73344,-0.34669 1.73344,-0.34669l1.91138,1.27425c1.89858,1.26572 3.28493,2.20188 5.399,3.04022c0,0 1.1606,0.46424 0.69636,1.62483c-0.46424,1.1606 -1.62483,0.69636 -1.62483,0.69636c-2.25881,-0.91053 -3.83475,-1.93294 -5.85727,-3.28129l-0.07486,-0.0499c-0.35063,0.23558 -0.76151,0.23558 -0.76151,0.23558h-2.13125c-5.67481,0 -11.34092,-0.58711 -16.97267,-0.57891c0,0 -1.25,0 -1.25,-1.25c0,-0.07088 0.00402,-0.13774 0.0116,-0.20081c-0.20278,-0.18464 -0.35985,-0.47067 -0.35985,-0.91376c0,-1.25 1.25,-1.25 1.25,-1.25c0.81394,0.03703 1.59458,-0.35305 2.31518,-0.78776c-0.02208,-0.15974 -0.01376,-0.27209 -0.01376,-0.27209z" fill="#000000" stroke="none" stroke-width="0.5" stroke-linecap="butt"/><path d="M246.82974,203.52657c0.86999,0.89756 -0.02757,1.76755 -0.02757,1.76755l-1.06921,1.02493c-1.15268,0.65225 -2.1805,1.73156 -2.6317,2.97676c0,0 -0.46424,1.1606 -1.62483,0.69636c-1.1606,-0.46424 -0.69636,-1.62483 -0.69636,-1.62483c0.33977,-0.79482 0.81141,-1.55304 1.37983,-2.23016c-1.01273,0 -2.02545,0 -3.03818,0h-1.8418c0,0 -1.25,0 -1.25,-1.25c0,-1.25 1.25,-1.25 1.25,-1.25c1.93474,0 5.60839,0 7.64166,0l0.1406,-0.13817c0,0 0.89756,-0.86999 1.76755,0.02757z" fill="#000000" stroke="none" stroke-width="0.5" stroke-linecap="butt"/><path d="M237.646,196.53137l0.4713,-0.11782c0.26596,-0.06649 0.52654,-0.12974 0.78225,-0.19114c-0.03679,-0.72007 0.66786,-1.11154 0.66786,-1.11154l0.41969,-0.23316c2.05849,-1.14193 3.90908,-2.41479 5.84383,-3.75423c0,0 1.02774,-0.71151 1.73925,0.31623c0.54136,0.78197 0.07585,1.38086 -0.17775,1.62259c0.13006,0.07393 0.26055,0.18173 0.38703,0.33351c0.80023,0.96028 -0.16005,1.76051 -0.16005,1.76051c-1.2,0.98713 -2.36084,1.64361 -3.569,2.13979c1.11678,0.15926 2.23634,0.26689 3.36038,0.26255h1.44727c0,0 1.25,0 1.25,1.25c0,1.25 -1.25,1.25 -1.25,1.25h-1.44727c-2.08807,-0.00707 -4.14228,-0.34756 -6.19882,-0.71157c-0.44123,0.72345 -1.34847,0.49664 -1.34847,0.49664l-0.4713,-0.11782c-3.46424,-0.86606 -5.93439,-0.6995 -8.20855,-3.44936c0,0 -0.75,-1 0.25,-1.75c1,-0.75 1.75,0.25 1.75,0.25c0.83435,1.31877 2.33268,1.72897 3.95393,2.00948c0.24891,-0.18977 0.50841,-0.25465 0.50841,-0.25465z" fill="#000000" stroke="none" stroke-width="0.5" stroke-linecap="butt"/><path d="M268.11034,203.94994c-0.88388,-0.88388 0,-1.76777 0,-1.76777l0.00624,-0.00624c0.51118,-0.51056 1.12398,-1.01632 1.78129,-1.52782c-0.8955,-0.0156 -1.12493,-0.96776 -1.12493,-0.96776l-0.43639,-1.81114c-1.04025,-4.31917 -1.15248,-10.18798 -3.02938,-14.38859c-0.0739,0.21391 -0.17428,0.35444 -0.17428,0.35444v-0.00001l-0.76441,1.07017c-0.89699,1.20105 -2.00042,2.4147 -3.40548,2.93714c0,0 -1.18585,0.39528 -1.58114,-0.79057c-0.39528,-1.18585 0.79057,-1.58114 0.79057,-1.58114c0.95235,-0.25489 1.61218,-1.20002 2.16172,-2.01853l0.76441,-1.07017c0,0 0.56197,-0.78676 1.38937,-0.48216c-0.13007,-0.33479 -0.28279,-1.05137 0.51531,-1.53023c1.07187,-0.64312 1.71499,0.42875 1.71499,0.42875c2.70652,4.61112 2.79511,11.28439 4.04877,16.48529l0.43639,1.81114c0,0 0.06001,0.24904 0.01295,0.54881c2.20951,-1.67346 4.49572,-3.47547 4.99173,-5.75069c0,0 0.30317,-1.21268 1.51585,-0.90951c1.21268,0.30317 0.90951,1.51585 0.90951,1.51585c-1.15613,4.24416 -5.72803,6.41961 -8.74907,9.44449l-0.00624,0.00624c0,0 -0.88388,0.88388 -1.76777,0z" fill="#000000" stroke="none" stroke-width="0.5" stroke-linecap="butt"/><path d="M249.67156,186.95478c-0.30317,-1.21268 0.90951,-1.51585 0.90951,-1.51585c0.80845,-0.20211 3.8228,-0.9557 4.63125,-1.15781c0,0 1.21268,-0.30317 1.51585,0.90951c0.30317,1.21268 -0.90951,1.51585 -0.90951,1.51585c-0.80845,0.20211 -1.6169,0.40423 -2.42536,0.60634l-2.2059,0.55147c0,0 -1.21268,0.30317 -1.51585,-0.90951z" fill="#000000" stroke="none" stroke-width="0.5" stroke-linecap="butt"/><path d="M234.84466,187.46303c-1.25,0 -1.25,-1.25 -1.25,-1.25v-1.49151c0,-0.83333 -0.05709,-1.66862 0,-2.5c0.01519,-0.22127 0.39336,-0.49799 0.21492,-0.62972c-0.45622,-0.33678 -1.09777,-0.28479 -1.64666,-0.42719c0,0 -0.08949,-0.03579 -0.20882,-0.11235c-1.55835,2.03435 -3.57947,3.78268 -5.71573,5.36412c1.6869,2.23552 1.45129,5.65079 1.16912,8.60602l-0.18862,1.9547c0,0 -0.12006,1.24422 -1.36428,1.12416c-1.24422,-0.12006 -1.12416,-1.36428 -1.12416,-1.36428l0.18862,-1.9547c0.18388,-1.88446 0.73746,-5.30669 -0.64001,-6.97417c-1.29391,0.88761 -2.59138,1.72887 -3.81914,2.54889l-0.25388,0.28791c0,0 -0.88388,0.88388 -1.76777,0c-0.88388,-0.88388 0,-1.76777 0,-1.76777l0.63312,-0.59909c0.95995,-0.64115 2.00163,-1.30744 3.06502,-2.01072c-0.10117,-0.22836 -0.13229,-0.52203 -0.0086,-0.89309c0.39528,-1.18585 1.58114,-0.79057 1.58114,-0.79057c0.19242,0.07224 0.37581,0.15063 0.55055,0.23481c3.32499,-2.36302 6.47437,-5.16239 7.62533,-8.75776c0,0 0.39528,-1.18585 1.58114,-0.79057c1.18585,0.39528 0.79057,1.58114 0.79057,1.58114c-0.25239,0.73337 -0.56628,1.43415 -0.93223,2.10559c3.36605,1.65519 2.77038,2.07574 2.77038,5.76464v1.49151c0,0 0,1.25 -1.25,1.25z" fill="#000000" stroke="none" stroke-width="0.5" stroke-linecap="butt"/><path d="M236.46561,170.88413c0.69338,-1.04006 1.73344,-0.34669 1.73344,-0.34669l1.16176,0.77451c1.34668,0.89779 2.62255,1.91075 4.0354,2.70033c3.40479,1.90281 7.15081,1.71489 10.382,4.10474c0,0 1,0.75 0.25,1.75c-0.75,1 -1.75,0.25 -1.75,0.25c-2.09104,-1.59458 -3.70898,-1.72112 -6.1902,-2.44762c-3.0999,-0.90766 -5.45292,-2.5033 -8.11395,-4.27732l-1.16176,-0.77451c0,0 -1.04006,-0.69338 -0.34669,-1.73344z" fill="#000000" stroke="none" stroke-width="0.5" stroke-linecap="butt"/><path d="M225.08765,211.85557c-1.25,0 -1.25,-1.25 -1.25,-1.25l0.03732,-0.74667c0.27028,-1.05601 0.41248,-2.1548 0.40618,-3.24484c0,0 0,-1.25 1.25,-1.25c1.25,0 1.25,1.25 1.25,1.25c-0.00629,1.29368 -0.17299,2.59464 -0.48082,3.85118l0.03732,0.14033c0,0 0,1.25 -1.25,1.25z" fill="#000000" stroke="none" stroke-width="0.5" stroke-linecap="butt"/><path d="M247.79342,218.45624c-1.19815,-0.35627 -0.84188,-1.55442 -0.84188,-1.55442l0.40468,-1.31525c0.01968,-2.51414 0.63107,-3.55002 1.38162,-5.81978c0,0 0.39528,-1.18585 1.58114,-0.79057c1.18585,0.39528 0.79057,1.58114 0.79057,1.58114c-0.72518,2.16035 -1.29989,2.98542 -1.27939,5.38923l-0.48232,1.66777c0,0 -0.35627,1.19815 -1.55442,0.84188z" fill="#000000" stroke="none" stroke-width="0.5" stroke-linecap="butt"/><path d="M228.84812,214.2691c-0.55902,-1.11803 0.55902,-1.67705 0.55902,-1.67705l0.42494,-0.21247c1.36626,-0.6783 2.7875,-1.2806 4.26592,-1.65618c0,0 1.21268,-0.30317 1.51585,0.90951c0.30317,1.21268 -0.90951,1.51585 -0.90951,1.51585c-1.30485,0.3201 -2.55443,0.86225 -3.75422,1.46689l-0.42494,0.21247c0,0 -1.11803,0.55902 -1.67705,-0.55902z" fill="#000000" stroke="none" stroke-width="0.5" stroke-linecap="butt"/><path d="M225.97153,212.82619c0.88388,0.88388 0,1.76777 0,1.76777l-1.32738,0.80962c-2.36534,0 -4.73067,0 -7.09601,0c0,0 -1.25,0 -1.25,-1.25c0,-1.25 1.25,-1.25 1.25,-1.25c2.36534,0 4.73067,0 7.09601,0l-0.44038,-0.07738c0,0 0.88388,-0.88388 1.76777,0z" fill="#000000" stroke="none" stroke-width="0.5" stroke-linecap="butt"/><path d="M213.88461,152.2945c-1.11803,-0.55902 -0.55902,-1.67705 -0.55902,-1.67705l0.9239,-1.84239c0.57433,-0.64294 0.89208,-1.69902 1.72299,-1.92882c0.97394,-0.26935 1.8972,0.91862 2.90615,0.86273c0,0 1.25,0 1.25,1.25c0,1.25 -1.25,1.25 -1.25,1.25c-1.4913,-0.04725 -2.39912,-1.15152 -2.46687,-0.17909l-0.85011,1.70561c0,0 -0.55902,1.11803 -1.67705,0.55902z" fill="#000000" stroke="none" stroke-width="0.5" stroke-linecap="butt"/><path d="M243.33671,179.74936c1.14166,0.50903 0.63263,1.65069 0.63263,1.65069l-0.53809,1.20682c-1.15021,2.5797 -2.43529,7.7743 -4.76202,9.50643c-1.21343,0.90334 -2.94088,0.71072 -4.4084,1.07791c0,0 -1.21268,0.30317 -1.51585,-0.90951c-0.30317,-1.21268 0.90951,-1.51585 0.90951,-1.51585c1.17773,-0.29419 2.5935,0.01876 3.57462,-0.69609c1.79862,-1.31051 3.02342,-6.47273 3.91882,-8.48095l0.53809,-1.20682c0,0 0.50903,-1.14166 1.65069,-0.63263z" fill="#000000" stroke="none" stroke-width="0.5" stroke-linecap="butt"/><path d="M229.60316,156.05498c0,-0.69036 0.55964,-1.25 1.25,-1.25c0.69036,0 1.25,0.55964 1.25,1.25c0,0.69036 -0.55964,1.25 -1.25,1.25c-0.69036,0 -1.25,-0.55964 -1.25,-1.25z" fill="#000000" stroke="none" stroke-width="0.5" stroke-linecap="butt"/><path d="M279.68646,168.32835c-1.18585,-0.39528 -0.79057,-1.58114 -0.79057,-1.58114l0.19286,-0.57859c0.80696,-2.42088 1.65558,-3.81393 1.09777,-6.32049c0,0 -0.24515,-1.22573 0.98058,-1.47087c1.22573,-0.24515 1.47087,0.98058 1.47087,0.98058c0.55695,3.04031 -0.21562,4.71568 -1.17751,7.60135l-0.19286,0.57859c0,0 -0.39528,1.18585 -1.58114,0.79057z" fill="#000000" stroke="none" stroke-width="0.5" stroke-linecap="butt"/><path d="M266.42861,172.3841c0.9674,-0.7916 1.759,0.1758 1.759,0.1758l0.8715,1.06505c2.26359,2.76826 4.40651,5.26035 5.15233,8.79493c0,0 0.24515,1.22573 -0.98058,1.47087c-1.22573,0.24515 -1.47087,-0.98058 -1.47087,-0.98058c-0.57061,-3.06386 -2.68074,-5.31465 -4.63569,-7.70202l-0.8715,-1.06505c0,0 -0.7916,-0.9674 0.1758,-1.759z" fill="#000000" stroke="none" stroke-width="0.5" stroke-linecap="butt"/><path d="M209.64562,198.63105c0,-0.69036 0.55964,-1.25 1.25,-1.25c0.69036,0 1.25,0.55964 1.25,1.25c0,0.69036 -0.55964,1.25 -1.25,1.25c-0.69036,0 -1.25,-0.55964 -1.25,-1.25z" fill="#000000" stroke="none" stroke-width="0.5" stroke-linecap="butt"/><g stroke="#45413c" stroke-width="2.5" stroke-linecap="round"><path d="M241.85358,168.73447l-3.17346,0.90643c0,0 -5.83213,-0.58581 -6.29734,-0.67982c-0.46521,-0.094 0.46304,0.33563 -0.99171,-0.79312c-1.13897,-0.88372 -1.71378,-1.85885 -2.28093,-3.05919c-0.56715,-1.20033 -0.9917,-2.4455 -0.74378,-3.34245c0.24792,-0.89695 0.46679,-0.6452 1.93383,-0.96308c1.46704,-0.31788 2.87935,-0.37917 3.81807,-0.28326c0.59964,0.06127 1.06594,-0.02816 2.28093,0.90643c1.215,0.93459 2.7272,2.94589 2.7272,2.94589c0,0 -0.08295,4.14445 -0.04959,4.41884c0.03336,0.27439 0.42333,0.91568 0.54544,-0.33991c0.12211,-1.25559 -0.48475,-1.32034 -0.19834,-3.22915c0.28641,-1.90881 0.57307,-3.21817 1.38839,-4.70209c0.81532,-1.48392 2.21008,-2.67881 2.87595,-3.05919c0.66586,-0.38038 0.89481,-0.82282 1.88424,0.33991c0.98942,1.16273 1.47419,3.29925 1.58673,3.73902c0.11254,0.43977 0.55894,0.63197 -0.3471,1.10503c-0.90604,0.47306 -1.52892,-0.2966 -2.52885,0.39656c-0.99994,0.69316 -1.20594,1.46401 -1.73549,2.66263c-0.52955,1.19862 -0.89254,3.2858 -0.89254,3.2858" fill="url(#color-2)"/><path d="M234.86203,164.03241l3.7189,4.02227" fill="url(#color-3)"/></g><path d="M237.13217,178.03917c-1.13965,0.51351 -1.65316,-0.62615 -1.65316,-0.62615l-0.29809,-0.66156c-0.84222,-1.86919 -1.63811,-3.94284 -2.68166,-5.83825c-0.8283,0.57395 -1.65171,1.32559 -2.25972,1.69191c-4.25162,2.56149 -8.51255,5.10768 -12.76889,7.66134c0.01144,0.12687 0.00426,0.26842 -0.0273,0.42622c-0.24515,1.22573 -1.47087,0.98058 -1.47087,0.98058c-2.144,-0.4311 -3.99345,-1.02531 -6.06985,-1.71744l-0.88314,-0.03647c0,0 -1.24582,-0.10213 -1.14369,-1.34795c0.10213,-1.24582 1.34795,-1.14369 1.34795,-1.14369l1.46945,0.1564c1.54337,0.51446 2.93394,0.97195 4.43783,1.34148c0.18678,-0.28291 0.44348,-0.43693 0.44348,-0.43693l0.5164,-0.30984c4.28744,-2.57246 8.57,-5.15326 12.86239,-7.71744c0.89067,-0.53206 1.57384,-1.09828 2.25464,-1.58158c-1.04445,-1.40481 -2.33077,-2.59223 -4.02242,-3.34943c-1.47848,-0.66179 -3.17334,-0.68312 -4.71067,-1.19352c0,0 -0.06073,-0.02024 -0.15013,-0.06532c-0.05884,0.25373 -0.16922,0.42997 -0.16922,0.42997l-1.06888,1.7039c-2.65288,5.2327 -8.24251,8.9581 -13.87934,10.37629c0,0 -1.21268,0.30317 -1.51585,-0.90951c-0.30317,-1.21268 0.90951,-1.51585 0.90951,-1.51585c4.9594,-1.23118 10.02449,-4.54033 12.30577,-9.17487l1.13006,-1.80698c0,0 0.61398,-0.98029 1.60369,-0.46426c0.01161,-0.04995 0.02613,-0.10144 0.04382,-0.15452c0.39528,-1.18585 1.58114,-0.79057 1.58114,-0.79057c1.61706,0.54133 3.39996,0.57921 4.95107,1.28771c2.26577,1.03494 3.91245,2.6526 5.2281,4.54374c0.29378,-0.06705 0.6101,-0.11186 0.95657,-0.13008c0,0 1.25,0 1.25,1.25c0,0.75405 -0.45488,1.05323 -0.81583,1.17193c0.98145,1.82918 1.78881,3.78044 2.6249,5.63601l0.29809,0.66156c0,0 0.51351,1.13965 -0.62615,1.65316z" fill="#000000" stroke="none" stroke-width="0.5" stroke-linecap="butt"/><path d="M243.20073,185.3352c-0.44459,-1.16826 0.72368,-1.61285 0.72368,-1.61285l1.94636,-0.73229c3.9599,-2.46602 3.18304,-8.83034 4.00352,-13.00671c0.20773,-1.05735 0.63139,-2.05639 1.03165,-3.06161c-0.66128,-1.05207 -1.35601,-2.06699 -2.09867,-3.0269c-1.58165,-2.04435 -2.83599,-4.45428 -5.19513,-5.5827c0,0 -1.11803,-0.55902 -0.55902,-1.67705c0.55902,-1.11803 1.67705,-0.55902 1.67705,-0.55902c3.54407,1.83034 5.83427,5.3196 7.75965,8.95313c0.12313,0.00759 0.25731,0.0343 0.40323,0.08537c1.17982,0.41294 0.76688,1.59276 0.76688,1.59276c-0.04221,0.12059 -0.08313,0.24216 -0.12286,0.36465c0.6863,1.3705 1.34436,2.72126 2.02184,3.97106c1.5726,2.90108 3.42239,5.68594 5.13336,8.50753l1.16563,1.92227c0,0 0.64813,1.06884 -0.42071,1.71697c-1.06884,0.64813 -1.71697,-0.42071 -1.71697,-0.42071l-1.16563,-1.92227c-2.04796,-3.37733 -3.81168,-7.14926 -5.77457,-10.71865c-1.05961,5.52032 -1.13338,11.86231 -5.7641,15.08419l-2.20234,0.84652c0,0 -1.16826,0.44459 -1.61285,-0.72368z" fill="#00ffe6" stroke="none" stroke-width="0.5" stroke-linecap="butt"/></g></g></svg>