<svg version="1.1" xmlns="http://www.w3.org/2000/svg" xmlns:xlink="http://www.w3.org/1999/xlink" width="770.89367" height="770.89367" viewBox="0,0,770.89367,770.89367"><defs><linearGradient x1="236.99701" y1="-212.95431" x2="236.99701" y2="557.93936" gradientUnits="userSpaceOnUse" id="color-1"><stop offset="0" stop-color="#ff5151"/><stop offset="1" stop-color="#ff0505"/></linearGradient><linearGradient x1="405.17375" y1="-158.6975" x2="405.17375" y2="167.32942" gradientUnits="userSpaceOnUse" id="color-2"><stop offset="0" stop-color="#ff5151"/><stop offset="1" stop-color="#ff0505"/></linearGradient><linearGradient x1="253.17624" y1="-152.35369" x2="253.17624" y2="465.42246" gradientUnits="userSpaceOnUse" id="color-3"><stop offset="0" stop-color="#ff5151"/><stop offset="1" stop-color="#ff0505"/></linearGradient><linearGradient x1="121.38405" y1="71.93277" x2="121.38405" y2="503.81444" gradientUnits="userSpaceOnUse" id="color-4"><stop offset="0" stop-color="#ff5151"/><stop offset="1" stop-color="#ff0505"/></linearGradient><linearGradient x1="200.65581" y1="361.50348" x2="200.65581" y2="391.07362" gradientUnits="userSpaceOnUse" id="color-5"><stop offset="0" stop-color="#ff1313"/><stop offset="1" stop-color="#ff0505"/></linearGradient><linearGradient x1="200.65581" y1="361.50348" x2="200.65581" y2="391.07362" gradientUnits="userSpaceOnUse" id="color-6"><stop offset="0" stop-color="#ff1313"/><stop offset="1" stop-color="#ff0505"/></linearGradient></defs><g transform="translate(148.44983,212.95432)"><g data-paper-data="{&quot;isPaintingLayer&quot;:true}" fill-rule="nonzero" stroke-miterlimit="10" stroke-dasharray="" stroke-dashoffset="0" style="mix-blend-mode: normal"><g stroke="none" stroke-width="1" stroke-linecap="butt" stroke-linejoin="miter"><path d="M236.99692,557.93918c-212.87603,0 -385.44675,-172.57039 -385.44675,-385.44675c0,-212.87603 172.57039,-385.44675 385.44692,-385.44675c212.87636,0 385.44675,172.57039 385.44675,385.44692c0,212.87603 -172.57039,385.44675 -385.44675,385.44675z" fill="url(#color-1)"/><path d="M543.23198,142.37419c-100.36105,-100.36105 -200.71064,-200.71064 -301.0717,-301.0717c178.86656,2.74709 323.29081,147.16004 326.02693,326.02693z" fill="url(#color-2)"/><path d="M391.29507,465.4223c-149.76334,-148.51688 -298.61153,-297.96054 -446.79727,-448.04406c45.85026,-86.25056 128.4602,-149.9841 227.14407,-169.73192l390.21281,390.21281c-19.82495,98.99291 -83.90061,181.81247 -170.55945,227.56333z" fill="url(#color-3)"/><path d="M-45.97041,104.90851c127.04816,128.37192 254.86835,255.97151 383.06356,383.18491c-31.61858,10.02851 -65.15671,15.72102 -100.09607,15.72102c-182.98196,0 -331.32213,-148.34034 -331.32213,-331.32213c0,-35.10493 5.7477,-68.80848 15.86464,-100.55954c10.84474,10.97723 21.63445,22.00932 32.49017,32.97575z" fill="url(#color-4)"/></g><g stroke-width="1.55988"><g fill="#ffffff" stroke="#ffffff" stroke-linecap="round" stroke-linejoin="round"><path d="M452.09518,332.00165l-2.38854,6.91584c-13.24912,34.93444 -32.08319,55.03908 -32.08319,55.03908c0,0 0.67537,-6.23635 0.31345,-16.25658l-0.58695,-0.20519c-1.69693,5.27562 -4.48347,12.07907 -9.11956,20.4828c-10.15298,18.46029 -39.98064,33.92886 -39.98064,33.92886c0,0 1.85366,-6.34488 3.01597,-16.72702l-0.41837,-1.58841c-3.23688,2.48495 -6.59028,4.77683 -9.97589,7.00065c-0.99733,0.65939 -1.99441,1.3028 -3.00772,1.92584c-3.08402,1.91811 -6.22449,3.74753 -9.42915,5.45245c-1.26671,0.66764 -2.58549,1.28682 -3.86431,1.9261c-2.34008,1.17004 -4.71238,2.27589 -7.12104,3.3454c-1.76524,0.77616 -3.55059,1.5482 -5.36404,2.26378c-1.87763,0.75606 -3.80786,1.43555 -5.72596,2.1434c-3.52636,1.26258 -7.10891,2.44061 -10.76803,3.52636c-1.19427,0.35366 -2.38855,0.70759 -3.60267,1.03729c-2.60971,0.71971 -5.23953,1.41931 -7.9173,2.03874l0.00799,0.00799c-13.44219,3.12835 -27.70462,5.17509 -42.97212,6.11597c-16.51822,1.01331 -31.49623,0.84834 -45.4813,-0.12476v0c-11.06576,-0.77204 -21.42368,-2.09881 -31.23099,-3.89627c-0.4743,-0.08455 -0.95273,-0.17297 -1.43142,-0.25339c-3.03169,-0.57896 -6.01519,-1.18602 -8.94248,-1.84567c-1.02131,-0.24127 -1.99853,-0.49441 -3.01571,-0.74368c-3.88828,-0.92103 -7.66803,-1.93409 -11.39545,-3.01597c-2.35632,-0.68336 -4.69666,-1.38322 -6.98441,-2.1269c-1.35924,-0.42636 -2.72236,-0.88056 -4.05325,-1.33089c-3.63488,-1.25459 -7.23781,-2.53341 -10.73195,-3.90839l-0.60706,0.58696c1.31877,9.44513 4.57576,14.52382 7.17722,16.94844c5.30372,4.9418 15.5129,6.11571 15.5129,6.11571c0,0 -31.20675,4.36696 -48.19928,-19.72262c-1.80545,-2.56538 -3.62689,-5.21943 -5.35605,-8.04206l-0.74368,-1.61651c-3.69133,-1.23449 -7.43088,-2.87496 -11.12221,-4.98588c-22.50916,-12.96762 -25.33593,-23.66348 -25.33593,-23.66348l0.47044,3.9205c2.16711,10.21717 4.28216,16.67082 4.28216,16.67082c0,0 -26.94032,-17.04872 -38.93897,-42.59808c-9.67455,-20.62767 -10.44246,-33.11661 -10.50691,-35.2198l-0.90453,-7.49893c-0.58309,-29.38531 1.24247,-62.33721 5.27949,-94.75834l0.24927,-0.86432c3.59879,-25.06295 0.10853,-66.5874 33.36201,-109.06897c62.31298,-79.59111 125.97307,-76.82467 164.04747,-135.64737c28.01421,-43.27784 20.82075,-92.90854 20.82075,-92.90854c0,0 17.17348,24.31462 24.02926,38.59329c6.63049,13.91649 13.71956,31.85403 13.71956,31.85403l0.22917,-0.15286c0.15672,-0.52277 0.29747,-1.05739 0.41811,-1.59228c1.8699,-8.32742 1.13009,-20.63953 1.13009,-20.63953c0,0 16.37335,47.9861 42.80714,79.44625c26.41368,31.44004 64.59686,40.43097 112.80826,148.11646c5.99946,13.38187 11.57641,24.64458 14.56016,37.12579l1.351,7.18547c4.19786,22.45298 2.54526,84.48858 -6.28482,111.28841v0v0zM143.27665,226.5356c0,0 -31.22685,32.43711 -29.16827,77.57248c1.82144,39.9363 12.17162,52.27264 17.74858,55.36465c5.73395,3.15259 14.62435,1.28269 14.62435,1.28269c0,0 -25.14723,13.31742 -45.64601,-4.7526c-13.71156,-12.07907 -28.63338,-27.66028 -32.81114,-71.61349M403.13186,298.46254c0,0 3.88029,11.11011 -5.57722,34.31913c-10.63941,26.1523 -33.08851,34.24644 -33.08851,34.24644c0,0 18.65337,-40.2941 2.99973,-78.17155c-6.83181,-16.55044 -27.9178,-28.87878 -49.92843,-37.5841c-29.82765,-11.80945 -61.34812,-16.95231 -61.34812,-16.95231M417.4827,377.05246c-1.68095,5.33981 -4.50358,12.31237 -9.27654,20.93725c-10.14886,18.46029 -39.98038,33.92886 -39.98038,33.92886c0,0 5.39213,-18.51237 3.55446,-44.00141M74.38526,316.7821c-3.06391,5.68574 -5.42024,11.7816 -6.73927,18.21515c-8.28308,40.13736 6.2928,84.35196 6.2928,84.35196c0,0 -26.93233,-17.04099 -38.93897,-42.59835c-10.64353,-22.68626 -10.5069,-35.52912 -10.5069,-35.52912M449.68653,338.94172c-13.25711,34.93418 -32.08319,55.03908 -32.08319,55.03908c0,0 3.88828,-35.43272 -11.80171,-73.31842c-0.71172,-1.71292 -1.50772,-3.37763 -2.35632,-4.99413M256.19343,234.32015c0,0 5.33981,1.41545 19.42927,12.62968c14.08947,11.2145 19.27254,23.4503 19.27254,23.4503c0,0 -41.60487,-10.96111 -64.63295,-19.24032c-23.00822,-8.29108 -100.64901,-29.43352 -100.64901,-29.43352M124.4583,401.12194c11.27895,17.71661 23.01209,27.35482 23.01209,27.35482c0,0 -27.59585,8.54447 -52.94827,-6.04766c-22.50916,-12.96762 -25.33593,-23.66348 -25.33593,-23.66348M370.81925,413.61526c-29.73898,22.87933 -65.82335,34.09384 -109.70413,36.79583c-52.32496,3.22476 -90.56433,-4.42316 -123.25484,-17.24592M136.93151,430.82484c0.98908,11.33127 4.63196,17.20596 7.49094,19.85976c5.30784,4.9418 15.51702,6.11571 15.51702,6.11571c0,0 -31.21474,4.37083 -48.2034,-19.72262c-1.80545,-2.56563 -3.62689,-5.2153 -5.35604,-8.04206M259.21326,235.66315c0,0 113.96231,13.90051 113.96231,76.10084"/><path d="M395.5079,338.65637c-4.24993,44.73323 -55.67424,91.40468 -130.93086,95.80361c-66.4384,3.92437 -164.62257,-25.95536 -178.86876,-80.97046c-1.41544,-5.52875 -2.16737,-10.86856 -2.3723,-15.99932l1.44353,1.0574c5.04233,7.38268 10.63528,12.70238 16.05165,17.46709c20.49878,18.06229 45.64602,4.74486 45.64602,4.74486c0,0 -8.8904,1.87789 -14.62435,-1.2747c-5.57696,-3.09201 -15.92688,-15.42448 -17.74858,-55.36465c-2.05859,-45.14362 29.16827,-77.57273 29.16827,-77.57273l0.10852,-1.03729c23.36988,6.47376 69.92868,19.54192 86.86914,25.64964c23.0322,8.29133 64.63295,19.24032 64.63295,19.24032c0,0 -5.18282,-12.2358 -19.27254,-23.4503c-7.05273,-5.61305 -11.90585,-8.76564 -14.994,-10.52263l2.89893,0.4542c0,0 87.86647,12.98387 103.95833,51.97517c15.65364,37.88545 -2.99174,78.17155 -2.99174,78.17155c0,0 19.11582,-6.89987 30.40662,-28.49239l0.61917,0.12064v0v0z"/></g><g fill="#ffffff" stroke="#ffffff" stroke-linecap="round" stroke-linejoin="miter"><path d="M426.56592,256.99841c0,0 40.48717,-45.33642 42.74295,-47.48781c2.25579,-2.14314 18.99105,-22.66203 67.21868,-29.67067c0,0 -30.97372,137.73045 -103.12184,169.2388c-0.00412,-0.00825 6.85965,-39.41766 -6.8398,-92.08031v0v0zM426.84354,258.10814c-1.03755,-4.35459 -4.18601,-12.04685 -4.18601,-12.04685M429.94767,359.6377c0,0 2.7703,-6.60652 3.45392,-10.56723"/><path d="M462.16361,327.42563c0,0 -7.22956,-5.55299 -8.06191,-23.82021c-0.53488,-11.33101 4.44301,-31.99477 4.44301,-31.99477l-0.406,0.65939c3.15645,-3.65112 6.48587,-7.9173 9.50158,-12.59772c5.11064,-7.9173 11.08974,-19.79118 16.57029,-31.49623l0.8486,-1.61239c0,0 14.49159,-21.19451 44.52805,-23.87667l0.34593,0.18895c-6.32915,20.93725 -16.65098,51.64547 -28.08252,72.62294c-12.81889,23.5346 -27.66028,40.62379 -40.22578,52.35693l0.53875,-0.43022v0v0zM446.03566,284.07561c0,0 10.53887,-10.30172 12.50905,-12.46497"/></g><g fill="#ffffff" stroke="#ffffff" stroke-linecap="round" stroke-linejoin="miter"><path d="M35.72366,349.07048c-72.14425,-31.50423 -103.11798,-169.23468 -103.11798,-169.23468c48.23176,7.01277 64.96702,27.53166 67.21869,29.67093c2.25167,2.14314 42.74296,47.48756 42.74296,47.48756c-13.70744,52.66678 -6.84367,92.07619 -6.84367,92.07619v0v0zM46.46772,246.06128c0,0 -3.1446,7.69226 -4.18601,12.04685M35.72366,349.07048c0.68749,3.96071 3.45805,10.56723 3.45805,10.56723"/><path d="M7.50039,327.85998c-12.5655,-11.74139 -27.3989,-28.83032 -40.22578,-52.35719c-11.43567,-20.97721 -21.75337,-51.68543 -28.08252,-72.62269l0.34594,-0.18895c30.04058,2.68601 44.52805,23.87641 44.52805,23.87641l0.84859,1.61238c5.48056,11.70505 11.45965,23.57919 16.57029,31.49649c3.01571,4.68042 6.34513,8.9466 9.50159,12.59772l-0.40212,-0.65965c0,0 4.97815,20.66376 4.44327,31.99503c-0.83235,18.26722 -8.05804,23.82021 -8.05804,23.82021l0.53076,0.43023v0v0zM10.58441,271.61064c1.97043,2.16325 12.5093,12.46497 12.5093,12.46497"/></g><path d="M200.43464,317.74308v0v0c3.20466,0.90067 5.06631,4.2221 4.16178,7.43088c-0.8968,3.21265 -4.20199,5.07455 -7.43088,4.19374c-0.18482,-0.06032 -18.89439,-5.14261 -37.18584,0.18921c-0.56298,0.1606 -1.12184,0.24514 -1.68069,0.24514c-2.61384,0 -5.02635,-1.72091 -5.79426,-4.35073c-0.45445,-1.53195 -0.22916,-3.11212 0.46245,-4.43914c-1.13009,-0.98908 -2.19959,-2.2679 -2.93941,-4.02902c-0.86845,-2.04261 0.08841,-4.40692 2.13902,-5.27537c2.03075,-0.8406 4.40306,0.0763 5.27563,2.13515c0.69161,1.64048 2.69401,2.11092 2.71823,2.11891c0.59108,0.13275 1.10972,0.40213 1.55593,0.75606c0.5952,-0.12064 1.19427,-0.2534 1.78148,-0.35393c-0.61944,-0.93289 -1.19427,-1.98228 -1.54021,-3.26497c-0.57097,-2.15526 0.70786,-4.34274 2.85899,-4.9217c2.16737,-0.59108 4.35072,0.71971 4.91757,2.85899c0.45445,1.71678 2.3241,2.48881 2.34034,2.4968c0.87257,0.29773 1.51597,0.90093 1.98641,1.61651c14.40292,-0.67151 25.73006,2.41251 26.37347,2.59347z" fill="#ffffff" stroke="none" stroke-linecap="butt" stroke-linejoin="miter"/><path d="M344.32514,312.79329v0v0c-0.70785,3.58281 -2.85898,5.72595 -4.6201,7.02076c0.44621,1.12983 0.67537,2.3723 0.36192,3.64288c-0.80014,3.22889 -3.9968,5.2233 -7.30225,4.41517c-12.52528,-3.09227 -28.74191,-4.20998 -32.00276,-0.8888c-1.17829,1.19427 -2.71823,1.79334 -4.28654,1.79334c-1.53995,0 -3.06392,-0.58283 -4.24194,-1.74514c-2.3723,-2.33209 -2.40452,-6.14794 -0.06444,-8.52823c6.30079,-6.40159 19.59837,-6.2366 30.23778,-4.8374c0.51864,-0.44621 1.34301,-1.35899 1.42343,-2.61771c0.11651,-2.21145 1.84954,-4.05712 4.2221,-3.80785c2.21145,0.11265 3.91225,1.99441 3.80372,4.21797c-0.08042,1.39946 -0.4261,2.57749 -0.85658,3.65911c0.52689,0.10465 1.02955,0.20519 1.49999,0.31372c0.42224,-0.6434 0.94088,-1.21438 1.69667,-1.54408c0.11677,-0.06419 1.898,-0.945 2.24394,-2.66591c0.44621,-2.17536 2.52103,-3.62689 4.72862,-3.15645c2.17536,0.44234 3.58256,2.54527 3.15645,4.72862z" fill="#ffffff" stroke="none" stroke-linecap="butt" stroke-linejoin="miter"/><path d="M200.65581,369.01452v0v0l98.91599,-7.51105c0,0 -11.50811,29.57014 -47.96239,29.57014c-36.4419,0 -50.95361,-22.0591 -50.95361,-22.0591z" fill="url(#color-5)" stroke="url(#color-6)" stroke-linecap="round" stroke-linejoin="round"/></g></g></g></svg>