<svg version="1.1" xmlns="http://www.w3.org/2000/svg" xmlns:xlink="http://www.w3.org/1999/xlink" width="204.97979" height="247.21964" viewBox="0,0,204.97979,247.21964"><defs><linearGradient x1="245.69595" y1="179.54303" x2="245.69595" y2="300.66869" gradientUnits="userSpaceOnUse" id="color-1"><stop offset="0" stop-color="#00d81c"/><stop offset="1" stop-color="#076900"/></linearGradient><linearGradient x1="190.19664" y1="188.54133" x2="190.19664" y2="309.66699" gradientUnits="userSpaceOnUse" id="color-2"><stop offset="0" stop-color="#00d81c"/><stop offset="1" stop-color="#076900"/></linearGradient><linearGradient x1="279.19126" y1="199.54057" x2="279.19126" y2="320.66623" gradientUnits="userSpaceOnUse" id="color-3"><stop offset="0" stop-color="#00d81c"/><stop offset="1" stop-color="#076900"/></linearGradient><linearGradient x1="161.21148" y1="204.54056" x2="161.21148" y2="325.66622" gradientUnits="userSpaceOnUse" id="color-4"><stop offset="0" stop-color="#00d81c"/><stop offset="1" stop-color="#076900"/></linearGradient></defs><g transform="translate(-117.71148,-78.44658)"><g stroke-miterlimit="10"><path d="M296.69472,240.10584c0,33.44794 -22.83293,60.56285 -50.99877,60.56285c-28.16583,0 -50.99877,-27.11491 -50.99877,-60.56284c0,-33.44794 22.83293,-60.56284 50.99877,-60.56284c28.16583,0 50.99877,27.11491 50.99877,60.56285z" fill="url(#color-1)" stroke="none" stroke-width="0" stroke-linecap="butt" stroke-linejoin="miter"/><path d="M233.69664,249.10414c0,33.44794 -19.47562,60.56285 -43.5,60.56285c-24.02438,0 -43.5,-27.11491 -43.5,-60.56284c0,-33.44794 19.47562,-60.56284 43.5,-60.56284c24.02438,0 43.5,27.11491 43.5,60.56285z" fill="url(#color-2)" stroke="none" stroke-width="0" stroke-linecap="butt" stroke-linejoin="miter"/><g fill="#5e154d" stroke="#5e154d" stroke-linecap="butt" stroke-linejoin="miter"><path d="M243.00345,92.24296l2.74,10.54" stroke-width="0.5"/><path d="M253.58345,100.74296l-2.74,-10.54" stroke-width="0.5"/><path d="M242.93565,91.95186l7.8384,-2.0418l0.5041,1.9354l-7.8384,2.0418z" stroke-width="0.5"/><path d="M253.49605,100.70556c0.0052,-0.552 0.2339,-1.0498 0.5993,-1.4084c0.3654,-0.3586 0.8675,-0.5779 1.4195,-0.5727c0.5519,0.0052 1.0498,0.2339 1.4084,0.5993c0.3585,0.3654 0.5778,0.8675 0.5726,1.4195c-0.0052,0.552 -0.2339,1.0498 -0.5993,1.4084c-0.3654,0.3586 -0.8675,0.5779 -1.4194,0.5727c-0.552,-0.0052 -1.0499,-0.234 -1.4085,-0.5993c-0.3585,-0.3654 -0.5778,-0.8675 -0.5726,-1.4195z" stroke-width="0.5"/><path d="M245.66115,102.75846c0.0052,-0.552 0.2339,-1.0499 0.5993,-1.4085c0.3654,-0.3585 0.8675,-0.5778 1.4194,-0.5726c0.552,0.0052 1.0499,0.2339 1.4085,0.5993c0.3585,0.3654 0.5778,0.8675 0.5726,1.4195c-0.0052,0.5519 -0.2339,1.0498 -0.5993,1.4084c-0.3654,0.3585 -0.8675,0.5778 -1.4195,0.5726c-0.5519,-0.0052 -1.0498,-0.2339 -1.4084,-0.5993c-0.3585,-0.3654 -0.5778,-0.8675 -0.5726,-1.4194z" stroke-width="0.5"/></g><g fill="#5e154d" stroke="#5e154d" stroke-linecap="butt" stroke-linejoin="miter"><path d="M268.79085,89.99506c0.3117,-0.4543 0.7793,-0.7398 1.2827,-0.8334c0.5033,-0.0937 1.0428,0.0037 1.498,0.316c0.4551,0.3124 0.7401,0.7808 0.8337,1.2841c0.0936,0.5033 -0.0046,1.0423 -0.3163,1.4967c-0.3124,0.4551 -0.78,0.7406 -1.2833,0.8342c-0.5033,0.0937 -1.0423,-0.0045 -1.4975,-0.3169c-0.4551,-0.3123 -0.7406,-0.7799 -0.8342,-1.2832c-0.0937,-0.5033 0.0045,-1.0423 0.3169,-1.4975z" stroke-width="0.5"/><path d="M268.72345,90.36296l4.06,-11.58" stroke-width="0.5"/><path d="M267.44345,84.20296c-0.01,-1.913 1.068,-3.666 2.78,-4.52c0.81,-0.411 1.671,-0.713 2.56,-0.9l-0.66,1.86c-0.895,0.084 -1.764,0.342 -2.56,0.76c-0.962,0.709 -1.698,1.682 -2.12,2.8z" stroke-width="0.5"/></g><g fill="#5e154d" stroke="#5e154d" stroke-linecap="butt" stroke-linejoin="miter"><path d="M229.08275,112.62706c0.1386,-0.5343 0.4811,-0.962 0.9224,-1.2215c0.4413,-0.2594 0.9816,-0.3506 1.5159,-0.212c0.5333,0.1385 0.961,0.4809 1.2214,0.9225c0.2595,0.4413 0.3507,0.9816 0.212,1.5159c-0.1387,0.5342 -0.4811,0.9619 -0.9225,1.2214c-0.4423,0.2592 -0.9825,0.3504 -1.5158,0.212c-0.5343,-0.1387 -0.962,-0.4811 -1.2215,-0.9225c-0.2594,-0.4413 -0.3506,-0.9815 -0.2119,-1.5158z" stroke-width="0.5"/><path d="M228.98345,100.72296l0.14,12.26" stroke-width="0.5"/><path d="M225.80345,107.64296c-0.666,-1.797 -0.247,-3.817 1.08,-5.2c0.593,-0.654 1.265,-1.232 2,-1.72v2c-0.815,0.391 -1.548,0.934 -2.16,1.6c-0.611,0.999 -0.93,2.149 -0.92,3.32z" stroke-width="0.5"/></g><g><g stroke-width="2" stroke-linecap="butt" stroke-linejoin="miter"><path d="M262.08345,125.10296v17.28h-0.86v-16.24h-84.46v16.24h-0.86v-17.28h86.18" fill="#1c9b47" stroke="#1c9b47"/><path d="M176.76345,126.14296h84.46v16.24h-2v-14.3h-80.44v14.3h-2.02v-16.24" fill="#007c2c" stroke="#007c2c"/></g><g><path d="M268.54345,143.84296c0.37,0.542 0.565,1.184 0.56,1.84v11.6h-100.2v-11.6c-0.005,-0.656 0.19,-1.298 0.56,-1.84z" fill="#ffdb48" stroke="none" stroke-width="1" stroke-linecap="butt" stroke-linejoin="miter"/><path d="M268.54345,143.84296h-99.08c0.618,-0.907 1.642,-1.453 2.74,-1.46h93.6c1.098,0.007 2.122,0.553 2.74,1.46z" fill="#ffed9f" stroke="none" stroke-width="1" stroke-linecap="butt" stroke-linejoin="miter"/><path d="M268.84345,198.42296h-99.58c-0.169,-0.406 -0.257,-0.841 -0.26,-1.28v-39.86h100.1v39.86c-0.003,0.439 -0.091,0.874 -0.26,1.28z" fill="#d2a6cc" stroke="none" stroke-width="1" stroke-linecap="butt" stroke-linejoin="miter"/><path d="M268.84345,198.42296c-0.525,1.212 -1.719,1.997 -3.04,2h-93.6c-1.321,-0.003 -2.515,-0.788 -3.04,-2z" fill="#9f509e" stroke="none" stroke-width="1" stroke-linecap="butt" stroke-linejoin="miter"/><path d="M172.98345,170.64296l0.6,1.54" fill="none" stroke="#ca90c7" stroke-width="0.5" stroke-linecap="round" stroke-linejoin="round"/><path d="M204.60345,171.96296l-1.44,1.26" fill="none" stroke="#ca90c7" stroke-width="0.5" stroke-linecap="round" stroke-linejoin="round"/><path d="M195.54345,166.36296l0.96,1" fill="none" stroke="#ca90c7" stroke-width="0.5" stroke-linecap="round" stroke-linejoin="round"/><path d="M198.12345,195.82296l-1.78,0.86" fill="none" stroke="#ca90c7" stroke-width="0.5" stroke-linecap="round" stroke-linejoin="round"/><path d="M175.42345,194.94296l-0.3,1.3" fill="none" stroke="#ca90c7" stroke-width="0.5" stroke-linecap="round" stroke-linejoin="round"/><path d="M171.38345,184.80296v-1.76" fill="none" stroke="#ca90c7" stroke-width="0.5" stroke-linecap="round" stroke-linejoin="round"/><path d="M203.70345,189.08296l-0.66,1.74" fill="none" stroke="#ca90c7" stroke-width="0.5" stroke-linecap="round" stroke-linejoin="round"/><path d="M238.42345,168.36296l-0.8,1.4" fill="none" stroke="#ca90c7" stroke-width="0.5" stroke-linecap="round" stroke-linejoin="round"/><path d="M261.86345,167.92296l0.62,1.4" fill="none" stroke="#ca90c7" stroke-width="0.5" stroke-linecap="round" stroke-linejoin="round"/><path d="M266.00345,190.38296l-1.28,0.9" fill="none" stroke="#ca90c7" stroke-width="0.5" stroke-linecap="round" stroke-linejoin="round"/><path d="M259.02345,196.58296h1.58" fill="none" stroke="#ca90c7" stroke-width="0.5" stroke-linecap="round" stroke-linejoin="round"/><path d="M241.20345,196.40296l-1.16,-1.34" fill="none" stroke="#ca90c7" stroke-width="0.5" stroke-linecap="round" stroke-linejoin="round"/><path d="M234.72345,187.20296v1.84" fill="none" stroke="#ca90c7" stroke-width="0.5" stroke-linecap="round" stroke-linejoin="round"/><path d="M234.18345,175.64296l1.08,1.62" fill="none" stroke="#ca90c7" stroke-width="0.5" stroke-linecap="round" stroke-linejoin="round"/><path d="M180.90345,166.86296h1.86" fill="none" stroke="#ca90c7" stroke-width="0.5" stroke-linecap="round" stroke-linejoin="round"/></g><g><path d="M183.56345,140.46296h5.86v2h-5.86z" fill="#c9e2b3" stroke="none" stroke-width="1" stroke-linecap="butt" stroke-linejoin="miter"/><path d="M183.56345,138.54296h5.86v2h-5.86z" fill="#ffffff" stroke="none" stroke-width="1" stroke-linecap="butt" stroke-linejoin="miter"/><path d="M191.50345,138.54296h5.86v2h-5.86z" fill="#ffffff" stroke="none" stroke-width="1" stroke-linecap="butt" stroke-linejoin="miter"/><path d="M191.50345,140.46296h5.86v2h-5.86z" fill="#c9e2b3" stroke="none" stroke-width="1" stroke-linecap="butt" stroke-linejoin="miter"/><path d="M203.88345,140.46296h5.86v2h-5.86z" fill="#c9e2b3" stroke="none" stroke-width="1" stroke-linecap="butt" stroke-linejoin="miter"/><path d="M203.88345,138.54296h5.86v2h-5.86z" fill="#ffffff" stroke="none" stroke-width="1" stroke-linecap="butt" stroke-linejoin="miter"/><path d="M211.82345,140.46296h5.86v2h-5.86z" fill="#c9e2b3" stroke="none" stroke-width="1" stroke-linecap="butt" stroke-linejoin="miter"/><path d="M211.82345,138.54296h5.86v2h-5.86z" fill="#ffffff" stroke="none" stroke-width="1" stroke-linecap="butt" stroke-linejoin="miter"/><path d="M219.70345,140.46296h5.86v2h-5.86z" fill="#ffffff" stroke="none" stroke-width="1" stroke-linecap="butt" stroke-linejoin="miter"/><path d="M227.64345,140.46296h5.86v2h-5.86z" fill="#c9e2b3" stroke="none" stroke-width="1" stroke-linecap="butt" stroke-linejoin="miter"/><path d="M227.64345,138.54296h5.86v2h-5.86z" fill="#ffffff" stroke="none" stroke-width="1" stroke-linecap="butt" stroke-linejoin="miter"/><path d="M240.62345,138.54296h5.86v2h-5.86z" fill="#ffffff" stroke="none" stroke-width="1" stroke-linecap="butt" stroke-linejoin="miter"/><path d="M240.62345,140.46296h5.86v2h-5.86z" fill="#c9e2b3" stroke="none" stroke-width="1" stroke-linecap="butt" stroke-linejoin="miter"/><path d="M248.54345,138.54296h5.86v2h-5.86z" fill="#ffffff" stroke="none" stroke-width="1" stroke-linecap="butt" stroke-linejoin="miter"/><path d="M248.54345,140.46296h5.86v2h-5.86z" fill="#c9e2b3" stroke="none" stroke-width="1" stroke-linecap="butt" stroke-linejoin="miter"/><path d="M183.56345,140.46296v-1.92h5.86v1.92v1.92h-5.86v-1.92" fill="none" stroke="#149948" stroke-width="0.5" stroke-linecap="round" stroke-linejoin="round"/><path d="M191.48345,140.46296v-1.92h5.88v1.92v1.92h-5.88v-1.92" fill="none" stroke="#149948" stroke-width="0.5" stroke-linecap="round" stroke-linejoin="round"/><path d="M203.88345,140.46296v-1.92h5.86v1.92v1.92h-5.86v-1.92" fill="none" stroke="#149948" stroke-width="0.5" stroke-linecap="round" stroke-linejoin="round"/><path d="M211.82345,140.46296v-1.92h5.86v1.92v1.92h-5.86v-1.92" fill="none" stroke="#149948" stroke-width="0.5" stroke-linecap="round" stroke-linejoin="round"/><path d="M219.70345,140.46296h5.86v2h-5.86z" fill="none" stroke="#149948" stroke-width="0.5" stroke-linecap="round" stroke-linejoin="round"/><path d="M227.64345,140.46296v-1.92h5.86v1.92v1.92h-5.86v-1.92" fill="none" stroke="#149948" stroke-width="0.5" stroke-linecap="round" stroke-linejoin="round"/><path d="M240.62345,140.46296v-1.92h5.86v1.92v1.92h-5.86v-1.92" fill="none" stroke="#149948" stroke-width="0.5" stroke-linecap="round" stroke-linejoin="round"/><path d="M248.54345,138.54296h5.86v1.92v1.92h-5.86v-1.92v-1.92" fill="none" stroke="#149948" stroke-width="0.5" stroke-linecap="round" stroke-linejoin="round"/></g><g stroke-linecap="butt" stroke-linejoin="miter"><path d="M184.28345,146.14296h68.84v7.46h-68.84z" fill="#ffffff" stroke="#5e154d" stroke-width="0.72"/><path d="M208.02345,148.76296h41.06" fill="none" stroke="#5e154d" stroke-width="0.5"/><path d="M208.02345,151.02296h41.06" fill="none" stroke="#5e154d" stroke-width="0.5"/><path d="M228.56345,153.62296v-7.48" fill="none" stroke="#5e154d" stroke-width="0.5"/><g stroke-width="2"><path d="M188.66345,148.76296h3.5v2.26h-3.5z" fill="#007c2c" stroke="#007c2c"/><path d="M192.16345,148.76296h3.38v2.26h-3.38z" fill="#f05822" stroke="#f05822"/><path d="M195.54345,148.76296h3.38v2.26h-3.38z" fill="#007c2c" stroke="#007c2c"/><path d="M198.92345,148.76296h3.5v2.26h-3.5z" fill="#f05822" stroke="#f05822"/></g></g><g stroke="#f05822" stroke-linecap="butt" stroke-linejoin="miter"><path d="M176.62345,144.96296c1.357,0 2.587,0.551 3.478,1.442c0.891,0.891 1.442,2.121 1.442,3.478c0,1.357 -0.551,2.587 -1.442,3.478c-0.891,0.891 -2.121,1.442 -3.478,1.442c-1.357,0 -2.587,-0.551 -3.478,-1.442c-0.891,-0.891 -1.442,-2.121 -1.442,-3.478c0,-1.357 0.551,-2.587 1.442,-3.478c0.891,-0.891 2.121,-1.442 3.478,-1.442z" fill="#ffffff" stroke-width="0.96"/><path d="M172.06345,151.68296l6.36,-6.34" fill="none" stroke-width="0.5"/><path d="M173.34345,152.96296l6.34,-6.34" fill="none" stroke-width="0.5"/><path d="M180.92345,147.84296l-6.34,6.36" fill="none" stroke-width="0.5"/><path d="M181.16345,151.92296l-6.34,-6.34" fill="none" stroke-width="0.5"/><path d="M179.88345,153.20296l-6.34,-6.34" fill="none" stroke-width="0.5"/><path d="M178.66345,154.44296l-6.36,-6.36" fill="none" stroke-width="0.5"/><path d="M176.62345,146.24296c1.004,0 1.914,0.408 2.573,1.067c0.659,0.659 1.067,1.569 1.067,2.573c0,1.004 -0.408,1.914 -1.067,2.573c-0.659,0.659 -1.569,1.067 -2.573,1.067c-1.004,0 -1.914,-0.408 -2.573,-1.067c-0.659,-0.659 -1.067,-1.569 -1.067,-2.573c0,-1.004 0.408,-1.914 1.067,-2.573c0.659,-0.659 1.569,-1.067 2.573,-1.067z" fill="none" stroke-width="0.5"/></g><g stroke="#f05822" stroke-linecap="butt" stroke-linejoin="miter"><path d="M261.08345,144.96296c1.357,0 2.587,0.551 3.478,1.442c0.891,0.891 1.442,2.121 1.442,3.478c0,1.357 -0.551,2.587 -1.442,3.478c-0.891,0.891 -2.121,1.442 -3.478,1.442c-1.357,0 -2.587,-0.551 -3.478,-1.442c-0.891,-0.891 -1.442,-2.121 -1.442,-3.478c0,-1.357 0.551,-2.587 1.442,-3.478c0.891,-0.891 2.121,-1.442 3.478,-1.442z" fill="#ffffff" stroke-width="0.96"/><path d="M261.08345,146.24296c1.004,0 1.914,0.408 2.573,1.067c0.659,0.659 1.067,1.569 1.067,2.573c0,1.004 -0.408,1.914 -1.067,2.573c-0.659,0.659 -1.569,1.067 -2.573,1.067c-1.004,0 -1.914,-0.408 -2.573,-1.067c-0.659,-0.659 -1.067,-1.569 -1.067,-2.573c0,-1.004 0.408,-1.914 1.067,-2.573c0.659,-0.659 1.569,-1.067 2.573,-1.067z" fill="none" stroke-width="0.5"/><path d="M262.88345,145.34296l-6.36,6.34" fill="none" stroke-width="0.5"/><path d="M257.80345,152.96296l6.34,-6.34" fill="none" stroke-width="0.5"/><path d="M259.04345,154.20296l6.34,-6.36" fill="none" stroke-width="0.5"/><path d="M259.28345,145.58296l6.34,6.34" fill="none" stroke-width="0.5"/><path d="M258.00345,146.86296l6.36,6.34" fill="none" stroke-width="0.5"/><path d="M263.12345,154.44296l-6.36,-6.36" fill="none" stroke-width="0.5"/></g><g><path d="M188.02345,167.36296c3.984,0 7.594,1.618 10.208,4.232c2.614,2.614 4.232,6.224 4.232,10.208c0,3.984 -1.618,7.594 -4.232,10.208c-2.614,2.614 -6.224,4.232 -10.208,4.232c-3.984,0 -7.594,-1.618 -10.208,-4.232c-2.614,-2.614 -4.232,-6.224 -4.232,-10.208c0,-3.984 1.618,-7.594 4.232,-10.208c2.614,-2.614 6.224,-4.232 10.208,-4.232z" fill="#ca90c7" stroke="none" stroke-width="1" stroke-linecap="butt" stroke-linejoin="miter"/><path d="M188.02345,170.12296c3.222,0 6.142,1.309 8.257,3.423c2.114,2.115 3.423,5.035 3.423,8.257c0,3.222 -1.309,6.142 -3.423,8.257c-2.115,2.114 -5.035,3.423 -8.257,3.423c-3.222,0 -6.142,-1.309 -8.257,-3.423c-2.114,-2.115 -3.423,-5.035 -3.423,-8.257c0,-3.222 1.309,-6.142 3.423,-8.257c2.115,-2.114 5.035,-3.423 8.257,-3.423z" fill="#eac5dd" stroke="#eac5dd" stroke-width="0.5" stroke-linecap="round" stroke-linejoin="round"/><g fill="none" stroke="#9f509e" stroke-width="0.72" stroke-linecap="butt" stroke-linejoin="miter"><path d="M172.64345,185.38296l19.06,-19.06"/><path d="M175.00345,187.78296l19.06,-19.06"/><path d="M177.36345,190.18296l19.08,-19.08"/><path d="M179.72345,192.56296l19.08,-19.06"/><path d="M201.16345,175.90296l-19.08,19.06"/><path d="M184.46345,197.36296l19.06,-19.08"/><path d="M191.62345,197.28296l-19.06,-19.08"/><path d="M174.96345,175.84296l19.06,19.08"/><path d="M196.42345,192.56296l-19.08,-19.08"/><path d="M179.74345,171.12296l19.06,19.06"/><path d="M182.14345,168.76296l19.06,19.06"/><path d="M184.52345,166.40296l19.08,19.06"/></g><path d="M188.02345,170.12296c3.222,0 6.142,1.309 8.257,3.423c2.114,2.115 3.423,5.035 3.423,8.257c0,3.222 -1.309,6.142 -3.423,8.257c-2.115,2.114 -5.035,3.423 -8.257,3.423c-3.222,0 -6.142,-1.309 -8.257,-3.423c-2.114,-2.115 -3.423,-5.035 -3.423,-8.257c0,-3.222 1.309,-6.142 3.423,-8.257c2.115,-2.114 5.035,-3.423 8.257,-3.423z" fill="none" stroke="#5e154d" stroke-width="0.96" stroke-linecap="round" stroke-linejoin="round"/></g><g><g fill="none" stroke="#9f509e" stroke-width="0.72" stroke-linecap="butt" stroke-linejoin="miter"><path d="M234.64345,185.38296l19.06,-19.06"/><path d="M237.00345,187.78296l19.06,-19.06"/><path d="M239.36345,190.18296l19.08,-19.08"/><path d="M241.72345,192.56296l19.08,-19.06"/><path d="M263.16345,175.90296l-19.08,19.06"/><path d="M246.46345,197.36296l19.06,-19.08"/><path d="M253.62345,197.28296l-19.06,-19.08"/><path d="M236.96345,175.84296l19.06,19.08"/><path d="M258.42345,192.56296l-19.08,-19.08"/><path d="M260.80345,190.18296l-19.06,-19.06"/><path d="M263.20345,187.82296l-19.06,-19.06"/><path d="M265.60345,185.46296l-19.08,-19.06"/></g><path d="M250.02345,167.36296c3.984,0 7.594,1.618 10.208,4.232c2.614,2.614 4.232,6.224 4.232,10.208c0,3.984 -1.618,7.594 -4.232,10.208c-2.614,2.614 -6.224,4.232 -10.208,4.232c-3.984,0 -7.594,-1.618 -10.208,-4.232c-2.614,-2.614 -4.232,-6.224 -4.232,-10.208c0,-3.984 1.618,-7.594 4.232,-10.208c2.614,-2.614 6.224,-4.232 10.208,-4.232z" fill="#ca90c7" stroke="none" stroke-width="1" stroke-linecap="butt" stroke-linejoin="miter"/><path d="M250.02345,170.12296c3.222,0 6.142,1.309 8.257,3.423c2.114,2.115 3.423,5.035 3.423,8.257c0,3.222 -1.309,6.142 -3.423,8.257c-2.115,2.114 -5.035,3.423 -8.257,3.423c-3.222,0 -6.142,-1.309 -8.257,-3.423c-2.114,-2.115 -3.423,-5.035 -3.423,-8.257c0,-3.222 1.309,-6.142 3.423,-8.257c2.115,-2.114 5.035,-3.423 8.257,-3.423z" fill="#eac5dd" stroke="#eac5dd" stroke-width="0.5" stroke-linecap="round" stroke-linejoin="round"/><g fill="none" stroke="#9f509e" stroke-width="0.72" stroke-linecap="butt" stroke-linejoin="miter"><path d="M235.04345,185.38296l19.08,-19.06"/><path d="M237.40345,187.78296l19.08,-19.06"/><path d="M239.78345,190.18296l19.06,-19.08"/><path d="M242.14345,192.56296l19.06,-19.06"/><path d="M244.50345,194.96296l19.06,-19.06"/><path d="M246.86345,197.36296l19.06,-19.08"/><path d="M234.96345,178.20296l19.08,19.08"/><path d="M256.44345,194.92296l-19.08,-19.08"/><path d="M258.82345,192.56296l-19.06,-19.08"/><path d="M261.22345,190.18296l-19.08,-19.06"/><path d="M263.62345,187.82296l-19.08,-19.06"/><path d="M266.00345,185.46296l-19.06,-19.06"/></g><path d="M250.02345,170.12296c3.222,0 6.142,1.309 8.257,3.423c2.114,2.115 3.423,5.035 3.423,8.257c0,3.222 -1.309,6.142 -3.423,8.257c-2.115,2.114 -5.035,3.423 -8.257,3.423c-3.222,0 -6.142,-1.309 -8.257,-3.423c-2.114,-2.115 -3.423,-5.035 -3.423,-8.257c0,-3.222 1.309,-6.142 3.423,-8.257c2.115,-2.114 5.035,-3.423 8.257,-3.423z" fill="none" stroke="#5e154d" stroke-width="0.96" stroke-linecap="round" stroke-linejoin="round"/></g><g stroke-linecap="butt" stroke-linejoin="miter"><path d="M173.56345,159.86296h28.88v4.5h-28.88z" fill="#eac5dd" stroke="#eac5dd" stroke-width="0.5"/><path d="M236.14345,159.86296h28.88v4.5h-28.88z" fill="#eac5dd" stroke="#ec2777" stroke-width="0.5"/><path d="M236.14345,159.92296h28.88v4.5h-28.88z" fill="none" stroke="#9f509e" stroke-width="0.72"/><path d="M202.44345,161.36296h-28.88" fill="none" stroke="#9f509e" stroke-width="0.5"/><path d="M173.58345,162.88296h28.86" fill="none" stroke="#9f509e" stroke-width="0.5"/><path d="M265.02345,161.36296h-28.88" fill="none" stroke="#9f509e" stroke-width="0.5"/><path d="M236.14345,162.88296h28.88" fill="none" stroke="#9f509e" stroke-width="0.5"/><path d="M173.56345,159.86296h28.88v4.5h-28.88z" fill="none" stroke="#9f509e" stroke-width="0.72"/></g><g><path d="M209.50345,171.96296h20.3v10.6h-20.3z" fill="#5e154d" stroke="#5e154d" stroke-width="0.96" stroke-linecap="round" stroke-linejoin="round"/><path d="M207.06345,159.92296h25.3v9.66h-25.3z" fill="#ffdb48" stroke="none" stroke-width="1" stroke-linecap="butt" stroke-linejoin="miter"/><path d="M207.06345,185.52296h25.3v11.06h-25.3z" fill="#007c2c" stroke="none" stroke-width="1" stroke-linecap="butt" stroke-linejoin="miter"/><path d="M207.06345,169.58296h25.3v15.96h-25.3z" fill="none" stroke="none" stroke-width="1" stroke-linecap="butt" stroke-linejoin="miter"/><path d="M234.18345,200.44296h-29.06l1.94,-3.84h25.3l1.82,3.84" fill="#5e154d" stroke="#5e154d" stroke-width="0.72" stroke-linecap="round" stroke-linejoin="round"/><path d="M207.06345,159.92296h25.3v9.66h-25.3z" fill="#f05822" stroke="none" stroke-width="1" stroke-linecap="butt" stroke-linejoin="miter"/><path d="M207.06345,159.92296h25.3v9.66v15.96v11.06h-25.3v-11.06v-15.96v-9.66" fill="none" stroke="#5e154d" stroke-width="0.72" stroke-linecap="round" stroke-linejoin="round"/><path d="M209.50345,162.68296h20.3v4.5h-20.3z" fill="#ffdb48" stroke="#5e154d" stroke-width="0.72" stroke-linecap="round" stroke-linejoin="round"/><path d="M211.84345,164.00296v1.86" fill="none" stroke="#5e154d" stroke-width="0.5" stroke-linecap="round" stroke-linejoin="round"/><path d="M217.08345,164.00296v1.86" fill="none" stroke="#5e154d" stroke-width="0.5" stroke-linecap="round" stroke-linejoin="round"/><path d="M222.32345,164.00296v1.86" fill="none" stroke="#5e154d" stroke-width="0.5" stroke-linecap="round" stroke-linejoin="round"/><path d="M227.56345,164.00296v1.86" fill="none" stroke="#5e154d" stroke-width="0.5" stroke-linecap="round" stroke-linejoin="round"/><path d="M209.50345,164.92296h20.3" fill="none" stroke="#5e154d" stroke-width="0.5" stroke-linecap="round" stroke-linejoin="round"/><g stroke="#5e154d" stroke-width="0.72" stroke-linecap="butt" stroke-linejoin="miter"><path d="M209.50345,187.98296h20.3v3.02h-20.3z" fill="#ffffff"/><path d="M209.50345,191.00296h20.3v3.02h-20.3z" fill="#ffdb48"/><path d="M214.66345,187.96296v3.04" fill="none"/><path d="M224.62345,191.00296v-3.04" fill="none"/><path d="M219.64345,191.00296v-3.04" fill="none"/></g><path d="M214.42345,180.04296c-1.535,0 -2.78,-1.245 -2.78,-2.78c0,-1.535 1.245,-2.78 2.78,-2.78c1.535,0 2.78,1.245 2.78,2.78c0,1.535 -1.245,2.78 -2.78,2.78zM219.00345,177.26296h1.28z" fill="none" stroke="#ffffff" stroke-width="0.72" stroke-linecap="round" stroke-linejoin="round"/><path d="M224.88345,174.48296c0.767,0 1.462,0.312 1.965,0.815c0.503,0.503 0.815,1.198 0.815,1.965c0,0.767 -0.312,1.462 -0.815,1.965c-0.503,0.503 -1.198,0.815 -1.965,0.815c-0.767,0 -1.462,-0.312 -1.965,-0.815c-0.503,-0.503 -0.815,-1.198 -0.815,-1.965c0,-0.767 0.312,-1.462 0.815,-1.965c0.503,-0.503 1.198,-0.815 1.965,-0.815z" fill="none" stroke="#ffffff" stroke-width="0.72" stroke-linecap="round" stroke-linejoin="round"/><path d="M214.42345,175.26296c0.552,0 1.052,0.224 1.414,0.586c0.362,0.362 0.586,0.862 0.586,1.414c0,0.552 -0.224,1.052 -0.586,1.414c-0.362,0.362 -0.862,0.586 -1.414,0.586c-0.552,0 -1.052,-0.224 -1.414,-0.586c-0.362,-0.362 -0.586,-0.862 -0.586,-1.414c0,-0.552 0.224,-1.052 0.586,-1.414c0.362,-0.362 0.862,-0.586 1.414,-0.586z" fill="#ffffff" stroke="#ffffff" stroke-width="0.5" stroke-linecap="round" stroke-linejoin="round"/><path d="M224.88345,175.26296c0.552,0 1.052,0.224 1.414,0.586c0.362,0.362 0.586,0.862 0.586,1.414c0,0.552 -0.224,1.052 -0.586,1.414c-0.362,0.362 -0.862,0.586 -1.414,0.586c-0.552,0 -1.052,-0.224 -1.414,-0.586c-0.362,-0.362 -0.586,-0.862 -0.586,-1.414c0,-0.552 0.224,-1.052 0.586,-1.414c0.362,-0.362 0.862,-0.586 1.414,-0.586z" fill="#ffffff" stroke="#ffffff" stroke-width="0.5" stroke-linecap="round" stroke-linejoin="round"/></g><g fill="none" stroke="#ffffff" stroke-width="0.96" stroke-linecap="butt" stroke-linejoin="miter"><path d="M266.98345,182.74296v2.36"/><path d="M266.98345,166.24296v14.52"/></g><path d="M269.10345,145.68296v51.46c0,0.875 -0.348,1.715 -0.967,2.333c-0.618,0.619 -1.458,0.967 -2.333,0.967h-93.5c-1.823,0 -3.3,-1.477 -3.3,-3.3v-51.46c-0.001,-1.784 1.417,-3.246 3.2,-3.3h93.6c1.823,0 3.3,1.477 3.3,3.3z" fill="none" stroke="#5e154d" stroke-width="0.96" stroke-linecap="round" stroke-linejoin="round"/></g><path d="M322.69126,260.10338c0,33.44794 -19.47562,60.56285 -43.5,60.56285c-24.02438,0 -43.5,-27.11491 -43.5,-60.56284c0,-33.44794 19.47562,-60.56284 43.5,-60.56284c24.02438,0 43.5,27.11491 43.5,60.56285z" fill="url(#color-3)" stroke="none" stroke-width="0" stroke-linecap="butt" stroke-linejoin="miter"/><path d="M204.71148,265.10337c0,33.44794 -19.47562,60.56285 -43.5,60.56285c-24.02438,0 -43.5,-27.11491 -43.5,-60.56284c0,-33.44794 19.47562,-60.56284 43.5,-60.56284c24.02438,0 43.5,27.11491 43.5,60.56285z" fill="url(#color-4)" stroke="none" stroke-width="0" stroke-linecap="butt" stroke-linejoin="miter"/></g></g></svg>