<svg version="1.1" xmlns="http://www.w3.org/2000/svg" xmlns:xlink="http://www.w3.org/1999/xlink" width="64.74744" height="66.73356" viewBox="0,0,64.74744,66.73356"><defs><linearGradient x1="221.2161" y1="181.7626" x2="258.78388" y2="181.7626" gradientUnits="userSpaceOnUse" id="color-1"><stop offset="0" stop-color="#d06dff"/><stop offset="1" stop-color="#ad00ff"/></linearGradient><radialGradient cx="237.76274" cy="159.94767" r="9.39643" gradientUnits="userSpaceOnUse" id="color-2"><stop offset="0" stop-color="#0009ff"/><stop offset="1" stop-color="#000598"/></radialGradient><radialGradient cx="236.72145" cy="162.44035" r="1.85945" gradientUnits="userSpaceOnUse" id="color-3"><stop offset="0" stop-color="#0009ff"/><stop offset="1" stop-color="#000598"/></radialGradient><linearGradient x1="224.82352" y1="181.93067" x2="255.0016" y2="181.93067" gradientUnits="userSpaceOnUse" id="color-4"><stop offset="0" stop-color="#0009ff"/><stop offset="1" stop-color="#0006bd"/></linearGradient><linearGradient x1="227.81406" y1="181.26793" x2="252.45272" y2="181.26793" gradientUnits="userSpaceOnUse" id="color-5"><stop offset="0" stop-color="#d06dff"/><stop offset="1" stop-color="#ad00ff"/></linearGradient><linearGradient x1="231.76014" y1="181.43371" x2="247.87368" y2="181.43371" gradientUnits="userSpaceOnUse" id="color-6"><stop offset="0" stop-color="#0009ff"/><stop offset="1" stop-color="#0006bd"/></linearGradient><linearGradient x1="236.01564" y1="181.72171" x2="244.15109" y2="181.72171" gradientUnits="userSpaceOnUse" id="color-7"><stop offset="0" stop-color="#d06dff"/><stop offset="1" stop-color="#ad00ff"/></linearGradient><linearGradient x1="237.3186" y1="181.77645" x2="242.63914" y2="181.77645" gradientUnits="userSpaceOnUse" id="color-8"><stop offset="0" stop-color="#0009ff"/><stop offset="1" stop-color="#0006bd"/></linearGradient><radialGradient cx="239.99999" cy="180.00001" r="33.36678" gradientUnits="userSpaceOnUse" id="color-9"><stop offset="0" stop-color="#e2adff"/><stop offset="1" stop-color="#e2adff" stop-opacity="0"/></radialGradient></defs><g transform="translate(-207.62627,-146.63323)"><g data-paper-data="{&quot;isPaintingLayer&quot;:true}" fill-rule="nonzero" stroke-linejoin="miter" stroke-miterlimit="10" stroke-dasharray="" stroke-dashoffset="0" style="mix-blend-mode: normal"><g><path d="M258.53636,181.05718c-1.19452,6.55389 -1.19574,10.12271 -7.13737,15.58914c-6.36023,5.85155 -7.40433,0.13973 -11.6684,0.13973c-3.83815,0 -4.77286,5.41496 -10.42993,0.49192c-4.49851,-3.91482 -8.08456,-10.17769 -8.08456,-17.21819c0,-5.51752 0.57637,-9.77499 3.81696,-13.44507c1.23551,-1.39926 3.48194,-3.19699 4.80594,-2.4851c2.74798,1.47753 4.65416,1.90427 7.96388,1.90427c2.64887,0 -1.57541,0.93307 9.73782,-2.33824c6.97282,-2.01625 12.49554,9.13223 10.99565,17.36154z" fill="url(#color-1)" stroke="#8200c1" stroke-width="2.5" stroke-linecap="butt"/><g stroke="#8200c1" stroke-width="2.5" stroke-linecap="round"><path d="M241.85355,165.13128l-3.17346,0.90643c0,0 -5.83213,-0.58581 -6.29734,-0.67982c-0.46521,-0.094 0.46304,0.33563 -0.99171,-0.79312c-1.13897,-0.88372 -1.71378,-1.85885 -2.28093,-3.05919c-0.56715,-1.20033 -0.9917,-2.4455 -0.74378,-3.34245c0.24792,-0.89695 0.46679,-0.6452 1.93383,-0.96308c1.46704,-0.31788 2.87935,-0.37917 3.81807,-0.28326c0.59964,0.06127 1.06594,-0.02816 2.28093,0.90643c1.215,0.93459 2.7272,2.94589 2.7272,2.94589c0,0 -0.08295,4.14445 -0.04959,4.41884c0.03336,0.27439 0.42333,0.91568 0.54544,-0.33991c0.12211,-1.25559 -0.48475,-1.32034 -0.19834,-3.22915c0.28641,-1.90881 0.57307,-3.21817 1.38839,-4.70209c0.81532,-1.48392 2.21008,-2.67881 2.87595,-3.05919c0.66586,-0.38038 0.89481,-0.82282 1.88424,0.33991c0.98942,1.16273 1.47419,3.29925 1.58673,3.73902c0.11254,0.43977 0.55894,0.63197 -0.3471,1.10503c-0.90604,0.47306 -1.52892,-0.2966 -2.52885,0.39656c-0.99994,0.69316 -1.20594,1.46401 -1.73549,2.66263c-0.52955,1.19862 -0.89254,3.2858 -0.89254,3.2858" fill="url(#color-2)"/><path d="M234.862,160.42922l3.7189,4.02227" fill="url(#color-3)"/></g><path d="M232.17377,168.89064c0,1.25 -1.25,1.25 -1.25,1.25l-0.51896,-0.05272c-1.43339,0.25871 -1.29966,1.13801 -2.07999,2.39237c0,0 -0.6625,1.06 -1.7225,0.3975c-1.06,-0.6625 -0.3975,-1.7225 -0.3975,-1.7225c1.22673,-1.95242 1.16524,-2.62411 3.48162,-3.46194l1.23734,-0.05272c0,0 1.25,0 1.25,1.25z" fill="#d06dff" stroke="none" stroke-width="0.5" stroke-linecap="butt"/><path d="M254.80277,181.36961c-0.95955,5.21266 -0.96053,8.05114 -5.73343,12.39889c-5.10915,4.65406 -5.94787,0.11113 -9.37319,0.11113c-3.08317,0 -3.83402,4.30681 -8.37833,0.39125c-3.61364,-3.11367 -6.4943,-8.09487 -6.4943,-13.69456c0,-4.38838 0.463,-7.77458 3.06615,-10.69359c0.99248,-1.11291 2.79703,-2.54274 3.8606,-1.97653c2.20744,1.17516 3.73867,1.51457 6.39736,1.51457c2.12783,0 -1.26552,0.74212 7.82236,-1.85973c5.60124,-1.60363 10.03763,7.26336 8.83277,13.80857z" fill="url(#color-4)" stroke="#000598" stroke-width="2.5" stroke-linecap="butt"/><path d="M252.29039,180.86906c-0.78342,3.70586 -0.78422,5.72383 -4.68101,8.8148c-4.17133,3.30873 -4.8561,0.07901 -7.65267,0.07901c-2.51723,0 -3.13026,3.06186 -6.84042,0.27815c-2.95033,-2.21361 -5.30222,-5.75492 -5.30222,-9.73594c0,-3.11985 0.37801,-5.52722 2.50334,-7.60245c0.8103,-0.7912 2.28361,-1.80772 3.15195,-1.40519c1.80225,0.83546 3.05241,1.07676 5.22307,1.07676c1.73725,0 -1.03323,0.5276 6.38651,-1.32215c4.57309,-1.14008 8.19514,5.16377 7.21145,9.81699z" fill="url(#color-5)" stroke="#8200c1" stroke-width="2.5" stroke-linecap="butt"/><path d="M247.76752,181.17543c-0.51235,2.39965 -0.51288,3.70634 -3.06135,5.70783c-2.72802,2.14249 -3.17586,0.05116 -5.0048,0.05116c-1.64626,0 -2.04717,1.98264 -4.4736,0.18011c-1.9295,-1.43338 -3.46762,-3.72647 -3.46762,-6.30429c0,-2.02019 0.24722,-3.57903 1.63717,-4.9228c0.52993,-0.51233 1.49347,-1.17055 2.06136,-0.9099c1.17866,0.54098 1.99626,0.69723 3.41586,0.69723c1.13615,0 -0.67572,0.34163 4.17674,-0.85613c2.99078,-0.73823 5.35957,3.34369 4.71624,6.35678z" fill="url(#color-6)" stroke="#000598" stroke-width="2.5" stroke-linecap="butt"/><path d="M244.09749,181.59c-0.25868,1.22364 -0.25894,1.88996 -1.54563,2.91056c-1.37733,1.09251 -1.60344,0.02609 -2.52684,0.02609c-0.83117,0 -1.03358,1.011 -2.25864,0.09184c-0.97417,-0.73091 -1.75074,-1.90022 -1.75074,-3.21472c0,-1.03015 0.12482,-1.82503 0.82658,-2.51026c0.26756,-0.26125 0.75403,-0.59689 1.04075,-0.46398c0.59509,0.27586 1.00788,0.35553 1.72461,0.35553c0.57362,0 -0.34116,0.17421 2.10876,-0.43656c1.50999,-0.37644 2.70596,1.70503 2.38115,3.24148z" fill="url(#color-7)" stroke="#8200c1" stroke-width="2.5" stroke-linecap="butt"/><path d="M242.60408,181.69116c-0.16917,0.79234 -0.16935,1.2238 -1.01083,1.88467c-0.90077,0.70743 -1.04864,0.01689 -1.65254,0.01689c-0.54358,0 -0.67596,0.65465 -1.47714,0.05947c-0.6371,-0.47329 -1.14498,-1.23045 -1.14498,-2.08162c0,-0.66705 0.08163,-1.18176 0.54058,-1.62546c0.17498,-0.16916 0.49313,-0.3865 0.68064,-0.30044c0.38918,0.17863 0.65914,0.23022 1.12788,0.23022c0.37515,0 -0.22312,0.1128 1.37912,-0.28268c0.98753,-0.24376 1.76968,1.10405 1.55726,2.09895z" fill="url(#color-8)" stroke="#000598" stroke-width="2.5" stroke-linecap="butt"/><path d="M272.37371,180.00001c0,18.42797 -14.49421,33.36678 -32.37372,33.36678c-17.87951,0 -32.37372,-14.93882 -32.37372,-33.36678c0,-18.42797 14.49421,-33.36678 32.37372,-33.36678c17.87951,0 32.37372,14.93882 32.37372,33.36678z" fill="url(#color-9)" stroke="none" stroke-width="0" stroke-linecap="butt"/></g></g></g></svg>