<svg version="1.1" xmlns="http://www.w3.org/2000/svg" xmlns:xlink="http://www.w3.org/1999/xlink" width="56.51499" height="42.37355" viewBox="0,0,56.51499,42.37355"><g transform="translate(-211.74251,-139.86187)"><g stroke-miterlimit="10"><path d="M239.89239,179.47962c-13.48936,0 -24.42466,-5.27238 -24.42466,-11.77618c0,-6.50381 10.93529,-11.77618 24.42466,-11.77618c13.48936,0 24.42466,5.27238 24.42466,11.77618c0,6.50381 -10.93529,11.77618 -24.42466,11.77618z" fill="#c7c7c7" stroke="#000000" stroke-width="0.5" stroke-linecap="butt"/><path d="M232.78959,152.12897c1.68271,-1.37939 1.63739,-4.87636 3.51723,-6.20279c0.21309,-0.04387 0.39289,-0.06937 0.52872,-0.0703c1.57198,-0.01073 2.82387,0.07982 4.05086,0.26653c0.09808,0.08486 0.20012,0.16528 0.30578,0.24094c1.18974,3.52665 3.92059,5.44679 7.54336,1.92996c0.67657,0.00265 1.35425,-0.00479 2.031,-0.00375c0.99858,0.40587 1.70068,1.19183 2.4128,1.7808l0.21034,0.33053l0.04609,0.13828l0.12657,0.14766l0.25282,0.50564l0.00872,0.03922l0.20766,0.28753l0.01468,0.0367l0.08829,0.11771l0.02914,0.06919l0.05555,0.0505l0.12641,0.18961l0.05616,0.15724l0.10866,0.12677l0.03792,0.07584l0.15169,0.17697l0.0632,0.12641l0.02432,0.10946l0.06565,0.09089l0.05828,0.14569l0.11664,0.20413l0.32875,0.49312l0.03129,0.08759l0.06435,0.06715l0.25282,0.44243l0.07126,0.25334l0.14129,0.22203l0.06703,0.20108l0.04243,0.08486l0.06313,0.28406l0.13693,0.25676l0.15483,0.6193c0.60616,-0.61591 1.30699,-1.08475 2.17712,-1.33698c0.80897,0.18076 1.51423,0.09205 2.11023,-0.18679c0.51631,0.03897 1.07772,0.13192 1.69106,0.28526c3.79757,0.94939 2.38947,7.61301 2.25349,11.5251c-0.01577,0.45366 -0.0093,1.00016 -0.33029,1.32115c-4.61719,4.61719 -4.84496,-2.67349 -4.95432,-5.02904c-0.01389,-0.29902 -0.26812,0.57786 -0.52802,0.72638c-0.66831,0.3819 -3.78227,0.81222 -4.26631,-0.03483l-0.49851,-0.87238l-0.47636,-0.02268l-0.62223,-0.02073l-0.03733,-0.01066l-0.07884,-0.00375l-0.02176,-0.02498l-0.74693,-0.2134l-0.41642,-0.24024l-0.44307,-0.18656l-0.73388,-0.55041l-0.17615,-0.12582l0.01721,0.80877l-0.52514,0.52514l-0.18463,0.67698l-0.67698,0.18463l-0.49618,0.49618l-0.67938,-0.17557l-0.7165,0.19542l-0.63351,-0.3801l-0.04632,0.00319l-0.10027,-0.09115l-0.33407,-0.20044l-0.06811,-0.0176l-0.03716,-0.06624l-0.13792,-0.13792l-0.1354,-0.22567l-0.19474,-0.17704l-0.50564,-0.75846l-0.00971,-0.02721l-0.02096,-0.01989l-0.88487,-1.3905l-0.0346,-0.10379l-0.073,-0.08148l-0.29142,-0.55216l-0.0258,0.08513l-0.07639,0.12768l-0.0237,0.14689l-0.37922,0.88487l-0.22627,0.29772l-0.19438,0.41034l-0.15735,0.05246l-0.24602,0.3237l-1.10578,0.1269l-1.01707,0.33902l-0.22553,-0.19643l-0.29713,0.0341l-0.64603,-0.85556l-0.83932,-0.73103l-0.01697,-0.35622c-0.03527,0.08708 -0.07505,0.17184 -0.11906,0.25402l-0.01891,0.07564l-0.03483,0.0199c-0.45964,0.7788 -1.30739,1.30125 -2.27718,1.30125c-0.86544,0 -1.6337,-0.41608 -2.11567,-1.0591c-0.33333,0.21623 -0.74714,0.39933 -1.25269,0.5411c-0.13686,0.30726 -0.34656,0.60983 -0.6401,0.90337c-0.62764,0.62764 -1.42439,1.32115 -2.31202,1.32115c-1.45883,0 -1.69259,-2.48785 -2.94311,-3.23913c-2.31483,-1.3907 -3.66802,1.79507 -4.80653,3.03792c-0.08464,0.09239 -0.1602,0.19395 -0.2268,0.30228c0.12254,0.30458 0.18998,0.63726 0.18998,0.98569c0,0.33112 -0.0609,0.648 -0.17212,0.94007c0.22991,0.39182 0.36173,0.84817 0.36173,1.33529c0,1.45529 -1.1765,2.63579 -2.63026,2.64227c-2.76391,1.36958 -3.4954,-3.99581 -3.4128,-7.50904c0.01491,-0.63443 0.15319,-1.12311 0.36935,-1.52388c0.0093,-0.18326 0.01352,-0.35092 0.00988,-0.49867c-0.13539,-5.48863 1.07348,-9.38491 7.69228,-8.28177c1.2078,0.2013 1.92591,1.27735 3.044,1.47101c1.48193,0.25669 2.86441,-0.32411 4.15504,-0.02546c0.07662,-0.02286 0.15469,-0.04234 0.23406,-0.05827c0.44359,-0.2948 0.97056,-0.6246 1.65791,-1.18804zM238.28094,158.13133l0.00519,-0.01274c-0.08893,0.04161 -0.18057,0.07842 -0.27456,0.11008l0.05352,0.24086c0.03012,0.08104 0.05638,0.16398 0.07854,0.24856l0.10209,-0.34028z" fill="#c7c7c7" stroke="none" stroke-width="0.5" stroke-linecap="butt"/><path d="M226.9865,150.96088c0.31963,0 0.6196,0.14987 0.88979,0.35112c0.33682,-1.07132 1.16395,-2.3195 2.1034,-2.32025c0.48385,-1.82375 1.2064,-3.40921 2.70137,-4.47326c0.92156,-2.14762 2.54398,-3.77578 4.57096,-3.75237c0.92529,0.01068 1.62788,0.47294 2.09977,1.14097c1.32494,0.16761 2.58295,1.30711 4.24515,2.88519c0.66992,0.63602 1.83477,0.56742 2.48796,1.22062c0.16338,0.16338 0.33354,0.96718 0.44256,1.92969c0.81215,-0.1863 1.58303,-0.35932 2.15104,-0.33814c5.06095,0.18872 6.72123,3.87317 6.72123,8.53879c0,0.08861 0.00073,0.18828 0.00137,0.29571c0.04638,-0.01772 0.0934,-0.03416 0.14099,-0.04929c2.7077,-3.11159 7.1349,-6.27581 9.09216,-0.79548c0.68556,1.91957 0.33573,5.10879 0.17699,7.06992c-0.23237,2.87073 -3.09764,3.17784 -4.95432,1.32115c-0.94646,-0.94646 -0.3026,-2.66365 -0.33029,-4.00187c-0.01019,-0.49244 -0.55013,0.83886 -0.93952,1.14049c-0.55419,0.42928 -3.08204,0.94113 -3.58466,0.06153c-0.35814,-0.21137 -0.66209,-0.50483 -0.88593,-0.85449c-0.99849,0.69149 -2.42504,0.41238 -3.76423,-0.79139c-1.55176,-1.39483 1.26054,-6.40392 -1.78887,-6.62608c-0.71282,-0.05193 0.21467,1.1898 -0.03318,1.84135c-0.12415,0.32634 -1.21215,1.70277 -1.29,1.78979c-0.9695,1.08355 -3.76657,-0.12747 -5.44929,-0.97497c-0.2664,0.01337 -0.53184,-0.03422 -0.80488,-0.1428c-0.96324,1.13084 -3.05933,0.44443 -4.60548,0.59264c-1.40116,2.34123 -6.81049,4.82556 -7.79985,3.94035l-0.22877,-0.28286c-0.27377,0.51066 -0.6985,0.95539 -1.30397,1.30137c-1.31278,0.75016 -4.28494,-2.14739 -5.57285,-2.79134c-0.46852,0.42316 -1.0894,0.68083 -1.77045,0.68083c-1.4593,0 -2.64231,-1.183 -2.64231,-2.64231c0,-0.09723 0.00525,-0.19326 0.01549,-0.28778c-0.4994,-1.14715 -0.61026,-2.40079 0.06079,-3.37488c0.22624,-0.76069 0.64373,-1.47274 1.00834,-1.67555c0.99174,-0.55162 1.70825,0.67755 2.3253,0.61974c1.32661,-0.12429 1.54551,-2.09109 3.37149,-1.61923c0.68202,0.17625 1.00379,0.89842 1.37481,1.56247c0.04716,0.03817 0.09425,0.07716 0.14121,0.11697c0.27558,-0.36867 0.79005,-0.60633 1.62665,-0.60633zM237.06388,149.60055c-0.00581,0.11028 0.02824,0.65705 0.02164,1.26091c0.43749,-0.01688 0.90553,-0.02734 1.36741,-0.00134c-0.25431,-0.84254 -0.51766,-1.61127 -0.91971,-2.09248c-0.21835,0.26024 -0.45322,0.52729 -0.46933,0.83292z" fill="#c7c7c7" stroke="none" stroke-width="0.5" stroke-linecap="butt"/><path d="M220.94365,166.70846c0.92344,1.64164 -0.42033,3.49271 0.32457,5.05414c1.1243,2.3567 5.03567,-0.29974 6.47199,2.21381c1.88433,3.29759 -3.155,4.26551 -5.27606,4.13057c-4.51265,-0.28707 -6.59017,-4.24212 -6.62811,-8.14203c-0.00412,-0.42431 0.04691,-1.50353 0.1799,-2.31168c0.00831,-0.05828 0.01852,-0.11595 0.03057,-0.17294c0.25279,-1.19569 1.31418,-2.09304 2.58514,-2.09304c0.85988,0 1.62384,0.41074 2.10635,1.04673c0.07875,0.08134 0.14808,0.17205 0.20567,0.27442z" fill="#c7c7c7" stroke="none" stroke-width="0.5" stroke-linecap="butt"/><path d="M256.88011,152.87713c0.00838,0 0.01675,0.00006 0.02511,0.0002c0.02753,-0.85142 0.72642,-1.53321 1.58455,-1.53321c0.41835,0 0.79884,0.16204 1.08216,0.42677c0.43225,-0.07911 0.8619,-0.07378 1.25878,0.03784c0.35263,0.09918 0.63926,0.37371 0.85658,0.7487c0.27545,-0.23103 0.63059,-0.37016 1.01823,-0.37016c0.87558,0 1.58538,0.70981 1.58538,1.58538c0,0.16018 -0.02375,0.31482 -0.06794,0.46056c0.41167,0.28636 0.68113,0.76291 0.68113,1.3024c0,0.87558 -0.70981,1.58538 -1.58538,1.58538c-0.61991,0 -1.15672,-0.35579 -1.41737,-0.87431c-0.1733,0.39016 -0.42685,0.68055 -0.76406,0.79296c-0.65936,0.21979 -1.4443,-0.73763 -2.04774,-0.39279c-0.27577,0.46727 -0.78443,0.78075 -1.3663,0.78075c-0.46826,0 -0.8891,-0.203 -1.17933,-0.52582c-0.06991,0.35113 -0.17933,0.63938 -0.34618,0.80623c-1.05693,1.05693 -1.7175,1.05693 -2.77442,0c-1.221,-1.221 0.88348,-4.46844 0.18508,-5.78709c-0.72321,-1.36549 -3.98836,-1.80973 -5.49116,-1.72343c-0.09147,0.01641 -0.18568,0.02498 -0.28188,0.02498c-0.87558,0 -1.58538,-0.70981 -1.58538,-1.58538c0,-0.21065 0.04108,-0.41171 0.11568,-0.59561c0.37813,-1.50946 1.52025,-3.80403 3.1822,-2.78451c0.09564,0.05867 1.12669,1.99386 1.22858,1.97667c0.88395,-0.14913 1.78179,-0.71296 2.64664,-0.47709c0.17992,0.04906 0.27364,0.19661 0.32893,0.37778c0.04571,-0.00396 0.09197,-0.00598 0.13871,-0.00598c0.53061,0 1.00032,0.26066 1.2881,0.66091c0.4126,-0.07784 0.84895,-0.0883 1.15696,0.11703c1.25119,0.83413 0.58118,3.42829 0.32975,4.98521c0.07017,-0.00949 0.14179,-0.01439 0.21456,-0.01439z" fill="#c7c7c7" stroke="none" stroke-width="0.5" stroke-linecap="butt"/><path d="M240.29272,145.06899c-0.44169,-0.17248 -0.88772,-0.39444 -1.30363,-0.64481c-0.54992,0.01533 -1.26922,-0.19418 -1.78475,-0.51461c-0.24905,0.16286 -0.54674,0.25753 -0.86652,0.25753c-0.38398,0 -0.73608,-0.1365 -1.0104,-0.36364c-0.12251,0.40938 -0.40598,0.74923 -0.77697,0.9461c-0.0094,0.70245 -0.47564,1.29461 -1.11513,1.4929c-0.09361,0.39754 -0.33685,0.73734 -0.66703,0.9567c-0.04835,0.3073 -0.18499,0.58529 -0.38311,0.80718c0.01264,0.08064 0.0192,0.16332 0.0192,0.24751c0,0.58077 -0.31229,1.08861 -0.77811,1.36474c0.10554,0.21231 0.1649,0.45163 0.1649,0.70482c0,0.87558 -0.70981,1.58538 -1.58538,1.58538c-0.20702,0 -0.40477,-0.03967 -0.58605,-0.11184c-0.1076,0.02306 -0.21926,0.03519 -0.33376,0.03519c-0.87558,0 -1.58538,-0.70981 -1.58538,-1.58538c0,-0.45769 0.19395,-0.87009 0.50416,-1.15948c-0.02893,-0.11977 -0.04425,-0.24486 -0.04425,-0.37352c0,-0.83566 0.64654,-1.5203 1.46668,-1.58101c-0.00682,-0.0597 -0.01032,-0.12042 -0.01032,-0.18195c0,-0.55164 0.28174,-1.03749 0.7092,-1.32147c0.09453,-0.60085 0.52656,-1.08961 1.09593,-1.26616c0.08476,-0.35997 0.29221,-0.67259 0.57579,-0.89133c-0.00314,-0.04079 -0.00476,-0.08201 -0.00476,-0.12362c0,-0.87558 0.70981,-1.58538 1.58538,-1.58538c0.00273,0 0.00548,0 0.00821,0.00002c0.18927,-0.66378 0.80028,-1.14977 1.52479,-1.14977c0.27802,0 0.53932,0.07157 0.7665,0.19727c0.22717,-0.12571 0.48849,-0.19727 0.76651,-0.19727c0.34921,0 0.67204,0.1129 0.93399,0.30419c1.03054,-0.46171 3.06885,0.12978 4.42324,1.27342c0.51016,0.12371 0.92388,0.49422 1.10762,0.97799c0.51297,0.19482 0.89857,0.64823 0.99766,1.20101c0.01634,-0.0005 0.03274,-0.00075 0.04921,-0.00075c0.87558,0 1.58538,0.70981 1.58538,1.58538c0,0.87558 -0.70981,1.58538 -1.58538,1.58538c-0.35789,0 -0.68811,-0.1186 -0.95346,-0.31863c-0.06432,0.00795 -0.12983,0.01204 -0.19629,0.01204c-0.26154,0 -0.50828,-0.06333 -0.72573,-0.17549c-0.18557,-0.03133 -0.36017,-0.09489 -0.51786,-0.18474c-0.56193,-0.24378 -0.95498,-0.80354 -0.95498,-1.4551c0,-0.05656 0.00296,-0.11244 0.00874,-0.16748c-0.17247,-0.05168 -0.34781,-0.11256 -0.52384,-0.1813z" fill="#c7c7c7" stroke="none" stroke-width="0.5" stroke-linecap="butt"/><path d="M227.79612,174.97845c0.02862,0.01945 0.05541,0.04403 0.08061,0.07286c0.37617,0.28988 0.61851,0.7449 0.61851,1.25652c0,0.02322 -0.0005,0.0463 -0.00149,0.06928c0.02715,-0.00656 0.05656,-0.02718 0.08885,-0.06446c0.68078,-0.78593 0.81213,-1.67514 2.09509,-1.67672c1.74163,-0.00217 1.31751,2.48263 2.41689,2.76928c1.15922,0.30227 2.23834,-0.88782 3.39657,-0.91981c1.18192,-0.03265 3.30754,-0.41056 4.54854,0.04488c0.29833,0.10949 0.64961,1.04719 0.7805,1.05142c2.2099,0.07141 5.06892,-1.66389 7.28756,-2.22447c2.06897,-0.52276 4.52171,-0.60292 6.37351,-1.15725c0.67462,-0.20194 2.39561,0.90001 2.09621,0.26263c-0.8991,-1.91407 3.07218,-2.6294 3.59497,-4.0021c0.67902,-1.78287 1.67915,-3.11767 2.39122,-4.7614c0.01085,-0.02504 -1.25458,-1.64718 -1.22699,-2.05053c0.18299,-2.6749 3.9046,-0.73427 4.31633,0.91262c0.83227,3.32908 -1.03846,11.7056 -4.89168,12.91204c-1.61516,0.50571 -3.94904,0.48482 -5.54709,-0.03803c-0.67289,-0.22016 -3.04926,1.55613 -3.9575,1.77671c-1.53277,0.37227 -3.61926,-0.33424 -4.84944,0.0084c-1.34162,0.37368 -4.65825,2.11157 -5.94585,1.82543c-0.6662,-0.14804 -1.80489,-1.42242 -2.15117,-1.45663c-3.17478,-0.31361 -6.25336,2.44106 -8.84944,-0.39152c-0.73023,-0.79676 -2.16392,0.78195 -3.20485,0.49125c-1.21674,-0.3398 -1.27805,-1.69988 -1.74986,-2.6435c-0.11598,-0.2203 -0.18163,-0.47126 -0.18163,-0.73753c0,-0.87558 0.70981,-1.58538 1.58538,-1.58538c0.14093,0 0.27757,0.01839 0.40765,0.0529c0.16905,0.03638 0.33141,0.10309 0.47861,0.2031z" fill="#c7c7c7" stroke="none" stroke-width="0.5" stroke-linecap="butt"/><path d="M214.97669,155.99552c0,-0.87558 0.70981,-1.58538 1.58538,-1.58538c0.87558,0 1.58538,0.70981 1.58538,1.58538c0,0.4917 -0.22385,0.93114 -0.5752,1.22193c0.30693,0.28912 0.49855,0.69929 0.49855,1.15422c0,0.70439 -0.45937,1.30148 -1.09488,1.50805c0.82596,1.82645 0.3277,5.61927 1.08062,6.93689c0.46727,0.27577 0.78075,0.78443 0.78075,1.3663c0,0.40977 -0.15546,0.78325 -0.41063,1.06463c-0.58071,2.6923 2.06173,5.1419 0.097,5.58667c-5.20037,1.17723 -4.16759,-8.79391 -4.43756,-10.63942c-0.14366,-0.98201 -1.05363,-4.16681 -0.29095,-4.92951c0.25089,-0.25089 0.47942,-0.4422 0.69624,-0.57398c-0.13024,-0.2302 -0.20455,-0.49618 -0.20455,-0.77953c0,-0.58429 0.31608,-1.09475 0.78657,-1.36973c-0.06256,-0.17038 -0.09673,-0.35446 -0.09673,-0.54652z" fill="#c7c7c7" stroke="none" stroke-width="0.5" stroke-linecap="butt"/><path d="M255.21998,167.8763v0.22994c0,2.3595 0.63997,4.219 0.84032,6.52495c0.10663,1.2272 -0.10838,2.35984 0.51926,3.44326c0,0 0.07017,0.12866 0.09486,0.30551c0.16975,0.06232 0.34868,0.111 0.53725,0.14483l-0.02495,-0.0203c0,0 0.70099,0 0.78457,0.65921c0.4748,-0.08121 0.91529,-0.21304 1.30482,-0.4177c1.18047,-0.62019 2.37978,-2.17076 3.47258,-3.03584c2.81086,-1.29929 1.76487,-3.44213 2.83793,-5.86274c0.5777,-1.30316 1.42711,-2.23429 0.96814,-3.86008c-0.4189,-1.4839 -1.63885,-2.10863 -1.65198,-3.98271l-0.07489,-0.96608c0,0 -0.00365,-0.04736 0.00244,-0.11979l-0.14729,-0.88379l0.14251,-0.02375c0,-0.24239 0,-0.74467 0,-0.98706c-0.10463,-1.6561 0.49687,-3.16449 0.02457,-5.13231c-0.32356,-1.34814 -2.08867,-0.96297 -3.07126,-1.09388c-1.59828,-0.21295 -1.65758,-0.74056 -2.62593,-1.69551c-0.25735,-0.25379 -1.11062,-0.13073 -1.89791,0.0489c-0.5608,1.01025 -0.89666,1.89621 -1.09271,2.75752c-0.06222,0.64541 -0.12805,1.28981 -0.24043,1.91952c-0.04462,1.1097 0.03251,2.29799 0.06043,3.76489c0.03719,1.95405 -1.00378,1.79802 -1.523,3.16841c-0.04174,0.11015 -0.07962,0.22881 -0.11408,0.35454c0.25387,0.6971 0.49988,1.37746 0.71123,2.02699c0.00254,0.59857 0.07589,1.42458 -0.13778,2.08783c0.30132,0.22928 0.30132,0.64525 0.30132,0.64525zM252.94475,156.53207c0,-0.4378 0.35489,-0.79269 0.79269,-0.79269c0.20566,0 0.39302,0.07832 0.53389,0.20675c0.03553,-0.97259 0.15759,-1.88515 0.42693,-2.82465c0.00957,-0.10089 0.01917,-0.20177 0.02898,-0.30258c-0.39366,-0.14729 -0.47074,-0.4826 -0.47644,-0.69939c-2.21805,1.76768 -1.94487,4.62618 -1.0741,7.58208c0.17806,-0.78742 0.40742,-1.57961 0.68061,-2.38585c-0.03909,0.00593 -0.07913,0.00901 -0.11987,0.00901c-0.4378,0 -0.79269,-0.35489 -0.79269,-0.79269zM254.01785,149.63355c0,-0.4378 0.35489,-0.79269 0.79269,-0.79269c0.37213,0 0.68437,0.25643 0.76966,0.60222c-0.06837,-1.10339 -0.22906,-2.22865 -0.9912,-2.63697c-1.62171,-0.86888 -3.09471,1.45141 -4.26522,1.14314c-1.20851,-0.31829 -1.23658,-3.54307 -2.91945,-3.65646c-1.62421,-0.10943 -0.2001,1.17335 0.11395,1.65319l-0.05489,0.23832h0.09156v0.91981c0,0.4378 -0.35489,0.79269 -0.79269,0.79269c-0.205,0 -0.39182,-0.07781 -0.53255,-0.20553l-0.76424,-0.68782l0.26083,-0.28983c-1.69751,-1.87126 -2.87789,-4.87438 -5.29719,-5.43469c-1.5197,-0.35196 -2.58776,0.37908 -4.03325,0.33233c-2.13573,-0.06908 -2.65278,-0.65975 -4.13974,1.23982c-1.37176,2.69289 -2.57367,4.46664 -3.43728,7.39351l-0.0326,0.26801c0.02298,0.22376 -0.06108,0.39577 -0.16463,0.51929c-0.04621,0.06926 -0.10629,0.13717 -0.18408,0.19225c0.25214,0.27096 0.4271,0.63927 0.48301,1.13035c0.2673,2.34791 -0.74133,5.04563 -0.60633,7.50093c0.06562,1.1937 0.72323,1.72835 0.91258,2.92105c0.33667,2.12086 0.23871,4.2631 0.23871,6.40287c-0.00178,0.87898 -0.35189,2.04794 -0.16949,2.90663c0.32997,1.55342 1.84013,1.99843 1.93014,3.77816c0.07822,1.54646 -1.4362,2.92344 -3.03466,3.61081c4.24853,0.86822 8.69198,0.23328 13.13509,0.02994c1.58293,-0.07244 2.20032,1.13876 3.47574,1.1465c1.75378,0.08226 4.3163,-1.13279 6.19871,-1.44625c0.01327,-0.00221 0.02656,-0.00437 0.03989,-0.0065c-0.07773,-0.1191 -0.14256,-0.24837 -0.1917,-0.38913c-0.53477,-1.53154 1.21897,-2.61421 1.74985,-3.77464c-0.18157,-0.72273 -0.30285,-1.47914 -0.37745,-2.24078c-0.56316,-1.56847 -1.09908,-3.47642 -0.4515,-5.04619c0.10652,-0.25824 0.32027,-0.42485 0.57548,-0.55634c0.07298,-1.09064 0.12101,-2.62934 0.34829,-3.88316c-1.40959,-3.57339 -3.35916,-8.68169 -0.93039,-11.44005c0.5015,-0.56955 1.48706,-1.16228 2.51254,-1.64946c-0.15865,-0.14494 -0.25815,-0.35353 -0.25815,-0.58536zM254.14141,179.15838c0,0 0.02112,0.00704 0.05514,0.02232c0.26208,0.01641 0.52547,0.03341 0.78829,0.04849l-0.07753,-0.14081c-0.74176,-0.60399 -1.30054,-1.40451 -1.71517,-2.32063c-0.74998,1.06367 -1.28849,1.65334 0.94927,2.39063zM253.64007,180.66241c-0.06165,-0.02075 -0.12497,-0.04174 -0.18964,-0.06311c-0.46293,-0.01431 -0.91083,-0.01175 -1.33391,0.02443c-2.5001,0.21381 -5.00349,1.55032 -7.3801,1.61168c-1.41008,-0.17278 -1.94816,-1.25007 -3.33232,-1.14704c-4.95886,0.36914 -10.13526,0.93639 -14.83923,-0.37492c-1.27018,-0.35408 -2.18319,0.02346 -3.03371,-1.02302c-2.24028,2.89913 -3.35362,-1.35923 -5.50652,-1.91383c-0.36396,-0.09376 -0.76238,0.34336 -1.1097,0.19974c-2.09487,-0.86626 -1.86375,-4.22119 -2.98663,-5.72435c-1.85611,-2.48472 -2.37856,-4.44581 -2.12649,-7.68751c1.35144,-3.66702 0.64848,-9.47237 4.24446,-9.9982c0.42718,-0.06246 0.17551,-0.84634 0.29596,-1.26093c0.47089,-1.62075 0.38543,-2.49792 1.98495,-3.12804c0,0 0.08682,-0.02606 0.21056,-0.03117c0.02106,-0.02554 0.04432,-0.05111 0.06991,-0.07669c0.43756,-0.43756 0.87512,-0.19197 1.04603,-0.06316c1.20798,0.27797 2.42907,-1.66553 4.21076,-1.01813c0.63338,0.23015 0.50819,1.32863 1.05226,1.72628c0.13512,0.09876 0.16319,-0.32824 0.3199,-0.38701c0.7199,-0.27001 1.34026,-0.14816 2.0343,-0.35037l0.02945,-0.18807c0.93375,-3.05097 2.23363,-4.98859 3.61454,-7.78324c1.79521,-2.31923 2.86389,-2.12561 5.51819,-1.97948c2.87091,0.15806 4.45702,-1.05954 6.76867,1.40039c0.48434,0.51541 1.42505,1.31927 2.1834,2.19891c0.28786,-0.56733 0.95287,-0.9471 2.11474,-0.91533c1.20472,0.03293 2.34281,1.47399 2.91848,2.35544c0.12343,0.18898 0.28872,0.57894 0.37967,0.8965c0.29323,-0.25537 0.85914,-0.51295 1.1778,-0.61361c0.9891,-0.31242 2.41264,-0.43533 3.36284,0.06055c0.83629,0.43642 1.94804,2.42483 1.84509,3.74492c0.13787,-0.01506 0.33724,-0.00911 0.51442,0.10156c1.20279,-0.20372 2.59526,1.47157 3.42589,1.80559c1.16499,0.46847 2.60137,-0.04431 3.76537,0.54106c1.89838,0.95467 1.58643,3.09675 1.36133,4.80375c-0.07517,0.57006 0.03321,1.32004 0.04315,1.99536c0.02742,0.04893 0.04841,0.09857 0.06449,0.14588c0.03391,0.08825 0.0525,0.1841 0.0525,0.28428c0,0.30661 0,0.6132 0,0.91979v1.0731c0,0.02643 -0.00129,0.05257 -0.00383,0.07835c0.0011,0.00916 0.00148,0.01415 0.00148,0.01415l0.0784,1.02683c-0.01489,1.77885 1.09524,2.03779 1.56734,3.52903c0.61395,1.93929 -0.29075,3.43583 -1.02477,5.03135c-1.24793,2.7126 -0.13156,5.02656 -3.4474,6.55459c-1.12676,0.91242 -2.33122,2.43868 -3.57924,3.09619c-1.60518,0.84568 -3.76297,0.59887 -5.75553,0.4817c-0.29079,0.13124 -0.60731,0.02573 -0.60731,0.02573zM225.58513,178.43397l0.71152,-0.08277c0.41049,0.0187 0.84348,-0.1097 1.18577,-0.33704c0.46766,-0.31061 1.96764,-1.01313 2.23889,-1.51316c0.63117,-1.1635 -1.75343,-3.11113 -1.97831,-4.09625c-0.22664,-0.99282 0.13942,-2.21159 0.13712,-3.2254c0,-4.29958 -1.38689,-8.14137 -1.14866,-12.30558c0.06151,-1.07526 1.24585,-4.1105 0.16198,-4.66684c-0.12657,0.08559 -0.27919,0.13556 -0.44348,0.13556c-0.17799,0 -0.34228,-0.05867 -0.4746,-0.15773c-0.09121,0.00528 -0.24797,0.00173 -0.40313,-0.06104c-0.5224,0.11968 -0.95495,0.17982 -1.11494,0.10809c-0.66598,-0.29861 -0.54059,-1.61701 -1.24724,-1.79963c-1.55556,-0.40198 -2.36735,1.39365 -4.08012,1.05859c-0.16046,0.14906 -0.34717,0.20507 -0.34717,0.20507c-0.95948,0.05419 -0.81754,2.41717 -1.27128,3.25274c-0.73783,1.35868 -1.54387,1.134 -2.48329,1.53988c-0.42819,0.185 0.21905,0.96289 0.05197,1.3984c-0.83247,2.17003 -0.84097,4.695 -1.72947,7.01591c-0.17979,2.84571 0.33988,4.26673 1.85933,6.41614c0.53219,0.75282 1.27523,4.9909 2.22559,5.15998c0.30216,0.05375 0.59036,-0.35206 0.8832,-0.26016c1.27069,0.3988 1.79167,1.29968 2.73016,2.08095c0.37937,0.31582 0.70701,1.28087 1.10378,0.98722c0.54923,-0.40646 1.04715,-0.93898 1.6972,-1.14949c0.33974,0.29341 0.7464,0.47336 1.18103,0.60326c0.20383,-0.26294 0.55417,-0.30673 0.55417,-0.30673z" fill="#000000" stroke="none" stroke-width="0.5" stroke-linecap="butt"/><path d="M228.39047,151.20013c0.07779,-0.05509 0.13818,-0.12355 0.18439,-0.19281c0.10356,-0.12352 0.18825,-0.29671 0.16526,-0.52047l0.0329,-0.26854c0.8636,-2.92688 2.07736,-4.7148 3.44913,-7.40769c1.48696,-1.89958 2.01178,-1.31433 4.1475,-1.24524c1.44549,0.04676 2.522,-0.68818 4.04172,-0.33622c2.41931,0.56032 3.61113,3.56074 5.30865,5.432l-0.26194,0.28997l0.76685,0.68751c0.14072,0.12771 0.32961,0.20538 0.53461,0.20538c0.4378,0 0.79588,-0.35497 0.79588,-0.79277l-0.00086,-0.81411h-0.09124l0.05469,-0.23832c-0.31404,-0.47985 -1.73799,-1.86832 -0.11377,-1.75888c1.68287,0.11339 1.72253,3.33943 2.93103,3.65772c1.1705,0.30828 2.65592,-2.00757 4.27764,-1.13869c1.31908,0.70673 0.84774,3.56863 1.20312,4.7403c0.29861,-0.05878 2.89367,-0.90781 3.37743,-0.43074c0.96835,0.95496 1.03313,1.49046 2.63141,1.70341c0.98258,0.13092 2.75071,-0.24798 3.07428,1.10015c0.4723,1.96782 -0.12569,3.49027 -0.02106,5.14638c0,0.24239 0.00025,0.74762 0.00025,0.99002l-0.14251,0.0238l0.14736,0.88649c-0.00609,0.07243 -0.00245,0.12015 -0.00245,0.12015l0.0748,0.969c0.01313,1.87407 1.23141,2.50907 1.65031,3.99297c0.45896,1.62579 -0.39411,2.5667 -0.97181,3.86987c-1.07306,2.42062 -0.03647,4.57684 -2.84733,5.87612c-1.0928,0.86508 -2.30087,2.42295 -3.48135,3.04314c-2.14061,1.12462 -5.8396,0.0582 -8.29421,0.46697c-1.88241,0.31348 -4.46203,1.52903 -6.21582,1.44676c-1.27542,-0.00774 -1.90232,-1.22112 -3.48526,-1.14868c-4.44311,0.20333 -8.9081,0.82476 -13.15662,-0.04346c1.59847,-0.68739 3.11208,-2.06522 3.03385,-3.61168c-0.09002,-1.77973 -1.60631,-2.23284 -1.93628,-3.78628c-0.1824,-0.85868 0.16469,-2.03328 0.16647,-2.91225c0,-2.13977 0.0934,-4.29873 -0.24327,-6.41958c-0.18934,-1.19271 -0.84713,-1.73565 -0.91276,-2.92936c-0.13499,-2.45531 0.87842,-5.17227 0.61114,-7.52018c-0.0559,-0.49108 -0.22997,-0.86122 -0.4821,-1.13218z" fill="#c7c7c7" stroke="none" stroke-width="0.5" stroke-linecap="butt"/><path d="M225.04374,178.79198c-0.43463,-0.12991 -0.84513,-0.30904 -1.18487,-0.60246c-0.65004,0.21052 -1.15477,0.74375 -1.704,1.15021c-0.39678,0.29365 -0.72857,-0.6714 -1.10795,-0.98722c-0.93849,-0.78126 -1.47196,-1.68414 -2.74265,-2.08295c-0.29283,-0.0919 -0.58421,0.31289 -0.88638,0.25913c-0.95036,-0.16908 -1.71275,-4.4193 -2.24493,-5.17211c-1.51946,-2.14942 -2.0549,-3.6078 -1.8751,-6.4535c0.8885,-2.32092 0.91383,-4.88484 1.7463,-7.05488c0.16707,-0.4355 -0.4767,-1.21635 -0.04851,-1.40135c0.93943,-0.40588 1.75799,-0.18848 2.49582,-1.54715c0.45375,-0.83556 0.32088,-3.20135 1.28037,-3.25554c0,0 0.18816,-0.0563 0.34862,-0.20535c1.71278,0.33508 2.54002,-1.4611 4.09558,-1.05911c0.70665,0.18262 0.58708,1.502 1.25305,1.80061c0.15999,0.07174 0.5966,0.01271 1.119,-0.10698c0.15515,0.06277 0.31343,0.06682 0.40464,0.06153c0.13231,0.09904 0.29844,0.1584 0.47644,0.1584c0.16429,0 0.31819,-0.04944 0.44477,-0.13503c1.08387,0.55634 -0.09226,3.5959 -0.15377,4.67117c-0.23822,4.16422 1.16357,8.08026 1.16357,12.37984c0.00231,1.01381 -0.37388,2.24361 -0.14725,3.23645c0.22487,0.9851 2.60633,2.93512 1.97516,4.09864c-0.27125,0.50002 -1.77987,1.20746 -2.24753,1.51807c-0.34228,0.22734 -0.77947,0.35742 -1.18996,0.33871l-0.71401,0.08357c0,0 -0.35254,0.04439 -0.55637,0.30733z" fill="#c7c7c7" stroke="none" stroke-width="0.5" stroke-linecap="butt"/><path d="M255.27045,179.68044l-2.83606,-1.45635l-1.68631,-3.8325l-0.38325,-3.83252l0.38325,-3.90916l1.99291,-11.19094l3.90916,-4.59902" fill="none" stroke="#000000" stroke-width="1.5" stroke-linecap="round"/><path d="M252.66434,153.61936l-2.45281,-4.67566" fill="none" stroke="#000000" stroke-width="1.5" stroke-linecap="round"/><path d="M247.60543,147.87058l1.8396,0.84316" fill="none" stroke="#000000" stroke-width="1.5" stroke-linecap="round"/><path d="M252.28108,153.92595v2.98937" fill="none" stroke="#000000" stroke-width="1.5" stroke-linecap="round"/><path d="M216.68919,162.81739c0,-0.4378 0.35489,-0.79269 0.79269,-0.79269c0.4378,0 0.79269,0.35489 0.79269,0.79269c0,0.4378 -0.35489,0.79269 -0.79269,0.79269c-0.4378,0 -0.79269,-0.35489 -0.79269,-0.79269z" fill="#c7c7c7" stroke="none" stroke-width="0.5" stroke-linecap="butt"/><path d="M229.51379,175.08868c0.75926,0.22778 0.53148,0.98703 0.53148,0.98703l-0.23679,0.78817c-1.04213,2.5764 -3.56903,2.05664 -5.92093,1.92226c-1.07707,-0.06153 -1.51496,0.48437 -2.67054,0.11331c-1.31617,-0.42262 -1.72529,-1.67868 -2.7759,-2.37953c-0.77536,-0.51725 -2.01271,-0.31585 -2.59368,-1.04469c-0.87523,-1.09797 -0.7884,-2.72568 -0.94862,-4.02795c-0.53857,-0.9645 -1.24477,-0.45308 -1.88799,-1.69612c-0.56288,-1.08778 -0.6882,-3.54815 -0.53039,-4.73949c0.43368,-3.27382 2.71571,-4.74221 2.07533,-8.1845c0,0 -0.14179,-0.7799 0.6381,-0.92171c0.7799,-0.14179 0.92171,0.6381 0.92171,0.6381c0.81249,4.55802 -3.47923,7.89629 -1.67437,12.52387c0.20527,0.5263 1.54175,1.22677 1.94453,1.82979c0.18183,1.16036 0.09314,2.59538 0.73769,3.63708c0.38445,0.6213 1.51665,0.2673 2.15863,0.64163c0.93125,0.54301 1.38122,1.84094 2.43631,2.21949c0.69441,0.24912 1.46111,-0.21837 2.23508,-0.19329c1.32507,0.04293 3.88457,0.77419 4.3502,-0.83714l0.22311,-0.74484c0,0 0.22778,-0.75926 0.98703,-0.53148z" fill="#939393" stroke="none" stroke-width="0.5" stroke-linecap="butt"/><path d="M253.07377,179.06725c0,0.79269 -0.79269,0.79269 -0.79269,0.79269l-0.09964,-0.01078c-1.37502,0.22837 -3.02461,0.14045 -4.2513,0.78437c-2.54008,1.01801 -3.87075,0.0709 -6.34191,-0.24544c-3.88419,-0.49722 -7.93872,0.60119 -11.84232,0.04145v0.12026h-0.91981c-0.4378,0 -0.79269,-0.35489 -0.79269,-0.79269c0,-0.2013 0.07504,-0.38508 0.19866,-0.52488l0.53402,-0.61031l0.04189,0.03664l0.07004,-0.14195c0.75925,-0.38809 1.21513,-0.75624 1.79593,-1.36675c-0.33266,-1.85113 -1.50373,-3.05991 -1.86071,-4.75979c-0.49717,-2.36749 0.92841,-4.94698 0.38834,-7.40992c-0.5796,-2.6432 -1.70587,-4.2325 -1.7039,-7.10431c0.40251,-4.42892 1.13894,-8.27876 2.89841,-12.38489c0.8733,-2.03805 1.23514,-3.40362 3.41401,-4.3308c0,0 0.73172,-0.30488 1.0366,0.42684c0.30488,0.73172 -0.42682,1.0366 -0.42682,1.0366c-1.7314,0.7022 -1.8646,1.85418 -2.56472,3.48752c-1.68538,3.93189 -2.3878,7.59313 -2.77371,11.83659c0.002,2.73994 1.11683,4.13738 1.66871,6.69273c0.53909,2.49608 -0.81227,5.08641 -0.37817,7.46023c0.35104,1.91953 1.72353,3.25721 1.8185,5.51135c-0.36277,0.49238 -0.6724,0.89676 -1.02781,1.24497c1.24811,-0.07374 2.85159,0.10743 3.48887,0.10743c2.30286,0 4.89987,-0.44484 7.16693,-0.1449c2.14549,0.28386 3.30086,1.23044 5.46223,0.36776c1.42455,-0.68605 3.08284,-0.64141 4.64013,-0.90193l0.36026,-0.01078c0,0 0.79269,0 0.79269,0.79269z" fill="#939393" stroke="none" stroke-width="0.5" stroke-linecap="butt"/><path d="M231.4269,165.45969c-0.64939,0.45457 -1.10398,-0.19482 -1.10398,-0.19482l-0.54167,-0.77391c-0.86138,-1.29191 -1.20653,-2.08229 -1.21127,-3.66648c0.00287,-4.63319 0.71801,-9.12656 2.34976,-13.46159c0.31518,-0.8373 1.02096,-2.51999 1.84523,-3.51455c0.07102,-0.32405 0.15019,-0.64792 0.24185,-0.97411l0.10022,-0.07686l-0.04406,-0.02803l0.52939,-0.83189c0.13944,-0.22698 0.39001,-0.37837 0.67593,-0.37837c0.4378,0 0.79269,0.35489 0.79269,0.79269c0,0.10006 -0.01854,0.19579 -0.05237,0.28394l-0.37707,1.05577l-0.20151,-0.07197c-0.19932,0.79169 -0.31949,1.58769 -0.45392,2.39423c-0.59486,3.27221 -2.52966,6.72834 -1.7724,10.10625c0.42304,1.8871 2.40722,3.75145 3.43244,5.36693c0.89136,1.40458 1.33962,3.263 1.90859,4.82111c1.82964,5.29794 7.74543,10.82683 13.26849,11.82598c0,0 0.7799,0.14179 0.6381,0.92171c-0.14179,0.7799 -0.92171,0.6381 -0.92171,0.6381c-6.08122,-1.1117 -12.45173,-7.02085 -14.47891,-12.8554c-0.52319,-1.44559 -0.93544,-3.23401 -1.77063,-4.53021c-1.15424,-1.79139 -3.12386,-3.72147 -3.61937,-5.824c-0.09687,-0.41099 -0.15781,-0.82094 -0.18878,-1.22991c-0.23417,1.87457 -0.31777,3.77424 -0.31659,5.57016c-0.0045,1.30243 0.22689,1.70994 0.93493,2.77214l0.53143,0.75909c0,0 0.45457,0.64939 -0.19482,1.10398z" fill="#939393" stroke="none" stroke-width="0.5" stroke-linecap="butt"/><path d="M234.31974,178.03721c0.00175,0.00591 0.00348,0.01183 0.00523,0.01772c0.03038,-0.00276 0.06076,-0.00545 0.09116,-0.00812c-0.0332,-0.00308 -0.06537,-0.00628 -0.0964,-0.00962zM235.0086,180.08635c0.03383,0.08816 0.05237,0.18388 0.05237,0.28394c0,0.4378 -0.35489,0.79269 -0.79269,0.79269c-0.15998,0 -0.30887,-0.04738 -0.43343,-0.12889l-1.33027,-0.84017l0.14978,-0.23716c-0.03676,-0.02331 -0.07341,-0.04695 -0.10986,-0.07086c-0.5864,0.10711 -1.16611,0.24005 -1.73765,0.40344c0,0 -0.7622,0.21777 -0.97997,-0.54442c-0.21777,-0.76219 0.54442,-0.97997 0.54442,-0.97997c0.15511,-0.04429 0.31073,-0.08644 0.46687,-0.12655l-0.03455,-0.20733l0.0056,-0.00093l-0.00762,-0.01183c-0.06042,-0.4579 -0.10332,-0.91858 -0.12974,-1.38017c-0.24598,-0.76255 -0.29287,-1.65315 -0.40753,-2.45724c-0.28377,-1.99 -0.26627,-3.81899 -0.1886,-5.65679c-0.50749,-4.05189 -1.10528,-8.21467 -0.62448,-12.0108l-0.20407,0.00816l-0.06317,-1.57917c-0.00055,-0.01213 -0.00083,-0.02435 -0.00083,-0.03662c0,-0.4378 0.35489,-0.79269 0.79269,-0.79269c0.41634,0 0.75772,0.32097 0.79016,0.72898l0.06497,0.7146l0.12676,0.28555c1.76353,1.54439 3.43415,3.32065 4.13554,5.62408c1.0882,2.7162 1.12545,5.96055 2.95233,8.37127c0.85311,1.12576 2.2495,1.72488 3.18346,2.79158c1.45548,1.66235 2.61903,3.12499 4.13958,4.48444l0.71317,0.16457c0.21202,0.04423 0.39293,0.17317 0.50578,0.3498c0.51514,0.06978 1.0209,0.16947 1.52256,0.30494l0.0318,-0.00529v-0.12959h0.84315c0.4378,0 0.79269,0.35489 0.79269,0.79269c0,0.39788 -0.29314,0.7273 -0.67523,0.78406l-0.90696,0.15115l-0.00479,-0.0288l-0.06014,0.03689c-4.30135,0.00962 -8.92617,-0.6941 -13.29883,-0.34237zM233.88404,165.79543c-0.01255,-0.05998 -0.0258,-0.11958 -0.03974,-0.17878l-0.04514,0.02874c0.02911,0.04974 0.05739,0.09974 0.08489,0.15004z" fill="#939393" stroke="none" stroke-width="0.5" stroke-linecap="butt"/><path d="M216.38258,176.15453c0,-0.79269 0.79269,-0.79269 0.79269,-0.79269h0.84316c0.12517,0.00052 0.26704,-0.01397 0.42037,-0.03775c-0.68291,-0.31549 -1.77092,-0.52525 -2.18846,-1.12635c-0.46858,-0.67462 -0.6833,-1.63711 -0.78136,-2.5956c-0.05302,-0.10635 -0.08285,-0.2263 -0.08285,-0.35321c0,-0.08235 0.01257,-0.16179 0.03588,-0.23646c-0.00759,-0.12846 -0.01355,-0.25573 -0.01822,-0.38108c-0.15748,-0.21497 -0.29975,-0.45926 -0.42588,-0.72458l-0.35981,0.86356c-0.11523,0.29544 -0.40256,0.50476 -0.73878,0.50476c-0.4378,0 -0.79269,-0.35489 -0.79269,-0.79269v-0.84315c0,-1.36669 -0.73908,-6.38061 1.38249,-6.69442c0.18449,-0.02729 0.35618,0.00759 0.51592,0.09331c-0.14621,-1.36694 -0.1132,-2.73636 0.02056,-4.27197c0.0809,-0.92875 -0.18606,-2.25248 0.53607,-3.02459c0.31432,-0.33607 1.71966,-0.35023 1.89928,-0.97297c0.449,-1.55667 0.00554,-2.48165 1.5175,-3.5718c0,0 0.65956,-0.43971 1.09927,0.21985c0.4397,0.65956 -0.21985,1.09927 -0.21985,1.09927c-1.14877,0.6581 -0.4764,1.7934 -0.93531,2.86683c-0.53339,1.24761 -1.47858,0.87186 -2.23984,1.47984c-0.22257,0.17775 -0.05535,1.78349 -0.07712,2.03432c-0.22141,2.55033 -0.17473,4.56055 0.63974,7.00855c0.57505,1.31442 0.73497,3.33037 1.39841,4.87701c0.47085,0.20298 0.88733,0.43603 1.10807,0.76555c0.1897,0.2832 0.3374,0.6823 0.45699,1.12039c1.23873,0.81308 2.88592,1.57256 4.27188,1.86593c0.84719,0.17933 3.26165,-0.00865 3.89252,0.58218c2.31964,2.17243 -1.026,2.9418 -2.50956,2.97908c-0.51698,0.10021 -1.10303,0.10079 -1.6229,0.01274c-0.38003,0.00882 -0.76023,0.02449 -1.14292,0.05227l-0.7708,0.21022c-0.07165,0.02128 -0.14754,0.03271 -0.22608,0.03271c-0.34299,0 -0.63509,-0.21783 -0.74553,-0.5227c-0.34773,0.10922 -0.7807,0.0644 -1.29136,-0.21548c-0.32096,-0.1759 -0.542,-0.455 -0.69874,-0.79755c-0.44214,0.05026 -0.88552,0.07782 -1.32684,0.07936h-0.84316c0,0 -0.79269,0 -0.79269,-0.79269zM227.16915,176.50395c0.20312,-0.01101 0.16455,-0.03009 -0.02108,-0.05594c0.00746,0.01881 0.01448,0.03745 0.02108,0.05594z" fill="#939393" stroke="none" stroke-width="0.5" stroke-linecap="butt"/><path d="M256.58302,179.84169c-0.61899,0.49519 -1.11418,-0.1238 -1.11418,-0.1238l-0.26358,-0.33161c-1.20429,-1.33868 -3.61329,-2.37904 -4.32657,-4.04799c-1.03258,-2.41605 0.57493,-5.80154 0.75177,-8.27797c0.52722,-6.26724 1.0021,-11.34742 5.41319,-16.16941c0,0 0.53564,-0.58433 1.11998,-0.04869c0.58433,0.53565 0.0487,1.11998 0.0487,1.11998c-4.17171,4.54089 -4.51274,9.30631 -5.0012,15.22044c-0.14942,2.09117 -1.73075,5.54697 -0.86173,7.56363c0.57339,1.3306 3.03924,2.47436 4.03427,3.57946l0.32316,0.4018c0,0 0.49519,0.61899 -0.1238,1.11418z" fill="#939393" stroke="none" stroke-width="0.5" stroke-linecap="butt"/><path d="M254.38596,153.13408c-0.46075,0.64504 -1.10578,0.1843 -1.10578,0.1843l-0.79761,-0.74084c-0.94853,-2.61439 -0.84332,-3.45751 -3.57609,-4.51928c0,0 -0.14142,-0.05499 -0.27644,-0.17874c-0.25763,-0.0795 -0.42195,-0.28489 -0.42195,-0.28489l-0.20102,-0.26943c-0.77176,-0.70537 -1.08968,-1.35588 -1.6199,-2.23817c0,0 -0.40785,-0.67972 0.27188,-1.08756c0.67972,-0.40784 1.08757,0.27189 1.08757,0.27189c0.44182,0.73747 0.66113,1.31123 1.31372,1.86891l0.34742,0.41791c0.04607,0.01189 0.07332,0.0225 0.07332,0.0225c3.14715,1.22498 3.42982,2.54185 4.4914,5.45507l0.22916,-0.00744c0,0 0.64504,0.46075 0.1843,1.10578z" fill="#939393" stroke="none" stroke-width="0.5" stroke-linecap="butt"/></g></g></svg>