<svg version="1.1" xmlns="http://www.w3.org/2000/svg" xmlns:xlink="http://www.w3.org/1999/xlink" width="770.89367" height="770.89367" viewBox="0,0,770.89367,770.89367"><defs><linearGradient x1="236.99701" y1="-212.95431" x2="236.99701" y2="557.93936" gradientUnits="userSpaceOnUse" id="color-1"><stop offset="0" stop-color="#52fd43"/><stop offset="1" stop-color="#0f9501"/></linearGradient><linearGradient x1="405.17375" y1="-158.69753" x2="405.17375" y2="167.3294" gradientUnits="userSpaceOnUse" id="color-2"><stop offset="0" stop-color="#52fd43"/><stop offset="1" stop-color="#0f9501"/></linearGradient><linearGradient x1="253.17624" y1="-152.35371" x2="253.17624" y2="465.42243" gradientUnits="userSpaceOnUse" id="color-3"><stop offset="0" stop-color="#52fd43"/><stop offset="1" stop-color="#0f9501"/></linearGradient><linearGradient x1="121.38405" y1="71.93273" x2="121.38405" y2="503.81441" gradientUnits="userSpaceOnUse" id="color-4"><stop offset="0" stop-color="#52fd43"/><stop offset="1" stop-color="#0f9501"/></linearGradient><linearGradient x1="198.32815" y1="177.56679" x2="198.32815" y2="-370.30389" gradientUnits="userSpaceOnUse" id="color-5"><stop offset="0" stop-color="#f7831e"/><stop offset="1" stop-color="#f7931e"/></linearGradient></defs><g transform="translate(148.44983,212.95432)"><g data-paper-data="{&quot;isPaintingLayer&quot;:true}" fill-rule="nonzero" stroke="none" stroke-linecap="butt" stroke-linejoin="miter" stroke-miterlimit="10" stroke-dasharray="" stroke-dashoffset="0" style="mix-blend-mode: normal"><g stroke-width="1"><path d="M236.99692,557.93918c-212.87603,0 -385.44675,-172.57039 -385.44675,-385.44675c0,-212.87603 172.57039,-385.44675 385.44692,-385.44675c212.87636,0 385.44675,172.57039 385.44675,385.44692c0,212.87603 -172.57039,385.44675 -385.44675,385.44675z" fill="url(#color-1)"/><path d="M543.23198,142.37417c-100.36105,-100.36105 -200.71064,-200.71064 -301.0717,-301.0717c178.86656,2.74709 323.29081,147.16004 326.02693,326.02693z" fill="url(#color-2)"/><path d="M391.29507,465.42227c-149.76334,-148.51688 -298.61153,-297.96054 -446.79727,-448.04406c45.85026,-86.25056 128.4602,-149.9841 227.14407,-169.73192l390.21281,390.21281c-19.82495,98.99291 -83.90061,181.81247 -170.55945,227.56333z" fill="url(#color-3)"/><path d="M-45.97041,104.90848c127.04816,128.37192 254.86835,255.97151 383.06356,383.18491c-31.61858,10.02851 -65.15671,15.72102 -100.09607,15.72102c-182.98196,0 -331.32213,-148.34034 -331.32213,-331.32213c0,-35.10493 5.7477,-68.80848 15.86464,-100.55954c10.84474,10.97723 21.63445,22.00932 32.49017,32.97575z" fill="url(#color-4)"/></g><g><path d="M197.39096,263.67738c0.85908,-0.01097 1.45184,0.08437 1.87481,0.24875c-0.62453,-0.08219 -1.25132,-0.16552 -1.87481,-0.24875z" fill="url(#color-5)" stroke-width="1"/><path d="M200.86998,267.18704l0.23125,0.23125c-0.08986,-0.07235 -0.16333,-0.15124 -0.23125,-0.23125z" fill="#ffffff" stroke-width="1"/><path d="M393.6765,295.47683c2.70385,0.58631 5.23681,1.106 7.59892,1.55892c5.09645,0.9782 10.55988,1.46455 16.39004,1.45898c3.71261,-0.00279 7.31821,-0.01245 10.8169,-0.02917c1.44226,-0.00557 2.59267,0.22098 3.45141,0.67947c1.06439,0.56967 1.70346,1.50199 1.91747,2.79693c0.12512,0.7614 0.11257,1.47979 -0.03752,2.15507c-0.14445,0.65857 -0.4113,1.24636 -0.8004,1.76319c-0.3891,0.51412 -0.87946,0.93091 -1.47143,1.25045c-0.60302,0.32789 -1.28109,0.53772 -2.03413,0.6294c-0.90872,0.1084 -1.84243,0.18623 -2.80112,0.23342c-5.75519,0.28062 -11.66719,0.17649 -17.73644,-0.31265c-5.37993,-0.43072 -10.73357,-1.36443 -16.06075,-2.8012c-0.40294,-0.1084 -0.75443,-0.09168 -1.05455,0.05006c-0.37238,0.17787 -0.62532,0.46547 -0.75861,0.86284c-1.29215,3.89884 -2.79005,7.5156 -4.49351,10.85034c-2.95679,5.78567 -6.85981,11.36438 -11.7089,16.73595c-7.23629,8.01718 -15.5731,14.81021 -25.01025,20.37917c-5.96354,3.51532 -11.62278,6.41507 -16.97774,8.69935c-10.74333,4.57971 -21.64913,8.16729 -32.71757,10.76266c-16.08156,3.76816 -32.34239,6.16084 -48.7825,7.17795c-1.71451,0.10561 -3.42772,0.18762 -5.13963,0.24596c-1.60064,0.05276 -3.31385,0.13617 -5.13963,0.25014c-3.58758,0.22228 -7.18074,0.21393 -10.77946,-0.02507c-2.25093,-0.15002 -4.75053,-0.30152 -7.49896,-0.4544c-8.7536,-0.4807 -17.45165,-1.52287 -26.09406,-3.1263c-12.86088,-2.38989 -25.15478,-6.11644 -36.88179,-11.17954c-11.17396,-4.82977 -21.54491,-11.0559 -31.11266,-18.67849c-2.31205,-1.84242 -4.74923,-3.90442 -7.31134,-6.18592c-1.93689,-1.72296 -3.95022,-3.72236 -6.03999,-5.99828c-1.58679,-1.72575 -3.43748,-3.85853 -5.55224,-6.39844c-3.39865,-4.08221 -6.37207,-8.17138 -8.92033,-12.26752c-2.89845,-4.65467 -5.15627,-9.17595 -6.77362,-13.56394c-0.05834,-0.1528 -0.16812,-0.24458 -0.32929,-0.27514c-0.05842,-0.01114 -0.14592,-0.02646 -0.26259,-0.04588c-0.85874,-0.15289 -1.50477,-0.25702 -1.93827,-0.31257c-0.72248,-0.09447 -1.37557,-0.14026 -1.95918,-0.13756c-5.02706,0.02778 -9.96661,0.0195 -14.81857,-0.02499c-0.56967,-0.00557 -1.42284,-0.05563 -2.55942,-0.1501c-1.10043,-0.09447 -1.91747,-0.14305 -2.45101,-0.14584c-1.39507,-0.00836 -2.94147,-0.04859 -4.63944,-0.12085c-1.02269,-0.04449 -2.55384,-0.12232 -4.59355,-0.23342c-1.38384,-0.07505 -2.42594,-0.12921 -3.12631,-0.16255c-1.90633,-0.09447 -3.714,-0.27791 -5.42303,-0.55026c-0.71143,-0.11389 -1.4353,-0.48348 -2.1717,-1.1088c-0.52806,-0.44743 -0.91429,-1.00039 -1.15886,-1.65905c-0.62801,-1.67847 -0.5224,-3.18742 0.31683,-4.52685c0.48357,-0.77254 1.17967,-1.33525 2.0883,-1.68822c0.41687,-0.16395 0.85455,-0.27234 1.31305,-0.32511c0.45292,-0.05006 0.90454,-0.04311 1.35476,0.02089c0.39459,0.05555 0.80172,0.09725 1.22129,0.12503c5.9524,0.38066 11.96739,0.59466 18.04482,0.64186c0.32232,0.00279 0.80867,0.0431 1.45898,0.12093c0.63358,0.07505 1.1074,0.11389 1.42145,0.11667c5.27154,0.06391 9.89157,0.23621 13.85989,0.51683c0.29742,0.01942 0.54181,-0.05973 0.73362,-0.2376c0.20286,-0.18902 0.27791,-0.43351 0.22507,-0.73363c-0.83087,-4.74366 -1.2366,-9.54555 -1.2171,-14.40596c0.01393,-3.03184 0.02916,-6.13446 0.04579,-9.30795c0.00279,-0.42515 0.03613,-0.90315 0.10004,-1.4339c0.03613,-0.31683 0.10562,-0.79344 0.20844,-1.42981c0.03613,-0.2195 0.06251,-0.38484 0.07923,-0.49602c0.05834,-0.37517 0.0236,-0.68503 -0.10422,-0.92952c-0.13339,-0.2612 -0.37648,-0.45858 -0.72953,-0.59188c-3.67656,-1.40613 -7.97966,-2.88452 -12.90947,-4.43518c-6.14969,-1.9341 -11.11153,-3.45697 -14.88526,-4.56856c-4.50745,-1.32559 -8.6688,-2.6261 -12.48432,-3.90163c-0.75313,-0.25292 -1.44225,-0.65718 -2.06757,-1.21302c-0.6308,-0.56132 -1.1074,-1.19639 -1.42973,-1.90502c-0.34739,-0.75304 -0.47652,-1.50198 -0.38762,-2.24675c0.09725,-0.81695 0.45162,-1.56598 1.06292,-2.24675c0.61974,-0.68922 1.27832,-1.20187 1.9758,-1.53812c0.85595,-0.41409 1.67012,-0.50159 2.44265,-0.26259c3.20126,0.98925 6.40541,1.97851 9.61225,2.96785c7.20016,2.22037 14.14468,4.34898 20.83348,6.38591c3.0846,0.93649 6.23171,2.01053 9.44133,3.22216c0.95312,0.36124 1.5423,0.04589 1.76737,-0.94623c0.37787,-1.6702 0.87528,-3.50008 1.49232,-5.48973c0.3723,-1.20047 0.96845,-3.00258 1.78818,-5.40641c0.14445,-0.42515 0.25284,-0.74476 0.32511,-0.95869c0.77254,-2.27592 1.61178,-4.48106 2.5177,-6.61524c2.23431,-5.25491 4.59356,-10.168 7.07791,-14.73943c1.26996,-2.33713 2.83724,-4.952 4.70186,-7.84488c1.11715,-1.73124 2.84003,-4.31285 5.16879,-7.74484c0.06391,-0.09447 0.11249,-0.16533 0.14584,-0.21252c0.29464,-0.43629 0.46554,-0.96296 0.51273,-1.57983c0.03056,-0.42236 0.00001,-0.99064 -0.09167,-1.70485c-0.20008,-1.56729 -0.40434,-3.19988 -0.61278,-4.89785c-3.85714,-31.15446 -5.80796,-46.95532 -5.85236,-47.40275c-0.08062,-0.76418 -0.16673,-1.52705 -0.25841,-2.28837c-2.33147,-19.13839 -3.55284,-29.17865 -3.66403,-30.12063c-0.1306,-1.09207 -0.28758,-2.22038 -0.47103,-3.38472c-0.00836,-0.06391 0.01393,-0.11257 0.06669,-0.14592c0.05285,-0.03613 0.107,-0.03613 0.16255,0c20.56123,13.27767 40.94449,26.50527 61.15005,39.6829c0.6725,0.43907 1.45889,0.65857 2.35934,0.65857c0.75025,0.00279 1.59227,-0.15011 2.52606,-0.45858c4.499,-1.47839 9.07173,-2.76367 13.71814,-3.85575c5.56339,-1.30609 10.61543,-2.21619 15.15613,-2.73032c3.91826,-0.44456 9.1454,-0.81843 15.68141,-1.12133c8.05602,-0.37509 16.83191,0.2362 26.32739,1.83405c0.68922,0.11397 1.39777,-0.12363 2.12591,-0.71272c0.99761,-0.80589 2.08281,-1.74656 3.25542,-2.82192c0.70306,-0.64194 1.7382,-1.61735 3.10549,-2.92623c1.23103,-1.17828 2.15637,-2.05356 2.77612,-2.62611c8.40072,-7.7559 16.62485,-15.31737 24.67252,-22.68426c0.60859,-0.55862 1.5187,-1.39916 2.73033,-2.52188c1.42832,-1.32271 2.50098,-2.31206 3.21798,-2.96785c1.20047,-1.08929 2.29264,-2.05502 3.27632,-2.89705c0.11118,-0.09725 0.18623,-0.07366 0.22515,0.07087c2.29822,8.71746 4.61027,17.4405 6.93617,26.16902c2.56211,9.62618 4.76167,18.45195 6.59852,26.47749c0.32232,1.42275 0.96714,2.52189 1.9341,3.29722c3.18186,2.54826 6.32478,5.08269 9.42889,7.6031c6.73608,5.47171 13.17901,11.48941 19.32871,18.05319c3.37915,3.6043 6.26367,7.492 8.65356,11.6631c0.93649,1.63128 1.72983,3.06657 2.38014,4.30596c0.81147,1.54778 1.53393,3.03593 2.16761,4.46434c1.72009,3.88213 3.18186,7.48913 4.38512,10.82109c1.39777,3.87099 2.52606,7.57532 3.38471,11.11293c0.79205,3.26517 1.46315,6.97508 2.01333,11.12955c0.10561,0.79474 0.26539,1.39917 0.47939,1.81317c0.06669,0.12512 0.16673,0.21122 0.30012,0.25841c1.02547,0.3696 2.02586,0.76975 3.00119,1.20047c2.73729,1.20047 5.71071,2.68723 8.92033,4.46017c7.12797,3.93211 13.06923,8.86478 17.82394,14.79768c0.27234,0.34182 0.61834,0.60024 1.03792,0.77532c0.1306,0.05285 0.26399,0.06948 0.40016,0.05006c1.81177,-0.26399 3.42642,-0.5655 4.8436,-0.90453c0.77254,-0.18345 1.64235,-0.41966 2.6094,-0.70863c0.58082,-0.17509 1.45749,-0.45023 2.63028,-0.82531c1.77573,-0.56698 3.11656,-0.97541 4.02248,-1.22555c5.11882,-1.40892 9.85264,-3.13596 14.20162,-5.18125c3.7349,-1.75352 7.70175,-4.14751 11.90071,-7.18213c1.09765,-0.79205 2.06609,-1.25741 2.90542,-1.39637c0.47513,-0.08062 0.96705,-0.07226 1.47561,0.02499c0.49741,0.09447 0.97262,0.26399 1.42554,0.50855c0.46137,0.25006 0.86284,0.56001 1.20466,0.92952c0.36124,0.38623 0.63228,0.81277 0.81277,1.27971c0.84203,2.15368 0.34173,4.02109 -1.5006,5.60231c-2.33713,2.00636 -5.34807,4.02805 -9.03282,6.06498c-4.98256,2.75113 -10.06805,5.01591 -15.25626,6.79442c-2.48993,0.85308 -5.11604,1.72576 -7.87823,2.61775c-0.69749,0.22516 -1.51453,0.45857 -2.45101,0.70027c-0.56132,0.14453 -1.41867,0.35428 -2.57195,0.6294c-1.07267,0.25563 -1.87437,0.45162 -2.40513,0.5877c-0.8893,0.22785 -1.67568,0.44605 -2.35933,0.65448c-0.26677,0.08333 -0.35288,0.25562 -0.25841,0.51691c0.55584,1.53952 1.05882,3.05682 1.50895,4.55184c0.58082,1.93689 0.92256,4.13367 1.02538,6.59017c0.0195,0.49741 0.07226,1.24914 0.15838,2.25511c0.09725,1.13657 0.15428,1.98965 0.17091,2.55933c0.02778,0.95033 -0.01106,1.80349 -0.11667,2.55941c-0.11954,0.83923 -0.20704,1.66037 -0.26259,2.46356c-0.01393,0.19451 0.07366,0.31257 0.26259,0.35428zM235.15334,345.74329c5.94134,2.25093 12.28006,3.83912 19.01615,4.76446c6.25809,0.85865 12.80664,1.14075 19.64555,0.8462c8.01718,-0.34739 16.21634,-2.13427 24.59755,-5.36052c1.20047,-0.46128 2.35098,-0.96566 3.45141,-1.51313c0.31396,-0.15559 0.78639,-0.3891 1.41718,-0.70027c1.61178,-0.79205 2.81365,-1.39368 3.6057,-1.80489c1.31714,-0.68644 2.47182,-1.33255 3.46386,-1.93828c7.01122,-4.28229 13.4027,-9.55113 19.17452,-15.80643c0.19729,-0.21393 0.1515,-0.31544 -0.13756,-0.3043c-0.35288,0.01663 -0.74199,0.00557 -1.16713,-0.03335c-0.25563,-0.02229 -0.63638,-0.06669 -1.14214,-0.13339c-0.71978,-0.09725 -1.26438,-0.1542 -1.63406,-0.17091c-4.46573,-0.18345 -8.9286,-0.43351 -13.38885,-0.75034c-12.21336,-0.86422 -24.40583,-1.96474 -36.5774,-3.30139c-9.76514,-1.07267 -19.31487,-2.21201 -28.6492,-3.41806c-13.83342,-1.78408 -27.67658,-3.58201 -41.5295,-5.39387c-1.06709,-0.13896 -2.16622,-0.31396 -3.29722,-0.52528c-0.33068,-0.06112 -0.64604,-0.06948 -0.94624,-0.02499c-0.07226,0.00836 -0.12642,0.04441 -0.16255,0.10831c-0.03892,0.06391 -0.04449,0.12921 -0.01671,0.1959c0.09725,0.25014 0.21401,0.62532 0.35018,1.12551c0.08619,0.31675 0.15429,0.55575 0.20427,0.717c0.08333,0.26399 0.1737,0.50159 0.27095,0.71281c3.01242,6.63326 6.75002,12.47178 11.21297,17.51547c2.92901,3.30967 6.36379,6.29849 10.30417,8.96612c1.89248,1.2811 3.84747,2.44683 5.8649,3.49729c2.00636,1.0448 4.02944,1.95491 6.06916,2.73024z" fill="#ffffff" stroke-width="1"/><g fill="#ffffff" stroke-width="0"><path d="M74.06312,208.95354l-11.92953,-72.36624l267.19847,-44.04764l11.92953,72.36625z"/><path d="M118.61644,190.17326l-29.97688,-181.84344l178.1323,-29.36515l29.97689,181.84344z"/></g></g></g></g></svg>