<svg version="1.1" xmlns="http://www.w3.org/2000/svg" xmlns:xlink="http://www.w3.org/1999/xlink" width="770.89367" height="770.89367" viewBox="0,0,770.89367,770.89367"><defs><linearGradient x1="236.99701" y1="-212.95433" x2="236.99701" y2="557.93934" gradientUnits="userSpaceOnUse" id="color-1"><stop offset="0" stop-color="#5296cb"/><stop offset="1" stop-color="#2078bd"/></linearGradient><linearGradient x1="405.17375" y1="-158.69755" x2="405.17375" y2="167.32938" gradientUnits="userSpaceOnUse" id="color-2"><stop offset="0" stop-color="#5296cb"/><stop offset="1" stop-color="#2078bd"/></linearGradient><linearGradient x1="253.17624" y1="-152.35373" x2="253.17624" y2="465.42241" gradientUnits="userSpaceOnUse" id="color-3"><stop offset="0" stop-color="#5296cb"/><stop offset="1" stop-color="#2078bd"/></linearGradient><linearGradient x1="121.38405" y1="71.93272" x2="121.38405" y2="503.81439" gradientUnits="userSpaceOnUse" id="color-4"><stop offset="0" stop-color="#5296cb"/><stop offset="1" stop-color="#2078bd"/></linearGradient></defs><g transform="translate(148.44983,212.95434)"><g data-paper-data="{&quot;isPaintingLayer&quot;:true}" fill-rule="nonzero" stroke="none" stroke-linecap="butt" stroke-linejoin="miter" stroke-miterlimit="10" stroke-dasharray="" stroke-dashoffset="0" style="mix-blend-mode: normal"><g stroke-width="1"><path d="M236.99692,557.93917c-212.87603,0 -385.44675,-172.57039 -385.44675,-385.44675c0,-212.87603 172.57039,-385.44675 385.44692,-385.44675c212.87636,0 385.44675,172.57039 385.44675,385.44692c0,212.87603 -172.57039,385.44675 -385.44675,385.44675z" fill="url(#color-1)"/><path d="M543.23198,142.37415c-100.36105,-100.36105 -200.71064,-200.71064 -301.0717,-301.0717c178.86656,2.74709 323.29081,147.16004 326.02693,326.02693z" fill="url(#color-2)"/><path d="M391.29507,465.42225c-149.76334,-148.51688 -298.61153,-297.96054 -446.79727,-448.04406c45.85026,-86.25056 128.4602,-149.9841 227.14407,-169.73192l390.21281,390.21281c-19.82495,98.99291 -83.90061,181.81247 -170.55945,227.56333z" fill="url(#color-3)"/><path d="M-45.97041,104.90846c127.04816,128.37192 254.86835,255.97151 383.06356,383.18491c-31.61858,10.02851 -65.15671,15.72102 -100.09607,15.72102c-182.98196,0 -331.32213,-148.34034 -331.32213,-331.32213c0,-35.10493 5.7477,-68.80848 15.86464,-100.55954c10.84474,10.97723 21.63445,22.00932 32.49017,32.97575z" fill="url(#color-4)"/></g><path d="M423.88707,243.27795c0.004,0.3046 0.004,0.6132 0.005,0.9249c0,0.3546 0,0.7103 -0.005,1.0741c-0.003,0.3436 -0.013,0.6923 -0.0221,1.044c-0.009,0.3477 -0.018,0.6934 -0.032,1.0471c-0.0161,0.3787 -0.0371,0.7645 -0.0581,1.1512c-0.0191,0.3417 -0.0381,0.6824 -0.0612,1.0311c-0.028,0.4098 -0.0631,0.8256 -0.0981,1.2424c-0.0291,0.3397 -0.0572,0.6763 -0.0902,1.02c-0.0431,0.4369 -0.0942,0.8807 -0.1463,1.3246c-0.0391,0.3377 -0.0762,0.6733 -0.1202,1.015c-0.0592,0.4589 -0.1293,0.9248 -0.1984,1.3907c-0.0491,0.3387 -0.0972,0.6754 -0.1533,1.017c-0.0772,0.476 -0.1654,0.9589 -0.2535,1.4419c-0.0622,0.3416 -0.1223,0.6823 -0.1904,1.028c-0.0962,0.4909 -0.2064,0.9869 -0.3146,1.4829c-0.0762,0.3467 -0.1473,0.6904 -0.2295,1.04c-0.1162,0.5 -0.2475,1.005 -0.3777,1.51c-0.0902,0.3547 -0.1754,0.7084 -0.2736,1.0651c-0.1372,0.504 -0.2905,1.013 -0.4408,1.522c-0.1072,0.3637 -0.2104,0.7274 -0.3247,1.0941c-0.1593,0.508 -0.3356,1.019 -0.509,1.531c-0.1262,0.3728 -0.2454,0.7435 -0.3787,1.1182c-0.1804,0.505 -0.3798,1.015 -0.5741,1.524c-0.1473,0.3848 -0.2866,0.7685 -0.4429,1.1553c-0.2004,0.5 -0.4218,1.002 -0.6373,1.504c-0.1713,0.3987 -0.3346,0.7975 -0.516,1.1983c-0.2184,0.487 -0.4609,0.9769 -0.6943,1.4649c-0.2004,0.4178 -0.3908,0.8356 -0.6012,1.2545c-0.2335,0.4649 -0.49,0.9318 -0.7375,1.3977c-0.2354,0.4439 -0.4609,0.8877 -0.7084,1.3316c-0.2404,0.4309 -0.5039,0.8607 -0.7554,1.2916c-0.2826,0.4809 -0.5521,0.9608 -0.8477,1.4408c-0.2194,0.3557 -0.4599,0.7094 -0.6874,1.0641c-0.3557,0.5561 -0.7043,1.1112 -1.0811,1.6673c-0.018,0.026 -0.0381,0.0521 -0.0561,0.0781c-0.5942,0.8727 -1.2114,1.7434 -1.8586,2.6121c-2.1092,2.8236 -4.4478,5.7604 -7.1,8.7362c-4.7353,5.3134 -10.4786,10.7491 -17.7348,15.8732c-0.2696,0.1904 -0.5461,0.3797 -0.8206,0.5691c-0.1674,0.1172 -0.3317,0.2335 -0.501,0.3487c-16.5155,11.2882 -40.6238,20.9121 -77.8279,24.1244c-31.0971,2.6742 -58.8376,-5.1962 -78.9371,-17.3451c0.034,0.02 0.0651,0.0421 0.0992,0.0621l-0.2886,-0.1743c-18.7348,-8.4576 -42.4855,-21.5453 -58.2564,-43.4484c0,0 -8.4877,17.7078 -46.5435,18.4503c-8.646,0.1713 -16.3521,-0.5631 -23.2126,-1.9789c-0.1252,-0.0251 -0.2545,-0.0481 -0.3797,-0.0742c-0.8086,-0.1703 -1.5952,-0.3587 -2.3797,-0.548c-0.3136,-0.0762 -0.6312,-0.1473 -0.9409,-0.2255c-0.7033,-0.1793 -1.3907,-0.3707 -2.074,-0.5641c-0.3718,-0.1052 -0.7455,-0.2094 -1.1112,-0.3186c-0.6363,-0.1904 -1.2595,-0.3898 -1.8787,-0.5922c-0.3928,-0.1292 -0.7845,-0.2595 -1.1703,-0.3927c-0.5842,-0.2034 -1.1623,-0.4109 -1.7314,-0.6253c-0.3998,-0.1493 -0.7936,-0.3036 -1.1863,-0.4589c-0.5401,-0.2144 -1.0772,-0.4298 -1.6022,-0.6543c-0.4028,-0.1703 -0.7966,-0.3476 -1.1903,-0.525c-0.499,-0.2244 -0.997,-0.4479 -1.4819,-0.6793c-0.4058,-0.1964 -0.8006,-0.3988 -1.1984,-0.5992c-0.4529,-0.2285 -0.9108,-0.4549 -1.3516,-0.6904c-0.4289,-0.2294 -0.8407,-0.4699 -1.2585,-0.7063c-0.3898,-0.2215 -0.7896,-0.4359 -1.1693,-0.6624c-0.7655,-0.4568 -1.513,-0.9238 -2.2404,-1.4017c-0.2816,-0.1854 -0.5471,-0.3777 -0.8226,-0.5661c-0.4659,-0.3186 -0.9339,-0.6363 -1.3838,-0.9629c-0.2965,-0.2164 -0.5801,-0.4379 -0.8697,-0.6573c-0.4098,-0.3106 -0.8186,-0.6202 -1.2143,-0.9368c-0.2856,-0.2285 -0.5611,-0.4629 -0.8397,-0.6944c-0.3797,-0.3166 -0.7585,-0.6353 -1.1252,-0.9589c-0.2685,-0.2355 -0.529,-0.4759 -0.7906,-0.7144c-0.3587,-0.3296 -0.7134,-0.6613 -1.059,-0.9959c-0.2475,-0.2395 -0.49,-0.48 -0.7295,-0.7215c-0.3426,-0.3456 -0.6793,-0.6943 -1.009,-1.046c-0.2214,-0.2355 -0.4428,-0.473 -0.6582,-0.7114c-0.3327,-0.3677 -0.6553,-0.7385 -0.973,-1.1112c-0.1943,-0.2285 -0.3917,-0.4549 -0.5801,-0.6843c-0.3317,-0.4028 -0.6493,-0.8096 -0.9639,-1.2164c-0.1573,-0.2034 -0.3196,-0.4058 -0.4729,-0.6102c-0.3607,-0.481 -0.7044,-0.9659 -1.0421,-1.4519c-0.0932,-0.1332 -0.1934,-0.2665 -0.2845,-0.4018c-0.8547,-1.2584 -1.6332,-2.5309 -2.3416,-3.8115c-0.0992,-0.1793 -0.1894,-0.3587 -0.2856,-0.538c-0.2445,-0.4559 -0.4849,-0.9108 -0.7114,-1.3677c-0.1122,-0.2275 -0.2174,-0.4539 -0.3246,-0.6813c-0.1954,-0.4119 -0.3878,-0.8217 -0.5691,-1.2335c-0.1083,-0.2455 -0.2105,-0.4919 -0.3137,-0.7374c-0.1653,-0.3938 -0.3256,-0.7856 -0.4779,-1.1783c-0.0992,-0.2555 -0.1934,-0.51 -0.2876,-0.7645c-0.1402,-0.3838 -0.2755,-0.7665 -0.4038,-1.1493c-0.0861,-0.2575 -0.1723,-0.514 -0.2535,-0.7705c-0.1212,-0.3828 -0.2334,-0.7635 -0.3426,-1.1443c-0.0722,-0.2515 -0.1463,-0.5039 -0.2134,-0.7554c-0.1043,-0.3888 -0.1984,-0.7746 -0.2896,-1.1613c-0.0561,-0.2375 -0.1172,-0.476 -0.1683,-0.7114c-0.0922,-0.4208 -0.1714,-0.8367 -0.2495,-1.2525c-0.0361,-0.1974 -0.0792,-0.3978 -0.1133,-0.5941c-0.1052,-0.6102 -0.1963,-1.2154 -0.2705,-1.8146c-2.5229,-20.3861 3.7053,-43.754 44.3421,-50.6465c1.2946,-0.2194 2.5591,-0.4068 3.8085,-0.5812c0.4409,-0.0621 0.8747,-0.1172 1.3106,-0.1733c0.8527,-0.1092 1.6933,-0.2084 2.5239,-0.2976c0.4219,-0.0461 0.8477,-0.0952 1.2635,-0.1362c1.1052,-0.1073 2.1913,-0.1984 3.2564,-0.2716c0.483,-0.033 0.9509,-0.0551 1.4258,-0.0811c0.6263,-0.0351 1.2485,-0.0682 1.8617,-0.0912c0.2905,-0.012 0.5941,-0.0341 0.8817,-0.0431l0.1463,0.01c23.6154,-0.6863 36.9386,6.7974 41.1559,9.675l0.3977,0.4549c3.7514,-11.5998 9.9997,-16.9413 9.9997,-16.9413l-0.511,-0.1813c-14.3192,-5.3806 -33.1672,-13.9594 -56.2205,-27.6774c-2.6482,-1.5751 -5.1411,-3.2193 -7.5007,-4.9177l-0.01,0.0111c-0.3237,-0.2325 -0.6363,-0.47 -0.9549,-0.7044c-0.014,-0.011 -0.0281,-0.0211 -0.0431,-0.0321c-0.6413,-0.4749 -1.2725,-0.9539 -1.8937,-1.4358c-0.0201,-0.015 -0.0401,-0.0311 -0.0611,-0.0471c-0.6192,-0.4829 -1.2274,-0.9689 -1.8256,-1.4589c-0.0171,-0.013 -0.0331,-0.026 -0.0491,-0.04c-0.6072,-0.498 -1.2044,-1 -1.7895,-1.506c-0.005,-0.004 -0.009,-0.008 -0.0131,-0.011c-5.3374,-4.6131 -9.7932,-9.5398 -13.4634,-14.6318c-0.0301,-0.0421 -0.0591,-0.0831 -0.0892,-0.1252c-0.3677,-0.513 -0.7284,-1.026 -1.0801,-1.542c-0.0561,-0.0812 -0.1102,-0.1624 -0.1653,-0.2445c-0.3237,-0.477 -0.6403,-0.9549 -0.9509,-1.4348c-0.0691,-0.1073 -0.1373,-0.2145 -0.2054,-0.3217c-0.2916,-0.4549 -0.5771,-0.9098 -0.8557,-1.3667c-0.0781,-0.1252 -0.1533,-0.2515 -0.2294,-0.3777c-0.2656,-0.4389 -0.5261,-0.8777 -0.7796,-1.3176c-0.0811,-0.1403 -0.1613,-0.2805 -0.2414,-0.4208c-0.2435,-0.4279 -0.483,-0.8567 -0.7174,-1.2865c-0.0802,-0.1483 -0.1604,-0.2976 -0.2405,-0.4459c-0.2265,-0.4229 -0.4479,-0.8457 -0.6653,-1.2695c-0.0792,-0.1543 -0.1583,-0.3086 -0.2365,-0.4629c-0.2124,-0.4219 -0.4198,-0.8427 -0.6232,-1.2645c-0.0752,-0.1553 -0.1503,-0.3106 -0.2235,-0.4659c-0.2003,-0.4239 -0.3957,-0.8477 -0.5871,-1.2725c-0.0691,-0.1523 -0.1393,-0.3046 -0.2064,-0.4559c-0.1904,-0.4289 -0.3737,-0.8577 -0.5551,-1.2866c-0.0621,-0.1492 -0.1263,-0.2975 -0.1884,-0.4468c-0.1823,-0.4389 -0.3587,-0.8788 -0.531,-1.3176c-0.0541,-0.1363 -0.1092,-0.2716 -0.1623,-0.4078c-0.1804,-0.4669 -0.3537,-0.9339 -0.5241,-1.4008c-0.039,-0.1072 -0.0811,-0.2154 -0.1192,-0.3226c-0.1864,-0.517 -0.3647,-1.035 -0.5381,-1.5521c-0.019,-0.0571 -0.04,-0.1142 -0.0591,-0.1713c-0.5781,-1.7404 -1.0861,-3.4768 -1.526,-5.2042c-0.027,-0.1032 -0.0501,-0.2064 -0.0761,-0.3096c-0.1152,-0.4609 -0.2285,-0.9228 -0.3337,-1.3827c-0.0391,-0.1704 -0.0741,-0.3407 -0.1122,-0.51c-0.0872,-0.3918 -0.1733,-0.7836 -0.2545,-1.1743c-0.0421,-0.2024 -0.0802,-0.4048 -0.1202,-0.6072c-0.0702,-0.3567 -0.1403,-0.7134 -0.2054,-1.0681c-0.0401,-0.2215 -0.0772,-0.4409 -0.1153,-0.6613c-0.0581,-0.3357 -0.1162,-0.6714 -0.1693,-1.006c-0.0361,-0.2325 -0.0701,-0.4639 -0.1052,-0.6964c-0.0471,-0.3196 -0.0942,-0.6392 -0.1373,-0.9569c-0.033,-0.2424 -0.0641,-0.4829 -0.0942,-0.7244c-0.038,-0.3076 -0.0751,-0.6142 -0.1102,-0.9198c-0.028,-0.2475 -0.0541,-0.493 -0.0791,-0.7394c-0.0301,-0.2986 -0.0591,-0.5952 -0.0862,-0.8918c-0.022,-0.2495 -0.0431,-0.498 -0.0631,-0.7465c-0.0231,-0.2915 -0.0441,-0.5831 -0.0641,-0.8737c-0.0171,-0.2505 -0.0331,-0.501 -0.0471,-0.7505c-0.0161,-0.2825 -0.0291,-0.5651 -0.0421,-0.8466c-0.011,-0.2535 -0.0221,-0.507 -0.0311,-0.7595c-0.009,-0.2766 -0.016,-0.5511 -0.022,-0.8256c-0.005,-0.2535 -0.0111,-0.507 -0.0141,-0.7595c-0.003,-0.2716 -0.003,-0.5411 -0.003,-0.8106c0,-0.2515 0,-0.503 0.002,-0.7535c0.003,-0.2675 0.0101,-0.533 0.0161,-0.7986c0.006,-0.2485 0.011,-0.4979 0.019,-0.7454c0.009,-0.2635 0.0211,-0.5241 0.0331,-0.7856c0.011,-0.2475 0.02,-0.4949 0.034,-0.7404c0.0141,-0.2595 0.0331,-0.516 0.0511,-0.7735c0.0171,-0.2425 0.0311,-0.486 0.0501,-0.7265c0.0211,-0.2605 0.0471,-0.518 0.0702,-0.7765c0.022,-0.2345 0.0401,-0.4709 0.0641,-0.7034c0.0301,-0.2916 0.0651,-0.5791 0.0992,-0.8687c0.0461,-0.3988 0.0962,-0.7956 0.1503,-1.1903c0.0361,-0.2645 0.0701,-0.5291 0.1092,-0.7906c0.0331,-0.2234 0.0711,-0.4429 0.1062,-0.6653c0.0391,-0.2465 0.0782,-0.494 0.1203,-0.7374c0.04,-0.2255 0.0821,-0.4459 0.1242,-0.6694c0.0441,-0.2364 0.0872,-0.4739 0.1333,-0.7073c0.044,-0.2195 0.0911,-0.4369 0.1372,-0.6543c0.0481,-0.2335 0.0972,-0.4679 0.1493,-0.6984c0.0471,-0.2124 0.0982,-0.4208 0.1473,-0.6302c0.0551,-0.2315 0.1092,-0.4619 0.1673,-0.6914c0.0511,-0.2044 0.1042,-0.4058 0.1584,-0.6092c0.0601,-0.2294 0.1212,-0.4579 0.1843,-0.6843c0.0551,-0.1954 0.1112,-0.3898 0.1673,-0.5832c0.0662,-0.2284 0.1333,-0.4549 0.2024,-0.6803c0.0572,-0.1864 0.1163,-0.3707 0.1754,-0.5551c0.0731,-0.2285 0.1473,-0.4549 0.2234,-0.6803c0.0591,-0.1744 0.1183,-0.3477 0.1794,-0.5201c0.0801,-0.2284 0.1613,-0.4549 0.2445,-0.6803c0.0611,-0.1643 0.1222,-0.3276 0.1843,-0.49c0.0872,-0.2284 0.1764,-0.4539 0.2665,-0.6783c0.0612,-0.1533 0.1223,-0.3056 0.1854,-0.4559c0.0962,-0.2304 0.1934,-0.4589 0.2926,-0.6853c0.0601,-0.1373 0.1192,-0.2736 0.1803,-0.4088c0.1072,-0.2365 0.2165,-0.469 0.3257,-0.7004c0.0571,-0.1193 0.1132,-0.2405 0.1713,-0.3587c0.1202,-0.2485 0.2445,-0.49 0.3687,-0.7305c0.0491,-0.0962 0.0982,-0.1933 0.1483,-0.2885c0.1403,-0.2666 0.2846,-0.5271 0.4299,-0.7846c0.036,-0.0641 0.0711,-0.1312 0.1082,-0.1954c0.1743,-0.3056 0.3527,-0.6041 0.533,-0.8967c0.008,-0.014 0.0161,-0.0281 0.0251,-0.0421c0.3897,-0.6302 0.7925,-1.2314 1.2094,-1.7995c4.9617,-6.7633 13.4273,-14.1478 24.9179,-19.344c0.0391,-0.0181 0.0802,-0.0351 0.1202,-0.0531c0.4459,-0.2004 0.8958,-0.3978 1.3507,-0.5922c0.1092,-0.0471 0.2204,-0.0922 0.3307,-0.1383c0.3867,-0.1623 0.7755,-0.3236 1.1682,-0.4809c0.1604,-0.0641 0.3227,-0.1263 0.484,-0.1894c0.3467,-0.1363 0.6944,-0.2715 1.0471,-0.4038c0.1963,-0.0731 0.3947,-0.1453 0.5921,-0.2174c0.3217,-0.1182 0.6433,-0.2345 0.9689,-0.3487c0.2265,-0.0792 0.4559,-0.1563 0.6844,-0.2345c0.2996,-0.1012 0.6001,-0.2024 0.9037,-0.3016c0.2535,-0.0821 0.51,-0.1633 0.7655,-0.2434c0.2846,-0.0892 0.5692,-0.1784 0.8557,-0.2646c0.2756,-0.0831 0.5531,-0.1643 0.8307,-0.2444c0.2715,-0.0782 0.544,-0.1553 0.8176,-0.2315c0.2965,-0.0821 0.5951,-0.1623 0.8937,-0.2415c0.2605,-0.0691 0.521,-0.1362 0.7836,-0.2024c0.3166,-0.0801 0.6342,-0.1583 0.9538,-0.2354c0.2495,-0.0601 0.5,-0.1183 0.7515,-0.1754c0.3357,-0.0771 0.6723,-0.1523 1.012,-0.2254c0.2365,-0.0511 0.4759,-0.1002 0.7154,-0.1493c0.3567,-0.0731 0.7144,-0.1453 1.0751,-0.2144c0.2245,-0.0421 0.4509,-0.0832 0.6773,-0.1243c0.3788,-0.0691 0.7585,-0.1362 1.1413,-0.2004c0.2094,-0.035 0.4218,-0.0681 0.6322,-0.1012c0.4018,-0.0641 0.8046,-0.1262 1.2114,-0.1843c0.1904,-0.0271 0.3838,-0.0511 0.5761,-0.0772c0.4319,-0.0581 0.8627,-0.1132 1.2996,-0.1653c0.1593,-0.019 0.3216,-0.0311 0.4819,-0.0491c0.471,-0.0541 0.9429,-0.0972 1.4198,-0.1423c0.1123,-0.011 0.2265,-0.002 0.3387,-0.012c0.528,-0.0491 1.0581,-0.0601 1.5921,-0.0992c0.0161,-0.001 0.0331,0.0661 0.0491,0.0651c3.1422,-0.2244 6.3986,0.003 9.7652,0.003h0.0331c0.5801,0 1.1643,-0.0791 1.7504,-0.042c0.1162,0.008 0.2315,-0.1243 0.3477,-0.1163c0.533,0.0361 1.0711,0.0792 1.6102,0.1243c0.1723,0.015 0.3436,0.027 0.516,0.0421c0.506,0.045 1.017,0.0981 1.528,0.1523c0.2094,0.022 0.4178,0.042 0.6272,0.0661c0.488,0.0551 0.9799,0.1172 1.4729,0.1803c0.2375,0.0301 0.4739,0.0602 0.7124,0.0922c0.4759,0.0641 0.9549,0.1363 1.4348,0.2084c0.2595,0.0391 0.519,0.0782 0.7795,0.1203c0.464,0.0731 0.9319,0.1533 1.4008,0.2354c0.2816,0.0491 0.5631,0.0982 0.8457,0.1503c0.4549,0.0832 0.9118,0.1714 1.3707,0.2625c0.3005,0.0592 0.6011,0.1193 0.9037,0.1824c0.4469,0.0932 0.8958,0.1894 1.3457,0.2886c0.3176,0.0691 0.6362,0.1412 0.9559,0.2154c0.4408,0.1012 0.8827,0.2054 1.3256,0.3136c0.3366,0.0822 0.6743,0.1663 1.0119,0.2525c0.4299,0.1092 0.8607,0.2214 1.2946,0.3367c0.3567,0.0951 0.7164,0.1943 1.0751,0.2945c0.4198,0.1163 0.8407,0.2345 1.2625,0.3577c0.3787,0.1103 0.7605,0.2255 1.1422,0.3407c0.4068,0.1233 0.8136,0.2465 1.2234,0.3747c0.4028,0.1263 0.8076,0.2586 1.2134,0.3908c0.3928,0.1283 0.7856,0.2565 1.1813,0.3898c0.4339,0.1463 0.8717,0.2996 1.3086,0.4529c0.3687,0.1292 0.7375,0.2555 1.1082,0.3897c0.4789,0.1734 0.9609,0.3517 1.4428,0.5331c0.3347,0.1252 0.6683,0.2435 1.004,0.3727c0.538,0.2064 1.0791,0.4128 1.6212,0.6303c0.2855,0.1142 0.5691,0.2034 0.8557,0.3206c0.6542,0.2675 1.3125,0.505 1.9728,0.7875c0.1744,0.0742 0.3477,0.0622 0.5221,0.1373c1.6963,0.7354 3.4097,2.1823 5.1401,2.1823h-0.0031c2.6462,2.0039 5.3305,2.8336 8.0519,4.3495c32.5449,18.1136 49.0183,46.1738 57.2044,67.0788l1.7294,-0.6823c2.2323,-1.2845 4.6681,-2.554 7.2672,-3.7514l0.3337,-0.5952c-5.7954,-13.6227 -12.9384,-33.8214 -13.7841,-52.1905c-0.002,-0.0431 -0.003,-0.0852 -0.005,-0.1272c-0.0291,-0.6553 -0.0501,-1.3076 -0.0631,-1.9579c-0.001,-0.0942 -0.003,-0.1874 -0.004,-0.2815c-0.0101,-0.6102 -0.0121,-1.2194 -0.006,-1.8246c0.001,-0.0972 0.001,-0.1954 0.002,-0.2926c0.009,-0.6292 0.025,-1.2555 0.0511,-1.8777c0.002,-0.0601 0.004,-0.1192 0.006,-0.1793c0.0911,-2.0731 0.2795,-4.1081 0.5791,-6.091c0.013,-0.0882 0.0281,-0.1744 0.0421,-0.2625c0.0862,-0.5481 0.1793,-1.0932 0.2825,-1.6332c0.0271,-0.1463 0.0572,-0.2916 0.0862,-0.4379c0.0972,-0.4829 0.2004,-0.9619 0.3116,-1.4378c0.0381,-0.1633 0.0762,-0.3267 0.1163,-0.489c0.1152,-0.4669 0.2374,-0.9288 0.3667,-1.3877c0.0431,-0.1523 0.0841,-0.3066 0.1282,-0.4579c0.1463,-0.499 0.3026,-0.991 0.4669,-1.4799c0.0351,-0.1012 0.0652,-0.2044 0.1002,-0.3056c0.4068,-1.1803 0.8677,-2.3306 1.3868,-3.4488c0.0671,-0.1463 0.1422,-0.2886 0.2114,-0.4338c0.1914,-0.3978 0.3867,-0.7916 0.5921,-1.1804c0.1012,-0.1893 0.2064,-0.3757 0.3107,-0.5631c0.1873,-0.3386 0.3807,-0.6743 0.5801,-1.0059c0.1202,-0.1994 0.2435,-0.3978 0.3687,-0.5952c0.1984,-0.3136 0.4038,-0.6222 0.6142,-0.9288c0.1353,-0.1974 0.2696,-0.3958 0.4098,-0.5902c0.2205,-0.3046 0.4499,-0.6042 0.6814,-0.9018c0.1422,-0.1813 0.2795,-0.3657 0.4258,-0.545c0.2755,-0.3387 0.5651,-0.6694 0.8577,-0.997c0.1132,-0.1283 0.2204,-0.2605 0.3366,-0.3858c0.4008,-0.4348 0.8177,-0.8586 1.2495,-1.2735c0.1774,-0.1703 0.3657,-0.3336 0.5481,-0.5009c0.2715,-0.2485 0.543,-0.498 0.8266,-0.7395c0.2194,-0.1864 0.4479,-0.3667 0.6743,-0.5491c0.2625,-0.2104 0.5271,-0.4208 0.7996,-0.6252c0.2455,-0.1844 0.497,-0.3647 0.7505,-0.5441c0.2695,-0.1913 0.546,-0.3787 0.8256,-0.5641c0.2665,-0.1763 0.5371,-0.3517 0.8116,-0.522c0.2846,-0.1764 0.5781,-0.3467 0.8717,-0.517c0.2856,-0.1653 0.5691,-0.3317 0.8637,-0.491c0.3066,-0.1663 0.6262,-0.3236 0.9419,-0.4829c0.2975,-0.1503 0.5891,-0.3046 0.8957,-0.4479c0.4629,-0.2174 0.9429,-0.4218 1.4248,-0.6252c0.4599,-0.1944 0.9328,-0.3788 1.4118,-0.5591c0.3407,-0.1293 0.6783,-0.2606 1.029,-0.3828c0.3637,-0.1262 0.7405,-0.2425 1.1142,-0.3617c0.3457,-0.1102 0.6924,-0.2204 1.0471,-0.3236c0.3877,-0.1143 0.7845,-0.2205 1.1823,-0.3257c0.3607,-0.0952 0.7244,-0.1883 1.0931,-0.2765c0.4108,-0.0982 0.8256,-0.1944 1.2475,-0.2846c0.3767,-0.0801 0.7615,-0.1563 1.1482,-0.2304c0.4309,-0.0832 0.8627,-0.1664 1.3046,-0.2405c0.4018,-0.0681 0.8146,-0.1263 1.2254,-0.1874c0.4479,-0.0651 0.8897,-0.1352 1.3476,-0.1924c0.46,-0.0571 0.9359,-0.1022 1.4068,-0.1513c0.4018,-0.042 0.7916,-0.0931 1.2014,-0.1292c0.2665,-0.023 0.519,-0.0291 0.7835,-0.0491c0.6092,-0.0451 1.2144,-0.0882 1.8076,-0.1142c0.3907,-0.0171 0.7735,-0.0241 1.1582,-0.0331c0.481,-0.012 0.9579,-0.021 1.4278,-0.021c0.3888,0 0.7746,0.006 1.1563,0.014c0.4569,0.01 0.9068,0.027 1.3527,0.0491c0.3667,0.018 0.7354,0.0341 1.0941,0.0601c0.481,0.0341 0.9519,0.0802 1.4208,0.1283c0.3046,0.03 0.6152,0.0541 0.9148,0.0911c0.7164,0.0882 1.4178,0.1924 2.1071,0.3127c0.3157,0.0541 0.6203,0.1212 0.9299,0.1823c0.4078,0.0802 0.8146,0.1623 1.2124,0.2535c0.3316,0.0762 0.6562,0.1593 0.9809,0.2435c0.3627,0.0932 0.7214,0.1914 1.0761,0.2946c0.3226,0.0942 0.6443,0.1893 0.9589,0.2905c0.3477,0.1123 0.6883,0.2325 1.029,0.3537c0.3006,0.1072 0.6062,0.2104 0.9008,0.3247c0.4278,0.1653 0.8436,0.3446 1.2584,0.525c0.4329,0.1894 0.8577,0.3868 1.2766,0.5912c0.2995,0.1453 0.6001,0.2895 0.8917,0.4428c0.3026,0.1593 0.5962,0.3257 0.8898,0.493c0.2565,0.1453 0.511,0.2916 0.7615,0.4429c0.2965,0.1793 0.5901,0.3627 0.8787,0.5511c0.2304,0.1493 0.4549,0.3036 0.6803,0.4579c0.2916,0.2004 0.5842,0.4007 0.8677,0.6102c0.1874,0.1372 0.3667,0.2825 0.5501,0.4248c0.6362,0.491 1.2515,1.002 1.8436,1.535c0.0882,0.0782 0.1794,0.1533 0.2655,0.2325c0.2976,0.2735 0.5832,0.5571 0.8698,0.8406c0.1412,0.1393 0.2825,0.2766 0.4208,0.4188c0.2795,0.2876 0.5531,0.5812 0.8236,0.8778c0.1252,0.1382 0.2485,0.2775 0.3717,0.4178c0.2766,0.3156 0.5501,0.6332 0.8166,0.9589c0.0782,0.0962 0.1533,0.1953 0.2295,0.2915c0.9579,1.1974 1.8446,2.4579 2.6602,3.7785c0.016,0.025 0.0311,0.0501 0.0471,0.0741c0.2655,0.4329 0.522,0.8727 0.7735,1.3166c0.0391,0.0681 0.0772,0.1363 0.1152,0.2044c0.2535,0.4529 0.501,0.9108 0.7395,1.3757c0.008,0.018 0.017,0.0361 0.0261,0.0541c3.6752,7.1711 5.6571,15.6658 6.5558,24.3579l-0.017,-0.0171c1.5601,15.0436 -0.0932,30.6553 -1.7074,40.9134l0.4129,0.0641c6.6921,0.47 13.4985,1.4509 20.3028,3.051c-0.1513,-0.3146 -7.8885,-16.5445 2.0461,-40.1889c5.106,-12.1429 21.8679,-35.4156 40.7901,-43.3312l0.006,-0.014c0.4479,-0.1864 0.8968,-0.3537 1.3467,-0.523c0.007,-0.003 0.015,-0.006 0.023,-0.009c0.3908,-0.1473 0.7815,-0.2846 1.1743,-0.4179c0.1423,-0.048 0.2836,-0.0951 0.4248,-0.1412c0.3708,-0.1203 0.7415,-0.2395 1.1142,-0.3477c0.0742,-0.0221 0.1473,-0.0391 0.2205,-0.0601c0.6733,-0.1904 1.3486,-0.3587 2.0259,-0.505c0.2515,-0.0541 0.503,-0.1092 0.7545,-0.1573c0.2866,-0.0541 0.5722,-0.1052 0.8587,-0.1523c0.3036,-0.0491 0.6052,-0.0912 0.9088,-0.1313c0.2445,-0.0321 0.487,-0.0691 0.7314,-0.0952c0.512,-0.0551 1.023,-0.0932 1.5361,-0.1192c0.2134,-0.011 0.4268,-0.014 0.6402,-0.0201c0.3677,-0.01 0.7345,-0.013 1.1012,-0.009c0.2084,0.003 0.4168,0.005 0.6252,0.0131c0.496,0.018 0.991,0.0491 1.4859,0.0951c0.0912,0.0081 0.1814,0.0151 0.2716,0.0251c0.531,0.0551 1.062,0.1323 1.5921,0.2214c0.1703,0.0291 0.3417,0.0632 0.512,0.0952c0.4358,0.0832 0.8697,0.1784 1.3036,0.2846c0.1452,0.035 0.2895,0.0671 0.4348,0.1052c0.5681,0.1503 1.1362,0.3196 1.7024,0.512c0.0811,0.027 0.1603,0.0601 0.2414,0.0882c0.496,0.1743 0.99,0.3667 1.4849,0.5741c0.1423,0.0601 0.2836,0.1212 0.4259,0.1843c0.512,0.2255 1.023,0.468 1.533,0.7315c0.0571,0.029 0.1142,0.0551 0.1713,0.0852c0.5832,0.3066 1.1653,0.6412 1.7445,0.9989c0.0831,0.0511 0.1653,0.1062 0.2484,0.1583c0.508,0.3197 1.013,0.6613 1.518,1.021c0.0902,0.0652 0.1824,0.1293 0.2736,0.1954c0.5791,0.4238 1.1582,0.8637 1.7324,1.3427c29.8666,24.8798 13.6558,53.0191 -1.8907,70.276c-13.4705,14.9444 -28.9619,21.0494 -35.9928,23.7467l0.1954,0.1252c0.1343,0.0852 0.2696,0.1754 0.4058,0.2605c0.2215,0.1393 0.4489,0.2686 0.6693,0.4098l-0.3507,-0.2044c1.489,0.9469 2.9759,1.9228 4.4438,2.9599c47.5474,33.4587 43.4704,102.7308 43.4704,102.7308l-0.1032,-0.493c-0.0972,-0.3998 -0.1784,-0.7084 -0.2405,-0.9358c0.2475,0.9609 0.8146,3.3946 1.2535,6.9196c0.004,0.036 0.009,0.0721 0.013,0.1092c0.0511,0.4228 0.1012,0.8587 0.1483,1.3116c0.01,0.0982 0.02,0.1973 0.03,0.2975c0.0411,0.4058 0.0792,0.8197 0.1143,1.2485c0.014,0.1583 0.025,0.3196 0.038,0.4819c0.0301,0.3878 0.0582,0.7816 0.0822,1.1864c0.013,0.2134 0.0241,0.4318 0.0361,0.6503c0.02,0.3727 0.037,0.7484 0.0521,1.1342c0.009,0.2635 0.017,0.531 0.024,0.8006c0.009,0.3627 0.0181,0.7264 0.0301,1.1101zM381.76727,239.69795c0,0 -7.2833,-6.8705 -38.203,-2.3566c-30.9278,4.5249 -47.6887,9.0708 -47.6887,9.0708c0,0 9.8764,53.3187 47.6887,46.8651c37.8153,-6.4407 38.203,-53.5793 38.203,-53.5793z" fill="#ffffff" stroke-width="1.00197"/></g></g></svg>