<svg version="1.1" xmlns="http://www.w3.org/2000/svg" xmlns:xlink="http://www.w3.org/1999/xlink" width="770.89367" height="770.89367" viewBox="0,0,770.89367,770.89367"><defs><linearGradient x1="236.99701" y1="-212.9543" x2="236.99701" y2="557.93936" gradientUnits="userSpaceOnUse" id="color-1"><stop offset="0" stop-color="#000000"/><stop offset="1" stop-color="#313131"/></linearGradient><linearGradient x1="405.17375" y1="-158.69749" x2="405.17375" y2="167.32942" gradientUnits="userSpaceOnUse" id="color-2"><stop offset="0" stop-color="#000000"/><stop offset="1" stop-color="#313131"/></linearGradient><linearGradient x1="253.17624" y1="-152.35368" x2="253.17624" y2="465.42247" gradientUnits="userSpaceOnUse" id="color-3"><stop offset="0" stop-color="#000000"/><stop offset="1" stop-color="#313131"/></linearGradient><linearGradient x1="121.38405" y1="71.93279" x2="121.38405" y2="503.81446" gradientUnits="userSpaceOnUse" id="color-4"><stop offset="0" stop-color="#000000"/><stop offset="1" stop-color="#313131"/></linearGradient></defs><g transform="translate(148.44983,212.95432)"><g data-paper-data="{&quot;isPaintingLayer&quot;:true}" fill-rule="nonzero" stroke-linecap="butt" stroke-linejoin="miter" stroke-miterlimit="10" stroke-dasharray="" stroke-dashoffset="0" style="mix-blend-mode: normal"><g stroke="none" stroke-width="1"><path d="M236.99692,557.93918c-212.87603,0 -385.44675,-172.57039 -385.44675,-385.44675c0,-212.87603 172.57039,-385.44675 385.44692,-385.44675c212.87636,0 385.44675,172.57039 385.44675,385.44692c0,212.87603 -172.57039,385.44675 -385.44675,385.44675z" fill="url(#color-1)"/><path d="M543.23198,142.37419c-100.36105,-100.36105 -200.71064,-200.71064 -301.0717,-301.0717c178.86656,2.74709 323.29081,147.16004 326.02693,326.02693z" fill="url(#color-2)"/><path d="M391.29507,465.42232c-149.76334,-148.51688 -298.61153,-297.96054 -446.79727,-448.04406c45.85026,-86.25056 128.4602,-149.9841 227.14407,-169.73192l390.21281,390.21281c-19.82495,98.99291 -83.90061,181.81247 -170.55945,227.56333z" fill="url(#color-3)"/><path d="M-45.97041,104.90853c127.04816,128.37192 254.86835,255.97151 383.06356,383.18491c-31.61858,10.02851 -65.15671,15.72102 -100.09607,15.72102c-182.98196,0 -331.32213,-148.34034 -331.32213,-331.32213c0,-35.10493 5.7477,-68.80848 15.86464,-100.55954c10.84474,10.97723 21.63445,22.00932 32.49017,32.97575z" fill="url(#color-4)"/></g><path d="M27.76124,328.726l440.86791,114.31653l-16.39038,63.21032l-440.86791,-114.31575z" fill="#5d4037" stroke="none" stroke-width="1"/><path d="M27.76124,328.726l440.86791,114.31653l-16.39038,63.21032l-440.86791,-114.31575z" fill="none" stroke="none" stroke-width="4.16672"/><path d="M20.13073,474.45489l440.85459,-114.30086" fill="#000000" stroke="#8d6e63" stroke-width="8.33333"/><path d="M240.55802,383.57222l-130.08541,33.73224l-65.08189,-16.88179l130.10109,-33.71656z" fill="#3e2723" stroke="none" stroke-width="1"/><path d="M240.55802,383.57222l-130.08541,33.73224l-65.08189,-16.88179l130.10109,-33.71656z" fill="none" stroke="none" stroke-width="4.16667"/><path d="M305.63992,467.88713l-65.0819,-16.86612l130.10109,-33.71656l65.06622,16.86611z" fill="#3e2723" stroke="none" stroke-width="1"/><path d="M305.63992,467.88713l-65.0819,-16.86612l130.10109,-33.71656l65.06622,16.86611z" fill="none" stroke="none" stroke-width="4.16667"/><path d="M411.64095,212.16012c-3.9187,89.91866 -71.03049,146.93586 -162.92418,146.93586c-91.64289,0 -173.88873,-56.72721 -179.10061,-146.19914c-0.15675,-0.26647 -0.50159,-0.47808 -0.50159,-0.7524c0,-1.65369 0.18026,-3.10361 0.19593,-4.71812c-0.03135,-1.15993 -0.19593,-2.27285 -0.19593,-3.44846c0,-9.82812 1.01102,-19.3976 2.59418,-28.77115c6.0113,-45.32377 21.35696,-77.30826 28.8025,-93.16335c11.46614,-24.28031 20.99644,-88.45307 1.37155,-97.66202c48.98385,0 48.62332,73.05254 81.64235,48.15308c21.01211,-15.80806 49.48544,-139.79596 -16.93666,-178.77143c49.58732,-0.83861 82.24583,31.8199 98.57117,57.84796c31.25561,49.81461 0,104.59814 32.65851,104.59814c32.65851,0 38.46603,-42.22799 32.6585,-80.81158c59.0706,42.25934 48.38037,97.96768 41.32669,144.58463c-0.93265,6.12886 0.84644,11.69343 2.54716,16.95233c23.51225,29.34328 37.65094,66.51614 37.65094,107.04341c0,0.81509 -0.10189,1.61451 -0.11756,2.45311c0.07054,1.92016 0.21161,3.70709 0.22728,5.71347c0,0 -0.30566,0.01568 -0.47024,0.01568z" fill="#ff3d00" stroke="none" stroke-width="1"/><path d="M411.64095,212.16012c-3.9187,89.91866 -71.03049,146.93586 -162.92418,146.93586c-91.64289,0 -173.88873,-56.72721 -179.10061,-146.19914c-0.15675,-0.26647 -0.50159,-0.47808 -0.50159,-0.7524c0,-1.65369 0.18026,-3.10361 0.19593,-4.71812c-0.03135,-1.15993 -0.19593,-2.27285 -0.19593,-3.44846c0,-9.82812 1.01102,-19.3976 2.59418,-28.77115c6.0113,-45.32377 21.35696,-77.30826 28.8025,-93.16335c11.46614,-24.28031 20.99644,-88.45307 1.37155,-97.66202c48.98385,0 48.62332,73.05254 81.64235,48.15308c21.01211,-15.80806 49.48544,-139.79596 -16.93666,-178.77143c49.58732,-0.83861 82.24583,31.8199 98.57117,57.84796c31.25561,49.81461 0,104.59814 32.65851,104.59814c32.65851,0 38.46603,-42.22799 32.6585,-80.81158c59.0706,42.25934 48.38037,97.96768 41.32669,144.58463c-0.93265,6.12886 0.84644,11.69343 2.54716,16.95233c23.51225,29.34328 37.65094,66.51614 37.65094,107.04341c0,0.81509 -0.10189,1.61451 -0.11756,2.45311c0.07054,1.92016 0.21161,3.70709 0.22728,5.71347c0,0 -0.30566,0.01568 -0.47024,0.01568z" fill="none" stroke="none" stroke-width="4.16667"/><path d="M329.69294,245.48481c0,45.09648 -36.54587,81.64235 -81.64235,81.64235c-45.09648,0 -81.64235,-36.54587 -81.64235,-81.64235c0,-97.96768 80.88996,-105.95401 65.42674,-180.48782c26.3102,33.26199 33.86547,43.10578 -0.57213,110.50755c-7.71985,15.26728 -0.45457,36.44397 33.23064,36.44397c24.08438,0 25.39322,-20.9494 16.32533,-48.98384c39.14005,24.16275 50.95887,62.22124 48.87412,82.52014z" fill="#fdd835" stroke="none" stroke-width="1"/><path d="M329.69294,245.48481c0,45.09648 -36.54587,81.64235 -81.64235,81.64235c-45.09648,0 -81.64235,-36.54587 -81.64235,-81.64235c0,-97.96768 80.88996,-105.95401 65.42674,-180.48782c26.3102,33.26199 33.86547,43.10578 -0.57213,110.50755c-7.71985,15.26728 -0.45457,36.44397 33.23064,36.44397c24.08438,0 25.39322,-20.9494 16.32533,-48.98384c39.14005,24.16275 50.95887,62.22124 48.87412,82.52014z" fill="none" stroke="none" stroke-width="4.16667"/></g></g></svg>