<svg version="1.1" xmlns="http://www.w3.org/2000/svg" xmlns:xlink="http://www.w3.org/1999/xlink" width="770.89367" height="770.89367" viewBox="0,0,770.89367,770.89367"><g transform="translate(148.44983,212.95432)"><g data-paper-data="{&quot;isPaintingLayer&quot;:true}" fill-rule="nonzero" stroke="none" stroke-width="1" stroke-linecap="butt" stroke-linejoin="miter" stroke-miterlimit="10" stroke-dasharray="" stroke-dashoffset="0" style="mix-blend-mode: normal"><g fill="#424864"><path d="M236.99692,557.93918c-212.87603,0 -385.44675,-172.57039 -385.44675,-385.44675c0,-212.87603 172.57039,-385.44675 385.44692,-385.44675c212.87636,0 385.44675,172.57039 385.44675,385.44692c0,212.87603 -172.57039,385.44675 -385.44675,385.44675z"/><path d="M543.23198,142.37417c-100.36105,-100.36105 -200.71064,-200.71064 -301.0717,-301.0717c178.86656,2.74709 323.29081,147.16004 326.02693,326.02693z"/><path d="M391.29507,465.42227c-149.76334,-148.51688 -298.61153,-297.96054 -446.79727,-448.04406c45.85026,-86.25056 128.4602,-149.9841 227.14407,-169.73192l390.21281,390.21281c-19.82495,98.99291 -83.90061,181.81247 -170.55945,227.56333z"/><path d="M-45.97041,104.90848c127.04816,128.37192 254.86835,255.97151 383.06356,383.18491c-31.61858,10.02851 -65.15671,15.72102 -100.09607,15.72102c-182.98196,0 -331.32213,-148.34034 -331.32213,-331.32213c0,-35.10493 5.7477,-68.80848 15.86464,-100.55954c10.84474,10.97723 21.63445,22.00932 32.49017,32.97575z"/></g><g><path d="M387.8937,213.47449l-9.86261,9.85882l-139.16485,110.59702l-139.16105,-110.59702l-9.86261,-9.85882c-37.18672,-37.19051 -37.18672,-97.48478 0,-134.67529l4.48197,-4.48576c37.19051,-37.19051 97.48858,-37.19051 134.67908,0l9.85882,9.85882l9.86261,-9.85882c37.19051,-37.18672 97.48478,-37.18672 134.67529,0l4.49335,4.48576c37.18672,37.19051 37.18672,97.48858 0,134.67529z" fill="#e64d40"/><g fill="#ffffff"><path d="M57.97203,350.72066c0,0 0.56119,-1.13376 1.69496,-2.94248c1.12239,-1.8163 2.82493,-4.31134 4.99766,-7.14006c4.35305,-5.65745 10.80299,-12.45245 17.86343,-18.53838c7.06043,-6.08213 14.73894,-11.44761 20.98791,-14.90199c3.12828,-1.72529 5.84704,-3.02969 7.8188,-3.86769c1.96039,-0.84938 3.1662,-1.22856 3.1662,-1.22856c0,0 -0.5574,1.13756 -1.69117,2.94627c-1.12239,1.82009 -2.82114,4.31513 -4.99387,7.14765c-4.34926,5.66503 -10.80299,12.45245 -17.8748,18.527c-7.06802,6.07455 -14.75411,11.43244 -20.99929,14.88682c-3.12449,1.72909 -5.84325,3.03728 -7.81122,3.87148c-1.9528,0.85696 -3.15861,1.23994 -3.15861,1.23994z"/></g><g fill="#ffffff"><path d="M131.46196,375.59522c0,0 -0.27301,-0.75079 -0.53844,-1.99831c-0.27681,-1.24752 -0.53086,-2.99177 -0.64082,-5.01662c-0.21614,-4.0497 0.43606,-9.14595 1.98693,-13.95402c1.54708,-4.80807 3.99661,-9.32417 6.54853,-12.47899c1.27785,-1.57741 2.51021,-2.83631 3.46955,-3.68947c0.94417,-0.85696 1.61154,-1.3044 1.61154,-1.3044c0,0 0.27681,0.75079 0.54224,1.99831c0.2806,1.25131 0.53844,2.99556 0.6522,5.02042c0.21993,4.0497 -0.43986,9.14595 -2.0021,13.95023c-1.55845,4.80428 -4.01557,9.31659 -6.5637,12.4752c-1.27406,1.57741 -2.50262,2.83631 -3.45817,3.68947c-0.94417,0.86075 -1.60775,1.30819 -1.60775,1.30819z"/></g><g fill="#ffffff"><path d="M366.62898,18.32291c0,0 -0.29197,-0.68633 -0.58015,-1.81251c-0.30335,-1.13376 -0.6029,-2.70359 -0.76216,-4.52368c-0.31852,-3.63639 0.19718,-8.17903 1.60395,-12.41832c1.40678,-4.23929 3.71223,-8.18282 6.15418,-10.90158c1.22098,-1.35748 2.41162,-2.43437 3.33683,-3.15861c0.91005,-0.72804 1.55845,-1.09964 1.55845,-1.09964c0,0 0.29576,0.68633 0.58774,1.8163c0.30714,1.13376 0.61049,2.70738 0.76975,4.52747c0.32231,3.64018 -0.20097,8.17524 -1.61912,12.41453c-1.42195,4.23929 -3.73118,8.17903 -6.16935,10.89779c-1.22098,1.35748 -2.40404,2.43816 -3.32546,3.15861c-0.91384,0.72424 -1.55466,1.09964 -1.55466,1.09964z"/></g><g fill="#ffffff"><path d="M389.2398,36.41385c0,0 0.31093,-0.67874 0.94796,-1.66083c0.63324,-0.99347 1.59258,-2.2789 2.83252,-3.6326c2.47987,-2.70359 6.1921,-5.40718 10.2873,-7.25003c4.0952,-1.84284 8.57717,-2.82493 12.2439,-2.87043c1.83526,-0.02275 3.43921,0.11755 4.60331,0.31093c1.15652,0.17822 1.86938,0.40194 1.86938,0.40194c0,0 -0.30714,0.68253 -0.94417,1.66462c-0.63324,0.99726 -1.59258,2.28649 -2.82872,3.64018c-2.47608,2.70738 -6.1921,5.40339 -10.29488,7.23486c-4.09899,1.83147 -8.58855,2.80218 -12.25148,2.85527c-1.83526,0.02654 -3.43542,-0.11376 -4.59573,-0.30335c-1.15272,-0.17063 -1.86938,-0.39056 -1.86938,-0.39056z"/></g></g></g></g></svg>