<svg version="1.1" xmlns="http://www.w3.org/2000/svg" xmlns:xlink="http://www.w3.org/1999/xlink" width="82.45568" height="87.70866" viewBox="0,0,82.45568,87.70866"><defs><linearGradient x1="239.86641" y1="165.00036" x2="239.86641" y2="100.73254" gradientUnits="userSpaceOnUse" id="color-1"><stop offset="0" stop-color="#ffffff"/><stop offset="1" stop-color="#878787"/></linearGradient><linearGradient x1="221.94014" y1="185.39305" x2="221.94014" y2="163.75677" gradientUnits="userSpaceOnUse" id="color-2"><stop offset="0" stop-color="#ffffff"/><stop offset="1" stop-color="#868686"/></linearGradient><linearGradient x1="259.06021" y1="185.39305" x2="259.06021" y2="163.75677" gradientUnits="userSpaceOnUse" id="color-3"><stop offset="0" stop-color="#ffffff"/><stop offset="1" stop-color="#868686"/></linearGradient></defs><g transform="translate(-198.47095,-98.93441)"><g stroke="#45413c" stroke-width="2.5" stroke-linecap="round" stroke-miterlimit="10"><path d="M269.31485,164.90927c0,0 -19.87465,7.24148 -30.33593,7.54917c-10.31047,0.30325 -28.8504,-8.03874 -28.8504,-8.03874c0,0 -4.16611,-9.91694 -4.25121,-15.27843c-0.09671,-6.09264 2.77228,-18.78451 2.77228,-18.78451l3.84929,6.76171c0,0 3.03454,-10.69035 5.50331,-14.72469c2.53942,-4.14978 10.78724,-9.29743 10.78724,-9.29743l-0.1602,4.40908c0,0 4.12197,-5.79597 5.10914,-8.78229c0.83563,-2.52789 0.43534,-7.99061 0.43534,-7.99061c0,0 6.56432,2.2572 9.5716,4.89543c3.59356,3.15257 10.54585,12.75323 10.54585,12.75323l-0.82173,-3.05333c0,0 5.88118,3.14032 7.61681,5.85514c0.02895,0.04528 5.85258,13.16561 5.85258,13.16561l0.7332,4.76578l3.11609,-5.50066c0,0 2.94752,8.3118 3.06502,12.78324c0.12627,4.80526 -4.53827,18.51232 -4.53827,18.51232z" fill="url(#color-1)"/><g><path d="M218.85685,163.76074c17.48762,0.71552 21.39866,7.82081 21.39866,7.82081l-0.3666,8.94335c0,0 -4.44526,6.06792 -10.06396,4.65478c-4.30185,-1.08195 -12.44726,-6.32578 -18.59289,-12.16496c-2.66857,-2.5355 -7.60728,-1.33612 -7.60728,-1.33612c0,0 10.11378,-8.12728 15.23207,-7.91786z" fill="url(#color-2)"/><path d="M277.37555,171.6786c0,0 -4.93871,-1.19939 -7.60727,1.33612c-6.14562,5.83918 -14.29104,11.08302 -18.59289,12.16496c-5.6187,1.41314 -10.06396,-4.65478 -10.06396,-4.65478l-0.3666,-8.94335c0,0 3.91104,-7.10529 21.39866,-7.82081c5.11828,-0.20942 15.23207,7.91786 15.23207,7.91786z" fill="url(#color-3)"/></g></g></g></svg>