<svg version="1.1" xmlns="http://www.w3.org/2000/svg" xmlns:xlink="http://www.w3.org/1999/xlink" width="59.77844" height="36.64972" viewBox="0,0,59.77844,36.64972"><defs><radialGradient cx="240.00001" cy="182.71083" r="29.88922" gradientUnits="userSpaceOnUse" id="color-1"><stop offset="0" stop-color="#000000"/><stop offset="1" stop-color="#cc7700"/></radialGradient><radialGradient cx="239.86052" cy="169.053" r="27.44575" gradientUnits="userSpaceOnUse" id="color-2"><stop offset="0" stop-color="#000000"/><stop offset="1" stop-color="#cc7700"/></radialGradient></defs><g transform="translate(-210.11079,-161.19765)"><g fill-opacity="0.50588" fill="#e38400" stroke-width="0" stroke-miterlimit="10"><path d="M267.27574,167.75899c8.52631,13.12146 -4.69865,30.55262 -26.76672,30.07894c-17.2396,0.08853 -37.63941,-12.52203 -27.85335,-30.26366c4.232,8.0372 23.95357,7.47419 24.27441,7.47419c15.66457,0 24.57269,-0.99828 30.34567,-7.28947z" stroke="url(#color-1)"/><path d="M238.32526,176.9046c-9.28352,-0.09651 -14.69926,-1.80702 -18.28308,-2.9387c-3.88037,-1.22539 -6.48403,-3.01697 -7.53036,-5.18161c-0.09797,-0.20273 -0.12045,-0.37305 -0.0734,-0.56993c0.2263,-0.96358 1.89745,-2.1072 3.3548,-2.76336l0.16549,-0.07229c7.02,-2.76838 14.92367,-4.18105 23.44869,-4.18105c12.76275,0 23.07213,3.17548 25.18874,4.26961c2.09067,1.08161 2.60092,2.22956 2.71013,2.56869c-0.9345,6.11793 -17.07987,8.8724 -28.37541,8.8724z" stroke="url(#color-2)"/></g></g></svg>