<svg version="1.1" xmlns="http://www.w3.org/2000/svg" xmlns:xlink="http://www.w3.org/1999/xlink" width="46.45113" height="54.88097" viewBox="0,0,46.45113,54.88097"><defs><radialGradient cx="240.69792" cy="154.74537" r="9.39643" gradientUnits="userSpaceOnUse" id="color-1"><stop offset="0" stop-color="#9ceb60"/><stop offset="1" stop-color="#6dd627"/></radialGradient><radialGradient cx="239.65663" cy="157.23805" r="1.85945" gradientUnits="userSpaceOnUse" id="color-2"><stop offset="0" stop-color="#9ceb60"/><stop offset="1" stop-color="#6dd627"/></radialGradient><linearGradient x1="240.84945" y1="157.94952" x2="240.84945" y2="201.03628" gradientUnits="userSpaceOnUse" id="color-3"><stop offset="0" stop-color="#ffff00"/><stop offset="1" stop-color="#ffc700"/></linearGradient><radialGradient cx="240.11987" cy="180.31565" r="11.05283" gradientUnits="userSpaceOnUse" id="color-4"><stop offset="0" stop-color="#ffffff"/><stop offset="1" stop-color="#ffee6a"/></radialGradient></defs><g transform="translate(-217.60217,-147.4053)"><g data-paper-data="{&quot;isPaintingLayer&quot;:true}" fill-rule="nonzero" stroke-linejoin="miter" stroke-miterlimit="10" stroke-dasharray="" stroke-dashoffset="0" style="mix-blend-mode: normal"><g stroke="#45413c" stroke-width="2.5" stroke-linecap="round"><path d="M244.78873,159.92898l-3.17346,0.90643c0,0 -5.83213,-0.58581 -6.29734,-0.67982c-0.46521,-0.094 0.46304,0.33563 -0.99171,-0.79312c-1.13897,-0.88372 -1.71378,-1.85885 -2.28093,-3.05919c-0.56715,-1.20033 -0.9917,-2.4455 -0.74378,-3.34245c0.24792,-0.89695 0.46679,-0.6452 1.93383,-0.96308c1.46704,-0.31788 2.87935,-0.37917 3.81807,-0.28326c0.59964,0.06127 1.06594,-0.02816 2.28093,0.90643c1.215,0.93459 2.7272,2.94589 2.7272,2.94589c0,0 -0.08295,4.14445 -0.04959,4.41884c0.03336,0.27439 0.42333,0.91568 0.54544,-0.33991c0.12211,-1.25559 -0.48475,-1.32034 -0.19834,-3.22915c0.28641,-1.90881 0.57307,-3.21817 1.38839,-4.70209c0.81532,-1.48392 2.21008,-2.67881 2.87595,-3.05919c0.66586,-0.38038 0.89481,-0.82282 1.88424,0.33991c0.98942,1.16273 1.47419,3.29925 1.58673,3.73902c0.11254,0.43977 0.55894,0.63197 -0.3471,1.10503c-0.90604,0.47306 -1.52892,-0.2966 -2.52885,0.39656c-0.99994,0.69316 -1.20594,1.46401 -1.73549,2.66263c-0.52955,1.19862 -0.89254,3.2858 -0.89254,3.2858" fill="url(#color-1)"/><path d="M241.51608,159.24919l-3.7189,-4.02227" fill="url(#color-2)"/></g><path d="M252.2454,200.7816c-3.284,1.9833 -12.9326,-8.2681 -12.9326,-8.2681c0,0 -11.243,8.4819 -14.1459,5.9705c-2.9054,-2.5113 3.8662,-14.8593 3.8662,-14.8593c0,0 -11.5392,-8.0723 -10.0479,-11.6087c1.4913,-3.5391 15.3255,-0.9144 15.3255,-0.9144c0,0 4.1083,-13.4684 7.9332,-13.1464c3.8301,0.3245 5.6099,14.2952 5.6099,14.2952c0,0 14.0789,-0.255 14.9495,3.4849c0.8783,3.7374 -11.8586,9.7491 -11.8586,9.7491c0,0 4.5925,13.3139 1.3007,15.2972z" fill="url(#color-3)" stroke="#45413c" stroke-width="2.5" stroke-linecap="butt"/><path d="M245.8499,191.0119c-1.6536,0.9968 -6.5037,-4.1572 -6.5037,-4.1572c0,0 -5.6485,4.2628 -7.1064,3.0007c-1.4578,-1.2621 1.9421,-7.4644 1.9421,-7.4644c0,0 -5.7953,-4.0594 -5.0484,-5.834c0.7496,-1.7773 7.6988,-0.4585 7.6988,-0.4585c0,0 2.0658,-6.769 3.9898,-6.6041c1.9215,0.1622 2.8127,7.1811 2.8127,7.1811c0,0 7.0781,-0.1263 7.5159,1.7514c0.4431,1.8803 -5.955,4.899 -5.955,4.899c0,0 2.3027,6.6892 0.6542,7.686z" fill="url(#color-4)" stroke="#fff6b4" stroke-width="0" stroke-linecap="butt"/></g></g></svg>