<svg version="1.1" xmlns="http://www.w3.org/2000/svg" xmlns:xlink="http://www.w3.org/1999/xlink" width="492.08761" height="247.43752" viewBox="0,0,492.08761,247.43752"><g transform="translate(0.78855,-226.12139)"><g fill="none" stroke-width="20" stroke-miterlimit="10"><g stroke-opacity="0.90196" stroke="#a530ff"><path d="M150.62229,463.55891c0,-51.27539 43.58531,-92.84864 97.34699,-92.84864"/><path d="M242.54124,370.71026c53.76167,0 97.34699,41.57325 97.34699,92.84864"/></g><g stroke-opacity="0.8" stroke="#3030ff"><path d="M127.02962,463.55891c0,-63.70715 54.14753,-115.35057 120.93966,-115.35057"/><path d="M242.54124,348.20834c66.79213,0 120.93966,51.6434 120.93966,115.35057"/></g><g stroke-opacity="0.6" stroke="#00cc44"><path d="M80.92768,463.3965c0,-87.73841 74.58232,-158.8755 166.57473,-158.8755"/><path d="M243.00811,304.52101c91.99241,0 166.57473,71.13708 166.57473,158.8755"/></g><g stroke-opacity="0.50196" stroke="#ffeb12"><path d="M58.26016,463.3965c0,-99.67841 84.73466,-180.4944 189.24225,-180.4944"/><path d="M243.00811,282.90211c104.50759,0 189.24225,80.81598 189.24225,180.4944"/></g><g stroke-opacity="0.4" stroke="#ffa02b"><path d="M34.58201,463.3965c0,-112.15667 95.32949,-203.07752 212.92039,-203.07752"/><path d="M243.00811,260.31898c117.59091,0 212.92039,90.92085 212.92039,203.07752"/></g><g stroke-opacity="0.30196" stroke="#ff2929"><path d="M9.21145,463.3965c0,-125.52156 106.68746,-227.27511 238.29095,-227.27511"/><path d="M243.00811,236.1214c131.60349,0 238.29095,101.75354 238.29095,227.27511"/></g><g stroke-opacity="0.70196" stroke="#00ffff"><path d="M105.12145,463.40796c0,-75.01231 63.764,-135.82746 142.40945,-135.82746"/><path d="M243.91602,327.58051c78.64546,0 142.40945,60.81514 142.40945,135.82746"/></g></g></g></svg>