<svg version="1.1" xmlns="http://www.w3.org/2000/svg" xmlns:xlink="http://www.w3.org/1999/xlink" width="45.57054" height="96.30719" viewBox="0,0,45.57054,96.30719"><defs><linearGradient x1="299.36931" y1="253.00358" x2="293.27491" y2="279.21957" gradientUnits="userSpaceOnUse" id="color-1"><stop offset="0" stop-color="#ff866e"/><stop offset="1" stop-color="#ff6242"/></linearGradient><linearGradient x1="280.96153" y1="223.60941" x2="324.01364" y2="223.60941" gradientUnits="userSpaceOnUse" id="color-2"><stop offset="0" stop-color="#fd442b"/><stop offset="1" stop-color="#b12515"/></linearGradient><linearGradient x1="292.14743" y1="246.49798" x2="322.15004" y2="246.49798" gradientUnits="userSpaceOnUse" id="color-3"><stop offset="0" stop-color="#bd7d08"/><stop offset="1" stop-color="#f1c214"/></linearGradient></defs><g transform="translate(-278.48984,-185.92041)"><g stroke="#45413c" stroke-width="2.5" stroke-linecap="round" stroke-miterlimit="10"><g><path d="M316.2872,259.2692c0,0 -2.81494,7.24969 -3.20679,10.906c-0.36983,3.45092 -4.30892,11.73182 -7.53063,10.71683c-2.28377,-0.71949 -3.57544,-2.23799 -3.57544,-2.23799l2.66766,-13.22432l-2.35065,11.82144c0,0 -3.20599,3.99604 -6.33414,2.89031c-5.09055,-1.7994 -3.83252,-6.09864 -3.83252,-6.09864l2.27389,-11.10651l-3.32536,12.76685c0,0 -2.40268,1.85435 -5.51589,0.83007c-6.45429,-2.32982 -1.30311,-8.00022 -1.30311,-8.00022c0,0 -2.88747,0.75543 -4.01312,-0.33747c-1.20239,-1.16741 0.13612,-7.61775 0.13612,-7.61775l6.76224,-7.16734c0,0 9.93269,-2.33752 15.02444,-1.37204c4.14818,0.78656 12.15594,5.0667 12.15594,5.0667z" fill="url(#color-1)"/><path d="M286.7129,266.02055l0.28303,4.52847" fill="none"/></g><g><g><path d="M282.26662,195.4993l24.0026,-8.10899c0,0 4.4857,5.82189 6.61879,9.75502c2.52587,4.65738 2.88565,7.78068 4.71024,11.30905c1.16711,2.25695 3.18219,4.68936 4.52323,7.44549c1.99908,4.10855 1.74874,9.03347 1.74874,9.03347c0,0 0.4139,2.98395 -0.16466,6.00822c-0.60918,3.18435 -0.89402,9.80587 -0.89402,9.80587l-6.65327,19.08109c0,0 -7.53823,-5.8035 -11.61747,-7.34132c-3.72613,-1.40471 -11.89469,-1.52245 -11.89469,-1.52245c0,0 1.28172,-12.10958 1.60952,-16.84786c0.23654,-3.41914 0.17446,-10.13879 0.17446,-10.13879c0,0 -4.04415,-3.40767 -6.05664,-6.27478c-1.93047,-2.75026 -5.78249,-9.39182 -5.78249,-9.39182c0,0 -1.5729,-4.47489 -1.62795,-6.64922c-0.053,-2.09332 1.30359,-6.16298 1.30359,-6.16298z" fill="url(#color-2)"/><path d="M298.15965,225.40276l-5.07715,-2.37373" fill="none"/></g><path d="M292.67775,235.33731c0,0 9.24571,-1.636 14.43544,-0.78558c5.15881,0.84535 15.03687,6.26645 15.03687,6.26645l-6.26141,17.87112c0,0 -7.74262,-5.06853 -11.90595,-6.34955c-3.69417,-1.13667 -11.83524,-0.95543 -11.83524,-0.95543z" fill="url(#color-3)"/></g></g></g></svg>