<svg version="1.1" xmlns="http://www.w3.org/2000/svg" xmlns:xlink="http://www.w3.org/1999/xlink" width="770.89367" height="770.89367" viewBox="0,0,770.89367,770.89367"><g transform="translate(148.44983,212.95432)"><g data-paper-data="{&quot;isPaintingLayer&quot;:true}" fill-rule="nonzero" stroke="none" stroke-width="1" stroke-linecap="butt" stroke-linejoin="miter" stroke-miterlimit="10" stroke-dasharray="" stroke-dashoffset="0" style="mix-blend-mode: normal"><g fill="#79dbb6"><path d="M236.99692,557.93918c-212.87603,0 -385.44675,-172.57039 -385.44675,-385.44675c0,-212.87603 172.57039,-385.44675 385.44692,-385.44675c212.87636,0 385.44675,172.57039 385.44675,385.44692c0,212.87603 -172.57039,385.44675 -385.44675,385.44675z"/><path d="M543.23198,142.37419c-100.36105,-100.36105 -200.71064,-200.71064 -301.0717,-301.0717c178.86656,2.74709 323.29081,147.16004 326.02693,326.02693z"/><path d="M391.29507,465.4223c-149.76334,-148.51688 -298.61153,-297.96054 -446.79727,-448.04406c45.85026,-86.25056 128.4602,-149.9841 227.14407,-169.73192l390.21281,390.21281c-19.82495,98.99291 -83.90061,181.81247 -170.55945,227.56333z"/><path d="M-45.97041,104.90851c127.04816,128.37192 254.86835,255.97151 383.06356,383.18491c-31.61858,10.02851 -65.15671,15.72102 -100.09607,15.72102c-182.98196,0 -331.32213,-148.34034 -331.32213,-331.32213c0,-35.10493 5.7477,-68.80848 15.86464,-100.55954c10.84474,10.97723 21.63445,22.00932 32.49017,32.97575z"/></g><g><path d="M455.80972,96.99003c0.08101,1.71081 0.03336,3.43591 0,5.15625c0.08101,1.71081 0.03336,3.43115 0,5.15625c0.08101,1.71081 0.03336,3.43115 0,5.15625c0.36218,8.21569 -0.50514,16.62677 -2.79257,24.98543l-58.26281,211.97827c-11.8327,43.01803 -56.29467,68.29892 -99.31269,56.48528l-211.9735,-58.26758c-36.39877,-10.01228 -60.00698,-43.3945 -59.28262,-79.47875c-0.07148,-1.70604 -0.03336,-3.43115 0,-5.15625c-0.07148,-1.70128 -0.03336,-3.43115 0,-5.15149c-0.07148,-1.70604 -0.03336,-3.42638 0,-5.15625c-0.07148,-1.70604 -0.03336,-3.43115 0,-5.15149c-0.36218,-8.22046 0.50038,-16.62677 2.79734,-24.9902l58.26758,-211.9735c11.82317,-43.02279 56.28513,-68.30845 99.30793,-56.48528l211.97827,58.27234c36.394,10.00275 59.99745,43.38497 59.27309,79.47398c0.08101,1.71081 0.03336,3.43115 0,5.14672z" fill="#7c4d23"/><g><path d="M396.53663,12.36933c43.01326,11.82317 68.30845,56.2899 56.48528,99.30316l-58.26758,211.97827c-11.82793,43.01326 -56.29467,68.30845 -99.31269,56.48528l-211.9735,-58.26758c-43.02279,-11.8327 -68.31322,-56.29467 -56.48528,-99.31269l58.27234,-211.96874c11.82317,-43.02279 56.28513,-68.30845 99.30793,-56.48528z" fill="#dfab6b"/><g fill="#a05200"><path d="M143.32262,209.71279c9.31652,2.55907 14.79206,12.19011 12.22823,21.5114l-13.4482,48.93676c-2.55907,9.31652 -12.19011,14.79206 -21.50663,12.22823l-48.93199,-13.4482c-9.31652,-2.56383 -14.79683,-12.18534 -12.233,-21.5114l13.44343,-48.92723c2.56383,-9.32605 12.19487,-14.79683 21.5114,-12.23776z" opacity="0.7"/><path d="M171.72967,106.37327c9.31176,2.56383 14.79683,12.19011 12.233,21.5114l-13.45296,48.94152c-2.56383,9.31176 -12.19487,14.78253 -21.51616,12.22347l-48.92723,-13.45296c-9.31652,-2.55907 -14.79206,-12.18534 -12.233,-21.50186l13.45296,-48.93676c2.55907,-9.32129 12.19011,-14.79683 21.50663,-12.233z" opacity="0.7"/><path d="M200.12719,3.03374c9.32129,2.55907 14.80159,12.19011 12.23776,21.5114l-13.4482,48.93199c-2.56383,9.31652 -12.19487,14.79206 -21.5114,12.233l-48.93199,-13.45296c-9.31652,-2.56383 -14.79206,-12.19487 -12.233,-21.50663l13.45296,-48.94152c2.55907,-9.31652 12.19487,-14.79206 21.5114,-12.22823z" opacity="0.7"/><path d="M246.66215,238.12461c9.31176,2.55907 14.79206,12.19487 12.233,21.50663l-13.4482,48.93676c-2.56383,9.31176 -12.19964,14.79206 -21.5114,12.22823l-48.93199,-13.44343c-9.31176,-2.56383 -14.79206,-12.19487 -12.233,-21.51616l13.4482,-48.92723c2.56383,-9.32129 12.19487,-14.79683 21.5114,-12.233z" opacity="0.7"/><path d="M275.0692,134.78032c9.31652,2.55907 14.79683,12.18534 12.233,21.50663l-13.4482,48.94152c-2.56383,9.30699 -12.19487,14.7873 -21.52093,12.22347l-48.92723,-13.44343c-9.31652,-2.55907 -14.79206,-12.19011 -12.233,-21.5114l13.45296,-48.93676c2.56383,-9.31652 12.19487,-14.79206 21.50663,-12.22823z" opacity="0.7"/><path d="M303.47625,31.44556c9.32129,2.56383 14.79206,12.19011 12.233,21.50663l-13.4482,48.93676c-2.5543,9.31176 -12.19011,14.79206 -21.50663,12.22823l-48.93676,-13.45296c-9.32129,-2.55907 -14.79206,-12.19011 -12.233,-21.50663l13.45296,-48.94152c2.55907,-9.31176 12.19011,-14.7873 21.50663,-12.22823z" opacity="0.7"/><path d="M350.00644,266.53166c9.32129,2.56383 14.79206,12.19487 12.22823,21.50663l-13.4482,48.93676c-2.55907,9.31652 -12.18534,14.79206 -21.5114,12.22823l-48.93676,-13.44343c-9.31176,-2.55907 -14.7873,-12.19487 -12.22823,-21.5114l13.4482,-48.93676c2.56383,-9.31652 12.19487,-14.79206 21.50663,-12.22823z" opacity="0.7"/><path d="M378.41826,163.19214c9.30699,2.5543 14.7873,12.18058 12.22823,21.50186l-13.45296,48.94152c-2.55907,9.31652 -12.18534,14.7873 -21.50663,12.233l-48.94152,-13.45773c-9.31176,-2.55907 -14.79206,-12.19011 -12.22347,-21.50663l13.4482,-48.94152c2.55907,-9.31652 12.19011,-14.78253 21.50186,-12.22347z" opacity="0.7"/><path d="M406.82054,59.84308c9.31652,2.55907 14.79206,12.19011 12.22823,21.50663l-13.4482,48.93676c-2.5543,9.31652 -12.19011,14.79206 -21.50186,12.233l-48.94152,-13.45296c-9.31176,-2.5543 -14.79206,-12.18534 -12.22823,-21.50663l13.4482,-48.93676c2.56383,-9.31176 12.19487,-14.7873 21.50663,-12.22823z" opacity="0.7"/></g></g></g></g></g></svg>