<svg version="1.1" xmlns="http://www.w3.org/2000/svg" xmlns:xlink="http://www.w3.org/1999/xlink" width="770.89367" height="770.89367" viewBox="0,0,770.89367,770.89367"><defs><linearGradient x1="236.997" y1="-212.95433" x2="236.997" y2="557.93934" gradientUnits="userSpaceOnUse" id="color-1"><stop offset="0" stop-color="#666666"/><stop offset="1" stop-color="#5c5c5c"/></linearGradient><linearGradient x1="405.17375" y1="-158.69755" x2="405.17375" y2="167.32938" gradientUnits="userSpaceOnUse" id="color-2"><stop offset="0" stop-color="#666666"/><stop offset="1" stop-color="#5c5c5c"/></linearGradient><linearGradient x1="253.17624" y1="-152.35372" x2="253.17624" y2="465.42242" gradientUnits="userSpaceOnUse" id="color-3"><stop offset="0" stop-color="#666666"/><stop offset="1" stop-color="#5c5c5c"/></linearGradient><linearGradient x1="121.38405" y1="71.93271" x2="121.38405" y2="503.81439" gradientUnits="userSpaceOnUse" id="color-4"><stop offset="0" stop-color="#666666"/><stop offset="1" stop-color="#5c5c5c"/></linearGradient></defs><g transform="translate(148.44983,212.95434)"><g data-paper-data="{&quot;isPaintingLayer&quot;:true}" fill-rule="nonzero" stroke="none" stroke-width="1" stroke-linecap="butt" stroke-linejoin="miter" stroke-miterlimit="10" stroke-dasharray="" stroke-dashoffset="0" style="mix-blend-mode: normal"><g><path d="M236.99692,557.93917c-212.87603,0 -385.44675,-172.57039 -385.44675,-385.44675c0,-212.87603 172.57039,-385.44675 385.44692,-385.44675c212.87636,0 385.44675,172.57039 385.44675,385.44692c0,212.87603 -172.57039,385.44675 -385.44675,385.44675z" fill="url(#color-1)"/><path d="M543.23198,142.37415c-100.36105,-100.36105 -200.71064,-200.71064 -301.0717,-301.0717c178.86656,2.74709 323.29081,147.16004 326.02693,326.02693z" fill="url(#color-2)"/><path d="M391.29507,465.42225c-149.76334,-148.51688 -298.61153,-297.96054 -446.79727,-448.04406c45.85026,-86.25056 128.4602,-149.9841 227.14407,-169.73192l390.21281,390.21281c-19.82495,98.99291 -83.90061,181.81247 -170.55945,227.56333z" fill="url(#color-3)"/><path d="M-45.97041,104.90846c127.04816,128.37192 254.86835,255.97151 383.06356,383.18491c-31.61858,10.02851 -65.15671,15.72102 -100.09607,15.72102c-182.98196,0 -331.32213,-148.34034 -331.32213,-331.32213c0,-35.10493 5.7477,-68.80848 15.86464,-100.55954c10.84474,10.97723 21.63445,22.00932 32.49017,32.97575z" fill="url(#color-4)"/></g><g fill="#39b54a"><path d="M408.391,246.97301c-98.656,-50.44 -197.312,52.599 -295.967,-59.559c16.515,-43.317 33.03,-92.665 49.545,-146.314c98.656,50.44 197.312,-52.599 295.967,59.558c-16.515,43.318 -33.031,92.666 -49.545,146.315z"/><path d="M170.908,9.65801l-97.706,339.208l-0.015,-0.004c-0.026,0.101 -0.042,0.203 -0.071,0.305c-1.605,5.573 -7.424,8.788 -12.996,7.184c-5.573,-1.605 -8.789,-7.424 -7.184,-12.996c0.03,-0.102 0.07,-0.196 0.102,-0.296l-0.015,-0.005l97.706,-339.208l0.015,0.004c1.726,-5.386 7.424,-8.464 12.895,-6.888c5.471,1.575 8.659,7.213 7.255,12.691z"/></g></g></g></svg>