<svg version="1.1" xmlns="http://www.w3.org/2000/svg" xmlns:xlink="http://www.w3.org/1999/xlink" width="386.812" height="432.169" viewBox="0,0,386.812,432.169"><g transform="translate(-46.594,36.085)"><g stroke="none" stroke-miterlimit="10"><path d="M433.406,-16.42v58.837c0,10.843 -8.821,19.665 -19.665,19.665h-347.482c-10.843,0 -19.665,-8.822 -19.665,-19.665v-58.837c0,-10.843 8.822,-19.665 19.665,-19.665h347.482c10.844,0 19.665,8.822 19.665,19.665z" fill="#ffffff"/><path d="M413.741,57.082h-347.482c-8.099,0 -14.665,-6.566 -14.665,-14.665v-58.837c0,-8.099 6.566,-14.665 14.665,-14.665h347.482c8.099,0 14.665,6.566 14.665,14.665v58.837c0,8.1 -6.566,14.665 -14.665,14.665z" fill="#2ea6ff"/><path d="M423.406,-16.42v5c0,-5.33 -4.336,-9.665 -9.665,-9.665h-347.482c-5.329,0 -9.665,4.335 -9.665,9.665v-5c0,-5.33 4.336,-9.665 9.665,-9.665h347.482c5.329,0 9.665,4.335 9.665,9.665z" fill="#59b8ff"/><path d="M413.741,52.082h-347.482c-5.329,0 -9.665,-4.335 -9.665,-9.665v-5c0,5.33 4.336,9.665 9.665,9.665h347.482c5.329,0 9.665,-4.335 9.665,-9.665v5c0,5.33 -4.336,9.665 -9.665,9.665z" fill="#2993e0"/><path d="M358.24829,34.0433c-11.6215,-11.6215 -11.6215,-30.46368 0,-42.08518c11.6215,-11.6215 30.46368,-11.6215 42.08518,0c11.6215,11.6215 11.6215,30.46368 0,42.08518c-11.6215,11.6215 -30.46368,11.6215 -42.08518,0z" fill="#ffffff"/><path d="M396.056,29.794h-33.524c-1.933,0 -3.5,-1.567 -3.5,-3.5v-9.95c0,-1.933 1.567,-3.5 3.5,-3.5c1.933,0 3.5,1.567 3.5,3.5v6.45h26.524v-6.45c0,-1.933 1.567,-3.5 3.5,-3.5c1.933,0 3.5,1.567 3.5,3.5v9.95c0,1.933 -1.568,3.5 -3.5,3.5z" fill="#2ea6ff"/><path d="M379.294,18.331c-1.933,0 -3.5,-1.567 -3.5,-3.5v-21.355c0,-1.933 1.567,-3.5 3.5,-3.5c1.933,0 3.5,1.567 3.5,3.5v21.354c0,1.934 -1.567,3.501 -3.5,3.501z" fill="#2ea6ff"/><path d="M379.294,18.331c-0.896,0 -1.791,-0.342 -2.475,-1.025l-8.31,-8.31c-1.367,-1.367 -1.367,-3.583 0,-4.95c1.365,-1.367 3.582,-1.367 4.949,0l5.836,5.835l5.836,-5.835c1.367,-1.366 3.582,-1.367 4.949,0c1.367,1.367 1.367,3.583 0,4.95l-8.31,8.31c-0.684,0.683 -1.58,1.025 -2.475,1.025z" fill="#2ea6ff"/><path d="M433.406,246.505v123.046c0,14.631 -11.902,26.533 -26.533,26.533h-123.047c-14.631,0 -26.533,-11.902 -26.533,-26.533v-123.047c0,-14.631 11.902,-26.533 26.533,-26.533h123.047c14.631,0 26.533,11.903 26.533,26.534z" fill="#ffffff"/><path d="M406.873,391.085h-123.047c-11.892,0 -21.533,-9.641 -21.533,-21.533v-123.047c0,-11.892 9.641,-21.533 21.533,-21.533h123.047c11.892,0 21.533,9.641 21.533,21.533v123.047c0,11.892 -9.64,21.533 -21.533,21.533z" fill="#2ea6ff"/><path d="M333.06579,314.2763c-20.99431,-6.7819 -32.51575,-29.29897 -25.73386,-50.29327c6.7819,-20.99431 29.29897,-32.51575 50.29327,-25.73386c20.99431,6.78189 32.51575,29.29897 25.73386,50.29327c-6.7819,20.99431 -29.29897,32.51575 -50.29327,25.73386z" fill="#ffffff"/><path d="M367.85,297.635h-45c-1.933,0 -3.5,-1.568 -3.5,-3.5v-13.355c0,-1.933 1.567,-3.5 3.5,-3.5c1.933,0 3.5,1.567 3.5,3.5v9.856h38v-9.856c0,-1.933 1.567,-3.5 3.5,-3.5c1.933,0 3.5,1.567 3.5,3.5v13.356c0,1.932 -1.568,3.499 -3.5,3.499z" fill="#2ea6ff"/><path d="M345.35,282.249c-1.933,0 -3.5,-1.567 -3.5,-3.5v-28.666c0,-1.933 1.567,-3.5 3.5,-3.5c1.933,0 3.5,1.567 3.5,3.5v28.666c0,1.932 -1.568,3.5 -3.5,3.5z" fill="#2ea6ff"/><path d="M345.35,282.249c-0.928,0 -1.818,-0.369 -2.475,-1.025l-11.156,-11.156c-1.367,-1.366 -1.367,-3.583 0,-4.949c1.367,-1.367 3.582,-1.367 4.949,0l8.682,8.681l8.681,-8.681c1.365,-1.367 3.582,-1.367 4.949,0c1.367,1.366 1.367,3.582 0,4.949l-11.155,11.156c-0.657,0.655 -1.547,1.025 -2.475,1.025z" fill="#2ea6ff"/><path d="M433.406,107.194v58.837c0,10.843 -8.821,19.665 -19.665,19.665h-347.482c-10.843,0 -19.665,-8.822 -19.665,-19.665v-58.837c0,-10.843 8.822,-19.665 19.665,-19.665h347.482c10.844,0 19.665,8.821 19.665,19.665z" fill="#ffffff"/><path d="M413.741,180.696h-347.482c-8.099,0 -14.665,-6.566 -14.665,-14.665v-58.837c0,-8.099 6.566,-14.665 14.665,-14.665h347.482c8.099,0 14.665,6.566 14.665,14.665v58.837c0,8.099 -6.566,14.665 -14.665,14.665z" fill="#2ea6ff"/><path d="M71.4,175.696h-5.141c-5.329,0 -9.665,-4.336 -9.665,-9.665v-58.837c0,-5.329 4.336,-9.665 9.665,-9.665h5.141c-5.329,0 -9.665,4.336 -9.665,9.665v58.837c0,5.329 4.336,9.665 9.665,9.665z" fill="#59b8ff"/><path d="M418.265,166.031v-58.837c0,-5.329 -4.336,-9.665 -9.665,-9.665h5.141c5.329,0 9.665,4.336 9.665,9.665v58.837c0,5.329 -4.336,9.665 -9.665,9.665h-5.141c5.329,0 9.665,-4.336 9.665,-9.665z" fill="#2993e0"/><path d="M349.993,168.985c-1.933,0 -3.5,-1.567 -3.5,-3.5v-35.818c0,-1.933 1.567,-3.5 3.5,-3.5c1.933,0 3.5,1.567 3.5,3.5v35.818c0,1.933 -1.567,3.5 -3.5,3.5z" fill="#ffffff"/><path d="M349.993,168.985c-0.928,0 -1.818,-0.369 -2.475,-1.025l-13.939,-13.939c-1.367,-1.367 -1.367,-3.583 0,-4.95c1.365,-1.367 3.582,-1.367 4.949,-0.001l11.465,11.464l11.464,-11.464c1.365,-1.367 3.582,-1.367 4.949,-0.001c1.367,1.367 1.367,3.583 0,4.95l-13.938,13.939c-0.657,0.658 -1.546,1.027 -2.475,1.027z" fill="#ffffff"/><path d="M383.195,169.9c-1.933,0 -3.5,-1.567 -3.5,-3.5c0,-1.933 1.567,-3.5 3.5,-3.5c9.003,0 16.328,-7.325 16.328,-16.328c0,-9.003 -7.325,-16.328 -16.328,-16.328c-2.41,0 -4.734,0.516 -6.908,1.533c-0.932,0.438 -2.009,0.44 -2.944,0.01c-0.936,-0.43 -1.635,-1.249 -1.911,-2.241c-3.151,-11.317 -13.563,-19.221 -25.318,-19.221c-14.21,0 -25.996,11.559 -26.273,25.767c-0.037,1.906 -1.593,3.432 -3.499,3.432c-0.017,0 -0.034,0 -0.053,0c-6.428,0.02 -11.651,5.256 -11.651,11.688c0,6.445 5.244,11.689 11.689,11.689c1.933,0 3.5,1.567 3.5,3.5c0,1.933 -1.567,3.5 -3.5,3.5c-10.306,0 -18.689,-8.384 -18.689,-18.689c0,-9.188 6.666,-16.85 15.416,-18.401c1.91,-16.523 16.126,-29.485 33.061,-29.485c13.613,0 25.804,8.371 30.841,20.765c2.02,-0.562 4.107,-0.845 6.241,-0.845c12.863,0 23.328,10.465 23.328,23.328c-0.002,12.861 -10.466,23.326 -23.33,23.326z" fill="#ffffff"/><path d="M229.667,246.505v123.046c0,14.631 -11.903,26.533 -26.533,26.533h-123.047c-14.63,0 -26.533,-11.902 -26.533,-26.533v-123.047c0,-14.631 11.903,-26.533 26.533,-26.533h123.047c14.631,0 26.533,11.903 26.533,26.534z" fill="#ffffff"/><path d="M203.134,391.085h-123.047c-11.892,0 -21.533,-9.641 -21.533,-21.533v-123.047c0,-11.892 9.641,-21.533 21.533,-21.533h123.047c11.892,0 21.533,9.641 21.533,21.533v123.047c0,11.892 -9.64,21.533 -21.533,21.533z" fill="#2ea6ff"/><path d="M140.447,312.335c-1.933,0 -3.5,-1.567 -3.5,-3.5v-45.015c0,-1.933 1.567,-3.5 3.5,-3.5c1.933,0 3.5,1.567 3.5,3.5v45.015c0,1.933 -1.567,3.5 -3.5,3.5z" fill="#ffffff"/><path d="M140.447,312.335c-0.895,0 -1.791,-0.342 -2.475,-1.025l-15.177,-15.177c-1.367,-1.366 -1.367,-3.583 0,-4.949c1.367,-1.367 3.583,-1.367 4.95,0l12.702,12.701l12.702,-12.701c1.367,-1.367 3.583,-1.367 4.95,0c1.367,1.366 1.367,3.583 0,4.949l-15.177,15.177c-0.683,0.683 -1.579,1.025 -2.475,1.025z" fill="#ffffff"/><path d="M176.598,313.331c-1.933,0 -3.5,-1.567 -3.5,-3.5c0,-1.933 1.567,-3.5 3.5,-3.5c9.974,0 18.089,-8.114 18.089,-18.088c0,-9.975 -8.115,-18.089 -18.089,-18.089c-2.67,0 -5.245,0.571 -7.654,1.698c-0.933,0.434 -2.01,0.44 -2.944,0.009c-0.935,-0.43 -1.634,-1.249 -1.91,-2.241c-3.469,-12.456 -14.928,-21.155 -27.867,-21.155c-15.641,0 -28.613,12.723 -28.918,28.36c-0.037,1.931 -1.602,3.505 -3.574,3.431c-7.162,0.032 -12.979,5.868 -12.979,13.038c0,7.188 5.849,13.037 13.038,13.037c1.933,0 3.5,1.567 3.5,3.5c0,1.933 -1.567,3.5 -3.5,3.5c-11.049,0 -20.038,-8.988 -20.038,-20.037c0,-9.933 7.263,-18.2 16.757,-19.77c1.956,-17.945 17.355,-32.06 35.714,-32.06c14.79,0 28.024,9.153 33.396,22.674c2.255,-0.654 4.59,-0.984 6.979,-0.984c13.834,0 25.089,11.255 25.089,25.089c0,13.834 -11.255,25.088 -25.089,25.088z" fill="#ffffff"/><g fill="#ffffff" font-family="Montserrat-Bold" font-weight="400" text-anchor="start"><g font-size="21"><text transform="translate(316.8315,364.6472)" font-size="21" xml:space="preserve" fill="#ffffff"><tspan x="0" dy="0">FREE</tspan></text></g><g font-size="21"><text transform="translate(71.4606,387.5129)" font-size="21" xml:space="preserve" fill="#ffffff"><tspan x="0" dy="0">DOWNLOAD</tspan></text></g><g font-size="21"><text transform="translate(275.1993,387.5134)" font-size="21" xml:space="preserve" fill="#ffffff"><tspan x="0" dy="0">DOWNLOAD</tspan></text></g><g font-size="21"><text transform="translate(113.0932,364.6476)" font-size="21" xml:space="preserve" fill="#ffffff"><tspan x="0" dy="0">FREE</tspan></text></g><text transform="translate(86.7268,45.4938)" font-size="35" xml:space="preserve" fill="#ffffff"><tspan x="0" dy="0">DOWNLOAD</tspan></text><text transform="translate(76.0246,167.246)" font-size="30" xml:space="preserve" fill="#ffffff"><tspan x="0" dy="0">DOWNLOAD</tspan></text></g></g></g></svg>