<svg version="1.1" xmlns="http://www.w3.org/2000/svg" xmlns:xlink="http://www.w3.org/1999/xlink" width="73.92499" height="55.42714" viewBox="0,0,73.92499,55.42714"><g transform="translate(-202.38515,-126.80827)"><g stroke-miterlimit="10"><path d="M239.20687,178.63067c-17.64489,0 -31.94892,-6.89659 -31.94892,-15.40395c0,-8.50737 14.30401,-15.40395 31.94892,-15.40395c17.64489,0 31.94892,6.89659 31.94892,15.40395c0,8.50737 -14.30401,15.40395 -31.94892,15.40395z" fill="#c7c7c7" stroke="#000000" stroke-width="0.5" stroke-linecap="butt"/><path d="M229.91598,142.85438c2.20109,-1.80432 2.1418,-6.37857 4.60075,-8.11362c0.27873,-0.05738 0.51392,-0.09074 0.6916,-0.09196c2.05624,-0.01404 3.69379,0.10441 5.29877,0.34864c0.12829,0.111 0.26177,0.2162 0.39998,0.31516c1.55625,4.61307 5.12837,7.12473 9.86717,2.5245c0.88499,0.00347 1.77144,-0.00627 2.65667,-0.00491c1.3062,0.5309 2.22459,1.55898 3.15609,2.32939l0.27514,0.43235l0.06029,0.18088l0.16556,0.19315l0.3307,0.66141l0.01141,0.0513l0.27163,0.37611l0.0192,0.04801l0.11549,0.15397l0.03812,0.0905l0.07266,0.06606l0.16535,0.24802l0.07346,0.20568l0.14213,0.16582l0.0496,0.0992l0.19842,0.23149l0.08267,0.16535l0.03181,0.14318l0.08587,0.11889l0.07623,0.19057l0.15257,0.26701l0.43002,0.64503l0.04093,0.11457l0.08417,0.08784l0.3307,0.57872l0.09321,0.33138l0.18482,0.29043l0.08768,0.26302l0.0555,0.111l0.08258,0.37157l0.17911,0.33586l0.20253,0.81008c0.79289,-0.80565 1.70962,-1.41892 2.8478,-1.74885c1.05818,0.23644 1.9807,0.12041 2.76031,-0.24433c0.67536,0.05098 1.40972,0.17256 2.21201,0.37314c4.96745,1.24186 3.12557,9.95827 2.9477,15.07552c-0.02063,0.59341 -0.01216,1.30827 -0.43204,1.72814c-6.03956,6.03956 -6.3375,-3.49708 -6.48055,-6.57828c-0.01817,-0.39114 -0.35072,0.75588 -0.69068,0.95015c-0.87419,0.49955 -4.94744,1.06243 -5.58059,-0.04556l-0.65208,-1.14113l-0.62311,-0.02967l-0.81391,-0.02712l-0.04883,-0.01394l-0.10313,-0.00491l-0.02846,-0.03268l-0.97703,-0.27914l-0.5447,-0.31425l-0.57956,-0.24403l-0.95996,-0.71997l-0.23041,-0.16458l0.02251,1.05792l-0.68691,0.68691l-0.24151,0.88553l-0.88553,0.24151l-0.64903,0.64903l-0.88867,-0.22966l-0.93722,0.25562l-0.82867,-0.49719l-0.06059,0.00417l-0.13116,-0.11923l-0.43698,-0.26219l-0.08909,-0.02302l-0.04861,-0.08665l-0.18041,-0.18041l-0.17711,-0.29519l-0.25473,-0.23158l-0.66141,-0.99211l-0.0127,-0.03559l-0.02742,-0.02602l-1.15746,-1.81886l-0.04526,-0.13576l-0.09549,-0.10658l-0.38119,-0.72226l-0.03375,0.11136l-0.09992,0.16701l-0.031,0.19214l-0.49604,1.15746l-0.29597,0.38944l-0.25426,0.53675l-0.20582,0.06862l-0.32181,0.42342l-1.44643,0.16599l-1.33039,0.44346l-0.29501,-0.25694l-0.38866,0.0446l-0.84505,-1.11912l-1.09788,-0.95623l-0.0222,-0.46596c-0.04614,0.11391 -0.09817,0.22478 -0.15574,0.33227l-0.02474,0.09894l-0.04556,0.02603c-0.60124,1.01872 -1.71014,1.70211 -2.97869,1.70211c-1.13205,0 -2.13698,-0.54426 -2.76742,-1.38537c-0.43602,0.28284 -0.9773,0.52235 -1.63859,0.70779c-0.17902,0.40191 -0.45332,0.79769 -0.83729,1.18166c-0.82099,0.82099 -1.86319,1.72814 -3.02426,1.72814c-1.90824,0 -2.21401,-3.25426 -3.84976,-4.23698c-3.02794,-1.81912 -4.79799,2.34806 -6.28723,3.97378c-0.11071,0.12085 -0.20955,0.2537 -0.29667,0.3954c0.16029,0.39841 0.24851,0.83357 0.24851,1.28934c0,0.43312 -0.07966,0.84762 -0.22514,1.22967c0.30074,0.51252 0.47316,1.10946 0.47316,1.74664c0,1.90361 -1.53893,3.44777 -3.44054,3.45625c-3.61536,1.79149 -4.57219,-5.22676 -4.46415,-9.82227c0.0195,-0.82987 0.20038,-1.4691 0.48313,-1.99333c0.01216,-0.23972 0.01768,-0.45902 0.01292,-0.65229c-0.1771,-7.17946 1.40418,-12.27602 10.06196,-10.83305c1.57987,0.26331 2.51921,1.67085 3.98173,1.92417c1.93845,0.33577 3.74682,-0.42396 5.43504,-0.0333c0.10022,-0.0299 0.20234,-0.05538 0.30616,-0.07622c0.58024,-0.38562 1.26955,-0.81701 2.16865,-1.55403zM237.099,150.70583l0.00679,-0.01666c-0.11633,0.05443 -0.2362,0.10258 -0.35914,0.14399l0.07001,0.31506c0.0394,0.10601 0.07375,0.2145 0.10274,0.32513l0.13354,-0.44511z" fill="#c7c7c7" stroke="none" stroke-width="0.5" stroke-linecap="butt"/><path d="M222.32519,141.32645c0.4181,0 0.81047,0.19604 1.1639,0.45929c0.44058,-1.40135 1.52252,-3.03404 2.75137,-3.03503c0.6329,-2.38557 1.57804,-4.45945 3.53355,-5.85129c1.20546,-2.80922 3.32768,-4.93895 5.97909,-4.90832c1.21033,0.01397 2.12936,0.61863 2.74662,1.49246c1.7331,0.21924 3.37865,1.70978 5.55291,3.774c0.8763,0.83195 2.39999,0.74222 3.2544,1.59664c0.21371,0.21371 0.43629,1.26513 0.57889,2.52415c1.06234,-0.24369 2.0707,-0.47001 2.81369,-0.44231c6.62003,0.24686 8.79177,5.06634 8.79177,11.16925c0,0.11591 0.00095,0.24628 0.00179,0.38681c0.06067,-0.02318 0.12217,-0.04468 0.18442,-0.06447c3.54183,-4.07015 9.33288,-8.20913 11.89309,-1.04054c0.89675,2.51091 0.43915,6.6826 0.23151,9.24788c-0.30395,3.75509 -4.0519,4.1568 -6.48055,1.72814c-1.23803,-1.23803 -0.39582,-3.48421 -0.43204,-5.23469c-0.01333,-0.64414 -0.7196,1.09728 -1.22895,1.49183c-0.72491,0.56152 -4.03149,1.23105 -4.68895,0.08048c-0.46847,-0.27648 -0.86605,-0.66035 -1.15885,-1.11772c-1.30608,0.90451 -3.1721,0.53942 -4.92384,-1.03519c-2.02979,-1.82452 1.64886,-8.37671 -2.33995,-8.66731c-0.93241,-0.06793 0.2808,1.55633 -0.0434,2.4086c-0.1624,0.42687 -1.58556,2.22732 -1.6874,2.34115c-1.26816,1.41735 -4.9269,-0.16674 -7.128,-1.27532c-0.34847,0.01749 -0.69568,-0.04476 -1.05283,-0.18679c-1.25998,1.47921 -4.00179,0.58134 -6.02424,0.77521c-1.8328,3.06247 -8.90853,6.31212 -10.20267,5.15421l-0.29924,-0.37c-0.35811,0.66797 -0.91368,1.24971 -1.70567,1.70227c-1.71719,0.98125 -5.60496,-2.80891 -7.28962,-3.65124c-0.61285,0.55352 -1.425,0.89057 -2.31585,0.89057c-1.90885,0 -3.4563,-1.54743 -3.4563,-3.4563c0,-0.12718 0.00687,-0.2528 0.02026,-0.37643c-0.65325,-1.50054 -0.79826,-3.14038 0.07952,-4.41454c0.29594,-0.99503 0.84204,-1.92643 1.31897,-2.19172c1.29726,-0.72155 2.23449,0.88628 3.04163,0.81066c1.73529,-0.16258 2.02162,-2.73527 4.41011,-2.11805c0.89212,0.23055 1.31302,1.17519 1.79833,2.0438c0.06169,0.04993 0.12328,0.10093 0.18471,0.153c0.36048,-0.48224 1.03343,-0.79312 2.12776,-0.79312zM235.50701,139.54706c-0.0076,0.14425 0.03694,0.85946 0.02831,1.64935c0.57226,-0.02208 1.18449,-0.03576 1.78865,-0.00175c-0.33265,-1.10209 -0.67713,-2.10764 -1.20304,-2.73709c-0.28561,0.34041 -0.59284,0.68973 -0.61391,1.08951z" fill="#c7c7c7" stroke="none" stroke-width="0.5" stroke-linecap="butt"/><path d="M214.42079,161.92523c1.20791,2.14736 -0.54982,4.56867 0.42456,6.61112c1.47065,3.0827 6.58696,-0.39208 8.46575,2.8958c2.46482,4.31344 -4.12693,5.57954 -6.9014,5.40303c-5.90282,-0.3755 -8.62034,-5.54895 -8.66996,-10.65026c-0.00539,-0.55502 0.06136,-1.96671 0.23532,-3.02382c0.01087,-0.07623 0.02423,-0.15167 0.03999,-0.22622c0.33066,-1.56403 1.71903,-2.73782 3.38152,-2.73782c1.12477,0 2.12408,0.53727 2.75523,1.36919c0.10301,0.1064 0.1937,0.22505 0.26903,0.35896z" fill="#c7c7c7" stroke="none" stroke-width="0.5" stroke-linecap="butt"/><path d="M261.42782,143.83302c0.01096,0 0.02191,0.00008 0.03285,0.00026c0.03601,-1.11371 0.9502,-2.00553 2.07269,-2.00553c0.54723,0 1.04493,0.21196 1.41553,0.55824c0.56541,-0.10348 1.12742,-0.09651 1.64656,0.0495c0.46126,0.12973 0.83619,0.48884 1.12046,0.97934c0.36031,-0.3022 0.82485,-0.48419 1.33191,-0.48419c1.14531,0 2.07377,0.92847 2.07377,2.07377c0,0.20953 -0.03107,0.4118 -0.08887,0.60244c0.53849,0.37458 0.89096,0.99793 0.89096,1.70362c0,1.14531 -0.92847,2.07377 -2.07377,2.07377c-0.81088,0 -1.51306,-0.46539 -1.854,-1.14365c-0.22669,0.51035 -0.55835,0.8902 -0.99944,1.03724c-0.86248,0.2875 -1.88923,-0.96486 -2.67857,-0.51379c-0.36072,0.61122 -1.02608,1.02127 -1.7872,1.02127c-0.61251,0 -1.163,-0.26554 -1.54263,-0.6878c-0.09145,0.4593 -0.23457,0.83635 -0.45282,1.0546c-1.38253,1.38253 -2.24659,1.38253 -3.62911,0c-1.59714,-1.59714 1.15564,-5.84499 0.2421,-7.56986c-0.946,-1.78614 -5.21701,-2.36724 -7.18277,-2.25435c-0.11965,0.02147 -0.24288,0.03268 -0.36872,0.03268c-1.14531,0 -2.07377,-0.92847 -2.07377,-2.07377c0,-0.27554 0.05374,-0.53854 0.15132,-0.77909c0.49462,-1.97446 1.98858,-4.9759 4.16251,-3.64231c0.1251,0.07674 1.47378,2.60809 1.60706,2.5856c1.15626,-0.19507 2.33069,-0.93259 3.46196,-0.62406c0.23535,0.06417 0.35794,0.25718 0.43026,0.49416c0.05979,-0.00518 0.1203,-0.00782 0.18144,-0.00782c0.69407,0 1.30848,0.34096 1.68491,0.86451c0.53971,-0.10182 1.11048,-0.1155 1.51337,0.15308c1.63663,1.09109 0.76022,4.48441 0.43133,6.52095c0.09179,-0.01241 0.18547,-0.01882 0.28066,-0.01882z" fill="#c7c7c7" stroke="none" stroke-width="0.5" stroke-linecap="butt"/><path d="M239.73053,133.61951c-0.57776,-0.22561 -1.16119,-0.51595 -1.70523,-0.84345c-0.71933,0.02005 -1.66022,-0.254 -2.33456,-0.67314c-0.32577,0.21303 -0.71517,0.33686 -1.13346,0.33686c-0.50227,0 -0.96284,-0.17855 -1.32166,-0.47566c-0.16025,0.53549 -0.53105,0.98004 -1.01632,1.23756c-0.0123,0.91885 -0.62217,1.69343 -1.45866,1.9528c-0.12245,0.52001 -0.44062,0.96448 -0.87252,1.25142c-0.06324,0.40197 -0.24198,0.76559 -0.50113,1.05584c0.01653,0.10548 0.02511,0.21363 0.02511,0.32376c0,0.75968 -0.40849,1.42397 -1.01781,1.78516c0.13805,0.27771 0.2157,0.59076 0.2157,0.92195c0,1.14531 -0.92847,2.07377 -2.07377,2.07377c-0.27079,0 -0.52946,-0.05189 -0.76659,-0.14629c-0.14075,0.03016 -0.28681,0.04603 -0.43658,0.04603c-1.14531,0 -2.07377,-0.92847 -2.07377,-2.07377c0,-0.59869 0.2537,-1.13813 0.65947,-1.51667c-0.03784,-0.15667 -0.05788,-0.32029 -0.05788,-0.48859c0,-1.09309 0.84571,-1.98864 1.91851,-2.06806c-0.00892,-0.07809 -0.0135,-0.15752 -0.0135,-0.238c0,-0.72158 0.36853,-1.3571 0.92768,-1.72856c0.12365,-0.78595 0.68877,-1.42528 1.43354,-1.65621c0.11087,-0.47086 0.38223,-0.87979 0.75317,-1.16591c-0.00411,-0.05336 -0.00623,-0.10727 -0.00623,-0.1617c0,-1.14531 0.92847,-2.07377 2.07377,-2.07377c0.00357,0 0.00717,0 0.01074,0.00003c0.24758,-0.86826 1.04681,-1.50397 1.99452,-1.50397c0.36367,0 0.70546,0.09362 1.00263,0.25804c0.29715,-0.16444 0.63897,-0.25804 1.00264,-0.25804c0.45679,0 0.87907,0.14768 1.22171,0.3979c1.34801,-0.60394 4.01424,0.16976 5.78586,1.66571c0.66732,0.16182 1.20849,0.64647 1.44883,1.27927c0.671,0.25484 1.17538,0.84792 1.305,1.57099c0.02137,-0.00065 0.04283,-0.00098 0.06437,-0.00098c1.14531,0 2.07377,0.92847 2.07377,2.07377c0,1.14531 -0.92847,2.07377 -2.07377,2.07377c-0.46814,0 -0.90009,-0.15514 -1.24718,-0.41679c-0.08413,0.0104 -0.16983,0.01575 -0.25676,0.01575c-0.34211,0 -0.66486,-0.08284 -0.9493,-0.22955c-0.24274,-0.04098 -0.47112,-0.12412 -0.67739,-0.24165c-0.73504,-0.31888 -1.24917,-1.05108 -1.24917,-1.90336c0,-0.07398 0.00387,-0.14708 0.01143,-0.21907c-0.2256,-0.0676 -0.45496,-0.14724 -0.68521,-0.23715z" fill="#c7c7c7" stroke="none" stroke-width="0.5" stroke-linecap="butt"/><path d="M223.38423,172.74287c0.03744,0.02544 0.07248,0.05759 0.10544,0.09531c0.49205,0.37918 0.80905,0.97437 0.80905,1.6436c0,0.03037 -0.00065,0.06056 -0.00195,0.09062c0.03551,-0.00858 0.07398,-0.03555 0.11622,-0.08432c0.8905,-1.02804 1.06231,-2.19118 2.7405,-2.19325c2.27816,-0.00284 1.72338,3.24743 3.16144,3.62238c1.51633,0.39539 2.92788,-1.16132 4.44292,-1.20317c1.54602,-0.04271 4.32646,-0.53704 5.94976,0.05871c0.39023,0.14322 0.84973,1.36979 1.02094,1.37532c2.89068,0.09341 6.63045,-2.17647 9.53256,-2.90974c2.70634,-0.6838 5.91467,-0.78866 8.33693,-1.51375c0.88244,-0.26415 3.1336,1.17727 2.74197,0.34354c-1.17608,-2.50372 4.0186,-3.43941 4.70244,-5.23499c0.8882,-2.3321 2.19643,-4.0781 3.12786,-6.2282c0.01419,-0.03275 -1.64107,-2.15461 -1.60498,-2.68222c0.23936,-3.49893 5.10745,-0.96047 5.64602,1.19376c1.08866,4.35464 -1.35837,15.31162 -6.39861,16.88972c-2.11273,0.6615 -5.16558,0.63417 -7.25593,-0.04975c-0.88018,-0.28798 -3.98861,2.03551 -5.17665,2.32404c-2.00495,0.48695 -4.73421,-0.43721 -6.34336,0.01099c-1.75492,0.4888 -6.09327,2.76206 -7.77753,2.38777c-0.87143,-0.19365 -2.3609,-1.86061 -2.81386,-1.90536c-4.1528,-0.41022 -8.17977,3.19305 -11.5756,-0.51213c-0.95518,-1.04221 -2.83054,1.02284 -4.19214,0.64258c-1.59157,-0.44448 -1.67177,-2.22354 -2.28892,-3.45786c-0.15171,-0.28817 -0.23758,-0.61644 -0.23758,-0.96473c0,-1.14531 0.92847,-2.07377 2.07377,-2.07377c0.18434,0 0.36308,0.02406 0.53323,0.0692c0.22113,0.04759 0.4335,0.13485 0.62605,0.26567z" fill="#c7c7c7" stroke="none" stroke-width="0.5" stroke-linecap="butt"/><path d="M206.61564,147.91206c0,-1.14531 0.92847,-2.07377 2.07377,-2.07377c1.14531,0 2.07377,0.92847 2.07377,2.07377c0,0.64317 -0.29281,1.21799 -0.7524,1.59836c0.40148,0.37819 0.65213,0.91471 0.65213,1.50979c0,0.92138 -0.60088,1.70241 -1.43217,1.97262c1.08041,2.38911 0.42865,7.35034 1.41352,9.07387c0.61122,0.36072 1.02127,1.02608 1.02127,1.7872c0,0.536 -0.20335,1.02454 -0.53713,1.3926c-0.7596,3.52169 2.69687,6.72591 0.12688,7.3077c-6.80239,1.53989 -5.45146,-11.50296 -5.80459,-13.917c-0.18792,-1.28453 -1.37821,-5.45044 -0.38058,-6.44809c0.32818,-0.32818 0.62711,-0.57842 0.91072,-0.7508c-0.17036,-0.30112 -0.26756,-0.64903 -0.26756,-1.01967c0,-0.76429 0.41345,-1.432 1.02888,-1.79169c-0.08183,-0.22287 -0.12653,-0.46365 -0.12653,-0.71488z" fill="#c7c7c7" stroke="none" stroke-width="0.5" stroke-linecap="butt"/><path d="M259.25627,163.45283v0.30078c0,3.08637 0.83712,5.5187 1.09919,8.53502c0.13948,1.60525 -0.14177,3.08681 0.67922,4.50399c0,0 0.09179,0.16829 0.12408,0.39963c0.22204,0.08152 0.45609,0.14519 0.70276,0.18945l-0.03264,-0.02655c0,0 0.91694,0 1.02626,0.86229c0.62107,-0.10623 1.19725,-0.27867 1.70678,-0.54638c1.54413,-0.81125 3.11289,-2.83948 4.54234,-3.97106c3.67677,-1.69955 2.30856,-4.50251 3.71218,-7.66881c0.75567,-1.70461 1.86675,-2.92258 1.26638,-5.04922c-0.54795,-1.94103 -2.14371,-2.75821 -2.16089,-5.20962l-0.09796,-1.26369c0,0 -0.00477,-0.06195 0.00319,-0.15669l-0.19266,-1.15605l0.18641,-0.03107c0,-0.31706 0,-0.97407 0,-1.29113c-0.13686,-2.16628 0.64994,-4.13934 0.03214,-6.71337c-0.42324,-1.76345 -2.73211,-1.25962 -4.01739,-1.43086c-2.09065,-0.27855 -2.16821,-0.9687 -3.43487,-2.21783c-0.33663,-0.33197 -1.45276,-0.171 -2.48258,0.06396c-0.73356,1.32147 -1.17288,2.48036 -1.42933,3.607c-0.08139,0.84423 -0.1675,1.68715 -0.3145,2.51085c-0.05837,1.45155 0.04253,3.00591 0.07905,4.9247c0.04865,2.55601 -1.313,2.35192 -1.99218,4.14447c-0.0546,0.14408 -0.10415,0.2993 -0.14922,0.46376c0.33208,0.91185 0.65387,1.8018 0.93033,2.65142c0.00332,0.78297 0.09927,1.86344 -0.18022,2.73101c0.39414,0.29991 0.39414,0.84403 0.39414,0.84403zM256.28014,148.6139c0,-0.57267 0.46422,-1.03689 1.03689,-1.03689c0.26902,0 0.51409,0.10245 0.69836,0.27044c0.04648,-1.27221 0.20614,-2.46589 0.55845,-3.69481c0.01252,-0.13197 0.02508,-0.26393 0.03791,-0.39579c-0.51493,-0.19266 -0.61576,-0.63127 -0.62321,-0.91484c-2.90134,2.31223 -2.54401,6.05132 -1.40499,9.91781c0.23291,-1.02999 0.53293,-2.06622 0.89028,-3.12083c-0.05113,0.00776 -0.10351,0.01179 -0.1568,0.01179c-0.57267,0 -1.03689,-0.46422 -1.03689,-1.03689zM257.68382,139.59022c0,-0.57267 0.46422,-1.03689 1.03689,-1.03689c0.48677,0 0.8952,0.33543 1.00676,0.78774c-0.08943,-1.4433 -0.29962,-2.91521 -1.29655,-3.44931c-2.12129,-1.13655 -4.04807,1.89853 -5.57916,1.4953c-1.5808,-0.41634 -1.61752,-4.63455 -3.81882,-4.78287c-2.12456,-0.14314 -0.26174,1.53481 0.14905,2.16247l-0.0718,0.31174h0.11977v1.20317c0,0.57267 -0.46422,1.03689 -1.03689,1.03689c-0.26815,0 -0.51252,-0.10178 -0.69661,-0.26885l-0.99967,-0.89971l0.34118,-0.37911c-2.22044,-2.44772 -3.76445,-6.37598 -6.92904,-7.1089c-1.98786,-0.46038 -3.38494,0.49586 -5.27573,0.43471c-2.79366,-0.09036 -3.46999,-0.86299 -5.41503,1.62176c-1.79434,3.52246 -3.36651,5.84263 -4.49617,9.67115l-0.04264,0.35057c0.03006,0.29269 -0.0799,0.51769 -0.21535,0.67926c-0.06045,0.0906 -0.13903,0.17943 -0.24079,0.25147c0.32981,0.35443 0.55867,0.8362 0.63181,1.47857c0.34964,3.07121 -0.9697,6.59999 -0.79312,9.81166c0.08583,1.56143 0.94603,2.26079 1.19371,3.82091c0.44038,2.77421 0.31225,5.57639 0.31225,8.37534c-0.00233,1.14976 -0.46029,2.67883 -0.2217,3.80205c0.43162,2.03197 2.407,2.61407 2.52474,4.94206c0.10232,2.02286 -1.87864,3.82403 -3.96952,4.72316c5.55733,1.13568 11.36963,0.30514 17.18148,0.03916c2.07057,-0.09476 2.87815,1.48957 4.54648,1.49969c2.29405,0.1076 5.64598,-1.48176 8.10828,-1.89178c0.01736,-0.00289 0.03474,-0.00572 0.05218,-0.0085c-0.10168,-0.15579 -0.18648,-0.32488 -0.25076,-0.50901c-0.69951,-2.00335 1.59449,-3.41954 2.28891,-4.93745c-0.2375,-0.94537 -0.39615,-1.9348 -0.49373,-2.93107c-0.73665,-2.05165 -1.43766,-4.54737 -0.59059,-6.60072c0.13933,-0.33779 0.41893,-0.55573 0.75276,-0.72773c0.09546,-1.42662 0.15829,-3.43933 0.45558,-5.07941c-1.84383,-4.67421 -4.39398,-11.35617 -1.21701,-14.96427c0.65599,-0.74501 1.94516,-1.52033 3.28655,-2.15759c-0.20752,-0.18959 -0.33768,-0.46244 -0.33768,-0.76569zM257.84544,178.21047c0,0 0.02763,0.00921 0.07213,0.0292c0.34282,0.02147 0.68735,0.0437 1.03113,0.06343l-0.10141,-0.18419c-0.97027,-0.79006 -1.70118,-1.83718 -2.24354,-3.03552c-0.98102,1.39134 -1.68542,2.16267 1.2417,3.12709zM257.18966,180.17783c-0.08064,-0.02714 -0.16347,-0.0546 -0.24806,-0.08255c-0.60554,-0.01872 -1.19142,-0.01537 -1.74483,0.03196c-3.27028,0.27968 -6.54486,2.02791 -9.65361,2.10817c-1.84447,-0.22601 -2.54831,-1.63517 -4.35887,-1.5004c-6.48649,0.48286 -13.25753,1.22485 -19.4106,-0.49042c-1.66147,-0.46316 -2.85574,0.03069 -3.96827,-1.33817c-2.93042,3.79224 -4.38674,-1.77795 -7.20286,-2.5034c-0.47608,-0.12264 -0.99724,0.44914 -1.45155,0.26127c-2.74022,-1.13312 -2.4379,-5.52157 -3.90669,-7.48779c-2.4279,-3.25016 -3.1113,-5.81539 -2.78158,-10.05572c1.76776,-4.79668 0.84825,-12.39043 5.55201,-13.07824c0.55878,-0.0817 0.22958,-1.10706 0.38713,-1.64937c0.61595,-2.12004 0.50417,-3.26743 2.59643,-4.09166c0,0 0.11357,-0.03409 0.27543,-0.04077c0.02755,-0.03341 0.05797,-0.06685 0.09145,-0.10032c0.57235,-0.57235 1.14471,-0.25111 1.36827,-0.08262c1.58011,0.3636 3.17737,-2.17861 5.50793,-1.33177c0.8285,0.30105 0.66474,1.73793 1.37642,2.25808c0.17675,0.12918 0.21346,-0.42936 0.41845,-0.50623c0.94167,-0.35319 1.75314,-0.1938 2.66099,-0.4583l0.03852,-0.24601c1.2214,-3.99085 2.92172,-6.52537 4.72803,-10.18094c2.34824,-3.03369 3.74614,-2.78042 7.21812,-2.58928c3.75532,0.20675 5.83005,-1.38594 8.85382,1.83179c0.63355,0.67419 1.86405,1.72568 2.85602,2.87631c0.37654,-0.7421 1.24641,-1.23886 2.76621,-1.19731c1.57585,0.04307 3.06454,1.92807 3.81755,3.08106c0.16145,0.2472 0.37766,0.75729 0.49663,1.17268c0.38356,-0.33404 1.12381,-0.67097 1.54063,-0.80264c1.2938,-0.40866 3.15588,-0.56944 4.3988,0.0792c1.09392,0.57086 2.54815,3.17182 2.41349,4.89858c0.18034,-0.0197 0.44113,-0.01192 0.67289,0.13285c1.57332,-0.26648 3.39476,1.9249 4.48127,2.36182c1.52388,0.61279 3.40275,-0.05796 4.92533,0.70774c2.48319,1.24877 2.07515,4.05073 1.7807,6.28359c-0.09833,0.74567 0.04344,1.72669 0.05644,2.61005c0.03587,0.064 0.06332,0.12894 0.08436,0.19082c0.04436,0.11544 0.06867,0.24081 0.06867,0.37186c0,0.40106 0,0.8021 0,1.20314v1.40368c0,0.03457 -0.00169,0.06876 -0.00501,0.10249c0.00144,0.01198 0.00194,0.01851 0.00194,0.01851l0.10255,1.34316c-0.01948,2.32684 1.43264,2.66555 2.05017,4.61618c0.80308,2.53671 -0.38032,4.49427 -1.34046,6.58131c-1.63237,3.54824 -0.17209,6.57504 -4.50941,8.5738c-1.47387,1.1935 -3.04938,3.18994 -4.68186,4.05c-2.09967,1.1062 -4.92219,0.78336 -7.52858,0.63009c-0.38037,0.17167 -0.7944,0.03366 -0.7944,0.03366zM220.49212,177.26289l0.93071,-0.10827c0.53695,0.02446 1.10332,-0.14349 1.55106,-0.44087c0.61173,-0.4063 2.57379,-1.32523 2.9286,-1.9793c0.82561,-1.52193 -2.29359,-4.06954 -2.58775,-5.35814c-0.29646,-1.29867 0.18237,-2.89289 0.17936,-4.21902c0,-5.62411 -1.81414,-10.6494 -1.50252,-16.09643c0.08046,-1.4065 1.62965,-5.37678 0.21188,-6.10451c-0.16556,0.11196 -0.3652,0.17732 -0.5801,0.17732c-0.23282,0 -0.44772,-0.07674 -0.62081,-0.20632c-0.11931,0.00691 -0.32436,0.00226 -0.52732,-0.07984c-0.68333,0.15655 -1.24913,0.23522 -1.45841,0.14139c-0.87114,-0.3906 -0.70712,-2.11515 -1.63146,-2.35402c-2.03477,-0.52581 -3.09664,1.82298 -5.33704,1.3847c-0.20989,0.19498 -0.45412,0.26824 -0.45412,0.26824c-1.25506,0.07088 -1.06939,3.1618 -1.66291,4.25478c-0.96513,1.77723 -2.01947,1.48334 -3.24829,2.01426c-0.5601,0.24199 0.28653,1.25952 0.06798,1.82919c-1.08892,2.83853 -1.10004,6.14134 -2.26225,9.17723c-0.23518,3.72236 0.44458,5.58114 2.43211,8.39269c0.69614,0.98473 1.66808,6.5284 2.9112,6.74956c0.39524,0.07031 0.77223,-0.46052 1.15528,-0.3403c1.66214,0.52165 2.34361,1.70006 3.57121,2.72201c0.49624,0.41311 0.92481,1.67545 1.44381,1.29134c0.71843,-0.53167 1.36973,-1.22824 2.22004,-1.5036c0.4444,0.3838 0.97634,0.61918 1.54486,0.7891c0.26662,-0.34394 0.72489,-0.40122 0.72489,-0.40122z" fill="#000000" stroke="none" stroke-width="0.5" stroke-linecap="butt"/><path d="M224.16167,141.6394c0.10175,-0.07206 0.18075,-0.16161 0.24119,-0.25221c0.13546,-0.16157 0.24624,-0.38811 0.21617,-0.68081l0.04304,-0.35127c1.12964,-3.82853 2.71731,-6.16724 4.51167,-9.6897c1.94503,-2.48476 2.63153,-1.71922 5.42518,-1.62885c1.89079,0.06116 3.29893,-0.90018 5.28681,-0.4398c3.1646,0.73293 4.72357,4.65766 6.94403,7.10538l-0.34263,0.3793l1.00309,0.8993c0.18407,0.16705 0.43115,0.26865 0.6993,0.26865c0.57267,0 1.04106,-0.46432 1.04106,-1.03699l-0.00112,-1.0649h-0.11935l0.07154,-0.31174c-0.41078,-0.62767 -2.27339,-2.44387 -0.14882,-2.30072c2.20129,0.14832 2.25317,4.36817 3.83396,4.78452c1.53108,0.40325 3.4741,-2.62602 5.59541,-1.48947c1.72544,0.92445 1.10889,4.66798 1.57375,6.2006c0.3906,-0.07689 3.78509,-1.18747 4.41788,-0.56343c1.26666,1.24914 1.3514,1.94961 3.44204,2.22816c1.28527,0.17125 3.59809,-0.32437 4.02134,1.43906c0.6178,2.57403 -0.16441,4.56548 -0.02755,6.73177c0,0.31706 0.00033,0.97793 0.00033,1.29501l-0.18641,0.03113l0.19276,1.15958c-0.00797,0.09474 -0.0032,0.15716 -0.0032,0.15716l0.09784,1.26751c0.01717,2.4514 1.61076,3.28201 2.1587,5.22304c0.60035,2.12663 -0.51552,3.3574 -1.27119,5.06202c-1.40363,3.16632 -0.0477,5.98678 -3.72448,7.68632c-1.42945,1.13158 -3.00968,3.16936 -4.55381,3.98061c-2.80005,1.47107 -7.63855,0.07613 -10.84932,0.61082c-2.4623,0.41005 -5.8366,2.00006 -8.13066,1.89245c-1.66833,-0.01012 -2.48835,-1.5973 -4.55893,-1.50254c-5.81185,0.26597 -11.65233,1.07884 -17.20965,-0.05685c2.09089,-0.89915 4.07079,-2.70143 3.96846,-4.72429c-0.11775,-2.32799 -2.10115,-2.92069 -2.53277,-4.95268c-0.23859,-1.1232 0.21542,-2.65965 0.21775,-3.8094c0,-2.79895 0.12217,-5.623 -0.31821,-8.39719c-0.24767,-1.56014 -1.1081,-2.27033 -1.19394,-3.83178c-0.17657,-3.21169 1.14903,-6.76564 0.79941,-9.83684c-0.07312,-0.64236 -0.30081,-1.12653 -0.63062,-1.48096z" fill="#c7c7c7" stroke="none" stroke-width="0.5" stroke-linecap="butt"/><path d="M219.78395,177.73119c-0.56852,-0.16993 -1.10548,-0.40424 -1.54988,-0.78805c-0.85029,0.27537 -1.51051,0.97287 -2.22893,1.50454c-0.51901,0.38411 -0.95301,-0.87823 -1.44926,-1.29134c-1.2276,-1.02193 -1.92541,-2.20296 -3.58755,-2.72462c-0.38304,-0.12021 -0.76418,0.40928 -1.15944,0.33896c-1.24313,-0.22117 -2.24038,-5.78071 -2.9365,-6.76543c-1.98754,-2.81157 -2.68793,-4.71922 -2.45274,-8.44156c1.16221,-3.0359 1.19534,-6.38966 2.28426,-9.2282c0.21854,-0.56966 -0.62355,-1.59106 -0.06345,-1.83305c1.22883,-0.53092 2.29956,-0.24654 3.26468,-2.02376c0.59353,-1.09296 0.41973,-4.18756 1.6748,-4.25844c0,0 0.24612,-0.07364 0.45602,-0.26861c2.24042,0.4383 3.3225,-1.91121 5.35726,-1.38538c0.92434,0.23888 0.76794,1.96471 1.63906,2.35531c0.20928,0.09384 0.78039,0.01663 1.46372,-0.13994c0.20295,0.08211 0.40999,0.0874 0.52929,0.08048c0.17307,0.12955 0.39038,0.2072 0.62321,0.2072c0.2149,0 0.41621,-0.06467 0.58179,-0.17663c1.41777,0.72773 -0.12068,4.70365 -0.20114,6.11017c-0.31161,5.44705 1.52202,10.56946 1.52202,16.19357c0.00302,1.32612 -0.48906,2.93478 -0.19261,4.23347c0.29414,1.28857 3.40924,3.83931 2.58363,5.36127c-0.35481,0.65406 -2.32818,1.57943 -2.9399,1.98573c-0.44772,0.29737 -1.01959,0.46753 -1.55654,0.44305l-0.93397,0.10931c0,0 -0.46114,0.05806 -0.72777,0.40201z" fill="#c7c7c7" stroke="none" stroke-width="0.5" stroke-linecap="butt"/><path d="M259.32229,178.89335l-3.70974,-1.90499l-2.20579,-5.01314l-0.50131,-5.01317l0.50131,-5.11341l2.60685,-14.63842l5.11341,-6.01579" fill="none" stroke="#000000" stroke-width="1.5" stroke-linecap="round"/><path d="M252.70492,138.68786l3.20842,6.11604" fill="none" stroke="#000000" stroke-width="1.5" stroke-linecap="round"/><path d="M249.29599,137.28415l2.40631,1.1029" fill="none" stroke="#000000" stroke-width="1.5" stroke-linecap="round"/><path d="M255.41202,149.11521v-3.91027" fill="none" stroke="#000000" stroke-width="1.5" stroke-linecap="round"/><path d="M208.8557,156.83547c0,-0.57267 0.46422,-1.03689 1.03689,-1.03689c0.57267,0 1.03689,0.46422 1.03689,1.03689c0,0.57267 -0.46422,1.03689 -1.03689,1.03689c-0.57267,0 -1.03689,-0.46422 -1.03689,-1.03689z" fill="#c7c7c7" stroke="none" stroke-width="0.5" stroke-linecap="butt"/><path d="M225.63104,172.88706c0.99316,0.29795 0.69521,1.29109 0.69521,1.29109l-0.30974,1.03097c-1.36317,3.37009 -4.6685,2.69021 -7.74493,2.51443c-1.40887,-0.08048 -1.98166,0.63358 -3.49323,0.14822c-1.72163,-0.55281 -2.25678,-2.19581 -3.63104,-3.11257c-1.01422,-0.67659 -2.63274,-0.41315 -3.39269,-1.36652c-1.14485,-1.43621 -1.03127,-3.56535 -1.24085,-5.2688c-0.70448,-1.26162 -1.62823,-0.59266 -2.4696,-2.21863c-0.73628,-1.42288 -0.90021,-4.64119 -0.69378,-6.19954c0.56728,-4.28235 3.55231,-6.20309 2.71466,-10.70582c0,0 -0.18547,-1.02016 0.83467,-1.20565c1.02016,-0.18547 1.20565,0.83467 1.20565,0.83467c1.06279,5.96216 -4.55104,10.32882 -2.19018,16.38197c0.26851,0.68843 2.0167,1.60469 2.54356,2.39347c0.23784,1.51782 0.12183,3.39491 0.96494,4.75752c0.50288,0.8127 1.98387,0.34964 2.82362,0.83929c1.21813,0.71029 1.80672,2.40806 3.18684,2.90323c0.90833,0.32586 1.91122,-0.28564 2.92362,-0.25283c1.73327,0.05616 5.08125,1.01269 5.69032,-1.09503l0.29184,-0.9743c0,0 0.29795,-0.99316 1.29109,-0.69521z" fill="#939393" stroke="none" stroke-width="0.5" stroke-linecap="butt"/><path d="M256.4489,178.09126c0,1.03689 -1.03689,1.03689 -1.03689,1.03689l-0.13034,-0.0141c-1.79861,0.29872 -3.95637,0.18372 -5.56095,1.026c-3.32258,1.33162 -5.06317,0.09274 -8.2956,-0.32105c-5.08075,-0.65039 -10.38432,0.78639 -15.49046,0.05422v0.15731h-1.20317c-0.57267,0 -1.03689,-0.46422 -1.03689,-1.03689c0,-0.26331 0.09816,-0.50371 0.25986,-0.68657l0.69853,-0.79832l0.05479,0.04793l0.09162,-0.18568c0.99314,-0.50764 1.58946,-0.98921 2.34918,-1.78779c-0.43514,-2.42139 -1.96697,-4.00255 -2.43392,-6.22609c-0.65033,-3.09682 1.21442,-6.47095 0.50797,-9.69262c-0.75815,-3.45746 -2.23138,-5.53636 -2.2288,-9.29286c0.52651,-5.79329 1.4898,-10.82911 3.79129,-16.20018c1.14233,-2.66589 1.61564,-4.45214 4.46573,-5.66495c0,0 0.95713,-0.3988 1.35593,0.55833c0.3988,0.95713 -0.55831,1.35593 -0.55831,1.35593c-2.26477,0.91852 -2.43901,2.42538 -3.35481,4.56188c-2.20458,5.14315 -3.12339,9.93227 -3.62818,15.48297c0.00262,3.58401 1.46088,5.41194 2.18277,8.75449c0.70516,3.26502 -1.0625,6.65333 -0.49467,9.75843c0.45918,2.51086 2.25448,4.26063 2.37871,7.20918c-0.47452,0.64406 -0.87954,1.17302 -1.34444,1.6285c1.6326,-0.09646 3.73005,0.14052 4.56365,0.14052c3.01228,0 6.40932,-0.58188 9.37477,-0.18954c2.80643,0.37131 4.31772,1.60949 7.14492,0.48105c1.8634,-0.89739 4.03254,-0.839 6.06957,-1.17978l0.47124,-0.0141c0,0 1.03689,0 1.03689,1.03689z" fill="#939393" stroke="none" stroke-width="0.5" stroke-linecap="butt"/><path d="M228.1335,160.29176c-0.84944,0.5946 -1.44407,-0.25484 -1.44407,-0.25484l-0.70854,-1.01232c-1.12674,-1.6899 -1.57821,-2.72376 -1.58441,-4.79598c0.00375,-6.06049 0.9392,-11.93809 3.07363,-17.60856c0.41227,-1.09524 1.33548,-3.2963 2.41367,-4.59724c0.0929,-0.42388 0.19646,-0.84752 0.31635,-1.27419l0.13109,-0.10054l-0.05763,-0.03666l0.69247,-1.08816c0.1824,-0.2969 0.51016,-0.49493 0.88416,-0.49493c0.57267,0 1.03689,0.46422 1.03689,1.03689c0,0.13088 -0.02425,0.25611 -0.0685,0.37141l-0.49323,1.38101l-0.26359,-0.09414c-0.26072,1.03558 -0.41791,2.07679 -0.59375,3.1318c-0.77811,4.28025 -3.30895,8.80107 -2.31841,13.21958c0.55336,2.46844 3.14879,4.90712 4.48984,7.02027c1.16595,1.83727 1.7523,4.2682 2.49655,6.3063c2.39328,6.93002 10.13149,14.16214 17.35598,15.46909c0,0 1.02016,0.18547 0.83467,1.20565c-0.18547,1.02016 -1.20565,0.83467 -1.20565,0.83467c-7.9546,-1.45417 -16.28761,-9.18369 -18.93928,-16.81563c-0.68436,-1.89092 -1.22361,-4.23028 -2.31609,-5.92579c-1.50981,-2.34325 -4.0862,-4.86791 -4.73435,-7.61814c-0.12671,-0.5376 -0.20642,-1.07384 -0.24694,-1.6088c-0.30631,2.45205 -0.41566,4.93693 -0.41412,7.2861c-0.00589,1.70366 0.29679,2.2367 1.22294,3.62612l0.69514,0.99294c0,0 0.5946,0.84944 -0.25484,1.44407z" fill="#939393" stroke="none" stroke-width="0.5" stroke-linecap="butt"/><path d="M231.91751,176.74391c0.00229,0.00773 0.00455,0.01547 0.00684,0.02318c0.03974,-0.00361 0.07948,-0.00713 0.11924,-0.01062c-0.04343,-0.00403 -0.08551,-0.00821 -0.1261,-0.01258zM232.81858,179.42431c0.04425,0.11532 0.0685,0.24053 0.0685,0.37141c0,0.57267 -0.46422,1.03689 -1.03689,1.03689c-0.20926,0 -0.40402,-0.06198 -0.56695,-0.1686l-1.74007,-1.09899l0.19592,-0.31022c-0.04808,-0.03049 -0.09602,-0.06141 -0.1437,-0.09269c-0.76705,0.14011 -1.52534,0.314 -2.27295,0.52772c0,0 -0.997,0.28486 -1.28186,-0.71213c-0.28486,-0.99699 0.71213,-1.28186 0.71213,-1.28186c0.20289,-0.05793 0.40645,-0.11307 0.61069,-0.16553l-0.04519,-0.2712l0.00733,-0.00122l-0.00997,-0.01547c-0.07903,-0.59896 -0.13515,-1.20156 -0.16971,-1.80534c-0.32176,-0.99746 -0.38309,-2.16242 -0.53307,-3.21422c-0.37119,-2.60304 -0.3483,-4.99547 -0.2467,-7.39942c-0.66383,-5.30011 -1.44577,-10.74528 -0.81686,-15.71084l-0.26694,0.01067l-0.08263,-2.06565c-0.00072,-0.01587 -0.00109,-0.03185 -0.00109,-0.0479c0,-0.57267 0.46422,-1.03689 1.03689,-1.03689c0.5446,0 0.99114,0.41985 1.03358,0.95355l0.08498,0.93474l0.16581,0.37352c2.3068,2.02015 4.49207,4.34361 5.40953,7.35663c1.42343,3.55295 1.47216,7.79676 3.86182,10.95012c1.11592,1.47256 2.94248,2.25625 4.16416,3.65155c1.90385,2.17445 3.42585,4.08767 5.41482,5.86592l0.93287,0.21527c0.27733,0.05786 0.51398,0.22652 0.66159,0.45756c0.67383,0.09128 1.3354,0.22168 1.9916,0.39888l0.0416,-0.00692v-0.16951h1.10289c0.57267,0 1.03689,0.46422 1.03689,1.03689c0,0.52045 -0.38344,0.95135 -0.88324,1.0256l-1.18636,0.19771l-0.00627,-0.03767l-0.07867,0.04825c-5.62642,0.01258 -11.67596,-0.90792 -17.39566,-0.44784zM231.34759,160.73093c-0.01642,-0.07846 -0.03375,-0.15642 -0.05198,-0.23385l-0.05905,0.03759c0.03808,0.06506 0.07507,0.13047 0.11104,0.19626z" fill="#939393" stroke="none" stroke-width="0.5" stroke-linecap="butt"/><path d="M208.45463,174.28125c0,-1.03689 1.03689,-1.03689 1.03689,-1.03689h1.1029c0.16373,0.00068 0.3493,-0.01827 0.54987,-0.04938c-0.89329,-0.41268 -2.31647,-0.68706 -2.86264,-1.47333c-0.61293,-0.88244 -0.8938,-2.14144 -1.02207,-3.3952c-0.06935,-0.13911 -0.10837,-0.29601 -0.10837,-0.46202c0,-0.10772 0.01644,-0.21163 0.04693,-0.3093c-0.00993,-0.16803 -0.01772,-0.33451 -0.02383,-0.49848c-0.20599,-0.28119 -0.39209,-0.60074 -0.55708,-0.94779l-0.47065,1.12959c-0.15073,0.38645 -0.52657,0.66026 -0.96637,0.66026c-0.57267,0 -1.03689,-0.46422 -1.03689,-1.03689v-1.10289c0,-1.78771 -0.96676,-8.34622 1.80838,-8.7567c0.24132,-0.0357 0.4659,0.00993 0.67485,0.12206c-0.19125,-1.78804 -0.14807,-3.57932 0.02689,-5.58799c0.10582,-1.21486 -0.24338,-2.94638 0.70121,-3.95634c0.41115,-0.4396 2.24942,-0.45812 2.48437,-1.2727c0.58732,-2.03622 0.00725,-3.24615 1.98498,-4.67213c0,0 0.86274,-0.57517 1.43791,0.28758c0.57515,0.86274 -0.28758,1.43791 -0.28758,1.43791c-1.50266,0.86083 -0.62316,2.34587 -1.22344,3.74999c-0.69771,1.63195 -1.93407,1.14044 -2.92984,1.93572c-0.29113,0.23251 -0.0724,2.33291 -0.10088,2.66101c-0.28962,3.33598 -0.22856,5.96547 0.83682,9.1676c0.7522,1.71934 0.96138,4.35632 1.8292,6.37942c0.6159,0.26551 1.16068,0.57035 1.44942,1.00139c0.24814,0.37044 0.44134,0.89249 0.59777,1.46554c1.62033,1.06356 3.77496,2.057 5.58787,2.44075c1.10818,0.23457 4.26643,-0.01131 5.09165,0.76153c3.03423,2.84167 -1.34207,3.84805 -3.28265,3.89681c-0.67624,0.13108 -1.44283,0.13184 -2.12285,0.01666c-0.4971,0.01154 -0.99443,0.03203 -1.49501,0.06837l-1.00825,0.27498c-0.09372,0.02784 -0.19299,0.04279 -0.29573,0.04279c-0.44865,0 -0.83074,-0.28493 -0.9752,-0.68372c-0.45485,0.14287 -1.0212,0.08424 -1.68918,-0.28186c-0.41983,-0.23009 -0.70897,-0.59517 -0.91399,-1.04324c-0.57835,0.06574 -1.15831,0.10179 -1.73559,0.10381h-1.1029c0,0 -1.03689,0 -1.03689,-1.03689zM222.56411,174.73831c0.26569,-0.0144 0.21524,-0.03936 -0.02757,-0.07317c0.00976,0.0246 0.01894,0.04899 0.02757,0.07317z" fill="#939393" stroke="none" stroke-width="0.5" stroke-linecap="butt"/><path d="M261.03921,179.10428c-0.80968,0.64774 -1.45741,-0.16194 -1.45741,-0.16194l-0.34478,-0.43377c-1.57528,-1.75107 -4.7264,-3.11193 -5.65941,-5.29501c-1.35068,-3.16034 0.75204,-7.58876 0.98336,-10.82808c0.68964,-8.19792 1.31081,-14.8431 7.08078,-21.15055c0,0 0.70065,-0.76434 1.465,-0.06369c0.76434,0.70066 0.0637,1.465 0.0637,1.465c-5.45685,5.93976 -5.90293,12.17321 -6.54187,19.90925c-0.19545,2.73538 -2.26392,7.25577 -1.12719,9.89368c0.75003,1.7405 3.97551,3.23661 5.27707,4.68215l0.42271,0.52558c0,0 0.64774,0.80968 -0.16194,1.45741z" fill="#939393" stroke="none" stroke-width="0.5" stroke-linecap="butt"/><path d="M258.16533,144.16913c-0.60269,0.84375 -1.44643,0.24108 -1.44643,0.24108l-1.04332,-0.96906c-1.24073,-3.41978 -1.10311,-4.52263 -4.67774,-5.91149c0,0 -0.18499,-0.07193 -0.3616,-0.2338c-0.337,-0.10399 -0.55194,-0.37265 -0.55194,-0.37265l-0.26295,-0.35243c-1.00951,-0.92267 -1.42537,-1.77357 -2.11893,-2.92766c0,0 -0.53349,-0.88911 0.35564,-1.42259c0.88911,-0.53348 1.42261,0.35565 1.42261,0.35565c0.57793,0.96465 0.8648,1.71517 1.71842,2.44465l0.45445,0.54665c0.06026,0.01555 0.09591,0.02943 0.09591,0.02943c4.11666,1.60235 4.48641,3.32489 5.87502,7.13556l0.29975,-0.00973c0,0 0.84375,0.60269 0.24108,1.44643z" fill="#939393" stroke="none" stroke-width="0.5" stroke-linecap="butt"/></g></g></svg>