<svg version="1.1" xmlns="http://www.w3.org/2000/svg" xmlns:xlink="http://www.w3.org/1999/xlink" width="635.13514" height="472.97297" viewBox="0,0,635.13514,472.97297"><defs><linearGradient x1="240.03029" y1="24.69234" x2="240.03029" y2="333.47065" gradientUnits="userSpaceOnUse" id="color-1"><stop offset="0" stop-color="#ffd275"/><stop offset="1" stop-color="#ff5656"/></linearGradient></defs><g transform="translate(77.56757,56.48648)"><g stroke-miterlimit="10"><path d="M-77.56757,416.4865v-472.97297h635.13514v472.97297z" fill-opacity="0.34902" fill="#11ff00" stroke="none" stroke-width="NaN" stroke-linecap="butt"/><path d="M364.21569,337.98672h-248.43138c-5.79036,0 -10.48471,-23.53126 -10.48471,-52.55651v-210.86038c0,-29.02524 4.69435,-52.55651 10.48471,-52.55651h248.43138c5.79036,0 10.48471,23.53126 10.48471,52.55651v210.86038c0,29.02524 -4.69435,52.55651 -10.48471,52.55651z" fill="#800000" stroke="none" stroke-width="1" stroke-linecap="butt"/><path d="M361.41745,333.47065h-242.7743c-5.65851,0 -10.24595,-22.99543 -10.24595,-51.35973v-206.05884c0,-28.3643 4.58745,-51.35973 10.24595,-51.35973h242.7743c5.65851,0 10.24595,22.99543 10.24595,51.35973v206.05884c0,28.3643 -4.58745,51.35973 -10.24595,51.35973z" fill="url(#color-1)" stroke="none" stroke-width="1" stroke-linecap="butt"/><path d="M358.68866,330.95702h-237.37731c-5.53272,0 -10.01819,-22.48423 -10.01819,-50.21799v-201.47805c0,-27.73375 4.48547,-50.21799 10.01819,-50.21799h237.37731c5.53271,0 10.01818,22.48423 10.01818,50.21799v201.47805c0,27.73375 -4.48547,50.21799 -10.01818,50.21799z" fill="#800000" stroke="none" stroke-width="1" stroke-linecap="butt"/><path d="M355.14518,325.49313h-230.22977c-5.36613,0 -9.71654,-21.80722 -9.71654,-48.70591v-195.41145c0,-26.89867 4.35041,-48.70591 9.71654,-48.70591h230.22977c5.36612,0 9.71653,21.80722 9.71653,48.70591v195.41145c0,26.89867 -4.35041,48.70591 -9.71653,48.70591z" fill="#fc5d5d" stroke="none" stroke-width="1" stroke-linecap="butt"/><path d="M355.35013,35.87001h-232.7709" fill="none" stroke="#ffffff" stroke-width="6" stroke-linecap="round"/><path d="M356.03225,323.00082h-232.7709" fill="none" stroke="#fc1e1e" stroke-width="6" stroke-linecap="round"/></g></g></svg>