<svg version="1.1" xmlns="http://www.w3.org/2000/svg" xmlns:xlink="http://www.w3.org/1999/xlink" width="770.89367" height="770.89367" viewBox="0,0,770.89367,770.89367"><g transform="translate(148.44983,212.95432)"><g data-paper-data="{&quot;isPaintingLayer&quot;:true}" fill-rule="nonzero" stroke="none" stroke-miterlimit="10" stroke-dasharray="" stroke-dashoffset="0" style="mix-blend-mode: normal"><g fill="#a858c4" stroke-width="1" stroke-linecap="butt" stroke-linejoin="miter"><path d="M236.99692,557.93918c-212.87603,0 -385.44675,-172.57039 -385.44675,-385.44675c0,-212.87603 172.57039,-385.44675 385.44692,-385.44675c212.87636,0 385.44675,172.57039 385.44675,385.44692c0,212.87603 -172.57039,385.44675 -385.44675,385.44675z"/><path d="M543.23198,142.37419c-100.36105,-100.36105 -200.71064,-200.71064 -301.0717,-301.0717c178.86656,2.74709 323.29081,147.16004 326.02693,326.02693z"/><path d="M391.29507,465.4223c-149.76334,-148.51688 -298.61153,-297.96054 -446.79727,-448.04406c45.85026,-86.25056 128.4602,-149.9841 227.14407,-169.73192l390.21281,390.21281c-19.82495,98.99291 -83.90061,181.81247 -170.55945,227.56333z"/><path d="M-45.97041,104.90851c127.04816,128.37192 254.86835,255.97151 383.06356,383.18491c-31.61858,10.02851 -65.15671,15.72102 -100.09607,15.72102c-182.98196,0 -331.32213,-148.34034 -331.32213,-331.32213c0,-35.10493 5.7477,-68.80848 15.86464,-100.55954c10.84474,10.97723 21.63445,22.00932 32.49017,32.97575z"/></g><path d="M239.53637,397.20621c0,-6.97529 1.95655,-16.99534 12.78009,-19.25708c15.61532,-3.27582 33.48158,12.53634 38.34088,17.18853c-0.35932,1.85125 5.71692,39.20519 5.71692,42.44368c0,10.94929 -2.92616,11.38319 -4.0619,11.56316c-10.6917,1.55633 -39.18527,-28.40568 -52.26386,-45.83804c-0.17989,-0.94612 -0.51214,-3.05192 -0.51214,-6.10026z" fill="#ffc93e" stroke-width="0" stroke-linecap="butt" stroke-linejoin="miter"/><path d="M196.24115,449.54776c-7.75117,-8.40951 -8.85672,-31.19947 -8.85672,-40.89389c0,-4.11352 0.21007,-6.84953 0.22026,-6.93438l0.01384,-0.2106c0,0 -0.02403,-0.87815 -0.02403,-1.20013c0,-18.25683 16.80876,-24.59422 19.6573,-25.54695c9.73175,0.11861 26.55389,4.72328 30.56873,11.6715c0.40684,0.69818 0.78661,1.5799 0.78661,2.70894c0,0.99059 -0.29492,2.19065 -1.13573,3.63871c-0.38996,0.66443 -7.30085,16.99534 -13.14663,29.51784l-4.17739,11.58004c-3.12658,10.11821 -8.04662,20.24357 -13.4011,20.24357c-4.2316,0.00661 -7.66685,-1.49193 -10.50513,-4.57457z" fill="#ffc93e" stroke-width="0" stroke-linecap="butt" stroke-linejoin="miter"/><path d="M415.46587,317.19448l-7.55798,-13.33625c-8.27715,-14.41466 -17.83973,-27.61238 -26.27274,-39.22967c-10.84095,-14.96367 -20.27421,-30.44655 -23.39713,-41.38565c-1.126,-3.94025 -0.58323,-7.70061 1.03758,-9.77934c0.15586,-0.55966 1.79043,-1.45111 2.94304,-1.68878c13.88929,-3.00082 71.38187,30.00595 85.72552,47.64892c21.01329,25.83883 29.41566,62.08403 24.72963,80.34032c-1.92287,7.45982 -6.22244,12.74641 -12.44792,15.26262c-15.91382,6.42894 -26.38108,-5.17459 -44.76009,-37.83232z" fill="#ffc93e" stroke-width="0" stroke-linecap="butt" stroke-linejoin="miter"/><path d="M189.15091,62.47741c20.41015,-11.09185 -0.65424,-52.85423 -21.03374,-93.25286c-11.13891,-22.08866 -31.00271,-59.39508 -24.5467,-62.89116c12.48874,-6.76826 72.15168,63.64044 96.33899,92.01851l24.65505,28.08361c0,0 17.62608,21.62358 31.11462,35.88595c0.23767,0.2474 12.99069,-1.73272 21.80043,-9.05402c7.18178,-5.99138 6.23209,-12.69524 8.51786,-26.7946c2.09865,-12.95336 4.3778,-36.39452 11.32906,-36.51312c10.47084,-0.15943 17.35466,42.99977 20.03654,58.98771l1.48175,8.55215c3.51653,19.01583 21.86125,76.19 22.64786,78.61429c0.25097,0.58984 0.66496,1.35653 0.66496,1.35653l0.15229,0.30868l0.21007,0.25759c28.32797,35.13303 49.3954,77.73257 49.3954,117.64363c0,84.51467 -74.0842,144.0079 -173.2477,144.0079c-18.39224,0 -36.38068,-2.57711 -53.46756,-7.64336l-0.91897,-0.26428c0,0 -26.82167,-2.25505 -61.13441,42.8474c-6.88329,9.05349 -6.26996,17.49372 -15.97107,14.89616c-3.23492,-0.86484 -5.61215,-3.24207 -7.55136,-7.55851c-4.63896,-10.29452 -1.21443,-34.68529 4.45543,-50.26997l0.89191,-2.44831l-2.04809,-1.62081c-0.50195,-0.40022 -56.15347,-40.95167 -61.77535,-99.06177c-4.90013,-50.65278 20.68773,-79.49236 31.30477,-95.34178l6.10026,-10.15911c7.70061,-18.73468 -6.79228,-44.79019 -19.58264,-67.78049c-7.63621,-13.72621 -19.96241,-33.75613 -17.17834,-38.46306c3.08925,-5.21497 14.13,0.33582 25.2791,5.65305c9.04026,4.32002 17.738,10.42332 23.7769,6.39822c6.28014,-4.18096 2.16001,-14.68251 -3.54672,-29.21935c-5.36779,-13.65155 -15.53047,-35.21742 -11.62755,-44.11862c1.07491,-2.44831 2.96045,-4.16773 5.76443,-5.25587c10.36964,-4.01483 25.19425,13.45174 37.19496,27.11355c14.63857,16.67997 31.24038,35.58077 50.51737,25.08591z" fill="#ffc93e" stroke-width="0" stroke-linecap="round" stroke-linejoin="round"/><g stroke-width="0.66342" stroke-linecap="butt" stroke-linejoin="miter"><path d="M206.26478,261.86852v0c0,-15.2519 12.36307,-27.62211 27.61907,-27.62873c15.24886,0 27.61185,12.37683 27.61185,27.62873c0,15.24217 -12.35995,27.60219 -27.61185,27.60219c-15.25243,0 -27.61907,-12.35995 -27.61907,-27.60219z" fill="#ffffff"/><path d="M237.60019,241.68578c5.36064,0 10.21994,2.17742 13.7364,5.697c3.51958,3.51653 5.69646,8.37522 5.69646,13.7364c0,5.36117 -2.17689,10.22039 -5.69646,13.7364c-3.51653,3.52011 -8.37576,5.697 -13.7364,5.697c-5.36117,0 -10.22039,-2.17689 -13.7364,-5.697c-3.52011,-3.516 -5.697,-8.37522 -5.697,-13.7364c0,-5.36117 2.17689,-10.21994 5.697,-13.7364c3.516,-3.51958 8.37522,-5.697 13.7364,-5.697z" fill="#603813"/></g><g stroke-width="0.66342" stroke-linecap="butt" stroke-linejoin="miter"><path d="M339.29632,261.86852v0c0,-15.2519 12.36307,-27.62211 27.62211,-27.62873c15.24886,0 27.61238,12.37683 27.61238,27.62873c0,15.24217 -12.37021,27.60219 -27.61238,27.60219c-15.25905,0 -27.62211,-12.35995 -27.62211,-27.60219z" fill="#ffffff"/><path d="M351.19523,261.11925v0c0,-10.72896 8.69417,-19.43339 19.42982,-19.43339c10.7285,0 19.43286,8.70801 19.43286,19.43339c0,10.73922 -8.70443,19.42624 -19.43286,19.42624c-10.73565,0 -19.42982,-8.69417 -19.42982,-19.42624z" fill="#603813"/></g><path d="M15.58837,368.47497c-5.65966,-3.61469 -8.92165,-9.5825 -9.44709,-17.28007c-1.27829,-18.82264 13.61786,-52.91148 38.99155,-74.47059c17.32759,-14.72342 79.88954,-36.65568 92.99215,-31.17286c1.08153,0.45435 2.53263,1.62126 2.57711,2.2111c1.22416,2.33275 1.06107,6.12071 -0.76669,9.78953c-5.06572,10.18618 -17.1712,23.69205 -30.5723,36.40471c-10.4167,9.91475 -22.22057,21.11145 -32.98633,33.7832l-9.87438,11.69857c-24.03145,28.76188 -36.45892,38.27649 -50.91394,29.03642z" fill="#ffc93e" stroke-width="0" stroke-linecap="butt" stroke-linejoin="miter"/><path d="M300.77761,351.08275c-27.33677,1.83833 -30.38983,-33.71142 -30.38983,-33.71142c0,0 15.62384,-0.49442 35.7862,-1.74587c20.15826,-1.24256 24.99125,0 24.99125,0c0,0 -3.05731,33.61061 -30.38762,35.4573z" fill="#603813" stroke-width="0" stroke-linecap="round" stroke-linejoin="miter"/></g></g></svg>