<svg version="1.1" xmlns="http://www.w3.org/2000/svg" xmlns:xlink="http://www.w3.org/1999/xlink" width="770.89367" height="770.89367" viewBox="0,0,770.89367,770.89367"><defs><linearGradient x1="236.99701" y1="-212.95431" x2="236.99701" y2="557.93936" gradientUnits="userSpaceOnUse" id="color-1"><stop offset="0" stop-color="#88a4e1"/><stop offset="1" stop-color="#bed2ed"/></linearGradient><linearGradient x1="405.17375" y1="-158.69753" x2="405.17375" y2="167.3294" gradientUnits="userSpaceOnUse" id="color-2"><stop offset="0" stop-color="#88a4e1"/><stop offset="1" stop-color="#bed2ed"/></linearGradient><linearGradient x1="253.17624" y1="-152.35371" x2="253.17624" y2="465.42243" gradientUnits="userSpaceOnUse" id="color-3"><stop offset="0" stop-color="#88a4e1"/><stop offset="1" stop-color="#bed2ed"/></linearGradient><linearGradient x1="121.38405" y1="71.93273" x2="121.38405" y2="503.81441" gradientUnits="userSpaceOnUse" id="color-4"><stop offset="0" stop-color="#88a4e1"/><stop offset="1" stop-color="#bed2ed"/></linearGradient><linearGradient x1="283.98215" y1="267.77619" x2="283.98215" y2="335.84254" gradientUnits="userSpaceOnUse" id="color-5"><stop offset="0" stop-color="#aec4ea"/><stop offset="1" stop-color="#b3c9eb"/></linearGradient><linearGradient x1="283.98215" y1="267.77619" x2="283.98215" y2="335.84254" gradientUnits="userSpaceOnUse" id="color-6"><stop offset="0" stop-color="#f2f3f4"/><stop offset="1" stop-color="#f5f5ff"/></linearGradient><linearGradient x1="243.0841" y1="39.20153" x2="243.0841" y2="370.97726" gradientUnits="userSpaceOnUse" id="color-7"><stop offset="0" stop-color="#e0e2e7"/><stop offset="1" stop-color="#ffffff"/></linearGradient></defs><g transform="translate(148.44983,212.95432)"><g data-paper-data="{&quot;isPaintingLayer&quot;:true}" stroke-miterlimit="10" stroke-dasharray="" stroke-dashoffset="0" style="mix-blend-mode: normal"><g fill-rule="nonzero" stroke="none" stroke-width="1" stroke-linecap="butt" stroke-linejoin="miter"><path d="M236.99692,557.93918c-212.87603,0 -385.44675,-172.57039 -385.44675,-385.44675c0,-212.87603 172.57039,-385.44675 385.44692,-385.44675c212.87636,0 385.44675,172.57039 385.44675,385.44692c0,212.87603 -172.57039,385.44675 -385.44675,385.44675z" fill="url(#color-1)"/><path d="M543.23198,142.37417c-100.36105,-100.36105 -200.71064,-200.71064 -301.0717,-301.0717c178.86656,2.74709 323.29081,147.16004 326.02693,326.02693z" fill="url(#color-2)"/><path d="M391.29507,465.42227c-149.76334,-148.51688 -298.61153,-297.96054 -446.79727,-448.04406c45.85026,-86.25056 128.4602,-149.9841 227.14407,-169.73192l390.21281,390.21281c-19.82495,98.99291 -83.90061,181.81247 -170.55945,227.56333z" fill="url(#color-3)"/><path d="M-45.97041,104.90848c127.04816,128.37192 254.86835,255.97151 383.06356,383.18491c-31.61858,10.02851 -65.15671,15.72102 -100.09607,15.72102c-182.98196,0 -331.32213,-148.34034 -331.32213,-331.32213c0,-35.10493 5.7477,-68.80848 15.86464,-100.55954c10.84474,10.97723 21.63445,22.00932 32.49017,32.97575z" fill="url(#color-4)"/></g><path d="M257.6636,376.72181c2.81307,2.25047 37.13237,42.75841 48.38454,32.63143c13.50265,-11.81486 32.06883,-34.8819 52.3228,-16.31571c9.21645,8.44841 8.22854,16.39066 0.79438,26.80516c-0.022,-0.00009 -2.59241,2.54833 -2.61441,2.54833c-2.44704,0 -4.18021,-0.30821 -6.4319,0.30777c-18.23668,0.33003 -42.06723,1.07781 -43.51532,1.12519c-9.07343,0.29708 -18.18216,-0.20709 -27.2296,0.54164c-9.56378,0.79151 -32.14117,0.22526 -32.40008,-0.11998c-6.75132,-9.00179 -18.56618,-21.6439 -18.56618,-36.27174c0.5626,-15.75312 19.69137,-19.69137 29.25576,-11.25218z" fill="#ffffff" fill-rule="evenodd" stroke="#ffffff" stroke-width="1" stroke-linecap="round" stroke-linejoin="round"/><path d="M146.82919,376.15912c14.06524,-23.06704 20.25397,-18.56618 54.01068,-11.81486c19.12878,2.81307 30.38096,4.50085 42.75841,3.93826c18.56618,-0.5626 15.19052,26.4427 10.12699,40.50803c0,0 -3.61075,5.42443 -8.21289,14.90553c-23.36142,-1.25134 -45.99897,-0.55807 -70.1426,-0.66806c-19.12304,-0.08711 -38.2466,-0.16954 -57.36999,-0.1911c3.02007,-17.62392 19.95611,-30.90304 28.82941,-46.6778z" fill="#ffffff" fill-rule="evenodd" stroke="#ffffff" stroke-width="1.2" stroke-linecap="round" stroke-linejoin="round"/><path d="M126.01253,420.04281c0.72596,0.92401 1.47522,1.86158 2.2376,2.81124c-19.44898,-0.04225 -38.89805,-0.03199 -58.34634,0.08998c-1.28864,-3.24421 -2.28664,-6.15186 -2.96539,-8.52736c-5.06354,-17.4409 9.56439,-28.69317 21.94185,-38.25756c24.19232,-17.4409 44.44629,-33.19402 66.95073,-24.75491c28.13057,10.12699 7.87652,32.63143 -6.18873,42.75841c-8.4392,6.18873 -16.87831,12.94005 -23.06704,16.87831c-1.68787,2.81307 -2.25047,6.18873 -0.5626,9.00179z" fill="#ffffff" fill-rule="evenodd" stroke="#ffffff" stroke-width="1" stroke-linecap="round" stroke-linejoin="round"/><path d="M218.54655,271.03091c0,-2.10189 2.10189,-3.6783 4.20378,-3.15283c9.98397,3.6783 38.35937,12.08586 69.8876,14.18774c28.3754,1.57642 45.1905,0 53.07258,-1.57642c2.62736,-0.52547 4.72916,2.10189 3.6783,4.72916c-4.72916,14.18774 -24.69718,53.59805 -79.87156,50.44522c-47.81786,-5.25472 -52.54711,-38.88484 -50.97061,-64.63288z" fill="url(#color-5)" fill-rule="evenodd" stroke="url(#color-6)" stroke-width="0" stroke-linecap="round" stroke-linejoin="round"/><path d="M427.99972,239.79559c-0.07329,0.01156 -0.12719,0.05017 -0.16188,0.11563c-0.03469,0.06555 -0.0386,0.13302 -0.01156,0.2024c1.73917,4.20708 2.79385,8.55674 3.16396,13.04916c0.30464,3.71734 0.37985,7.40382 0.22561,11.05943c-0.01156,0.24291 -0.08094,0.55529 -0.20822,0.93705c-0.06564,0.1851 -0.11181,0.32968 -0.13884,0.43384c-0.11954,0.44731 0.04634,0.72883 0.49748,0.84446c10.97075,2.75716 21.78726,4.05467 32.44946,3.89279c0.50904,-0.00774 1.26673,-0.01539 2.27316,-0.02313c1.69674,-0.01156 2.9673,-0.03086 3.81185,-0.05782c1.4114,-0.04634 2.69735,-0.12728 3.85801,-0.24291c3.01546,-0.30464 5.13057,0.76543 6.34531,3.2103c0.57068,1.15301 0.67484,2.41201 0.31238,3.77707c-0.39332,1.48852 -1.12597,2.60093 -2.19804,3.33749c-0.95244,0.64789 -2.23656,1.03538 -3.85227,1.16266c-0.35472,0.02704 -0.87732,0.07903 -1.56746,0.15615c-1.28029,0.13493 -2.25777,0.20822 -2.93261,0.21979c-5.71099,0.09259 -10.44058,0.05208 -14.1887,-0.12146c-8.83061,-0.40488 -17.47985,-1.69483 -25.94792,-3.86966c-0.79438,-0.20822 -1.31107,0.06747 -1.55016,0.82716c-3.55154,11.35251 -9.42633,21.85082 -17.62444,31.49502c-1.98208,2.33298 -3.71152,4.27646 -5.18847,5.83053c-1.89332,1.99747 -3.80211,3.83106 -5.72638,5.50076c-0.1851,0.15806 -0.46087,0.39915 -0.82716,0.723c-1.689,1.46922 -2.96156,2.56233 -3.81758,3.27959c-1.42679,1.19927 -2.71474,2.23082 -3.86384,3.09458c-6.08883,4.58493 -12.35702,8.63003 -18.80449,12.13532c-6.58622,3.58241 -12.78695,6.55736 -18.60209,8.92502c-12.42449,5.0631 -24.82203,9.03301 -37.19244,11.90971c-17.85396,4.15691 -36.07038,6.94103 -54.64926,8.35243c-2.17101,0.1658 -5.33305,0.33933 -9.48606,0.5206c-3.28542,0.14267 -5.80732,0.26804 -7.5657,0.37602c-2.19413,0.13493 -4.85488,0.16388 -7.98224,0.08677c-1.8162,-0.04243 -4.41522,-0.1485 -7.79714,-0.31812c-1.45765,-0.07329 -2.50269,-0.12337 -3.13501,-0.15041c-16.33849,-0.69405 -32.05805,-2.87288 -47.15867,-6.53614c-9.00405,-2.18257 -18.21642,-5.13257 -27.63701,-8.84982c-16.16496,-6.37417 -30.88191,-14.85571 -44.15086,-25.44479c-11.36407,-9.07352 -21.30326,-19.6606 -29.81758,-31.76115c-4.98981,-7.09144 -9.07543,-14.64566 -12.25678,-22.6625c-0.02704,-0.07329 -0.07329,-0.13111 -0.13884,-0.17353c-0.06555,-0.04243 -0.13685,-0.06364 -0.21405,-0.06364c-9.44372,0.00391 -39.83954,-0.12137 -49.27934,-1.39775c-0.63623,-0.08485 -1.57329,-0.56112 -2.81115,-1.4287c-0.79047,-0.55138 -1.29951,-1.31498 -1.52703,-2.29055c-0.27378,-1.18388 -0.32968,-2.2809 -0.16771,-3.29124c0.1658,-0.99487 0.53208,-1.84324 1.09902,-2.54511c0.58233,-0.71335 1.3362,-1.22813 2.2616,-1.54433c0.96783,-0.32777 2.07459,-0.42036 3.32011,-0.27769c5.79193,0.66327 32.73654,0.68631 38.92561,1.09111c1.39593,0.09259 2.77255,0.11954 4.12988,0.08103c0.2044,-0.00774 0.3682,-0.09068 0.49165,-0.24874c0.12728,-0.15806 0.17162,-0.33742 0.13302,-0.53799c-0.86759,-4.36905 -1.41523,-8.91155 -1.64275,-13.62758c-0.10024,-2.10163 -0.1485,-4.40183 -0.14467,-6.9006c0.00391,-2.05146 0.04634,-4.51555 0.12728,-7.39225c0.01921,-0.66327 0.10216,-1.63493 0.24874,-2.91522c0.08868,-0.77891 0.1485,-1.36315 0.17927,-1.75256c0.05399,-0.65171 0.07712,-1.24552 0.06947,-1.78151c0,-0.13884 -0.03851,-0.26413 -0.11563,-0.37602c-0.07712,-0.11563 -0.17927,-0.20049 -0.30655,-0.25448c-9.28557,-3.96025 -40.35649,-10.99283 -49.2603,-13.94283c-0.80594,-0.26995 -1.54433,-0.64015 -2.21535,-1.11059c-0.76734,-0.54373 -1.32072,-1.14336 -1.66005,-1.7989c-1.66197,-3.19291 -0.90819,-5.86905 2.2616,-8.02849c0.77891,-0.52825 1.64275,-0.76352 2.59137,-0.7057c0.38941,0.02321 0.82524,0.09642 1.30725,0.21979c0.32777,0.08868 0.76934,0.22553 1.32455,0.41062c8.94624,3.01555 39.41179,9.79748 47.4441,13.19088c0.22752,0.09642 0.45122,0.08877 0.67101,-0.02313c0.2237,-0.11181 0.36246,-0.28725 0.41653,-0.52634c0.94088,-4.06441 1.94157,-7.58509 3.00199,-10.56204c0.28534,-0.79821 0.70179,-2.00321 1.24943,-3.6151c0.64789,-1.89332 1.14145,-3.31046 1.48069,-4.25133c0.56686,-1.56172 1.10667,-2.94991 1.61963,-4.16465c3.30081,-7.78166 6.51111,-14.45665 9.63073,-20.02497c3.12345,-5.56058 7.12804,-11.82295 12.01378,-18.7871c0.2969,-0.42419 0.39532,-1.03929 0.29499,-1.84524c-1.45765,-11.40259 -2.84776,-22.77239 -4.17039,-34.10951c-2.42557,-20.78848 -4.79124,-41.27233 -7.09726,-61.45144c-0.01156,-0.09642 -0.02895,-0.241 -0.05208,-0.43384c-0.08868,-0.76734 -0.14467,-1.34385 -0.1678,-1.72943c-0.0386,-0.65171 -0.02504,-1.22248 0.04051,-1.71213c0.16971,-1.24552 0.71335,-2.19031 1.6311,-2.83428c1.24552,-0.87541 2.49677,-1.35732 3.75394,-1.446c1.34576,-0.09642 2.64536,0.26413 3.89853,1.08163c21.40924,13.97856 42.81857,27.95895 64.22791,41.94134c1.16458,0.75969 2.31368,0.94861 3.44739,0.56686c7.35756,-2.49877 15.56724,-4.70256 24.62919,-6.61135c3.77133,-0.79821 7.4925,-1.41523 11.1635,-1.85098c11.76895,-1.39975 22.51218,-1.92035 32.22958,-1.56172c4.55415,0.1658 10.40963,0.72491 17.56662,1.67744c0.2969,0.0386 0.72691,0.10989 1.28986,0.21405c0.69796,0.12728 1.22248,0.20822 1.57329,0.24291c0.58616,0.06164 1.13754,0.06364 1.65432,0.00583c0.23135,-0.02704 0.43192,-0.11954 0.60163,-0.27769c0.38558,-0.35472 0.97939,-0.85802 1.78151,-1.50973c0.8329,-0.67101 1.448,-1.19153 1.84524,-1.56172c4.47312,-4.18778 8.74384,-8.17307 12.81199,-11.95597c9.19689,-8.549 18.39578,-17.09427 27.59649,-25.63562c0.64789,-0.59763 1.28412,-1.18388 1.90879,-1.75838c0.75969,-0.70179 1.45765,-1.19535 2.09389,-1.48069c2.78794,-1.24169 5.31375,-0.64206 7.57726,1.7989c0.3162,0.34316 0.62858,1.0026 0.93705,1.97817c0.17353,0.56686 0.39523,1.42479 0.66519,2.57398c0.06164,0.27769 0.10798,0.47818 0.13884,0.60155c3.47051,14.56854 6.99884,29.09075 10.58508,43.5667c0.2237,0.90227 0.5399,2.25777 0.94861,4.06632c0.37793,1.6697 0.6691,2.92487 0.87341,3.76559c0.33933,1.3921 0.67484,2.64918 1.00643,3.77133c0.05782,0.19666 0.1658,0.35863 0.32386,0.48591c5.28289,4.19934 10.3113,8.27149 15.08515,12.21635c5.6377,4.66204 11.56456,10.10116 17.78067,16.31728c6.41277,6.4166 11.44701,12.97013 15.10262,19.6606c5.42173,9.93337 9.76183,20.54548 13.0203,31.83626c1.38045,4.7855 2.40627,9.59021 3.07719,14.41422c0.24291,1.7623 0.5013,3.47443 0.77508,5.13639c0.02704,0.1658 0.09259,0.31238 0.19666,0.43966c0.10798,0.13111 0.23909,0.22561 0.39341,0.28343c2.57207,0.9833 5.19038,2.09963 7.85495,3.34906c6.50145,3.04633 12.30877,6.59979 17.42204,10.66028c3.92556,3.11962 6.98546,6.02328 9.17959,8.71098c0.84063,1.02956 1.66779,1.97243 2.48147,2.82854c0.3162,0.33159 0.71144,0.47044 1.18579,0.41645c7.62752,-0.84063 4.06145,-0.33403 10.76731,-2.05772c7.41147,-1.90879 14.07298,-4.57058 19.98445,-7.47424c4.79706,-2.3561 9.86599,-5.50076 15.20669,-9.43406c0.92931,-0.6864 1.94739,-0.98913 3.05407,-0.9081c0.97174,0.06947 1.98008,0.42801 3.02512,1.0759c0.57459,0.35472 1.06625,0.79629 1.47496,1.32455c0.39723,0.50895 0.69414,1.07198 0.8908,1.689c0.19666,0.61311 0.28152,1.24361 0.25456,1.8914c-0.02704,0.66327 -0.17162,1.30725 -0.43375,1.93192c-0.46661,1.11832 -1.33229,2.15171 -2.5971,3.10032c-2.71474,2.02834 -5.26559,3.77324 -7.65255,5.23472c-6.32792,3.86384 -13.34033,7.11265 -21.03714,9.74636c-7.15317,2.44478 -5.43547,1.91114 -10.04291,3.2183c-4.60744,1.30716 -5.56006,1.38749 -7.46885,1.74995zM339.07316,282.95732c0.36628,-0.91775 0.63241,-1.8355 0.79821,-2.75334c0.0193,-0.10024 0.01156,-0.19857 -0.02313,-0.29499c-0.03469,-0.10024 -0.09259,-0.18318 -0.17353,-0.24874c-0.07712,-0.06555 -0.16588,-0.10798 -0.26613,-0.12728c-0.10024,-0.0193 -0.19857,-0.01156 -0.29499,0.02313c-0.71718,0.25448 -1.44227,0.43584 -2.17492,0.54373c-4.61961,0.68257 -9.3666,1.18188 -14.24078,1.49808c-3.18517,0.2044 -6.89478,0.32194 -11.12881,0.35281c-2.52964,0.0193 -6.32992,0.00391 -11.40067,-0.04625c-2.18639,-0.0193 -3.81567,-0.03278 -4.88765,-0.04043c-4.38061,-0.03086 -8.2348,-0.15615 -11.56264,-0.37602c-22.8476,-1.52321 -44.94907,-5.48155 -66.30441,-11.87494c-3.35488,-1.0026 -6.77914,-2.12658 -10.27279,-3.37218c-0.20822,-0.07329 -0.40297,-0.04625 -0.58416,0.08103c-0.17736,0.12728 -0.26613,0.30073 -0.26613,0.5206c0.00391,0.43575 -0.0193,0.92549 -0.06947,1.46922c-0.03086,0.32386 -0.08677,0.81359 -0.16771,1.46913c-0.14267,1.11059 -0.2217,1.94548 -0.23718,2.5046c-0.09259,3.10423 0.0559,6.82731 0.4454,11.16932c0.75578,8.42181 2.64727,15.73495 5.6743,21.9395c3.38566,6.9372 8.21167,12.53056 14.47787,16.78007c5.12483,3.47443 10.71619,6.05023 16.77424,7.72767c4.98216,1.38436 9.68663,2.25969 14.1135,2.62606c9.63264,0.80203 19.42334,-0.00965 29.37227,-2.43513c3.8368,-0.93705 7.60813,-2.19996 11.31391,-3.78872c3.70186,-1.58876 7.26115,-3.47251 10.67758,-5.65117c3.44739,-2.19413 6.6769,-4.64274 9.68854,-7.34591c3.07328,-2.75325 5.86131,-5.71864 8.36391,-8.89616c5.1017,-6.46677 9.22002,-13.61793 12.35502,-21.45358z" fill="url(#color-7)" fill-rule="nonzero" stroke="none" stroke-width="1" stroke-linecap="butt" stroke-linejoin="miter"/></g></g></svg>