<svg version="1.1" xmlns="http://www.w3.org/2000/svg" xmlns:xlink="http://www.w3.org/1999/xlink" width="770.89367" height="770.89367" viewBox="0,0,770.89367,770.89367"><defs><linearGradient x1="241.50151" y1="-214.45581" x2="241.50151" y2="556.43786" gradientUnits="userSpaceOnUse" id="color-1"><stop offset="0" stop-color="#000000"/><stop offset="1" stop-color="#313131"/></linearGradient><linearGradient x1="409.67825" y1="-160.199" x2="409.67825" y2="165.82792" gradientUnits="userSpaceOnUse" id="color-2"><stop offset="0" stop-color="#000000"/><stop offset="1" stop-color="#313131"/></linearGradient><linearGradient x1="257.68074" y1="-153.85518" x2="257.68074" y2="463.92096" gradientUnits="userSpaceOnUse" id="color-3"><stop offset="0" stop-color="#000000"/><stop offset="1" stop-color="#313131"/></linearGradient><linearGradient x1="125.88855" y1="70.43128" x2="125.88855" y2="502.31295" gradientUnits="userSpaceOnUse" id="color-4"><stop offset="0" stop-color="#000000"/><stop offset="1" stop-color="#313131"/></linearGradient></defs><g transform="translate(143.94533,214.45582)"><g data-paper-data="{&quot;isPaintingLayer&quot;:true}" fill-rule="nonzero" stroke="none" stroke-linecap="butt" stroke-linejoin="miter" stroke-miterlimit="10" stroke-dasharray="" stroke-dashoffset="0" style="mix-blend-mode: normal"><g stroke-width="1"><path d="M241.50142,556.43768c-212.87603,0 -385.44675,-172.57039 -385.44675,-385.44675c0,-212.87603 172.57039,-385.44675 385.44692,-385.44675c212.87636,0 385.44675,172.57039 385.44675,385.44692c0,212.87603 -172.57039,385.44675 -385.44675,385.44675z" fill="url(#color-1)"/><path d="M547.73648,140.87269c-100.36105,-100.36105 -200.71064,-200.71064 -301.0717,-301.0717c178.86656,2.74709 323.29081,147.16004 326.02693,326.02693z" fill="url(#color-2)"/><path d="M395.79957,463.92081c-149.76334,-148.51688 -298.61153,-297.96054 -446.79727,-448.04406c45.85026,-86.25056 128.4602,-149.9841 227.14407,-169.73192l390.21281,390.21281c-19.82495,98.99291 -83.90061,181.81247 -170.55945,227.56333z" fill="url(#color-3)"/><path d="M-41.46591,103.40702c127.04816,128.37192 254.86835,255.97151 383.06356,383.18491c-31.61858,10.02851 -65.15671,15.72102 -100.09607,15.72102c-182.98196,0 -331.32213,-148.34034 -331.32213,-331.32213c0,-35.10493 5.7477,-68.80848 15.86464,-100.55954c10.84474,10.97723 21.63445,22.00932 32.49017,32.97575z" fill="url(#color-4)"/></g><path d="M459.93243,-3.27703v281.02673c0,20.23378 -16.42162,36.65541 -36.65541,36.65541h-298.66824l-104.54122,85.52732v-403.20946c0,-20.24551 16.40989,-36.65541 36.65541,-36.65541h366.55405c20.23378,0 36.65541,16.40989 36.65541,36.65541z" fill="#cfd8dc" stroke-width="1"/><path d="M459.93243,-3.27703v281.02673c0,20.23378 -16.42162,36.65541 -36.65541,36.65541h-298.66824l-104.54122,85.52732v-403.20946c0,-20.24551 16.40989,-36.65541 36.65541,-36.65541h366.55405c20.23378,0 36.65541,16.40989 36.65541,36.65541z" fill="none" stroke-width="4.16667"/><path d="M93.37838,-3.27703h293.24324c20.23378,0 36.65541,16.40989 36.65541,36.65541v366.55405l-146.62162,-122.18273h-183.27703c-20.24551,0 -36.65541,-16.42162 -36.65541,-36.65541v-207.71592c0,-20.24551 16.40989,-36.65541 36.65541,-36.65541z" fill="#42a5f5" stroke-width="1"/><path d="M93.37838,-3.27703h293.24324c20.23378,0 36.65541,16.40989 36.65541,36.65541v366.55405l-146.62162,-122.18273h-183.27703c-20.24551,0 -36.65541,-16.42162 -36.65541,-36.65541v-207.71592c0,-20.24551 16.40989,-36.65541 36.65541,-36.65541z" fill="none" stroke-width="4.16667"/><path d="M325.53319,118.91157c0,13.48919 -10.9497,24.43303 -24.43889,24.43303c-13.48919,0 -24.43889,-10.94384 -24.43889,-24.43303c0,-13.48919 10.9497,-24.43889 24.43889,-24.43889c13.48919,0 24.43889,10.9497 24.43889,24.43889z" fill="#bbdefb" stroke-width="1"/><path d="M325.53319,118.91157c0,13.48919 -10.9497,24.43303 -24.43889,24.43303c-13.48919,0 -24.43889,-10.94384 -24.43889,-24.43303c0,-13.48919 10.9497,-24.43889 24.43889,-24.43889c13.48919,0 24.43889,10.9497 24.43889,24.43889z" fill="none" stroke-width="4.16667"/><path d="M349.96622,204.43889h-97.7497v-16.28673c0,0 13.53024,-32.58519 48.87778,-32.58519c35.34754,0 48.87192,32.58519 48.87192,32.58519z" fill="#bbdefb" stroke-width="1"/><path d="M349.96622,204.43889h-97.7497v-16.28673c0,0 13.53024,-32.58519 48.87778,-32.58519c35.34754,0 48.87192,32.58519 48.87192,32.58519z" fill="none" stroke-width="4.16667"/><path d="M240,94.47268c0,20.23378 -16.40989,36.65541 -36.65541,36.65541c-20.24551,0 -36.65541,-16.42162 -36.65541,-36.65541c0,-20.23378 16.40989,-36.65541 36.65541,-36.65541c20.24551,0 36.65541,16.42162 36.65541,36.65541z" fill="#e3f2fd" stroke-width="1"/><path d="M240,94.47268c0,20.23378 -16.40989,36.65541 -36.65541,36.65541c-20.24551,0 -36.65541,-16.42162 -36.65541,-36.65541c0,-20.23378 16.40989,-36.65541 36.65541,-36.65541c20.24551,0 36.65541,16.42162 36.65541,36.65541z" fill="none" stroke-width="4.16667"/><path d="M276.65541,204.43889h-146.62162v-20.35695c0,0 20.2807,-40.73735 73.31081,-40.73735c53.03011,0 73.31081,40.73735 73.31081,40.73735z" fill="#e3f2fd" stroke-width="1"/><path d="M276.65541,204.43889h-146.62162v-20.35695c0,0 20.2807,-40.73735 73.31081,-40.73735c53.03011,0 73.31081,40.73735 73.31081,40.73735z" fill="none" stroke-width="4.16667"/></g></g></svg>