<svg version="1.1" xmlns="http://www.w3.org/2000/svg" xmlns:xlink="http://www.w3.org/1999/xlink" width="80.29801" height="80.29801" viewBox="0,0,80.29801,80.29801"><defs><radialGradient cx="240" cy="180" r="40.14901" gradientUnits="userSpaceOnUse" id="color-1"><stop offset="0" stop-color="#27a6ff"/><stop offset="1" stop-color="#27a6ff" stop-opacity="0"/></radialGradient><linearGradient x1="221.21611" y1="185.36579" x2="258.78389" y2="185.36579" gradientUnits="userSpaceOnUse" id="color-2"><stop offset="0" stop-color="#b5eeff"/><stop offset="1" stop-color="#61d7f9"/></linearGradient><radialGradient cx="237.76275" cy="163.55086" r="9.39643" gradientUnits="userSpaceOnUse" id="color-3"><stop offset="0" stop-color="#9ceb60"/><stop offset="1" stop-color="#6dd627"/></radialGradient><radialGradient cx="236.72146" cy="166.04354" r="1.85945" gradientUnits="userSpaceOnUse" id="color-4"><stop offset="0" stop-color="#9ceb60"/><stop offset="1" stop-color="#6dd627"/></radialGradient><linearGradient x1="240" y1="176.2707" x2="240" y2="190.93045" gradientUnits="userSpaceOnUse" id="color-5"><stop offset="0" stop-color="#f180ff"/><stop offset="1" stop-color="#e61cff"/></linearGradient><radialGradient cx="240" cy="182.60749" r="20.20711" gradientUnits="userSpaceOnUse" id="color-6"><stop offset="0" stop-color="#f6adff"/><stop offset="1" stop-color="#f6adff" stop-opacity="0"/></radialGradient></defs><g transform="translate(-199.85099,-139.85099)"><g data-paper-data="{&quot;isPaintingLayer&quot;:true}" fill-rule="nonzero" stroke-linejoin="miter" stroke-miterlimit="10" stroke-dasharray="" stroke-dashoffset="0" style="mix-blend-mode: normal"><path d="M199.85099,180c0,-22.17368 17.97532,-40.14901 40.14901,-40.14901c22.17368,0 40.14901,17.97532 40.14901,40.14901c0,22.17368 -17.97532,40.14901 -40.14901,40.14901c-22.17368,0 -40.14901,-17.97532 -40.14901,-40.14901z" fill="url(#color-1)" stroke="none" stroke-width="0" stroke-linecap="butt"/><path d="M258.53637,184.66037c-1.19452,6.55389 -1.19574,10.12271 -7.13737,15.58914c-6.36023,5.85155 -7.40433,0.13973 -11.6684,0.13973c-3.83815,0 -4.77286,5.41496 -10.42993,0.49192c-4.49851,-3.91482 -8.08456,-10.17769 -8.08456,-17.21819c0,-5.51752 0.57637,-9.77499 3.81696,-13.44507c1.23551,-1.39926 3.48194,-3.19699 4.80594,-2.4851c2.74798,1.47753 4.65416,1.90427 7.96388,1.90427c2.64887,0 -1.57541,0.93307 9.73782,-2.33824c6.97282,-2.01625 12.49554,9.13223 10.99565,17.36154z" fill="url(#color-2)" stroke="#00c9ff" stroke-width="2.5" stroke-linecap="butt"/><g stroke="#00c9ff" stroke-width="2.5" stroke-linecap="round"><path d="M241.85356,168.73447l-3.17346,0.90643c0,0 -5.83213,-0.58581 -6.29734,-0.67982c-0.46521,-0.094 0.46304,0.33563 -0.99171,-0.79312c-1.13897,-0.88372 -1.71378,-1.85885 -2.28093,-3.05919c-0.56715,-1.20033 -0.9917,-2.4455 -0.74378,-3.34245c0.24792,-0.89695 0.46679,-0.6452 1.93383,-0.96308c1.46704,-0.31788 2.87935,-0.37917 3.81807,-0.28326c0.59964,0.06127 1.06594,-0.02816 2.28093,0.90643c1.215,0.93459 2.7272,2.94589 2.7272,2.94589c0,0 -0.08295,4.14445 -0.04959,4.41884c0.03336,0.27439 0.42333,0.91568 0.54544,-0.33991c0.12211,-1.25559 -0.48475,-1.32034 -0.19834,-3.22915c0.28641,-1.90881 0.57307,-3.21817 1.38839,-4.70209c0.81532,-1.48392 2.21008,-2.67881 2.87595,-3.05919c0.66586,-0.38038 0.89481,-0.82282 1.88424,0.33991c0.98942,1.16273 1.47419,3.29925 1.58673,3.73902c0.11254,0.43977 0.55894,0.63197 -0.3471,1.10503c-0.90604,0.47306 -1.52892,-0.2966 -2.52885,0.39656c-0.99994,0.69316 -1.20594,1.46401 -1.73549,2.66263c-0.52955,1.19862 -0.89254,3.2858 -0.89254,3.2858" fill="url(#color-3)"/><path d="M238.58091,168.05468l-3.7189,-4.02227" fill="url(#color-4)"/></g><path d="M232.17378,172.49383c0,1.25 -1.25,1.25 -1.25,1.25l-0.51896,-0.05272c-1.43339,0.25871 -1.29966,1.13801 -2.07999,2.39237c0,0 -0.6625,1.06 -1.7225,0.3975c-1.06,-0.6625 -0.3975,-1.7225 -0.3975,-1.7225c1.22673,-1.95242 1.16524,-2.62411 3.48162,-3.46194l1.23734,-0.05272c0,0 1.25,0 1.25,1.25z" fill="#d9f7ff" stroke="none" stroke-width="0.5" stroke-linecap="butt"/><path d="M228.78358,188.95309l1.97736,-11.72781l6.47757,-0.95459l0.27274,2.52284l7.43216,-1.50007l6.27301,13.63698l-6.95486,-3.6138l-7.84127,2.38647v-2.93195z" fill="url(#color-5)" stroke="#a500b9" stroke-width="2.5" stroke-linecap="round"/><path d="M219.79289,182.60749c0,-12.81707 9.04703,-23.20735 20.20711,-23.20735c11.16008,0 20.20711,10.39028 20.20711,23.20735c0,12.81707 -9.04703,23.20735 -20.20711,23.20735c-11.16008,0 -20.20711,-10.39028 -20.20711,-23.20735z" fill="url(#color-6)" stroke="none" stroke-width="0" stroke-linecap="butt"/></g></g></svg>