<svg version="1.1" xmlns="http://www.w3.org/2000/svg" xmlns:xlink="http://www.w3.org/1999/xlink" width="770.89367" height="770.89367" viewBox="0,0,770.89367,770.89367"><g transform="translate(148.44983,212.95432)"><g data-paper-data="{&quot;isPaintingLayer&quot;:true}" fill-rule="nonzero" stroke="none" stroke-width="1" stroke-linecap="butt" stroke-linejoin="miter" stroke-miterlimit="10" stroke-dasharray="" stroke-dashoffset="0" style="mix-blend-mode: normal"><g fill="#212121"><path d="M236.99692,557.93918c-212.87603,0 -385.44675,-172.57039 -385.44675,-385.44675c0,-212.87603 172.57039,-385.44675 385.44692,-385.44675c212.87636,0 385.44675,172.57039 385.44675,385.44692c0,212.87603 -172.57039,385.44675 -385.44675,385.44675z"/><path d="M543.23198,142.37419c-100.36105,-100.36105 -200.71064,-200.71064 -301.0717,-301.0717c178.86656,2.74709 323.29081,147.16004 326.02693,326.02693z"/><path d="M391.29507,465.42229c-149.76334,-148.51688 -298.61153,-297.96054 -446.79727,-448.04406c45.85026,-86.25056 128.4602,-149.9841 227.14407,-169.73192l390.21281,390.21281c-19.82495,98.99291 -83.90061,181.81247 -170.55945,227.56333z"/><path d="M-45.97041,104.9085c127.04816,128.37192 254.86835,255.97151 383.06356,383.18491c-31.61858,10.02851 -65.15671,15.72102 -100.09607,15.72102c-182.98196,0 -331.32213,-148.34034 -331.32213,-331.32213c0,-35.10493 5.7477,-68.80848 15.86464,-100.55954c10.84474,10.97723 21.63445,22.00932 32.49017,32.97575z"/></g><g><path d="M518.19049,180c0,153.64083 -124.54965,278.19049 -278.19049,278.19049c-153.64083,0 -278.19049,-124.54965 -278.19049,-278.19049c0,-153.64083 124.54965,-278.19049 278.19049,-278.19049c153.64083,0 278.19049,124.54965 278.19049,278.19049" fill="#01b138"/><path d="M517.88882,193.01163c-0.01708,0.43258 -0.03984,0.86517 -0.06261,1.29775v0c0.02277,-0.43827 0.04554,-0.86517 0.06261,-1.29775M238.37782,-98.18479c-0.00569,0 -0.02846,0 -0.03984,0c0.01138,0 0.02846,0 0.03984,0M238.59411,-98.19049c-0.01708,0 -0.04554,0 -0.0683,0c0.02846,0 0.04554,0 0.0683,0M238.81609,-98.19049c-0.02846,0 -0.05692,0 -0.08538,0c0.03415,0 0.05692,0 0.08538,0M239.03807,-98.19049c-0.03984,0 -0.06261,0 -0.09676,0c0.02846,0 0.0683,0 0.09676,0M239.25436,-98.19049c-0.03984,0 -0.07399,0 -0.10815,0c0.03415,0 0.07399,0 0.10815,0M239.48204,-98.19049c-0.05123,0 -0.07399,0 -0.11953,0c0.03415,0 0.07969,0 0.11953,0M239.70971,-98.19049c-0.04554,0 -0.09107,0 -0.13661,0c0.03984,0 0.09107,0 0.13661,0M240,-98.19049c75.90118,0 144.71028,30.40031 194.90125,79.68628v0c-50.19097,-49.28596 -119.00007,-79.68628 -194.90125,-79.68628c-0.07399,0 -0.13661,0 -0.21629,0c0.07399,0 0.1423,0 0.21629,0" fill="#3f8da5"/><path d="M69.03309,344.54647c16.64874,2.53858 26.01757,11.92448 47.41333,15.24854c-6.81318,8.15077 -10.91133,18.6409 -10.91133,30.09295c0,25.93788 21.02579,46.95798 46.95798,46.95798h24.42954c-1.09284,4.56489 -1.57665,9.12977 -2.21983,13.56374c-60.65264,-14.59966 -113.53018,-49.03552 -151.42669,-96.09596h24.62306c8.46382,0 16.0454,-3.79079 21.13394,-9.76726M518.19049,179.28852c0,0.23337 0,0.47812 0.00569,0.71148c0,4.35998 -0.10245,8.69719 -0.30167,13.01163c-0.01708,0.43827 -0.03984,0.86517 -0.06261,1.29775c-4.23476,-5.65773 -8.57766,-10.63243 -13.04578,-15.02086h13.40437M308.30252,243.32213h56.91877c8.25322,0 14.94118,-6.68796 14.94118,-14.94118c0,-8.25322 -6.68796,-14.94118 -14.94118,-14.94118h-56.91877c-8.25322,0 -14.94118,6.68796 -14.94118,14.94118c0,8.25322 6.68796,14.94118 14.94118,14.94118M268.53907,227.23689c7.26283,0 16.68289,-10.39906 1.34328,-22.33493l-4.98039,5.69188c-5.13407,11.98709 -1.22945,16.64305 3.63711,16.64305M257.87249,153.32786c45.53502,21.89096 94.11519,40.64 137.70358,63.66934c19.20439,10.27384 35.46039,31.86882 49.9576,56.20728h-125.8474c-11.39514,0 -20.63305,9.23792 -20.63305,20.63305c0,11.39514 9.23792,20.63305 20.63305,20.63305h148.41569c2.44751,4.69011 4.86086,9.3176 7.24007,13.80849c-5.12838,8.12231 -10.66658,15.96571 -16.58044,23.49038c-7.70111,-5.56096 -17.14393,-8.83948 -27.36654,-8.83948h-129.39913c-9.8128,-5.94801 -12.59612,-12.11801 -23.09194,-29.16518c-14.44029,-23.18871 -31.29394,-35.47747 -43.41195,-35.47747c-3.68834,0 -6.9384,1.13838 -9.54528,3.45497h-19.38084c-6.28383,0 -11.38375,5.09992 -11.38375,11.38375c0,6.28383 5.09992,11.38375 11.38375,11.38375h12.66443c0.23337,7.22299 1.69049,15.98279 4.65026,26.33062c1.15545,4.05831 2.67518,8.07677 4.23476,12.08955h-52.47911c10.22261,-14.6452 8.03693,-35.71084 -6.92132,-53.83946c-20.93472,-24.88489 -41.40271,-33.17226 -53.07675,-47.69793c4.32013,-4.47951 6.97255,-10.56982 6.97255,-17.28054c0,-10.78611 -6.8644,-19.97849 -16.46091,-23.43346c0.02277,-0.25044 0.04554,-0.50658 0.0683,-0.76271c1.26929,-13.14824 1.66203,-23.331 -0.35859,-32.01112h128.44859c10.31937,0 19.24993,-5.93094 23.56437,-14.5769M100.21889,76.83473c0.70579,0.91639 1.44574,1.78725 2.23122,2.61257c8.78257,9.181 20.42245,12.14647 32.87628,12.14647c17.12117,0 35.77345,-5.61219 50.60079,-8.35568c1.12699,14.28092 4.93486,24.2474 10.89425,32.01681h-109.07913c-9.69896,0 -18.17985,5.24791 -22.74474,13.06286c-2.08892,-1.08715 -4.28029,-2.20276 -6.57412,-3.34113c-21.96495,-11.15608 -53.90777,-24.39538 -79.49845,-41.22057c0.85378,-2.32229 1.74171,-4.63319 2.65811,-6.92132h118.63579M463.42325,14.22408c5.11131,6.87579 9.91525,13.99633 14.38337,21.34454h-40.81076c-1.6108,-4.35998 -3.72249,-8.76549 -6.31798,-13.04578c-1.92385,-2.88009 -4.14938,-5.64634 -6.60258,-8.29876h39.34795M222.92437,-35.57984h81.10925c9.0387,0 16.36415,-7.32545 16.36415,-16.36415c0,-9.0387 -7.32545,-16.36415 -16.36415,-16.36415h-81.10925c-9.0387,0 -16.36415,7.32545 -16.36415,16.36415c0,9.0387 7.32545,16.36415 16.36415,16.36415M240,-98.19049c75.90118,0 144.71028,30.40031 194.90125,79.67489h-102.40825c-9.0387,0 -16.36415,7.32545 -16.36415,16.36415c0,9.0387 7.32545,16.36415 16.36415,16.36415h46.68477c-0.35859,8.30445 -0.75702,16.05678 0.10245,23.18301c-12.7498,4.47382 -21.88527,16.61459 -21.88527,30.88982c0,18.0774 14.65089,32.72829 32.72829,32.72829h116.71763c4.99747,16.92764 8.43536,34.544 10.13723,52.64986h-52.76939c-26.45015,-10.13723 -56.98138,-13.44421 -93.28417,-23.95142c-85.37815,-25.61345 -36.9972,-92.02057 -93.91597,-139.45098c-13.57513,-11.53743 -23.51314,-15.55021 -32.40955,-15.55021c-15.97141,0 -28.60168,12.91487 -52.96861,18.39615c-3.3639,0.71718 -6.77333,1.01315 -10.21123,1.01315c-7.74664,0 -15.64128,-1.49127 -23.51884,-2.98824c-1.98647,-0.37566 -3.96724,-0.75133 -5.94801,-1.10422h30.42877c6.28383,0 11.38375,-5.09992 11.38375,-11.38375c0,-6.28383 -5.09992,-11.38375 -11.38375,-11.38375h-35.57423c-6.28383,0 -11.38375,5.09992 -11.38375,11.38375c0,4.18922 2.26537,7.84341 5.62927,9.82418c-2.19137,-0.20491 -4.37136,-0.32444 -6.53427,-0.32444c-8.13369,0 -16.0454,1.69049 -23.51884,6.8644c-9.45421,6.30091 -15.79496,18.49291 -18.62951,32.01681h-84.68375c6.90994,-10.45598 14.51429,-20.42245 22.72766,-29.83682c2.67518,13.63774 10.71211,21.70313 18.08878,21.70313c7.62142,0 14.54275,-8.62319 14.11016,-28.62445c0,-8.16784 -1.78725,-15.23715 -4.51366,-20.64444c6.76764,-5.85694 13.81988,-11.39514 21.13394,-16.59182h52.62709c8.25322,0 14.94118,-6.68796 14.94118,-14.94118c0,-7.88325 -6.10169,-14.33784 -13.83695,-14.90133c32.46077,-13.56943 68.0407,-21.1624 105.37941,-21.37869c0.01138,0 0.03415,0 0.03984,0c0.04554,0 0.10245,0 0.14799,0c0.01708,0 0.05123,0 0.0683,0c0.03984,0 0.09107,0 0.13091,0c0.02846,0 0.05692,0 0.08538,0c0.04554,0 0.07969,0 0.12522,0c0.03415,0 0.05692,0 0.09676,0c0.03984,0 0.07399,0 0.11384,0c0.03415,0 0.0683,0 0.10815,0c0.03984,0 0.06261,0 0.10245,0c0.04554,0 0.07399,0 0.11953,0c0.02846,0 0.06261,0 0.09107,0c0.03984,0 0.09107,0 0.13661,0c0.02277,0 0.05123,0 0.07399,0c0.07969,0 0.1423,0 0.21629,0" fill="#66cadc"/><path d="M7.60066,27.03081c-10.27384,15.57867 -19.02225,32.25017 -26.04034,49.80392h-14.44029c6.60258,-17.46268 14.81596,-34.12849 24.49215,-49.80392h15.98848" fill="#a6a6a6"/><path d="M7.67466,27.03081c-10.29661,15.57298 -19.06779,32.23879 -26.09726,49.80392h-0.01708c7.01808,-17.55375 15.7665,-34.22526 26.04034,-49.80392h0.07399M210.11765,27.03081c13.75157,0 24.90196,11.15039 24.90196,24.90196c0,13.75157 -11.15039,24.90196 -24.90196,24.90196h-109.89307c-9.25499,-12.08955 -11.57159,-32.09649 -7.86617,-49.80392h117.75924" fill="#99d3b5"/><path d="M92.3584,27.03081c-3.7111,17.70743 -1.39451,37.71438 7.86617,49.80392h-118.63579c7.01808,-17.56513 15.78927,-34.23095 26.08587,-49.80392h84.68375" fill="#afdbde"/><path d="M-37.53592,199.21008c1.16114,17.06425 3.87048,33.72437 7.97432,49.80392h-13.85972c-3.91032,-16.1194 -6.47736,-32.76244 -7.58727,-49.80392h13.47267" fill="#a6a6a6"/><path d="M97.70308,199.21008c2.96547,0 5.80571,0.51796 8.44105,1.4685c-1.74741,19.88742 2.11738,31.54438 9.48836,40.714c-4.53073,4.6958 -10.88856,7.62142 -17.92941,7.62142h-127.26468c-4.10384,-16.07955 -6.80748,-32.73968 -7.97432,-49.80392h135.239" fill="#99d3b5"/><path d="M106.14413,200.67859c9.5965,3.45497 16.46091,12.64166 16.46091,23.43346c0,6.71072 -2.65811,12.80103 -6.97255,17.28054c-7.37098,-9.16961 -11.23577,-20.82658 -9.48836,-40.714" fill="#afdbde"/><path d="M64.99755,128.31776c26.43308,13.80849 37.33302,24.40677 40.86198,39.587h-18.11724c-14.53705,0 -26.32493,-11.78788 -26.32493,-26.32493c0,-4.8381 1.30344,-9.36883 3.58019,-13.26207M234.30812,115.2549c14.54275,0 26.32493,11.78788 26.32493,26.32493c0,4.22337 -0.99039,8.21338 -2.76056,11.74803c-6.98962,-3.35821 -13.90526,-6.79041 -20.71843,-10.32506c-17.18378,-9.16392 -31.2541,-15.9031 -40.33264,-27.7479h37.4867" fill="#99d3b5"/><path d="M196.82142,115.2549c9.07854,11.8448 23.14886,18.58398 40.33264,27.7479c6.81887,3.53466 13.72881,6.96686 20.71843,10.32506c-4.31444,8.64596 -13.245,14.5769 -23.56437,14.5769h-128.44859c-3.52896,-15.18024 -14.42891,-25.77851 -40.86198,-39.587c4.56489,-7.81495 13.04009,-13.06286 22.74474,-13.06286h109.07913" fill="#afdbde"/><path d="M458.81283,351.80931c3.66557,2.64672 6.93271,5.82279 9.69896,9.39729c-24.54337,30.90689 -55.16567,56.7594 -90.14226,75.63935h-31.31671c44.16897,-18.4303 82.58913,-47.93699 111.76,-85.03664" fill="#a6a6a6"/><path d="M175.63056,342.92998c-7.5645,10.83733 -21.94219,18.16278 -42.9566,18.16278c-4.07538,0 -8.40121,-0.27321 -12.97748,-0.85378c-1.1213,-0.13091 -2.19706,-0.28459 -3.25575,-0.44397c8.61181,-10.31368 21.56652,-16.86503 36.04666,-16.86503h23.14317M301.99023,342.92998c4.37705,2.65811 10.15431,5.26499 18.65228,8.77687c23.71805,10.4389 36.9972,4.74703 48.38095,33.20641c3.77941,9.71603 4.65026,23.88881 5.63496,38.52262c32.62015,-18.08309 61.20475,-42.5297 84.09748,-71.66642c0.02277,0.01138 0.03984,0.02846 0.06261,0.03984c-29.17087,37.09396 -67.59104,66.60634 -111.76,85.03664h-170.13589c1.12699,-4.71287 2.90286,-9.42575 6.1643,-13.99063c12.32861,-16.12509 36.04666,-13.27915 47.43041,-31.30532c10.57551,-17.37161 3.7111,-32.93889 -2.40197,-48.62001h73.87487" fill="#99d3b5"/><path d="M228.11536,342.92998c6.10738,15.68112 12.97748,31.2484 2.39628,48.62001c-11.38375,18.02617 -35.09611,15.18024 -47.43041,31.30532c-3.26145,4.56489 -5.03731,9.27776 -6.1643,13.99063h-24.42954c-25.93219,0 -46.95798,-21.0201 -46.95798,-46.95798c0,-11.45206 4.10384,-21.94219 10.91133,-30.09295c1.05869,0.15937 2.14015,0.31305 3.25575,0.44397c4.57627,0.57488 8.9021,0.85378 12.97748,0.85378c21.0201,0 35.39209,-7.32545 42.96229,-18.16278h52.47911M431.38936,342.92998c10.22261,0 19.66543,3.27852 27.36085,8.83948c-22.89273,29.13672 -51.47734,53.58333 -84.09748,71.66642c-0.98469,-14.63951 -1.85555,-28.80659 -5.63496,-38.52262c-11.38375,-28.45938 -24.6629,-22.76751 -48.38095,-33.20641c-8.49228,-3.51189 -14.26384,-6.11877 -18.64659,-8.77687h129.39913" fill="#afdbde"/><path d="M516.40893,273.20448c-4.81533,14.28661 -10.68934,28.07234 -17.55944,41.26611h-15.25992c7.27422,-13.14254 13.50682,-26.92827 18.60675,-41.26611h14.21262" fill="#a6a6a6"/><path d="M502.19062,273.20448c-5.09423,14.33784 -11.33253,28.12356 -18.60105,41.26611h-15.49898c-7.12054,-13.63774 -14.5712,-27.86743 -22.55691,-41.26611h56.65694" fill="#99d3b5"/><path d="M445.53368,273.20448c7.9914,13.39868 15.43637,27.62837 22.55691,41.26611h-148.40431c-11.39514,0 -20.63305,-9.23792 -20.63305,-20.63305c0,-11.39514 9.23792,-20.63305 20.63305,-20.63305h125.8474" fill="#afdbde"/><path d="M530.46786,153.67507c0.75702,8.44105 1.20099,16.97887 1.22375,25.61345h-13.50113c-0.02277,-8.64027 -0.43827,-17.17808 -1.22945,-25.61345h13.50682" fill="#a6a6a6"/><path d="M464.19734,153.67507c14.69073,5.62927 28.12356,13.36453 40.58877,25.61345h-42.09143c-7.06931,0 -12.80672,-5.73172 -12.80672,-12.80672c0,-7.075 5.73741,-12.80672 12.80672,-12.80672h1.50266" fill="#99d3b5"/><path d="M516.96104,153.67507c0.79117,8.43536 1.20668,16.97318 1.22375,25.61345h-13.40437c-12.46521,-12.24892 -25.89804,-19.98418 -40.58877,-25.61345h52.76939" fill="#afdbde"/><path d="M493.40805,35.56862c11.48052,20.10371 20.63305,41.693 27.10472,64.42636c-2.56704,0.64887 -5.24222,1.03023 -8.00847,1.03023h-5.6748c-6.8644,-23.23424 -16.68289,-45.18781 -29.01719,-65.45658h15.59574" fill="#a6a6a6"/><path d="M436.99586,35.56862c7.59866,20.51922 4.01847,39.91713 -13.26777,39.92282c-5.87402,0 -13.32468,-2.23691 -22.46015,-7.4279c-15.35099,-8.15646 -20.50783,-18.4986 -21.98772,-30.65645c3.39236,-1.1896 7.04085,-1.83848 10.84303,-1.83848h46.87261" fill="#99d3b5"/><path d="M477.80662,35.56862c12.3343,20.26877 22.15279,42.22234 29.01719,65.45089h-116.70055c-18.0774,0 -32.72829,-14.65089 -32.72829,-32.72829c0,-14.27523 9.14115,-26.416 21.88527,-30.88982c1.4742,12.15785 6.63673,22.49999 21.98772,30.65645c9.13546,5.19099 16.58613,7.4279 22.46015,7.4279c17.28623,0 20.86642,-19.39792 13.26777,-39.91713h40.81076" fill="#afdbde"/><path d="M453.67306,-18.50421c9.5282,10.25107 18.32215,21.18517 26.31355,32.72829h-16.56336c-8.65734,-11.64558 -18.19693,-22.58537 -28.522,-32.72829h18.77181" fill="#a6a6a6"/><path d="M390.83474,-12.57327c10.58689,7.5645 23.59852,16.33569 33.24056,26.80305h-44.89753c0.23906,-5.5382 0.46104,-11.31545 0.27321,-17.31469l1.8954,-5.69188c2.84594,-0.95054 6.64242,-2.84594 9.48836,-3.79648" fill="#99d3b5"/><path d="M434.90125,-18.50421c10.33076,10.14292 19.86465,21.08271 28.522,32.7226h-39.34795c-9.64204,-10.45598 -22.65367,-19.22716 -33.24056,-26.79736c-2.84594,0.95054 -6.64242,2.84594 -9.48836,3.79648l-1.8954,5.69188c0.18783,6.00493 -0.03415,11.78219 -0.27321,17.31469h-46.68477c-9.0387,0 -16.36415,-7.32545 -16.36415,-16.36415c0,-9.0387 7.32545,-16.36415 16.36415,-16.36415h102.40825" fill="#afdbde"/><path d="M365.22129,213.43978c8.25322,0 14.94118,6.68796 14.94118,14.94118c0,8.25322 -6.68796,14.94118 -14.94118,14.94118h-56.91877c-8.25322,0 -14.94118,-6.68796 -14.94118,-14.94118c0,-8.25322 6.68796,-14.94118 14.94118,-14.94118h56.91877" fill="#afdbde"/><path d="M12.32492,153.67507c6.68226,0 12.09524,5.41297 12.09524,12.09524c0,6.68226 -5.41297,12.09524 -12.09524,12.09524h-36.9972c-6.68226,0 -12.09524,-5.41297 -12.09524,-12.09524c0,-6.68226 5.41297,-12.09524 12.09524,-12.09524h36.9972" fill="#99d3b5"/><path d="M141.04103,-11.52597c3.60865,0.33582 7.24576,0.90501 10.89994,1.55957h-5.14546c-2.09461,0 -4.064,-0.56919 -5.75449,-1.55957" fill="#99d3b5"/><path d="M182.36975,-32.7339c6.28383,0 11.38945,5.09992 11.38945,11.38375c0,6.28383 -5.09992,11.38375 -11.38375,11.38375h-30.42877c-3.65988,-0.65457 -7.29699,-1.22375 -10.90564,-1.55957c-3.36959,-1.98077 -5.62927,-5.63496 -5.62927,-9.82418c0,-6.28383 5.09992,-11.38375 11.38375,-11.38375h35.57423" fill="#afdbde"/><path d="M304.03362,-68.30813c9.0387,0 16.36415,7.32545 16.36415,16.36415c0,9.0387 -7.32545,16.36415 -16.36415,16.36415h-81.10925c-9.0387,0 -16.36415,-7.32545 -16.36415,-16.36415c0,-9.0387 7.32545,-16.36415 16.36415,-16.36415h81.10925" fill="#afdbde"/><path d="M131.85434,-76.84595c0.34151,0 0.67733,0.01138 1.01315,0.03415c-19.10194,7.97432 -37.11104,18.01479 -53.77116,29.8482h-22.27801c13.9451,-11.26422 28.91473,-21.3047 44.80646,-29.88235h30.22956" fill="#a6a6a6"/><path d="M132.86749,-76.8118c0.02846,0 0.05692,0.00569 0.09107,0.00569c-19.07917,7.98001 -37.08258,18.01479 -53.73132,29.84251h-0.13091c16.66012,-11.83341 34.67491,-21.87388 53.77116,-29.8482" fill="#99d3b5"/><path d="M132.95856,-76.8061c7.73526,0.5635 13.83695,7.02378 13.83695,14.90133c0,8.25322 -6.68796,14.94118 -14.94118,14.94118h-52.62709c16.64874,-11.82772 34.64645,-21.86819 53.73132,-29.84251" fill="#afdbde"/><path d="M227.90476,281.7423c6.28383,0 11.38375,5.09992 11.38375,11.38375c0,6.28383 -5.09992,11.38375 -11.38375,11.38375h-8.68011c-0.37566,-11.24146 2.21414,-18.76043 6.71641,-22.76751h1.9637" fill="#99d3b5"/><path d="M225.94106,281.7423c-4.50227,4.00708 -7.08639,11.52605 -6.71641,22.76751h-12.66443c-6.28383,0 -11.38375,-5.09992 -11.38375,-11.38375c0,-6.28383 5.09992,-11.38375 11.38375,-11.38375h19.38084" fill="#afdbde"/><path d="M-11.61511,298.81793c9.42006,19.90449 21.13394,38.52831 34.79444,55.4958h-17.09271c-12.78965,-17.13255 -23.67252,-35.75068 -32.48923,-55.4958h14.7875" fill="#a6a6a6"/><path d="M47.89915,298.81793c15.32253,0 27.7479,12.42537 27.74221,27.7479c0,6.85871 -2.48735,13.13685 -6.61396,17.98064c-2.67518,-0.40412 -5.54389,-0.63749 -8.68011,-0.63749c-3.85909,0 -8.128,0.3472 -12.95471,1.14976c-7.55312,1.3319 -16.09094,4.38844 -25.19225,7.91171c0.35859,0.44966 0.71718,0.89932 1.07576,1.34328h-0.09676c-13.6605,-16.96749 -25.38008,-35.59131 -34.79444,-55.4958h59.51427" fill="#99d3b5"/><path d="M60.35298,343.90898c3.13053,0 5.99924,0.23337 8.6858,0.63749c-5.08854,5.97647 -12.67012,9.76726 -21.13394,9.76726h-24.62306c-0.35859,-0.44397 -0.71718,-0.89362 -1.07576,-1.34328c9.10131,-3.52327 17.63913,-6.5855 25.19225,-7.91171c4.82671,-0.79686 9.08993,-1.14976 12.95471,-1.14976" fill="#afdbde"/><path d="M373.04762,146.56022c3.9274,0 7.11485,3.18745 7.11485,7.11485c0,3.9274 -3.18745,7.11485 -7.11485,7.11485h-14.22969c-3.9274,0 -7.11485,-3.18745 -7.11485,-7.11485c0,-3.9274 3.18745,-7.11485 7.11485,-7.11485h14.22969" fill="#99d3b5"/></g></g></g></svg>