<svg version="1.1" xmlns="http://www.w3.org/2000/svg" xmlns:xlink="http://www.w3.org/1999/xlink" width="770.89367" height="770.89367" viewBox="0,0,770.89367,770.89367"><g transform="translate(148.44983,212.95432)"><g data-paper-data="{&quot;isPaintingLayer&quot;:true}" stroke-linecap="butt" stroke-linejoin="miter" stroke-miterlimit="10" stroke-dasharray="" stroke-dashoffset="0" style="mix-blend-mode: normal"><g fill="#00a6ff" fill-rule="nonzero" stroke="none" stroke-width="1"><path d="M236.99692,557.93918c-212.87603,0 -385.44675,-172.57039 -385.44675,-385.44675c0,-212.87603 172.57039,-385.44675 385.44692,-385.44675c212.87636,0 385.44675,172.57039 385.44675,385.44692c0,212.87603 -172.57039,385.44675 -385.44675,385.44675z"/><path d="M543.23198,142.37419c-100.36105,-100.36105 -200.71064,-200.71064 -301.0717,-301.0717c178.86656,2.74709 323.29081,147.16004 326.02693,326.02693z"/><path d="M391.29507,465.4223c-149.76334,-148.51688 -298.61153,-297.96054 -446.79727,-448.04406c45.85026,-86.25056 128.4602,-149.9841 227.14407,-169.73192l390.21281,390.21281c-19.82495,98.99291 -83.90061,181.81247 -170.55945,227.56333z"/><path d="M-45.97041,104.90851c127.04816,128.37192 254.86835,255.97151 383.06356,383.18491c-31.61858,10.02851 -65.15671,15.72102 -100.09607,15.72102c-182.98196,0 -331.32213,-148.34034 -331.32213,-331.32213c0,-35.10493 5.7477,-68.80848 15.86464,-100.55954c10.84474,10.97723 21.63445,22.00932 32.49017,32.97575z"/></g><path d="M11.90783,180.19958c0,-126.08207 102.20968,-228.29175 228.29175,-228.29175c126.08207,0 228.29175,102.20968 228.29175,228.29175c0,126.08207 -102.20968,228.29175 -228.29175,228.29175c-126.08207,0 -228.29175,-102.20968 -228.29175,-228.29175z" fill="#0077b8" fill-rule="evenodd" stroke="#ffffff" stroke-width="5"/><path d="M11.50867,179.80042c0,-126.08207 102.20968,-228.29175 228.29175,-228.29175c126.08207,0 228.29175,102.20968 228.29175,228.29175c0,126.08207 -102.20968,228.29175 -228.29175,228.29175c-126.08207,0 -228.29175,-102.20968 -228.29175,-228.29175z" fill="#00a6ff" fill-rule="evenodd" stroke="none" stroke-width="1"/><path d="M14.78515,141.1724c-0.37422,2.18714 -0.71519,4.39083 -1.02284,6.5946c0.30772,-2.24533 0.64862,-4.44909 1.02284,-6.5946z" fill="#ffffff" fill-rule="evenodd" stroke="none" stroke-width="1"/><path d="M16.58144,138.62774c-0.6832,0.7713 -1.29033,1.60681 -1.81292,2.49479c0.29941,-1.74085 0.61537,-3.47057 0.94802,-5.18922v-0.04988c0.34097,-1.72972 0.69857,-3.44281 1.07279,-5.15597c0.54352,0.2217 1.04859,0.52756 1.49689,0.90646c0.92308,0.79001 1.93761,2.20377 1.66321,3.50107c-0.32435,1.54676 -2.32846,2.37009 -3.36799,3.49276z" fill="#ffffff" fill-rule="evenodd" stroke="none" stroke-width="1"/><path d="M42.26134,69.96225c-1.15384,1.07739 -2.5031,1.92418 -3.97505,2.49479c0.83721,-1.58001 1.69647,-3.14348 2.57799,-4.69024c6.1489,-10.83461 13.17442,-21.14767 21.00628,-30.83587c1.26406,-1.56895 2.54748,-3.1241 3.85035,-4.6653c1.60666,0.44725 3.03942,1.37249 4.10812,2.6528c1.62996,1.98756 1.36381,3.04365 0.31603,4.70686c0.96591,-0.11964 1.91304,-0.3599 2.81913,-0.71519c1.0909,-0.28167 2.23553,-0.28167 3.32643,0c2.1622,0.60705 3.87529,2.30352 5.18922,4.04993c2.13719,2.83576 3.50107,6.22869 5.05615,9.40541l4.93969,10.08736c1.41376,2.87732 4.09981,9.10608 -0.05819,11.19339c-1.54483,0.67059 -3.33838,0.38521 -4.5988,-0.73182c-0.88983,-0.67363 -2.17051,-2.63618 -3.44281,-3.21829c0.42521,3.57225 1.4191,7.0535 2.9439,10.31187c0.24701,0.45891 0.20144,1.02009 -0.11645,1.43313c-0.31789,0.41304 -0.84864,0.60082 -1.3555,0.47954c-1.16735,-0.25502 -2.37291,-0.2833 -3.55095,-0.08313c0.59874,2.75263 0.54055,5.58838 -1.95423,7.44287c-0.35055,0.19921 -0.77308,0.22652 -1.14627,0.07392c-0.37318,-0.15252 -0.65574,-0.46796 -0.76633,-0.85562c-2.62875,-7.87112 -8.55492,-14.20713 -16.23292,-17.35558c-0.52942,-0.18615 -0.88367,-0.68617 -0.88367,-1.24743c0,-0.56118 0.35426,-1.06128 0.88367,-1.24743c2.96052,-0.78169 6.16219,-0.71519 9.03951,-1.78798c1.50995,-0.4719 2.81104,-1.4499 3.68403,-2.76925c0.7235,-1.3555 -0.01663,-2.71938 -0.41579,-4.0915c-1.39706,-4.76505 -3.45112,-11.35141 -9.51355,-11.48441c-5.8794,-0.15802 -4.63205,7.04371 -6.15387,10.81086c-1.30562,3.11022 -4.025,5.45531 -7.48443,4.28277c-1.25574,-0.4241 -2.63618,-1.51351 -3.91686,-0.5738c-0.68313,0.67838 -1.20846,1.49896 -1.53845,2.40335c-0.75676,1.59671 -1.38043,3.24323 -2.63618,4.52391z" fill="#ffffff" fill-rule="evenodd" stroke="none" stroke-width="1"/><path d="M125.2637,283.74256c1.98756,6.91894 -5.39712,10.52808 -7.63413,16.06659c-2.736,6.7443 -0.05819,14.44494 -3.10191,21.19755c-1.217,2.73266 -3.42507,4.90214 -6.17881,6.07067c-3.36799,1.5052 -6.78586,2.24533 -9.50524,4.91476c-4.97302,4.88151 -7.01038,12.43244 -10.28694,18.78589c-2.63618,-2.30352 -5.13096,-4.68193 -7.62582,-7.1019c-4.12475,-3.99998 -8.11642,-8.12473 -11.92521,-12.42412c-6.12767,-6.90009 -11.83184,-14.16497 -17.08111,-21.75472c-13.68454,-19.7711 -24.14323,-41.58958 -30.98557,-64.64057l0.09144,0.04988c5.03952,-4.10812 8.16637,-12.51564 15.95013,-10.36175c0.38617,0.11549 0.69916,0.3999 0.85109,0.77323c0.15193,0.37333 0.12647,0.7955 -0.06932,1.14775c-0.20789,0.44904 -0.40747,0.90646 -0.61537,1.36381l13.30565,1.70478c3.67571,0.46566 8.54059,0.24114 11.16014,3.25985c1.12266,1.29731 1.69647,2.96883 2.78588,4.28277c1.37398,1.50898 3.12054,2.63031 5.06446,3.25154c3.20166,1.18917 6.70274,1.58833 9.85452,2.96883c2.65466,1.04956 4.95023,2.84266 6.61122,5.16429c0.72989,1.09186 1.18367,2.34471 1.32224,3.65078c0.19127,1.94592 -0.49067,3.04365 1.45532,4.36589c1.94592,1.32224 4.36589,2.23702 6.46991,3.32643c1.75466,0.91477 3.50107,1.89605 5.28898,2.72769c3.68403,1.76297 7.32641,1.11435 11.09357,2.20377c1.42252,0.43724 2.70847,1.2334 3.7339,2.31183c0.46967,0.54582 0.97237,1.0624 1.5052,1.54676c1.03954,0.81494 2.28689,0.79832 3.53432,1.03122c2.44491,0.45735 4.27445,1.67153 4.93138,4.11644z" fill="#ffffff" fill-rule="evenodd" stroke="none" stroke-width="1"/><path d="M13.64712,185.39296c-0.63771,-0.36487 -1.41606,-0.38521 -2.07195,-0.05403c-0.0665,-1.84617 -0.0665,-3.68403 -0.0665,-5.53851c0,-1.72422 0.03325,-3.45112 0.09983,-5.18091c0,-0.54886 0,-1.10604 0,-1.66321c0.04156,-1.19748 0.08313,-2.40335 0.14139,-3.60082c0.03325,-0.74844 0.10814,-1.49689 0.10814,-2.23702c0.0665,-1.30562 0.1497,-2.53642 0.24114,-3.8004c0.0665,-1.03122 0.15802,-2.05406 0.24114,-3.0769l0.18295,-1.31393c0.33815,-3.74778 0.76781,-7.4733 1.28899,-11.17677c0.56549,0.66532 1.44701,0.89815 2.71938,0.14139c1.27237,-0.75676 1.82123,-2.21208 2.25364,-3.54264c0.83157,-2.54474 1.38043,-7.80046 4.61542,-8.63203c2.66111,-0.67363 3.90023,2.46153 4.03331,4.52391c0.01403,1.5648 -0.17605,3.12477 -0.56549,4.64036c3.62576,-2.96883 9.2474,-6.70274 3.25985,-10.09567c-1.8809,-0.97608 -3.35441,-2.58801 -4.158,-4.54885c-1.09773,-2.37841 -2.45322,-3.74222 -5.11434,-4.158c-0.9524,-0.1402 -1.91482,-0.20136 -2.87732,-0.18295c0.89815,-3.70896 1.89605,-7.39299 2.96883,-11.03538c0.09144,-0.29941 0.18295,-0.59874 0.26608,-0.88983c0.32435,-1.0811 0.657,-2.1622 0.9979,-3.23492c0.12477,-0.37422 0.25777,-0.80663 0.39085,-1.20579c0.51561,-1.59671 1.04785,-3.19335 1.59671,-4.77344l0.83157,-2.33677l0.79001,-2.1622c0.3576,-0.93971 0.71519,-1.88773 1.0811,-2.82744c0.21621,-0.55718 0.4241,-1.11435 0.6403,-1.66321c0.657,0.49067 1.29731,0.97296 1.89605,1.4387c6.25363,4.96471 11.38466,12.81497 9.72145,20.98966c1.86279,0 3.37631,-1.54676 3.94179,-3.39293c0.71519,-2.37009 0.00831,-4.96471 -0.54055,-7.30148c-0.10502,-0.3933 -0.02301,-0.81302 0.22222,-1.13781c0.2453,-0.32486 0.6265,-0.51866 1.03353,-0.52534c3.03615,0.44904 6.00172,-1.17061 7.26503,-3.9677c1.26331,-2.79709 0.51776,-6.09286 -1.82635,-8.07389c-0.28419,-0.28634 -0.41994,-0.68795 -0.36791,-1.088c0.05203,-0.40005 0.28605,-0.75356 0.63399,-0.95767c4.71532,-1.9316 8.0347,-6.24101 8.69853,-11.29315c0.01373,-0.46143 0.26564,-0.88278 0.66561,-1.11324c0.39998,-0.23046 0.89087,-0.23721 1.29694,-0.01774c4.2412,1.81292 9.13102,4.17463 11.07694,8.66528c1.10604,2.52811 0.13308,6.27864 3.0104,7.6092c3.40956,1.5717 6.85244,-1.09773 9.40541,-3.11022c0.38127,-0.34965 0.93058,-0.44666 1.40856,-0.24871c0.47798,0.19795 0.79787,0.655 0.82014,1.1718c1.09669,10.05648 3.90943,19.85051 8.316,28.95645c0.28672,0.51316 0.1978,1.15436 -0.21791,1.56999c-0.41571,0.41571 -1.0569,0.50463 -1.57007,0.21791c-2.37009,-1.26406 -5.43868,1.91267 -7.48443,2.84407c-2.35347,1.07279 -4.64867,0.89815 -7.08527,0.18295c-3.12685,-0.91477 -5.8794,-1.87111 -9.14765,-1.03954c-2.27903,0.58523 -4.33353,1.83236 -5.90442,3.5842l7.95848,0.18295c0.40725,0.00742 0.78867,0.20099 1.03508,0.52526c0.24649,0.32427 0.3308,0.74362 0.22897,1.13795c-0.77843,3.95174 0.59867,8.01979 3.61745,10.68609c0.31715,0.33355 0.43805,0.80789 0.31922,1.2524c-0.11883,0.44458 -0.46017,0.7955 -0.90134,0.92635c-2.17051,0.68194 -4.34927,1.51351 -6.56135,2.04575c-1.12927,0.3999 -2.38108,0.24263 -3.37631,-0.4241c-1.11435,-0.83988 -1.77128,-2.29521 -2.38672,-3.59251c-0.2312,0.40873 -0.51042,0.78837 -0.83157,1.13098c-1.38043,1.45532 -3.25985,1.67153 -5.08108,2.28689c-2.56967,0.8649 -5.5302,3.29318 -4.09981,6.3202c0.22348,0.40673 0.21895,0.90052 -0.01202,1.30302c-0.23098,0.4025 -0.655,0.65559 -1.11895,0.66784c-5.07938,0.4906 -9.7354,3.04254 -12.88155,7.06033c-0.68194,0.83988 -1.87111,0.24946 -2.17883,-0.58211c-0.00453,-0.02754 -0.00453,-0.05559 0,-0.08313c0.0665,1.68815 0.64862,3.44281 0.5073,5.10602c-0.17449,1.64659 -0.85087,3.19981 -1.93761,4.44909c-2.67774,3.26817 -6.81911,4.34095 -10.22043,6.5946c-8.04161,5.31392 -0.52392,15.86701 -5.31392,22.90233c-0.20812,0.34557 -0.56267,0.57722 -0.96279,0.6291c-0.40005,0.05181 -0.80188,-0.08187 -1.09127,-0.36294c-1.83823,-2.17059 -2.95703,-4.8585 -3.20166,-7.69232c-0.13308,-1.7214 0.54886,-3.38462 0.4241,-5.04783c-0.04683,-0.73323 -0.45876,-1.39394 -1.09646,-1.75881z" fill="#ffffff" fill-rule="evenodd" stroke="none" stroke-width="1"/><path d="M23.03465,213.07288c-2.24533,-0.61537 -4.49066,-0.80663 -6.29526,-2.41997c-1.19748,-1.06448 -1.9293,-2.37009 -3.5177,-2.88563c-0.20789,-1.71309 -0.39916,-3.42618 -0.5738,-5.15597c0.89815,0.29941 1.76297,0.69025 2.49479,1.00621c1.59656,0.69226 3.12737,1.52724 4.57379,2.49479c1.28068,0.8649 2.45322,2.11225 3.82534,2.81082c1.82954,0.92308 3.99998,0.5073 5.98754,0.49067c1.98756,-0.01663 3.96673,0.0665 5.95429,0.19127c1.03122,0.07481 1.85448,1.44701 0.92308,2.2287c-1.89605,1.59671 -4.08319,3.35137 -6.65286,3.57589c-2.66111,0.22452 -4.29939,-1.64659 -6.71936,-2.33677z" fill="#ffffff" fill-rule="evenodd" stroke="none" stroke-width="1"/><path d="M41.62935,215.3764c2.44491,0.0665 5.58838,1.37212 4.025,4.34927c-0.23135,0.40443 -0.66517,0.65003 -1.13098,0.6403c-2.71099,-0.17464 -4.88982,0.61537 -7.48443,1.03954c-1.23956,0.25985 -2.5316,0.03355 -3.60914,-0.63199c-0.38372,-0.05507 -0.72892,-0.26267 -0.95745,-0.57581c-0.2286,-0.31306 -0.32108,-0.70517 -0.25666,-1.08741c0.0311,-0.53766 0.34869,-1.0172 0.83157,-1.25574c0.78169,-0.98127 1.62996,-2.1622 2.8025,-2.49479c1.69647,-0.49067 4.04162,-0.03325 5.77965,0.01663z" fill="#ffffff" fill-rule="evenodd" stroke="none" stroke-width="1"/><path d="M68.2822,29.18042c1.61883,-1.87942 3.28212,-3.72559 4.98964,-5.53851c0.1814,0.2617 0.33733,0.54018 0.46566,0.83157c1.24743,2.76925 -0.73182,4.89813 -3.53432,4.89813c-0.64424,-0.01544 -1.2864,-0.07934 -1.92098,-0.19127z" fill="#ffffff" fill-rule="evenodd" stroke="none" stroke-width="1"/><path d="M79.0538,21.83144c-0.49149,0.20136 -1.05572,0.08899 -1.43261,-0.28516c-0.45186,-0.35864 -0.9331,-0.67853 -1.4387,-0.95634c1.25292,-1.28068 2.51972,-2.55305 3.8004,-3.81703c0,0.19958 0,0.39916 0,0.61537c-0.03325,1.0811 -0.10814,2.15389 -0.10814,3.23492c-0.00616,0.53105 -0.32954,1.00688 -0.82103,1.20817z" fill="#ffffff" fill-rule="evenodd" stroke="none" stroke-width="1"/><path d="M82.00363,14.8103c1.56339,-1.48857 3.15179,-2.96052 4.74843,-4.41584c0.09983,-0.08313 0.19958,-0.16633 0.29109,-0.25777c1.47195,-1.32224 2.96052,-2.61955 4.46572,-3.90854l0.66532,-0.56549c1.44701,-1.21975 2.91064,-2.4366 4.39083,-3.65078l0.5073,-0.40747c1.62996,-1.30837 3.27655,-2.59461 4.93969,-3.85867c3.05196,0.69025 6.49484,0.59043 8.7568,3.2266c0.3167,0.33399 0.43827,0.80797 0.32152,1.25322c-0.11682,0.44525 -0.45542,0.79839 -0.89533,0.93392l-6.65286,1.85448c-1.74634,0.48236 -3.82534,0.76507 -5.3888,1.7214c-1.41376,0.85658 -1.89605,2.46153 -3.50107,3.0769c-1.34718,0.52392 -2.71099,0.25777 -4.09981,0.25777c-2.86901,0.04988 -1.84617,1.44701 -2.86901,3.24323c-0.53291,0.90735 -1.45228,1.52027 -2.49479,1.66321c-1.07279,0.22452 -2.1622,-0.16633 -3.18504,-0.16633z" fill="#ffffff" fill-rule="evenodd" stroke="none" stroke-width="1"/><path d="M156.38227,71.05998c-1.58818,0.29599 -3.11483,0.85836 -4.5156,1.66321c-1.23912,0.79001 -2.05406,1.96255 -3.11022,2.95221c-2.00419,1.86279 -4.0083,1.98756 -6.65286,1.86279c-6.54472,-0.30772 -9.4803,6.17881 -11.53437,11.39297c-1.77128,4.49066 -3.70896,8.98963 -7.96679,11.64243c-0.40614,0.22867 -0.90267,0.22667 -1.30688,-0.00527c-0.40428,-0.23194 -0.65648,-0.65967 -0.66398,-1.12571c-0.19312,-2.39555 -1.69825,-4.48672 -3.90854,-5.43037c-1.13098,-0.47405 -2.49479,-0.60705 -3.32643,-1.5717c-1.03122,-1.13929 -0.67363,-2.34516 -0.59043,-3.71728c0.13308,-2.41166 -0.79001,-4.28277 -1.82123,-6.41995c-1.44701,-2.99377 -2.31183,-5.87109 -1.89605,-9.19752c0.39916,-3.23492 1.71309,-6.25363 3.00208,-9.21415c1.48026,-3.50107 3.25154,-7.18502 3.32643,-11.08525c0.07481,-4.57379 -2.51141,-8.14143 -4.91476,-11.7672c-2.079,-3.15179 -1.36381,-7.3181 -3.95842,-10.11229c-2.39006,-2.6004 -6.14853,-3.43375 -9.41373,-2.08731c-0.35055,0.19921 -0.77308,0.22645 -1.14634,0.07392c-0.37318,-0.15252 -0.65574,-0.46796 -0.76633,-0.85562c-0.33793,-1.43313 -0.05722,-2.94226 0.77338,-4.158l-3.0769,-1.00621c-0.43976,-0.13293 -0.7791,-0.48466 -0.89614,-0.92895c-0.11697,-0.44429 0.00497,-0.91752 0.32234,-1.2498c0.52452,-0.65685 1.15733,-1.21937 1.87111,-1.66321c-1.39929,-1.25396 -2.21037,-3.036 -2.23702,-4.91476c0.00453,-0.7192 0.58642,-1.30109 1.30562,-1.30562l8.183,-0.04156l-1.0811,-4.05825c-0.10859,-0.39359 -0.02791,-0.81524 0.21806,-1.14107c0.24597,-0.32583 0.62947,-0.5188 1.03768,-0.52222c4.56547,0.5073 7.95009,-0.95634 12.0499,-2.61955c2.87732,-1.18917 6.16219,-1.13098 9.23077,-1.06448c2.73719,-0.0455 5.4562,0.45193 8.00004,1.46364c1.30606,0.58352 2.49085,1.40723 3.49276,2.42828l0.74844,0.83157c0.67363,0.53224 0.89815,0.53224 0.67363,0c0.13308,-0.29941 -0.22452,-1.25574 -0.18295,-1.66321c0.19958,-2.19545 2.29521,-3.49276 4.29108,-3.7339c1.99587,-0.24114 3.90854,0.40747 5.90442,-0.09983c1.74634,-0.45735 3.35968,-1.42207 5.07277,-2.02912c2.5863,-0.91477 5.80459,-1.20579 7.86696,0.94802c0.91165,0.92791 1.42497,2.17519 1.43038,3.47613c4.16631,-0.83157 11.16014,-2.07069 11.70069,2.49479c0.11823,0.96472 -0.21279,1.93034 -0.89815,2.61955c0.84538,-0.02538 1.6889,0.0927 2.49479,0.34928c0.43991,0.13553 0.7785,0.48874 0.89533,0.934c0.11682,0.44525 -0.00482,0.91915 -0.32152,1.25314c-2.42828,2.5031 1.31393,1.03954 2.56136,0.657c1.31683,-0.39849 2.69244,-0.56734 4.06656,-0.49899c2.7435,0.13746 5.36899,1.15844 7.48443,2.91064c0.33815,0.32961 0.469,0.81777 0.34097,1.27237c-0.98959,4.0083 -5.77134,2.66943 -7.87528,5.37218c-1.24743,1.59671 -1.03954,4.025 -1.33887,5.92936c-0.32323,1.7695 -1.0238,3.4486 -2.05406,4.92307c-2.61955,4.34095 1.13929,10.3285 -1.27237,14.86072c-1.03382,2.04939 -3.51042,2.90441 -5.58838,1.9293l-0.9979,1.38875c3.26683,2.97106 3.59756,7.99425 0.74844,11.36804c-0.24523,0.30015 -0.63221,0.44607 -1.01452,0.38253c0.36932,0.39723 0.43041,0.99122 0.1497,1.45532c-2.66943,4.815 -8.14975,5.33054 -12.9148,6.45321z" fill="#ffffff" fill-rule="evenodd" stroke="none" stroke-width="1"/><path d="M171.89168,91.69204c-2.39503,-0.19127 -5.8129,-0.73182 -7.30148,-2.85238c-1.66321,-2.37841 -0.14139,-6.37008 -2.59461,-8.25781c-0.71601,-0.99322 -0.71601,-2.33321 0,-3.32643c1.3555,-2.32846 3.08521,-1.62165 4.47403,-1.26406c1.21744,0.32056 2.30649,1.00888 3.11854,1.97093c1.42207,1.64659 2.30352,2.51141 4.61542,1.89605c3.11854,-0.83157 5.67982,-3.61745 9.14765,-3.0104c2.57799,0.47405 2.26195,2.54474 1.83786,4.63205c-0.5738,2.85238 -1.26406,6.36177 -3.84204,8.07486c-2.84296,1.70329 -6.15625,2.45218 -9.45536,2.13719z" fill="#ffffff" fill-rule="evenodd" stroke="none" stroke-width="1"/><path d="M230.69701,33.47498c-0.43286,-0.11786 -0.77553,-0.44852 -0.90906,-0.8767c-0.63199,-3.02702 -4.2412,-4.33264 -3.62576,-7.88359c0.52392,-3.10191 3.32643,-4.42416 6.17881,-3.93348c0.37615,0.05722 0.69322,0.31084 0.83157,0.66532c1.33056,-0.54055 2.61955,-2.09563 3.45112,-2.75263c0.97615,-0.8021 2.10921,-1.39127 3.32643,-1.72972c2.53642,-0.67363 5.26404,-0.24114 7.75882,0.38253c1.78798,0.44904 4.19956,0.97296 4.63205,3.10191c0.33266,1.74634 -1.16423,3.50938 -2.67774,3.95842c-1.51351,0.44904 -3.02702,-0.07481 -4.46572,-0.46566c-0.97296,-0.24114 -1.41376,-0.54886 -2.40335,0c-1.26406,0.73182 -0.77338,1.09773 -0.77338,2.39503c0.04156,2.56967 -0.40747,5.32223 -2.63618,6.93557c-1.33056,0.95634 -3.46782,1.34718 -4.69855,0c-0.55977,-0.60943 -0.78095,-1.45673 -0.59043,-2.26195l-0.0665,0.07481c-0.60705,0.74013 -1.43038,1.42207 -2.10394,2.09563c-0.33221,0.30141 -0.79528,0.41245 -1.22813,0.29458z" fill="#ffffff" fill-rule="evenodd" stroke="none" stroke-width="1"/><path d="M334.74454,236.51576c-3.20998,14.74434 -16.51562,23.49283 -24.00005,35.83383c-2.0672,3.26757 -3.50827,6.89126 -4.24951,10.68609c-0.78169,4.49066 0.33266,8.69853 1.01452,13.10607c0.83988,5.48856 0.25777,12.29943 -5.37218,15.04368c-1.42207,0.69857 -3.06027,0.9314 -4.24951,2.21208c-1.18917,1.28068 -1.36381,3.17673 -1.5052,4.83994c-0.23283,2.75263 -0.28278,5.39712 -1.27237,8.02498c-2.1622,5.77134 -6.37008,10.7693 -10.12061,15.57591c-3.37631,4.33264 -5.96261,10.12061 -10.66947,13.18088c-3.01871,1.97925 -7.11852,2.20377 -10.61959,2.49479c-3.11022,0.24946 -7.45949,0.89815 -10.42001,-0.41579c-1.97093,-0.87321 -3.01871,-3.76715 -3.85035,-5.57176c-1.2458,-2.71633 -2.25579,-5.5348 -3.01871,-8.42414c-1.85448,-6.7443 -3.5842,-13.41379 -5.60501,-20.17471c-2.02081,-6.76093 -3.44281,-13.77138 -2.41997,-20.83164c0.5738,-3.97505 1.67984,-7.86696 1.28899,-11.9169c-0.34023,-3.40525 -1.48004,-6.68203 -3.32643,-9.56343c-1.6549,-2.57799 -4.49897,-4.44078 -5.7464,-7.24329c-1.24743,-2.8025 -0.17464,-5.54682 0.83157,-8.22456c0.6403,-1.63828 1.4387,-3.64239 0.83157,-5.40543c-0.66532,-1.93761 -2.74432,-1.89605 -4.36589,-2.49479c-2.12888,-0.78169 -3.76715,-2.30352 -5.52188,-3.68403c-1.33887,-1.05616 -2.96883,-2.39503 -4.815,-1.96255c-1.26406,0.29941 -2.26195,1.37212 -3.32643,2.11225c-2.32846,1.62165 -4.87319,1.74634 -7.61751,1.56339c-2.12888,-0.1497 -4.18294,-0.3576 -6.237,0.38253c-1.36381,0.49067 -2.61955,1.25574 -3.93348,1.86279c-2.17051,0.98959 -4.47403,1.6549 -6.85244,0.98959c-2.71938,-0.75676 -4.80669,-2.84407 -6.71105,-4.80669c-2.49479,-2.56967 -5.13927,-5.0894 -7.42624,-7.83371c-2.08731,-2.49479 -2.0125,-4.98133 -2.84407,-7.95009c-0.79001,-2.70268 -3.32643,-3.63408 -4.98964,-5.69645c-1.37027,-1.60339 -1.46638,-3.93578 -0.23283,-5.64657c0.83988,-1.32224 2.0125,-2.32014 2.079,-3.98336c0.03436,-1.77737 -0.98298,-3.40778 -2.59461,-4.158c-0.39879,-0.23795 -0.64461,-0.66665 -0.64862,-1.13098c-0.24701,-4.68408 1.45347,-9.2618 4.69855,-12.64872c0.92308,-0.93971 2.07069,-1.62165 2.97715,-2.55305c1.25574,-1.28899 0.9979,-2.5031 1.25574,-4.04993c0.25309,-1.56346 1.44931,-2.80614 3.00208,-3.11854c1.90436,-0.53224 3.79209,-0.22452 5.10602,-1.99587c0.98959,-1.34718 1.30562,-3.17673 1.66321,-4.78175c0.71519,-3.32643 1.46364,-6.61122 4.04162,-9.05613c6.40333,-6.06236 15.84207,-3.56757 23.67578,-4.11644c2.97774,-0.24864 5.86753,-1.13335 8.47402,-2.59461c1.61334,-0.83157 3.35968,-1.77967 5.23079,-1.77967c3.98336,-0.08313 5.03121,3.34306 6.61122,6.237c1.34718,2.47816 3.5177,2.82744 6.01248,3.65909c1.70055,0.56081 3.28242,1.43217 4.6653,2.56967c1.87111,1.5052 3.74222,3.82534 6.18712,4.35758c1.23912,0.26608 3.50107,-0.13308 4.25783,-1.3555c-0.90646,-2.27858 0.98127,-4.65699 3.42618,-4.91476c2.22039,-0.24946 4.5988,0.80663 6.65286,1.41376l7.40962,2.17883c3.76715,1.11435 8.08317,1.93761 10.85242,4.69855c2.76925,2.76094 5.08108,6.16219 7.43455,9.28072c2.60478,3.38818 4.98816,6.94099 7.13515,10.63622c2.02912,3.59251 3.44281,7.44287 5.35555,11.07694c2.00419,3.80872 5.31392,6.12893 7.87528,9.45536c1.99587,2.5863 3.21829,6.96882 6.65286,7.99173c3.05196,0.89815 6.43658,-1.26406 9.14765,-2.33677c2.56967,-1.01452 5.2391,-1.66321 7.90022,-0.59043c0.61225,0.24812 0.95656,0.90149 0.81494,1.54676z" fill="#ffffff" fill-rule="evenodd" stroke="none" stroke-width="1"/><path d="M332.09174,305.92138c-0.63013,2.69385 -1.63509,5.28601 -2.98546,7.70064c-1.53845,3.0104 -3.45112,5.5302 -4.21626,8.9065c-0.5738,2.52811 -0.94802,5.16429 -2.37841,7.39299c-1.76297,2.736 -7.12683,5.58838 -8.79005,1.07279c-1.43038,-3.93348 -0.74844,-8.94807 2.19545,-11.9169c-1.03976,-3.80567 -0.25658,-7.87847 2.12056,-11.02707c1.63828,-2.12056 3.90854,-2.93558 5.92936,-4.74011c2.02081,-1.80461 3.24323,-4.29939 4.44078,-6.65286c0.30438,-0.50077 0.90356,-0.73939 1.46883,-0.58501c0.56534,0.15438 0.96012,0.66435 0.96777,1.25032c-0.15802,2.98546 1.80461,5.47193 1.24743,8.59878z" fill="#ffffff" fill-rule="evenodd" stroke="none" stroke-width="1"/><path d="M188.77322,116.12457c0.21487,-0.57291 0.83402,-0.88427 1.42207,-0.71519c0.58783,-0.13033 1.20008,-0.09879 1.77128,0.09144c0.39953,0.11957 0.712,0.43211 0.83157,0.83157c1.01007,0.42632 1.91312,1.07101 2.64449,1.88773c1.42207,1.6549 1.46364,3.98336 1.77967,6.04573c0.24946,1.60503 0.58211,3.14348 -1.2141,3.85035c-2.57739,0.92271 -5.24942,1.55582 -7.96679,1.88773c-1.60503,0.21621 -3.27655,-0.04156 -3.90023,-1.83786c-0.62368,-1.79629 0.54886,-3.15179 1.70478,-4.29108c0.65047,-0.55762 1.1364,-1.28224 1.40545,-2.09563c0.02999,-0.80151 0.01054,-1.60414 -0.05819,-2.40335c0.0377,-0.89317 0.32583,-1.7577 0.83157,-2.49479c0.21294,-0.2859 0.46492,-0.54062 0.74844,-0.75676z" fill="#ffffff" fill-rule="evenodd" stroke="none" stroke-width="1"/><path d="M199.43437,113.82929c-0.98743,-2.28489 -1.22049,-4.82517 -0.66532,-7.2516c0.30772,-1.41376 1.02284,-2.41166 2.54474,-2.49479c2.95221,-0.16633 3.55095,0.7235 4.69024,3.59251c1.20579,3.04365 3.85035,5.15597 5.04783,8.2495c0.61537,1.49399 0.86349,3.11379 0.7235,4.72349c-0.08313,0.81494 -0.36591,1.51351 -0.52392,2.34516c-0.29109,1.47195 0.0665,2.69437 0.21621,4.158c0.29941,2.82744 -1.19748,3.45943 -3.57589,4.35758c-2.02912,0.74844 -6.54472,2.27027 -8.15806,-0.08313c-1.44701,-2.17883 0.66532,-6.35345 1.66321,-8.316c1.18085,-2.2287 1.95423,-3.77547 0.34928,-5.96261c-0.89458,-1.0143 -1.67027,-2.12754 -2.31183,-3.31812z" fill="#ffffff" fill-rule="evenodd" stroke="none" stroke-width="1"/><path d="M409.21463,243.24344c0.50997,1.32284 0.68973,2.75003 0.52392,4.158c0.07415,1.43966 -0.02353,2.88289 -0.29109,4.29939c-0.58211,2.31183 -3.20998,3.44281 -4.98964,1.48026c-0.9314,-1.02284 -1.03122,-2.39503 -1.03122,-3.70896c-0.05819,-1.96255 0,-3.93348 0,-5.90442c0.00356,-0.21205 0.05774,-0.42024 0.15802,-0.60705c0.02405,-0.2862 0.14421,-0.55584 0.34097,-0.76507c1.58001,-1.76297 4.3077,-0.94802 5.28898,1.04785z" fill="#ffffff" fill-rule="evenodd" stroke="none" stroke-width="1"/><path d="M453.35614,260.65721c-0.49067,1.28068 -0.93971,2.48647 -1.48857,3.83366c-0.54886,1.34718 -1.09773,2.69437 -1.66321,4.025c-0.98127,-1.49689 -1.95423,-2.99377 -2.9439,-4.49066l-3.89192,-5.8961c-1.18917,-1.79629 -2.32846,-3.81703 -4.44909,-4.60711c-1.37212,-0.01663 -1.85448,-2.19545 -0.34097,-2.55305h0.09983c0.11237,-0.03963 0.23016,-0.06212 0.34928,-0.0665c3.30149,-0.55718 5.7464,1.39706 7.91684,3.77547c2.01458,2.12064 4.15577,4.11733 6.41164,5.97923z" fill="#ffffff" fill-rule="evenodd" stroke="none" stroke-width="1"/><path d="M298.94404,42.04534c3.23492,-3.84204 6.65286,-7.55093 9.97922,-11.32647l4.98964,-5.65489c1.31393,-1.5052 2.55305,-3.23492 4.21626,-4.40753c2.22039,-1.55508 5.43037,-1.7214 6.65286,1.07279c1.22249,2.79419 -0.54886,5.47193 -2.79419,7.04371c-3.90854,2.736 -14.51151,12.15804 -10.07073,17.2225c1.60503,1.82954 0,6.96882 -0.95634,7.30979c-0.71519,1.52182 -4.60711,1.1476 -4.48235,0.83157c-2.6528,-0.6403 -2.96052,-0.70688 -4.98964,-2.66111c-2.56967,-2.46985 -5.13096,-6.25363 -2.54474,-9.43035z" fill="#ffffff" fill-rule="evenodd" stroke="none" stroke-width="1"/><path d="M466.68123,179.80042c-0.00557,1.72422 -0.02768,3.44837 -0.0665,5.1726c0,0.37422 0,0.74844 0,1.11435c-0.04156,1.48026 -0.09983,2.9439 -0.16633,4.41584c-0.03325,0.70688 -0.10814,1.41376 -0.10814,2.11225c-0.04988,0.98127 -0.11645,1.96255 -0.18295,2.93558c-0.09144,1.30562 -0.18295,2.53642 -0.29109,3.8004c-0.05819,0.20789 -0.05819,0.40747 -0.05819,0.61537c-0.17739,2.04018 -0.38253,4.06931 -0.61537,6.08737c-0.1719,1.55233 -0.36316,3.09917 -0.5738,4.64036c-0.28835,2.08457 -0.60149,4.16357 -0.93971,6.237c-0.04988,0.34097 -0.10814,0.68194 -0.16633,1.02284c-0.26608,1.54127 -0.5433,3.0769 -0.83157,4.60711c-0.12477,0.64862 -0.24114,1.29731 -0.37422,1.93761c-0.15802,0.80663 -0.32435,1.58833 -0.49067,2.41997c-0.26608,1.28068 -0.54886,2.56136 -0.83157,3.83366c-0.13308,0.58211 -0.27439,1.16423 -0.41579,1.74634c-0.28278,1.13098 -0.54886,2.2287 -0.83157,3.32643l-0.34928,1.41376c-0.82051,3.16567 -1.71035,6.30632 -2.66943,9.42204c-0.51005,1.66321 -1.04228,3.32643 -1.59671,4.98964v0.0665c-0.55992,1.66321 -1.13098,3.32643 -1.71309,4.98964c-2.53494,-3.18214 -4.61713,-6.69999 -6.18712,-10.45326c-1.54528,-3.82015 -2.59602,-7.82206 -3.12685,-11.90859c-0.59874,-4.12475 -1.06448,-8.28275 -2.98546,-11.99171c-1.59671,1.28899 -3.67571,2.02081 -5.25573,0.15802c-1.1476,-1.34718 -1.56339,-3.35968 -2.32846,-4.93969c-0.93793,-1.91965 -2.01057,-3.77042 -3.20998,-5.53851c-1.3555,-1.99587 -2.76925,-4.70686 -5.45531,-4.37421c-1.55508,0.19127 -2.59461,0.76507 -4.21626,0.23283c-1.07375,-0.35975 -2.0266,-1.01037 -2.75263,-1.87942c-0.83031,3.02851 -2.3957,5.80511 -4.55716,8.08317c-1.82123,1.79629 -4.04993,2.90233 -5.43037,5.12265c-1.09973,1.93212 -1.83801,4.04852 -2.17883,6.24531c-1.40545,7.35967 -0.95634,17.13106 -8.88988,20.93147c-0.62479,0.34676 -1.41175,0.14176 -1.78798,-0.46566c-3.32643,-6.27864 -6.65286,-12.59045 -8.94807,-19.32644c-1.80461,-5.24741 -1.99587,-11.43454 -4.158,-16.63208c-0.14139,0.74844 -0.28278,1.5052 -0.41579,2.25364c-0.11556,0.44874 -0.46603,0.79914 -0.91477,0.91477c-2.86069,0.39085 -4.65699,-1.23912 -6.18712,-3.50107c-2.12888,-3.15179 -3.96673,-6.51978 -5.88772,-9.84621l-0.20789,0.04156c-4.29939,0.45735 -8.59878,0.95634 -12.90649,1.38043c-2.74432,0.25777 -5.44699,0.34097 -7.73389,-1.40545c-1.37212,-1.01452 -2.32846,-2.53642 -3.86698,-3.27655c-0.49082,-0.22971 -1.00725,-0.39998 -1.53845,-0.5073c3.02702,4.14137 3.93348,11.11019 9.30566,12.18298c0.693,0.19416 1.10084,0.9098 0.91477,1.60503c-6.18712,15.37633 -23.05203,19.89193 -37.72156,23.09359c-0.39441,0.10191 -0.81368,0.01752 -1.13795,-0.2289c-0.32427,-0.24649 -0.51784,-0.62783 -0.52526,-1.03508c-0.60705,-6.52809 -7.63413,-10.37838 -10.35344,-15.9917c-1.64659,-3.38462 -2.53642,-7.01877 -4.39083,-10.34512c-1.53014,-2.72769 -5.33893,-9.33891 -9.18921,-8.64866c-0.69278,0.16766 -1.39624,-0.23328 -1.60503,-0.91477c-0.94802,-3.62576 -5.79628,-5.77134 -4.34095,-10.07904c0.73182,-2.19545 2.91064,-3.75884 4.158,-5.65489c1.37227,-2.12776 2.25557,-4.53341 2.5863,-7.04371c-4.93969,-0.13308 -9.87946,-0.24946 -14.81916,-0.39085c-3.47613,-0.0665 -6.31189,-0.59874 -7.63413,-4.158c-0.55718,-1.5052 -0.59043,-3.17673 -1.16423,-4.67361c-0.45735,-1.20579 -2.20377,-4.04162 -3.68403,-1.54676c-0.46566,0.71519 -0.08313,2.42828 0,3.20998c0.24946,2.32014 0.23283,5.49687 -2.17051,6.81911c-2.81913,1.55508 -4.83994,-1.48026 -5.70476,-3.70065c-0.8649,-2.22039 -1.1476,-4.67361 -2.17883,-6.82743c-1.09773,-2.28689 -3.11022,-3.64239 -5.09771,-5.08108l-6.52809,-4.72349c-0.39916,-0.29109 -2.61124,-2.30352 -3.03534,-2.1622c-1.62165,0.53224 0.17464,1.98756 0.657,2.55305c3.17071,3.61975 7.07384,6.52513 11.45116,8.52397c0.44006,0.27328 0.68001,0.7785 0.61381,1.29233c-0.0662,0.51383 -0.42647,0.94164 -0.92153,1.09439c-2.079,0.39085 -2.55305,3.08521 -3.32643,4.74843c-0.63741,1.49436 -1.74367,2.74075 -3.15179,3.55095c-2.98301,1.59746 -6.66488,1.01267 -9.00625,-1.43038c-0.35715,-0.37882 -0.45868,-0.93199 -0.25948,-1.41302c0.19921,-0.48103 0.6622,-0.80032 1.18256,-0.81569c0.87172,-0.02175 1.7387,-0.13612 2.5863,-0.34097c0.81739,-0.15141 1.5429,-0.61707 2.02081,-1.29731l-0.69857,-2.1455c-0.73182,-0.63199 -2.54474,-0.53224 -3.49276,-1.13929c-1.87111,-1.2141 -2.81913,-3.34306 -3.65078,-5.31392c-0.45193,-1.35164 -1.14812,-2.60879 -2.05406,-3.70896c-0.55309,-0.65745 -1.27036,-1.15666 -2.079,-1.44701c-1.48857,-0.39916 -1.89605,0.64862 -2.72769,1.59671c-1.13929,1.28068 -2.41997,2.49479 -4.29108,1.66321c-1.70478,-0.76507 -2.4366,-2.86901 -2.59461,-4.5988c-0.0665,-0.70688 0.21621,-4.08319 -0.44904,-4.44078c-0.48236,-0.24946 -0.69025,2.41997 -0.69025,2.69437c0,1.56339 0.09144,3.40124 -0.83157,4.75674c-0.36153,0.55361 -0.8839,0.98313 -1.49689,1.2308c-0.3075,0.10977 -0.63006,0.17145 -0.95634,0.18295l0.83157,0.45735c0.39174,0.24048 0.63043,0.66717 0.63043,1.12682c0,0.45965 -0.23869,0.88635 -0.63043,1.12682c-2.03417,1.43558 -3.88813,3.11089 -5.52188,4.98964c-1.56339,1.94592 -1.79629,3.99167 -2.68605,6.19544c-1.37212,3.28487 -6.54472,4.31602 -9.6882,4.35758c-3.84204,0.08313 -6.83581,-2.32846 -8.24119,-5.82122c-1.58001,-3.92517 -0.69025,-8.15806 0.40747,-12.10817h-0.74013c-1.66321,-0.0665 -1.66321,-2.67774 0,-2.61124c2.78039,0.14139 5.5679,-0.01195 8.316,-0.45735c2.22039,-0.37422 5.13927,-0.79832 6.85244,-2.36178c2.66943,-2.41166 0.1497,-4.63205 -1.66321,-6.41164l-5.53851,-5.45531c-0.35715,-0.37882 -0.45868,-0.93199 -0.25948,-1.41302c0.19921,-0.48103 0.6622,-0.80032 1.18256,-0.81569c3.5177,0 7.15177,-0.0665 10.52808,-1.17254c4.025,-1.31393 5.92104,-4.03331 7.63413,-7.73389c2.57799,-5.5967 7.95009,-9.18921 14.02084,-7.48443c0.35656,-0.13642 0.75876,-0.07311 1.05616,0.16633c1.56339,1.13929 3.00208,1.96255 4.75674,0.71519c0.60705,-0.44072 1.04785,-1.09773 1.70478,-1.52182c1.51611,-0.87054 3.2056,-1.39587 4.94801,-1.53845c2.0125,-0.26608 4.14969,-0.24946 6.07898,-0.9314c3.25985,-1.1476 3.85867,-3.8004 3.32643,-6.88569c-0.69025,-4.04162 1.80461,-6.66117 5.67982,-7.36798c2.46153,-0.45735 4.94801,-0.24946 7.34304,-1.0811c1.90406,-0.69627 3.61456,-1.83667 4.98964,-3.32643c-4.22554,-0.97259 -8.65764,-0.44941 -12.54058,1.48026c-1.30562,0.657 -2.5031,1.52182 -4.0083,0.90646c-1.26784,-0.64995 -2.2575,-1.73706 -2.78588,-3.06027c-1.24743,-2.64449 -0.89815,-5.77965 0.1497,-8.42414c0.57113,-1.44679 1.34985,-2.80265 2.31183,-4.025c1.0811,-1.39706 2.76094,-2.96883 3.0936,-4.63205c0.33266,-1.66321 -0.9979,-3.4345 -2.77757,-2.49479c-0.92709,0.60698 -1.65349,1.47514 -2.08731,2.49479c-0.71096,1.57942 -1.54513,3.10035 -2.49479,4.54885c-1.18917,1.61334 -2.71099,3.00208 -3.7339,4.7318c-1.40545,2.37009 -1.19748,4.28277 0.10814,6.60291c1.79629,3.20166 0.26608,5.49687 -0.27439,8.87318c-0.53224,3.05196 -1.17254,6.02911 -4.158,7.54262c-2.27858,1.15592 -4.89813,0.61537 -6.04573,-1.77128c-0.74013,-1.55508 -0.69857,-3.39293 -1.13098,-5.05615c-0.37556,-1.45102 -0.93444,-2.84823 -1.66321,-4.158c-2.27858,2.86901 -3.88361,7.09358 -8.0998,6.95219c-4.57379,-0.1497 -7.30979,-5.82122 -8.19131,-9.65494c-1.05616,-4.5821 1.15592,-7.69232 5.08108,-9.78795c4.98133,-2.66111 8.37426,-6.07898 11.87526,-10.4782c3.87255,-4.7436 7.48161,-9.69636 10.81086,-14.83578c2.39503,-3.77547 5.29729,-7.1019 10.20381,-6.65286c5.27235,0.47405 10.12061,4.05825 15.11025,5.61332c4.29939,1.33056 9.48862,1.7214 13.17257,4.54053c1.33887,1.05616 2.96052,2.5863 2.33677,4.38252c-0.58293,1.42155 -1.73996,2.53019 -3.18504,3.05196c-4.05825,1.67153 -7.65907,-0.59043 -11.54268,-1.42207c1.54253,3.6527 4.88277,6.23277 8.80667,6.80249c1.18983,0.18615 2.40453,0.1382 3.57589,-0.14139c1.9293,-0.49067 2.54474,-2.09563 3.32643,-3.75884l3.78378,-7.95009c0.6403,-1.33056 2.91064,-0.36591 2.38672,1.00621c-0.0498,0.10012 -0.09419,0.20285 -0.13308,0.30772v0.05819c-0.39916,1.13929 0.46566,1.67984 2.61124,1.61334c0.15802,-0.25777 0.32435,-0.51561 0.49067,-0.77338c0.29748,-0.59837 0.51554,-1.23296 0.64862,-1.88773c0.28389,-0.9668 0.70992,-1.8861 1.26406,-2.72769c1.18167,-1.5216 2.78774,-2.65896 4.61542,-3.26817c5.47193,-2.11225 11.79213,-2.78588 17.61335,-3.69234c0.04988,-2.5031 2.20377,-4.0915 4.80669,-3.99998c1.93583,0.22103 3.84264,0.6475 5.68814,1.27237l5.27235,1.28068c-1.72972,-3.33474 -3.48445,-6.66949 -4.98964,-10.07904c-1.05616,-2.39503 -1.47195,-5.58007 1.06448,-7.24329c2.79419,-1.84617 5.43868,0.80663 6.65286,3.14348c0.98959,1.90436 1.82954,3.48445 3.67571,4.71518c0.96517,0.62412 1.98697,1.15599 3.05196,1.58833c-0.24946,-2.76094 0.32435,-5.76303 2.9439,-6.52809c-0.29169,-1.08318 -0.40131,-2.20733 -0.32435,-3.32643c0.00905,-0.46351 0.26014,-0.88842 0.66183,-1.11992c0.40168,-0.23149 0.89525,-0.23565 1.30072,-0.01106c2.81082,1.64659 5.85447,3.35968 9.10608,3.25154c-2.48647,-2.47816 -6.03742,-4.49897 -5.61332,-8.45739c0.40747,-3.50107 3.55095,-5.05615 6.65286,-5.82122c-1.20579,-2.41997 -0.28278,-5.5135 1.61334,-7.55924c3.16841,-3.42618 8.05823,-5.43868 12.2745,-7.19334c1.29731,-0.53224 2.61124,-1.04785 3.91686,-1.55508c1.69647,-0.64862 3.06859,-1.33056 3.12685,-3.2266c0.04156,-1.49689 -0.29109,-3.16841 0.54055,-4.52391c0.50121,-1.02128 1.56717,-1.6411 2.70268,-1.5717c1.34162,1.10879 2.67499,2.21757 3.99998,3.32643c1.3028,1.10879 2.59461,2.21764 3.87529,3.32643l0.09144,0.07481c1.26962,1.12548 2.52811,2.26477 3.77547,3.41787l0.09144,0.08313c1.25292,1.16423 2.49204,2.33952 3.71728,3.52601c0.54055,0.56549 1.10604,1.10604 1.66321,1.66321c11.79688,11.66039 22.29231,24.56769 31.30153,38.49494c0.9979,1.5357 1.97368,3.08247 2.92727,4.64036c-0.00156,0.01937 -0.00156,0.03882 0,0.05819c0.94253,1.54676 1.86836,3.10191 2.77757,4.6653l0.07481,0.11645c0.88983,1.53845 1.79629,3.10191 2.62786,4.6653l0.10814,0.18295c0.83157,1.54676 1.66321,3.10191 2.49479,4.6653l0.14139,0.25777c0.79001,1.53845 1.56339,3.0936 2.32846,4.64867l0.16633,0.34097c0.74288,1.54127 1.4692,3.08521 2.17883,4.63205c0.0665,0.1497 0.14139,0.29109 0.20789,0.43241c0.69025,1.52182 1.36381,3.06027 2.02912,4.5988l0.23283,0.53224c0.6403,1.5052 1.25574,3.01871 1.87111,4.54053l0.25777,0.64862c0.59874,1.48857 1.16423,2.99377 1.72972,4.49897c0.09144,0.24946 0.19127,0.49899 0.28278,0.75676c0.54886,1.47195 1.06448,2.95221 1.58001,4.44078l0.30772,0.87321c0.48793,1.45807 0.96465,2.91896 1.43038,4.38252c0.10814,0.33266 0.22452,0.657 0.32435,0.98959c0.46566,1.43038 0.87321,2.87732 1.29731,4.31602c0.10814,0.37422 0.22452,0.74013 0.32435,1.10604c0.40747,1.40545 0.78169,2.81913 1.15592,4.2412c0.11645,0.41579 0.23283,0.82326 0.34097,1.24743c0.3576,1.38043 0.69025,2.76925 1.02284,4.158c0.10814,0.45735 0.22452,0.91477 0.33266,1.37212c0.31603,1.36381 0.60705,2.72769 0.89815,4.09981c0.10814,0.49899 0.22452,0.98959 0.32435,1.48026c0.27439,1.33887 0.52392,2.67774 0.78169,4.025c0.09983,0.53224 0.20789,1.07279 0.30772,1.61334c0.23283,1.30562 0.44904,2.62786 0.657,3.95011c0.09144,0.5738 0.19958,1.1476 0.29109,1.7214c0.19127,1.29731 0.36591,2.60293 0.54886,3.90854c0.08313,0.60705 0.17464,1.20579 0.24946,1.81292c0.16633,1.29731 0.30772,2.59461 0.44904,3.89192c0.07481,0.62368 0.1497,1.24743 0.21621,1.87111c0.13308,1.29731 0.24114,2.60293 0.34928,3.90023c0.04988,0.6403 0.11645,1.27237 0.16633,1.91267c0.10814,1.34718 0.18295,2.71099 0.26608,4.07487c0.03325,0.59043 0.10814,1.17254 0.10814,1.76297c0.07481,1.47195 0.16633,2.9439 0.16633,4.41584c0.01663,0.49067 0.05819,0.98127 0.05819,1.46364c0,1.99587 0.00282,3.96955 0.00831,5.92104zM302.76389,152.22448c-0.8934,-1.07405 -2.08152,-1.86317 -3.41787,-2.27027c-0.91477,-0.34097 -1.87942,-0.54055 -2.8025,-0.88152c-0.7241,-0.2234 -1.39684,-0.58805 -1.97925,-1.07279c-0.23951,-0.20997 -0.37682,-0.51309 -0.37682,-0.83157c0,-0.31856 0.13731,-0.6216 0.37682,-0.83157c0.44072,-1.82123 2.64449,-4.84825 -0.68194,-5.37218c-1.80461,-0.25777 -4.025,0.5073 -5.82122,0.83157c-1.90161,0.34372 -3.8004,0.70688 -5.69645,1.08941c-0.32041,-0.3046 -0.77108,-0.43026 -1.2029,-0.33526c-0.43174,0.095 -0.78808,0.39827 -0.95099,0.80923c-1.52182,4.10812 -3.59251,8.81499 -4.01661,13.21421c-0.27439,2.88563 2.11225,4.47403 4.79838,3.37631c1.94592,-0.79001 3.41787,-2.22039 5.50518,-2.82744c2.38672,-0.68194 4.45741,-0.74844 6.45321,0.83157c2.19545,1.73803 6.05405,1.54676 8.54891,0.41579c2.47816,-1.13929 2.88563,-4.04162 1.26406,-6.14556zM320.37724,160.37415c0.29941,2.99377 2.91064,5.34724 5.36387,6.8108c2.12056,1.26406 5.0894,1.80461 6.91063,-0.48236c1.82123,-2.28689 0.23283,-4.29939 -1.22249,-6.104c-0.5738,-0.70688 -0.88983,-0.14139 -0.40747,-1.18085c0.15802,-0.26608 0.6403,-0.54886 0.83157,-0.79001c0.38209,-0.46128 0.66517,-0.99634 0.83157,-1.5717c0.33199,-1.11316 0.01054,-2.31844 -0.83157,-3.11854c-1.42207,-1.25574 -3.25985,-1.32224 -4.46572,-3.03534c-1.16089,-1.83756 -1.68674,-4.00533 -1.49689,-6.1705c1.30102,-1.0523 1.69832,-2.86611 0.95634,-4.36589c-1.05616,-2.28689 -3.98336,-2.91896 -6.25363,-2.28689c-6.37008,1.77967 -6.57797,9.02288 -3.14348,13.5551c0.88983,1.16423 4.19125,3.53432 3.87529,5.19754c-0.24946,1.28899 -1.07279,2.05406 -0.94802,3.54264zM340.35237,191.82538h-0.23283c-2.96594,0.16084 -5.9295,-0.35678 -8.66528,-1.51351c-3.06027,-1.42207 -4.74011,-3.6674 -6.96051,-6.04573c-0.56549,-0.60705 -1.82123,-1.95423 -2.81082,-1.39706c-1.1476,0.6403 0.09983,2.54474 0.47405,3.25154c0.81361,1.57786 1.76534,3.08061 2.84407,4.49066c2.07069,2.56136 4.87319,4.84825 8.316,4.98964c2.88563,0.11645 5.88772,-1.12266 7.03539,-3.77547z" fill="#ffffff" fill-rule="nonzero" stroke="none" stroke-width="1"/></g></g></svg>