<svg version="1.1" xmlns="http://www.w3.org/2000/svg" xmlns:xlink="http://www.w3.org/1999/xlink" width="51.03619" height="72.51361" viewBox="0,0,51.03619,72.51361"><defs><linearGradient x1="159.59676" y1="217.93309" x2="197.12912" y2="217.93309" gradientUnits="userSpaceOnUse" id="color-1"><stop offset="0" stop-color="#fd442b"/><stop offset="1" stop-color="#b12515"/></linearGradient><linearGradient x1="155.82246" y1="225.4429" x2="184.82581" y2="225.4429" gradientUnits="userSpaceOnUse" id="color-2"><stop offset="0" stop-color="#bd7d08"/><stop offset="1" stop-color="#f1c214"/></linearGradient></defs><g transform="translate(-154.2455,-169.48616)"><g stroke="#45413c" stroke-width="2.5" stroke-linecap="round" stroke-miterlimit="10"><path d="M203.77799,171.68509c0,0 -6.33428,31.73658 -5.82895,35.37011c0.61008,4.38678 -0.81992,13.20566 -0.81992,13.20566c0,0 -2.6288,4.42569 -4.59022,7.03438c-2.99439,3.98254 -10.02706,10.35716 -10.02706,10.35716c0,0 -11.72187,0.79521 -15.23487,0.98639c-3.36306,0.18302 -10.54695,-7.63107 -10.54695,-7.63107l2.86674,-11.61499c0,0 9.98351,-6.36125 12.97346,-11.18375c1.42482,-2.29811 3.16899,-16.50929 4.28726,-26.96079c0.68352,-6.38828 9.20526,-10.80572 13.39222,-10.51204c4.39838,0.30852 13.52829,0.94893 13.52829,0.94893z" fill="url(#color-1)"/><g><path d="M163.32321,215.24268c0,0 4.89396,-3.67047 7.99289,-4.40581c2.76304,-0.65563 9.70888,0.20539 9.70888,0.20539l2.25023,2.40024c0,0 1.52531,4.83776 1.55028,7.50882c0.02504,2.67944 -2.22766,16.54205 -6.45815,17.19641c-0.99079,0.15325 -13.844,2.14745 -13.844,2.14745l-8.70087,-3.30033z" fill="url(#color-2)"/><path d="M176.37979,210.90952c0,0 0.3494,10.35143 -1.11135,15.17724c-1.54533,5.10521 -7.92115,14.66301 -7.92115,14.66301" fill="none"/></g></g></g></svg>