<svg version="1.1" xmlns="http://www.w3.org/2000/svg" xmlns:xlink="http://www.w3.org/1999/xlink" width="639.73024" height="358.33402" viewBox="0,0,639.73024,358.33402"><g transform="translate(93.37864,-341.44861)"><g fill="none" stroke-width="25" stroke-miterlimit="10"><g><g stroke-opacity="0.90196" stroke="#a530ff"><path d="M103.2599,687.28263c0,-75.14958 56.75474,-136.07962 126.76066,-136.07962"/><path d="M222.95242,551.20299c70.00592,0 126.76066,60.93004 126.76066,136.07962"/></g><g stroke-opacity="0.8" stroke="#3030ff"><path d="M72.53863,687.28263c0,-93.36966 70.50836,-169.05861 157.48193,-169.05861"/><path d="M222.95242,518.22402c86.97357,0 157.48193,75.68893 157.48193,169.05861"/></g><g stroke-opacity="0.6" stroke="#00cc44"><path d="M12.50685,687.04461c0,-128.59005 97.11759,-232.84906 216.90577,-232.84906"/><path d="M223.56036,454.19555c119.78818,0 216.90577,104.25901 216.90577,232.84906"/></g><g stroke-opacity="0.50196" stroke="#ffeb12"><path d="M-17.00972,687.04461c0,-146.08939 110.33748,-264.53387 246.42234,-264.53387"/><path d="M223.56036,422.51074c136.08486,0 246.42234,118.44448 246.42234,264.53387"/></g><g stroke-opacity="0.4" stroke="#ffa02b"><path d="M-47.8423,687.04461c0,-164.37762 124.13357,-297.63186 277.25491,-297.63186"/><path d="M223.56036,389.41275c153.12134,0 277.25491,133.25424 277.25491,297.63186"/></g><g stroke-opacity="0.30196" stroke="#ff2929"><path d="M-80.87864,687.04461c0,-183.96529 138.92338,-333.09601 310.29125,-333.09601"/><path d="M223.56036,353.94861c171.36787,0 310.29125,149.13071 310.29125,333.09601"/></g><g stroke-opacity="0.70196" stroke="#00ffff"><path d="M44.01084,687.06141c0,-109.93857 83.03048,-199.06969 185.43888,-199.06969"/><path d="M224.74259,487.99172c102.40841,0 185.43888,89.1311 185.43888,199.06969"/></g></g></g></g></svg>