<svg version="1.1" xmlns="http://www.w3.org/2000/svg" xmlns:xlink="http://www.w3.org/1999/xlink" width="433.381" height="387.13438" viewBox="0,0,433.381,387.13438"><g transform="translate(-25.443,10.534)"><g stroke-miterlimit="10"><path d="M250.675,48.699h-218.071c-2.707,0 -4.901,-2.194 -4.901,-4.901v-44.396c0,-2.707 2.194,-4.901 4.901,-4.901h218.07c2.707,0 4.901,2.194 4.901,4.901v44.397c0.001,2.706 -2.193,4.9 -4.9,4.9z" fill="#ff1744" stroke="none" stroke-width="1" stroke-linecap="butt"/><path d="M156.095,-0.172c-12.353,14.492 -24.678,29.016 -37,43.544h-58.2l36.929,-43.544z" fill="#ff5173" stroke="none" stroke-width="1" stroke-linecap="butt"/><path d="M33.235,33.728v-24.255c0,-5.327 3.663,-9.645 8.18,-9.645h47.676l-36.93,43.544h-10.746c-4.518,0 -8.18,-4.318 -8.18,-9.644z" fill="#ff5173" stroke="none" stroke-width="1" stroke-linecap="butt"/><path d="M217.356,-0.172c-12.31,14.515 -24.62,29.029 -36.93,43.544h-52.6c9.27,-10.928 18.541,-21.853 27.828,-32.76c3.067,-3.602 6.147,-7.187 9.218,-10.784z" fill="#ff5173" stroke="none" stroke-width="1" stroke-linecap="butt"/><path d="M250.043,9.473v24.254c0,5.327 -3.662,9.645 -8.179,9.645h-52.705l36.93,-43.544h15.775c4.518,0 8.18,4.318 8.179,9.645z" fill="#ff5173" stroke="none" stroke-width="1" stroke-linecap="butt"/><path d="M311.094,48.699h-44.152c-2.707,0 -4.901,-2.194 -4.901,-4.901v-44.396c0,-2.707 2.194,-4.901 4.901,-4.901h44.152c2.707,0 4.901,2.194 4.901,4.901v44.397c0,2.706 -2.194,4.9 -4.901,4.9z" fill="#ff1744" stroke="none" stroke-width="1" stroke-linecap="butt"/><path d="M267.404,34.385c-0.013,-0.221 -0.059,-0.432 -0.059,-0.657v-24.255c0,-5.327 3.88,-9.645 8.667,-9.645h22.377c-10.319,11.529 -20.661,23.033 -30.985,34.557z" fill="#ff5173" stroke="none" stroke-width="1" stroke-linecap="butt"/><path d="M310.692,9.473v24.254c0,5.327 -3.88,9.645 -8.667,9.645h-26.013c-2.07,0 -3.944,-0.841 -5.435,-2.188c11.942,-13.328 23.876,-26.665 35.813,-39.999c2.562,1.675 4.302,4.741 4.302,8.288z" fill="#ff5173" stroke="none" stroke-width="1" stroke-linecap="butt"/><text transform="translate(52.9288,47.9103)" font-size="20.0274" xml:space="preserve" fill="#ffffff" stroke="none" stroke-width="1" stroke-linecap="butt" font-family="Roboto-Black" font-weight="400" text-anchor="start"><tspan x="0" dy="0">DOWNLOAD NOW</tspan></text><path d="M305.786,26.388v4.583c0,4.228 -3.037,7.656 -6.783,7.656h-19.766c-3.746,0 -6.783,-3.427 -6.783,-7.656v-4.583" fill="none" stroke="#ffffff" stroke-width="3" stroke-linecap="butt"/><path d="M289.12,4.423v22.248" fill="none" stroke="#ffffff" stroke-width="3" stroke-linecap="butt"/><path d="M282.378,25.767h13.484l-6.742,6.74z" fill="#ffffff" stroke="none" stroke-width="1" stroke-linecap="butt"/><path d="M310.318,149.995h-279.974c-2.707,0 -4.901,-2.194 -4.901,-4.901v-48.651c0,-2.707 2.194,-4.901 4.901,-4.901h279.973c2.707,0 4.901,2.194 4.901,4.901v48.651c0.001,2.707 -2.194,4.901 -4.9,4.901z" fill="#ff7a00" stroke="none" stroke-width="1" stroke-linecap="butt"/><path d="M188.714,97.288c-15.709,15.629 -31.383,31.294 -47.052,46.962h-74.011l46.962,-46.962z" fill="#ff9b40" stroke="none" stroke-width="1" stroke-linecap="butt"/><path d="M32.479,133.849v-26.159c0,-5.745 4.656,-10.402 10.401,-10.402h60.627l-46.962,46.962h-13.665c-5.745,0 -10.402,-4.657 -10.401,-10.401z" fill="#ff9b40" stroke="none" stroke-width="1" stroke-linecap="butt"/><path d="M266.617,97.288c-15.654,15.654 -31.308,31.308 -46.962,46.962h-66.889c11.787,-11.785 23.578,-23.568 35.387,-35.331c3.9,-3.885 7.817,-7.751 11.722,-11.631z" fill="#ff9b40" stroke="none" stroke-width="1" stroke-linecap="butt"/><path d="M308.183,107.69v26.158c0,5.745 -4.656,10.402 -10.401,10.402h-67.022l46.961,-46.962h20.061c5.745,0 10.402,4.657 10.401,10.402z" fill="#ff9b40" stroke="none" stroke-width="1" stroke-linecap="butt"/><text transform="translate(46.9371,147.4625)" font-size="21.2694" xml:space="preserve" fill="#ffffff" stroke="none" stroke-width="1" stroke-linecap="butt" font-family="Roboto-Black" font-weight="400" text-anchor="start"><tspan x="0" dy="0">DOWNLOAD NOW</tspan></text><path d="M303.655,145.05h-43.991c-2.707,0 -4.901,-2.194 -4.901,-4.901v-38.76c0,-2.707 2.194,-4.901 4.901,-4.901h43.991c2.707,0 4.901,2.194 4.901,4.901v38.76c0,2.707 -2.194,4.901 -4.901,4.901z" fill="#f5f5f5" stroke="none" stroke-width="1" stroke-linecap="butt"/><path d="M260.11,132.223c-0.013,-0.198 -0.059,-0.387 -0.059,-0.589v-21.732c0,-4.772 3.868,-8.641 8.641,-8.641h22.31c-10.288,10.331 -20.599,20.638 -30.892,30.962z" fill="#ffffff" stroke="none" stroke-width="1" stroke-linecap="butt"/><path d="M303.268,109.903v21.732c0,4.772 -3.869,8.641 -8.641,8.641h-25.935c-2.064,0 -3.933,-0.753 -5.419,-1.96c11.907,-11.942 23.806,-23.892 35.707,-35.839c2.554,1.502 4.289,4.248 4.288,7.426z" fill="#ffffff" stroke="none" stroke-width="1" stroke-linecap="butt"/><path d="M296.502,126.275v3.616c0,3.336 -2.704,6.041 -6.041,6.041h-17.603c-3.336,0 -6.041,-2.704 -6.041,-6.041v-3.616" fill="none" stroke="#ff7a00" stroke-width="3" stroke-linecap="butt"/><path d="M281.66,126.431v-17.487" fill="none" stroke="#ff7a00" stroke-width="5" stroke-linecap="butt"/><path d="M272.003,124.943h19.313v0.063l-9.656,6.098l-9.657,-6.098z" fill="#ff7a00" stroke="none" stroke-width="1" stroke-linecap="butt"/><path d="M343.494,47.131c0,-31.8475 25.8175,-57.665 57.665,-57.665c31.8475,0 57.665,25.8175 57.665,57.665c0,31.8475 -25.8175,57.665 -57.665,57.665c-31.8475,0 -57.665,-25.8175 -57.665,-57.665z" fill="#3d5afe" stroke="none" stroke-width="1" stroke-linecap="butt"/><path d="M351.611,46.358c0.41,-26.76 22.017,-48.367 48.777,-48.777c-15.014,15.014 -30.029,30.029 -45.043,45.043z" fill="#506afe" stroke="none" stroke-width="1" stroke-linecap="butt"/><path d="M352.56,56.91l58.379,-58.379c14.764,2.955 27.123,12.489 33.982,25.393c-22.171,22.454 -44.439,44.812 -66.845,67.032c-12.966,-6.846 -22.552,-19.235 -25.516,-34.046z" fill="#506afe" stroke="none" stroke-width="1" stroke-linecap="butt"/><path d="M448.356,32.085c1.513,4.75 2.373,9.792 2.373,15.044c0,27.376 -22.193,49.569 -49.569,49.569c-5.227,0 -10.246,-0.851 -14.976,-2.351c19.179,-19.033 38.302,-38.122 57.309,-57.328c1.624,-1.641 3.239,-3.29 4.863,-4.934z" fill="#506afe" stroke="none" stroke-width="1" stroke-linecap="butt"/><path d="M426.627,30.385v6.206c0,5.724 -4.641,10.365 -10.365,10.365h-30.205c-5.724,0 -10.365,-4.641 -10.365,-10.365v-6.206" fill="none" stroke="#ffffff" stroke-width="5" stroke-linecap="round"/><path d="M401.159,28.942v-19.156" fill="none" stroke="#ffffff" stroke-width="5" stroke-linecap="round"/><path d="M389.922,27.436h22.475l-11.238,11.234z" fill="#ffffff" stroke="none" stroke-width="1" stroke-linecap="butt"/><text transform="translate(357.4967,90.6378)" font-size="14.297" xml:space="preserve" fill="#ffffff" stroke="none" stroke-width="1" stroke-linecap="butt" font-family="Roboto-Black" font-weight="400" text-anchor="start"><tspan x="0" dy="0">DOWNLOAD</tspan></text><path d="M343.494,316.834c0,-31.8475 25.8175,-57.665 57.665,-57.665c31.8475,0 57.665,25.8175 57.665,57.665c0,31.8475 -25.8175,57.665 -57.665,57.665c-31.8475,0 -57.665,-25.8175 -57.665,-57.665z" fill="#64dd17" stroke="none" stroke-width="1" stroke-linecap="butt"/><path d="M351.611,316.062c0.41,-26.76 22.017,-48.367 48.777,-48.777c-15.014,15.015 -30.029,30.029 -45.043,45.043z" fill="#98ff42" stroke="none" stroke-width="1" stroke-linecap="butt" opacity="0.75"/><path d="M352.56,326.614l58.379,-58.379c14.764,2.955 27.123,12.489 33.982,25.393c-22.171,22.454 -44.439,44.812 -66.845,67.032c-12.966,-6.846 -22.552,-19.236 -25.516,-34.046z" fill="#98ff42" stroke="none" stroke-width="1" stroke-linecap="butt" opacity="0.75"/><path d="M448.356,301.79c1.513,4.75 2.373,9.792 2.373,15.044c0,27.376 -22.193,49.569 -49.569,49.569c-5.227,0 -10.246,-0.851 -14.976,-2.351c19.179,-19.034 38.302,-38.123 57.309,-57.329c1.624,-1.641 3.239,-3.291 4.863,-4.933z" fill="#98ff42" stroke="none" stroke-width="1" stroke-linecap="butt" opacity="0.75"/><path d="M428.563,307.155l-27.404,17.927l-27.404,-17.927" fill="none" stroke="#ffffff" stroke-width="7" stroke-linecap="round"/><path d="M428.563,291.674l-27.404,17.926l-27.404,-17.926" fill="none" stroke="#ffffff" stroke-width="7" stroke-linecap="round"/><text transform="translate(365.3776,363.5782)" font-size="11.7161" xml:space="preserve" fill="#ffffff" stroke="none" stroke-width="1" stroke-linecap="butt" font-family="Roboto-Black" font-weight="400" text-anchor="start"><tspan x="0" dy="0">DOWNLOAD</tspan></text><path d="M440.326,229.854h-78.334c-6.45,0 -11.678,-5.228 -11.678,-11.678v-72.388c0,-6.45 5.228,-11.678 11.678,-11.678h78.334c6.45,0 11.678,5.229 11.678,11.678v72.388c0,6.45 -5.228,11.678 -11.678,11.678z" fill="#1299eb" stroke="none" stroke-width="1" stroke-linecap="butt"/><path d="M355.372,173.859v-24.259c0,-5.924 4.803,-10.727 10.727,-10.727h24.138c-6.462,6.517 -12.911,13.047 -19.391,19.546c-5.144,5.16 -10.317,10.291 -15.474,15.44z" fill="#00b0ff" stroke="none" stroke-width="1" stroke-linecap="butt"/><path d="M355.374,214.366v-34.659c11.172,-11.144 22.32,-22.313 33.437,-33.512c2.419,-2.437 4.83,-4.881 7.247,-7.321h40.162c2.351,0 4.519,0.765 6.287,2.048c-15.029,15.045 -30.049,30.098 -45.056,45.164c-12.383,12.432 -24.767,24.863 -37.152,37.294c-2.961,-1.91 -4.926,-5.23 -4.925,-9.014z" fill="#00b0ff" stroke="none" stroke-width="1" stroke-linecap="butt"/><path d="M405.268,225.093h-39.169c-0.536,0 -1.058,-0.052 -1.573,-0.128c1.709,-1.716 3.423,-3.429 5.132,-5.145c18.203,-18.275 36.4,-36.557 54.614,-54.823c7.008,-7.028 14.024,-14.049 21.038,-21.071c1.031,1.647 1.636,3.588 1.636,5.674v33.549c-11.785,11.897 -23.579,23.785 -35.397,35.65c-2.092,2.1 -4.189,4.194 -6.281,6.293z" fill="#00b0ff" stroke="none" stroke-width="1" stroke-linecap="butt"/><path d="M446.946,189v25.365c0,5.924 -4.803,10.727 -10.727,10.727h-25.16c7.271,-7.296 14.55,-14.585 21.809,-21.892c4.697,-4.729 9.386,-9.466 14.078,-14.2z" fill="#00b0ff" stroke="none" stroke-width="1" stroke-linecap="butt"/><text transform="translate(361.8385,236.2618)" font-size="12.8748" xml:space="preserve" fill="#ffffff" stroke="none" stroke-width="1" stroke-linecap="butt" font-family="Roboto-Black" font-weight="400" text-anchor="start"><tspan x="0" dy="0">DOWNLOAD</tspan></text><path d="M424.093,182.077v5.588c0,5.155 -4.179,9.334 -9.334,9.334h-27.2c-5.155,0 -9.334,-4.179 -9.334,-9.334v-5.588" fill="none" stroke="#ffffff" stroke-width="5" stroke-linecap="butt"/><path d="M387.407,179.811h27.505l-13.753,9.169z" fill="#ffffff" stroke="none" stroke-width="1" stroke-linecap="butt"/><path d="M392.971,151.99v-2.182h16.377v2.182z" fill="#ffffff" stroke="none" stroke-width="1" stroke-linecap="butt"/><path d="M392.971,161.483v-5.838h16.377v5.838z" fill="#ffffff" stroke="none" stroke-width="1" stroke-linecap="butt"/><path d="M392.971,176.157v-11.02h16.377v11.02z" fill="#ffffff" stroke="none" stroke-width="1" stroke-linecap="butt"/><path d="M257.444,261.559c0.024,0.02 0.049,0.039 0.073,0.058c2.034,1.607 0.951,4.86 -1.641,4.86h-190.973c-9.641,0 -18.383,-3.91 -24.704,-10.231c-6.482,-6.482 -10.429,-15.512 -10.223,-25.458c0.396,-19.118 16.504,-34.193 35.626,-34.193h190.276c2.592,0 3.674,3.254 1.641,4.861c-0.025,0.019 -0.049,0.039 -0.073,0.058c-8.804,7.034 -14.449,17.867 -14.449,30.016c-0.001,12.149 5.643,22.983 14.447,30.029z" fill="#d500f9" stroke="none" stroke-width="1" stroke-linecap="butt"/><path d="M44.953,251.718c-5.448,-5.332 -8.775,-12.409 -8.775,-20.188c0,-16.576 15.149,-30.016 33.828,-30.016h24.963c-16.683,16.724 -33.354,33.459 -50.016,50.204z" fill="#df40fa" stroke="none" stroke-width="1" stroke-linecap="butt"/><path d="M157.947,201.514c-9.27,9.308 -18.55,18.605 -27.843,27.889c-10.738,10.727 -21.49,21.44 -32.239,32.156h-27.859c-7.823,0 -15.036,-2.365 -20.773,-6.329c13.571,-13.639 27.138,-27.283 40.719,-40.912c4.256,-4.272 8.519,-8.536 12.779,-12.804z" fill="#df40fa" stroke="none" stroke-width="1" stroke-linecap="butt"/><path d="M232.945,201.514c-19.934,20.057 -39.946,40.035 -59.927,60.045h-67.348c0.518,-0.517 1.036,-1.034 1.554,-1.551c15.844,-15.796 31.683,-31.598 47.484,-47.437c3.671,-3.68 7.329,-7.373 10.995,-11.057z" fill="#df40fa" stroke="none" stroke-width="1" stroke-linecap="butt"/><path d="M257.445,261.559h-76.646c15.133,-15.147 30.283,-30.276 45.397,-45.441c4.843,-4.86 9.672,-9.734 14.506,-14.604h16.743c-8.805,7.033 -14.449,17.867 -14.449,30.016c0,12.149 5.644,22.983 14.449,30.029z" fill="#df40fa" stroke="none" stroke-width="1" stroke-linecap="butt"/><path d="M247.702,231.535c0,-19.29572 15.64228,-34.938 34.938,-34.938c19.29572,0 34.938,15.64228 34.938,34.938c0,19.29572 -15.64228,34.938 -34.938,34.938c-19.29572,0 -34.938,-15.64228 -34.938,-34.938z" fill="#d500f9" stroke="none" stroke-width="1" stroke-linecap="butt"/><path d="M252.62,231.067c0.248,-16.213 13.339,-29.303 29.552,-29.552c-9.097,9.097 -18.193,18.193 -27.29,27.29z" fill="#df40fa" stroke="none" stroke-width="1" stroke-linecap="butt"/><path d="M253.194,237.46l35.37,-35.37c8.945,1.79 16.433,7.567 20.589,15.385c-13.432,13.604 -26.924,27.15 -40.499,40.612c-7.855,-4.147 -13.663,-11.654 -15.46,-20.627z" fill="#df40fa" stroke="none" stroke-width="1" stroke-linecap="butt"/><path d="M311.234,222.42c0.917,2.878 1.438,5.933 1.438,9.115c0,16.586 -13.446,30.032 -30.032,30.032c-3.167,0 -6.207,-0.516 -9.073,-1.425c11.62,-11.531 23.206,-23.097 34.722,-34.733c0.984,-0.994 1.962,-1.994 2.945,-2.989z" fill="#df40fa" stroke="none" stroke-width="1" stroke-linecap="butt"/><path d="M304.149,231.157v5.241c0,4.835 -3.919,8.754 -8.754,8.754h-25.51c-4.835,0 -8.754,-3.919 -8.754,-8.754v-5.241" fill="none" stroke="#ffffff" stroke-width="4" stroke-linecap="round"/><path d="M282.64,213.76v16.613" fill="none" stroke="#ffffff" stroke-width="4" stroke-linecap="round"/><path d="M273.65,229.167h17.98l-8.99,8.988z" fill="#ffffff" stroke="none" stroke-width="1" stroke-linecap="butt"/><text transform="translate(48.862,257.3561)" font-size="20.9377" xml:space="preserve" fill="#ffffff" stroke="none" stroke-width="1" stroke-linecap="butt" font-family="Roboto-Black" font-weight="400" text-anchor="start"><tspan x="0" dy="0">DOWNLOAD NOW</tspan></text><path d="M315.219,343.283v0c0,16.431 -13.319,29.75 -29.75,29.75h-225.755c-16.431,0 -29.75,-13.32 -29.75,-29.75v0c0,-16.431 13.32,-29.75 29.75,-29.75h178.245h47.51c16.43,0 29.75,13.319 29.75,29.75z" fill="#304ffe" stroke="none" stroke-width="1" stroke-linecap="butt"/><path d="M38.756,343.283v0c0,-12.891 10.027,-23.34 22.397,-23.34h42.896c-15.013,15.456 -29.963,30.978 -44.838,46.578c-11.458,-1.028 -20.455,-11.031 -20.455,-23.238z" fill="#4b66fe" stroke="none" stroke-width="1" stroke-linecap="butt"/><path d="M139.109,366.623h-71.803c12.369,-12.951 24.782,-25.857 37.247,-38.709c2.582,-2.663 5.176,-5.313 7.763,-7.971h71.587c-14.931,15.56 -29.862,31.12 -44.794,46.68z" fill="#4b66fe" stroke="none" stroke-width="1" stroke-linecap="butt"/><path d="M189.698,366.623h-42.329l44.794,-46.68h42.33z" fill="#4b66fe" stroke="none" stroke-width="1" stroke-linecap="butt"/><path d="M242.752,319.943v0c4.051,0 7.336,3.423 7.336,7.645v31.39c0,4.222 -3.285,7.645 -7.336,7.645h-44.794z" fill="#4b66fe" stroke="none" stroke-width="1" stroke-linecap="butt"/><text transform="translate(46.7496,371.0675)" font-size="20.0274" xml:space="preserve" fill="#ffffff" stroke="none" stroke-width="1" stroke-linecap="butt" font-family="Roboto-Black" font-weight="400" text-anchor="start"><tspan x="0" dy="0">DOWNLOAD NOW</tspan></text><path d="M257.776,342.498c0,-13.73201 11.13199,-24.864 24.864,-24.864c13.73201,0 24.864,11.13199 24.864,24.864c0,13.73201 -11.13199,24.864 -24.864,24.864c-13.73201,0 -24.864,-11.13199 -24.864,-24.864z" fill="#ffffff" stroke="none" stroke-width="1" stroke-linecap="butt"/><path d="M299.545,342.098v4.061c0,3.746 -3.037,6.783 -6.783,6.783h-19.766c-3.746,0 -6.783,-3.037 -6.783,-6.783v-4.061" fill="none" stroke="#304ffe" stroke-width="3" stroke-linecap="round"/><path d="M282.879,328.818v12.866" fill="none" stroke="#304ffe" stroke-width="3" stroke-linecap="round"/><path d="M276.137,340.78h13.485l-6.743,6.74z" fill="#304ffe" stroke="none" stroke-width="1" stroke-linecap="butt"/></g></g></svg>