<svg version="1.1" xmlns="http://www.w3.org/2000/svg" xmlns:xlink="http://www.w3.org/1999/xlink" width="615.11261" height="445.44294" viewBox="0,0,615.11261,445.44294"><g transform="translate(67.55631,42.72147)"><g stroke-miterlimit="10"><path d="M-66.30631,401.47147v-442.94294h612.61261v442.94294z" fill-opacity="0.90196" fill="#fcfcfc" stroke="#000000" stroke-width="2.5"/><text transform="translate(208.03052,57.86221) scale(0.95549,0.95549)" font-size="40" xml:space="preserve" fill-opacity="0.90196" fill="#000000" stroke="none" stroke-width="1" font-family="Pixel" font-weight="normal" text-anchor="start"><tspan x="0" dy="0">Mini Tutorial</tspan></text><text transform="translate(3.82633,126.18053) scale(0.5,0.5)" font-size="40" xml:space="preserve" fill-opacity="0.90196" fill="#000000" stroke="none" stroke-width="1" font-family="Pixel" font-weight="normal" text-anchor="start"><tspan x="0" dy="0">Install AntiMicro, In PC and configure like this:</tspan></text><text transform="translate(293.75472,338.91705) scale(0.5,0.5)" font-size="40" xml:space="preserve" fill-opacity="0.90196" fill="#000000" stroke="none" stroke-width="1" font-family="Pixel" font-weight="normal" text-anchor="start"><tspan x="0" dy="0">Click to Continue</tspan></text><path d="M11.90063,306.55854v-154.89293h448.46908v154.89293z" fill-opacity="0.90196" fill="#fcfcfc" stroke="#000000" stroke-width="2.5"/><path d="M143.79677,232.88323c0,-8.70371 7.05575,-15.75946 15.75946,-15.75946c8.7037,0 15.75946,7.05575 15.75946,15.75946c0,8.70371 -7.05575,15.75946 -15.75946,15.75946c-8.70371,0 -15.75946,-7.05575 -15.75946,-15.75946z" fill-opacity="0.90196" fill="#fcfcfc" stroke="#000000" stroke-width="2.5"/><path d="M148.29947,200.01351c0,-5.96825 4.83823,-10.80648 10.80648,-10.80648c5.96825,0 10.80649,4.83823 10.80649,10.80648c0,5.96825 -4.83823,10.80649 -10.80649,10.80649c-5.96825,0 -10.80648,-4.83823 -10.80648,-10.80649z" fill-opacity="0.90196" fill="#fcfcfc" stroke="#000000" stroke-width="2.5"/><path d="M148.79678,267.15079c0,-5.96825 4.83822,-10.80648 10.80648,-10.80648c5.96825,0 10.80649,4.83823 10.80649,10.80648c0,5.96825 -4.83823,10.80649 -10.80649,10.80649c-5.96825,0 -10.80648,-4.83823 -10.80648,-10.80649z" fill-opacity="0.90196" fill="#fcfcfc" stroke="#000000" stroke-width="2.5"/><path d="M124.52757,243.60815c-5.96373,-0.23252 -10.60978,-5.25556 -10.37726,-11.21929c0.23252,-5.96373 5.25557,-10.60978 11.21929,-10.37726c5.96372,0.23252 10.60979,5.25557 10.37726,11.21929c-0.23252,5.96373 -5.25557,10.60978 -11.2193,10.37726z" fill-opacity="0.90196" fill="#fcfcfc" stroke="#000000" stroke-width="2.5"/><path d="M192.53312,245.50435c-5.96373,-0.23252 -10.60978,-5.25556 -10.37727,-11.21929c0.23252,-5.96373 5.25557,-10.60978 11.2193,-10.37727c5.96372,0.23252 10.60978,5.25557 10.37726,11.21929c-0.23252,5.96373 -5.25557,10.60978 -11.21929,10.37726z" fill-opacity="0.90196" fill="#fcfcfc" stroke="#000000" stroke-width="2.5"/><text transform="translate(21.12076,183.39593) scale(0.5,0.5)" font-size="40" xml:space="preserve" fill-opacity="0.90196" fill="#000000" stroke="none" stroke-width="1" font-family="Pixel" font-weight="normal" text-anchor="start"><tspan x="0" dy="0">Sticks</tspan></text><text transform="translate(153.91743,241.64976) scale(0.5,0.5)" font-size="40" xml:space="preserve" fill-opacity="0.90196" fill="#000000" stroke="none" stroke-width="1" font-family="Pixel" font-weight="normal" text-anchor="start"><tspan x="0" dy="0">L</tspan></text><path d="M278.87782,233.78377c0,-8.70371 7.05575,-15.75946 15.75946,-15.75946c8.7037,0 15.75946,7.05575 15.75946,15.75946c0,8.70371 -7.05575,15.75946 -15.75946,15.75946c-8.70371,0 -15.75946,-7.05575 -15.75946,-15.75946z" fill-opacity="0.90196" fill="#fcfcfc" stroke="#000000" stroke-width="2.5"/><path d="M283.38052,200.01351c0,-5.96825 4.83823,-10.80648 10.80648,-10.80648c5.96825,0 10.80648,4.83823 10.80648,10.80648c0,5.96825 -4.83823,10.80648 -10.80648,10.80648c-5.96825,0 -10.80648,-4.83823 -10.80648,-10.80648z" fill-opacity="0.90196" fill="#fcfcfc" stroke="#000000" stroke-width="2.5"/><path d="M283.87782,268.05133c0,-5.96825 4.83823,-10.80648 10.80648,-10.80648c5.96825,0 10.80648,4.83823 10.80648,10.80648c0,5.96825 -4.83823,10.80648 -10.80648,10.80648c-5.96825,0 -10.80648,-4.83823 -10.80648,-10.80648z" fill-opacity="0.90196" fill="#fcfcfc" stroke="#000000" stroke-width="2.5"/><path d="M259.60863,243.60815c-5.96372,-0.23252 -10.60978,-5.25556 -10.37726,-11.21929c0.23252,-5.96373 5.25556,-10.60978 11.21929,-10.37726c5.96373,0.23252 10.60978,5.25557 10.37727,11.21929c-0.23252,5.96373 -5.25557,10.60978 -11.2193,10.37726z" fill-opacity="0.90196" fill="#fcfcfc" stroke="#000000" stroke-width="2.5"/><path d="M327.61417,246.40489c-5.96373,-0.23252 -10.60978,-5.25556 -10.37726,-11.21929c0.23252,-5.96373 5.25557,-10.60978 11.21929,-10.37726c5.96373,0.23252 10.60978,5.25557 10.37726,11.21929c-0.23252,5.96373 -5.25557,10.60978 -11.21929,10.37726z" fill-opacity="0.90196" fill="#fcfcfc" stroke="#000000" stroke-width="2.5"/><text transform="translate(288.99849,242.5503) scale(0.5,0.5)" font-size="40" xml:space="preserve" fill-opacity="0.90196" fill="#000000" stroke="none" stroke-width="1" font-family="Pixel" font-weight="normal" text-anchor="start"><tspan x="0" dy="0">R</tspan></text><text transform="translate(287.2219,206.98476) scale(0.5,0.5)" font-size="40" xml:space="preserve" fill-opacity="0.90196" fill="#000000" stroke="none" stroke-width="1" font-family="Pixel" font-weight="normal" text-anchor="start"><tspan x="0" dy="0">w</tspan></text><text transform="translate(322.88399,241.2619) scale(0.5,0.5)" font-size="40" xml:space="preserve" fill-opacity="0.90196" fill="#000000" stroke="none" stroke-width="1" font-family="Pixel" font-weight="normal" text-anchor="start"><tspan x="0" dy="0">d</tspan></text><text transform="translate(289.64555,272.46141) scale(0.5,0.5)" font-size="40" xml:space="preserve" fill-opacity="0.90196" fill="#000000" stroke="none" stroke-width="1" font-family="Pixel" font-weight="normal" text-anchor="start"><tspan x="0" dy="0">s</tspan></text><text transform="translate(254.53983,238.83827) scale(0.5,0.5)" font-size="40" xml:space="preserve" fill-opacity="0.90196" fill="#000000" stroke="none" stroke-width="1" font-family="Pixel" font-weight="normal" text-anchor="start"><tspan x="0" dy="0">a</tspan></text></g></g></svg>