<svg version="1.1" xmlns="http://www.w3.org/2000/svg" xmlns:xlink="http://www.w3.org/1999/xlink" width="770.89367" height="770.89367" viewBox="0,0,770.89367,770.89367"><g transform="translate(148.44983,212.95432)"><g data-paper-data="{&quot;isPaintingLayer&quot;:true}" fill-rule="nonzero" stroke-linecap="butt" stroke-miterlimit="10" stroke-dasharray="" stroke-dashoffset="0" style="mix-blend-mode: normal"><g fill="#424864" stroke="none" stroke-width="1" stroke-linejoin="miter"><path d="M236.99692,557.93918c-212.87603,0 -385.44675,-172.57039 -385.44675,-385.44675c0,-212.87603 172.57039,-385.44675 385.44692,-385.44675c212.87636,0 385.44675,172.57039 385.44675,385.44692c0,212.87603 -172.57039,385.44675 -385.44675,385.44675z"/><path d="M543.23198,142.37417c-100.36105,-100.36105 -200.71064,-200.71064 -301.0717,-301.0717c178.86656,2.74709 323.29081,147.16004 326.02693,326.02693z"/><path d="M391.29507,465.42227c-149.76334,-148.51688 -298.61153,-297.96054 -446.79727,-448.04406c45.85026,-86.25056 128.4602,-149.9841 227.14407,-169.73192l390.21281,390.21281c-19.82495,98.99291 -83.90061,181.81247 -170.55945,227.56333z"/><path d="M-45.97041,104.90848c127.04816,128.37192 254.86835,255.97151 383.06356,383.18491c-31.61858,10.02851 -65.15671,15.72102 -100.09607,15.72102c-182.98196,0 -331.32213,-148.34034 -331.32213,-331.32213c0,-35.10493 5.7477,-68.80848 15.86464,-100.55954c10.84474,10.97723 21.63445,22.00932 32.49017,32.97575z"/></g><path d="M59.62062,49.20559c0,0 0.77783,-0.19398 2.04975,-0.32901c1.27382,-0.14606 3.04021,-0.21757 5.0717,-0.11601c4.06299,0.20692 9.07916,1.38907 13.71421,3.43768c4.63543,2.04481 8.88555,4.95949 11.76677,7.83462c1.4408,1.43928 2.56818,2.79982 3.31901,3.84618c0.75653,1.03115 1.13347,1.74356 1.13347,1.74356c0,0 -0.77783,0.19779 -2.05013,0.33281c-1.27762,0.1491 -3.04477,0.22479 -5.07664,0.12704c-4.06337,-0.20311 -9.07878,-1.39287 -13.70888,-3.45251c-4.63048,-2.05584 -8.87605,-4.97775 -11.76145,-7.84908c-1.4408,-1.43585 -2.56856,-2.79259 -3.32015,-3.83477c-0.76034,-1.03191 -1.13765,-1.74052 -1.13765,-1.74052z" fill="#ffffff" stroke="none" stroke-width="1" stroke-linejoin="miter"/><path d="M416.70382,286.73604c0,0 0.57472,-0.47925 1.57278,-1.08174c1.0011,-0.6196 2.42212,-1.36168 4.12423,-2.04138c3.4004,-1.35826 7.9126,-2.17755 12.39132,-2.05318c4.47872,0.124 8.93348,1.19699 12.25135,2.7557c1.65722,0.77973 3.03602,1.61158 3.99947,2.29052c0.96231,0.66335 1.50698,1.17873 1.50698,1.17873c0,0 -0.57358,0.48267 -1.5743,1.09011c-0.99996,0.62303 -2.42364,1.36967 -4.12575,2.04937c-3.40269,1.3632 -7.90994,2.17299 -12.3917,2.03796c-4.48329,-0.13883 -8.93538,-1.21639 -12.25211,-2.77129c-1.65722,-0.78012 -3.03754,-1.60359 -3.99605,-2.27987c-0.96002,-0.66829 -1.50622,-1.17493 -1.50622,-1.17493z" fill="#ffffff" stroke="none" stroke-width="1" stroke-linejoin="miter"/><path d="M403.01967,324.14772c0,0 0.7417,0.10232 1.86946,0.42981c1.13727,0.32064 2.64958,0.87026 4.3087,1.66939c3.31406,1.59903 6.98528,4.38211 9.94029,7.78175c2.95501,3.40002 5.19532,7.42041 6.30026,10.92884c0.55304,1.75612 0.88243,3.33727 1.03381,4.51143c0.16355,1.16238 0.15481,1.91168 0.15481,1.91168c0,0 -0.74436,-0.09737 -1.87212,-0.42524c-1.14108,-0.3195 -2.6568,-0.8676 -4.31479,-1.66331c-3.31673,-1.59446 -6.98148,-4.38325 -9.92774,-7.79355c-2.9455,-3.40687 -5.17706,-7.43791 -6.28809,-10.94063c-0.55684,-1.75497 -0.88509,-3.33232 -1.03876,-4.50154c-0.16964,-1.15667 -0.16584,-1.90864 -0.16584,-1.90864z" fill="#ffffff" stroke="none" stroke-width="1" stroke-linejoin="miter"/><path d="M241.75375,45.97064l45.57836,92.36245l101.92847,14.80736l-73.75151,71.89536l17.41281,101.51007l-91.16812,-47.92517l-91.16812,47.92517l17.41281,-101.51007l-73.75151,-71.89536l101.92847,-14.80736l45.57836,-92.36245" fill="#ffd63f" stroke="#ffd63f" stroke-width="4" stroke-linejoin="round"/><path d="M104.82128,-7.02737c0,0 0.75311,0.275 1.88239,0.87597c1.13651,0.5926 2.64007,1.52296 4.2661,2.74505c3.24978,2.44723 6.743,6.23636 9.43479,10.52984c2.69446,4.29082 4.58218,9.086 5.35849,13.08167c0.38682,1.99916 0.55837,3.75794 0.5945,5.04546c0.04907,1.278 -0.03804,2.07904 -0.03804,2.07904c0,0 -0.75539,-0.27158 -1.88468,-0.87292c-1.14184,-0.59184 -2.64806,-1.51915 -4.27637,-2.73858c-3.25207,-2.44418 -6.74033,-6.2394 -9.42186,-10.53897c-2.68419,-4.29729 -4.5643,-9.09589 -5.34594,-13.0908c-0.38911,-1.9965 -0.56331,-3.75224 -0.60211,-5.03671c-0.05173,-1.28067 0.03271,-2.07904 0.03271,-2.07904z" fill="#ffffff" stroke="none" stroke-width="1" stroke-linejoin="miter"/></g></g></svg>