<svg version="1.1" xmlns="http://www.w3.org/2000/svg" xmlns:xlink="http://www.w3.org/1999/xlink" width="125.53156" height="17.80212" viewBox="0,0,125.53156,17.80212"><defs><radialGradient cx="194.4395" cy="342.89827" r="17.83418" gradientUnits="userSpaceOnUse" id="color-1"><stop offset="0" stop-color="#a24b18"/><stop offset="1" stop-color="#592d0d"/></radialGradient><radialGradient cx="281.80271" cy="342.89827" r="17.83418" gradientUnits="userSpaceOnUse" id="color-2"><stop offset="0" stop-color="#a24b18"/><stop offset="1" stop-color="#592d0d"/></radialGradient></defs><g transform="translate(-175.35532,-333.99719)"><g stroke="#45413c" stroke-width="2.5" stroke-miterlimit="10"><path d="M212.27368,345.48844c0,4.08355 -8.97135,5.03643 -18.26289,5.03643c-9.29154,0 -17.40547,0.54733 -17.40547,-3.53622c0,-4.08355 6.52196,-11.74144 15.8135,-11.74144c9.29154,0 19.85486,6.15768 19.85486,10.24123z" fill="url(#color-1)"/><path d="M283.82338,335.24719c9.29154,0 15.8135,7.6579 15.8135,11.74144c0,4.08355 -8.11393,3.53622 -17.40547,3.53622c-9.29154,0 -18.26289,-0.95289 -18.26289,-5.03643c0,-4.08355 10.56332,-10.24123 19.85486,-10.24123z" fill="url(#color-2)"/></g></g></svg>