<svg version="1.1" xmlns="http://www.w3.org/2000/svg" xmlns:xlink="http://www.w3.org/1999/xlink" width="770.89367" height="770.89367" viewBox="0,0,770.89367,770.89367"><g transform="translate(148.44983,212.95432)"><g data-paper-data="{&quot;isPaintingLayer&quot;:true}" fill-rule="nonzero" stroke="none" stroke-linejoin="miter" stroke-miterlimit="10" stroke-dasharray="" stroke-dashoffset="0" style="mix-blend-mode: normal"><g fill="#edda62" stroke-width="1" stroke-linecap="butt"><path d="M236.99692,557.93918c-212.87603,0 -385.44675,-172.57039 -385.44675,-385.44675c0,-212.87603 172.57039,-385.44675 385.44692,-385.44675c212.87636,0 385.44675,172.57039 385.44675,385.44692c0,212.87603 -172.57039,385.44675 -385.44675,385.44675z"/><path d="M543.23198,142.37419c-100.36105,-100.36105 -200.71064,-200.71064 -301.0717,-301.0717c178.86656,2.74709 323.29081,147.16004 326.02693,326.02693z"/><path d="M391.29507,465.4223c-149.76334,-148.51688 -298.61153,-297.96054 -446.79727,-448.04406c45.85026,-86.25056 128.4602,-149.9841 227.14407,-169.73192l390.21281,390.21281c-19.82495,98.99291 -83.90061,181.81247 -170.55945,227.56333z"/><path d="M-45.97041,104.90851c127.04816,128.37192 254.86835,255.97151 383.06356,383.18491c-31.61858,10.02851 -65.15671,15.72102 -100.09607,15.72102c-182.98196,0 -331.32213,-148.34034 -331.32213,-331.32213c0,-35.10493 5.7477,-68.80848 15.86464,-100.55954c10.84474,10.97723 21.63445,22.00932 32.49017,32.97575z"/></g><path d="M49.55809,304.82536v0v0v0v0v0v0c-0.21175,-0.36776 -6.39767,-10.69931 -6.39767,-10.70374c-17.15772,-27.54245 -20.96041,-89.83396 -19.46912,-109.27521l0.13202,-0.93133c4.87449,-82.40401 43.1964,-126.38592 65.82844,-149.66396c51.36943,-52.87091 129.23343,-55.02152 129.23343,-55.02152l2.7589,53.49071c0,0 -0.14796,-15.38416 31.17679,-42.27928c31.31678,-26.89512 77.62784,-22.9661 77.62784,-22.9661l-24.57485,67.03177c0,0 14.48653,-20.87977 26.3586,-28.51004c21.04812,-13.50514 38.8456,-7.70161 38.8456,-7.70161l-4.9059,41.57573c0,0 31.32475,40.60855 55.2997,78.76696c5.13055,8.14155 11.07636,16.38323 14.84674,25.86367c13.71121,34.44565 15.69028,95.8378 0.31992,126.24634c-2.65475,5.38002 -5.54567,10.60404 -8.54475,15.73993c-0.77976,1.31899 -1.56354,2.62993 -2.35924,3.925c-2.7469,4.51651 -5.61396,8.94482 -8.62892,13.23758c-0.40763,0.57154 -0.77976,1.179 -1.18739,1.75095c-3.41905,4.7761 -7.02552,9.37637 -10.77641,13.84898c-0.89541,1.07929 -1.83915,2.12225 -2.75488,3.1935c-3.21478,3.69328 -6.54571,7.28248 -9.96427,10.73564c-0.78773,0.8077 -1.55556,1.62691 -2.35127,2.40625c-4.11463,4.02117 -8.40073,7.85402 -12.81532,11.51498c-0.98361,0.80368 -1.99107,1.57109 -2.98306,2.35834c-3.70659,2.95782 -7.53722,5.78363 -11.45556,8.47742c-1.13157,0.76735 -2.2352,1.57463 -3.37474,2.32603c-4.78629,3.14566 -9.68873,6.09953 -14.75105,8.82916c-0.90338,0.4918 -1.86307,0.92335 -2.77887,1.39914c-4.32639,2.25024 -8.75296,4.32063 -13.27523,6.2391c-19.1293,8.10966 -39.90139,13.38949 -62.20561,14.9965c-25.49064,1.83471 -48.56664,1.06286 -69.41098,-1.65478c-5.15406,-0.67166 -10.16805,-1.47492 -15.05052,-2.37436c-0.92772,-0.18783 -1.85149,-0.36776 -2.77082,-0.54762c-4.95021,-0.97515 -9.80875,-2.02213 -14.471,-3.21749c-0.02794,-0.00797 -0.06379,-0.01595 -0.09568,-0.02392c-4.67064,-1.18295 -9.16101,-2.50991 -13.54723,-3.91702c-0.76783,-0.24365 -1.55556,-0.48737 -2.31937,-0.73545c-4.21434,-1.37876 -8.321,-2.85368 -12.27921,-4.41638c-0.69607,-0.26362 -1.36773,-0.56357 -2.05929,-0.83516c-3.90683,-1.57505 -7.71708,-3.21388 -11.37187,-4.94847c-0.13999,-0.07974 -0.29593,-0.13202 -0.43197,-0.20378c-3.7425,-1.79041 -7.31749,-3.66096 -10.79187,-5.57583c-0.64816,-0.3593 -1.29195,-0.71111 -1.92332,-1.07083c-3.34285,-1.8985 -6.58197,-3.83729 -9.66876,-5.83542c-0.47183,-0.29995 -0.91975,-0.61182 -1.38763,-0.91538c-2.93078,-1.93435 -5.76588,-3.90905 -8.47694,-5.92362c-0.27956,-0.19185 -0.58749,-0.39563 -0.85554,-0.60746c-2.82712,-2.12225 -5.49783,-4.29276 -8.07291,-6.4788c-0.50019,-0.42004 -0.992,-0.84355 -1.4718,-1.26317c-2.51081,-2.18646 -4.92587,-4.37652 -7.1974,-6.61879c-0.2596,-0.24413 -0.49576,-0.50373 -0.7514,-0.7514c-2.13951,-2.13064 -4.17045,-4.27681 -6.08975,-6.4234c-0.26805,-0.31146 -0.57196,-0.61543 -0.84403,-0.91892c-1.96714,-2.25822 -6.21782,-7.61432 -6.54571,-8.04185c-1.71108,-2.26224 -3.34285,-4.52046 -4.81819,-6.76675c-0.09173,-0.13999 -0.17986,-0.27998 -0.26362,-0.41955c-1.41557,-2.16253 -2.70308,-4.29276 -3.90683,-6.41542z" fill="#be9d8d" stroke-width="0" stroke-linecap="butt"/><path d="M351.95721,184.60678v0v0v0v0v0v0c0,0 46.58307,52.66311 32.18827,107.29295c-14.38683,54.61347 -100.3636,77.75146 -166.42376,73.59876c-87.32849,-5.49561 -127.81432,-57.50349 -113.44344,-107.13701c14.39085,-49.63352 130.00521,-72.83537 130.00521,-72.83537l-18.98529,35.66008c0,0 14.95483,-2.31008 27.03421,-9.21682c12.07584,-6.89433 25.31917,-16.09126 25.31917,-16.09126l-27.66205,39.18944c0,0 36.53462,-0.39168 68.17132,-13.0537c31.63669,-12.64607 43.7963,-37.40701 43.7963,-37.40701z" fill="#e6e7e8" stroke-width="0" stroke-linecap="butt"/><g stroke-width="0"><path d="M411.56381,156.13259c0,0 74.98064,-42.11537 92.11839,-6.30289c17.13817,35.812 -13.51887,77.77982 -77.49582,115.7504c0,0 1.41155,-62.34782 -14.62257,-109.44751v0v0zM411.56381,156.13259c-1.33979,-5.51155 -5.76637,-16.05139 -5.76637,-16.05139M424.52314,275.28831l0.80368,-10.08388" fill="#be9d8d" stroke-linecap="round"/><path d="M425.32689,265.20042c0.4156,-11.54729 0.39966,-30.56052 -2.2033,-54.30195c-1.49975,-13.81751 -4.39863,-28.07051 -7.37331,-40.38078l0.00797,0.01595c43.91992,-11.1796 83.01008,29.41301 83.01008,29.41301h0.01595c-21.95199,36.43984 -73.10564,64.24632 -73.10564,64.24632l-0.35181,1.00753v0v0v0v0v0z" fill="#f37771" stroke-linecap="butt"/></g><g stroke-width="0"><path d="M59.65438,293.04676c-62.27737,-24.78085 -95.88121,-58.2908 -86.46858,-93.49181c9.41665,-35.20461 82.03049,-8.32939 82.03049,-8.32939c-6.65775,45.3009 4.43809,101.82126 4.43809,101.82126v0v0v0v0v0zM57.75498,175.7417c0,0 -2.23125,10.25978 -2.53473,15.48387M60.35038,292.56696l2.30301,9.05693" fill="#be9d8d" stroke-linecap="round"/><path d="M59.88257,291.70788c0,0 -49.39424,-17.49442 -74.46533,-47.2955l0.012,-0.00402c0,0 27.96998,-42.90262 68.37156,-39.43753l0.00402,-0.012c-0.67166,11.65095 -0.96766,25.06443 -0.10012,37.8629c1.46342,22.00295 4.45445,39.30551 6.64583,49.74516l-0.46788,-0.85908v0v0v0v0v0z" fill="#f37771" stroke-linecap="butt"/></g><path d="M301.07556,270.54806c-2.89889,0 -5.43404,-2.09833 -5.91391,-5.05213c-0.52411,-3.26928 1.70311,-6.3472 4.9742,-6.87041c2.97467,-0.46788 29.34124,-4.58071 39.05784,-3.37343c3.28703,0.4156 5.62194,3.41329 5.22623,6.68258c-0.41602,3.29369 -3.45892,5.57985 -6.69367,5.22402c-6.11367,-0.74343 -25.11491,1.62289 -35.69905,3.30166c-0.31992,0.06379 -0.63977,0.08771 -0.95171,0.08771v0v0v0v0v0v0z" fill="#231f20" stroke-width="0" stroke-linecap="butt"/><path d="M203.88251,271.82718c-0.37573,0 -0.75584,-0.03987 -1.14752,-0.1081c-13.84718,-2.67784 -38.19828,0.04833 -38.43798,0.07225c-3.23517,0.35979 -6.25415,-1.9747 -6.63786,-5.26791c-0.37573,-3.28572 1.98309,-6.25949 5.2781,-6.63515c1.07971,-0.10768 26.41039,-2.94943 42.07682,0.07225c3.24668,0.6234 5.38224,3.76906 4.75045,7.03439c-0.55601,2.84175 -3.07077,4.8324 -5.88195,4.8324v0v0v0v0v0v0z" fill="#231f20" stroke-width="0" stroke-linecap="butt"/><path d="M259.60363,354.11789c-38.44429,2.58521 -42.73781,-47.40907 -42.73781,-47.40907c0,0 21.9721,-0.69531 50.32682,-2.45527c28.34904,-1.74749 35.14574,0 35.14574,0c0,0 -4.29962,47.26728 -42.73476,49.86434z" fill="#ffffff" stroke-width="0" stroke-linecap="round"/></g></g></svg>