<svg version="1.1" xmlns="http://www.w3.org/2000/svg" xmlns:xlink="http://www.w3.org/1999/xlink" width="770.89367" height="770.89367" viewBox="0,0,770.89367,770.89367"><g transform="translate(148.44983,212.95432)"><g data-paper-data="{&quot;isPaintingLayer&quot;:true}" fill-rule="nonzero" stroke="none" stroke-width="1" stroke-linecap="butt" stroke-linejoin="miter" stroke-miterlimit="10" stroke-dasharray="" stroke-dashoffset="0" style="mix-blend-mode: normal"><g fill="#4db7ff"><path d="M236.99692,557.93918c-212.87603,0 -385.44675,-172.57039 -385.44675,-385.44675c0,-212.87603 172.57039,-385.44675 385.44692,-385.44675c212.87636,0 385.44675,172.57039 385.44675,385.44692c0,212.87603 -172.57039,385.44675 -385.44675,385.44675z"/><path d="M543.23198,142.37418c-100.36105,-100.36105 -200.71064,-200.71064 -301.0717,-301.0717c178.86656,2.74709 323.29081,147.16004 326.02693,326.02693z"/><path d="M391.29507,465.42228c-149.76334,-148.51688 -298.61153,-297.96054 -446.79727,-448.04406c45.85026,-86.25056 128.4602,-149.9841 227.14407,-169.73192l390.21281,390.21281c-19.82495,98.99291 -83.90061,181.81247 -170.55945,227.56333z"/><path d="M-45.97041,104.90849c127.04816,128.37192 254.86835,255.97151 383.06356,383.18491c-31.61858,10.02851 -65.15671,15.72102 -100.09607,15.72102c-182.98196,0 -331.32213,-148.34034 -331.32213,-331.32213c0,-35.10493 5.7477,-68.80848 15.86464,-100.55954c10.84474,10.97723 21.63445,22.00932 32.49017,32.97575z"/></g><g><g><path d="M405.37664,135.98003l-0.09577,0.05747c0.06226,-0.03832 1.20682,1.70008 1.96347,2.90688c39.48964,62.68251 -22.35959,127.70201 -109.11612,182.35346c-86.76132,54.65145 -165.71187,78.02628 -205.19673,15.34379c-0.75665,-1.2116 -1.70008,-2.78238 -1.63782,-2.82069l-0.10057,0.06226l-0.16283,-0.49805c-0.65608,-1.17329 -2.14545,-3.70664 -2.04488,-3.77369l1.57078,-0.98653l-18.86845,-364.61113l329.22083,169.1216l1.57078,-0.9961c0.10057,-0.05747 1.73838,2.3801 2.51419,3.47678l0.38312,0.36396" fill="#f7d33e"/><path d="M109.33362,321.14937c48.82808,40.93112 126.21744,6.33098 172.48823,-20.85107c63.28591,-37.1718 101.7124,-86.23933 105.00241,-161.16238c1.60908,-36.74079 59.07164,-39.03469 57.44339,-1.906c-2.04488,46.56291 -11.27318,89.07438 -37.41603,128.39641c-25.10844,37.76562 -61.89711,65.43615 -101.1952,87.16359c-70.26341,38.83835 -165.8316,68.86982 -235.07016,10.81343c-28.47985,-23.87289 10.46863,-66.17364 38.74735,-42.45399z" fill="#b57d33"/><g fill="#d06c31"><path d="M112.10163,96.99322c0,-25.47795 20.65396,-46.13191 46.13191,-46.13191c25.47795,0 46.13191,20.65396 46.13191,46.13191c0,25.47795 -20.65396,46.13191 -46.13191,46.13191c-25.47795,0 -46.13191,-20.65396 -46.13191,-46.13191z"/><path d="M141.19447,230.59521c0,-25.47795 20.65396,-46.13191 46.13191,-46.13191c25.47795,0 46.13191,20.65396 46.13191,46.13191c0,25.47795 -20.65396,46.13191 -46.13191,46.13191c-25.47795,0 -46.13191,-20.65396 -46.13191,-46.13191z"/><path d="M252.1687,154.66169c0,-25.47795 20.65396,-46.13191 46.13191,-46.13191c25.47795,0 46.13191,20.65396 46.13191,46.13191c0,25.47795 -20.65396,46.13191 -46.13191,46.13191c-25.47795,0 -46.13191,-20.65396 -46.13191,-46.13191z"/></g></g><path d="M247.46597,85.48538c-16.80919,-10.00411 -32.72765,-21.80886 -49.54643,-31.96621c-16.29679,-9.8317 -32.24876,-20.11357 -45.08792,-34.67197c-0.3448,-0.3879 -0.62257,-0.79017 -0.8668,-1.19724c-14.36205,-10.34891 -29.30834,-19.582 -45.36089,-27.09107c0.15324,1.906 0.11972,3.91735 -0.13888,6.02929c-1.08709,8.91223 -14.6398,9.02237 -13.53835,0c0.17241,-1.40316 0.16762,-2.70575 0.03832,-3.93173c-0.68482,1.28822 -1.69049,2.38489 -2.97873,3.0745c0.01436,1.70487 -0.7327,3.40015 -1.85811,4.73626c13.45215,13.92625 22.71397,31.3197 25.48197,53.4111c1.13019,9.01279 -12.42253,8.89787 -13.53835,0c-1.02483,-8.19388 -3.24691,-15.55928 -6.38845,-22.24465c1.28344,7.90176 1.65698,15.83704 -0.24903,24.31826c-0.06226,0.28733 -0.20592,0.52678 -0.30649,0.79496c-0.00479,0.091 0,0.18198 -0.00958,0.27297c-0.29213,3.26127 -2.39927,5.47855 -4.86078,6.40282c1.70008,4.62133 3.47198,9.13731 5.18164,13.50004c1.33133,3.381 0,5.97182 -2.26038,7.35103c1.50373,4.95177 2.78238,10.0089 3.71622,15.20011c7.82035,43.33995 8.20826,83.59582 9.66887,130.00071c0.7375,1.00089 1.13977,2.39927 0.96737,4.18554c-0.18677,1.96347 -0.37833,3.97482 -0.5651,5.93829c-0.01436,0.12451 -0.05268,0.34001 -0.06704,0.45016c0.02394,0.68482 0.0431,2.20771 0.06704,2.20771c-0.19635,0 -0.39269,0 -0.58904,0c-2.32263,4.78894 -10.55483,4.78894 -12.51351,0c-0.14367,0 -0.29213,0 -0.4358,0c0.02394,0 0.05268,-1.42231 0.08141,-1.92037c-0.02394,-0.2155 -0.07183,-0.6082 -0.08141,-0.83328c-1.92515,-48.95259 -0.2586,-97.26827 -11.20613,-145.46421c-9.14209,-40.25587 -37.60759,-72.2125 -44.39831,-112.83713c-0.71355,-4.26695 1.91079,-7.20736 5.00444,-8.15079c0.44058,-0.64651 0.97694,-1.26428 1.68092,-1.79106c11.94842,-8.96011 34.25054,-9.82213 49.1681,-1.87247c0.49805,0.06226 1.01047,0.17719 1.55161,0.37833c38.44087,14.05555 70.29214,37.96676 101.89917,64.21018c0.99132,0.8237 1.59951,1.74317 1.95868,2.6866c4.1568,2.58602 8.37586,5.09544 12.59492,7.59048c15.2911,9.05111 29.41849,19.98905 44.6234,29.03537c7.57611,4.51119 0.76144,16.71821 -6.83861,12.19744zM86.12639,-17.86484c-2.06403,-1.29301 -4.48724,-2.23165 -7.08764,-2.89252c0.69919,0.56031 1.35527,1.1685 2.00656,1.77191c1.71923,0.46452 3.45283,0.81891 5.08107,1.12062z" fill="#f7d33e"/></g></g></g></svg>