<svg version="1.1" xmlns="http://www.w3.org/2000/svg" xmlns:xlink="http://www.w3.org/1999/xlink" width="82.20197" height="67.74089" viewBox="0,0,82.20197,67.74089"><g transform="translate(-202.5,-148.75)"><g stroke="none" stroke-miterlimit="10"><g><path d="M262.917,211.25h-60.417v-62.5l6.25,6.25l6.25,-6.25l6.25,6.25l6.25,-6.25l6.25,6.25l6.25,-6.25l6.25,6.25l6.25,-6.25l6.25,6.25l6.25,-6.25l6.25,6.25l6.25,-6.25v47.925z" fill="#cfd8dc" stroke-width="1"/><path d="M262.917,211.25h-60.417v-62.5l6.25,6.25l6.25,-6.25l6.25,6.25l6.25,-6.25l6.25,6.25l6.25,-6.25l6.25,6.25l6.25,-6.25l6.25,6.25l6.25,-6.25l6.25,6.25l6.25,-6.25v47.925z" fill="none" stroke-width="4.16667"/><path d="M208.75,161.25h31.25v8.333h-31.25z" fill="#3f51b5" stroke-width="1"/><path d="M208.75,161.25h31.25v8.333h-31.25z" fill="none" stroke-width="4.16667"/><path d="M208.75,176.20803h31.25v29.167h-31.25z" fill="#3f51b5" stroke-width="1"/><path d="M208.75,175.833h31.25v29.167h-31.25z" fill="none" stroke-width="4.16667"/><path d="M240,161.25h31.25v8.333h-31.25z" fill="#29b6f6" stroke-width="1"/><path d="M240,161.25h31.25v8.333h-31.25z" fill="none" stroke-width="4.16667"/><path d="M244.167,175.833h27.083v4.167h-27.083z" fill="#b0bec5" stroke-width="1"/><path d="M244.167,175.833h27.083v4.167h-27.083z" fill="none" stroke-width="4.16667"/><path d="M244.167,184.167h27.083v4.166h-27.083z" fill="#b0bec5" stroke-width="1"/><path d="M244.167,184.167h27.083v4.166h-27.083z" fill="none" stroke-width="4.16667"/><path d="M244.167,192.5h27.083v4.167h-27.083z" fill="#b0bec5" stroke-width="1"/><path d="M244.167,192.5h27.083v4.167h-27.083z" fill="none" stroke-width="4.16667"/><path d="M244.167,200.833h22.917v4.167h-22.917z" fill="#b0bec5" stroke-width="1"/><path d="M244.167,200.833h22.917v4.167h-22.917z" fill="none" stroke-width="4.16667"/><path d="M262.917,196.667h14.583l-14.583,14.583z" fill="#78909c" stroke-width="1"/><path d="M262.917,196.667h14.583l-14.583,14.583z" fill="none" stroke-width="4.16667"/><text transform="translate(218.22855,195.74869) scale(0.5,0.5)" font-size="40" xml:space="preserve" fill="#e8eaf6" stroke-width="1" font-family="Handwriting" font-weight="normal" text-anchor="start"><tspan x="0" dy="0">A</tspan></text></g><g><path d="M272.03544,191.15997c3.49555,0 6.6618,1.41847 8.95418,3.71085c2.29238,2.29238 3.71085,5.45863 3.71085,8.95418c0,3.49555 -1.41847,6.6618 -3.71085,8.95418c-2.29238,2.29238 -5.45863,3.71085 -8.95418,3.71085c-3.49555,0 -6.6618,-1.41847 -8.95418,-3.71085c-2.29238,-2.29238 -3.71085,-5.45863 -3.71085,-8.95418c0,-3.49555 1.41847,-6.6618 3.71085,-8.95418c2.29238,-2.29238 5.45863,-3.71085 8.95418,-3.71085z" fill="#ff2a2a" stroke-width="39.58333"/><path d="M284.70197,203.82595c0,0.6524 -0.06559,1.28911 -0.1603,1.91431c-0.33724,0.08543 -0.50649,0.08543 -0.50649,0.08543c-5.08255,0.24989 -14.3316,-10.66551 -19.33095,-10.66551c-1.05714,0 -1.79625,0.21021 -2.30818,0.4633c0.95124,-1.11634 2.09317,-2.06309 3.37493,-2.79548c0,0 1.34991,-0.67799 3.98797,-0.37467c4.88897,0.3478 12.02661,10.16413 14.35975,10.58072c0.19773,0.0352 0.36923,0.04575 0.54649,0.06047c0.01344,0.24413 0.0368,0.48474 0.0368,0.73143z" fill="#ff2a2a" stroke-width="1"/><path d="M284.70197,203.82595c0,0.6524 -0.06559,1.28911 -0.1603,1.91431c-0.33724,0.08543 -0.50649,0.08543 -0.50649,0.08543c-5.08255,0.24989 -14.3316,-10.66551 -19.33095,-10.66551c-1.05714,0 -1.79625,0.21021 -2.30818,0.4633c0.95124,-1.11634 2.09317,-2.06309 3.37493,-2.79548c0,0 1.34991,-0.67799 3.98797,-0.37467c4.88897,0.3478 12.02661,10.16413 14.35975,10.58072c0.19773,0.0352 0.36923,0.04575 0.54649,0.06047c0.01344,0.24413 0.0368,0.48474 0.0368,0.73143z" fill="#ff7129" stroke-width="4.16667"/><path d="M284.41465,206.49697c-0.27133,1.2632 -0.73271,2.45408 -1.35119,3.54738c-1.02067,0.72727 -2.55231,1.28048 -4.8189,1.28048c-6.29103,0 -9.45734,-5.04127 -15.37338,-5.04127c-1.53644,0 -2.40897,0.76726 -2.88027,1.44525c-0.39771,-1.22992 -0.61912,-2.53983 -0.61912,-3.90286c0,-0.32732 0.02464,-0.64856 0.04863,-0.96916c0.48602,-0.7999 1.51788,-1.5918 3.70544,-1.5918c6.5358,0 12.57694,7.60222 17.9097,7.60222c2.40385,0 2.99961,-1.70858 3.37909,-2.37026z" fill="#ff2a2a" stroke-width="1"/><path d="M284.41465,206.49697c-0.27133,1.2632 -0.73271,2.45408 -1.35119,3.54738c-1.02067,0.72727 -2.55231,1.28048 -4.8189,1.28048c-6.29103,0 -9.45734,-5.04127 -15.37338,-5.04127c-1.53644,0 -2.40897,0.76726 -2.88027,1.44525c-0.39771,-1.22992 -0.61912,-2.53983 -0.61912,-3.90286c0,-0.32732 0.02464,-0.64856 0.04863,-0.96916c0.48602,-0.7999 1.51788,-1.5918 3.70544,-1.5918c6.5358,0 12.57694,7.60222 17.9097,7.60222c2.40385,0 2.99961,-1.70858 3.37909,-2.37026z" fill="#ff7129" stroke-width="4.16667"/><path d="M275.36973,213.82467c2.81148,0 5.14206,-0.94676 5.80373,-1.24272c-2.30434,2.40449 -5.54169,3.90894 -9.13674,3.90894c-2.16708,0 -4.20554,-0.54585 -5.98931,-1.50573c-0.00992,-0.16478 -0.00992,-0.32924 -0.00992,-0.49402c0,0 0,-1.99974 1.99974,-1.99974c1.99974,0 3.99949,1.33327 7.3325,1.33327z" fill="#ff2a2a" stroke-width="1"/><path d="M275.36973,213.82467c2.81148,0 5.14206,-0.94676 5.80373,-1.24272c-2.30434,2.40449 -5.54169,3.90894 -9.13674,3.90894c-2.16708,0 -4.20554,-0.54585 -5.98931,-1.50573c-0.00992,-0.16478 -0.00992,-0.32924 -0.00992,-0.49402c0,0 0,-1.99974 1.99974,-1.99974c1.99974,0 3.99949,1.33327 7.3325,1.33327z" fill="#ff7129" stroke-width="4.16667"/></g></g></g></svg>