<svg version="1.1" xmlns="http://www.w3.org/2000/svg" xmlns:xlink="http://www.w3.org/1999/xlink" width="714.0908" height="96.61394" viewBox="0,0,714.0908,96.61394"><defs><linearGradient x1="43.69536" y1="311.15672" x2="43.69536" y2="336.71574" gradientUnits="userSpaceOnUse" id="color-1"><stop offset="0" stop-color="#c9c9c9"/><stop offset="1" stop-color="#000000"/></linearGradient><linearGradient x1="180.69536" y1="306.03923" x2="180.69536" y2="331.59825" gradientUnits="userSpaceOnUse" id="color-2"><stop offset="0" stop-color="#c9c9c9"/><stop offset="1" stop-color="#000000"/></linearGradient><linearGradient x1="139.69536" y1="310.1332" x2="139.69536" y2="335.69225" gradientUnits="userSpaceOnUse" id="color-3"><stop offset="0" stop-color="#c9c9c9"/><stop offset="1" stop-color="#000000"/></linearGradient><linearGradient x1="93.69536" y1="317.04183" x2="93.69536" y2="342.60084" gradientUnits="userSpaceOnUse" id="color-4"><stop offset="0" stop-color="#c9c9c9"/><stop offset="1" stop-color="#000000"/></linearGradient><linearGradient x1="236.69536" y1="312.43608" x2="236.69536" y2="337.99512" gradientUnits="userSpaceOnUse" id="color-5"><stop offset="0" stop-color="#c9c9c9"/><stop offset="1" stop-color="#000000"/></linearGradient><linearGradient x1="512.57445" y1="312.43608" x2="512.57445" y2="337.99512" gradientUnits="userSpaceOnUse" id="color-6"><stop offset="0" stop-color="#c9c9c9"/><stop offset="1" stop-color="#000000"/></linearGradient><linearGradient x1="375.57445" y1="307.3186" x2="375.57445" y2="332.87763" gradientUnits="userSpaceOnUse" id="color-7"><stop offset="0" stop-color="#c9c9c9"/><stop offset="1" stop-color="#000000"/></linearGradient><linearGradient x1="416.57445" y1="311.41256" x2="416.57445" y2="336.97162" gradientUnits="userSpaceOnUse" id="color-8"><stop offset="0" stop-color="#c9c9c9"/><stop offset="1" stop-color="#000000"/></linearGradient><linearGradient x1="462.57445" y1="318.3212" x2="462.57445" y2="343.88024" gradientUnits="userSpaceOnUse" id="color-9"><stop offset="0" stop-color="#c9c9c9"/><stop offset="1" stop-color="#000000"/></linearGradient><linearGradient x1="319.57445" y1="313.71546" x2="319.57445" y2="339.2745" gradientUnits="userSpaceOnUse" id="color-10"><stop offset="0" stop-color="#c9c9c9"/><stop offset="1" stop-color="#000000"/></linearGradient><linearGradient x1="-36.57655" y1="311.53632" x2="-36.57655" y2="337.09537" gradientUnits="userSpaceOnUse" id="color-11"><stop offset="0" stop-color="#c9c9c9"/><stop offset="1" stop-color="#000000"/></linearGradient><linearGradient x1="100.42345" y1="306.41883" x2="100.42345" y2="331.97785" gradientUnits="userSpaceOnUse" id="color-12"><stop offset="0" stop-color="#c9c9c9"/><stop offset="1" stop-color="#000000"/></linearGradient><linearGradient x1="59.42345" y1="310.51283" x2="59.42345" y2="336.07187" gradientUnits="userSpaceOnUse" id="color-13"><stop offset="0" stop-color="#c9c9c9"/><stop offset="1" stop-color="#000000"/></linearGradient><linearGradient x1="13.42345" y1="317.42143" x2="13.42345" y2="342.98048" gradientUnits="userSpaceOnUse" id="color-14"><stop offset="0" stop-color="#c9c9c9"/><stop offset="1" stop-color="#000000"/></linearGradient><linearGradient x1="156.42344" y1="312.8157" x2="156.42344" y2="338.37474" gradientUnits="userSpaceOnUse" id="color-15"><stop offset="0" stop-color="#c9c9c9"/><stop offset="1" stop-color="#000000"/></linearGradient><linearGradient x1="432.30254" y1="312.8157" x2="432.30254" y2="338.37474" gradientUnits="userSpaceOnUse" id="color-16"><stop offset="0" stop-color="#c9c9c9"/><stop offset="1" stop-color="#000000"/></linearGradient><linearGradient x1="295.30253" y1="307.6982" x2="295.30253" y2="333.25723" gradientUnits="userSpaceOnUse" id="color-17"><stop offset="0" stop-color="#c9c9c9"/><stop offset="1" stop-color="#000000"/></linearGradient><linearGradient x1="336.30254" y1="311.79221" x2="336.30254" y2="337.35125" gradientUnits="userSpaceOnUse" id="color-18"><stop offset="0" stop-color="#c9c9c9"/><stop offset="1" stop-color="#000000"/></linearGradient><linearGradient x1="382.30254" y1="318.70081" x2="382.30254" y2="344.25986" gradientUnits="userSpaceOnUse" id="color-19"><stop offset="0" stop-color="#c9c9c9"/><stop offset="1" stop-color="#000000"/></linearGradient><linearGradient x1="239.30254" y1="314.09506" x2="239.30254" y2="339.65412" gradientUnits="userSpaceOnUse" id="color-20"><stop offset="0" stop-color="#c9c9c9"/><stop offset="1" stop-color="#000000"/></linearGradient><linearGradient x1="323.57657" y1="315.51496" x2="323.57657" y2="341.07398" gradientUnits="userSpaceOnUse" id="color-21"><stop offset="0" stop-color="#c9c9c9"/><stop offset="1" stop-color="#000000"/></linearGradient><linearGradient x1="460.57657" y1="310.39745" x2="460.57657" y2="335.9565" gradientUnits="userSpaceOnUse" id="color-22"><stop offset="0" stop-color="#c9c9c9"/><stop offset="1" stop-color="#000000"/></linearGradient><linearGradient x1="419.57657" y1="314.49145" x2="419.57657" y2="340.05049" gradientUnits="userSpaceOnUse" id="color-23"><stop offset="0" stop-color="#c9c9c9"/><stop offset="1" stop-color="#000000"/></linearGradient><linearGradient x1="373.57657" y1="321.40008" x2="373.57657" y2="346.95909" gradientUnits="userSpaceOnUse" id="color-24"><stop offset="0" stop-color="#c9c9c9"/><stop offset="1" stop-color="#000000"/></linearGradient><linearGradient x1="516.57656" y1="316.79433" x2="516.57656" y2="342.35336" gradientUnits="userSpaceOnUse" id="color-25"><stop offset="0" stop-color="#c9c9c9"/><stop offset="1" stop-color="#000000"/></linearGradient><linearGradient x1="242.9463" y1="323.03869" x2="242.9463" y2="365.99288" gradientUnits="userSpaceOnUse" id="color-26"><stop offset="0" stop-color="#c9c9c9"/><stop offset="1" stop-color="#000000"/></linearGradient></defs><g transform="translate(111.80371,-306.03922)"><g stroke-width="0" stroke-miterlimit="10"><g stroke="none"><path d="M87.19536,323.9362c0,7.05793 -19.47562,12.77952 -43.5,12.77952c-24.02438,0 -43.5,-5.72158 -43.5,-12.77951c0,-7.05793 19.47562,-12.77951 43.5,-12.77951c24.02439,0 43.5,5.72158 43.5,12.77952z" fill="url(#color-1)"/><path d="M224.19536,318.81872c0,7.05793 -19.47562,12.77952 -43.5,12.77952c-24.02438,0 -43.5,-5.72158 -43.5,-12.77951c0,-7.05793 19.47562,-12.77951 43.5,-12.77951c24.02438,0 43.5,5.72158 43.5,12.77952z" fill="url(#color-2)"/><path d="M183.19536,322.91271c0,7.05793 -19.47562,12.77951 -43.5,12.77951c-24.02438,0 -43.5,-5.72158 -43.5,-12.77951c0,-7.05793 19.47562,-12.77951 43.5,-12.77951c24.02438,0 43.5,5.72158 43.5,12.77952z" fill="url(#color-3)"/><path d="M137.19536,329.82133c0,7.05793 -19.47562,12.77952 -43.5,12.77952c-24.02438,0 -43.5,-5.72158 -43.5,-12.77951c0,-7.05793 19.47562,-12.77951 43.5,-12.77951c24.02438,0 43.5,5.72158 43.5,12.77952z" fill="url(#color-4)"/><path d="M280.19536,325.21558c0,7.05793 -19.47562,12.77952 -43.5,12.77952c-24.02438,0 -43.5,-5.72158 -43.5,-12.77951c0,-7.05793 19.47562,-12.77951 43.5,-12.77951c24.02438,0 43.5,5.72158 43.5,12.77952z" fill="url(#color-5)"/></g><g stroke="none"><path d="M512.57445,312.43608c24.02438,0 43.5,5.72158 43.5,12.77952c0,7.05793 -19.47562,12.77952 -43.5,12.77952c-24.02438,0 -43.5,-5.72158 -43.5,-12.77951c0,-7.05793 19.47562,-12.77951 43.5,-12.77951z" fill="url(#color-6)"/><path d="M375.57445,307.3186c24.02438,0 43.5,5.72158 43.5,12.77952c0,7.05793 -19.47562,12.77952 -43.5,12.77952c-24.02438,0 -43.5,-5.72158 -43.5,-12.77951c0,-7.05793 19.47562,-12.77951 43.5,-12.77951z" fill="url(#color-7)"/><path d="M416.57445,311.41256c24.02438,0 43.5,5.72158 43.5,12.77952c0,7.05793 -19.47562,12.77952 -43.5,12.77952c-24.02438,0 -43.5,-5.72158 -43.5,-12.77951c0,-7.05793 19.47562,-12.77951 43.5,-12.77951z" fill="url(#color-8)"/><path d="M462.57445,318.3212c24.02438,0 43.5,5.72158 43.5,12.77952c0,7.05793 -19.47562,12.77952 -43.5,12.77952c-24.02438,0 -43.5,-5.72158 -43.5,-12.77951c0,-7.05793 19.47562,-12.77951 43.5,-12.77951z" fill="url(#color-9)"/><path d="M319.57445,313.71546c24.02438,0 43.5,5.72158 43.5,12.77952c0,7.05793 -19.47562,12.77952 -43.5,12.77952c-24.02438,0 -43.5,-5.72159 -43.5,-12.77952c0,-7.05793 19.47562,-12.77951 43.5,-12.77951z" fill="url(#color-10)"/></g><g stroke="none"><path d="M6.92345,324.31585c0,7.05793 -19.47562,12.77951 -43.5,12.77951c-24.02438,0 -43.5,-5.72158 -43.5,-12.77951c0,-7.05793 19.47562,-12.77951 43.5,-12.77951c24.02439,0 43.5,5.72158 43.5,12.77952z" fill="url(#color-11)"/><path d="M143.92344,319.19835c0,7.05793 -19.47562,12.77951 -43.5,12.77951c-24.02438,0 -43.5,-5.72158 -43.5,-12.77951c0,-7.05793 19.47562,-12.77951 43.5,-12.77951c24.02438,0 43.5,5.72158 43.5,12.77952z" fill="url(#color-12)"/><path d="M102.92345,323.29233c0,7.05793 -19.47562,12.77952 -43.5,12.77952c-24.02438,0 -43.5,-5.72158 -43.5,-12.77951c0,-7.05793 19.47562,-12.77952 43.5,-12.77952c24.02438,0 43.5,5.72158 43.5,12.77952z" fill="url(#color-13)"/><path d="M56.92345,330.20096c0,7.05793 -19.47562,12.77951 -43.5,12.77951c-24.02438,0 -43.5,-5.72158 -43.5,-12.77951c0,-7.05793 19.47562,-12.77951 43.5,-12.77951c24.02438,0 43.5,5.72158 43.5,12.77952z" fill="url(#color-14)"/><path d="M199.92345,325.59521c0,7.05793 -19.47562,12.77952 -43.5,12.77952c-24.02438,0 -43.5,-5.72158 -43.5,-12.77951c0,-7.05793 19.47562,-12.77951 43.5,-12.77951c24.02438,0 43.5,5.72158 43.5,12.77952z" fill="url(#color-15)"/></g><g stroke="none"><path d="M432.30254,312.8157c24.02438,0 43.5,5.72158 43.5,12.77952c0,7.05793 -19.47562,12.77952 -43.5,12.77952c-24.02438,0 -43.5,-5.72158 -43.5,-12.77951c0,-7.05793 19.47562,-12.77951 43.5,-12.77951z" fill="url(#color-16)"/><path d="M295.30253,307.6982c24.02438,0 43.5,5.72158 43.5,12.77952c0,7.05793 -19.47562,12.77952 -43.5,12.77952c-24.02438,0 -43.5,-5.72158 -43.5,-12.77951c0,-7.05793 19.47562,-12.77951 43.5,-12.77951z" fill="url(#color-17)"/><path d="M336.30254,311.79221c24.02438,0 43.5,5.72158 43.5,12.77952c0,7.05793 -19.47562,12.77952 -43.5,12.77952c-24.02438,0 -43.5,-5.72158 -43.5,-12.77951c0,-7.05793 19.47562,-12.77951 43.5,-12.77951z" fill="url(#color-18)"/><path d="M382.30254,318.70081c24.02438,0 43.5,5.72158 43.5,12.77952c0,7.05793 -19.47562,12.77952 -43.5,12.77952c-24.02438,0 -43.5,-5.72158 -43.5,-12.77951c0,-7.05793 19.47562,-12.77951 43.5,-12.77951z" fill="url(#color-19)"/><path d="M239.30254,314.09506c24.02438,0 43.5,5.72158 43.5,12.77952c0,7.05793 -19.47562,12.77952 -43.5,12.77952c-24.02438,0 -43.5,-5.72158 -43.5,-12.77951c0,-7.05793 19.47562,-12.77951 43.5,-12.77951z" fill="url(#color-20)"/></g><g stroke="none"><path d="M367.07657,328.29446c0,7.05793 -19.47562,12.77952 -43.5,12.77952c-24.02438,0 -43.5,-5.72158 -43.5,-12.77951c0,-7.05793 19.47562,-12.77951 43.5,-12.77951c24.02439,0 43.5,5.72158 43.5,12.77952z" fill="url(#color-21)"/><path d="M504.07657,323.17698c0,7.05793 -19.47562,12.77952 -43.5,12.77952c-24.02438,0 -43.5,-5.72158 -43.5,-12.77951c0,-7.05793 19.47562,-12.77951 43.5,-12.77951c24.02438,0 43.5,5.72158 43.5,12.77952z" fill="url(#color-22)"/><path d="M463.07657,327.27097c0,7.05793 -19.47562,12.77952 -43.5,12.77952c-24.02438,0 -43.5,-5.72158 -43.5,-12.77951c0,-7.05793 19.47562,-12.77951 43.5,-12.77951c24.02438,0 43.5,5.72158 43.5,12.77952z" fill="url(#color-23)"/><path d="M417.07657,334.17958c0,7.05793 -19.47562,12.77952 -43.5,12.77952c-24.02438,0 -43.5,-5.72158 -43.5,-12.77951c0,-7.05793 19.47562,-12.77951 43.5,-12.77951c24.02438,0 43.5,5.72158 43.5,12.77952z" fill="url(#color-24)"/><path d="M560.07656,329.57383c0,7.05793 -19.47562,12.77952 -43.5,12.77952c-24.02438,0 -43.5,-5.72158 -43.5,-12.77951c0,-7.05793 19.47562,-12.77951 43.5,-12.77951c24.02438,0 43.5,5.72158 43.5,12.77952z" fill="url(#color-25)"/></g><path d="M-111.8037,365.99288v-42.95418h709.5v42.95418z" fill="url(#color-26)" stroke="#000000"/><path d="M-107.2129,402.65317v-42.95418h709.5v42.95418z" fill="#000000" stroke="#000000"/></g></g></svg>