<svg version="1.1" xmlns="http://www.w3.org/2000/svg" xmlns:xlink="http://www.w3.org/1999/xlink" width="770.89367" height="770.89367" viewBox="0,0,770.89367,770.89367"><g transform="translate(148.44983,212.95432)"><g data-paper-data="{&quot;isPaintingLayer&quot;:true}" fill-rule="nonzero" stroke="none" stroke-linejoin="miter" stroke-miterlimit="10" stroke-dasharray="" stroke-dashoffset="0" style="mix-blend-mode: normal"><g fill="#7ee08b" stroke-width="1" stroke-linecap="butt"><path d="M236.99692,557.93918c-212.87603,0 -385.44675,-172.57039 -385.44675,-385.44675c0,-212.87603 172.57039,-385.44675 385.44692,-385.44675c212.87636,0 385.44675,172.57039 385.44675,385.44692c0,212.87603 -172.57039,385.44675 -385.44675,385.44675z"/><path d="M543.23198,142.37419c-100.36105,-100.36105 -200.71064,-200.71064 -301.0717,-301.0717c178.86656,2.74709 323.29081,147.16004 326.02693,326.02693z"/><path d="M391.29507,465.4223c-149.76334,-148.51688 -298.61153,-297.96054 -446.79727,-448.04406c45.85026,-86.25056 128.4602,-149.9841 227.14407,-169.73192l390.21281,390.21281c-19.82495,98.99291 -83.90061,181.81247 -170.55945,227.56333z"/><path d="M-45.97041,104.90851c127.04816,128.37192 254.86835,255.97151 383.06356,383.18491c-31.61858,10.02851 -65.15671,15.72102 -100.09607,15.72102c-182.98196,0 -331.32213,-148.34034 -331.32213,-331.32213c0,-35.10493 5.7477,-68.80848 15.86464,-100.55954c10.84474,10.97723 21.63445,22.00932 32.49017,32.97575z"/></g><path d="M68.07064,112.22203c0,0 3.94821,-16.18256 37.54415,-50.57655c33.57929,-34.37741 69.93057,-46.21693 94.03851,-56.09961c24.10846,-9.88268 40.29522,-59.26253 40.29522,-59.26253c0,0 22.19761,27.61068 45.01551,52.71625c23.2762,25.60273 77.49107,48.0382 135.5816,106.51071c6.93203,7.00031 12.82433,14.3276 17.77872,21.84593l0.99763,0.87435c12.98167,11.25375 58.99054,56.15461 53.09396,121.51751c-4.5084,49.79546 -27.15193,65.53637 -38.12566,69.77323l-0.08906,0.36488c5.65437,-11.20303 9.02063,-23.089 10.61252,-35.15842c5.23877,-39.9085 -16.25886,-65.84626 -30.04713,-100.55876c-17.87634,-45.01596 -66.77613,-70.34243 -130.09687,-69.08128c-120.51087,2.38573 -147.05196,70.13384 -147.05196,70.13384l-0.08486,0.87435c22.35488,41.51367 31.28269,133.60772 -14.49305,161.16722c-49.30737,29.63528 -122.31555,19.2943 -150.74949,-95.25269c-26.02689,-104.82548 51.90537,-137.85688 74.82952,-137.58534l0.95066,-2.20325v0v0zM438.32008,127.35623c0,0 31.61344,50.2329 21.3189,112.30539M67.1157,114.42101c22.1682,0.60281 37.02613,16.47121 37.02613,16.47121M157.52872,186.08326c-3.73122,-5.81974 -6.33349,-10.61252 -6.33349,-10.61252" fill="#ff855d" stroke-width="0" stroke-linecap="round"/><path d="M461.1205,302.83785c0,0 9.98082,-18.10571 16.71334,-51.27697c6.72449,-33.1973 -2.24115,-78.33601 -2.24115,-78.33601c11.1433,20.21135 19.57823,46.1491 16.8574,76.5233c-4.36434,48.53056 -26.88894,65.06952 -38.13413,69.77323l6.80455,-16.68347v0v0z" fill="#404041" stroke-width="0" stroke-linecap="butt"/><g stroke-width="0"><path d="M-5.11574,262.2203v0v0v0c-5.08563,-19.65498 -9.51307,-50.30073 -5.43355,-74.14185c4.19424,-24.59182 18.65735,-40.52842 34.57639,-44.39132c29.80545,-7.26337 65.83395,35.70578 80.50093,95.94036c13.80538,56.78301 3.74022,108.63766 -22.41843,120.51988c0,0 -8.56706,1.0867 -25.85297,-8.40551c-17.27353,-9.48366 -32.20822,-25.75955 -38.30003,-36.28301c-6.10884,-10.52391 -17.97396,-33.54515 -23.07241,-53.23855z" fill="#404041" stroke-linecap="butt"/><path d="M13.40182,212.12763c11.46609,-4.9117 30.92576,14.8409 43.47007,44.13261c12.53193,29.27415 13.41056,57.02469 1.9573,61.92363c-11.47464,4.89895 -30.92576,-14.85793 -43.46197,-44.14116c-12.55706,-29.2827 -13.42714,-56.99955 -1.96533,-61.91508v0v0zM63.82575,313.39965c-47.21449,-29.91965 -46.68844,-102.00659 -46.68844,-102.00659" fill="#929497" stroke-linecap="round"/></g><path d="M139.10922,349.96748v0v0v0l-0.25924,-0.32699c1.40941,-0.7597 2.80186,-1.5663 4.17713,-2.38573c45.83494,-27.5932 36.81431,-119.89568 14.40819,-161.31556l0.18248,-0.73029c0,0 26.54109,-67.7481 147.07327,-70.13384c63.31646,-1.26107 112.21198,24.06577 130.08839,69.08128c13.78827,34.7167 35.29866,60.65446 30.04713,100.55921c-5.48472,41.53453 -32.01674,81.2009 -100.38056,97.38346c-68.36427,16.22945 -65.62168,7.53536 -88.52865,17.3797c-22.91935,9.90406 -24.09946,14.23801 -24.09946,14.23801c0,0 7.3396,-14.35702 -22.02413,-21.69662c-44.33587,-11.04621 -85.16194,-38.27445 -90.68456,-42.05256z" fill="#e6e7e8" stroke-width="0" stroke-linecap="round"/><path d="M322.49109,340.87865c-53.97694,3.62977 -60.0052,-66.56379 -60.0052,-66.56379c0,0 30.84953,-0.97625 70.66042,-3.44729c39.80286,-2.45349 49.34571,0 49.34571,0c0,0 -6.03681,66.36473 -60.00093,70.01108v0z" fill="#ffffff" stroke-width="0" stroke-linecap="round"/><path d="M404.32467,230.6362c-0.67057,0 -1.34121,-0.08906 -2.03316,-0.2801c-3.81225,-1.11656 -6.01978,-5.12832 -4.88184,-8.9486c0.50947,-1.78337 0.61939,-3.62549 0.32654,-5.46814c-1.09097,-6.92355 -7.79415,-11.64429 -14.77735,-10.54049c-7.06378,1.11228 -11.92011,7.65812 -10.82914,14.59494c0.61992,3.935 -2.0715,7.62825 -6.01123,8.24389c-3.96907,0.61992 -7.63298,-2.06302 -8.23962,-6.01123c-2.33929,-14.78162 7.8998,-28.73962 22.83876,-31.09976c14.91293,-2.30942 28.93913,7.77704 31.30355,22.55019c0.61992,3.96907 0.37396,7.92591 -0.76398,11.77177c-0.9298,3.14589 -3.80797,5.18752 -6.93255,5.18752v0v0z" fill="#000000" stroke-width="0" stroke-linecap="butt"/><path d="M266.73933,230.6362c-0.66636,0 -1.34548,-0.08906 -2.03316,-0.2801c-3.81653,-1.11656 -6.01978,-5.12832 -4.88612,-8.9486c0.51375,-1.78337 0.61939,-3.62549 0.3393,-5.46814c-1.09953,-6.92355 -7.77704,-11.64429 -14.79018,-10.54049c-7.05958,1.11228 -11.91156,7.65812 -10.82914,14.59494c0.61992,3.935 -2.06722,7.62825 -6.01123,8.24389c-3.96487,0.61992 -7.62825,-2.06302 -8.24817,-6.01123c-2.33073,-14.78162 7.9088,-28.73962 22.83876,-31.09976c14.88352,-2.30942 28.95188,7.77704 31.30355,22.55019c0.62412,3.96907 0.37816,7.92591 -0.7597,11.77177c-0.92132,3.14589 -3.79942,5.18752 -6.924,5.18752v0v0v0z" fill="#000000" stroke-width="0" stroke-linecap="butt"/></g></g></svg>