<svg version="1.1" xmlns="http://www.w3.org/2000/svg" xmlns:xlink="http://www.w3.org/1999/xlink" width="770.89367" height="770.89367" viewBox="0,0,770.89367,770.89367"><g transform="translate(148.44983,212.95432)"><g data-paper-data="{&quot;isPaintingLayer&quot;:true}" fill-rule="nonzero" stroke-linejoin="miter" stroke-miterlimit="10" stroke-dasharray="" stroke-dashoffset="0" style="mix-blend-mode: normal"><g fill="#52c3ff" stroke="none" stroke-width="1" stroke-linecap="butt"><path d="M236.99692,557.93918c-212.87603,0 -385.44675,-172.57039 -385.44675,-385.44675c0,-212.87603 172.57039,-385.44675 385.44692,-385.44675c212.87636,0 385.44675,172.57039 385.44675,385.44692c0,212.87603 -172.57039,385.44675 -385.44675,385.44675z"/><path d="M543.23198,142.37419c-100.36105,-100.36105 -200.71064,-200.71064 -301.0717,-301.0717c178.86656,2.74709 323.29081,147.16004 326.02693,326.02693z"/><path d="M391.29507,465.4223c-149.76334,-148.51688 -298.61153,-297.96054 -446.79727,-448.04406c45.85026,-86.25056 128.4602,-149.9841 227.14407,-169.73192l390.21281,390.21281c-19.82495,98.99291 -83.90061,181.81247 -170.55945,227.56333z"/><path d="M-45.97041,104.90851c127.04816,128.37192 254.86835,255.97151 383.06356,383.18491c-31.61858,10.02851 -65.15671,15.72102 -100.09607,15.72102c-182.98196,0 -331.32213,-148.34034 -331.32213,-331.32213c0,-35.10493 5.7477,-68.80848 15.86464,-100.55954c10.84474,10.97723 21.63445,22.00932 32.49017,32.97575z"/></g><g stroke="#ffffff" stroke-width="6.5"><path d="M94.81868,170.04426c0,-75.05356 60.843,-135.8964 135.89648,-135.8964c75.05356,0 135.89648,60.84292 135.89648,135.8964c0,75.05356 -60.84292,135.89648 -135.89648,135.89648c-75.05356,0 -135.89648,-60.843 -135.89648,-135.89648z" fill="#52c3ff" stroke-linecap="butt"/><path d="M290.64469,203.8073c0,-39.62455 32.12201,-71.74656 71.74648,-71.74656c39.62455,0 71.74656,32.12209 71.74656,71.74656c0,39.62455 -32.12201,71.74664 -71.74656,71.74664c-39.62455,0 -71.74648,-32.12209 -71.74648,-71.74656z" fill="#52c3ff" stroke-linecap="butt"/><path d="M351.41828,261.20456c0,-46.15095 37.41272,-83.56367 83.56367,-83.56367c46.15095,0 83.56367,37.41272 83.56367,83.56367c0,15.20399 -4.06046,29.4596 -11.15612,41.74165c-14.44282,24.9994 -124.76074,28.28862 -139.95767,7.46041c-10.07062,-13.80236 -16.01355,-30.80814 -16.01355,-49.20206z" fill="#52c3ff" stroke-linecap="butt"/><path d="M30.66884,252.76378c0,-46.15095 37.41272,-83.56367 83.56367,-83.56367c46.15095,0 83.56367,37.41272 83.56367,83.56367c0,23.94629 -10.0724,45.54005 -26.21162,60.77562c-14.96539,14.1275 -99.78277,14.10851 -114.7532,-0.04652c-16.11048,-15.23297 -26.16243,-36.80717 -26.16243,-60.7291z" fill="#52c3ff" stroke-linecap="butt"/><path d="M-38.54553,273.86574c0,-35.429 28.72092,-64.14984 64.14984,-64.14984c35.429,0 64.14992,28.72083 64.14992,64.14984c0,14.68629 -4.93529,28.21993 -13.23773,39.03297c-11.72618,15.27202 -88.29811,16.2066 -100.0657,2.18992c-9.35961,-11.14857 -14.99633,-25.52749 -14.99633,-41.22289z" fill="#52c3ff" stroke-linecap="butt"/><path d="M-25.0403,300.8762c0,-14.95663 0,-57.39734 0,-57.39734h526.70426c0,0 0,44.16951 0,59.08539c0,9.09041 -5.43652,21.94601 -15.19344,21.94601c-80.12661,0 -451.62798,0 -496.31747,0c-8.63984,0 -15.19336,-14.03658 -15.19336,-23.63414z" fill="#52c3ff" stroke-linecap="butt"/><path d="M72.0286,221.53293c0,-6.99255 5.66862,-12.66117 12.66117,-12.66117c6.99255,0 12.66109,5.66862 12.66109,12.66117c0,6.99255 -5.66854,12.66117 -12.66109,12.66117c-6.99255,0 -12.66117,-5.66862 -12.66117,-12.66117z" fill="#ffffff" stroke-linecap="butt"/><path d="M367.4557,219.8448c0,-6.99255 5.66862,-12.66117 12.66117,-12.66117c6.99255,0 12.66109,5.66862 12.66109,12.66117c0,6.99255 -5.66854,12.66109 -12.66109,12.66109c-6.99255,0 -12.66117,-5.66854 -12.66117,-12.66109z" fill="#ffffff" stroke-linecap="butt"/><path d="M229.32108,248.90734c-36.43283,2.44995 -40.50166,-44.92849 -40.50166,-44.92849c0,0 20.82252,-0.65896 47.69359,-2.32687c26.86572,-1.65598 33.30687,0 33.30687,0c0,0 -4.07459,44.79414 -40.49873,47.25537z" fill="#ffffff" stroke-linecap="round"/></g><path d="M94.81868,170.88824c0,-75.05356 60.843,-135.8964 135.89648,-135.8964c75.05356,0 135.89648,60.84292 135.89648,135.8964c0,75.05356 -60.84292,135.89648 -135.89648,135.89648c-75.05356,0 -135.89648,-60.84292 -135.89648,-135.89648z" fill="#43a0d2" stroke="none" stroke-width="0" stroke-linecap="butt"/><path d="M290.64469,204.65136c0,-39.62455 32.12201,-71.74656 71.74648,-71.74656c39.62455,0 71.74656,32.12201 71.74656,71.74656c0,39.62455 -32.12201,71.74664 -71.74656,71.74664c-39.62455,0 -71.74648,-32.12209 -71.74648,-71.74656z" fill="#43a0d2" stroke="none" stroke-width="0" stroke-linecap="butt"/><path d="M351.41828,262.04871c0,-46.15095 37.41272,-83.56367 83.56367,-83.56367c46.15095,0 83.56367,37.41272 83.56367,83.56367c0,15.20399 -4.06046,29.4596 -11.15612,41.74165c-14.44282,24.9994 -124.76074,28.28862 -139.95767,7.46041c-10.07062,-13.80236 -16.01355,-30.80814 -16.01355,-49.20206z" fill="#43a0d2" stroke="none" stroke-width="0" stroke-linecap="butt"/><path d="M30.66884,253.60784c0,-46.15095 37.41272,-83.56367 83.56367,-83.56367c46.15095,0 83.56359,37.41272 83.56359,83.56367c0,23.94629 -10.0724,45.54005 -26.21162,60.77562c-14.96539,14.1275 -99.78277,14.10851 -114.7532,-0.04652c-16.11048,-15.23297 -26.16243,-36.80717 -26.16243,-60.7291z" fill="#52c3ff" stroke="none" stroke-width="0" stroke-linecap="butt"/><path d="M-38.54553,274.7098c0,-35.429 28.72092,-64.14984 64.14984,-64.14984c35.429,0 64.14992,28.72083 64.14992,64.14984c0,14.68629 -4.93529,28.21993 -13.23773,39.03297c-11.72618,15.27202 -88.29811,16.20669 -100.0657,2.19c-9.35961,-11.14857 -14.99633,-25.52749 -14.99633,-41.22289z" fill="#52c3ff" stroke="none" stroke-width="0" stroke-linecap="butt"/><path d="M-25.04021,301.72026c0,-14.95663 0,-57.39734 0,-57.39734h526.70426c0,0 0,44.16951 0,59.08539c0,9.09041 -5.43643,21.9461 -15.19336,21.9461c-80.12661,0 -451.62806,0 -496.31747,0c-8.63984,0 -15.19344,-14.03666 -15.19344,-23.63414z" fill="#43a0d2" stroke="none" stroke-width="0" stroke-linecap="butt"/><g fill="#52c3ff" stroke="none" stroke-width="0" stroke-linecap="butt"><path d="M82.40569,176.33312c0,-69.59074 56.41454,-126.00519 126.00528,-126.00519c69.59074,0 126.00528,56.41446 126.00528,126.00519c0,69.59074 -56.41454,126.00528 -126.00528,126.00528c-69.59074,0 -126.00528,-56.41454 -126.00528,-126.00528z"/><path d="M263.97844,207.63874c0,-36.74044 29.78401,-66.52453 66.52445,-66.52453c36.74044,0 66.52445,29.78409 66.52445,66.52453c0,36.74044 -29.78401,66.52453 -66.52445,66.52453c-36.74044,0 -66.52445,-29.78409 -66.52445,-66.52453z"/><path d="M320.3286,260.8584c0,-42.79183 34.68967,-77.4815 77.4815,-77.4815c42.79183,0 77.4815,34.68967 77.4815,77.4815c0,14.09738 -3.76495,27.31531 -10.34412,38.70345c-13.39158,23.17976 -115.68007,26.22973 -129.7708,6.91746c-9.33753,-12.7978 -14.848,-28.56577 -14.848,-45.62083z"/><path d="M22.92502,253.03193c0,-42.79183 34.68959,-77.48142 77.48142,-77.48142c42.79183,0 77.4815,34.68959 77.4815,77.48142c0,22.20337 -9.33932,42.2255 -24.3039,56.35211c-13.87616,13.09924 -92.52004,13.08162 -106.40083,-0.04319c-14.93787,-14.12426 -24.25819,-34.1282 -24.25819,-56.30892z"/><path d="M-41.25161,272.59798c0,-32.8503 26.63045,-59.48067 59.48075,-59.48067c32.8503,0 59.48075,26.63045 59.48075,59.48067c0,13.61743 -4.57605,26.16592 -12.27425,36.19196c-10.87271,14.16046 -81.87132,15.02709 -92.78243,2.03055c-8.67832,-10.33706 -13.90482,-23.66945 -13.90482,-38.22252z"/><path d="M-28.72934,297.64251c0,-13.86804 0,-53.21966 0,-53.21966h488.36801c0,0 0,40.95466 0,54.78487c0,8.42877 -5.04075,20.34873 -14.08748,20.34873c-74.29457,0 -418.75624,0 -460.19297,0c-8.011,0 -14.08756,-13.01497 -14.08756,-21.91395z"/></g><path d="M72.0286,222.37699c0,-6.99255 5.66862,-12.66117 12.66117,-12.66117c6.99255,0 12.66109,5.66862 12.66109,12.66117c0,6.99255 -5.66854,12.66117 -12.66109,12.66117c-6.99255,0 -12.66117,-5.66862 -12.66117,-12.66117z" fill="#ffffff" stroke="none" stroke-width="0.5" stroke-linecap="butt"/><path d="M367.4557,220.68886c0,-6.99255 5.66854,-12.66109 12.66109,-12.66109c6.99255,0 12.66117,5.66854 12.66117,12.66109c0,6.99255 -5.66862,12.66117 -12.66117,12.66117c-6.99255,0 -12.66109,-5.66862 -12.66109,-12.66117z" fill="#ffffff" stroke="none" stroke-width="0.5" stroke-linecap="butt"/><path d="M229.32108,249.75148c-36.43283,2.44995 -40.50166,-44.92858 -40.50166,-44.92858c0,0 20.82252,-0.65896 47.69359,-2.32679c26.86572,-1.65598 33.30687,0 33.30687,0c0,0 -4.07459,44.79414 -40.49873,47.25537z" fill="#ffffff" stroke="none" stroke-width="0" stroke-linecap="round"/><path d="M78.40433,331.73589c0,0 -102.67858,4.01207 -114.48708,-10.0534c-9.80466,-11.67869 -15.70952,-26.74143 -15.70952,-43.1833v0c0,-37.11388 30.08674,-67.20054 67.20054,-67.20054c3.79166,0 7.51002,0.31402 11.13046,0.91753l7.62513,-2.46886c12.78749,-20.26755 33.66181,-34.92226 58.09187,-39.43312" fill="none" stroke="#ffffff" stroke-width="4" stroke-linecap="butt"/><path d="M88.30259,180.33374c-0.25727,-3.49754 -0.38822,-7.03014 -0.38822,-10.59335c0,-9.73809 0.97777,-19.24789 2.84052,-28.43645c13.17644,-64.99723 70.63402,-113.92278 139.51871,-113.92278c68.58528,0 125.84258,48.50121 139.34441,113.0762" fill="none" stroke="#ffffff" stroke-width="4" stroke-linecap="butt"/><path d="M360.73787,130.3175c2.45839,-0.24266 4.95153,-0.36695 7.47373,-0.36695c34.09792,0 62.89239,22.70662 72.08745,53.82382" fill="none" stroke="#ffffff" stroke-width="4" stroke-linecap="butt"/><path d="M429.50191,178.93618c4.79598,-0.81394 9.72477,-1.23788 14.75261,-1.23788c48.34574,0 87.53767,39.19193 87.53767,87.53767c0,15.92701 -4.25359,30.86058 -11.68665,43.72674c-2.89678,5.0142 -3.28484,12.39327 -13.21947,15.43853c-41.442,12.70306 -135.20829,6.89018 -135.20829,6.89018" fill="none" stroke="#ffffff" stroke-width="4" stroke-linecap="butt"/><path d="M514.07144,309.90507c-0.4992,9.39509 -6.13063,21.64726 -15.8796,21.64726c-83.93711,0 -473.10581,0 -519.92051,0c-7.83743,0 -18.66159,-11.02598 -20.18263,-20.51053" fill="none" stroke="#ffffff" stroke-width="4" stroke-linecap="butt"/></g></g></svg>