<svg version="1.1" xmlns="http://www.w3.org/2000/svg" xmlns:xlink="http://www.w3.org/1999/xlink" width="437.75856" height="189.8681" viewBox="0,0,437.75856,189.8681"><g transform="translate(-29.62073,-79.06596)"><g data-paper-data="{&quot;isPaintingLayer&quot;:true}" fill-rule="nonzero" stroke="none" stroke-linecap="butt" stroke-linejoin="miter" stroke-miterlimit="10" stroke-dasharray="" stroke-dashoffset="0" style="mix-blend-mode: normal"><g stroke-width="0"><path d="M217.49919,167.67076c0.48448,48.76732 -37.37421,88.72946 -84.55972,89.25801c-47.18548,0.52851 -85.82969,-38.57674 -86.31414,-87.34403c-0.48448,-48.76726 37.37421,-88.72949 84.55972,-89.25803c47.18548,-0.52851 85.82969,38.57673 86.31417,87.34405z" fill="#000000"/><path d="M125.05809,256.6782l0.52908,-176.2168l258.07525,-1.39544v177.61224z" fill="#000000"/><path d="M467.37929,166.72341c0,49.37267 -39.66584,89.3971 -88.59606,89.3971c-48.93026,0 -88.59609,-40.02446 -88.59609,-89.3971c0,-49.37264 43.52197,-87.60807 92.45223,-87.60807c48.93026,0 84.73991,38.23544 84.73991,87.60807z" fill="#000000"/><path d="M219.4049,167.69941c0.46547,44.52504 -35.90784,81.01086 -81.24203,81.49342c-45.33416,0.48254 -82.46217,-35.22093 -82.92761,-79.74594c-0.46547,-44.52497 35.90784,-81.01087 81.24203,-81.49344c45.33417,-0.48254 82.46218,35.22092 82.92765,79.74597z" fill="#988929"/><path d="M132.05901,248.43785l0.49991,-160.36556l243.85076,-1.26991v161.63548z" fill="#988929"/><path d="M458.76919,166.83447c0,45.07772 -38.20862,81.62041 -85.34131,81.62041c-47.13272,0 -85.34134,-36.54272 -85.34134,-81.62041c0,-45.07769 41.92311,-79.98701 89.05582,-79.98701c47.13272,0 81.62683,34.90933 81.62683,79.98702z" fill="#988929"/><path d="M221.53269,141.00175c0,29.37947 -34.67678,53.19621 -77.45273,53.19621c-42.77594,0 -77.45274,-23.81677 -77.45274,-53.19621c0,-29.37944 34.67683,-53.19622 77.45277,-53.19622c42.77595,0 77.45274,23.81675 77.45274,53.19622z" fill="#bfb32c"/><path d="M139.11601,194.1754l0.47169,-106.24039l230.07737,-0.84133v107.08172z" fill="#bfb32c"/><path d="M447.37269,140.11277c0,29.86381 -36.05051,54.07322 -80.52103,54.07322c-44.47052,0 -80.521,-24.20942 -80.521,-54.07321c0,-29.86379 39.5552,-52.99109 84.02571,-52.99109c44.47052,0 77.01633,23.12728 77.01633,52.99109z" fill="#bfb32c"/></g><g stroke-width="0"><path d="M200.49919,179.67076c0.48448,48.76732 -37.37421,88.72946 -84.55972,89.25801c-47.18548,0.52851 -85.82969,-38.57674 -86.31414,-87.34403c-0.48448,-48.76726 37.37421,-88.72949 84.55972,-89.25803c47.18548,-0.52851 85.82969,38.57673 86.31417,87.34405z" fill="#000000"/><path d="M108.05809,268.6782l0.52908,-176.2168l258.07525,-1.39544v177.61224z" fill="#000000"/><path d="M450.37929,178.72341c0,49.37267 -39.66584,89.3971 -88.59606,89.3971c-48.93026,0 -88.59609,-40.02446 -88.59609,-89.3971c0,-49.37264 43.52197,-87.60807 92.45223,-87.60807c48.93026,0 84.73991,38.23544 84.73991,87.60807z" fill="#000000"/><path d="M202.4049,179.69941c0.46547,44.52504 -35.90784,81.01086 -81.24203,81.49342c-45.33416,0.48254 -82.46217,-35.22093 -82.92761,-79.74594c-0.46547,-44.52497 35.90784,-81.01087 81.24203,-81.49344c45.33417,-0.48254 82.46218,35.22092 82.92765,79.74597z" fill="#988929"/><path d="M115.05901,260.43785l0.49991,-160.36556l243.85076,-1.26991v161.63548z" fill="#988929"/><path d="M441.76919,178.83447c0,45.07772 -38.20862,81.62041 -85.34131,81.62041c-47.13272,0 -85.34134,-36.54272 -85.34134,-81.62041c0,-45.07769 41.92311,-79.98701 89.05582,-79.98701c47.13272,0 81.62683,34.90933 81.62683,79.98702z" fill="#988929"/><path d="M204.53269,153.00175c0,29.37947 -34.67678,53.19621 -77.45273,53.19621c-42.77594,0 -77.45274,-23.81677 -77.45274,-53.19621c0,-29.37944 34.67683,-53.19622 77.45277,-53.19622c42.77595,0 77.45274,23.81675 77.45274,53.19622z" fill="#bfb32c"/><path d="M122.11601,206.1754l0.47169,-106.24039l230.07737,-0.84133v107.08172z" fill="#bfb32c"/><path d="M430.37269,152.11277c0,29.86381 -36.05051,54.07322 -80.52103,54.07322c-44.47052,0 -80.521,-24.20942 -80.521,-54.07321c0,-29.86379 39.5552,-52.99109 84.02571,-52.99109c44.47052,0 77.01633,23.12728 77.01633,52.99109z" fill="#bfb32c"/></g><text transform="translate(79.19131,144.61221) scale(0.73375,0.91049)" font-size="40" xml:space="preserve" fill="#ffffff" fill-rule="nonzero" stroke="none" stroke-width="1" stroke-linecap="butt" stroke-linejoin="miter" stroke-miterlimit="10" stroke-dasharray="" stroke-dashoffset="0" font-family="Pixel" font-weight="normal" text-anchor="start" style="mix-blend-mode: normal"><tspan x="0" dy="0">I DON'T HAVE A CODE</tspan><tspan x="0" dy="48px">            CTAP 2</tspan><tspan x="0" dy="48px">(Enter Without Code)</tspan></text></g></g></svg>