<svg version="1.1" xmlns="http://www.w3.org/2000/svg" xmlns:xlink="http://www.w3.org/1999/xlink" width="770.89367" height="770.89367" viewBox="0,0,770.89367,770.89367"><defs><linearGradient x1="236.99701" y1="-212.95431" x2="236.99701" y2="557.93936" gradientUnits="userSpaceOnUse" id="color-1"><stop offset="0" stop-color="#ef6b62"/><stop offset="1" stop-color="#f05a28"/></linearGradient><linearGradient x1="405.17375" y1="-158.6975" x2="405.17375" y2="167.32942" gradientUnits="userSpaceOnUse" id="color-2"><stop offset="0" stop-color="#ef6b62"/><stop offset="1" stop-color="#f05a28"/></linearGradient><linearGradient x1="253.17624" y1="-152.35368" x2="253.17624" y2="465.42247" gradientUnits="userSpaceOnUse" id="color-3"><stop offset="0" stop-color="#ef6b62"/><stop offset="1" stop-color="#f05a28"/></linearGradient><linearGradient x1="121.38405" y1="71.93278" x2="121.38405" y2="503.81445" gradientUnits="userSpaceOnUse" id="color-4"><stop offset="0" stop-color="#ef6b62"/><stop offset="1" stop-color="#f05a28"/></linearGradient></defs><g transform="translate(148.44983,212.95432)"><g data-paper-data="{&quot;isPaintingLayer&quot;:true}" fill-rule="nonzero" stroke-linejoin="miter" stroke-miterlimit="10" stroke-dasharray="" stroke-dashoffset="0" style="mix-blend-mode: normal"><g stroke="none" stroke-width="1" stroke-linecap="butt"><path d="M236.99692,557.93918c-212.87603,0 -385.44675,-172.57039 -385.44675,-385.44675c0,-212.87603 172.57039,-385.44675 385.44692,-385.44675c212.87636,0 385.44675,172.57039 385.44675,385.44692c0,212.87603 -172.57039,385.44675 -385.44675,385.44675z" fill="url(#color-1)"/><path d="M543.23198,142.37419c-100.36105,-100.36105 -200.71064,-200.71064 -301.0717,-301.0717c178.86656,2.74709 323.29081,147.16004 326.02693,326.02693z" fill="url(#color-2)"/><path d="M391.29507,465.42231c-149.76334,-148.51688 -298.61153,-297.96054 -446.79727,-448.04406c45.85026,-86.25056 128.4602,-149.9841 227.14407,-169.73192l390.21281,390.21281c-19.82495,98.99291 -83.90061,181.81247 -170.55945,227.56333z" fill="url(#color-3)"/><path d="M-45.97041,104.90852c127.04816,128.37192 254.86835,255.97151 383.06356,383.18491c-31.61858,10.02851 -65.15671,15.72102 -100.09607,15.72102c-182.98196,0 -331.32213,-148.34034 -331.32213,-331.32213c0,-35.10493 5.7477,-68.80848 15.86464,-100.55954c10.84474,10.97723 21.63445,22.00932 32.49017,32.97575z" fill="url(#color-4)"/></g><g><path d="M22.13453,90.73535c0,0 4.98126,-20.41692 47.36851,-63.81103c42.3657,-43.37282 88.22888,-58.31057 118.64564,-70.77923c30.41649,-12.46892 50.83894,-74.76964 50.83894,-74.76964c0,0 28.00653,34.83547 56.78949,66.51055c29.37232,32.30201 97.76812,60.61386 171.05926,134.38163c8.74651,8.83217 16.18057,18.07659 22.43092,27.56195l1.2641,1.10855c16.37316,14.19889 74.42676,70.8436 66.98193,153.31505c-5.68807,62.83096 -34.25689,82.6856 -48.10763,88.02026l-0.11246,0.4606c7.13426,-14.13451 11.38165,-29.13111 13.39013,-44.35814c6.61978,-50.35705 -20.51362,-83.07684 -37.90967,-126.87269c-22.55415,-56.79475 -84.24976,-88.74861 -164.13415,-87.15791c-152.03492,3.00484 -185.52036,88.48087 -185.52036,88.48087l-0.11246,1.10881c28.20439,52.38129 39.46806,168.56863 -18.28548,203.33972c-62.20955,37.40072 -154.32192,24.34823 -190.19631,-120.16672c-32.8375,-132.26069 65.48766,-173.93009 94.40988,-173.58746l1.19973,-2.78518v0v0zM489.26203,109.82957c0,0 39.89135,63.37723 26.90849,141.69772M20.92955,93.51527c27.96896,0.75515 46.71477,20.77585 46.71477,20.77585M135.0012,183.92421c-4.70774,-7.34314 -7.99109,-13.38987 -7.99109,-13.38987" fill="#ffffff" stroke="#ffffff" stroke-width="2.03842" stroke-linecap="round"/><path d="M518.02897,331.22985c0,0 12.58664,-22.83792 21.08116,-64.69493c8.48375,-41.8838 -2.83326,-98.8341 -2.83326,-98.8341c14.05936,25.49987 24.70714,58.22491 21.2685,96.55236c-5.51124,61.21898 -33.92477,82.09651 -48.11813,88.02026l8.60173,-21.04359v0v0z" fill="#ffffff" stroke="#ffffff" stroke-width="2.03842" stroke-linecap="butt"/><g fill="#ffffff" stroke="#ffffff" stroke-width="2.03842"><path d="M-70.20249,279.98365v0v0c-6.42194,-24.79806 -12.00805,-63.4684 -6.85574,-93.53675c5.29184,-31.02714 23.53973,-51.13348 43.62454,-56.00754c37.60436,-9.16402 83.06054,45.04393 101.56542,121.0451c17.41786,71.64158 4.71878,137.06512 -28.28478,152.0457c0,0 -10.80832,1.37657 -32.6181,-10.59943c-21.79348,-11.95997 -40.63573,-32.50013 -48.3215,-45.78306c-7.70732,-13.26664 -22.67738,-42.31761 -29.10983,-67.16401z" stroke-linecap="butt"/><path d="M-46.8451,216.78326c14.46663,-6.19702 39.01849,18.72427 54.84539,55.68593c15.81087,36.93486 16.91943,71.93639 2.46908,78.12789c-14.47714,6.18599 -39.01849,-18.74608 -54.83461,-55.69697c-15.83767,-36.94563 -16.93571,-71.92009 -2.47986,-78.11685v0v0zM16.77859,344.55535c-59.56915,-37.75412 -58.90491,-128.70407 -58.90491,-128.70407" stroke-linecap="round"/></g><path d="M111.76153,390.6918v0v0l-0.32135,-0.41226c1.77831,-0.9643 3.53507,-1.97117 5.27029,-3.01009c57.82868,-34.81392 46.4473,-151.269 18.17828,-203.52733l0.23043,-0.92121c0,0 33.48544,-85.4868 185.55242,-88.48612c79.88466,-1.59096 141.56949,30.3629 164.1289,87.15791c17.3908,43.80111 44.53498,76.5209 37.90416,126.87243c-6.91985,52.40284 -40.39479,102.45982 -126.64751,122.86624c-86.25272,20.47578 -82.78203,9.50665 -111.69374,21.92723c-28.90619,12.49021 -30.40047,17.96938 -30.40047,17.96938c0,0 9.26046,-18.12467 -27.78687,-27.38512c-55.93791,-13.9364 -107.44634,-48.28945 -114.41454,-53.05105z" fill="#ffffff" stroke="#ffffff" stroke-width="2.03842" stroke-linecap="round"/><path d="M343.12407,379.21924c-68.10152,4.59028 -75.70689,-83.97098 -75.70689,-83.97098c0,0 38.9218,-1.2373 89.15036,-4.35433c50.21753,-3.09575 62.2579,0 62.2579,0c0,0 -7.61615,83.73004 -75.70137,88.32532v0v0z" fill="#ef5e38" stroke="#ef5e38" stroke-width="4.07683" stroke-linecap="round"/><path d="M446.37136,240.14064c-0.84632,0 -1.6979,-0.11797 -2.56552,-0.35892c-4.8152,-1.40861 -7.59486,-6.47002 -6.16496,-11.29048c0.64821,-2.24943 0.78747,-4.574 0.41778,-6.89857c-1.3763,-8.73547 -9.83351,-14.69128 -18.64938,-13.30421c-8.91231,1.40336 -15.03417,9.6622 -13.66313,18.41396c0.78195,4.96497 -2.61386,9.62463 -7.58409,10.40132c-5.00254,0.78195 -9.62463,-2.60309 -10.40133,-7.58409c-2.94572,-18.64965 9.97278,-36.25459 28.81529,-39.23789c18.81019,-2.91367 36.51709,9.81223 39.49486,28.45085c0.78747,5.00806 0.47137,10.00509 -0.95879,14.8576c-1.16741,3.96887 -4.79339,6.55042 -8.74072,6.55042v0v0v0z" fill="#ffffff" stroke="none" stroke-width="2.03842" stroke-linecap="butt"/><path d="M272.78389,240.14064c-0.84081,0 -1.6979,-0.11797 -2.56551,-0.35892c-4.82046,-1.40861 -7.59486,-6.47002 -6.17022,-11.29048c0.64821,-2.24943 0.78747,-4.574 0.42855,-6.89857c-1.38182,-8.73547 -9.81223,-14.69128 -18.6549,-13.30421c-8.91231,1.40336 -15.03418,9.6622 -13.66314,18.41396c0.77669,4.96497 -2.6136,9.62463 -7.58409,10.40132c-5.00229,0.78195 -9.62463,-2.60309 -10.40658,-7.58409c-2.94046,-18.64965 9.97829,-36.25459 28.81528,-39.23789c18.77787,-2.91367 36.53312,9.81223 39.49486,28.45085c0.78747,5.00806 0.47663,10.00509 -0.95327,14.8576c-1.16767,3.96887 -4.79366,6.55042 -8.74099,6.55042v0v0v0z" fill="#ffffff" stroke="none" stroke-width="2.03842" stroke-linecap="butt"/></g></g></g></svg>