<svg version="1.1" xmlns="http://www.w3.org/2000/svg" xmlns:xlink="http://www.w3.org/1999/xlink" width="66.50144" height="334.15261" viewBox="0,0,66.50144,334.15261"><defs><linearGradient x1="208.01196" y1="160.70602" x2="271.98807" y2="160.70602" gradientUnits="userSpaceOnUse" id="color-1"><stop offset="0" stop-color="#bd7d08"/><stop offset="1" stop-color="#f1c214"/></linearGradient><linearGradient x1="248.52573" y1="176.55213" x2="258.70356" y2="176.55213" gradientUnits="userSpaceOnUse" id="color-2"><stop offset="0" stop-color="#ff866e"/><stop offset="1" stop-color="#ff6242"/></linearGradient><linearGradient x1="227.02696" y1="184.14905" x2="253.94201" y2="184.14905" gradientUnits="userSpaceOnUse" id="color-3"><stop offset="0" stop-color="#ff866e"/><stop offset="1" stop-color="#ff6242"/></linearGradient></defs><g transform="translate(-206.75505,7.32821)"><g stroke="#45413c" stroke-width="2.5" stroke-miterlimit="10"><path d="M236.32667,97.93678l-1.54162,-4.5285c0,0 -12.7665,-1.85291 -17.18311,-4.8562c-4.4069,-2.99669 -9.28748,-13.1438 -9.28748,-13.1438l-0.30252,-14.67227c0,0 2.41899,-4.20791 3.09598,-6.50967c0.56198,-1.91074 0.68554,-6.34748 0.68554,-6.34748l0.48468,-6.99715l-3.54565,1.20785l7.31137,-29.52578l5.57602,20.71079l-2.21538,37.10769c0,0 4.65252,9.73507 8.8237,9.70797c2.85545,-0.01855 6.68399,-2.50796 6.68399,-2.50796l1.38462,-40.70769l-5.26154,-3.04615l7.75385,-35.72308l9.13846,35.72308l-3.89977,3.69879l0.45378,37.96639c0,0 1.37916,5.45378 7.69508,5.46075c3.07461,0.00339 7.58223,-5.30949 7.58223,-5.30949c0,0 2.90057,-7.67813 1.90822,-12.7168c-1.66069,-8.4321 -4.93342,-29.63614 -4.93342,-29.63614l3.17648,-15.12605l10.28571,27.07564l-4.50413,-1.19926l5.71564,21.80061l0.58065,10.21936c0,0 -5.76959,10.44679 -9.90813,13.29822c-3.94225,2.71619 -14.36284,3.42436 -14.36284,3.42436l-1.28081,5.76326c0,0 2.53438,3.02333 2.39166,4.55244c-0.14492,1.55273 -3.25468,4.69414 -3.25468,4.69414l3.20548,193.56165l2.34246,3.82192l-6.53424,18.12847l-6.90411,-17.26027l2.46575,-3.08219l-3.08219,-193.93151c0,0 -2.45161,-3.71015 -2.57504,-5.56177c-0.12313,-1.847 1.83532,-5.53412 1.83532,-5.53412z" fill="url(#color-1)" stroke-linecap="round"/><path d="M258.70356,176.49758c0,5.20224 -2.5914,8.32849 -4.98058,8.32849c-0.09817,0 -3.97534,-0.85184 -5.03471,-2.85842c-0.79242,-1.50095 1.44545,-13.68947 3.83462,-13.68947c2.38917,0 6.18067,3.01716 6.18067,8.21939z" fill="url(#color-2)" stroke-linecap="butt"/><path d="M229.37688,168.75851c0,0 7.53226,-2.80742 11.18233,-3.25365c3.44503,-0.42117 8.91974,0.17833 8.91974,0.17833c0,0 3.31447,2.94267 3.05534,6.31053c-0.18369,2.38737 -3.22411,2.44662 -3.22411,2.44662l-11.37373,1.75929l11.37373,-0.70918c0,0 4.98104,2.49239 4.61234,5.78967c-0.6,5.36577 -4.76235,5.16143 -4.76235,5.16143l-11.33292,0.30003l11.33292,0.60006c0,0 4.20553,1.66851 3.91278,4.93279c-0.3031,3.37968 -5.1129,5.71828 -5.1129,5.71828l-9.45095,-0.45004l-1.05011,5.40054l-6.90069,-5.40054c0,0 -3.31025,-11.56048 -3.52278,-16.7386c-0.17315,-4.21854 2.34136,-12.04554 2.34136,-12.04554z" fill="url(#color-3)" stroke-linecap="round"/></g></g></svg>