<svg version="1.1" xmlns="http://www.w3.org/2000/svg" xmlns:xlink="http://www.w3.org/1999/xlink" width="69.65337" height="59.87893" viewBox="0,0,69.65337,59.87893"><defs><radialGradient cx="237.76277" cy="163.55086" r="9.39643" gradientUnits="userSpaceOnUse" id="color-1"><stop offset="0" stop-color="#9ceb60"/><stop offset="1" stop-color="#6dd627"/></radialGradient><radialGradient cx="236.72148" cy="166.04354" r="1.85945" gradientUnits="userSpaceOnUse" id="color-2"><stop offset="0" stop-color="#9ceb60"/><stop offset="1" stop-color="#6dd627"/></radialGradient><linearGradient x1="221.21613" y1="185.36579" x2="258.78389" y2="185.36579" gradientUnits="userSpaceOnUse" id="color-3"><stop offset="0" stop-color="#ffffff"/><stop offset="1" stop-color="#d8d8d8"/></linearGradient></defs><g transform="translate(-205.17331,-150.06053)"><g data-paper-data="{&quot;isPaintingLayer&quot;:true}" fill-rule="nonzero" stroke-linejoin="miter" stroke-miterlimit="10" stroke-dasharray="" stroke-dashoffset="0" style="mix-blend-mode: normal"><g stroke="none" stroke-width="0.5" stroke-linecap="butt"><path d="M219.99289,185.50938c-0.4987,0.4987 -0.99739,0 -0.99739,0l-0.11933,-0.11933c-1.4782,-1.4782 -2.8135,-3.07821 -2.83179,-5.27183c-0.00203,-0.244 -0.01573,-1.62231 0.06286,-1.81279c0.1956,-0.47406 0.57429,-0.84981 0.86143,-1.27471c0.13008,-0.29592 0.20229,-0.62476 0.39025,-0.88775c0.5183,-0.72521 1.46712,-1.11227 1.55616,-2.089c0.15739,-1.72652 -0.02885,-3.51905 -0.12388,-5.23686c-0.10196,-1.84324 0.05294,-3.72752 -0.11727,-5.56549c-0.13597,-1.46826 -0.52095,-2.88626 0.51484,-4.22597c0.53383,-0.69045 1.3823,-0.84224 2.14025,-1.06467c0,0 0.67813,-0.19375 0.87188,0.48438c0.19375,0.67813 -0.48438,0.87188 -0.48438,0.87188c-0.36823,0.10164 -1.18049,0.25927 -1.4396,0.60593c-0.73096,0.97792 -0.29656,2.13036 -0.20113,3.17239c0.1698,1.85405 0.01769,3.7503 0.12139,5.60854c0.10029,1.79715 0.35686,3.74802 0.11478,5.54553c-0.20578,1.52794 -1.55723,2.1366 -2.11076,3.46699c-0.25211,0.34546 -0.57353,0.64975 -0.75633,1.03638c-0.19453,0.41142 0.01462,0.91016 0.01003,1.36523c-0.01794,1.77737 1.23394,3.08973 2.41866,4.27444l0.11933,0.11933c0,0 0.4987,0.4987 0,0.99739z" fill-opacity="0.13357" fill="#000000"/><path d="M263.8682,194.04779c-0.08748,0.69981 -0.78729,0.61234 -0.78729,0.61234l-1.27449,-0.24341c-0.21498,-0.38929 -0.55057,-0.73329 -0.64495,-1.16787c-0.09094,-0.41873 0.06884,-0.85429 0.11324,-1.28047c0.16238,-1.559 0.86901,-3.46045 0.49127,-5.00591c-0.36273,-1.48404 -1.58545,-2.84552 -2.32194,-4.12489c-0.62394,-1.08386 -0.2463,-2.37883 -0.47695,-3.53943c-0.0816,-0.4106 -0.27895,-0.78943 -0.41843,-1.18414c-0.23869,-0.44438 -0.5821,-0.84684 -0.71607,-1.33315c-0.13919,-0.50525 -0.0588,-1.04651 -0.08371,-1.56999c-0.09517,-2.00014 0.14811,-3.72217 0.42493,-5.68911c0.19234,-1.36668 0.16335,-2.79008 0.23993,-4.16688c0.05004,-0.89975 0.18073,-1.68284 -0.08624,-2.56744c-0.2614,-0.86616 -0.77785,-1.63378 -1.16307,-2.45242c-0.37629,-0.79965 -0.77408,-1.58902 -1.15575,-2.38612c-0.16887,-0.35269 -0.21572,-0.78573 -0.48724,-1.06712c-0.21711,-0.225 -0.5821,-0.22848 -0.87315,-0.34273c0,0 -0.64448,-0.28643 -0.35804,-0.93091c0.28643,-0.64448 0.93091,-0.35804 0.93091,-0.35804c0.42492,0.20397 0.94301,0.27709 1.27476,0.6119c0.10524,0.10621 1.19439,2.28682 1.34056,2.58859c0.5956,1.22963 1.46215,2.62733 1.84353,3.93649c0.5391,1.85058 0.13707,4.16186 0.01627,6.07211c-0.08495,1.34331 -0.48423,2.63115 -0.59838,3.96335c-0.05073,0.5921 0.04053,2.15399 0.06029,2.73005c0.01428,0.41611 -0.08099,0.84815 0.03286,1.24864c0.11922,0.41937 0.43034,0.75837 0.6455,1.13756c0.33252,0.95879 0.55059,1.96878 0.61588,2.98149c0.02174,0.33712 -0.0231,1.2427 0.23521,1.65174c0.84766,1.34228 2.06689,2.87364 2.45119,4.46675c0.35136,1.45654 -0.15331,3.10947 -0.3454,4.55129c-0.08229,0.61766 -0.33658,1.46455 -0.17235,2.07521l0.63476,-0.00475c0,0 0.69981,0.08748 0.61234,0.78729z" fill-opacity="0.19821" fill="#727272"/><path d="M272.57156,194.14564c0.00034,0.00047 0.00068,0.00093 0.00102,0.00139zM272.38311,193.85281c0.12817,0.00844 0.67883,0.08097 0.67883,0.70415c0,0.70526 -0.70526,0.70526 -0.70526,0.70526l-0.93188,-0.29534c-1.54001,-2.19743 -2.40382,-5.00981 -2.27855,-7.72091c0.04529,-0.9802 0.15998,-2.3283 0.61512,-3.24035c0.54102,-1.08414 0.76385,-1.25202 1.47669,-2.02106c0.44672,-0.48194 1.09593,-0.85022 1.31315,-1.47042c0.65928,-1.88245 -0.80682,-3.90095 -2.23382,-4.95182c-0.2068,-0.15511 -2.17664,-1.57729 -2.22755,-1.84765c-0.09538,-0.50654 1.13315,-2.37294 1.4077,-2.77226c1.48979,-2.16681 2.7898,-4.38096 3.53646,-6.9226c0.23429,-0.79753 0.6389,-1.36209 0.13006,-2.17163c-0.51761,-0.82351 -1.63412,-1.10868 -2.49391,-1.30961c-1.40585,-0.32854 -2.77444,-0.655 -4.14494,-1.11107c0,0 -0.66907,-0.22302 -0.44605,-0.89209c0.22302,-0.66907 0.89209,-0.44605 0.89209,-0.44605c1.33048,0.44426 2.65891,0.75187 4.02273,1.07636c1.22627,0.29177 2.68685,0.768 3.37974,1.957c0.78939,1.35459 0.38157,1.97141 0.01671,3.28392c-0.59401,2.13682 -1.63769,4.34961 -2.88045,6.20083c-0.51537,0.7677 -1.0329,1.53436 -1.5747,2.28363c-0.13487,0.18652 -0.50229,0.27641 -0.47148,0.50452c0.02655,0.19657 0.39561,0.08368 0.56488,0.18707c0.40358,0.2465 0.75667,0.56746 1.13501,0.85119c1.97948,1.5066 3.59144,4.0765 2.68259,6.63911c-0.47787,1.34742 -2.13757,2.19185 -2.79541,3.50423c-0.90047,1.79639 -0.54358,4.16001 -0.04461,5.9676c0.10175,0.36859 0.07701,0.77037 0.21596,1.1266c0.13295,0.34085 0.43066,0.59689 0.58558,0.92833c0.19406,0.4152 0.34871,0.85612 0.57531,1.25303z" fill-opacity="0.19821" fill="#727272"/><path d="M218.89756,162.11035c0.42234,0 0.59177,0.25292 0.65973,0.45584c0.60333,0.48874 0.95249,0.71099 0.86818,1.81432c-0.02215,0.28986 -0.43422,0.43025 -0.50245,0.71284c-0.021,0.08698 -0.03026,0.17505 -0.03208,0.26385c0.5204,-0.77869 1.19241,-1.44487 1.78816,-2.16763c0.78983,-0.95822 2.03368,-2.05009 2.61195,-3.14587c0.58484,-1.10824 0.69756,-2.57931 0.70296,-3.79114c0.00259,-0.58205 -0.05717,-1.42991 -0.69108,-1.72205c-0.98726,-0.45498 -1.96886,-0.31724 -3.01881,-0.31724c0,0 -0.70526,0 -0.70526,-0.70526c0,-0.70526 0.70526,-0.70526 0.70526,-0.70526c1.32392,0 2.49425,-0.13711 3.73465,0.51239c2.0505,1.07367 1.46241,4.19905 0.9657,5.89896c-0.14522,0.49699 -0.20429,1.03001 -0.44595,1.48793c-0.62319,1.1809 -1.91882,2.35084 -2.77099,3.38471c-0.29905,0.36281 -0.59811,0.72562 -0.89716,1.08843c-0.26828,0.32548 -0.49116,0.69527 -0.79083,0.99011c0.77106,0.07229 1.9123,0.91374 2.13663,1.04254c0.43006,0.28026 1.03237,0.3969 1.29019,0.84079c0.29554,0.50883 0.17371,1.16513 0.2158,1.75206c0.06613,0.92201 0.05876,1.84949 0.15585,2.76877c0.13525,1.28055 0.53651,2.49125 0.68518,3.75758c0.00233,0.01987 0.00464,0.03975 0.00691,0.05963c0.74056,-2.65209 1.36189,-5.2851 2.04088,-7.97154c0.22132,-0.87566 0.68198,-1.67648 0.93028,-2.54487c0.39598,-1.38492 0.00111,-2.84924 0.4302,-4.2423c0.10594,-0.34395 0.35457,-0.62642 0.53587,-0.93731c1.23551,-2.11877 2.98326,-3.6864 4.78772,-5.31901c0,0 0.52298,-0.47317 0.99614,0.04981c0.47317,0.52298 -0.04981,0.99614 -0.04981,0.99614c-1.6728,1.51349 -4.24667,3.4079 -4.93865,5.67652c-0.41085,1.34693 -0.02812,2.80106 -0.40633,4.16752c-0.23657,0.85471 -0.70245,1.63696 -0.91745,2.49736c-0.76982,3.08074 -1.46247,6.09731 -2.38475,9.13503c-0.00828,0.4925 -0.03593,2.2636 -0.05264,2.72604c-0.00753,0.20827 -0.11202,0.42711 -0.04298,0.62375c0.1235,0.35176 0.47932,0.59274 0.59458,0.94728c0.19387,0.59636 0.00131,1.28201 0.22534,1.86772c0.31461,0.82251 0.70214,1.63089 0.86457,2.4964l0.01137,0.72278c0,0 0,0.70526 -0.70526,0.70526c-0.70526,0 -0.70526,-0.70526 -0.70526,-0.70526l0.01137,-0.47051c-0.1386,-0.79305 -0.53116,-1.52004 -0.80602,-2.27674c-0.22386,-0.61627 -0.03944,-1.33053 -0.25197,-1.95079c-0.00849,-0.02477 -0.01814,-0.04899 -0.02881,-0.07274c-0.01075,0.59948 -0.01994,1.19619 -0.01994,1.78756v0.59664c0,0 0,0.70526 -0.70526,0.70526c-0.70526,0 -0.70526,-0.70526 -0.70526,-0.70526v-0.59664c0,-2.56384 0.18202,-5.23329 -0.1133,-7.78362c-0.14771,-1.27561 -0.55267,-2.50191 -0.68943,-3.79333c-0.10047,-0.94877 -0.15787,-1.90354 -0.16242,-2.8576c-0.00169,-0.35355 0.17246,-0.75235 -0.00056,-1.06067c-0.14428,-0.2571 -0.53525,-0.24733 -0.80288,-0.37099c-0.381,-0.22264 -0.74218,-0.4833 -1.14299,-0.66791c-0.4035,-0.18585 -1.07775,-0.22883 -1.5822,-0.45228c-0.03254,0.24116 -0.02416,0.47179 0.09837,0.67369c0.38887,0.64076 1.22983,0.93916 1.57575,1.60409c0.21774,0.41854 -0.01542,1.44165 -0.0897,1.88448c-0.28293,0.75448 -0.523,1.49462 -0.78894,2.23228c0.13754,0.3894 0.2144,0.81619 0.21636,1.28425c0.00444,1.06411 -0.45902,1.85084 -0.90638,2.76985c-0.15511,0.31863 -0.2228,0.70919 -0.48757,0.94474c-0.45974,0.40901 -1.0184,0.67862 -1.57713,0.94991c-0.53605,1.30504 -1.27572,2.38541 -1.00651,3.93235c0.06857,0.39401 0.61981,0.21316 0.82182,0.26614c0.92718,0.24316 1.54921,0.8022 2.43488,1.08816c0,0 0.66907,0.22302 0.44605,0.89209c-0.22302,0.66907 -0.89209,0.44605 -0.89209,0.44605c-0.53864,-0.18396 -1.02372,-0.49809 -1.53045,-0.75734c-0.84306,-0.43133 -1.60124,-0.2517 -2.17434,-0.80203c0.16676,0.33448 0.39042,0.66664 0.68589,1.05733c0.76803,1.03645 1.51219,2.05401 2.21661,3.13507c0.54523,0.83675 1.21949,2.11305 2.05693,2.70581c1.10659,0.78327 2.51673,0.72097 3.73477,1.2032c0.37696,0.14924 0.84502,0.25961 1.05394,0.60706c0.01847,0.03071 0.57418,2.67983 0.46913,2.98535c-0.19109,0.55572 -0.65722,0.98032 -1.05739,1.41067c-0.34852,0.37479 -0.75736,0.69234 -1.17425,0.98922c-0.70494,0.50201 -2.28035,1.18262 -0.34459,1.49741c0.30949,0.05033 0.62704,-0.01032 0.94058,-0.01273c0.23865,-0.00183 0.47731,0 0.71597,0h0.23866c0,0 0.07049,0 0.1669,0.02229c-0.0242,-0.53531 0.04979,-1.10003 0.08402,-1.63118c0,0 0.04691,-0.7037 0.75061,-0.65679c0.7037,0.04691 0.65679,0.75061 0.65679,0.75061c-0.00035,0.00506 -0.3747,1.99311 0.19208,2.17829c0.3431,0.1121 0.81928,-0.17378 1.08019,0.07563c0.37125,0.35488 0.53983,0.93827 0.51722,1.45136c-0.02429,0.55122 -0.42605,1.01802 -0.64829,1.52304c-0.37974,0.86294 -0.76649,1.72309 -1.17596,2.57232c-0.01041,0.02159 -0.5525,0.81284 -0.34408,1.03598c0.12001,0.12849 0.34457,0.07162 0.51372,0.1196c0.0715,0.02028 2.61409,0.79449 2.66222,0.80914l0.45231,-0.01647c0,0 0.70509,0.01528 0.68982,0.72037c-0.01528,0.70509 -0.72037,0.68982 -0.72037,0.68982l-0.83244,-0.04431c-0.03942,-0.012 -2.72027,-0.82755 -2.73542,-0.83362c-0.4027,-0.16142 -0.91434,-0.23665 -1.15687,-0.59637c-0.28212,-0.41843 -0.29115,-0.98977 -0.25177,-1.49288c0.02828,-0.36117 0.29642,-0.66114 0.44622,-0.991c0.00284,-0.00626 1.16893,-2.5572 1.16979,-2.55901c0.16772,-0.35105 0.36572,-0.68749 0.52459,-1.04263c0.03033,-0.06781 0.11299,-0.20594 0.0399,-0.21924c-0.27302,-0.04968 -0.58721,0.2117 -0.82906,0.07563c-0.35144,-0.19772 -0.59471,-0.43915 -0.76066,-0.7102c-0.20755,0.18014 -0.49147,0.18014 -0.49147,0.18014h-0.23866c-0.29837,0 -1.86026,0.00252 -1.9233,-0.01273c-1.56169,-0.37756 -2.92699,-1.63541 -1.5277,-3.20547c0.75927,-0.85193 2.56368,-1.21025 3.00863,-2.4435c0.08177,-0.22665 -0.13223,-0.46504 -0.16518,-0.70373c-0.04956,-0.35897 0.05511,-0.74848 -0.08166,-1.08405c-0.05335,-0.1309 -0.27106,-0.0805 -0.40772,-0.11666c-0.43132,-0.11416 -0.86438,-0.22166 -1.2961,-0.3343c-1.14658,-0.29917 -1.8155,-0.37392 -2.81508,-1.07996c-0.96927,-0.68463 -1.73767,-2.07922 -2.36844,-3.04558c-0.69006,-1.05718 -1.41684,-2.05155 -2.16843,-3.06581c-0.30282,-0.41565 -0.68772,-0.78247 -0.90845,-1.24694c-0.51508,-1.08385 -0.54218,-2.62115 -0.55245,-3.79747c-0.00296,-0.33906 -0.08077,-0.70608 0.05771,-1.01558c0.41542,-0.92845 1.47216,-1.42332 2.50388,-1.87837c0.06656,-0.23743 0.13446,-0.47447 0.22357,-0.70343c0.45695,-1.17407 1.36426,-2.1662 1.88159,-3.31959c0.1367,-0.30478 0.26051,-0.60702 0.37669,-0.90837c-0.8929,-1.48447 -3.44883,-2.05746 -5.06507,-2.35992c0,0 -0.69318,-0.12997 -0.56321,-0.82315c0.12997,-0.69318 0.82315,-0.56321 0.82315,-0.56321c0.76641,0.14397 2.16786,0.36949 2.88676,0.66266c0.91878,0.37468 1.80323,0.87245 2.47191,1.54278c0.12613,-0.36239 0.2542,-0.72754 0.39322,-1.09826c0.0538,-0.32581 0.33348,-0.70555 0.14895,-0.9794c-0.69735,-1.03491 -1.67656,-1.05718 -1.72379,-2.51087c-0.03227,-0.99323 -0.06588,-2.00861 0.15662,-2.97713c0.05161,-0.22467 0.3699,-0.30793 0.45218,-0.52328c0.10103,-0.26443 -0.53868,-0.59751 -0.58326,-0.62894l-0.26469,-0.67005c0,0 0,-0.70526 0.70526,-0.70526zM215.36834,181.11424c-0.17551,0.44041 -0.01184,0.93117 0.08211,1.41352c0.02351,-0.72423 0.13109,-1.2557 0.36465,-1.87394c-0.19909,0.11211 -0.36393,0.25256 -0.44677,0.46041z" fill-opacity="0.10144" fill="#000000"/><path d="M211.36916,195.27293c0,0.70526 -0.70526,0.70526 -0.70526,0.70526h-1.19328c-0.79015,-0.0315 -2.78327,0.23033 -2.5364,-1.57057c0.11999,-0.87535 1.41731,-1.05535 2.12365,-1.58613c0.72418,-0.54419 1.51362,-1.00933 2.17862,-1.62443c0.67013,-0.61983 1.13728,-1.56953 1.58386,-2.35702c0.1903,-0.33558 0.529,-0.61548 0.58831,-0.99668c0.14603,-0.93853 -0.40572,-0.88434 -0.68891,-1.53097c-0.20273,-0.46292 -0.30459,-0.9638 -0.46434,-1.44326c-0.42046,-1.2619 -0.76805,-2.71681 -1.3474,-3.91315c-1.06142,-2.19185 -2.75921,-3.83573 -3.49135,-6.20406c-0.14687,-0.52831 -0.46286,-1.03704 -0.4406,-1.58494c0.03607,-0.88796 0.91808,-2.05593 1.37194,-2.75346c1.48987,-2.28976 3.28008,-4.72029 3.54018,-7.48149c0.12224,-1.29767 0.06457,-2.36172 -0.89511,-3.39111c-0.59667,-0.64 -1.34585,-1.12858 -2.09207,-1.5855c-1.00699,-0.61659 -2.20205,-1.06676 -3.28807,-1.53197c0,0 -0.64824,-0.27782 -0.37042,-0.92605c0.27782,-0.64824 0.92605,-0.37042 0.92605,-0.37042c1.1476,0.49206 2.40494,0.97397 3.46901,1.62551c0.07571,0.04636 2.35694,1.79297 2.39497,1.83497c3.1719,3.5026 0.28028,8.16446 -1.72025,11.39555c-0.48691,0.78641 -1.06644,1.51554 -1.51835,2.32258c-0.16421,0.29324 -0.40405,0.58569 -0.40865,0.92175c-0.00537,0.39235 0.25385,0.74259 0.38078,1.11388c0.68117,2.27912 2.38842,3.88744 3.41144,5.99998c0.81337,1.67961 1.05002,3.63337 1.80024,5.33321c0.33456,0.75805 0.91735,1.51886 0.83065,2.34291c-0.05808,0.55206 -0.49149,0.99556 -0.74504,1.48938c-0.7681,1.49599 -1.7035,2.59598 -3.03078,3.59687c-0.59138,0.44595 -1.09602,1.04457 -1.7788,1.33163c-0.28904,0.12152 -0.62499,0.08195 -0.92391,0.17657c-0.10694,0.03385 0.22429,0.01376 0.33637,0.00942c0.26851,-0.01039 0.53624,-0.03571 0.80436,-0.05356h1.19328c0,0 0.70526,0 0.70526,0.70526z" fill-opacity="0.13357" fill="#000000"/><path d="M247.63954,164.93167c-0.08748,0.69981 -0.78729,0.61234 -0.78729,0.61234l-1.14032,-0.16893c-0.65459,-0.49216 -1.36628,-0.91011 -1.99046,-1.44032c-1.36159,-1.15662 -1.94626,-2.59887 -3.79286,-3.11292c-0.47081,-0.13943 -0.97814,-0.18918 -1.41243,-0.4183c-0.61956,-0.32687 -1.47705,-0.56498 -1.70609,-1.22697c-0.15409,-0.44538 0.56228,-0.76301 0.90607,-1.08537c1.03946,-0.97466 2.41032,-1.50938 3.57447,-2.30109c0.72453,-0.49274 1.37506,-1.08658 2.07413,-1.61483c0.36796,-0.27805 1.20557,-0.66661 1.28256,-1.28911c0.01176,-0.09505 -0.16839,0.11321 -0.26416,0.11303c-0.23728,-0.00046 -0.46843,-0.07607 -0.70252,-0.1149c-0.47217,-0.07831 -0.94724,-0.1411 -1.41626,-0.23651c-1.3492,-0.27445 -2.68479,-0.77549 -4.04566,-0.97965c-0.70699,-0.10606 -1.42917,-0.09235 -2.13449,-0.20902c0,0 -0.69566,-0.11594 -0.57972,-0.81161c0.11594,-0.69566 0.81161,-0.57972 0.81161,-0.57972c0.69788,0.11728 1.41334,0.09951 2.11301,0.20561c1.84346,0.27955 3.63809,0.91055 5.4834,1.21956c0.4456,0.07462 1.83145,0.22933 1.97842,0.72764c0.19559,0.66315 -0.06394,1.42853 -0.39298,2.0366c-0.25921,0.47901 -0.84131,0.692 -1.26722,1.03147c-1.10413,0.88003 -2.17736,1.68694 -3.38811,2.41368c-0.39367,0.23629 -0.79934,0.45356 -1.18152,0.70801c-0.28687,0.19099 -0.53172,0.45 -0.81328,0.64654c0.56025,0.08908 1.21819,0.33568 1.47878,0.41173c1.1412,0.34949 2.07599,0.89991 2.92458,1.76382c0.50944,0.51863 0.86022,1.1907 1.41769,1.65732c0.50674,0.42415 1.08888,0.75343 1.58939,1.1849l0.76894,0.06972c0,0 0.69981,0.08748 0.61234,0.78729z" fill-opacity="0.10144" fill="#000000"/><path d="M265.18116,178.92636c-0.59806,-0.37379 -0.22427,-0.97185 -0.22427,-0.97185l0.51213,-0.75827c-0.24742,-2.67791 -0.34296,-5.32481 -0.71622,-7.99906c-0.40598,-1.05415 -0.71974,-2.20985 -1.29542,-3.18814c-0.48077,-0.81701 -1.40089,-1.38655 -1.68512,-2.29091c-0.34969,-1.11265 0.61119,-1.63695 1.01594,-2.453c0.40456,-0.81567 0.49358,-1.75372 0.78686,-2.61569c0.50726,-1.49087 1.2866,-2.88915 0.78896,-4.52301c-0.03588,-0.1178 -0.22883,-0.09416 -0.34895,-0.12129c-0.85735,-0.19364 -1.71465,-0.40216 -2.58679,-0.51128c-0.72692,-0.09095 -1.46516,0.00343 -2.19774,0.00343c0,0 -0.70526,0 -0.70526,-0.70526c0,-0.70526 0.70526,-0.70526 0.70526,-0.70526c0.77891,0 1.56356,-0.09096 2.33673,0.00343c0.08634,0.01054 2.8902,0.57353 2.94574,0.59523c0.38593,0.15078 0.84527,0.3155 1.03957,0.68146c0.27147,0.51131 0.17213,1.14525 0.23579,1.72065c0.21315,1.92673 -0.72289,3.52763 -1.28202,5.345c-0.14941,0.48563 -0.22954,0.99904 -0.45264,1.45554c-0.20078,0.41082 -0.5581,0.72608 -0.80246,1.11257c-0.06489,0.10264 -0.17838,0.23865 -0.1187,0.3444c0.16538,0.29304 0.50676,0.44824 0.71514,0.71244c0.31087,0.39414 0.58071,0.82044 0.83517,1.25315c0.63831,1.08547 0.99362,2.36212 1.43557,3.53356c0.42378,2.90761 0.64897,5.77267 0.71572,8.70691l-0.68116,1.15098c0,0 -0.37379,0.59806 -0.97185,0.22427z" fill-opacity="0.19821" fill="#727272"/><path d="M262.53657,204.28735c-0.18412,0.6808 -0.86493,0.49668 -0.86493,0.49668l-0.69507,-0.19774c-0.83457,-0.38109 -1.69663,-0.69954 -2.55475,-1.02415c-0.54496,-0.20615 -1.20493,-0.24592 -1.62111,-0.65368c-0.33519,-0.32841 -0.34095,-0.88139 -0.41807,-1.34428c-0.14842,-0.89082 0.01354,-1.25748 0.45376,-2.00122c0.3571,-0.60331 1.04968,-1.21267 0.86488,-2.01628c-0.17223,-0.74896 -0.31269,-0.77156 -0.80248,-1.34494c0,0 -0.4515,-0.5418 0.0903,-0.99329c0.5418,-0.4515 0.99329,0.0903 0.99329,0.0903c1.06964,1.30852 1.49657,2.53348 0.67728,4.1243c-0.43805,0.85057 -0.93826,1.00111 -0.87709,1.96879c0.01195,0.18898 -0.09151,0.45039 0.05924,0.56498c0.28621,0.21754 0.70006,0.16638 1.04336,0.27309c1.34456,0.41794 1.39783,0.49076 2.67654,1.07298l0.47814,0.11955c0,0 0.6808,0.18412 0.49668,0.86493z" fill-opacity="0.19821" fill="#727272"/></g><g stroke="#c9c9c9" stroke-linecap="round"><path d="M241.85358,168.73447l-3.17346,0.90643c0,0 -5.83213,-0.58581 -6.29734,-0.67982c-0.46521,-0.094 0.46304,0.33563 -0.99171,-0.79312c-1.13897,-0.88372 -1.71378,-1.85885 -2.28093,-3.05919c-0.56715,-1.20033 -0.9917,-2.4455 -0.74378,-3.34245c0.24792,-0.89695 0.46679,-0.6452 1.93383,-0.96308c1.46704,-0.31788 2.87935,-0.37917 3.81807,-0.28326c0.59964,0.06127 1.06594,-0.02816 2.28093,0.90643c1.215,0.93459 2.7272,2.94589 2.7272,2.94589c0,0 -0.08295,4.14445 -0.04959,4.41884c0.03336,0.27439 0.42333,0.91568 0.54544,-0.33991c0.12211,-1.25559 -0.48475,-1.32034 -0.19834,-3.22915c0.28641,-1.90881 0.57307,-3.21817 1.38839,-4.70209c0.81532,-1.48392 2.21008,-2.67881 2.87595,-3.05919c0.66586,-0.38038 0.89481,-0.82282 1.88424,0.33991c0.98942,1.16273 1.47419,3.29925 1.58673,3.73902c0.11254,0.43977 0.55894,0.63197 -0.3471,1.10503c-0.90604,0.47306 -1.52892,-0.2966 -2.52885,0.39656c-0.99994,0.69316 -1.20594,1.46401 -1.73549,2.66263c-0.52955,1.19862 -0.89254,3.2858 -0.89254,3.2858" fill="url(#color-1)" stroke-width="2"/><path d="M234.86203,164.03241l3.7189,4.02227" fill="url(#color-2)" stroke-width="2.5"/></g><path d="M258.53639,184.66037c-1.19452,6.55389 -1.19574,10.12271 -7.13737,15.58914c-6.36023,5.85155 -7.40433,0.13973 -11.6684,0.13973c-3.83815,0 -4.77286,5.41496 -10.42993,0.49192c-4.49851,-3.91482 -8.08456,-10.17769 -8.08456,-17.21819c0,-5.51752 0.57637,-9.77499 3.81696,-13.44507c1.23551,-1.39926 3.48194,-3.19699 4.80594,-2.4851c2.74798,1.47753 4.65416,1.90427 7.96388,1.90427c2.64887,0 -1.57541,0.93307 9.73782,-2.33824c6.97282,-2.01625 12.49554,9.13223 10.99565,17.36154z" fill="url(#color-3)" stroke="#c9c9c9" stroke-width="2.5" stroke-linecap="butt"/><path d="M232.1738,172.35208c0,1.25 -1.25,1.25 -1.25,1.25l-0.51896,-0.05272c-1.43339,0.25871 -1.29966,1.13801 -2.07999,2.39237c0,0 -0.6625,1.06 -1.7225,0.3975c-1.06,-0.6625 -0.3975,-1.7225 -0.3975,-1.7225c1.22673,-1.95242 1.16524,-2.62411 3.48162,-3.46194l1.23734,-0.05272c0,0 1.25,0 1.25,1.25z" fill-opacity="0.49717" fill="#dadada" stroke="none" stroke-width="0.5" stroke-linecap="butt"/><g stroke="#000000" stroke-width="2.5" stroke-linecap="butt"><path d="M251.90571,184.59231c0,6.83835 -5.33037,12.38194 -11.90571,12.38194c-6.57534,0 -11.90571,-5.54358 -11.90571,-12.38194c0,-6.83835 5.33037,-12.38194 11.90571,-12.38194c6.57534,0 11.90571,5.54358 11.90571,12.38194z" fill="#ffffff"/><path d="M233.09469,184.65183c0,-3.58356 2.90505,-6.48861 6.48861,-6.48861c3.58356,0 6.48861,2.90505 6.48861,6.48861c0,3.58356 -2.90505,6.48861 -6.48861,6.48861c-3.58356,0 -6.48861,-2.90505 -6.48861,-6.48861z" fill="#000000"/></g></g></g></svg>