<svg version="1.1" xmlns="http://www.w3.org/2000/svg" xmlns:xlink="http://www.w3.org/1999/xlink" width="367.18798" height="470.81664" viewBox="0,0,367.18798,470.81664"><g transform="translate(-326.67628,-34.68177)"><g data-paper-data="{&quot;isPaintingLayer&quot;:true}" fill-rule="nonzero" stroke="none" stroke-linecap="butt" stroke-linejoin="miter" stroke-miterlimit="10" stroke-dasharray="" stroke-dashoffset="0" style="mix-blend-mode: normal"><g stroke-width="0"><path d="M484.0685,269.21856c0.40676,129.08703 -31.37885,234.86677 -70.99513,236.26584c-39.61626,1.39897 -72.06138,-102.11258 -72.46812,-231.19953c-0.40676,-129.08687 31.37885,-234.86685 70.99513,-236.26589c39.61626,-1.39897 72.06138,102.11255 72.46814,231.19959z" fill="#000000"/><path d="M406.45627,504.82114l0.44421,-466.44564l216.6763,-3.69373v470.13937z" fill="#000000"/><path d="M693.86426,266.71093c0,130.68939 -33.30287,236.63401 -74.38399,236.63401c-41.08115,0 -74.38401,-105.94469 -74.38401,-236.63401c0,-130.68931 36.54042,-231.89845 77.62157,-231.89845c41.08115,0 71.14642,101.20916 71.14642,231.89845z" fill="#000000"/><path d="M485.66851,269.2944c0.3908,117.85772 -30.14771,214.43564 -68.20965,215.71298c-38.06191,1.27728 -69.23406,-93.22976 -69.62484,-211.0874c-0.3908,-117.85754 30.14771,-214.43567 68.20965,-215.71303c38.06192,-1.27728 69.23407,93.22973 69.62487,211.08748z" fill="#988929"/><path d="M412.33414,483.00894l0.41972,-424.48743l204.73362,-3.36145v427.84891z" fill="#988929"/><path d="M686.63535,267.0049c0,119.32067 -32.07941,216.04912 -71.65135,216.04912c-39.57196,0 -71.65137,-96.72853 -71.65137,-216.04912c0,-119.32059 35.19804,-211.72551 74.77,-211.72551c39.57196,0 68.53272,92.40495 68.53272,211.72554z" fill="#009a31"/><path d="M487.45497,198.62572c0,77.76742 -29.11413,140.8103 -65.02821,140.8103c-35.91407,0 -65.02821,-63.04296 -65.02821,-140.8103c0,-77.76734 29.11417,-140.81033 65.02824,-140.81033c35.91408,0 65.02821,63.04291 65.02821,140.81033z" fill="#00ff52"/><path d="M418.2591,339.37631l0.39602,-281.21817l193.16968,-2.227v283.44517z" fill="#00ff52"/><path d="M677.06701,196.2726c0,79.04947 -30.26749,143.13174 -67.60431,143.13174c-37.33681,0 -67.60428,-64.0823 -67.60428,-143.13172c0,-79.04941 33.20998,-140.26735 70.54679,-140.26735c37.33681,0 64.66181,61.21788 64.66181,140.26735z" fill="#00ff52"/></g><g stroke-width="0"><path d="M466.64694,283.99712c0.39685,120.85349 -30.61412,219.88629 -69.2649,221.19613c-38.65076,1.30974 -70.30517,-95.59955 -70.70199,-216.45297c-0.39685,-120.85334 30.61412,-219.88637 69.2649,-221.19618c38.65076,-1.30974 70.30517,95.59952 70.70201,216.45302z" fill="#000000"/><path d="M390.92621,504.57229l0.43338,-436.69441l211.39565,-3.45813v440.15254z" fill="#000000"/><path d="M671.32974,281.64943c0,122.35365 -32.49124,221.54082 -72.57117,221.54082c-40.07995,0 -72.57119,-99.18724 -72.57119,-221.54082c0,-122.35358 35.64989,-217.1073 75.72985,-217.1073c40.07995,0 69.4125,94.75375 69.4125,217.1073z" fill="#000000"/><path d="M468.20795,284.06812c0.38128,110.34042 -29.41298,200.75832 -66.5473,201.95419c-37.1343,1.19581 -67.54675,-87.2833 -67.928,-197.62364c-0.38128,-110.34025 29.41298,-200.75835 66.5473,-201.95424c37.13431,-1.19581 67.54676,87.28327 67.92803,197.62372z" fill="#009a31"/><path d="M396.66083,484.15134l0.40949,-397.41241l199.74403,-3.14705v400.55948z" fill="#009a31"/><path d="M664.277,281.92466c0,111.71005 -31.2976,202.26889 -69.90512,202.26889c-38.60755,0 -69.90515,-90.55891 -69.90515,-202.26889c0,-111.70998 34.34023,-198.22105 72.94777,-198.22105c38.60755,0 66.8625,86.5111 66.8625,198.22108z" fill="#009a31"/><path d="M469.95087,217.9069c0,72.80719 -28.40459,131.82902 -63.4434,131.82902c-35.0388,0 -63.4434,-59.0219 -63.4434,-131.82902c0,-72.80712 28.40463,-131.82904 63.44343,-131.82904c35.03881,0 63.4434,59.02185 63.4434,131.82904z" fill="#00ff52"/><path d="M402.44139,349.68001l0.38637,-263.28128l188.46191,-2.08496v265.36623z" fill="#00ff52"/><path d="M654.94185,215.70386c0,74.00747 -29.52984,134.00239 -65.95671,134.00239c-36.42687,0 -65.95669,-59.99495 -65.95669,-134.00237c0,-74.00742 32.40062,-131.32069 68.82748,-131.32069c36.42687,0 63.08593,57.31323 63.08593,131.32069z" fill="#00ff52"/></g><text transform="translate(365.1255,177.49976) scale(1.11367,1.62043)" font-size="40" xml:space="preserve" fill="#ffffff" fill-rule="nonzero" stroke="none" stroke-width="1" stroke-linecap="butt" stroke-linejoin="miter" stroke-miterlimit="10" stroke-dasharray="" stroke-dashoffset="0" font-family="Pixel" font-weight="normal" text-anchor="start" style="mix-blend-mode: normal"><tspan x="0" dy="0">INTRODUCE </tspan><tspan x="0" dy="46.150000000000006px">EL CODIGO</tspan><tspan x="0" dy="46.150000000000006px">ATPLM 2</tspan></text></g></g></svg>