<svg version="1.1" xmlns="http://www.w3.org/2000/svg" xmlns:xlink="http://www.w3.org/1999/xlink" width="247.86764" height="277.11892" viewBox="0,0,247.86764,277.11892"><defs><linearGradient x1="375" y1="58.35822" x2="375" y2="299.65851" gradientUnits="userSpaceOnUse" id="color-1"><stop offset="0" stop-color="#00b3b2"/><stop offset="1" stop-color="#353535"/></linearGradient><radialGradient cx="240" cy="293.56833" r="39.4088" gradientUnits="userSpaceOnUse" id="color-2"><stop offset="0" stop-color="#fff900"/><stop offset="1" stop-color="#fff900" stop-opacity="0"/></radialGradient><linearGradient x1="207.86135" y1="288.44787" x2="207.86135" y2="305.44494" gradientUnits="userSpaceOnUse" id="color-3"><stop offset="0" stop-color="#ea3526"/><stop offset="1" stop-color="#ca2128"/></linearGradient><linearGradient x1="221.10499" y1="278.43485" x2="221.10499" y2="295.32737" gradientUnits="userSpaceOnUse" id="color-4"><stop offset="0" stop-color="#ea3526"/><stop offset="1" stop-color="#ca2128"/></linearGradient><linearGradient x1="214.67249" y1="286.60776" x2="214.67249" y2="300.91925" gradientUnits="userSpaceOnUse" id="color-5"><stop offset="0" stop-color="#fbf4e9"/><stop offset="1" stop-color="#eae1d7"/></linearGradient><linearGradient x1="216.50415" y1="281.57783" x2="216.50415" y2="298.58912" gradientUnits="userSpaceOnUse" id="color-6"><stop offset="0" stop-color="#fbf4e9"/><stop offset="1" stop-color="#eae1d7"/></linearGradient><linearGradient x1="227.48048" y1="297.14465" x2="252.51952" y2="297.14465" gradientUnits="userSpaceOnUse" id="color-7"><stop offset="0" stop-color="#ff866e"/><stop offset="1" stop-color="#ff6242"/></linearGradient><radialGradient cx="238.50887" cy="282.60493" r="6.26275" gradientUnits="userSpaceOnUse" id="color-8"><stop offset="0" stop-color="#9ceb60"/><stop offset="1" stop-color="#6dd627"/></radialGradient><radialGradient cx="237.81485" cy="284.26631" r="1.23933" gradientUnits="userSpaceOnUse" id="color-9"><stop offset="0" stop-color="#9ceb60"/><stop offset="1" stop-color="#6dd627"/></radialGradient></defs><g transform="translate(-200.5912,-55.85821)"><g data-paper-data="{&quot;isPaintingLayer&quot;:true}" fill-rule="nonzero" stroke-linejoin="miter" stroke-miterlimit="10" stroke-dasharray="" stroke-dashoffset="0" style="mix-blend-mode: normal"><path d="M316.28378,299.65851v-241.3003h117.43244v241.3003z" fill="url(#color-1)" stroke="#000000" stroke-width="5" stroke-linecap="butt"/><text transform="translate(325.47781,94.4151) rotate(70.66086) scale(1.09353,1.11862) skewX(-1.03329)" font-size="40" xml:space="preserve" fill="#ffffff" fill-rule="nonzero" stroke="none" stroke-width="1" stroke-linecap="butt" stroke-linejoin="miter" stroke-miterlimit="10" stroke-dasharray="" stroke-dashoffset="0" font-family="Pixel" font-weight="normal" text-anchor="start" style="mix-blend-mode: normal"><tspan x="0" dy="0">Settings</tspan></text><g><path d="M200.5912,293.56833c0,-21.76488 17.64392,-39.4088 39.4088,-39.4088c21.76488,0 39.4088,17.64392 39.4088,39.4088c0,21.76488 -17.64392,39.4088 -39.4088,39.4088c-21.76488,0 -39.4088,-17.64392 -39.4088,-39.4088z" fill="url(#color-2)" stroke="none" stroke-width="0" stroke-linecap="butt"/><g><path d="M208.374,305.44438c0.07445,-1.26119 -2.64955,-6.40431 -2.64489,-6.45171c0.30122,-3.07101 -1.57299,-5.31535 -3.99216,-6.0738c-0.09893,-0.03188 1.56372,-3.30593 7.56914,-4.44894c3.30665,-0.62936 4.88157,12.41886 4.66395,12.41974c-1.60081,0.00649 -5.59953,4.61388 -5.59604,4.55471z" fill="url(#color-3)" stroke="#303a44" stroke-width="0.6" stroke-linecap="butt"/><path d="M232.30089,310.45729c0,0 -0.07887,0.33284 -0.17746,0.3998c-0.11924,0.08098 -0.48787,0.05208 -0.48787,0.05208c0,0 -1.28727,-4.70061 -2.33631,-8.16232c-1.83423,-6.05274 -7.69924,-24.95376 -7.69924,-24.95376l0.72932,-0.24692c0,0 5.85706,18.60741 7.68252,24.63234c1.05627,3.48622 2.28904,8.27878 2.28904,8.27878z" fill="#d5d9e0" stroke="#2d3842" stroke-width="0.6" stroke-linecap="round"/><path d="M222.51076,277.02192c0,0.44635 -0.35506,0.8082 -0.79304,0.8082c-0.43799,0 -0.79304,-0.36184 -0.79304,-0.8082c0,-0.44635 0.35506,-0.8082 0.79304,-0.8082c0.43799,0 0.79304,0.36184 0.79304,0.8082z" fill="#d5d9e0" stroke="#2d3842" stroke-width="0.6" stroke-linecap="butt"/><path d="M222.22789,276.88346c0,0.2025 -0.16961,0.36666 -0.37884,0.36666c-0.20923,0 -0.37884,-0.16416 -0.37884,-0.36666c0,-0.2025 0.16961,-0.36666 0.37884,-0.36666c0.20923,0 0.37884,0.16416 0.37884,0.36666z" fill="#eef0f3" stroke="#2d3842" stroke-width="0" stroke-linecap="butt"/><path d="M220.65975,295.32735c-1.5633,-1.45912 -4.01988,-8.87618 -4.99932,-13.70743c-0.06961,-0.34335 3.23347,0.06358 6.19907,-3.18241c0.15651,-0.17131 0.27946,7.99023 4.69111,15.12831c-3.14092,0.31729 -5.88319,1.7687 -5.89087,1.76153z" fill="url(#color-4)" stroke="#303a44" stroke-width="0.6" stroke-linecap="butt"/><path d="M213.89982,300.91914c-0.08414,0.02722 -3.74463,-5.22734 -4.58493,-12.41119c-0.00129,-0.01105 2.0987,-0.09544 3.69606,-1.84037c0.94606,-1.03346 7.02214,11.66502 7.01914,11.67824c-0.47855,2.10664 -4.38973,2.01025 -6.13027,2.57332z" fill="url(#color-5)" stroke="#303a44" stroke-width="0.6" stroke-linecap="butt"/><path d="M220.04387,298.33498c0.07651,0.07837 -2.69489,3.10038 -7.73118,-13.95584c-0.0471,-0.1799 0.42959,-1.89873 3.25352,-2.79706c0.88882,-0.28275 5.13243,13.63503 5.13243,13.63503c0,0 -1.30351,0.8491 -1.36483,0.92609c-0.19318,0.24254 0.26394,1.73481 0.71006,2.19178z" fill="url(#color-6)" stroke="#303a44" stroke-width="0.6" stroke-linecap="butt"/><path d="M218.27922,297.96662c0,0 -0.28555,-0.45364 -0.19761,-0.73889c0.17053,-0.55317 1.19426,-1.01383 1.19426,-1.01383" fill="none" stroke="#303a44" stroke-width="0.6" stroke-linecap="round"/></g><g><path d="M252.35455,296.67448c-0.79615,4.36819 -0.79696,6.74682 -4.75708,10.39021c-4.23911,3.90008 -4.93501,0.09313 -7.77702,0.09313c-2.55814,0 -3.18113,3.60909 -6.95158,0.32787c-2.99827,-2.60924 -5.38838,-6.78346 -5.38838,-11.47598c0,-3.67744 0.38415,-6.51506 2.54402,-8.96118c0.82347,-0.93261 2.32072,-2.1308 3.20317,-1.65633c1.83154,0.98478 3.10201,1.2692 5.30795,1.2692c1.76548,0 -1.05002,0.62189 6.49029,-1.55844c4.64741,-1.34384 8.32832,6.08666 7.32863,11.57152z" fill="url(#color-7)" stroke="#45413c" stroke-width="2.5" stroke-linecap="butt"/><g stroke="#45413c" stroke-width="2.5" stroke-linecap="round"><path d="M241.23541,286.05982l-2.11512,0.60414c0,0 -3.88713,-0.39044 -4.1972,-0.4531c-0.31006,-0.06265 0.30862,0.2237 -0.66098,-0.52862c-0.75913,-0.589 -1.14224,-1.23893 -1.52025,-2.03896c-0.37801,-0.80002 -0.66097,-1.62993 -0.49573,-2.22775c0.16524,-0.59782 0.31112,-0.43003 1.2889,-0.6419c0.97779,-0.21187 1.91909,-0.25272 2.54476,-0.18879c0.39966,0.04084 0.71045,-0.01877 1.52025,0.60414c0.8098,0.62291 1.81769,1.96345 1.81769,1.96345c0,0 -0.05529,2.76229 -0.03305,2.94517c0.02223,0.18288 0.28215,0.6103 0.36354,-0.22655c0.08139,-0.83685 -0.32309,-0.88001 -0.13219,-2.15224c0.19089,-1.27223 0.38195,-2.14492 0.92537,-3.13396c0.54341,-0.98904 1.47303,-1.78544 1.91683,-2.03896c0.4438,-0.25352 0.59639,-0.54841 1.25585,0.22655c0.65945,0.77496 0.98255,2.19896 1.05756,2.49207c0.07501,0.29311 0.37254,0.42121 -0.23134,0.73651c-0.60388,0.3153 -1.01903,-0.19768 -1.68549,0.26431c-0.66646,0.46199 -0.80376,0.97577 -1.15671,1.77465c-0.35295,0.79888 -0.59488,2.19 -0.59488,2.19" fill="url(#color-8)"/><path d="M239.05418,285.60674l-2.47866,-2.68086" fill="url(#color-9)"/></g><path d="M234.7838,288.56545c0,0.83313 -0.83313,0.83313 -0.83313,0.83313l-0.34589,-0.03514c-0.95536,0.17243 -0.86623,0.75849 -1.38632,1.59452c0,0 -0.44156,0.70649 -1.14805,0.26493c-0.70649,-0.44156 -0.26493,-1.14805 -0.26493,-1.14805c0.81762,-1.30129 0.77664,-1.74898 2.32051,-2.30739l0.82469,-0.03514c0,0 0.83313,0 0.83313,0.83313z" fill="#ffd9c6" stroke="none" stroke-width="0.5" stroke-linecap="butt"/></g><text transform="translate(229.70832,299.73541) scale(0.25848,0.25848)" font-size="40" xml:space="preserve" fill="#000000" fill-rule="nonzero" stroke="#000000" stroke-width="4" stroke-linecap="butt" stroke-linejoin="miter" stroke-miterlimit="10" stroke-dasharray="" stroke-dashoffset="0" font-family="Handwriting" font-weight="normal" text-anchor="start" style="mix-blend-mode: normal"><tspan x="0" dy="0">.GO</tspan></text><text transform="translate(230.26141,318.79999) scale(0.33477,0.33477)" font-size="40" xml:space="preserve" fill="#000000" fill-rule="nonzero" stroke="#000000" stroke-width="4" stroke-linecap="butt" stroke-linejoin="miter" stroke-miterlimit="10" stroke-dasharray="" stroke-dashoffset="0" font-family="Handwriting" font-weight="normal" text-anchor="start" style="mix-blend-mode: normal"><tspan x="0" dy="0">AP</tspan></text><g fill="#000000" stroke-linecap="butt"><text transform="translate(225.26255,278.49254) scale(0.33477,0.33477)" font-size="40" xml:space="preserve" fill="#000000" fill-rule="nonzero" stroke="#000000" stroke-width="4" stroke-linecap="butt" stroke-linejoin="miter" stroke-miterlimit="10" stroke-dasharray="" stroke-dashoffset="0" font-family="Handwriting" font-weight="normal" text-anchor="start" style="mix-blend-mode: normal"><tspan x="0" dy="0">CTH</tspan></text><path d="M250.99377,271.59812c0,-0.28206 0.22866,-0.51072 0.51072,-0.51072c0.28206,0 0.51072,0.22866 0.51072,0.51072c0,0.28206 -0.22866,0.51072 -0.51072,0.51072c-0.28206,0 -0.51072,-0.22866 -0.51072,-0.51072z" stroke="none" stroke-width="0.5"/></g></g></g></g></svg>