<svg version="1.1" xmlns="http://www.w3.org/2000/svg" xmlns:xlink="http://www.w3.org/1999/xlink" width="770.89367" height="770.89367" viewBox="0,0,770.89367,770.89367"><defs><linearGradient x1="236.99701" y1="-212.9543" x2="236.99701" y2="557.93936" gradientUnits="userSpaceOnUse" id="color-1"><stop offset="0" stop-color="#000000"/><stop offset="1" stop-color="#313131"/></linearGradient><linearGradient x1="405.17375" y1="-158.69749" x2="405.17375" y2="167.32942" gradientUnits="userSpaceOnUse" id="color-2"><stop offset="0" stop-color="#000000"/><stop offset="1" stop-color="#313131"/></linearGradient><linearGradient x1="253.17624" y1="-152.35368" x2="253.17624" y2="465.42247" gradientUnits="userSpaceOnUse" id="color-3"><stop offset="0" stop-color="#000000"/><stop offset="1" stop-color="#313131"/></linearGradient><linearGradient x1="121.38405" y1="71.93279" x2="121.38405" y2="503.81446" gradientUnits="userSpaceOnUse" id="color-4"><stop offset="0" stop-color="#000000"/><stop offset="1" stop-color="#313131"/></linearGradient></defs><g transform="translate(148.44983,212.95432)"><g data-paper-data="{&quot;isPaintingLayer&quot;:true}" fill-rule="nonzero" stroke="none" stroke-linecap="butt" stroke-linejoin="miter" stroke-miterlimit="10" stroke-dasharray="" stroke-dashoffset="0" style="mix-blend-mode: normal"><g stroke-width="1"><path d="M236.99692,557.93918c-212.87603,0 -385.44675,-172.57039 -385.44675,-385.44675c0,-212.87603 172.57039,-385.44675 385.44692,-385.44675c212.87636,0 385.44675,172.57039 385.44675,385.44692c0,212.87603 -172.57039,385.44675 -385.44675,385.44675z" fill="url(#color-1)"/><path d="M543.23198,142.37419c-100.36105,-100.36105 -200.71064,-200.71064 -301.0717,-301.0717c178.86656,2.74709 323.29081,147.16004 326.02693,326.02693z" fill="url(#color-2)"/><path d="M391.29507,465.42232c-149.76334,-148.51688 -298.61153,-297.96054 -446.79727,-448.04406c45.85026,-86.25056 128.4602,-149.9841 227.14407,-169.73192l390.21281,390.21281c-19.82495,98.99291 -83.90061,181.81247 -170.55945,227.56333z" fill="url(#color-3)"/><path d="M-45.97041,104.90853c127.04816,128.37192 254.86835,255.97151 383.06356,383.18491c-31.61858,10.02851 -65.15671,15.72102 -100.09607,15.72102c-182.98196,0 -331.32213,-148.34034 -331.32213,-331.32213c0,-35.10493 5.7477,-68.80848 15.86464,-100.55954c10.84474,10.97723 21.63445,22.00932 32.49017,32.97575z" fill="url(#color-4)"/></g><path d="M491.67696,446.47898h-503.34681l74.0172,-74.02431h355.30531z" fill="#388e3c" stroke-width="1"/><path d="M491.67696,446.47898h-503.34681l74.0172,-74.02431h355.30531z" fill="none" stroke-width="4.16667"/><path d="M165.9828,311.3919h148.04151v74.0172h-148.04151z" fill="#388e3c" stroke-width="1"/><path d="M165.9828,311.3919h148.04151v74.0172h-148.04151z" fill="none" stroke-width="4.16667"/><path d="M506.47898,313.23949c0,16.34404 -13.26,29.61115 -29.60404,29.61115h-473.74277c-16.34405,0 -29.61114,-13.2671 -29.61114,-29.61115v-370.10732c0,-16.34405 13.2671,-29.61115 29.61115,-29.61115h473.74278c16.34404,0 29.60404,13.2671 29.60404,29.61115z" fill="#4caf50" stroke-width="1"/><path d="M506.47898,313.23949c0,16.34404 -13.26,29.61115 -29.60404,29.61115h-473.74277c-16.34405,0 -29.61114,-13.2671 -29.61114,-29.61115v-370.10732c0,-16.34405 13.2671,-29.61115 29.61115,-29.61115h473.74278c16.34404,0 29.60404,13.2671 29.60404,29.61115z" fill="none" stroke-width="4.16667"/><path d="M17.93419,-42.06581h444.13163v338.64859h-444.13163z" fill="#1b5e20" stroke-width="1"/><path d="M17.93419,-42.06581h444.13163v338.64859h-444.13163z" fill="none" stroke-width="4.16667"/><path d="M178.95926,8.58154l31.4097,31.40046l-115.13668,115.16866l-31.4097,-31.40046z" fill="#66bb6a" stroke-width="1"/><path d="M178.95926,8.58154l31.4097,31.40046l-115.13668,115.16866l-31.4097,-31.40046z" fill="none" stroke-width="4.16663"/><path d="M63.85953,123.88308l31.3962,-31.41326l115.18003,115.11537l-31.39549,31.41325z" fill="#66bb6a" stroke-width="1"/><path d="M63.85953,123.88308l31.3962,-31.41326l115.18003,115.11537l-31.39549,31.41325z" fill="none" stroke-width="4.16663"/><path d="M417.52119,124.02165l-31.40544,31.40473l-115.14734,-115.14805l31.40472,-31.40472z" fill="#66bb6a" stroke-width="1"/><path d="M417.52119,124.02165l-31.40544,31.40473l-115.14734,-115.14805l31.40472,-31.40472z" fill="none" stroke-width="4.16663"/><path d="M302.77321,238.99632l-31.39549,-31.41397l115.18003,-115.11536l31.3962,31.41397z" fill="#66bb6a" stroke-width="1"/><path d="M302.77321,238.99632l-31.39549,-31.41397l115.18003,-115.11536l31.3962,31.41397z" fill="none" stroke-width="4.16663"/></g></g></svg>