<svg version="1.1" xmlns="http://www.w3.org/2000/svg" xmlns:xlink="http://www.w3.org/1999/xlink" width="615.11261" height="445.44294" viewBox="0,0,615.11261,445.44294"><g transform="translate(67.55631,44.22297)"><g stroke-miterlimit="10"><path d="M-66.30631,399.96997v-442.94294h612.61261v442.94294z" fill-opacity="0.90196" fill="#fcfcfc" stroke="#000000" stroke-width="2.5"/><text transform="translate(208.03052,57.86221) scale(0.95549,0.95549)" font-size="40" xml:space="preserve" fill-opacity="0.90196" fill="#000000" stroke="none" stroke-width="1" font-family="Pixel" font-weight="normal" text-anchor="start"><tspan x="0" dy="0">Mini Tutorial</tspan></text><text transform="translate(293.75473,337.41555) scale(0.5,0.5)" font-size="40" xml:space="preserve" fill-opacity="0.90196" fill="#000000" stroke="none" stroke-width="1" font-family="Pixel" font-weight="normal" text-anchor="start"><tspan x="0" dy="0">Click to Continue</tspan></text><path d="M11.90063,306.55854v-204.44248h448.46908v204.44248z" fill-opacity="0.90196" fill="#fcfcfc" stroke="#000000" stroke-width="2.5"/><text transform="translate(21.12076,138.35088) scale(0.5,0.5)" font-size="40" xml:space="preserve" fill-opacity="0.90196" fill="#000000" stroke="none" stroke-width="1" font-family="Pixel" font-weight="normal" text-anchor="start"><tspan x="0" dy="0">DPats</tspan></text><path d="M217.73607,225.53549c0,-12.7868 10.36575,-23.15255 23.15255,-23.15255c12.78679,0 23.15255,10.36575 23.15255,23.15255c0,12.7868 -10.36575,23.15255 -23.15255,23.15255c-12.7868,0 -23.15255,-10.36575 -23.15255,-23.15255z" fill-opacity="0.90196" fill="#fcfcfc" stroke="#000000" stroke-width="2.5"/><path d="M224.35108,175.9229c0,-8.76808 7.10794,-15.87602 15.87602,-15.87602c8.76808,0 15.87602,7.10794 15.87602,15.87602c0,8.76808 -7.10794,15.87602 -15.87602,15.87602c-8.76808,0 -15.87602,-7.10794 -15.87602,-15.87602z" fill-opacity="0.90196" fill="#fcfcfc" stroke="#000000" stroke-width="2.5"/><path d="M225.08167,275.87867c0,-8.76808 7.10794,-15.87602 15.87602,-15.87602c8.76808,0 15.87602,7.10794 15.87602,15.87602c0,8.76808 -7.10794,15.87602 -15.87602,15.87602c-8.76808,0 -15.87602,-7.10794 -15.87602,-15.87602z" fill-opacity="0.90196" fill="#fcfcfc" stroke="#000000" stroke-width="2.5"/><path d="M189.4273,239.96869c-8.76142,-0.3416 -15.58705,-7.72105 -15.24545,-16.48249c0.3416,-8.76144 7.72105,-15.58705 16.48249,-15.24545c8.76144,0.3416 15.58705,7.72107 15.24546,16.48249c-0.3416,8.76144 -7.72107,15.58705 -16.48251,15.24545z" fill-opacity="0.90196" fill="#fcfcfc" stroke="#000000" stroke-width="2.5"/><path d="M289.33565,244.07744c-8.76144,-0.3416 -15.58705,-7.72105 -15.24545,-16.48249c0.3416,-8.76144 7.72107,-15.58705 16.48249,-15.24545c8.76144,0.3416 15.58705,7.72107 15.24545,16.48249c-0.3416,8.76144 -7.72107,15.58705 -16.48249,15.24545z" fill-opacity="0.90196" fill="#fcfcfc" stroke="#000000" stroke-width="2.5"/><text transform="translate(221.87131,231.6284) scale(0.40564,0.40564)" font-size="40" xml:space="preserve" fill-opacity="0.90196" fill="#000000" stroke="none" stroke-width="1" font-family="Pixel" font-weight="normal" text-anchor="start"><tspan x="0" dy="0">DPat</tspan></text><text transform="translate(235.18804,191.35801) scale(0.73456,0.73456)" font-size="40" xml:space="preserve" fill-opacity="0.90196" fill="#000000" stroke="none" stroke-width="1" font-family="Pixel" font-weight="normal" text-anchor="start"><tspan x="0" dy="0">1</tspan></text><text transform="translate(277.19294,241.71527) scale(0.73456,0.73456)" font-size="40" xml:space="preserve" fill-opacity="0.90196" fill="#000000" stroke="none" stroke-width="1" font-family="Pixel" font-weight="normal" text-anchor="start"><tspan x="0" dy="0">4</tspan></text><text transform="translate(233.55517,287.55112) scale(0.73456,0.73456)" font-size="40" xml:space="preserve" fill-opacity="0.90196" fill="#000000" stroke="none" stroke-width="1" font-family="Pixel" font-weight="normal" text-anchor="start"><tspan x="0" dy="0">2</tspan></text><text transform="translate(181.98062,238.15466) scale(0.73456,0.73456)" font-size="40" xml:space="preserve" fill-opacity="0.90196" fill="#000000" stroke="none" stroke-width="1" font-family="Pixel" font-weight="normal" text-anchor="start"><tspan x="0" dy="0">3</tspan></text></g></g></svg>