<svg version="1.1" xmlns="http://www.w3.org/2000/svg" xmlns:xlink="http://www.w3.org/1999/xlink" width="211.66111" height="243.49151" viewBox="0,0,211.66111,243.49151"><defs><linearGradient x1="231.44632" y1="52.29044" x2="231.44632" y2="290.37244" gradientUnits="userSpaceOnUse" id="color-1"><stop offset="0" stop-color="#f40001"/><stop offset="1" stop-color="#6b0000"/></linearGradient><radialGradient cx="231.44632" cy="171.33144" r="112.21531" gradientUnits="userSpaceOnUse" id="color-2"><stop offset="0" stop-color="#000000"/><stop offset="1" stop-color="#efab7c"/></radialGradient><radialGradient cx="232.71235" cy="103.01832" r="19.06037" gradientUnits="userSpaceOnUse" id="color-3"><stop offset="0" stop-color="#00f5e8"/><stop offset="1" stop-color="#006b66"/></radialGradient><radialGradient cx="232.71235" cy="103.01832" r="20.74376" gradientUnits="userSpaceOnUse" id="color-4"><stop offset="0" stop-color="#000000"/><stop offset="1" stop-color="#bd8863"/></radialGradient><radialGradient cx="279.33304" cy="143.41012" r="14.21418" gradientUnits="userSpaceOnUse" id="color-5"><stop offset="0" stop-color="#00f5e8"/><stop offset="1" stop-color="#006b66"/></radialGradient><radialGradient cx="279.33304" cy="143.41012" r="15.46956" gradientUnits="userSpaceOnUse" id="color-6"><stop offset="0" stop-color="#000000"/><stop offset="1" stop-color="#ffffff"/></radialGradient><radialGradient cx="185.08762" cy="146.48239" r="14.61803" gradientUnits="userSpaceOnUse" id="color-7"><stop offset="0" stop-color="#00f5e8"/><stop offset="1" stop-color="#006b66"/></radialGradient><radialGradient cx="185.08762" cy="146.48239" r="15.90909" gradientUnits="userSpaceOnUse" id="color-8"><stop offset="0" stop-color="#000000"/><stop offset="1" stop-color="#ffffff"/></radialGradient><linearGradient x1="232.09309" y1="174.29541" x2="232.09309" y2="287.42458" gradientUnits="userSpaceOnUse" id="color-9"><stop offset="0" stop-color="#eb0001"/><stop offset="1" stop-color="#740000"/></linearGradient><radialGradient cx="232.09309" cy="230.85999" r="46.78507" gradientUnits="userSpaceOnUse" id="color-10"><stop offset="0" stop-color="#000000"/><stop offset="1" stop-color="#ffffff"/></radialGradient><radialGradient cx="231.76249" cy="231.26782" r="54.0225" gradientUnits="userSpaceOnUse" id="color-11"><stop offset="0" stop-color="#000000"/><stop offset="1" stop-color="#ffffff"/></radialGradient><radialGradient cx="231.76249" cy="230.48988" r="52.80027" gradientUnits="userSpaceOnUse" id="color-12"><stop offset="0" stop-color="#000000"/><stop offset="1" stop-color="#ffffff"/></radialGradient></defs><g transform="translate(-125.8375,-49.38093)"><g stroke-miterlimit="10"><g><path d="M131.16861,290.37244l2.06405,-98.42762c0,0 -5.15147,-0.28895 -4.88518,-1.51531c2.3433,-10.79173 25.06522,-91.42089 25.06522,-91.42089l80.31507,-46.71818l74.80047,45.58493l26.02687,92.94639l-4.05842,2.21786v97.33282z" fill="url(#color-1)" stroke="url(#color-2)" stroke-width="5" stroke-linecap="butt"/><path d="M214.17533,122.98703l0.38155,-16.51088c0,0 -0.95229,-0.04847 -0.90306,-0.25419c0.43317,-1.81027 4.63348,-15.33552 4.63348,-15.33552l14.84679,-7.83681l13.82738,7.6467l4.81125,15.59142l-0.75022,0.37204v16.32722z" fill="url(#color-3)" stroke="url(#color-4)" stroke-width="2.5" stroke-linecap="butt"/><path d="M265.50913,163.37882l3.06649,-32.10059l21.38364,-0.19009l3.02849,32.29069z" fill="url(#color-5)" stroke="url(#color-6)" stroke-width="2.5" stroke-linecap="butt"/><path d="M170.87097,166.45108l3.15361,-32.10059l21.99118,-0.19009l3.11453,32.29069z" fill="url(#color-7)" stroke="url(#color-8)" stroke-width="2.5" stroke-linecap="butt"/><path d="M185.30802,287.42458v-113.12915h93.57014v113.12915z" fill="url(#color-9)" stroke="url(#color-10)" stroke-width="2.5" stroke-linecap="butt"/><path d="M184.34002,288.57635l94.84494,-114.61703" fill="none" stroke="url(#color-11)" stroke-width="2.5" stroke-linecap="round"/><path d="M277.71828,286.50182l-91.91159,-112.02388" fill="none" stroke="url(#color-12)" stroke-width="2.5" stroke-linecap="round"/></g></g></g></svg>