<svg version="1.1" xmlns="http://www.w3.org/2000/svg" xmlns:xlink="http://www.w3.org/1999/xlink" width="40.06868" height="58.43665" viewBox="0,0,40.06868,58.43665"><defs><radialGradient cx="237.01328" cy="171.07157" r="14.81684" gradientUnits="userSpaceOnUse" id="color-1"><stop offset="0" stop-color="#9ceb60"/><stop offset="1" stop-color="#6dd627"/></radialGradient><linearGradient x1="222.03437" y1="184.82029" x2="259.60215" y2="184.82029" gradientUnits="userSpaceOnUse" id="color-2"><stop offset="0" stop-color="#ff866e"/><stop offset="1" stop-color="#ff6242"/></linearGradient><linearGradient x1="238.06716" y1="196.52053" x2="243.21056" y2="196.52053" gradientUnits="userSpaceOnUse" id="color-3"><stop offset="0" stop-color="#1bff00"/><stop offset="1" stop-color="#11a300"/></linearGradient><radialGradient cx="236.06912" cy="152.28197" r="10.81356" gradientUnits="userSpaceOnUse" id="color-4"><stop offset="0" stop-color="#9ceb60"/><stop offset="1" stop-color="#6dd627"/></radialGradient><radialGradient cx="236.74654" cy="154.92533" r="2.13988" gradientUnits="userSpaceOnUse" id="color-5"><stop offset="0" stop-color="#9ceb60"/><stop offset="1" stop-color="#6dd627"/></radialGradient><radialGradient cx="240.64359" cy="167.05789" r="3.50866" gradientUnits="userSpaceOnUse" id="color-6"><stop offset="0" stop-color="#9ceb60"/><stop offset="1" stop-color="#6dd627"/></radialGradient><radialGradient cx="245.02784" cy="152.40037" r="10.81356" gradientUnits="userSpaceOnUse" id="color-7"><stop offset="0" stop-color="#9ceb60"/><stop offset="1" stop-color="#6dd627"/></radialGradient><radialGradient cx="244.35042" cy="155.04373" r="2.13988" gradientUnits="userSpaceOnUse" id="color-8"><stop offset="0" stop-color="#9ceb60"/><stop offset="1" stop-color="#6dd627"/></radialGradient><linearGradient x1="234.81091" y1="178.62237" x2="236.92328" y2="178.62237" gradientUnits="userSpaceOnUse" id="color-9"><stop offset="0" stop-color="#ff866e"/><stop offset="1" stop-color="#ff6242"/></linearGradient><linearGradient x1="244.45436" y1="178.62237" x2="246.56673" y2="178.62237" gradientUnits="userSpaceOnUse" id="color-10"><stop offset="0" stop-color="#ff866e"/><stop offset="1" stop-color="#ff6242"/></linearGradient><radialGradient cx="239.6591" cy="150.7299" r="9.2516" gradientUnits="userSpaceOnUse" id="color-11"><stop offset="0" stop-color="#9ceb60"/><stop offset="1" stop-color="#6dd627"/></radialGradient><radialGradient cx="241.63619" cy="152.41962" r="1.83079" gradientUnits="userSpaceOnUse" id="color-12"><stop offset="0" stop-color="#9ceb60"/><stop offset="1" stop-color="#6dd627"/></radialGradient></defs><g transform="translate(-220.78437,-145.2164)"><g data-paper-data="{&quot;isPaintingLayer&quot;:true}" fill-rule="nonzero" stroke-linejoin="miter" stroke-miterlimit="10" stroke-dasharray="" stroke-dashoffset="0" style="mix-blend-mode: normal"><path d="M243.48351,170.24963c0,0 -1.62445,3.86601 -2.1795,2.63135c-0.55505,-1.23466 -1.14129,-0.50847 -1.89346,-2.51528c-0.75217,-2.0068 -0.80473,-3.65211 -0.85049,-5.97568c-0.04576,-2.32357 -0.78418,-5.22183 -0.38042,-6.40598c0.40375,-1.18414 1.36882,-1.62988 2.88547,-1.90678c1.51664,-0.27688 2.0731,0.99477 1.53146,2.87763c-0.54164,1.88288 0.74782,6.16577 0.90211,7.87641c0.15429,1.71063 -0.06013,3.89287 -0.06013,3.89287" fill="url(#color-1)" stroke="#45413c" stroke-width="2.5" stroke-linecap="round"/><path d="M259.35463,184.11487c-1.19452,6.55389 -1.19574,10.12271 -7.13737,15.58914c-6.36023,5.85155 -7.40433,0.13973 -11.6684,0.13973c-3.83815,0 -4.77286,5.41496 -10.42993,0.49192c-4.49851,-3.91482 -8.08456,-10.17769 -8.08456,-17.21819c0,-5.51752 0.5001,-9.77499 3.74069,-13.44507c8.25281,-4.75537 17.14387,-3.84289 24.41451,-2.69025c5.90497,1.72123 10.66494,8.90341 9.16505,17.13272z" fill="url(#color-2)" stroke="#45413c" stroke-width="2.5" stroke-linecap="butt"/><path d="M232.99204,171.94833c0,1.25 -1.25,1.25 -1.25,1.25l-0.51896,-0.05272c-1.43339,0.25871 -1.29966,1.13801 -2.07999,2.39237c0,0 -0.6625,1.06 -1.7225,0.3975c-1.06,-0.6625 -0.3975,-1.7225 -0.3975,-1.7225c1.22673,-1.95242 1.16524,-2.62411 3.48162,-3.46194l1.23734,-0.05272c0,0 1.25,0 1.25,1.25z" fill="#ffd9c6" stroke="none" stroke-width="0.5" stroke-linecap="butt"/><path d="M243.21056,196.52053c0,1.42031 -1.15139,2.5717 -2.5717,2.5717c-1.42031,0 -2.5717,-1.15139 -2.5717,-2.5717c0,-1.42031 1.15139,-2.5717 2.5717,-2.5717c1.42031,0 2.5717,1.15139 2.5717,2.5717z" fill="url(#color-3)" stroke="#45413c" stroke-width="1.5" stroke-linecap="butt"/><path d="M239.89459,196.64572c0,-0.41421 0.33579,-0.75 0.75,-0.75c0.41421,0 0.75,0.33579 0.75,0.75c0,0.41421 -0.33579,0.75 -0.75,0.75c-0.41421,0 -0.75,-0.33579 -0.75,-0.75z" fill="#45413c" stroke="none" stroke-width="0.5" stroke-linecap="butt"/><path d="M237.76164,196.57541c-8.50669,-1.05899 -14.27411,-4.85179 -14.27411,-4.85179" fill="none" stroke="#45413c" stroke-width="1.5" stroke-linecap="round"/><path d="M257.94985,191.80151c0,0 -5.76742,3.7928 -14.2741,4.85179" data-paper-data="{&quot;index&quot;:null}" fill="none" stroke="#45413c" stroke-width="1.5" stroke-linecap="round"/><path d="M227.70648,177.85578c0,0 -3.40588,-0.4607 -4.28926,-4.14863" fill="none" stroke="#45413c" stroke-width="1.5" stroke-linecap="round"/><path d="M258.22354,174.26968c-1.03611,3.17631 -4.71116,3.93768 -4.71116,3.93768" fill="none" stroke="#45413c" stroke-width="1.5" stroke-linecap="round"/><path d="M253.30143,178.72691c0,3.74751 -5.63518,6.78547 -12.58653,6.78547c-6.95135,0 -12.58653,-3.03796 -12.58653,-6.78547c0,-3.74751 5.63518,-6.78547 12.58653,-6.78547c6.95135,0 12.58653,3.03796 12.58653,6.78547z" fill="#45413c" stroke="#ab5241" stroke-width="1.5" stroke-linecap="butt"/><path d="M229.6988,171.38673c0,-0.41422 0.33578,-0.75 0.75,-0.75c0.41422,0 0.75,0.33578 0.75,0.75c0,0.41422 -0.33578,0.75 -0.75,0.75c-0.41422,0 -0.75,-0.33578 -0.75,-0.75z" fill="#45413c" stroke="none" stroke-width="0.5" stroke-linecap="butt"/><g stroke="#45413c" stroke-width="2.5" stroke-linecap="round"><path d="M241.18965,156.77591c0,0 -6.2432,2.8272 -6.77383,3.01379c-0.53062,0.18659 0.69517,0.0136 -1.54013,-0.09029c-1.75007,-0.08132 -2.99839,-0.55805 -4.39444,-1.22456c-1.39604,-0.66651 -2.68025,-1.45085 -3.05093,-2.33008c-0.37068,-0.87923 0.02216,-0.79614 1.27159,-1.89038c1.24943,-1.09424 2.62112,-1.94615 3.62712,-2.39987c0.64262,-0.28983 1.04776,-0.62807 2.90905,-0.54801c1.86129,0.08006 4.76306,0.87803 4.76306,0.87803c0,0 2.7766,3.45959 2.99932,3.66659" fill="url(#color-4)"/><path d="M239.99586,155.52611l-6.49862,-1.20155" fill="url(#color-5)"/></g><path d="M244.15224,167.05789c0,0.61899 -1.57088,1.12078 -3.50866,1.12078c-1.93777,0 -3.50865,-0.50179 -3.50865,-1.12078c0,-0.61899 1.57088,-1.12078 3.50865,-1.12078c1.93777,0 3.50866,0.50179 3.50866,1.12078z" fill="url(#color-6)" stroke="#45413c" stroke-width="2.5" stroke-linecap="butt"/><g data-paper-data="{&quot;index&quot;:null}" stroke="#45413c" stroke-width="2.5" stroke-linecap="round"><path d="M240.0965,155.96951c0.22272,-0.207 2.99932,-3.66659 2.99932,-3.66659c0,0 2.90177,-0.79797 4.76306,-0.87803c1.86128,-0.08006 2.26642,0.25817 2.90904,0.548c1.006,0.45372 2.37769,1.30563 3.62712,2.39988c1.24943,1.09424 1.64227,1.01115 1.27159,1.89038c-0.37068,0.87923 -1.65489,1.66358 -3.05093,2.33008c-1.39604,0.66652 -2.64436,1.14325 -4.39444,1.22457c-2.2353,0.10388 -1.00951,0.27688 -1.54012,0.09028c-0.53062,-0.18659 -6.77383,-3.01379 -6.77383,-3.01379" fill="url(#color-7)"/><path d="M247.59973,154.44295l-6.49862,1.20155" fill="url(#color-8)"/></g><path d="M236.92328,178.62237c0,1.19199 -0.47287,2.1583 -1.05618,2.1583c-0.58331,0 -1.05619,-0.9663 -1.05619,-2.1583c0,-1.19199 0.47288,-2.1583 1.05619,-2.1583c0.58331,0 1.05618,0.9663 1.05618,2.1583z" fill="url(#color-9)" stroke="none" stroke-width="0" stroke-linecap="butt"/><path d="M246.56673,178.62237c0,1.19199 -0.47287,2.1583 -1.05618,2.1583c-0.58331,0 -1.05619,-0.9663 -1.05619,-2.1583c0,-1.19199 0.47288,-2.1583 1.05619,-2.1583c0.58331,0 1.05618,0.9663 1.05618,2.1583z" fill="url(#color-10)" stroke="none" stroke-width="0" stroke-linecap="butt"/><path d="M242.16642,181.25406c-0.61245,3.03725 -3.21249,0.69019 -3.04731,-0.03543" fill="none" stroke="#ff795e" stroke-width="1" stroke-linecap="round"/><path d="M250.33852,171.25821c0,-0.41421 0.33579,-0.75 0.75,-0.75c0.41421,0 0.75,0.33579 0.75,0.75c0,0.41421 -0.33579,0.75 -0.75,0.75c-0.41421,0 -0.75,-0.33579 -0.75,-0.75z" fill="#45413c" stroke="none" stroke-width="0.5" stroke-linecap="butt"/><g data-paper-data="{&quot;index&quot;:null}" stroke="#45413c" stroke-width="2.5" stroke-linecap="round"><path d="M240.40336,155.85795c-0.0735,-0.25256 -1.75517,-3.80346 -1.75517,-3.80346c0,0 0.69602,-2.42159 1.51846,-3.77729c0.82243,-1.35569 1.31115,-1.48802 1.87155,-1.8108c0.87729,-0.5053 2.27659,-1.08754 3.82832,-1.47224c1.55172,-0.3847 4.36799,1.45914 4.95593,2.12418c0.58794,0.66505 -2.40567,3.46534 -3.17371,4.7428c-0.98097,1.63165 -0.24278,0.84213 -0.6596,1.13277c-0.41682,0.29065 -5.87118,3.42131 -5.87118,3.42131" fill="url(#color-11)"/><path d="M242.6705,149.84198l-2.06863,5.15529" fill="url(#color-12)"/></g></g></g></svg>