<svg version="1.1" xmlns="http://www.w3.org/2000/svg" xmlns:xlink="http://www.w3.org/1999/xlink" width="770.89367" height="770.89367" viewBox="0,0,770.89367,770.89367"><defs><linearGradient x1="236.99701" y1="-212.95431" x2="236.99701" y2="557.93936" gradientUnits="userSpaceOnUse" id="color-1"><stop offset="0" stop-color="#ffe36c"/><stop offset="1" stop-color="#ffc93e"/></linearGradient><linearGradient x1="405.17375" y1="-158.6975" x2="405.17375" y2="167.32942" gradientUnits="userSpaceOnUse" id="color-2"><stop offset="0" stop-color="#ffe36c"/><stop offset="1" stop-color="#ffc93e"/></linearGradient><linearGradient x1="253.17624" y1="-152.35369" x2="253.17624" y2="465.42246" gradientUnits="userSpaceOnUse" id="color-3"><stop offset="0" stop-color="#ffe36c"/><stop offset="1" stop-color="#ffc93e"/></linearGradient><linearGradient x1="121.38405" y1="71.93277" x2="121.38405" y2="503.81444" gradientUnits="userSpaceOnUse" id="color-4"><stop offset="0" stop-color="#ffe36c"/><stop offset="1" stop-color="#ffc93e"/></linearGradient></defs><g transform="translate(148.44983,212.95432)"><g data-paper-data="{&quot;isPaintingLayer&quot;:true}" fill-rule="nonzero" stroke-miterlimit="10" stroke-dasharray="" stroke-dashoffset="0" style="mix-blend-mode: normal"><g stroke="none" stroke-width="1" stroke-linecap="butt" stroke-linejoin="miter"><path d="M236.99692,557.93918c-212.87603,0 -385.44675,-172.57039 -385.44675,-385.44675c0,-212.87603 172.57039,-385.44675 385.44692,-385.44675c212.87636,0 385.44675,172.57039 385.44675,385.44692c0,212.87603 -172.57039,385.44675 -385.44675,385.44675z" fill="url(#color-1)"/><path d="M543.23198,142.37419c-100.36105,-100.36105 -200.71064,-200.71064 -301.0717,-301.0717c178.86656,2.74709 323.29081,147.16004 326.02693,326.02693z" fill="url(#color-2)"/><path d="M391.29507,465.4223c-149.76334,-148.51688 -298.61153,-297.96054 -446.79727,-448.04406c45.85026,-86.25056 128.4602,-149.9841 227.14407,-169.73192l390.21281,390.21281c-19.82495,98.99291 -83.90061,181.81247 -170.55945,227.56333z" fill="url(#color-3)"/><path d="M-45.97041,104.90851c127.04816,128.37192 254.86835,255.97151 383.06356,383.18491c-31.61858,10.02851 -65.15671,15.72102 -100.09607,15.72102c-182.98196,0 -331.32213,-148.34034 -331.32213,-331.32213c0,-35.10493 5.7477,-68.80848 15.86464,-100.55954c10.84474,10.97723 21.63445,22.00932 32.49017,32.97575z" fill="url(#color-4)"/></g><g><path d="M241.18029,442.25431c0,-8.48451 2.37996,-20.6726 15.54575,-23.42387c18.99377,-3.98425 40.72653,15.2487 46.63724,20.90795c-0.43739,2.25191 6.95394,47.68893 6.95394,51.62376c0,13.32251 -3.55942,13.85054 -4.9412,14.06896c-13.00498,1.89343 -47.66436,-34.55181 -63.57296,-55.75654c-0.21869,-1.1508 -0.62277,-3.71232 -0.62277,-7.42026v0v0z" fill="#ffffff" stroke="#ffffff" stroke-width="3.02143" stroke-linecap="butt" stroke-linejoin="miter"/><path d="M188.51685,505.92201c-9.4289,-10.22914 -10.77328,-37.95069 -10.77328,-49.7429c0,-5.00318 0.25555,-8.33189 0.26784,-8.43482l0.01665,-0.25582c0,0 -0.02894,-1.06835 -0.02894,-1.46014c0,-22.2111 20.44572,-29.91585 23.9104,-31.07484c11.8378,0.14416 32.30017,5.74553 37.18376,14.19264c0.49472,0.85375 0.95668,1.92619 0.95668,3.29978c0,1.20431 -0.35875,2.66445 -1.3815,4.42573c-0.47452,0.80843 -8.8804,20.6726 -15.99132,35.90492l-5.08153,14.08561c-3.80296,12.30795 -9.78766,24.62409 -16.30066,24.62409c-5.14733,0.00819 -9.3257,-1.81479 -12.7781,-5.56424v0v0z" fill="#ffffff" stroke="#ffffff" stroke-width="3.02143" stroke-linecap="butt" stroke-linejoin="miter"/><path d="M455.17832,344.92951l-9.19383,-16.22203c-10.06805,-17.53391 -21.69972,-33.58694 -31.95753,-47.71787c-13.18654,-18.202 -24.66122,-37.03524 -28.46008,-50.34109c-1.36922,-4.79295 -0.70932,-9.3672 1.26219,-11.89541c0.18975,-0.68065 2.17792,-1.76538 3.58017,-2.05424c16.89449,-3.65034 86.82755,36.49902 104.27492,57.9552c25.56029,31.43387 35.78096,75.52188 30.08076,97.72888c-2.33873,9.07425 -7.56851,15.50452 -15.14549,18.56513c-19.3528,7.82024 -32.08558,-6.29431 -54.4411,-46.01857v0v0z" fill="#ffffff" stroke="#ffffff" stroke-width="3.02143" stroke-linecap="butt" stroke-linejoin="miter"/><path d="M179.89227,35.09575c24.82613,-13.49178 -0.79587,-64.29483 -25.58486,-113.43161c-13.54939,-26.8678 -37.71152,-72.24695 -29.85824,-76.49931c15.19082,-8.23278 87.76375,77.41093 117.18488,111.92998l29.99011,34.15592c0,0 21.4398,26.30701 37.84749,43.65117c0.28886,0.30497 15.80157,-2.10365 26.51724,-11.0089c8.73597,-7.28812 7.58107,-15.44254 10.36101,-32.59258c2.55333,-15.75625 5.32507,-44.26984 13.78064,-44.414c12.7366,-0.19385 21.10972,52.30441 24.37236,71.75195l1.80251,10.40224c4.2772,23.13092 26.5915,92.67628 27.54818,95.6255c0.30524,0.71778 0.80843,1.64989 0.80843,1.64989l0.18566,0.37541l0.25582,0.31343c34.45707,42.73517 60.08752,94.55278 60.08752,143.09983c0,102.80222 -90.11477,175.16875 -210.73539,175.16875c-22.37218,0 -44.25319,-3.1346 -65.03719,-9.29676l-1.11776,-0.3219c0,0 -32.62589,-2.74281 -74.36316,52.11903c-8.37285,11.01272 -7.6264,21.27899 -19.42679,18.11928c-3.9351,-1.05169 -6.82643,-3.94302 -9.18564,-9.19356c-5.6426,-12.52255 -1.47652,-42.19104 5.41981,-61.14768l1.08473,-2.97815l-2.49135,-1.97151c-0.61048,-0.4868 -68.30365,-49.81306 -75.14237,-120.49694c-5.96013,-61.61373 25.1644,-96.69357 38.07847,-115.97211l7.42026,-12.35737c9.36693,-22.79264 -8.26172,-54.48233 -23.81976,-82.44715c-9.28857,-16.69655 -24.28171,-41.06071 -20.89539,-46.78577c3.75764,-6.34373 17.18744,0.40408 30.74912,6.87585c10.99634,5.25463 21.57604,12.67899 28.92204,7.78311c7.63868,-5.08563 2.62732,-17.86373 -4.31433,-35.54207c-6.52938,-16.60563 -18.89084,-42.83838 -14.14349,-53.66544c1.30751,-2.97788 3.60092,-5.06925 7.01182,-6.39314c12.61319,-4.88359 30.64619,16.36236 45.24318,32.98055c17.80175,20.289 37.99601,43.27958 61.44446,30.51405v0v0z" fill="#ffffff" stroke="#ffffff" stroke-width="3.02143" stroke-linecap="round" stroke-linejoin="round"/><g fill="#ffffff" stroke="none" stroke-width="1.51072" stroke-linecap="butt" stroke-linejoin="miter"><path d="M200.7093,277.63195v0v0c0,-18.55257 15.03847,-33.59922 33.59103,-33.60742c18.54847,0 33.58694,15.05485 33.58694,33.60742c0,18.54028 -15.03437,33.57465 -33.58694,33.57465c-18.54847,0 -33.59103,-15.03437 -33.59103,-33.57465z"/><path d="M238.82518,253.0824c6.52092,0 12.43163,2.64779 16.70883,6.92936c4.2813,4.2772 6.92936,10.18764 6.92936,16.70883c0,6.52092 -2.64807,12.43163 -6.92936,16.70883c-4.2772,4.2813 -10.18791,6.92936 -16.70883,6.92936c-6.52119,0 -12.43163,-2.64807 -16.7091,-6.92936c-4.2813,-4.2772 -6.92936,-10.18791 -6.92936,-16.70883c0,-6.52119 2.64807,-12.43163 6.92936,-16.70883c4.27748,-4.28157 10.18791,-6.92936 16.7091,-6.92936v0z"/></g><g fill="#ffffff" stroke="none" stroke-width="1.51072" stroke-linecap="butt" stroke-linejoin="miter"><path d="M362.52688,277.63195v0v0c0,-18.55257 15.03847,-33.59922 33.59922,-33.60742c18.54847,0 33.58667,15.05485 33.58667,33.60742c0,18.54028 -15.04638,33.57465 -33.58667,33.57465c-18.56076,0 -33.59922,-15.03437 -33.59922,-33.57465z"/><path d="M377.00019,276.7206v0v0c0,-13.0503 10.57561,-23.6382 23.6341,-23.6382c13.0503,0 23.6382,10.59199 23.6382,23.6382c0,13.06259 -10.58789,23.63 -23.6382,23.63c-13.05849,0 -23.6341,-10.5797 -23.6341,-23.63z"/></g><path d="M-31.22672,407.30635c-6.88404,-4.39679 -10.85191,-11.65624 -11.49133,-21.01907c-1.55488,-22.89584 16.56467,-64.3609 47.42929,-90.58519c21.07668,-17.90905 97.17628,-44.58737 113.11381,-37.91765c1.31571,0.5526 3.08108,1.97151 3.1346,2.68929c1.48908,2.83345 1.29113,7.44483 -0.93211,11.90769c-6.16216,12.3904 -20.8872,28.81884 -37.18759,44.28213c-12.67107,12.06032 -27.02889,25.67987 -40.12451,41.09348l-12.0109,14.23004c-29.23138,34.9851 -44.34793,46.55888 -61.93126,35.31928v0v0z" fill="#ffffff" stroke="#ffffff" stroke-width="3.02143" stroke-linecap="butt" stroke-linejoin="miter"/><path d="M301.28446,359.97617v0v0l57.13422,-2.751l-0.59383,4.89997c-0.23098,1.86831 -5.35811,32.65866 -30.50176,32.65866c-5.47742,0 -10.24143,-1.9797 -14.15578,-5.93938c-11.51181,-11.61092 -11.93254,-23.86508 -11.90769,-24.92933l0.02485,-3.93893z" fill="#ffce48" stroke="none" stroke-width="1.51072" stroke-linecap="butt" stroke-linejoin="miter"/></g></g></g></svg>