<svg version="1.1" xmlns="http://www.w3.org/2000/svg" xmlns:xlink="http://www.w3.org/1999/xlink" width="59.43637" height="62.16327" viewBox="0,0,59.43637,62.16327"><defs><linearGradient x1="240.96369" y1="157.75545" x2="259.83402" y2="157.75545" gradientUnits="userSpaceOnUse" id="color-1"><stop offset="0" stop-color="#ffffff"/><stop offset="1" stop-color="#dcdcdc"/></linearGradient><linearGradient x1="244.42463" y1="158.20285" x2="255.118" y2="158.20285" gradientUnits="userSpaceOnUse" id="color-2"><stop offset="0" stop-color="#fea899"/><stop offset="1" stop-color="#fea899" stop-opacity="0"/></linearGradient><radialGradient cx="237.76277" cy="163.55086" r="9.39643" gradientUnits="userSpaceOnUse" id="color-3"><stop offset="0" stop-color="#9ceb60"/><stop offset="1" stop-color="#6dd627"/></radialGradient><radialGradient cx="236.72148" cy="166.04354" r="1.85945" gradientUnits="userSpaceOnUse" id="color-4"><stop offset="0" stop-color="#9ceb60"/><stop offset="1" stop-color="#6dd627"/></radialGradient><linearGradient x1="206.46584" y1="162.4987" x2="232.97811" y2="162.4987" gradientUnits="userSpaceOnUse" id="color-5"><stop offset="0" stop-color="#ffffff"/><stop offset="1" stop-color="#dcdcdc"/></linearGradient><linearGradient x1="221.21613" y1="185.36579" x2="258.78389" y2="185.36579" gradientUnits="userSpaceOnUse" id="color-6"><stop offset="0" stop-color="#ffffff"/><stop offset="1" stop-color="#d8d8d8"/></linearGradient><linearGradient x1="251.97993" y1="181.11574" x2="251.97993" y2="188.52382" gradientUnits="userSpaceOnUse" id="color-7"><stop offset="0" stop-color="#c9c9c9"/><stop offset="1" stop-color="#000000"/></linearGradient><linearGradient x1="255.25" y1="185.99492" x2="255.25" y2="189.99192" gradientUnits="userSpaceOnUse" id="color-8"><stop offset="0" stop-color="#c9c9c9"/><stop offset="1" stop-color="#000000"/></linearGradient><linearGradient x1="253.97361" y1="190.50854" x2="253.97361" y2="192.04416" gradientUnits="userSpaceOnUse" id="color-9"><stop offset="0" stop-color="#c9c9c9"/><stop offset="1" stop-color="#000000"/></linearGradient><linearGradient x1="228.02008" y1="181.15267" x2="228.02008" y2="188.56075" gradientUnits="userSpaceOnUse" id="color-10"><stop offset="0" stop-color="#c9c9c9"/><stop offset="1" stop-color="#000000"/></linearGradient><linearGradient x1="224.75001" y1="186.03185" x2="224.75001" y2="190.02885" gradientUnits="userSpaceOnUse" id="color-11"><stop offset="0" stop-color="#c9c9c9"/><stop offset="1" stop-color="#000000"/></linearGradient><linearGradient x1="226.0264" y1="190.54547" x2="226.0264" y2="192.08108" gradientUnits="userSpaceOnUse" id="color-12"><stop offset="0" stop-color="#c9c9c9"/><stop offset="1" stop-color="#000000"/></linearGradient></defs><g transform="translate(-205.29843,-142.03527)"><g data-paper-data="{&quot;isPaintingLayer&quot;:true}" fill-rule="nonzero" stroke-linejoin="miter" stroke-miterlimit="10" stroke-dasharray="" stroke-dashoffset="0" style="mix-blend-mode: normal"><path d="M242.61206,170.38033l-0.50054,-1.40153l0.02061,-8.67752c-1.02232,-2.25984 -1.16844,-6.86477 -1.16844,-6.86477c0.20912,-2.21232 0.93366,-8.16446 4.90715,-9.92665c5.56289,-2.46706 11.72647,-0.22401 11.72647,-0.22401c0.29735,-0.07317 8.51364,6.7852 -8.54402,29.87289" fill="url(#color-1)" stroke="#c9c9c9" stroke-width="2.5" stroke-linecap="round"/><path d="M252.88291,159.12626c-2.13019,5.22348 -4.90819,10.81971 -6.65784,10.62772c-1.82951,-0.20075 -1.53006,-8.95647 -1.77818,-14.59761c-0.24788,-5.63569 1.56323,-8.87009 5.91348,-8.47736c7.08959,0.64003 4.75559,6.97153 2.52253,12.44726z" fill="url(#color-2)" stroke="none" stroke-width="1" stroke-linecap="butt"/><g stroke="#c9c9c9" stroke-linecap="round"><path d="M241.85358,168.73447l-3.17346,0.90643c0,0 -5.83213,-0.58581 -6.29734,-0.67982c-0.46521,-0.094 0.46304,0.33563 -0.99171,-0.79312c-1.13897,-0.88372 -1.71378,-1.85885 -2.28093,-3.05919c-0.56715,-1.20033 -0.9917,-2.4455 -0.74378,-3.34245c0.24792,-0.89695 0.46679,-0.6452 1.93383,-0.96308c1.46704,-0.31788 2.87935,-0.37917 3.81807,-0.28326c0.59964,0.06127 1.06594,-0.02816 2.28093,0.90643c1.215,0.93459 2.7272,2.94589 2.7272,2.94589c0,0 -0.08295,4.14445 -0.04959,4.41884c0.03336,0.27439 0.42333,0.91568 0.54544,-0.33991c0.12211,-1.25559 -0.48475,-1.32034 -0.19834,-3.22915c0.28641,-1.90881 0.57307,-3.21817 1.38839,-4.70209c0.81532,-1.48392 2.21008,-2.67881 2.87595,-3.05919c0.66586,-0.38038 0.89481,-0.82282 1.88424,0.33991c0.98942,1.16273 1.47419,3.29925 1.58673,3.73902c0.11254,0.43977 0.55894,0.63197 -0.3471,1.10503c-0.90604,0.47306 -1.52892,-0.2966 -2.52885,0.39656c-0.99994,0.69316 -1.20594,1.46401 -1.73549,2.66263c-0.52955,1.19862 -0.89254,3.2858 -0.89254,3.2858" fill="url(#color-3)" stroke-width="2"/><path d="M234.86203,164.03241l3.7189,4.02227" fill="url(#color-4)" stroke-width="2.5"/></g><path d="M225.50646,169.7844l0.57786,-3.55346l-1.73642,-3.33748l-1.97378,-3.05039l-1.86611,2.33265l0.07178,0.28709l0.96894,3.2657l0.57418,3.19393l-0.2512,3.44513l-1.61491,0.89717l-4.45837,0.21533l-5.63423,-0.5383c0,0 -1.70015,-0.09714 -3.48,-5.59835c-0.3841,-1.18716 -0.14458,-3.19393 -0.14458,-3.19393l1.76247,-3.44513c0,0 5.98047,-7.56435 8.09713,-8.23758c2.00816,-0.63872 5.61165,-0.94946 5.61165,-0.94946l1.6592,0.03589l2.73691,2.10196l1.5909,1.93675l3.79413,13.0365" fill="url(#color-5)" stroke="#c9c9c9" stroke-width="2.5" stroke-linecap="round"/><path d="M258.53639,184.66037c-1.19452,6.55389 -1.19574,10.12271 -7.13737,15.58914c-6.36023,5.85155 -7.40433,0.13973 -11.6684,0.13973c-3.83815,0 -4.77286,5.41496 -10.42993,0.49192c-4.49851,-3.91482 -8.08456,-10.17769 -8.08456,-17.21819c0,-5.51752 0.57637,-9.77499 3.81696,-13.44507c1.23551,-1.39926 3.48194,-3.19699 4.80594,-2.4851c2.74798,1.47753 4.65416,1.90427 7.96388,1.90427c2.64887,0 -1.57541,0.93307 9.73782,-2.33824c6.97282,-2.01625 12.49554,9.13223 10.99565,17.36154z" fill="url(#color-6)" stroke="#c9c9c9" stroke-width="2.5" stroke-linecap="butt"/><path d="M232.1738,172.35208c0,1.25 -1.25,1.25 -1.25,1.25l-0.51896,-0.05272c-1.43339,0.25871 -1.29966,1.13801 -2.07999,2.39237c0,0 -0.6625,1.06 -1.7225,0.3975c-1.06,-0.6625 -0.3975,-1.7225 -0.3975,-1.7225c1.22673,-1.95242 1.16524,-2.62411 3.48162,-3.46194l1.23734,-0.05272c0,0 1.25,0 1.25,1.25z" fill-opacity="0.49717" fill="#dadada" stroke="none" stroke-width="0.5" stroke-linecap="butt"/><path d="M237.32322,189.18415c-0.31631,-0.61257 1.17,-1.27934 1.76179,-1.28129c0.94295,-0.0031 0.6621,0.03678 1.74176,0.06006c0.68625,0.01479 1.81221,0.50831 1.70172,0.92093c-0.43795,1.63562 -2.62266,2.52255 -2.62266,2.52255c0,0 -2.10078,-1.28912 -2.58262,-2.22225z" fill="#2a303c" stroke="#000000" stroke-width="1" stroke-linecap="round"/><g fill="none" stroke-width="1" stroke-linecap="round"><path d="M245.04737,188.52382c3.375,-5.06101 9.63827,-7.19582 13.86512,-7.40808" stroke="url(#color-7)"/><path d="M246.2652,189.99192c6.0279,-4.81074 14.69379,-4.74314 17.9696,-2.60284" stroke="url(#color-8)"/><path d="M246.86586,192.04416c2.27381,-1.40703 10.68942,-2.44063 14.21551,-0.35038" data-paper-data="{&quot;index&quot;:null}" stroke="url(#color-9)"/><path d="M221.08752,181.15267c4.22685,0.21226 10.49012,2.34707 13.86512,7.40808" data-paper-data="{&quot;index&quot;:null}" stroke="url(#color-10)"/><path d="M215.76521,187.42601c3.27581,-2.14031 11.94171,-2.2079 17.9696,2.60284" data-paper-data="{&quot;index&quot;:null}" stroke="url(#color-11)"/><path d="M218.91865,191.7307c3.52608,-2.09025 11.94171,-1.05664 14.21551,0.35038" data-paper-data="{&quot;index&quot;:null}" stroke="url(#color-12)"/></g><g fill="#f96a42" stroke="none" stroke-width="1" stroke-linecap="butt"><path d="M236.41299,190.78023c0,-0.24508 0.19868,-0.44375 0.44376,-0.44375c0.24508,0 0.44376,0.19867 0.44376,0.44375c0,0.24508 -0.19868,0.44376 -0.44376,0.44376c-0.24508,0 -0.44376,-0.19868 -0.44376,-0.44376z"/><path d="M236.18144,193.11029c0,-0.24508 0.19868,-0.44376 0.44376,-0.44376c0.24508,0 0.44376,0.19868 0.44376,0.44376c0,0.24508 -0.19868,0.44376 -0.44376,0.44376c-0.24508,0 -0.44376,-0.19868 -0.44376,-0.44376z"/><path d="M242.92937,193.11029c0,-0.24508 0.19868,-0.44376 0.44376,-0.44376c0.24508,0 0.44376,0.19868 0.44376,0.44376c0,0.24508 -0.19868,0.44376 -0.44376,0.44376c-0.24508,0 -0.44376,-0.19868 -0.44376,-0.44376z"/><path d="M242.7309,190.79483c0,-0.24508 0.19868,-0.44376 0.44376,-0.44376c0.24508,0 0.44376,0.19868 0.44376,0.44376c0,0.24508 -0.19868,0.44376 -0.44376,0.44376c-0.24508,0 -0.44376,-0.19868 -0.44376,-0.44376z"/><path d="M244.8479,191.7541c0,-0.24508 0.19868,-0.44376 0.44376,-0.44376c0.24508,0 0.44375,0.19868 0.44375,0.44376c0,0.24508 -0.19867,0.44376 -0.44375,0.44376c-0.24508,0 -0.44376,-0.19868 -0.44376,-0.44376z"/><path d="M234.32907,191.72102c0,-0.24508 0.19868,-0.44376 0.44376,-0.44376c0.24508,0 0.44376,0.19868 0.44376,0.44376c0,0.24508 -0.19868,0.44376 -0.44376,0.44376c-0.24508,0 -0.44376,-0.19868 -0.44376,-0.44376z"/></g></g></g></svg>