<svg version="1.1" xmlns="http://www.w3.org/2000/svg" xmlns:xlink="http://www.w3.org/1999/xlink" width="770.89367" height="770.89367" viewBox="0,0,770.89367,770.89367"><defs><linearGradient x1="236.99701" y1="-212.95431" x2="236.99701" y2="557.93936" gradientUnits="userSpaceOnUse" id="color-1"><stop offset="0" stop-color="#6bff8d"/><stop offset="1" stop-color="#9efcff"/></linearGradient><linearGradient x1="405.17375" y1="-158.6975" x2="405.17375" y2="167.32942" gradientUnits="userSpaceOnUse" id="color-2"><stop offset="0" stop-color="#6bff8d"/><stop offset="1" stop-color="#9efcff"/></linearGradient><linearGradient x1="253.17624" y1="-152.35368" x2="253.17624" y2="465.42246" gradientUnits="userSpaceOnUse" id="color-3"><stop offset="0" stop-color="#6bff8d"/><stop offset="1" stop-color="#9efcff"/></linearGradient><linearGradient x1="121.38405" y1="71.93278" x2="121.38405" y2="503.81445" gradientUnits="userSpaceOnUse" id="color-4"><stop offset="0" stop-color="#6bff8d"/><stop offset="1" stop-color="#9efcff"/></linearGradient></defs><g transform="translate(148.44983,212.95432)"><g data-paper-data="{&quot;isPaintingLayer&quot;:true}" fill-rule="nonzero" stroke-linejoin="miter" stroke-miterlimit="10" stroke-dasharray="" stroke-dashoffset="0" style="mix-blend-mode: normal"><g stroke="none" stroke-width="1" stroke-linecap="butt"><path d="M236.99692,557.93918c-212.87603,0 -385.44675,-172.57039 -385.44675,-385.44675c0,-212.87603 172.57039,-385.44675 385.44692,-385.44675c212.87636,0 385.44675,172.57039 385.44675,385.44692c0,212.87603 -172.57039,385.44675 -385.44675,385.44675z" fill="url(#color-1)"/><path d="M543.23198,142.37419c-100.36105,-100.36105 -200.71064,-200.71064 -301.0717,-301.0717c178.86656,2.74709 323.29081,147.16004 326.02693,326.02693z" fill="url(#color-2)"/><path d="M391.29507,465.42231c-149.76334,-148.51688 -298.61153,-297.96054 -446.79727,-448.04406c45.85026,-86.25056 128.4602,-149.9841 227.14407,-169.73192l390.21281,390.21281c-19.82495,98.99291 -83.90061,181.81247 -170.55945,227.56333z" fill="url(#color-3)"/><path d="M-45.97041,104.90852c127.04816,128.37192 254.86835,255.97151 383.06356,383.18491c-31.61858,10.02851 -65.15671,15.72102 -100.09607,15.72102c-182.98196,0 -331.32213,-148.34034 -331.32213,-331.32213c0,-35.10493 5.7477,-68.80848 15.86464,-100.55954c10.84474,10.97723 21.63445,22.00932 32.49017,32.97575z" fill="url(#color-4)"/></g><path d="M92.24665,-24.34082c20.32543,-63.7328 50.60829,-111.54642 159.77738,-117.8676c90.36925,-5.23264 137.32248,72.80216 135.6881,131.86062c-2.82498,102.08279 -108.27859,124.51974 -143.77554,172.75467c-28.66633,38.95323 -23.47019,82.06914 -25.40478,113.99573" fill="none" stroke="#ffffff" stroke-width="50" stroke-linecap="round"/><path d="M143.40099,452.88527c0,-42.37767 34.35392,-76.73159 76.73159,-76.73159c42.37767,0 76.73159,34.35392 76.73159,76.73159c0,42.37767 -34.35392,76.73159 -76.73159,76.73159c-42.37767,0 -76.73159,-34.35392 -76.73159,-76.73159z" fill="#ffffff" stroke="none" stroke-width="0" stroke-linecap="butt"/></g></g></svg>