<svg version="1.1" xmlns="http://www.w3.org/2000/svg" xmlns:xlink="http://www.w3.org/1999/xlink" width="770.89367" height="770.89367" viewBox="0,0,770.89367,770.89367"><g transform="translate(148.44983,212.95432)"><g data-paper-data="{&quot;isPaintingLayer&quot;:true}" fill-rule="nonzero" stroke="none" stroke-width="1" stroke-linecap="butt" stroke-linejoin="miter" stroke-miterlimit="10" stroke-dasharray="" stroke-dashoffset="0" style="mix-blend-mode: normal"><g fill="#a3daff"><path d="M236.99692,557.93918c-212.87603,0 -385.44675,-172.57039 -385.44675,-385.44675c0,-212.87603 172.57039,-385.44675 385.44692,-385.44675c212.87636,0 385.44675,172.57039 385.44675,385.44692c0,212.87603 -172.57039,385.44675 -385.44675,385.44675z"/><path d="M543.23198,142.37419c-100.36105,-100.36105 -200.71064,-200.71064 -301.0717,-301.0717c178.86656,2.74709 323.29081,147.16004 326.02693,326.02693z"/><path d="M391.29507,465.4223c-149.76334,-148.51688 -298.61153,-297.96054 -446.79727,-448.04406c45.85026,-86.25056 128.4602,-149.9841 227.14407,-169.73192l390.21281,390.21281c-19.82495,98.99291 -83.90061,181.81247 -170.55945,227.56333z"/><path d="M-45.97041,104.90851c127.04816,128.37192 254.86835,255.97151 383.06356,383.18491c-31.61858,10.02851 -65.15671,15.72102 -100.09607,15.72102c-182.98196,0 -331.32213,-148.34034 -331.32213,-331.32213c0,-35.10493 5.7477,-68.80848 15.86464,-100.55954c10.84474,10.97723 21.63445,22.00932 32.49017,32.97575z"/></g><g><path d="M-48.33054,176.08343c0.76934,-4.00057 1.77872,-8.01345 3.01582,-12.02018c1.84642,-6.80097 3.84055,-13.59579 6.15473,-20.39061c48.46231,-142.08186 180.40118,-225.65688 294.70676,-186.66054c114.29942,38.98404 167.43933,186.52513 118.98317,328.58852c-1.72948,5.07149 -3.53897,9.72447 -5.82237,15.65762h0.02462l0.25234,-0.73241l-0.51084,1.48944l-1.79718,5.26845l0.20926,0.0677c-11.90324,41.60595 2.54806,83.2796 33.77714,98.37714c-2.29571,-0.48622 -4.56065,-1.09554 -6.80713,-1.84642l-399.60791,-136.29641c-32.33078,-11.02311 -49.62556,-48.59772 -43.13848,-88.6219l-0.14771,-0.03693c0.20926,-0.95398 0.48622,-1.89566 0.70779,-2.84348" fill="#b1862b"/><path d="M350.80345,-0.42181c33.15551,25.42517 57.73133,62.14427 71.8872,105.12888l-256.17202,-87.37249c-11.95863,-4.08674 -19.15966,-16.57468 -19.23352,-30.93365c30.33665,-15.55299 62.69204,-23.92958 94.96127,-23.84956l108.55706,37.02683" fill="#78c089"/><path d="M420.11798,97.11215c5.92085,16.2731 10.27224,33.5371 13.02956,51.46582l-329.78254,-112.47762c-5.26845,-1.79718 -8.88127,-6.42553 -10.37687,-12.1802c11.1339,-9.90295 22.81557,-18.78422 34.95269,-26.46532l292.17716,99.65733" fill="#bf5032"/><path d="M433.36295,149.96278c1.88335,12.64181 2.94811,25.62213 3.16968,38.83017c-6.50555,10.14914 -17.46096,15.44221 -27.25928,12.10019l-353.42284,-120.54647c-3.2497,-1.10785 -5.98239,-3.08967 -8.21656,-5.62542c11.64474,-16.42696 24.59429,-31.30294 38.49166,-44.49867l341.62423,116.50897c2.09876,0.7201 3.91441,1.8895 5.61311,3.23123" fill="#dbbeaf"/><path d="M415.0711,309.99182c-21.46769,35.43891 -59.20847,54.06927 -92.69018,42.65225l-314.69115,-107.32612c-14.50669,-4.96071 -26.16374,-14.89444 -34.39876,-27.88091c9.92757,-9.55214 18.31647,-21.80004 24.0219,-36.12824l-0.20311,-0.0677l1.80333,-5.26229l0.2585,-0.75088l0.43083,0.1354c1.79718,-6.09318 3.23123,-10.8754 4.96071,-15.93459c12.50025,-36.68832 30.64438,-69.49301 52.57983,-97.35546c4.08058,0.52931 8.13655,1.34789 12.12481,2.70808l314.69115,107.33843c29.48729,10.03836 47.34215,40.55349 48.03148,75.79545c-2.95427,17.23939 -7.33028,34.63264 -13.23882,51.94589c-1.1694,3.40972 -2.39419,6.78866 -3.68053,10.13068" fill="#493023"/><path d="M499.80937,363.03939c-0.40621,0.88013 -0.76934,1.80949 -1.1694,2.68962l-0.16618,-0.04308c-19.29507,35.6174 -55.95877,54.79553 -88.27724,43.77857l-399.62022,-136.30257c-2.25263,-0.76934 -4.41909,-1.68024 -6.5117,-2.69577c33.93101,7.14564 70.8409,-17.04244 86.84934,-57.22664l-0.20311,-0.08001l1.79718,-5.26229l0.517,-1.50791l-0.2585,0.76319l0.43083,0.14156c1.80333,-6.09318 3.23123,-10.88771 4.96071,-15.95305c48.45616,-142.0757 180.65968,-226.38929 294.97141,-187.40526c114.30558,38.98404 167.67936,185.76195 119.2232,327.83765c-2.31418,6.79482 -4.89301,13.38653 -7.58878,19.89208c-1.45252,3.94518 -3.10814,7.74265 -4.95455,11.37393" fill="#eabc33"/><path d="M396.73002,254.84547c12.24175,4.1729 17.97796,19.90438 12.78952,35.13118c-5.21305,15.2391 -19.36277,24.20654 -31.61067,20.02132c-12.25406,-4.17906 -17.97796,-19.91669 -12.78337,-35.14964c5.20074,-15.23295 19.35046,-24.18192 31.60452,-20.00286" fill="#d0a131"/><path d="M194.09797,191.3287c14.93137,5.08996 21.89852,24.25578 15.5653,42.82459c-6.31475,18.54419 -23.54798,29.45652 -38.4855,24.36656c-14.92521,-5.08996 -21.89852,-24.26809 -15.57146,-42.81228c6.33321,-18.5565 23.56645,-29.48114 38.49166,-24.37887" fill="#d0a131"/><path d="M284.00621,117.86588c6.89945,2.35111 10.13068,11.22622 7.20103,19.81206c-2.9358,8.58584 -10.91233,13.63887 -17.81793,11.28161c-6.89945,-2.35726 -10.13068,-11.23238 -7.20718,-19.81206c2.94196,-8.58584 10.91848,-13.63272 17.82409,-11.28161" fill="#d0a131"/><path d="M413.25546,98.12768c15.81149,5.39769 23.20332,25.70829 16.48851,45.38495c-6.7025,19.66435 -24.96357,31.22293 -40.77506,25.82523c-15.83611,-5.39769 -23.22794,-25.7206 -16.52544,-45.3788c6.70865,-19.66435 24.98819,-31.22293 40.81199,-25.83139" fill="#d0a131"/><path d="M453.85203,190.35625c3.78516,1.28018 5.55772,6.15473 3.95133,10.86925c-1.60023,4.70221 -5.98239,7.47184 -9.76755,6.17319c-3.79131,-1.28634 -5.56387,-6.15473 -3.95749,-10.86925c1.60023,-4.70221 5.98239,-7.47799 9.77371,-6.17319" fill="#d0a131"/></g></g></g></svg>