<svg version="1.1" xmlns="http://www.w3.org/2000/svg" xmlns:xlink="http://www.w3.org/1999/xlink" width="234.92414" height="281.84712" viewBox="0,0,234.92414,281.84712"><defs><linearGradient x1="375" y1="58.35822" x2="375" y2="299.65851" gradientUnits="userSpaceOnUse" id="color-1"><stop offset="0" stop-color="#00b3b2"/><stop offset="1" stop-color="#353535"/></linearGradient><radialGradient cx="240" cy="298.99741" r="38.70792" gradientUnits="userSpaceOnUse" id="color-2"><stop offset="0" stop-color="#fff900"/><stop offset="1" stop-color="#fff900" stop-opacity="0"/></radialGradient><linearGradient x1="208.43293" y1="293.96801" x2="208.43293" y2="310.66279" gradientUnits="userSpaceOnUse" id="color-3"><stop offset="0" stop-color="#ea3526"/><stop offset="1" stop-color="#ca2128"/></linearGradient><linearGradient x1="221.44103" y1="284.13307" x2="221.44103" y2="300.72516" gradientUnits="userSpaceOnUse" id="color-4"><stop offset="0" stop-color="#ea3526"/><stop offset="1" stop-color="#ca2128"/></linearGradient><linearGradient x1="215.12293" y1="292.16062" x2="215.12293" y2="306.21759" gradientUnits="userSpaceOnUse" id="color-5"><stop offset="0" stop-color="#fbf4e9"/><stop offset="1" stop-color="#eae1d7"/></linearGradient><linearGradient x1="216.92202" y1="287.22015" x2="216.92202" y2="303.9289" gradientUnits="userSpaceOnUse" id="color-6"><stop offset="0" stop-color="#fbf4e9"/><stop offset="1" stop-color="#eae1d7"/></linearGradient><linearGradient x1="227.70314" y1="302.51012" x2="252.29687" y2="302.51012" gradientUnits="userSpaceOnUse" id="color-7"><stop offset="0" stop-color="#ff866e"/><stop offset="1" stop-color="#ff6242"/></linearGradient><radialGradient cx="238.53539" cy="288.22899" r="6.15137" gradientUnits="userSpaceOnUse" id="color-8"><stop offset="0" stop-color="#9ceb60"/><stop offset="1" stop-color="#6dd627"/></radialGradient><radialGradient cx="237.85371" cy="289.86082" r="1.21729" gradientUnits="userSpaceOnUse" id="color-9"><stop offset="0" stop-color="#9ceb60"/><stop offset="1" stop-color="#6dd627"/></radialGradient></defs><g transform="translate(-201.29208,-55.85821)"><g stroke-miterlimit="10"><path d="M316.28378,299.65851v-241.3003h117.43244v241.3003z" fill="url(#color-1)" stroke="#000000" stroke-width="5" stroke-linecap="butt"/><text transform="translate(325.47781,94.4151) rotate(70.66086) scale(1.09353,1.11862) skewX(-1.03329)" font-size="40" xml:space="preserve" fill="#ffffff" stroke="none" stroke-width="1" stroke-linecap="butt" font-family="Pixel" font-weight="normal" text-anchor="start"><tspan x="0" dy="0">Ajustes</tspan></text><g><path d="M201.29208,298.99741c0,-21.37779 17.33013,-38.70792 38.70792,-38.70792c21.37779,0 38.70792,17.33013 38.70792,38.70792c0,21.37779 -17.33013,38.70792 -38.70792,38.70792c-21.37779,0 -38.70792,-17.33013 -38.70792,-38.70792z" fill="url(#color-2)" stroke="none" stroke-width="0" stroke-linecap="butt"/><g><path d="M208.93646,310.66224c0.07313,-1.23876 -2.60243,-6.29041 -2.59786,-6.33697c0.29586,-3.01639 -1.54502,-5.22082 -3.92116,-5.96578c-0.09717,-0.03132 1.53591,-3.24713 7.43453,-4.36982c3.24784,-0.61816 4.79476,12.19799 4.581,12.19886c-1.57234,0.00637 -5.49994,4.53182 -5.49651,4.47371z" fill="url(#color-3)" stroke="#303a44" stroke-width="0.6" stroke-linecap="butt"/><path d="M232.43782,315.586c0,0 -0.07746,0.32692 -0.1743,0.39269c-0.11712,0.07954 -0.4792,0.05116 -0.4792,0.05116c0,0 -1.26437,-4.61701 -2.29476,-8.01715c-1.80161,-5.94509 -7.56231,-24.50996 -7.56231,-24.50996l0.71635,-0.24253c0,0 5.75289,18.27648 7.54589,24.19426c1.03749,3.42422 2.24833,8.13154 2.24833,8.13154z" fill="#d5d9e0" stroke="#2d3842" stroke-width="0.6" stroke-linecap="round"/><path d="M222.8218,282.74527c0,0.43842 -0.34874,0.79382 -0.77894,0.79382c-0.4302,0 -0.77894,-0.35541 -0.77894,-0.79382c0,-0.43842 0.34874,-0.79382 0.77894,-0.79382c0.4302,0 0.77894,0.35541 0.77894,0.79382z" fill="#d5d9e0" stroke="#2d3842" stroke-width="0.6" stroke-linecap="butt"/><path d="M222.54396,282.60927c0,0.1989 -0.1666,0.36014 -0.3721,0.36014c-0.20551,0 -0.3721,-0.16124 -0.3721,-0.36014c0,-0.1989 0.1666,-0.36014 0.3721,-0.36014c0.20551,0 0.3721,0.16124 0.3721,0.36014z" fill="#eef0f3" stroke="#2d3842" stroke-width="0" stroke-linecap="butt"/><path d="M221.00371,300.72514c-1.5355,-1.43317 -3.94839,-8.71832 -4.91041,-13.46365c-0.06837,-0.33724 3.17596,0.06245 6.08883,-3.12581c0.15373,-0.16827 0.27449,7.84813 4.60768,14.85926c-3.08506,0.31165 -5.77855,1.73725 -5.7861,1.7302z" fill="url(#color-4)" stroke="#303a44" stroke-width="0.6" stroke-linecap="butt"/><path d="M214.364,306.21748c-0.08264,0.02674 -3.67803,-5.13437 -4.50339,-12.19046c-0.00127,-0.01086 2.06137,-0.09374 3.63033,-1.80764c0.92924,-1.01508 6.89726,11.45756 6.89431,11.47054c-0.47004,2.06918 -4.31166,1.97449 -6.02125,2.52756z" fill="url(#color-5)" stroke="#303a44" stroke-width="0.6" stroke-linecap="butt"/><path d="M220.39879,303.67928c0.07515,0.07698 -2.64696,3.04524 -7.59369,-13.70764c-0.04626,-0.1767 0.42195,-1.86496 3.19565,-2.74731c0.87301,-0.27772 5.04115,13.39254 5.04115,13.39254c0,0 -1.28033,0.834 -1.34056,0.90962c-0.18974,0.23823 0.25924,1.70395 0.69744,2.1528z" fill="url(#color-6)" stroke="#303a44" stroke-width="0.6" stroke-linecap="butt"/><path d="M218.66552,303.31747c0,0 -0.28047,-0.44557 -0.1941,-0.72575c0.1675,-0.54333 1.17302,-0.9958 1.17302,-0.9958" fill="none" stroke="#303a44" stroke-width="0.6" stroke-linecap="round"/></g><g><path d="M252.13483,302.04832c-0.78199,4.2905 -0.78279,6.62683 -4.67248,10.20542c-4.16372,3.83071 -4.84724,0.09147 -7.63871,0.09147c-2.51264,0 -3.12455,3.5449 -6.82795,0.32204c-2.94495,-2.56283 -5.29255,-6.66282 -5.29255,-11.27188c0,-3.61204 0.37732,-6.39919 2.49877,-8.80181c0.80883,-0.91602 2.27945,-2.09291 3.14621,-1.62687c1.79896,0.96726 3.04684,1.24663 5.21355,1.24663c1.73408,0 -1.03134,0.61083 6.37486,-1.53073c4.56475,-1.31994 8.1802,5.97841 7.1983,11.36572z" fill="url(#color-7)" stroke="#45413c" stroke-width="2.5" stroke-linecap="butt"/><g stroke="#45413c" stroke-width="2.5" stroke-linecap="round"><path d="M241.21344,291.62243l-2.0775,0.59339c0,0 -3.818,-0.3835 -4.12255,-0.44504c-0.30455,-0.06154 0.30313,0.21972 -0.64922,-0.51922c-0.74563,-0.57853 -1.12193,-1.21689 -1.49321,-2.0027c-0.37128,-0.7858 -0.64922,-1.60094 -0.48692,-2.18813c0.1623,-0.58719 0.30558,-0.42238 1.26598,-0.63048c0.9604,-0.2081 1.88496,-0.24822 2.4995,-0.18544c0.39255,0.04011 0.69782,-0.01843 1.49321,0.59339c0.7954,0.61183 1.78536,1.92853 1.78536,1.92853c0,0 -0.0543,2.71316 -0.03246,2.89279c0.02184,0.17963 0.27713,0.59945 0.35707,-0.22252c0.07994,-0.82197 -0.31734,-0.86436 -0.12984,-2.11396c0.1875,-1.2496 0.37516,-2.10677 0.90891,-3.07822c0.53375,-0.97145 1.44683,-1.75368 1.88274,-2.0027c0.4359,-0.24902 0.58579,-0.53866 1.23352,0.22252c0.64772,0.76118 0.96508,2.15985 1.03875,2.44775c0.07367,0.28789 0.36591,0.41372 -0.22723,0.72341c-0.59314,0.30969 -1.00091,-0.19417 -1.65551,0.25961c-0.65461,0.45378 -0.78947,0.95841 -1.13614,1.74309c-0.34667,0.78468 -0.5843,2.15105 -0.5843,2.15105" fill="url(#color-8)"/><path d="M239.071,291.17741l-2.43458,-2.63318" fill="url(#color-9)"/></g><path d="M234.87657,294.0835c0,0.81831 -0.81831,0.81831 -0.81831,0.81831l-0.33974,-0.03451c-0.93837,0.16936 -0.85082,0.745 -1.36166,1.56616c0,0 -0.43371,0.69393 -1.12763,0.26022c-0.69393,-0.43371 -0.26022,-1.12763 -0.26022,-1.12763c0.80308,-1.27815 0.76282,-1.71787 2.27924,-2.26636l0.81002,-0.03451c0,0 0.81831,0 0.81831,0.81831z" fill="#ffd9c6" stroke="none" stroke-width="0.5" stroke-linecap="butt"/></g><text transform="translate(229.89136,305.05481) scale(0.25388,0.25388)" font-size="40" xml:space="preserve" fill="#000000" stroke="#000000" stroke-width="4" stroke-linecap="butt" font-family="Handwriting" font-weight="normal" text-anchor="start"><tspan x="0" dy="0">.GO</tspan></text><text transform="translate(230.13559,323.78033) scale(0.32881,0.32881)" font-size="40" xml:space="preserve" fill="#000000" stroke="#000000" stroke-width="4" stroke-linecap="butt" font-family="Handwriting" font-weight="normal" text-anchor="start"><tspan x="0" dy="0">LM</tspan></text><g fill="#000000" stroke-linecap="butt"><text transform="translate(228.30527,284.18974) scale(0.32881,0.32881)" font-size="40" xml:space="preserve" fill="#000000" stroke="#000000" stroke-width="4" font-family="Handwriting" font-weight="normal" text-anchor="start"><tspan x="0" dy="0">ATP</tspan></text><path d="M253.57888,277.41793c0,-0.27705 0.22459,-0.50164 0.50164,-0.50164c0.27705,0 0.50164,0.22459 0.50164,0.50164c0,0.27705 -0.22459,0.50164 -0.50164,0.50164c-0.27705,0 -0.50164,-0.22459 -0.50164,-0.50164z" stroke="none" stroke-width="0.5"/></g></g></g></g></svg>