<svg version="1.1" xmlns="http://www.w3.org/2000/svg" xmlns:xlink="http://www.w3.org/1999/xlink" width="770.89367" height="770.89367" viewBox="0,0,770.89367,770.89367"><g transform="translate(148.44983,212.95432)"><g data-paper-data="{&quot;isPaintingLayer&quot;:true}" stroke="none" stroke-miterlimit="10" stroke-dasharray="" stroke-dashoffset="0" style="mix-blend-mode: normal"><g fill="#ff9191" fill-rule="nonzero" stroke-width="1" stroke-linecap="butt" stroke-linejoin="miter"><path d="M236.99692,557.93918c-212.87603,0 -385.44675,-172.57039 -385.44675,-385.44675c0,-212.87603 172.57039,-385.44675 385.44692,-385.44675c212.87636,0 385.44675,172.57039 385.44675,385.44692c0,212.87603 -172.57039,385.44675 -385.44675,385.44675z"/><path d="M543.23198,142.37419c-100.36105,-100.36105 -200.71064,-200.71064 -301.0717,-301.0717c178.86656,2.74709 323.29081,147.16004 326.02693,326.02693z"/><path d="M391.29507,465.4223c-149.76334,-148.51688 -298.61153,-297.96054 -446.79727,-448.04406c45.85026,-86.25056 128.4602,-149.9841 227.14407,-169.73192l390.21281,390.21281c-19.82495,98.99291 -83.90061,181.81247 -170.55945,227.56333z"/><path d="M-45.97041,104.90851c127.04816,128.37192 254.86835,255.97151 383.06356,383.18491c-31.61858,10.02851 -65.15671,15.72102 -100.09607,15.72102c-182.98196,0 -331.32213,-148.34034 -331.32213,-331.32213c0,-35.10493 5.7477,-68.80848 15.86464,-100.55954c10.84474,10.97723 21.63445,22.00932 32.49017,32.97575z"/></g><g fill-rule="nonzero" stroke-width="0" stroke-linecap="round" stroke-linejoin="round"><path d="M426.28673,312.2866l-2.14016,6.19749c-11.87269,31.30497 -28.75054,49.32115 -28.75054,49.32115c0,0 0.60558,-5.58871 0.28135,-14.56798l-0.52635,-0.18374c-1.52055,4.72737 -4.01772,10.82405 -8.16837,18.35516c-9.10217,16.53886 -35.83102,30.40402 -35.83102,30.40402c0,0 1.66148,-5.68596 2.70249,-14.98946l-0.37467,-1.42331c-2.89705,2.23064 -5.90211,4.28068 -8.93966,6.27678c-0.89375,0.59119 -1.78715,1.16754 -2.69529,1.72588c-2.76376,1.71912 -5.57796,3.3585 -8.44972,4.88989c-1.13469,0.59794 -2.31306,1.15315 -3.46258,1.72588c-2.09691,1.04864 -4.22304,2.03928 -6.38122,2.99786c-1.58538,0.69526 -3.1816,1.38726 -4.80703,2.03208c-1.68263,0.6776 -3.41214,1.28638 -5.13082,1.92081c-3.16001,1.13113 -6.36683,2.18696 -9.64611,3.16001c-1.06986,0.31703 -2.14016,0.63399 -3.22841,0.92937c-2.33828,0.64163 -4.69496,1.26842 -7.09451,1.82356l0.0072,0.0072c-12.04603,2.807 -24.8265,4.63732 -38.50829,5.48027c-14.80216,0.90815 -28.22062,0.76046 -40.75252,-0.11164v0c-9.91627,-0.69526 -19.19811,-1.88439 -27.98644,-3.49144c-0.42504,-0.07566 -0.85414,-0.15488 -1.28281,-0.23054c-2.71695,-0.51552 -5.39058,-1.0631 -8.01349,-1.65385c-0.91541,-0.21295 -1.79114,-0.4435 -2.70249,-0.66321c-3.48461,-0.82849 -6.87153,-1.73671 -10.21164,-2.70249c-2.1113,-0.61241 -4.20865,-1.23957 -6.25876,-1.90598c-1.21798,-0.38543 -2.43953,-0.78931 -3.63229,-1.19632c-3.25726,-1.1243 -6.48567,-2.26626 -9.6169,-3.49863l-0.54438,0.52236c1.18193,8.46418 4.10057,13.01865 6.43203,15.18758c4.75259,4.42836 13.90121,5.48064 13.90121,5.48064c0,0 -27.96486,3.91328 -43.19205,-17.67755c-1.6178,-2.29504 -3.25006,-4.67337 -4.7994,-7.20659l-0.66685,-1.44853c-3.3077,-1.10591 -6.65857,-2.57602 -9.96671,-4.46805c-20.17072,-11.62056 -22.70394,-21.20497 -22.70394,-21.20497l0.42148,3.51302c1.94239,9.15617 3.83762,14.93545 3.83762,14.93545c0,0 -24.14163,-15.27764 -34.89402,-38.1725c-8.66907,-18.48126 -9.3575,-29.67634 -9.41513,-31.55754l-0.8109,-6.72348c-0.52236,-26.32903 1.11347,-55.86125 4.73137,-84.91443l0.22335,-0.77449c3.22484,-22.459 0.09725,-59.66645 29.89606,-97.73814c55.83966,-71.32306 112.88612,-68.84385 147.00522,-121.55555c25.09666,-38.77852 18.6506,-83.25338 18.6506,-83.25338c0,0 15.38971,21.78896 21.52956,34.58426c5.94536,12.47071 12.29416,28.54485 12.29416,28.54485l0.20532,-0.13686c0.14049,-0.46872 0.26659,-0.94783 0.37467,-1.42687c1.67587,-7.46228 1.01266,-18.49565 1.01266,-18.49565c0,0 14.6725,43.00112 38.36024,71.19296c23.67335,28.17781 57.88977,36.23091 101.08902,132.72941c5.37619,11.99159 10.37372,22.08433 13.04743,33.27259l1.21079,6.43886c3.76559,20.12072 2.28465,75.70781 -5.62832,99.72378v0zM149.55004,217.7805c0,0 -27.98288,29.06713 -26.1381,69.51389c1.63226,35.78741 10.90727,46.84201 15.90487,49.60933c5.13846,2.82859 13.10506,1.15315 13.10506,1.15315c0,0 -22.53466,11.93396 -40.90421,-4.25909c-12.28697,-10.82405 -25.65862,-24.78682 -29.40255,-64.17011M382.41025,282.23523c0,0 3.47697,9.95232 -4.99796,30.75384c-9.53404,23.43561 -29.65112,30.68537 -29.65112,30.68537c0,0 16.71533,-36.10481 2.6881,-70.051c-6.1219,-14.83094 -25.01736,-25.87834 -44.74146,-33.67923c-26.72885,-10.57948 -54.97513,-15.19158 -54.97513,-15.19158M395.27357,352.6609c-1.50616,4.78501 -4.03894,11.02937 -8.31242,18.76224c-9.09854,16.53886 -35.82746,30.40402 -35.82746,30.40402c0,0 4.82862,-16.5893 3.18204,-39.43053M87.81546,298.64799c-2.74573,5.09521 -4.85704,10.55746 -6.03904,16.32627c-7.42267,35.96788 5.63915,75.58571 5.63915,75.58571c0,0 -24.13444,-15.27088 -34.89402,-38.17294c-9.5376,-20.32604 -9.41513,-31.83852 -9.41513,-31.83852M424.12863,318.50931c-11.87988,31.30497 -28.75417,49.32115 -28.75417,49.32115c0,0 3.48461,-31.75167 -10.57185,-65.70149c-0.63399,-1.53494 -1.35128,-3.02672 -2.1113,-4.47524M250.73631,224.75254c0,0 4.78544,1.26842 17.41096,11.31792c12.62595,10.04957 17.27054,21.01404 17.27054,21.01404c0,0 -37.27911,-9.81859 -57.91855,-17.24125c-20.61785,-7.42986 -90.19294,-26.37584 -90.19294,-26.37584M132.68695,374.2297c10.10676,15.87602 20.62141,24.5131 20.62141,24.5131c0,0 -24.72918,7.65684 -47.44795,-5.41944c-20.17072,-11.62012 -22.70394,-21.20497 -22.70394,-21.20497M353.45439,385.42159c-26.65326,20.50614 -58.98521,30.55571 -98.3113,32.97685c-46.88518,2.88622 -81.15567,-3.96328 -110.44652,-15.45418M143.86401,400.84692c0.88656,10.15401 4.15101,15.41856 6.71301,17.79646c4.75623,4.42836 13.90477,5.48064 13.90477,5.48064c0,0 -27.97205,3.91328 -43.19569,-17.67755c-1.6178,-2.29504 -3.25006,-4.67337 -4.7994,-7.20659M253.44243,225.95606c0,0 102.12326,12.45668 102.12326,68.1951" fill="#f92865"/><path d="M375.58196,318.25355c-3.80883,40.08611 -49.89067,81.90893 -117.32887,85.85099c-59.53679,3.51302 -147.52074,-23.25907 -160.28718,-72.55863c-1.26842,-4.95472 -1.94203,-9.73973 -2.12577,-14.33744l1.29364,0.9442c4.51849,6.6154 9.53041,11.38602 14.38388,15.6523c18.36962,16.18585 40.90421,4.2519 40.90421,4.2519c0,0 -7.96661,1.68263 -13.10506,-1.14596c-4.99753,-2.76732 -14.27261,-13.82191 -15.90487,-49.60933c-1.84478,-40.45395 26.1381,-69.51389 26.1381,-69.51389l0.09725,-0.9298c20.94201,5.80123 62.66395,17.51184 77.84477,22.98528c20.63944,7.4263 57.91855,17.24125 57.91855,17.24125c0,0 -4.64452,-10.96454 -17.27054,-21.01404c-6.32003,-5.02638 -10.66917,-7.85497 -13.43649,-9.42953l2.59441,0.40708c0,0 78.73809,11.63858 93.15846,46.57541c14.02367,33.94983 -2.68446,70.051 -2.68446,70.051c0,0 17.13005,-6.17953 27.24801,-25.53252l0.56197,0.11164v0v0v0z" fill="#e6e7e8"/></g><g fill-rule="nonzero" stroke-width="0" stroke-linecap="round" stroke-linejoin="miter"><path d="M403.40989,245.07495c0,0 36.28448,-40.62642 38.3026,-42.55086c2.01769,-1.924 17.01434,-20.30765 60.23525,-26.58836c0,0 -27.75554,123.42235 -92.40876,151.65373c0,-0.00363 6.15068,-35.31913 -6.12909,-82.51451v0zM403.66209,246.06958c-0.93337,-3.90245 -3.7512,-10.79563 -3.7512,-10.79563M406.44024,337.05147c0,0 2.48234,-5.9165 3.09874,-9.46558" fill="#f92865"/><path d="M435.30569,308.18959c0,0 -6.47491,-4.97638 -7.22098,-21.3459c-0.47911,-10.15401 3.98174,-28.67088 3.98174,-28.67088l-0.36021,0.59075c2.82859,-3.27165 5.81206,-7.09451 8.51455,-11.2887c4.57969,-7.09488 9.93749,-17.73519 14.84896,-28.22425l0.7601,-1.44489c0,0 12.98623,-18.99278 39.90238,-21.39634l0.30977,0.16927c-5.67121,18.76224 -14.92099,46.2804 -25.16512,65.07833c-11.49046,21.0865 -24.78646,36.40018 -36.04674,46.91803l0.47548,-0.38543v0v0v0zM420.8569,269.33948c0,0 9.44399,-9.2282 11.20948,-11.16667" fill="#929497"/></g><g fill-rule="nonzero" stroke-width="0" stroke-linecap="round" stroke-linejoin="miter"><path d="M53.17037,327.5859c-64.64966,-28.23145 -92.40556,-151.65373 -92.40556,-151.65373c43.22127,6.28434 58.21799,24.66799 60.23561,26.58836c2.01769,1.92081 38.3026,42.55086 38.3026,42.55086c-12.28333,47.19901 -6.13265,82.51451 -6.13265,82.51451v0zM62.79803,235.27395c0,0 -2.81776,6.89319 -3.75076,10.79563M53.17037,327.5859c0.61597,3.54907 3.09874,9.46558 3.09874,9.46558" fill="#f92865"/><path d="M27.87922,308.57509c-11.26028,-10.52141 -24.55271,-25.83509 -36.04717,-46.91803c-10.24769,-18.79785 -19.49348,-46.31602 -25.16512,-65.07833l0.3102,-0.16927c26.91978,2.40711 39.90238,21.39634 39.90238,21.39634l0.7601,1.44489c4.91111,10.48899 10.26928,21.12931 14.84896,28.22425c2.70249,4.19426 5.68596,8.01705 8.51455,11.2887l-0.36021,-0.59075c0,0 4.46085,18.51687 3.98131,28.67088c-0.7457,16.36952 -7.22098,21.3459 -7.22098,21.3459l0.47591,0.38543v0v0v0zM30.64291,258.17282c1.76549,1.9384 11.20948,11.16667 11.20948,11.16667" fill="#929497"/></g><path d="M200.77034,299.51296v0v0v0v0v0c2.87183,0.80334 4.54007,3.77962 3.72918,6.65138c-0.80334,2.87903 -3.76515,4.54727 -6.65857,3.75839c-0.16571,-0.05044 -16.93192,-4.60854 -33.32303,0.16927c-0.50433,0.14413 -1.00547,0.21971 -1.50616,0.21971c-2.34185,0 -4.50403,-1.54214 -5.19209,-3.89845c-0.40745,-1.3765 -0.20576,-2.79254 0.41428,-3.98174c-1.01266,-0.88656 -1.97081,-2.03208 -2.6341,-3.61071c-0.77812,-1.83039 0.07922,-3.94889 1.91681,-4.72381c1.81993,-0.7529 3.94569,0.06847 4.72781,1.91361c0.6196,1.47011 2.41395,1.89159 2.43553,1.89878c0.52992,0.11891 0.99464,0.36384 1.39445,0.6808c0.53355,-0.11164 1.0703,-0.22691 1.59621,-0.31703c-0.55477,-0.83576 -1.06986,-1.77268 -1.38006,-2.92584c-0.51153,-1.92764 0.63443,-3.89169 2.562,-4.40678c1.94203,-0.53311 3.89889,0.64163 4.40678,2.562c0.40708,1.53494 2.08252,2.23021 2.09691,2.2374c0.78212,0.26696 1.35848,0.80734 1.78031,1.44853c12.90657,-0.60158 23.05695,2.16218 23.63374,2.32426z" fill="#231f20" fill-rule="nonzero" stroke-width="0.90024" stroke-linecap="butt" stroke-linejoin="miter"/><path d="M329.71257,295.07377v0v0v0v0v0c-0.63443,3.21401 -2.562,5.13446 -4.13662,6.29117c0.39982,1.01266 0.60558,2.12613 0.32423,3.26446c-0.71685,2.89342 -3.58149,4.68093 -6.5433,3.95652c-11.2243,-2.76732 -25.75624,-3.77235 -28.67851,-0.79607c-1.05547,1.06986 -2.43917,1.61061 -3.84081,1.61061c-1.38006,0 -2.74573,-0.52272 -3.80157,-1.5638c-2.12577,-2.09015 -2.15455,-5.50949 -0.05764,-7.64282c5.64635,-5.73604 17.56228,-5.58835 27.09669,-4.33475c0.46472,-0.39982 1.20316,-1.21755 1.27518,-2.34911c0.10124,-1.97808 1.65421,-3.63593 3.77998,-3.41214c1.98527,0.10088 3.50939,1.78715 3.41214,3.77962c-0.07203,1.25396 -0.38186,2.31343 -0.76729,3.27885c0.47192,0.09725 0.92217,0.18374 1.34408,0.28135c0.37467,-0.57679 0.84295,-1.08469 1.52055,-1.38006c0.10088,-0.05764 1.6971,-0.85051 2.00686,-2.39272c0.39626,-1.94922 2.25943,-3.25006 4.2375,-2.82859c1.94922,0.39626 3.21401,2.28101 2.82859,4.2375z" fill="#231f20" fill-rule="nonzero" stroke-width="0.90024" stroke-linecap="butt" stroke-linejoin="miter"/><path d="M197.67443,334.74437c0.11912,-1.4377 1.64615,-2.39679 3.05404,-1.91819c6.62042,3.08188 77.90793,16.22735 83.38857,15.5959c1.82683,-0.21048 3.11561,1.70574 2.24787,3.44325c-4.03894,9.43621 -19.93073,35.26048 -57.49068,29.97651c-32.40899,-6.30469 -33.73745,-29.57539 -31.19966,-47.09741z" fill="#231f20" fill-rule="evenodd" stroke-width="0" stroke-linecap="round" stroke-linejoin="round"/></g></g></svg>