<svg version="1.1" xmlns="http://www.w3.org/2000/svg" xmlns:xlink="http://www.w3.org/1999/xlink" width="61.86398" height="58.55961" viewBox="0,0,61.86398,58.55961"><defs><linearGradient x1="221.41568" y1="185.3839" x2="258.98346" y2="185.3839" gradientUnits="userSpaceOnUse" id="color-1"><stop offset="0" stop-color="#000000"/><stop offset="1" stop-color="#39160f"/></linearGradient><radialGradient cx="237.76276" cy="163.55086" r="9.39643" gradientUnits="userSpaceOnUse" id="color-2"><stop offset="0" stop-color="#3c5a25"/><stop offset="1" stop-color="#1a3309"/></radialGradient><radialGradient cx="236.72147" cy="166.04354" r="1.85945" gradientUnits="userSpaceOnUse" id="color-3"><stop offset="0" stop-color="#3c5a25"/><stop offset="1" stop-color="#1a3309"/></radialGradient></defs><g transform="translate(-214.90164,-156.2108)"><g stroke-miterlimit="10"><g fill="none" stroke="#0c0b0a" stroke-width="5" stroke-linecap="round"><path d="M217.40164,180.71418l2.89368,0.59869"/><path d="M259.01078,182.3107l5.58779,0.59869"/><path d="M230.60274,200.68115l-1.71443,9.17572l-5.68249,-2.70258"/><path d="M260.68174,208.22062l-10.3431,3.35697l-3.90135,-14.69809"/></g><path d="M258.73594,184.67848c-1.19452,6.55389 -1.19574,10.12271 -7.13737,15.58914c-6.36023,5.85155 -7.40433,0.13973 -11.6684,0.13973c-3.83815,0 -4.77286,5.41496 -10.42993,0.49192c-4.49851,-3.91482 -8.08456,-10.17769 -8.08456,-17.21819c0,-5.51752 0.57637,-9.77499 3.81696,-13.44507c1.23551,-1.39926 3.48194,-3.19699 4.80594,-2.4851c2.74798,1.47753 4.65416,1.90427 7.96388,1.90427c2.64887,0 -1.57541,0.93307 9.73782,-2.33824c6.97282,-2.01625 12.49554,9.13223 10.99565,17.36154z" fill="url(#color-1)" stroke="#0c0b0a" stroke-width="2.5" stroke-linecap="butt"/><g stroke="#0d0c0b" stroke-width="2.5" stroke-linecap="round"><path d="M241.85357,168.73447l-3.17346,0.90643c0,0 -5.83213,-0.58581 -6.29734,-0.67982c-0.46521,-0.094 0.46304,0.33563 -0.99171,-0.79312c-1.13897,-0.88372 -1.71378,-1.85885 -2.28093,-3.05919c-0.56715,-1.20033 -0.9917,-2.4455 -0.74378,-3.34245c0.24792,-0.89695 0.46679,-0.6452 1.93383,-0.96308c1.46704,-0.31788 2.87935,-0.37917 3.81807,-0.28326c0.59964,0.06127 1.06594,-0.02816 2.28093,0.90643c1.215,0.93459 2.7272,2.94589 2.7272,2.94589c0,0 -0.08295,4.14445 -0.04959,4.41884c0.03336,0.27439 0.42333,0.91568 0.54544,-0.33991c0.12211,-1.25559 -0.48475,-1.32034 -0.19834,-3.22915c0.28641,-1.90881 0.57307,-3.21817 1.38839,-4.70209c0.81532,-1.48392 2.21008,-2.67881 2.87595,-3.05919c0.66586,-0.38038 0.89481,-0.82282 1.88424,0.33991c0.98942,1.16273 1.47419,3.29925 1.58673,3.73902c0.11254,0.43977 0.55894,0.63197 -0.3471,1.10503c-0.90604,0.47306 -1.52892,-0.2966 -2.52885,0.39656c-0.99994,0.69316 -1.20594,1.46401 -1.73549,2.66263c-0.52955,1.19862 -0.89254,3.2858 -0.89254,3.2858" fill="url(#color-2)"/><path d="M238.58092,168.05468l-3.7189,-4.02227" fill="url(#color-3)"/></g><path d="M232.17379,172.49383c0,1.25 -1.25,1.25 -1.25,1.25l-0.51896,-0.05272c-1.43339,0.25871 -1.29966,1.13801 -2.07999,2.39237c0,0 -0.6625,1.06 -1.7225,0.3975c-1.06,-0.6625 -0.3975,-1.7225 -0.3975,-1.7225c1.22673,-1.95242 1.16524,-2.62411 3.48162,-3.46194l1.23734,-0.05272c0,0 1.25,0 1.25,1.25z" fill="#2c2522" stroke="none" stroke-width="0.5" stroke-linecap="butt"/><g><path d="M249.44695,190.38001c0,0 -1.9664,0.29033 -3.96975,0.13894c-1.78308,-0.13475 -3.85886,-0.26819 -5.33582,-0.29127c-1.79719,-0.02808 -4.76905,1.31496 -6.87924,1.41459c-1.3244,0.06253 -2.37656,-1.10372 -2.37656,-1.10372" fill="none" stroke="#ffffff" stroke-width="5" stroke-linecap="round"/><path d="M231.09142,177.86381c0,-1.38071 1.2969,-1.30117 2.67761,-1.30117c1.38071,0 2.3224,-0.07954 2.3224,1.30117c0,1.38071 -1.11929,2.5 -2.5,2.5c-1.38071,0 -2.5,-1.11929 -2.5,-2.5z" fill="#ffffff" stroke="none" stroke-width="0.5" stroke-linecap="butt"/><path d="M243.90858,177.86381c0,-1.38071 1.11929,-2.5 2.5,-2.5c1.38071,0 2.5,1.11929 2.5,2.5c0,1.38071 -1.11929,2.5 -2.5,2.5c-1.38071,0 -2.5,-1.11929 -2.5,-2.5z" fill="#ffffff" stroke="none" stroke-width="0.5" stroke-linecap="butt"/><path d="M241.5834,179.276c1.90077,1.55274 -0.47309,-8.38546 3.78235,-11.12445c5.91196,-1.90552 3.10288,13.33022 6.76341,11.39531" fill="none" stroke="#ffffff" stroke-width="2.5" stroke-linecap="round"/><path d="M228.26483,178.09838c3.66053,1.93491 -1.92927,-5.23714 5.1733,-6.34002c4.68392,0.36638 3.4717,7.62191 5.37247,6.06916" fill="none" stroke="#ffffff" stroke-width="2.5" stroke-linecap="round"/></g><path d="M262.68229,191.62891v-23.66667h12.83333v23.66667z" fill="#00ae97" stroke="#000000" stroke-width="2.5" stroke-linecap="butt"/></g></g></svg>