<svg version="1.1" xmlns="http://www.w3.org/2000/svg" xmlns:xlink="http://www.w3.org/1999/xlink" width="459.95496" height="778.37222" viewBox="0,0,459.95496,778.37222"><defs><radialGradient cx="239.62491" cy="563.2476" r="380.51573" gradientUnits="userSpaceOnUse" id="color-1"><stop offset="0" stop-color="#00fffe" stop-opacity="0"/><stop offset="1" stop-color="#00fffe"/></radialGradient><linearGradient x1="238.51895" y1="224.4899" x2="238.51895" y2="925.91841" gradientUnits="userSpaceOnUse" id="color-2"><stop offset="0" stop-color="#009cdb"/><stop offset="1" stop-color="#00fffe"/></linearGradient><linearGradient x1="240.24347" y1="181.57352" x2="240.24347" y2="200.58274" gradientUnits="userSpaceOnUse" id="color-3"><stop offset="0" stop-color="#020499"/><stop offset="1" stop-color="#0600ff"/></linearGradient><linearGradient x1="274.43179" y1="177.30675" x2="274.43179" y2="213.53186" gradientUnits="userSpaceOnUse" id="color-4"><stop offset="0" stop-color="#020499"/><stop offset="1" stop-color="#0600ff"/></linearGradient><linearGradient x1="205.56821" y1="177.30675" x2="205.56821" y2="213.53186" gradientUnits="userSpaceOnUse" id="color-5"><stop offset="0" stop-color="#020499"/><stop offset="1" stop-color="#0600ff"/></linearGradient><linearGradient x1="221.21612" y1="185.3658" x2="258.78389" y2="185.3658" gradientUnits="userSpaceOnUse" id="color-6"><stop offset="0" stop-color="#ff866e"/><stop offset="1" stop-color="#ff6242"/></linearGradient><radialGradient cx="237.76276" cy="163.55086" r="9.39643" gradientUnits="userSpaceOnUse" id="color-7"><stop offset="0" stop-color="#9ceb60"/><stop offset="1" stop-color="#6dd627"/></radialGradient><radialGradient cx="236.72147" cy="166.04355" r="1.85945" gradientUnits="userSpaceOnUse" id="color-8"><stop offset="0" stop-color="#9ceb60"/><stop offset="1" stop-color="#6dd627"/></radialGradient><linearGradient x1="240" y1="148.7962" x2="240" y2="211.20383" gradientUnits="userSpaceOnUse" id="color-9"><stop offset="0" stop-color="#00aaff" stop-opacity="0.50126"/><stop offset="1" stop-color="#81fffa" stop-opacity="0.5093"/></linearGradient><linearGradient x1="240.71733" y1="224.11247" x2="240.71733" y2="252.80563" gradientUnits="userSpaceOnUse" id="color-10"><stop offset="0" stop-color="#020499"/><stop offset="1" stop-color="#0600ff"/></linearGradient><linearGradient x1="240.71733" y1="200.97861" x2="240.71733" y2="225.00913" gradientUnits="userSpaceOnUse" id="color-11"><stop offset="0" stop-color="#980202"/><stop offset="1" stop-color="#ff0000"/></linearGradient></defs><g transform="translate(-9.27177,-147.5462)"><g data-paper-data="{&quot;isPaintingLayer&quot;:true}" fill-rule="nonzero" stroke-linejoin="miter" stroke-miterlimit="10" stroke-dasharray="" stroke-dashoffset="0" style="mix-blend-mode: normal"><path d="M222.22867,913.96186v-701.42851h34.79248v701.42851z" fill="url(#color-1)" stroke="none" stroke-width="0" stroke-linecap="butt"/><path d="M229.37477,925.91841v-701.42851h18.28835v701.42851z" fill="url(#color-2)" stroke="none" stroke-width="0" stroke-linecap="butt"/><path d="M206.70834,200.58274v-19.00922h67.07026v19.00922z" fill="url(#color-3)" stroke="#000000" stroke-width="2.5" stroke-linecap="butt"/><path d="M256.31924,195.41931c0,-10.00329 8.10926,-18.11256 18.11255,-18.11256c10.00329,0 18.11256,8.10927 18.11256,18.11256c0,10.00329 -8.10927,18.11255 -18.11256,18.11255c-10.00329,0 -18.11255,-8.10926 -18.11255,-18.11255z" fill="url(#color-4)" stroke="#000000" stroke-width="2.5" stroke-linecap="butt"/><path d="M187.45565,195.41931c0,-10.00329 8.10927,-18.11256 18.11256,-18.11256c10.00329,0 18.11256,8.10927 18.11256,18.11256c0,10.00329 -8.10927,18.11255 -18.11256,18.11255c-10.00329,0 -18.11256,-8.10926 -18.11256,-18.11255z" fill="url(#color-5)" stroke="#000000" stroke-width="2.5" stroke-linecap="butt"/><g><path d="M258.53638,184.66038c-1.19452,6.55389 -1.19574,10.12271 -7.13737,15.58914c-6.36023,5.85155 -7.40433,0.13973 -11.6684,0.13973c-3.83815,0 -4.77286,5.41496 -10.42993,0.49192c-4.49851,-3.91482 -8.08456,-10.17769 -8.08456,-17.21819c0,-5.51752 0.57637,-9.77499 3.81696,-13.44507c1.23551,-1.39926 3.48194,-3.19699 4.80594,-2.4851c2.74798,1.47753 4.65416,1.90427 7.96388,1.90427c2.64887,0 -1.57541,0.93307 9.73782,-2.33824c6.97282,-2.01625 12.49554,9.13223 10.99565,17.36154z" fill="url(#color-6)" stroke="#45413c" stroke-width="2.5" stroke-linecap="butt"/><g stroke="#45413c" stroke-width="2.5" stroke-linecap="round"><path d="M241.85357,168.73448l-3.17346,0.90643c0,0 -5.83213,-0.58581 -6.29734,-0.67982c-0.46521,-0.094 0.46304,0.33563 -0.99171,-0.79312c-1.13897,-0.88372 -1.71378,-1.85885 -2.28093,-3.05919c-0.56715,-1.20033 -0.9917,-2.4455 -0.74378,-3.34245c0.24792,-0.89695 0.46679,-0.6452 1.93383,-0.96308c1.46704,-0.31788 2.87935,-0.37917 3.81807,-0.28326c0.59964,0.06127 1.06594,-0.02816 2.28093,0.90643c1.215,0.93459 2.7272,2.94589 2.7272,2.94589c0,0 -0.08295,4.14445 -0.04959,4.41884c0.03336,0.27439 0.42333,0.91568 0.54544,-0.33991c0.12211,-1.25559 -0.48475,-1.32034 -0.19834,-3.22915c0.28641,-1.90881 0.57307,-3.21817 1.38839,-4.70209c0.81532,-1.48392 2.21008,-2.67881 2.87595,-3.05919c0.66586,-0.38038 0.89481,-0.82282 1.88424,0.33991c0.98942,1.16273 1.47419,3.29925 1.58673,3.73902c0.11254,0.43977 0.55894,0.63197 -0.3471,1.10503c-0.90604,0.47306 -1.52892,-0.2966 -2.52885,0.39656c-0.99994,0.69316 -1.20594,1.46401 -1.73549,2.66263c-0.52955,1.19862 -0.89254,3.2858 -0.89254,3.2858" fill="url(#color-7)"/><path d="M234.86202,164.03241l3.7189,4.02227" fill="url(#color-8)"/></g><path d="M232.17379,172.49384c0,1.25 -1.25,1.25 -1.25,1.25l-0.51896,-0.05272c-1.43339,0.25871 -1.29966,1.13801 -2.07999,2.39237c0,0 -0.6625,1.06 -1.7225,0.3975c-1.06,-0.6625 -0.3975,-1.7225 -0.3975,-1.7225c1.22673,-1.95242 1.16524,-2.62411 3.48162,-3.46194l1.23734,-0.05272c0,0 1.25,0 1.25,1.25z" fill="#ffd9c6" stroke="none" stroke-width="0.5" stroke-linecap="butt"/></g><path d="M208.79619,180.00001c0,-17.23339 13.97043,-31.20381 31.20381,-31.20381c17.23339,0 31.20382,13.97043 31.20382,31.20381c0,17.23339 -13.97043,31.20381 -31.20382,31.20381c-17.23339,0 -31.20381,-13.97043 -31.20381,-31.20381z" fill="url(#color-9)" stroke="#000000" stroke-width="2.5" stroke-linecap="butt"/><path d="M255.42258,238.45905c0,7.9234 -6.58376,14.34658 -14.70524,14.34658c-8.12149,0 -14.70524,-6.42318 -14.70524,-14.34658c0,-7.9234 6.58376,-14.34658 14.70524,-14.34658c8.12149,0 14.70524,6.42318 14.70524,14.34658z" fill="url(#color-10)" stroke="#000000" stroke-width="2.5" stroke-linecap="butt"/><path d="M189.42831,225.00913v-24.03052h102.57805v24.03052l-24.83468,39.4531l-26.6343,-35.86645l-21.59538,36.58378z" fill="url(#color-11)" stroke="#000000" stroke-width="2.5" stroke-linecap="butt"/><path d="M201.40027,208.98025c2.32119,0.92847 1.39271,3.24967 1.39271,3.24967l-1.02678,2.56406c-0.77263,2.26564 -1.45506,4.64445 -1.42705,7.03804c0,0 0,2.5 -2.5,2.5c-2.5,0 -2.5,-2.5 -2.5,-2.5c0.02698,-2.9757 0.80721,-5.92939 1.73213,-8.75782l1.07933,-2.70123c0,0 0.92847,-2.32119 3.24966,-1.39271z" fill="#f28484" stroke="none" stroke-width="0.5" stroke-linecap="butt"/><path d="M212.7146,209.19533c0,-1.38071 1.11929,-2.5 2.5,-2.5c1.38071,0 2.5,1.11929 2.5,2.5c0,1.38071 -1.11929,2.5 -2.5,2.5c-1.38071,0 -2.5,-1.11929 -2.5,-2.5z" fill="#f28484" stroke="none" stroke-width="0.5" stroke-linecap="butt"/><path d="M271.73436,206.59893c0.49029,-2.45145 2.94174,-1.96116 2.94174,-1.96116l2.5259,0.50758c2.6689,0.29743 5.3555,0.49982 8.04091,0.49693c0,0 2.5,0 2.5,2.5c0,2.5 -2.5,2.5 -2.5,2.5c-2.94185,-0.00295 -5.88405,-0.23211 -8.808,-0.55612l-2.73939,-0.54548c0,0 -2.45145,-0.49029 -1.96116,-2.94174z" fill="#f28484" stroke="none" stroke-width="0.5" stroke-linecap="butt"/><path d="M275.04603,236.60081c2.08013,1.38675 0.69338,3.46688 0.69338,3.46688l-0.81199,1.12131c-1.97339,4.7227 -5.74355,7.84713 -9.71044,11.02774c0,0 -1.95217,1.56173 -3.51391,-0.39043c-1.56174,-1.95217 0.39044,-3.51391 0.39044,-3.51391c3.16763,-2.52796 6.75221,-5.14043 8.19153,-8.98035l1.29413,-2.03786c0,0 1.38675,-2.08013 3.46687,-0.69338z" fill="#f28484" stroke="none" stroke-width="0.5" stroke-linecap="butt"/><path d="M273.06777,233.01907c-2.23607,-1.11803 -1.11804,-3.3541 -1.11804,-3.3541l0.7626,-1.43502c3.05028,-3.82434 0.61645,-7.29927 0.55306,-11.66322c0,0 0,-2.5 2.5,-2.5c2.5,0 2.5,2.5 2.5,2.5c-0.03409,1.6321 0.73937,3.18231 1.00795,4.79252c0.65407,3.92133 -0.34985,6.7999 -2.56101,9.8707l-0.29046,0.67109c0,0 -1.11804,2.23607 -3.35411,1.11803z" fill="#f28484" stroke="none" stroke-width="0.5" stroke-linecap="butt"/><path d="M208.81667,246.99928c-2,1.5 -3.5,-0.5 -3.5,-0.5l-1.70621,-2.29179c-1.70538,-3.39619 -2.99731,-6.86673 -4.40679,-10.3899c0,0 -0.92848,-2.32119 1.39272,-3.24967c2.32119,-0.92848 3.24967,1.39272 3.24967,1.39272c1.2981,3.24574 2.45928,6.485 4.01766,9.61819l1.45296,1.92044c0,0 1.5,2 -0.5,3.5z" fill="#f28484" stroke="none" stroke-width="0.5" stroke-linecap="butt"/><path d="M232.59004,231.9687c1.38071,0 2.5,1.11929 2.5,2.5c0,0.79511 -0.37118,1.50352 -0.94972,1.96141l-0.32187,0.64037c-2.12227,4.70734 -5.02127,8.64152 -8.22723,12.6497c0,0 -1.56174,1.95217 -3.51391,0.39043c-1.95217,-1.56174 -0.39043,-3.51391 -0.39043,-3.51391c2.93885,-3.67288 5.64424,-7.24511 7.56863,-11.57062l0.57193,-1.1489c0,0 0.26097,-0.52194 0.78291,-0.9354c0.45719,-0.59189 1.17392,-0.97309 1.97969,-0.97309z" fill="#f28484" stroke="none" stroke-width="0.5" stroke-linecap="butt"/><path d="M254.49665,204.37554c0.60755,2.42505 -1.8175,3.03261 -1.8175,3.03261l-4.6874,1.16663c-6.93859,0.63727 -14.17531,1.65666 -20.37365,-1.97448c0,0 -2.14373,-1.28624 -0.85749,-3.42997c1.28624,-2.14373 3.42997,-0.85749 3.42997,-0.85749c4.8701,3.01474 11.467,1.82638 16.96477,1.33239l4.30869,-1.08719c0,0 2.42505,-0.60755 3.03261,1.8175z" fill="#f28484" stroke="none" stroke-width="0.5" stroke-linecap="butt"/><path d="M247.99202,233.94217c0,-1.38071 1.11929,-2.5 2.5,-2.5c1.38071,0 2.5,1.11929 2.5,2.5c0,1.38071 -1.11929,2.5 -2.5,2.5c-1.38071,0 -2.5,-1.11929 -2.5,-2.5z" fill="#f28484" stroke="none" stroke-width="0.5" stroke-linecap="butt"/><path d="M210.60848,222.39503c0,-1.38071 1.11929,-2.5 2.5,-2.5c1.38071,0 2.5,1.11929 2.5,2.5c0,1.38071 -1.11929,2.5 -2.5,2.5c-1.38071,0 -2.5,-1.11929 -2.5,-2.5z" fill="#f28484" stroke="none" stroke-width="0.5" stroke-linecap="butt"/><path d="M231.1431,220.28892c0,-1.38071 1.11929,-2.5 2.5,-2.5c1.38071,0 2.5,1.11929 2.5,2.5c0,1.38071 -1.11929,2.5 -2.5,2.5c-1.38071,0 -2.5,-1.11929 -2.5,-2.5z" fill="#f28484" stroke="none" stroke-width="0.5" stroke-linecap="butt"/><path d="M259.57565,222.39503c0,-1.38071 1.11929,-2.5 2.5,-2.5c1.38071,0 2.5,1.11929 2.5,2.5c0,1.38071 -1.11929,2.5 -2.5,2.5c-1.38071,0 -2.5,-1.11929 -2.5,-2.5z" fill="#f28484" stroke="none" stroke-width="0.5" stroke-linecap="butt"/><path d="M215.34724,233.97866c0,-1.38071 1.11929,-2.5 2.5,-2.5c1.38071,0 2.5,1.11929 2.5,2.5c0,1.38071 -1.11929,2.5 -2.5,2.5c-1.38071,0 -2.5,-1.11929 -2.5,-2.5z" fill="#f28484" stroke="none" stroke-width="0.5" stroke-linecap="butt"/><path d="M261.68176,210.28487c0,-1.38071 1.11929,-2.5 2.5,-2.5c1.38071,0 2.5,1.11929 2.5,2.5c0,1.38071 -1.11929,2.5 -2.5,2.5c-1.38071,0 -2.5,-1.11929 -2.5,-2.5z" fill="#f28484" stroke="none" stroke-width="0.5" stroke-linecap="butt"/><path d="M9.27177,202.7428c0,-1.38071 1.11929,-2.5 2.5,-2.5c1.38071,0 2.5,1.11929 2.5,2.5c0,1.38071 -1.11929,2.5 -2.5,2.5c-1.38071,0 -2.5,-1.11929 -2.5,-2.5z" fill-opacity="0" fill="#9966ff" stroke="none" stroke-width="0.5" stroke-linecap="butt"/><path d="M464.22673,195.23529c0,-1.38071 1.11929,-2.5 2.5,-2.5c1.38071,0 2.5,1.11929 2.5,2.5c0,1.38071 -1.11929,2.5 -2.5,2.5c-1.38071,0 -2.5,-1.11929 -2.5,-2.5z" fill-opacity="0" fill="#9966ff" stroke="none" stroke-width="0.5" stroke-linecap="butt"/></g></g></svg>