<svg version="1.1" xmlns="http://www.w3.org/2000/svg" xmlns:xlink="http://www.w3.org/1999/xlink" width="770.89367" height="770.89367" viewBox="0,0,770.89367,770.89367"><defs><linearGradient x1="236.99701" y1="-212.9543" x2="236.99701" y2="557.93936" gradientUnits="userSpaceOnUse" id="color-1"><stop offset="0" stop-color="#000000"/><stop offset="1" stop-color="#313131"/></linearGradient><linearGradient x1="405.17375" y1="-158.69749" x2="405.17375" y2="167.32942" gradientUnits="userSpaceOnUse" id="color-2"><stop offset="0" stop-color="#000000"/><stop offset="1" stop-color="#313131"/></linearGradient><linearGradient x1="253.17624" y1="-152.35368" x2="253.17624" y2="465.42247" gradientUnits="userSpaceOnUse" id="color-3"><stop offset="0" stop-color="#000000"/><stop offset="1" stop-color="#313131"/></linearGradient><linearGradient x1="121.38405" y1="71.93279" x2="121.38405" y2="503.81446" gradientUnits="userSpaceOnUse" id="color-4"><stop offset="0" stop-color="#000000"/><stop offset="1" stop-color="#313131"/></linearGradient></defs><g transform="translate(148.44983,212.95432)"><g data-paper-data="{&quot;isPaintingLayer&quot;:true}" fill-rule="nonzero" stroke="none" stroke-linecap="butt" stroke-linejoin="miter" stroke-miterlimit="10" stroke-dasharray="" stroke-dashoffset="0" style="mix-blend-mode: normal"><g stroke-width="1"><path d="M236.99692,557.93918c-212.87603,0 -385.44675,-172.57039 -385.44675,-385.44675c0,-212.87603 172.57039,-385.44675 385.44692,-385.44675c212.87636,0 385.44675,172.57039 385.44675,385.44692c0,212.87603 -172.57039,385.44675 -385.44675,385.44675z" fill="url(#color-1)"/><path d="M543.23198,142.37419c-100.36105,-100.36105 -200.71064,-200.71064 -301.0717,-301.0717c178.86656,2.74709 323.29081,147.16004 326.02693,326.02693z" fill="url(#color-2)"/><path d="M391.29507,465.42232c-149.76334,-148.51688 -298.61153,-297.96054 -446.79727,-448.04406c45.85026,-86.25056 128.4602,-149.9841 227.14407,-169.73192l390.21281,390.21281c-19.82495,98.99291 -83.90061,181.81247 -170.55945,227.56333z" fill="url(#color-3)"/><path d="M-45.97041,104.90853c127.04816,128.37192 254.86835,255.97151 383.06356,383.18491c-31.61858,10.02851 -65.15671,15.72102 -100.09607,15.72102c-182.98196,0 -331.32213,-148.34034 -331.32213,-331.32213c0,-35.10493 5.7477,-68.80848 15.86464,-100.55954c10.84474,10.97723 21.63445,22.00932 32.49017,32.97575z" fill="url(#color-4)"/></g><path d="M1.5179,-94.58469h476.9642c36.61116,0 67.12051,29.49255 67.12051,66.10371v303.06028c0,36.61116 -29.49222,66.10371 -67.12051,66.10371h-70.17192v113.90168l-106.78274,-113.90168h-300.00954c-36.61116,0 -67.12051,-29.49255 -67.12051,-66.10371v-303.06028c0,-36.61116 29.49222,-66.10371 67.12051,-66.10371z" fill="#4fd1d9" stroke-width="3.04954"/><g fill="#ffffff" stroke-width="3.04954"><path d="M402.20838,80.33603c11.78675,0 22.46499,4.78987 30.19421,12.51909c7.72889,7.72889 12.51909,18.40713 12.51909,30.19421c0,11.78675 -4.7902,22.46499 -12.51909,30.19388c-7.72922,7.72922 -18.40746,12.51909 -30.19421,12.51909c-11.78675,0 -22.46499,-4.78987 -30.19421,-12.51909c-7.72889,-7.72889 -12.51909,-18.40713 -12.51909,-30.19388c0,-11.78708 4.7902,-22.46532 12.51909,-30.19421c7.72922,-7.72922 18.40746,-12.51909 30.19421,-12.51909z"/><path d="M239.4916,80.33603c11.78675,0 22.46499,4.78987 30.19421,12.51909c7.72889,7.72889 12.51875,18.40713 12.51875,30.19421c0,11.78675 -4.78987,22.46499 -12.51875,30.19388c-7.72922,7.72922 -18.40746,12.51909 -30.19421,12.51909c-11.78675,0 -22.46532,-4.78987 -30.19421,-12.51909c-7.72922,-7.72889 -12.51909,-18.40713 -12.51909,-30.19388c0,-11.78708 4.78987,-22.46532 12.51909,-30.19421c7.72889,-7.72922 18.40746,-12.51909 30.19421,-12.51909z"/><path d="M76.77449,80.33603c11.78708,0 22.46532,4.78987 30.19421,12.51909c7.72922,7.72889 12.51909,18.40713 12.51909,30.19421c0,11.78675 -4.78987,22.46499 -12.51909,30.19388c-7.72889,7.72922 -18.40713,12.51909 -30.19421,12.51909c-11.78675,0 -22.46499,-4.78987 -30.19388,-12.51909c-7.72922,-7.72889 -12.51909,-18.40713 -12.51909,-30.19388c0,-11.78708 4.78987,-22.46532 12.51909,-30.19421c7.72889,-7.72922 18.40713,-12.51909 30.19388,-12.51909z"/></g></g></g></svg>