<svg version="1.1" xmlns="http://www.w3.org/2000/svg" xmlns:xlink="http://www.w3.org/1999/xlink" width="40.06868" height="47.98774" viewBox="0,0,40.06868,47.98774"><defs><linearGradient x1="258.78389" y1="174.99601" x2="221.21613" y2="174.99601" gradientUnits="userSpaceOnUse" id="color-1"><stop offset="0" stop-color="#0099b9"/><stop offset="1" stop-color="#007c94"/></linearGradient><radialGradient cx="243.27854" cy="193.95646" r="1.85945" gradientUnits="userSpaceOnUse" id="color-2"><stop offset="0" stop-color="#9ceb60"/><stop offset="1" stop-color="#6dd627"/></radialGradient></defs><g transform="translate(-219.96522,-155.80146)"><g data-paper-data="{&quot;isPaintingLayer&quot;:true}" fill-rule="nonzero" stroke-linejoin="miter" stroke-miterlimit="10" stroke-dasharray="" stroke-dashoffset="0" style="mix-blend-mode: normal"><path d="M221.46364,175.33963c1.19452,-6.55389 1.19574,-10.12271 7.13737,-15.58914c6.36023,-5.85155 7.40433,-0.13973 11.6684,-0.13973c3.83815,0 4.77286,-5.41496 10.42993,-0.49192c4.49851,3.91482 8.08456,10.17769 8.08456,17.21819c0,5.51752 -0.57637,9.77499 -3.81696,13.44507c-1.23551,1.39926 -3.48194,3.19699 -4.80594,2.4851c-2.74798,-1.47753 -4.65416,-1.90427 -7.96388,-1.90427c-2.64887,0 1.57541,-0.93307 -9.73782,2.33824c-6.97282,2.01625 -12.49554,-9.13223 -10.99565,-17.36154z" data-paper-data="{&quot;index&quot;:null}" fill="url(#color-1)" stroke="#babec3" stroke-width="2.5" stroke-linecap="butt"/><g data-paper-data="{&quot;index&quot;:null}" stroke="#babec3" stroke-width="2.5" stroke-linecap="round"><path d="M238.14644,191.26553l3.17346,-0.90643c0,0 5.83213,0.58581 6.29734,0.67982c0.46521,0.094 -0.46304,-0.33563 0.99171,0.79312c1.13897,0.88372 1.71378,1.85885 2.28093,3.05919c0.56715,1.20033 0.9917,2.4455 0.74378,3.34245c-0.24792,0.89695 -0.46679,0.6452 -1.93383,0.96308c-1.46704,0.31788 -2.87935,0.37917 -3.81807,0.28326c-0.59964,-0.06127 -1.06594,0.02816 -2.28093,-0.90643c-1.215,-0.93459 -2.7272,-2.94589 -2.7272,-2.94589c0,0 0.08295,-4.14445 0.04959,-4.41884c-0.03336,-0.27439 -0.42333,-0.91568 -0.54544,0.33991c-0.12211,1.25559 0.48475,1.32034 0.19834,3.22915c-0.28641,1.90881 -0.57307,3.21817 -1.38839,4.70209c-0.81532,1.48392 -2.21008,2.67881 -2.87595,3.05919c-0.66586,0.38038 -0.89481,0.82282 -1.88424,-0.33991c-0.98942,-1.16273 -1.47419,-3.29925 -1.58673,-3.73902c-0.11254,-0.43977 -0.55894,-0.63197 0.3471,-1.10503c0.90604,-0.47306 1.52892,0.2966 2.52885,-0.39656c0.99994,-0.69316 1.20594,-1.46401 1.73549,-2.66263c0.52955,-1.19862 0.89254,-3.2858 0.89254,-3.2858" fill="#7f21c1"/><path d="M245.13799,195.96759l-3.7189,-4.02227" fill="url(#color-2)"/></g><path d="M247.82622,187.50617c0,-1.25 1.25,-1.25 1.25,-1.25l0.51896,0.05272c1.43339,-0.25871 1.29966,-1.13801 2.07999,-2.39237c0,0 0.6625,-1.06 1.7225,-0.3975c1.06,0.6625 0.3975,1.7225 0.3975,1.7225c-1.22673,1.95242 -1.16524,2.62411 -3.48162,3.46194l-1.23734,0.05272c0,0 -1.25,0 -1.25,-1.25z" data-paper-data="{&quot;index&quot;:null}" fill="#002639" stroke="none" stroke-width="0.5" stroke-linecap="butt"/></g></g></svg>