<svg version="1.1" xmlns="http://www.w3.org/2000/svg" xmlns:xlink="http://www.w3.org/1999/xlink" width="555" height="147.88889" viewBox="0,0,555,147.88889"><defs><linearGradient x1="1" y1="-34.94444" x2="1" y2="64.94445" gradientUnits="userSpaceOnUse" id="color-1"><stop offset="0" stop-color="#ffffff" stop-opacity="0.19304"/><stop offset="1" stop-color="#ffffff"/></linearGradient><linearGradient x1="138" y1="-54.94444" x2="138" y2="44.94445" gradientUnits="userSpaceOnUse" id="color-2"><stop offset="0" stop-color="#ffffff" stop-opacity="0.19304"/><stop offset="1" stop-color="#ffffff"/></linearGradient><linearGradient x1="97" y1="-38.94444" x2="97" y2="60.94445" gradientUnits="userSpaceOnUse" id="color-3"><stop offset="0" stop-color="#ffffff" stop-opacity="0.19304"/><stop offset="1" stop-color="#ffffff"/></linearGradient><linearGradient x1="51" y1="-11.94444" x2="51" y2="87.94445" gradientUnits="userSpaceOnUse" id="color-4"><stop offset="0" stop-color="#ffffff" stop-opacity="0.19304"/><stop offset="1" stop-color="#ffffff"/></linearGradient><linearGradient x1="194" y1="-29.94444" x2="194" y2="69.94445" gradientUnits="userSpaceOnUse" id="color-5"><stop offset="0" stop-color="#ffffff" stop-opacity="0.19304"/><stop offset="1" stop-color="#ffffff"/></linearGradient><linearGradient x1="469" y1="-29.94444" x2="469" y2="69.94445" gradientUnits="userSpaceOnUse" id="color-6"><stop offset="0" stop-color="#ffffff" stop-opacity="0.19304"/><stop offset="1" stop-color="#ffffff"/></linearGradient><linearGradient x1="332" y1="-49.94444" x2="332" y2="49.94445" gradientUnits="userSpaceOnUse" id="color-7"><stop offset="0" stop-color="#ffffff" stop-opacity="0.19304"/><stop offset="1" stop-color="#ffffff"/></linearGradient><linearGradient x1="373" y1="-33.94444" x2="373" y2="65.94445" gradientUnits="userSpaceOnUse" id="color-8"><stop offset="0" stop-color="#ffffff" stop-opacity="0.19304"/><stop offset="1" stop-color="#ffffff"/></linearGradient><linearGradient x1="419" y1="-6.94444" x2="419" y2="92.94445" gradientUnits="userSpaceOnUse" id="color-9"><stop offset="0" stop-color="#ffffff" stop-opacity="0.19304"/><stop offset="1" stop-color="#ffffff"/></linearGradient><linearGradient x1="276" y1="-24.94444" x2="276" y2="74.94445" gradientUnits="userSpaceOnUse" id="color-10"><stop offset="0" stop-color="#ffffff" stop-opacity="0.19304"/><stop offset="1" stop-color="#ffffff"/></linearGradient></defs><g transform="translate(42.5,54.94445)"><g data-paper-data="{&quot;isPaintingLayer&quot;:true}" fill-rule="nonzero" stroke="none" stroke-width="0" stroke-linecap="butt" stroke-linejoin="miter" stroke-miterlimit="10" stroke-dasharray="" stroke-dashoffset="0" style="mix-blend-mode: normal"><g><g><path d="M44.5,15c0,27.58356 -19.47562,49.94445 -43.5,49.94445c-24.02438,0 -43.5,-22.36089 -43.5,-49.94444c0,-27.58355 19.47562,-49.94444 43.5,-49.94444c24.02439,0 43.5,22.36089 43.5,49.94445z" fill="url(#color-1)"/><path d="M181.5,-5c0,27.58356 -19.47562,49.94445 -43.5,49.94445c-24.02438,0 -43.5,-22.36089 -43.5,-49.94444c0,-27.58356 19.47562,-49.94444 43.5,-49.94444c24.02438,0 43.5,22.36089 43.5,49.94445z" fill="url(#color-2)"/><path d="M140.5,11c0,27.58356 -19.47562,49.94445 -43.5,49.94445c-24.02438,0 -43.5,-22.36089 -43.5,-49.94444c0,-27.58355 19.47562,-49.94444 43.5,-49.94444c24.02438,0 43.5,22.36089 43.5,49.94445z" fill="url(#color-3)"/><path d="M94.5,38c0,27.58356 -19.47562,49.94445 -43.5,49.94445c-24.02438,0 -43.5,-22.36089 -43.5,-49.94444c0,-27.58355 19.47562,-49.94444 43.5,-49.94444c24.02438,0 43.5,22.36089 43.5,49.94445z" fill="url(#color-4)"/><path d="M237.5,20c0,27.58356 -19.47562,49.94445 -43.5,49.94445c-24.02438,0 -43.5,-22.36089 -43.5,-49.94444c0,-27.58355 19.47562,-49.94444 43.5,-49.94444c24.02438,0 43.5,22.36089 43.5,49.94445z" fill="url(#color-5)"/></g><g data-paper-data="{&quot;index&quot;:null}"><path d="M469,-29.94444c24.02438,0 43.5,22.36089 43.5,49.94445c0,27.58356 -19.47562,49.94445 -43.5,49.94445c-24.02438,0 -43.5,-22.36089 -43.5,-49.94444c0,-27.58355 19.47562,-49.94444 43.5,-49.94444z" fill="url(#color-6)"/><path d="M332,-49.94444c24.02438,0 43.5,22.36089 43.5,49.94445c0,27.58356 -19.47562,49.94445 -43.5,49.94445c-24.02438,0 -43.5,-22.36089 -43.5,-49.94444c0,-27.58355 19.47562,-49.94444 43.5,-49.94444z" fill="url(#color-7)"/><path d="M373,-33.94444c24.02438,0 43.5,22.36089 43.5,49.94445c0,27.58356 -19.47562,49.94445 -43.5,49.94445c-24.02438,0 -43.5,-22.36089 -43.5,-49.94444c0,-27.58355 19.47562,-49.94444 43.5,-49.94444z" fill="url(#color-8)"/><path d="M419,-6.94444c24.02438,0 43.5,22.36089 43.5,49.94445c0,27.58356 -19.47562,49.94445 -43.5,49.94445c-24.02438,0 -43.5,-22.36089 -43.5,-49.94444c0,-27.58355 19.47562,-49.94444 43.5,-49.94444z" fill="url(#color-9)"/><path d="M276,-24.94444c24.02438,0 43.5,22.36089 43.5,49.94445c0,27.58356 -19.47562,49.94445 -43.5,49.94445c-24.02438,0 -43.5,-22.36089 -43.5,-49.94444c0,-27.58355 19.47562,-49.94444 43.5,-49.94444z" fill="url(#color-10)"/></g></g></g></g></svg>