<svg version="1.1" xmlns="http://www.w3.org/2000/svg" xmlns:xlink="http://www.w3.org/1999/xlink" width="770.89367" height="770.89367" viewBox="0,0,770.89367,770.89367"><defs><linearGradient x1="236.99701" y1="-212.95431" x2="236.99701" y2="557.93936" gradientUnits="userSpaceOnUse" id="color-1"><stop offset="0" stop-color="#f9c147"/><stop offset="1" stop-color="#faa51d"/></linearGradient><linearGradient x1="405.17375" y1="-158.6975" x2="405.17375" y2="167.32942" gradientUnits="userSpaceOnUse" id="color-2"><stop offset="0" stop-color="#f9c147"/><stop offset="1" stop-color="#faa51d"/></linearGradient><linearGradient x1="253.17624" y1="-152.35368" x2="253.17624" y2="465.42246" gradientUnits="userSpaceOnUse" id="color-3"><stop offset="0" stop-color="#f9c147"/><stop offset="1" stop-color="#faa51d"/></linearGradient><linearGradient x1="121.38405" y1="71.93278" x2="121.38405" y2="503.81445" gradientUnits="userSpaceOnUse" id="color-4"><stop offset="0" stop-color="#f9c147"/><stop offset="1" stop-color="#faa51d"/></linearGradient></defs><g transform="translate(148.44983,212.95432)"><g data-paper-data="{&quot;isPaintingLayer&quot;:true}" fill-rule="nonzero" stroke-linecap="butt" stroke-linejoin="miter" stroke-miterlimit="10" stroke-dasharray="" stroke-dashoffset="0" style="mix-blend-mode: normal"><g stroke="none" stroke-width="1"><path d="M236.99692,557.93918c-212.87603,0 -385.44675,-172.57039 -385.44675,-385.44675c0,-212.87603 172.57039,-385.44675 385.44692,-385.44675c212.87636,0 385.44675,172.57039 385.44675,385.44692c0,212.87603 -172.57039,385.44675 -385.44675,385.44675z" fill="url(#color-1)"/><path d="M543.23198,142.37419c-100.36105,-100.36105 -200.71064,-200.71064 -301.0717,-301.0717c178.86656,2.74709 323.29081,147.16004 326.02693,326.02693z" fill="url(#color-2)"/><path d="M391.29507,465.42231c-149.76334,-148.51688 -298.61153,-297.96054 -446.79727,-448.04406c45.85026,-86.25056 128.4602,-149.9841 227.14407,-169.73192l390.21281,390.21281c-19.82495,98.99291 -83.90061,181.81247 -170.55945,227.56333z" fill="url(#color-3)"/><path d="M-45.97041,104.90852c127.04816,128.37192 254.86835,255.97151 383.06356,383.18491c-31.61858,10.02851 -65.15671,15.72102 -100.09607,15.72102c-182.98196,0 -331.32213,-148.34034 -331.32213,-331.32213c0,-35.10493 5.7477,-68.80848 15.86464,-100.55954c10.84474,10.97723 21.63445,22.00932 32.49017,32.97575z" fill="url(#color-4)"/></g><g><g fill="#ffffff" stroke-width="2.68557"><path d="M401.32413,371.5361c-26.38917,10.91443 -51.90755,19.10547 -74.20134,22.93541c-18.83233,3.23229 -56.63027,7.22463 -76.1567,7.22463c-23.37094,0 -73.33769,-2.78191 -103.31335,-12.81813c-40.14459,-13.45288 -90.62052,-48.60904 -115.11313,-88.16312c-52.21751,-84.25954 30.42575,-184.5324 25.6588,-178.73226l-16.47853,-139.54666l95.03355,62.90304c0,0 33.1931,-13.3644 68.09069,-15.02465c13.03961,-0.62733 36.49931,0.61991 47.85641,1.67508l21.06111,-8.15449l54.82988,-54.01789l21.06111,85.23337c0,0 47.93005,34.9421 61.62639,59.34623c20.69207,36.86807 19.39344,76.35592 19.39344,76.35592c0,0 54.74855,8.35344 65.61131,55.92929c10.84793,47.57585 -24.87648,95.82328 -94.95963,124.85423zM136.78283,45.339l15.01723,15.04691M286.47644,40.94822c0,0 -17.21633,-7.62306 -31.97553,-10.08046" stroke="#ffffff"/><path d="M493.47217,248.59327c10.86249,47.57585 -26.79503,92.5245 -96.88587,121.54802c-26.38917,10.90701 -59.93647,20.69235 -82.31105,23.88012c-20.34557,2.90035 -75.13094,4.33912 -75.13094,4.33912c-7.99952,-2.12518 -12.50103,-3.59363 -25.6217,-8.4051c-47.25133,-17.3419 -114.94359,-53.16222 -111.30545,-115.13539c0.55342,-9.50478 4.86313,-17.0542 11.01033,-23.04615c18.44873,-17.96182 53.45706,-21.81402 53.45706,-21.81402l57.44225,-25.21584c0,0 50.48335,23.82104 82.73916,16.80333c10.07331,-2.19195 16.98771,-6.16203 21.75494,-10.58963c10.44207,-9.69686 10.47889,-21.57056 10.47889,-21.6442l67.24958,-19.6369l21.2606,22.92799c0,0 54.98486,8.38339 65.86219,55.98865z" stroke="none"/></g><g fill="#ffffff" stroke-width="2.68557"><path d="M217.23441,138.74885c21.59254,33.06038 19.31952,72.77713 -5.03295,88.66515c-24.37445,15.93226 -61.63381,2.0073 -83.20409,-31.05308c-21.6071,-33.06038 -19.36376,-72.76202 5.00327,-88.67972c24.36731,-15.91028 61.61925,-2.0073 83.23377,31.06765" stroke="#ffffff"/><path d="M204.03982,182.19965c0,7.97726 -5.92572,14.44183 -13.29049,14.44183c-7.32052,0 -13.31274,-6.47941 -13.31274,-14.44183c0,-7.96984 5.99222,-14.44183 13.31274,-14.44183c7.34993,0 13.29049,6.47199 13.29049,14.44183" stroke="none"/></g><g fill="#ffffff" stroke-width="2.68557"><path d="M392.29885,116.01266c21.58512,33.05296 24.22689,69.50775 3.63072,82.96805c-20.61101,13.46745 -52.9924,-4.07368 -74.56268,-37.14862c-21.6442,-33.06011 -22.72163,-67.40455 -2.11062,-80.87228c20.56677,-13.45288 51.44262,1.9779 73.04258,35.05284" stroke="#ffffff"/><path d="M388.60162,167.55118c0,7.96984 -5.9183,14.43441 -13.28307,14.43441c-7.32794,0 -13.31274,-6.47172 -13.31274,-14.43441c0,-7.96984 5.9848,-14.44898 13.31274,-14.44898c7.36477,0 13.28307,6.47914 13.28307,14.44898" stroke="none"/></g><path d="M305.03591,207.43033c13.68178,0 33.62122,-2.09578 34.6544,4.1987c1.07001,6.30959 -12.61177,31.01626 -22.04264,32.06429c-9.46054,1.04775 -45.1998,-17.36416 -45.70897,-28.92048c-0.546,-11.55632 20.47087,-7.34251 33.0972,-7.34251" fill="#ffffff" stroke="#ffffff" stroke-width="2.68557"/><path d="M26.19319,240.37228c-0.16954,-0.1253 -17.57794,-12.98795 -44.29191,-24.80971c-29.60662,-13.11352 -46.21787,-16.67775 -46.37285,-16.71485l1.80808,-8.67081c0.70097,0.14756 17.57052,3.73404 48.15125,17.28282c27.68066,12.2573 45.2586,25.2675 45.98925,25.8135l-5.28382,7.09905z" fill="#ffffff" stroke="none" stroke-width="2.68557"/><path d="M-18.98407,274.70189c-15.0175,0 -37.57673,-2.0367 -38.65416,-2.1326l0.78973,-8.81865c0.30254,0.02968 30.16745,2.70827 43.44338,1.96306c13.43063,-0.76747 39.93795,-4.26547 40.19625,-4.3023l1.15849,8.77441c-1.09227,0.14756 -27.08273,3.57164 -40.8604,4.3611c-1.78582,0.11074 -3.8522,0.15498 -6.07328,0.15498z" fill="#ffffff" stroke="none" stroke-width="2.68557"/><path d="M467.29706,232.05566l-1.43163,-8.74473c0.33936,-0.05166 33.3849,-5.49046 49.89283,-11.23895c18.98759,-6.59729 31.92387,-17.82168 32.06401,-17.93241l5.83724,6.65637c-0.57567,0.50176 -14.37533,12.47877 -34.99376,19.6369c-17.22375,6.00706 -49.98873,11.3942 -51.3687,11.62282z" fill="#ffffff" stroke="none" stroke-width="2.68557"/><path d="M533.91188,287.43154c-5.99222,0 -14.05796,-0.2583 -23.53334,-1.20273c-21.09051,-2.11062 -41.20718,-10.17636 -42.05572,-10.52313l3.32077,-8.20615c0.19922,0.08106 19.82128,7.93302 39.61316,9.91806c19.71824,1.97048 33.34066,0.81913 33.46624,0.81171l0.76747,8.81865c-0.31738,0.0294 -4.51635,0.3836 -11.57858,0.3836z" fill="#ffffff" stroke="none" stroke-width="2.68557"/><path d="M209.16867,261.36716c0,0 76.35592,22.53697 104.91452,28.75067c28.53661,6.21342 80.0754,12.42711 80.0754,12.42711c0,0 -58.95522,75.60329 -127.86504,56.41649c-68.91752,-19.16482 -67.67769,-62.61534 -57.12488,-97.59427z" fill="#f9ae2a" stroke="#f9ae2a" stroke-width="5.37114"/></g></g></g></svg>