<svg version="1.1" xmlns="http://www.w3.org/2000/svg" xmlns:xlink="http://www.w3.org/1999/xlink" width="100.06777" height="93.67059" viewBox="0,0,100.06777,93.67059"><defs><linearGradient x1="192.21618" y1="136.25367" x2="289.78391" y2="136.25367" gradientUnits="userSpaceOnUse" id="color-1"><stop offset="0" stop-color="#ff866e"/><stop offset="1" stop-color="#ff6242"/></linearGradient></defs><g transform="translate(-190.96611,-87.46004)"><g stroke-miterlimit="10"><path d="M289.14108,134.42165c-3.10231,17.0212 -7.77213,24.4565 -23.20322,38.65344c-16.51824,15.19714 -14.22989,0.19622 -25.30417,0.19622c-9.96811,0 -8.39566,13.56327 -23.08772,0.77757c-11.68314,-10.16724 -25.32986,-23.93262 -25.32986,-42.2176c0,-14.32962 1.4969,-25.38676 9.91308,-34.91838c3.20876,-3.63403 9.04299,-8.30295 12.48157,-6.45409c7.13682,3.83732 12.08739,4.94561 20.68311,4.94561c6.87941,0 -4.09152,2.42329 25.29022,-6.07268c18.1092,-5.23643 32.45234,23.71744 28.55696,45.08989z" fill="url(#color-1)" stroke="#45413c" stroke-width="2.5"/><path d="M220.6745,102.82379c0,3.24639 -3.24639,3.2464 -3.24639,3.2464l-1.3478,-0.13692c-3.72268,0.6719 -3.37537,2.95554 -5.40197,6.21326c0,0 -1.72059,2.75294 -4.47353,1.03235c-2.75294,-1.72059 -1.03235,-4.47353 -1.03235,-4.47353c3.18596,-5.07066 3.02626,-6.81511 9.04216,-8.99105l3.21352,-0.13692c0,0 3.24639,0 3.24639,3.24639z" fill="#ffd9c6" stroke="none" stroke-width="0.5"/></g></g></svg>