<svg version="1.1" xmlns="http://www.w3.org/2000/svg" xmlns:xlink="http://www.w3.org/1999/xlink" width="34.1222" height="32.28751" viewBox="0,0,34.1222,32.28751"><defs><linearGradient x1="229.82385" y1="181.48527" x2="246.4325" y2="181.48527" gradientUnits="userSpaceOnUse" id="color-1"><stop offset="0" stop-color="#ff866e"/><stop offset="1" stop-color="#ff6242"/></linearGradient><radialGradient cx="237.13909" cy="171.84092" r="4.15415" gradientUnits="userSpaceOnUse" id="color-2"><stop offset="0" stop-color="#9ceb60"/><stop offset="1" stop-color="#6dd627"/></radialGradient><radialGradient cx="236.67874" cy="172.94293" r="0.82206" gradientUnits="userSpaceOnUse" id="color-3"><stop offset="0" stop-color="#9ceb60"/><stop offset="1" stop-color="#6dd627"/></radialGradient></defs><g transform="translate(-222.9389,-163.85623)"><g data-paper-data="{&quot;isPaintingLayer&quot;:true}" fill-rule="nonzero" stroke-width="0.5" stroke-linejoin="miter" stroke-miterlimit="10" stroke-dasharray="" stroke-dashoffset="0" style="mix-blend-mode: normal"><path d="M246.32308,181.1734c-0.5281,2.89746 -0.52863,4.47523 -3.15542,6.89193c-2.81185,2.58696 -3.27344,0.06177 -5.15858,0.06177c-1.69684,0 -2.11007,2.39395 -4.61106,0.21748c-1.98878,-1.73074 -3.57417,-4.49954 -3.57417,-7.61213c0,-2.43929 0.25481,-4.32151 1.68747,-5.94404c0.54622,-0.61861 1.53936,-1.41338 2.1247,-1.09866c1.21488,0.65321 2.0576,0.84187 3.52082,0.84187c1.17106,0 -0.69649,0.41251 4.30507,-1.03373c3.08267,-0.89138 5.52426,4.03734 4.86116,7.67551z" fill="url(#color-1)" stroke="#45413c" stroke-linecap="butt"/><path d="M234.66822,175.79459c0,0.55262 -0.55262,0.55262 -0.55262,0.55262l-0.22943,-0.02331c-0.6337,0.11438 -0.57458,0.50311 -0.91956,1.05766c0,0 -0.29289,0.46862 -0.76151,0.17573c-0.46862,-0.29289 -0.17573,-0.76151 -0.17573,-0.76151c0.54234,-0.86316 0.51515,-1.16011 1.53922,-1.53052l0.54703,-0.02331c0,0 0.55262,0 0.55262,0.55262z" fill="#ffd9c6" stroke="none" stroke-linecap="butt"/><path d="M228.36871,178.5718c-0.49428,-0.24714 -0.24714,-0.74142 -0.24714,-0.74142l0.04229,-0.05516c0.1792,-0.71347 0.28139,-1.42757 0.41307,-2.15227c0,0 0.09886,-0.54371 0.64256,-0.44485c0.54371,0.09886 0.44485,0.64256 0.44485,0.64256c-0.13619,0.74858 -0.2446,1.48486 -0.42825,2.22262l-0.12598,0.28137c0,0 -0.24714,0.49428 -0.74142,0.24714z" fill="#ff5500" stroke="none" stroke-linecap="butt"/><path d="M243.68206,177.50806c-0.52426,0.17475 -0.69902,-0.34951 -0.69902,-0.34951l-0.16957,-0.50876c-0.44054,-1.37142 -0.53012,-2.82534 -0.61503,-4.26083c0,0 -0.03245,-0.55167 0.51922,-0.58412c0.55167,-0.03245 0.58412,0.51922 0.58412,0.51922c0.07805,1.33447 0.14396,2.71198 0.56283,3.98415l0.16696,0.50083c0,0 0.17475,0.52426 -0.34951,0.69902z" fill="#00ff83" stroke="none" stroke-linecap="butt"/><path d="M239.71082,186.56964c-0.24714,0.49428 -0.74142,0.24714 -0.74142,0.24714l-0.51841,-0.25945c-2.21239,-1.26623 -3.21707,-3.42363 -5.89564,-3.89775c0,0 -0.54371,-0.09886 -0.44485,-0.64256c0.09886,-0.54371 0.64256,-0.44485 0.64256,-0.44485c0.94599,0.17596 2.00339,0.44448 2.8111,1.00626c1.27762,0.88862 2.03911,2.22343 3.40834,3.00444l0.49118,0.24535c0,0 0.49428,0.24714 0.24714,0.74142z" fill="#ff0032" stroke="none" stroke-linecap="butt"/><path d="M245.42288,187.67511c-0.17475,-0.52426 0.34951,-0.69902 0.34951,-0.69902l0.65967,-0.20902c1.13512,-1.00343 2.11327,-2.01827 2.2459,-3.52337c0,0 0.05003,-0.55036 0.60039,-0.50032c0.55036,0.05003 0.50032,0.60039 0.50032,0.60039c-0.17634,1.88779 -1.36744,3.18245 -2.80205,4.38509l-0.85471,0.29577c0,0 -0.52426,0.17475 -0.69902,-0.34951z" fill="#002eff" stroke="none" stroke-linecap="butt"/><path d="M239.13241,180.81758c-0.55262,0 -0.55262,-0.55262 -0.55262,-0.55262l0.00191,-0.13003c0.18486,-2.2121 0.48782,-4.80628 -0.14891,-6.95355c0,0 -0.15182,-0.53136 0.37954,-0.68318c0.53136,-0.15182 0.68318,0.37954 0.68318,0.37954c0.64188,2.31435 0.3852,4.97145 0.18762,7.34897l0.00191,0.03824c0,0 0,0.55262 -0.55262,0.55262z" fill="#00ff14" stroke="none" stroke-linecap="butt"/><path d="M232.16888,189.10536c-0.17475,0.52426 -0.69902,0.34951 -0.69902,0.34951l-0.30632,-0.10531c-3.04527,-1.40501 -3.22097,-4.19901 -4.0866,-7.0749c0,0 -0.15879,-0.52932 0.37052,-0.68811c0.52932,-0.15879 0.68811,0.37052 0.68811,0.37052c0.74595,2.49426 0.81407,5.19345 3.48532,6.38631l0.19848,0.06296c0,0 0.52426,0.17475 0.34951,0.69902z" fill="#0009ff" stroke="none" stroke-linecap="butt"/><path d="M234.22976,184.6772c-0.54215,-0.10709 -0.43505,-0.64924 -0.43505,-0.64924l0.12835,-0.64184c0.73063,-2.04829 1.40977,-4.10999 1.98334,-6.20893c0.3137,-1.14796 0.36377,-2.40634 0.88081,-3.46931c0,0 0.24714,-0.49428 0.74142,-0.24714c0.49428,0.24714 0.24714,0.74142 0.24714,0.74142c-0.49474,0.95346 -0.51469,2.20997 -0.80184,3.26129c-0.57394,2.1013 -1.24836,4.16831 -1.98552,6.21693l-0.10941,0.56176c0,0 -0.10709,0.54215 -0.64924,0.43505z" fill="#00ff39" stroke="none" stroke-linecap="butt"/><path d="M235.23921,183.00165c-0.54924,0.06103 -0.61027,-0.48822 -0.61027,-0.48822l-0.07905,-0.72188c-0.67829,-2.7606 -1.53565,-5.56545 -2.88617,-8.07771c-0.47071,-0.87561 -1.25025,-2.22059 -2.25644,-2.41973c0,0 -0.53612,-0.13403 -0.40209,-0.67015c0.13403,-0.53612 0.67015,-0.40209 0.67015,-0.40209c1.37982,0.38971 2.28746,1.72555 2.95977,2.96475c1.41501,2.60812 2.30404,5.53986 3.0031,8.41226l0.08922,0.79251c0,0 0.06103,0.54924 -0.48822,0.61027z" fill="#00c2ff" stroke="none" stroke-linecap="butt"/><path d="M241.03171,175.08342c-0.53946,-0.11988 -0.41958,-0.65935 -0.41958,-0.65935l0.15551,-0.65852c-0.17461,-1.0811 -0.24946,-2.95457 -1.26871,-3.55734c0,0 -0.45981,-0.30654 -0.15327,-0.76635c0.30654,-0.45981 0.76635,-0.15327 0.76635,-0.15327c1.37471,0.97998 1.55449,2.93716 1.76006,4.51938l-0.18102,0.85587c0,0 -0.11988,0.53946 -0.65935,0.41958z" fill="#ff0000" stroke="none" stroke-linecap="butt"/><path d="M230.29324,185.97546c-0.49428,0.24714 -0.74142,-0.24714 -0.74142,-0.24714l-0.19131,-0.38934c-0.3333,-0.90172 -0.60688,-1.46138 -1.40239,-2.01622c0,0 -0.44969,-0.32121 -0.12848,-0.77089c0.32121,-0.44969 0.77089,-0.12848 0.77089,-0.12848c0.96321,0.70087 1.37457,1.42399 1.79464,2.52693l0.14522,0.28372c0,0 0.24714,0.49428 -0.24714,0.74142z" fill="#ff0000" stroke="none" stroke-linecap="butt"/><path d="M243.11765,182.73687c-0.28446,-0.47378 0.18932,-0.75825 0.18932,-0.75825l0.70781,-0.42333c1.72834,-1.40211 3.40166,-3.2039 4.99103,-4.794c0,0 0.39076,-0.39076 0.78153,0c0.39076,0.39076 0,0.78153 0,0.78153c-1.63945,1.63873 -3.35949,3.46238 -5.13734,4.91694l-0.77411,0.46643c0,0 -0.47378,0.28446 -0.75825,-0.18932z" fill="#ff0000" stroke="none" stroke-linecap="butt"/><path d="M232.33493,173.62237c-0.42454,0.35378 -0.77832,-0.07076 -0.77832,-0.07076l-0.42066,-0.5048c-1.06639,-1.27984 -2.09559,-1.4271 -3.69538,-1.92989c0,0 -0.5272,-0.16569 -0.36151,-0.69289c0.16569,-0.5272 0.69289,-0.36151 0.69289,-0.36151c1.7934,0.56364 2.98952,0.80865 4.21307,2.27673l0.42066,0.5048c0,0 0.35378,0.42454 -0.07076,0.77832z" fill="#ff0000" stroke="none" stroke-linecap="butt"/><path d="M236.15674,180.528c-0.33005,-0.12762 -0.36704,-0.38486 -0.35095,-0.5534c-0.42101,-0.24967 -0.19965,-0.70741 -0.19965,-0.70741l0.15422,-0.30866c0.49933,-1.47732 1.32079,-2.87527 2.1871,-4.21192c0.18505,-0.67317 0.27886,-1.32471 0.21394,-1.9194c0,0 -0.05003,-0.55036 0.50032,-0.60039c0.55036,-0.05003 0.60039,0.50032 0.60039,0.50032c0.01045,0.13566 0.01487,0.2726 0.01374,0.41065c0.0977,-0.0038 0.20912,0.02353 0.33137,0.10503c0.45981,0.30654 0.15327,0.76635 0.15327,0.76635c-0.28617,0.42926 -0.58046,0.86554 -0.87031,1.30928c-0.51106,1.64981 -1.4127,3.32618 -1.97047,4.76868l-0.04823,0.12474c0,0 -0.1993,0.51543 -0.71474,0.31613z" fill="#beff00" stroke="none" stroke-linecap="butt"/><path d="M244.03081,171.43506c0.50079,-0.23368 0.73447,0.2671 0.73447,0.2671l0.02006,0.043c0.8887,1.90451 1.66085,3.89114 2.48594,5.84119c0.15089,0.04123 0.30071,0.08608 0.44913,0.13517c0,0 0.52426,0.17475 0.34951,0.69902c-0.06447,0.19342 -0.17652,0.29169 -0.29225,0.3387c0.31159,0.70494 0.63479,1.40181 0.97785,2.08484c0.93475,1.86106 2.07235,3.01561 2.20242,5.19538c0,0 0.03066,0.55177 -0.52112,0.58242c-0.55177,0.03066 -0.58242,-0.52112 -0.58242,-0.52112c-0.10096,-1.98491 -1.22983,-3.05494 -2.08654,-4.76061c-0.34939,-0.69562 -0.67827,-1.40543 -0.99529,-2.12343c-1.64693,2.4544 -3.73409,4.27623 -6.17951,5.98206l-0.54044,0.27189c0,0 -0.22024,0.11012 -0.4402,0.03633c0.10876,0.09754 0.1957,0.25484 0.14603,0.50322c-0.10838,0.54189 -0.65027,0.43351 -0.65027,0.43351l-0.44632,-0.0899c-0.50336,-0.12818 -0.99371,-0.31623 -1.45923,-0.54664c0,0 -0.49428,-0.24714 -0.24714,-0.74142c0.24714,-0.49428 0.74142,-0.24714 0.74142,-0.24714c0.39173,0.19821 0.80655,0.3587 1.23301,0.46295l0.39501,0.07836c0,0 0.04549,0.0091 0.10747,0.0352c-0.04411,-0.04356 -0.08527,-0.09976 -0.12121,-0.17163c-0.24714,-0.49428 0.24714,-0.74142 0.24714,-0.74142l0.46915,-0.2329c2.35882,-1.65751 4.37286,-3.4119 5.94213,-5.81975c-0.11907,-0.02063 -0.23832,-0.03981 -0.35756,-0.05792l-0.00275,0.00622c0,0 -0.55262,-0.00132 -0.5513,-0.55394c0.00132,-0.55262 0.55394,-0.5513 0.55394,-0.5513l0.16817,0.00663c0.05925,0.00922 0.1185,0.01868 0.17773,0.02843c-0.71091,-1.70835 -1.39834,-3.43264 -2.17406,-5.09503l-0.02006,-0.043c0,0 -0.23368,-0.50079 0.2671,-0.73447z" fill="#beff00" stroke="none" stroke-linecap="butt"/><path d="M235.5254,174.31723c-0.44634,-0.32584 -0.12049,-0.77218 -0.12049,-0.77218l0.07871,-0.10781c1.76476,-2.41735 3.54063,-4.78569 6.14085,-6.35015c0,0 0.47387,-0.28432 0.75819,0.18955c0.28432,0.47387 -0.18955,0.75819 -0.18955,0.75819c-2.46918,1.47708 -4.14452,3.7634 -5.81682,6.0541l-0.07871,0.10781c0,0 -0.32584,0.44634 -0.77218,0.12049z" fill="#beff00" stroke="none" stroke-linecap="butt"/><path d="M231.10615,177.44459c-0.12426,-0.53847 0.41421,-0.66273 0.41421,-0.66273l0.03356,-0.00775c1.02906,-0.23748 2.02213,-0.45229 3.01475,-0.81446c0,0 0.51935,-0.18886 0.70821,0.3305c0.18886,0.51935 -0.3305,0.70821 -0.3305,0.70821c-1.03604,0.37556 -2.07093,0.60508 -3.14393,0.8527l-0.03356,0.00775c0,0 -0.53847,0.12426 -0.66273,-0.41421z" fill="#beff00" stroke="none" stroke-linecap="butt"/><path d="M233.9162,175.85377c-0.55262,0 -0.55262,-0.55262 -0.55262,-0.55262v-0.42066c0,-1.69507 0.0993,-3.32193 0.4314,-4.98806c0,0 0.10838,-0.54189 0.65027,-0.43351c0.54189,0.10838 0.43351,0.65027 0.43351,0.65027c-0.31992,1.59391 -0.40993,3.14968 -0.40993,4.77131v0.42066c0,0 0,0.55262 -0.55262,0.55262z" fill="#00ff2c" stroke="none" stroke-linecap="butt"/><path d="M247.06989,172.76185c-0.1191,0.16674 -0.25587,0.2275 -0.38082,0.23793c0.11668,0.2111 0.03474,0.45694 0.03474,0.45694c-1.42854,4.21585 -5.68028,7.96948 -9.78736,9.47209l-0.81221,0.29535c0,0 -0.51935,0.18886 -0.70821,-0.3305c-0.18886,-0.51935 0.3305,-0.70821 0.3305,-0.70821l0.81221,-0.29535c3.75782,-1.35736 7.84847,-4.90261 9.11654,-8.7829c0,0 0.10717,-0.32152 0.40544,-0.37705l-0.28946,-0.2124c-0.75628,-0.2036 -1.51818,-0.32878 -2.29068,-0.45747c0,0 -0.5451,-0.09085 -0.45425,-0.63595c0.09085,-0.5451 0.63595,-0.45425 0.63595,-0.45425c0.88206,0.14707 1.732,0.29755 2.589,0.55212l0.67012,0.46876c0,0 0.44969,0.32121 0.12848,0.77089z" fill="#00ff2c" stroke="none" stroke-linecap="butt"/><path d="M231.59047,182.74395c-0.45981,-0.30654 -0.15327,-0.76635 -0.15327,-0.76635l0.10468,-0.12321c0.29681,-0.87459 0.49517,-1.78045 0.62151,-2.6989c-0.17042,-0.3676 -0.34569,-0.73252 -0.51522,-1.09766c0,0 -0.23272,-0.50123 0.26852,-0.73395c0.16652,-0.07731 0.3034,-0.07362 0.41196,-0.03421c0.01834,-0.41098 0.02601,-0.82197 0.02533,-1.23134c0,0 0,-0.55262 0.55262,-0.55262c0.55262,0 0.55262,0.55262 0.55262,0.55262c-0.00147,0.9741 -0.04644,1.95387 -0.16247,2.92283c0.36495,0.80811 0.69711,1.63069 0.90307,2.49553c0.3064,1.28651 0.39192,2.52717 1.14687,3.65048l0.53031,0.1731c0,0 0.51744,0.19404 0.3234,0.71148c-0.0299,0.07974 -0.06748,0.14258 -0.10966,0.19184c1.36993,0.94045 2.39285,2.22215 3.60069,3.42999l0.23514,0.04593c0,0 0.5131,0.20524 0.30786,0.71833c-0.20524,0.5131 -0.71833,0.30786 -0.71833,0.30786l-0.60619,-0.2906c-1.40379,-1.40379 -2.54827,-2.99782 -4.38609,-3.84421c0,0 -0.50078,-0.2337 -0.26708,-0.73448c0.0444,-0.09514 0.09843,-0.16377 0.15685,-0.21253c-0.77516,-1.22539 -0.94216,-2.42317 -1.28583,-3.87841c-0.05648,-0.23918 -0.12362,-0.47497 -0.19905,-0.70801c-0.09683,0.39489 -0.20951,0.78583 -0.34004,1.17164l-0.23185,0.38159c0,0 -0.30654,0.45981 -0.76635,0.15327z" fill="#00ff2c" stroke="none" stroke-linecap="butt"/><path d="M243.17573,181.84205c0.4421,-0.33157 0.77367,0.11052 0.77367,0.11052l0.34644,0.46192c0.26282,0.35683 0.55227,0.668 0.86466,0.9409c0.65626,-3.85743 1.41576,-7.71706 2.35382,-11.46945c0,0 0.13403,-0.53612 0.67015,-0.40209c0.53612,0.13403 0.40209,0.67015 0.40209,0.67015c-0.97384,3.89522 -1.75431,7.9073 -2.42587,11.91153c0.76548,0.44032 1.62073,0.73669 2.52858,0.96365c0,0 0.53612,0.13403 0.40209,0.67015c-0.13403,0.53612 -0.67015,0.40209 -0.67015,0.40209c-0.87583,-0.21896 -1.69663,-0.50273 -2.44959,-0.89161c-0.2299,1.41189 -0.44724,2.82133 -0.65575,4.22284l0.00603,0.08688c0,0 0,0.55262 -0.55262,0.55262c-0.55262,0 -0.55262,-0.55262 -0.55262,-0.55262l0.00603,-0.24965c0.23158,-1.554 0.47382,-3.11761 0.73177,-4.68351c-0.56715,-0.41058 -1.08383,-0.90591 -1.54282,-1.50874l-0.34644,-0.46192c0,0 -0.33157,-0.4421 0.11052,-0.77367z" fill="#00ff2c" stroke="none" stroke-linecap="butt"/><path d="M250.3667,181.6492c0.55081,0.04468 0.50614,0.59549 0.50614,0.59549l-0.03798,0.4682c-0.14953,1.84352 -0.36993,3.66945 -0.55735,5.50757c-0.1222,1.19853 -0.03879,1.67608 -0.94783,2.48082c0,0 -0.42454,0.35378 -0.77832,-0.07076c-0.35378,-0.42454 0.07076,-0.77832 0.07076,-0.77832c0.67771,-0.51011 0.46434,-0.83612 0.55578,-1.74324c0.12559,-1.24578 0.26843,-2.48587 0.39382,-3.72967c-0.12161,0.07206 -0.29042,0.10566 -0.50643,-0.00235c-0.49428,-0.24714 -0.24714,-0.74142 -0.24714,-0.74142l0.11992,-0.19402c0.36642,-1.89973 0.77372,-3.58891 -0.19634,-5.35438c0,0 -0.262,-0.48657 0.22457,-0.74857c0.48657,-0.262 0.74857,0.22457 0.74857,0.22457c0.73875,1.39567 0.80958,2.70096 0.64583,4.08561c0.00199,0.00015 0.00399,0.0003 0.006,0.00046z" fill="#00ff2c" stroke="none" stroke-linecap="butt"/><path d="M249.07714,166.20137c0.18173,0.52189 -0.34016,0.70362 -0.34016,0.70362l-0.02886,0.01005c-4.24766,1.4791 -8.49383,2.88215 -12.77849,4.20287c0,0 -0.52818,0.16252 -0.6907,-0.36567c-0.16252,-0.52818 0.36567,-0.6907 0.36567,-0.6907c4.27335,-1.31262 8.50485,-2.71551 12.74007,-4.19028l0.02886,-0.01005c0,0 0.52189,-0.18173 0.70362,0.34016z" fill="#00ff2c" stroke="none" stroke-linecap="butt"/><path d="M239.54321,181.47174c-0.19655,-0.51649 0.31994,-0.71304 0.31994,-0.71304l0.86048,-0.32374c1.75067,-1.09022 1.40722,-3.90388 1.76995,-5.75025c0.09184,-0.46745 0.27914,-0.90913 0.45609,-1.35353c-0.29235,-0.46512 -0.59949,-0.91381 -0.92782,-1.33819c-0.69924,-0.9038 -1.25379,-1.96923 -2.29676,-2.4681c0,0 -0.49428,-0.24714 -0.24714,-0.74142c0.24714,-0.49428 0.74142,-0.24714 0.74142,-0.24714c1.56683,0.80919 2.57932,2.35179 3.43053,3.95816c0.05444,0.00336 0.11376,0.01516 0.17827,0.03774c0.5216,0.18256 0.33904,0.70416 0.33904,0.70416c-0.01866,0.05331 -0.03675,0.10706 -0.05432,0.16121c0.30341,0.6059 0.59434,1.20306 0.89385,1.7556c0.69524,1.28256 1.51303,2.51375 2.26945,3.76117l0.51532,0.84983c0,0 0.28654,0.47253 -0.186,0.75907c-0.47253,0.28654 -0.75907,-0.186 -0.75907,-0.186l-0.51532,-0.84983c-0.9054,-1.49311 -1.68514,-3.16068 -2.55293,-4.7387c-0.46845,2.44052 -0.50107,5.24431 -2.5483,6.6687l-0.97365,0.37425c0,0 -0.51649,0.19655 -0.71304,-0.31994z" fill="#00ffe6" stroke="none" stroke-linecap="butt"/><path d="M240.66098,187.65553c-0.52043,-0.18587 -0.33456,-0.7063 -0.33456,-0.7063l0.06557,-0.1836c0.33995,-0.94667 0.58622,-1.50623 0.3527,-2.48434c0,0 -0.11988,-0.53946 0.41958,-0.65935c0.53946,-0.11988 0.65935,0.41958 0.65935,0.41958c0.25128,1.19816 0.01639,1.95 -0.39077,3.09583l-0.06557,0.1836c0,0 -0.18587,0.52043 -0.7063,0.33456z" fill="#00ffe6" stroke="none" stroke-linecap="butt"/><path d="M230.67347,186.61033c0,-0.55262 0.55262,-0.55262 0.55262,-0.55262c0.73683,0 2.41178,0 3.14861,0c0,0 0.55262,0 0.55262,0.55262c0,0.55262 -0.55262,0.55262 -0.55262,0.55262c-0.73683,0 -1.47366,0 -2.21049,0h-0.93812c0,0 -0.55262,0 -0.55262,-0.55262z" fill="#00ffe6" stroke="none" stroke-linecap="butt"/><path d="M242.18662,175.32782c0,0.55262 -0.55262,0.55262 -0.55262,0.55262l-0.34054,-0.00555c-1.65738,-0.23734 -3.25343,-0.70237 -4.90587,-0.96328c0,0 -0.54586,-0.08619 -0.45967,-0.63205c0.08619,-0.54586 0.63205,-0.45967 0.63205,-0.45967c1.64741,0.26012 3.23802,0.72549 4.8898,0.96087l0.18423,-0.00555c0,0 0.55262,0 0.55262,0.55262z" fill="#00ffe6" stroke="none" stroke-linecap="butt"/><path d="M249.33402,173.94987c-0.54619,-0.08403 -0.46217,-0.63023 -0.46217,-0.63023l0.00686,-0.0446c0.26072,-1.68216 0.9839,-3.27062 1.16807,-4.95224c-0.04032,0.01562 -0.06717,0.02181 -0.06717,0.02181c-1.50479,0.34267 -2.97776,0.27449 -4.5164,0.27591l-0.68011,0.00063c0,0 -0.55262,0.00051 -0.55313,-0.55211c-0.00051,-0.55262 0.55211,-0.55313 0.55211,-0.55313l0.68011,-0.00063c1.44924,-0.00134 2.85453,0.08361 4.26889,-0.24761c0,0 0.21566,-0.04977 0.40551,0.05017c0.05973,-0.15272 0.19582,-0.32671 0.5059,-0.32671c0.55262,0 0.55262,0.55262 0.55262,0.55262c-0.00445,2.05347 -0.91765,3.89194 -1.22402,5.89933l-0.00686,0.0446c0,0 -0.08403,0.54619 -0.63023,0.46217z" fill="#00ffe6" stroke="none" stroke-linecap="butt"/><path d="M226.49179,176.48376c-0.54371,-0.09886 -0.44485,-0.64256 -0.44485,-0.64256l0.16824,-0.91284c-0.00083,-0.85848 -0.05196,-1.32952 -0.32372,-2.13707c0,0 -0.17475,-0.52426 0.34951,-0.69902c0.52426,-0.17475 0.69902,0.34951 0.69902,0.34951c0.31276,0.94628 0.37678,1.58118 0.37597,2.58584l-0.18161,1.0113c0,0 -0.09886,0.54371 -0.64256,0.44485z" fill="#00ffe6" stroke="none" stroke-linecap="butt"/><path d="M234.5321,193.11562c-0.05674,0.5497 -0.60644,0.49297 -0.60644,0.49297l-0.45378,-0.04684c-1.89384,-0.19703 -4.42479,-0.45197 -6.13497,-1.28825c0,0 -0.49428,-0.24714 -0.24714,-0.74142c0.24714,-0.49428 0.74142,-0.24714 0.74142,-0.24714c0.135,0.06948 0.27713,0.13446 0.42527,0.19531c0.12985,-0.19874 0.37951,-0.24457 0.37951,-0.24457l0.10445,-0.01917c0.81412,-0.14945 1.59048,-0.28821 2.36978,-0.49637c-0.10264,-0.02129 -0.20511,-0.04217 -0.30739,-0.06259c0,0 -0.54189,-0.10838 -0.43351,-0.65027c0.10838,-0.54189 0.65027,-0.43351 0.65027,-0.43351c3.21802,0.64472 6.66568,1.78854 9.95455,1.7808h0.94222c0,0 0.55262,0 0.55262,0.55262c0,0.55262 -0.55262,0.55262 -0.55262,0.55262h-0.94222c-2.7605,-0.00591 -5.60148,-0.76701 -8.3515,-1.4047c-0.01007,0.35561 -0.38497,0.48057 -0.38497,0.48057c-0.65175,0.21639 -1.29282,0.37324 -1.94393,0.50861c1.13562,0.21241 2.32912,0.31955 3.29163,0.41805l0.45378,0.04684c0,0 0.5497,0.05674 0.49297,0.60644z" fill="#00ffe6" stroke="none" stroke-linecap="butt"/><path d="M246.90705,192.8437c-0.19597,0 -0.36811,-0.10201 -0.46623,-0.25581c-0.35478,0.00116 -0.71083,-0.00012 -1.06937,-0.00012c0,0 -0.55262,0 -0.55262,-0.55262c0,-0.55262 0.55262,-0.55262 0.55262,-0.55262c1.25412,0 2.47831,0.02081 3.72476,-0.11867l0.05322,-0.00591c0,0 0.54924,-0.06103 0.61027,0.48822c0.06103,0.54924 -0.48822,0.61027 -0.48822,0.61027l-0.05322,0.00591c-0.61628,0.06801 -1.22681,0.09966 -1.83791,0.11417c-0.09678,0.16014 -0.27254,0.2672 -0.47331,0.2672z" fill="#00ffe6" stroke="none" stroke-linecap="butt"/><path d="M239.95608,175.01555c0,-0.55262 0.55262,-0.55262 0.55262,-0.55262l1.12824,0.00997c0.51842,0.20013 1.04847,0.37092 1.58292,0.52316c0,0 0.53136,0.15182 0.37954,0.68318c-0.15182,0.53136 -0.68318,0.37954 -0.68318,0.37954c-0.50316,-0.14417 -1.00531,-0.29888 -1.48829,-0.50057l-0.91923,0.00997c0,0 -0.55262,0 -0.55262,-0.55262z" fill="#8b00ff" stroke="none" stroke-linecap="butt"/><path d="M229.74885,178.2667c-0.17994,-0.52251 0.34256,-0.70245 0.34256,-0.70245l0.61289,-0.20341c0.58365,-0.45323 1.21903,-0.84408 1.87925,-1.176c0,0 0.49428,-0.24714 0.74142,0.24714c0.24714,0.49428 -0.24714,0.74142 -0.24714,0.74142c-0.65184,0.32395 -1.27101,0.71912 -1.8497,1.16066l-0.77684,0.2752c0,0 -0.52251,0.17994 -0.70245,-0.34256z" fill="#8b00ff" stroke="none" stroke-linecap="butt"/><path d="M227.55206,181.13796c-0.3639,-0.41589 0.05199,-0.7798 0.05199,-0.7798c0.27726,-0.2426 0.74647,-0.65317 1.02374,-0.89577c0,0 0.36557,-0.31987 0.71112,-0.01709c0.01418,-0.16365 0.09504,-0.45656 0.48752,-0.50017c0.54924,-0.06103 0.61027,0.48822 0.61027,0.48822c0.06911,0.73761 0.56834,1.47303 1.18878,1.87787l0.23208,0.15472c0,0 0.45981,0.30654 0.15327,0.76635c-0.30654,0.45981 -0.76635,0.15327 -0.76635,0.15327l-0.23208,-0.15472c-1.0805,-0.73317 -1.39092,-1.02977 -1.57723,-2.02593c-0.0424,0.05673 -0.07958,0.08926 -0.07958,0.08926c-0.27726,0.2426 -0.55452,0.48521 -0.83178,0.72781l-0.19195,0.16796c0,0 -0.41589,0.3639 -0.7798,-0.05199z" fill="#8b00ff" stroke="none" stroke-linecap="butt"/><path d="M237.5987,183.55221c-0.09085,0.5451 -0.63595,0.45425 -0.63595,0.45425c-0.3634,-0.06057 -1.1722,-0.19537 -1.5356,-0.25594c0,0 -0.5451,-0.09085 -0.45425,-0.63595c0.09085,-0.5451 0.63595,-0.45425 0.63595,-0.45425c0.3634,0.06057 0.72681,0.12113 1.09021,0.1817l0.4454,0.07423c0,0 0.5451,0.09085 0.45425,0.63595z" fill="#8b00ff" stroke="none" stroke-linecap="butt"/><path d="M246.13318,182.71782c-0.53612,-0.13403 -0.40209,-0.67015 -0.40209,-0.67015l0.11254,-0.41231c0.22194,-3.551 0.4992,-7.55945 2.24391,-10.72719c0,0 0.26838,-0.48308 0.75146,-0.2147c0.48308,0.26838 0.2147,0.75146 0.2147,0.75146c-1.67795,2.991 -1.89684,6.89727 -2.10697,10.25938l-0.14339,0.61143c0,0 -0.13403,0.53612 -0.67015,0.40209z" fill="#8b00ff" stroke="none" stroke-linecap="butt"/><path d="M242.61887,179.43221c-0.44969,-0.32121 -0.12848,-0.77089 -0.12848,-0.77089l0.6436,-0.90097c0.12924,-0.17234 0.25848,-0.34469 0.38772,-0.51703c0,0 0.33157,-0.4421 0.77367,-0.11052c0.4421,0.33157 0.11052,0.77367 0.11052,0.77367c-0.12669,0.1689 -0.25338,0.3378 -0.38008,0.50671l-0.63607,0.89056c0,0 -0.32121,0.44969 -0.77089,0.12848z" fill="#8b00ff" stroke="none" stroke-linecap="butt"/><path d="M234.58743,189.04488c-0.08094,-0.54666 0.46572,-0.6276 0.46572,-0.6276l0.39971,-0.05918c0.57225,-0.08419 1.23314,-0.33889 1.83579,-0.3574c-0.03849,-0.1033 -0.04444,-0.23349 0.01964,-0.39369c0.20524,-0.5131 0.71833,-0.30786 0.71833,-0.30786l0.62788,0.25115c0.20988,0.07837 0.35934,0.28067 0.35934,0.51788c0,0.22061 -0.12927,0.41102 -0.31619,0.49963l-0.75709,0.37855l-0.05847,-0.11694c-0.65039,0.34597 -1.27672,0.47446 -2.26736,0.62201l-0.39971,0.05918c0,0 -0.54666,0.08094 -0.6276,-0.46572z" fill="#8b00ff" stroke="none" stroke-linecap="butt"/><path d="M226.56271,183.81896c0.53817,-0.12557 0.66374,0.41259 0.66374,0.41259l0.14233,0.61c0.32352,1.38654 0.68807,2.76228 0.8903,4.17219c0,0 0.07815,0.54707 -0.46892,0.62522c-0.54707,0.07815 -0.62522,-0.46892 -0.62522,-0.46892c-0.19597,-1.37771 -0.55641,-2.72268 -0.8725,-4.07735l-0.14233,-0.61c0,0 -0.12557,-0.53817 0.41259,-0.66374z" fill="#8b00ff" stroke="none" stroke-linecap="butt"/><path d="M226.857,182.30966v0.68629v1.10525c0,0 0,0.55262 -0.55262,0.55262c-0.55262,0 -0.55262,-0.55262 -0.55262,-0.55262v-1.10525v-0.68629" fill="#8b00ff" stroke="none" stroke-linecap="butt"/><path d="M235.10182,169.66261c0.10886,-1.46964 0.28328,-3.82428 0.39214,-5.29392c0,0 0.04082,-0.55111 0.59193,-0.51029c0.55111,0.04082 0.51029,0.59193 0.51029,0.59193c-0.10886,1.46964 -0.21772,2.93927 -0.32659,4.40891l-0.06555,0.88501c0,0 -0.00157,0.02114 -0.00822,0.05483c0.01559,0.10324 0.00352,0.18306 0.00352,0.18306l-0.2947,0.60687c-0.03745,0.02166 -0.07518,0.04326 -0.11318,0.06471c1.97787,0.0675 3.9608,0.22614 5.95045,0.22614h0.20837c0.00145,-0.09161 0.03064,-0.19452 0.10532,-0.30653c0.30654,-0.45981 0.76635,-0.15327 0.76635,-0.15327l0.84502,0.56334c0.83936,0.55957 1.45226,0.97345 2.38689,1.34408c0,0 0.5131,0.20524 0.30786,0.71833c-0.20524,0.5131 -0.71833,0.30786 -0.71833,0.30786c-0.99862,-0.40254 -1.69534,-0.85455 -2.58949,-1.45065l-0.0331,-0.02206c-0.15501,0.10415 -0.33666,0.10415 -0.33666,0.10415h-0.94222c-2.50882,0 -5.0138,-0.25956 -7.50359,-0.25594c0,0 -0.55262,0 -0.55262,-0.55262c0,-0.03134 0.00178,-0.06089 0.00513,-0.08878c-0.08965,-0.08163 -0.15909,-0.20808 -0.15909,-0.40397c0,-0.55262 0.55262,-0.55262 0.55262,-0.55262c0.35984,0.01637 0.70496,-0.15608 1.02354,-0.34827c-0.00976,-0.07062 -0.00608,-0.12029 -0.00608,-0.12029z" fill="#000000" stroke="none" stroke-linecap="butt"/><path d="M241.14759,189.51412c0.38462,0.39681 -0.01219,0.78143 -0.01219,0.78143l-0.4727,0.45312c-0.5096,0.28836 -0.964,0.76552 -1.16347,1.31602c0,0 -0.20524,0.5131 -0.71833,0.30786c-0.5131,-0.20524 -0.30786,-0.71833 -0.30786,-0.71833c0.15021,-0.35139 0.35872,-0.6866 0.61002,-0.98595c-0.44773,0 -0.89545,0 -1.34317,0h-0.81426c0,0 -0.55262,0 -0.55262,-0.55262c0,-0.55262 0.55262,-0.55262 0.55262,-0.55262c0.85535,0 2.47946,0 3.37837,0l0.06216,-0.06108c0,0 0.39681,-0.38462 0.78143,0.01219z" fill="#000000" stroke="none" stroke-linecap="butt"/><path d="M237.08747,186.42155l0.20836,-0.05209c0.11758,-0.0294 0.23278,-0.05736 0.34583,-0.0845c-0.01626,-0.31834 0.29526,-0.49141 0.29526,-0.49141l0.18554,-0.10308c0.91006,-0.50485 1.7282,-1.06757 2.58355,-1.65974c0,0 0.45436,-0.31456 0.76892,0.1398c0.23933,0.34571 0.03353,0.61048 -0.07858,0.71734c0.0575,0.03268 0.11519,0.08034 0.17111,0.14744c0.35378,0.42454 -0.07076,0.77832 -0.07076,0.77832c-0.53052,0.43641 -1.04372,0.72664 -1.57785,0.946c0.49373,0.07041 0.98868,0.11799 1.48562,0.11607h0.63984c0,0 0.55262,0 0.55262,0.55262c0,0.55262 -0.55262,0.55262 -0.55262,0.55262h-0.63984c-0.92313,-0.00313 -1.8313,-0.15366 -2.74049,-0.31458c-0.19507,0.31984 -0.59616,0.21956 -0.59616,0.21956l-0.20836,-0.05209c-1.53154,-0.38288 -2.62358,-0.30925 -3.62899,-1.52496c0,0 -0.33157,-0.4421 0.11052,-0.77367c0.4421,-0.33157 0.77367,0.11052 0.77367,0.11052c0.36886,0.58303 1.03127,0.76437 1.74803,0.88839c0.11004,-0.0839 0.22477,-0.11258 0.22477,-0.11258z" fill="#000000" stroke="none" stroke-linecap="butt"/><path d="M250.55571,189.70129c-0.39076,-0.39076 0,-0.78153 0,-0.78153l0.00276,-0.00276c0.22599,-0.22572 0.49691,-0.44931 0.78751,-0.67545c-0.3959,-0.0069 -0.49733,-0.42785 -0.49733,-0.42785l-0.19293,-0.8007c-0.45989,-1.9095 -0.50951,-4.50409 -1.33928,-6.36117c-0.03267,0.09457 -0.07705,0.1567 -0.07705,0.1567v0l-0.33794,0.47312c-0.39656,0.53098 -0.88438,1.06754 -1.50556,1.2985c0,0 -0.52426,0.17475 -0.69902,-0.34951c-0.17475,-0.52426 0.34951,-0.69902 0.34951,-0.69902c0.42103,-0.11269 0.71274,-0.53053 0.95569,-0.89239l0.33794,-0.47312c0,0 0.24845,-0.34783 0.61424,-0.21316c-0.0575,-0.14801 -0.12502,-0.46481 0.22782,-0.67651c0.47387,-0.28432 0.75819,0.18955 0.75819,0.18955c1.19655,2.03857 1.23571,4.98881 1.78995,7.28812l0.19293,0.8007c0,0 0.02653,0.1101 0.00573,0.24263c0.97682,-0.73983 1.98755,-1.5365 2.20684,-2.54237c0,0 0.13403,-0.53612 0.67015,-0.40209c0.53612,0.13403 0.40209,0.67015 0.40209,0.67015c-0.51112,1.87634 -2.53235,2.8381 -3.86795,4.17539l-0.00276,0.00276c0,0 -0.39076,0.39076 -0.78153,0z" fill="#000000" stroke="none" stroke-linecap="butt"/><path d="M242.40395,182.18776c-0.13403,-0.53612 0.40209,-0.67015 0.40209,-0.67015c0.35741,-0.08935 1.69005,-0.42251 2.04747,-0.51187c0,0 0.53612,-0.13403 0.67015,0.40209c0.13403,0.53612 -0.40209,0.67015 -0.40209,0.67015c-0.35741,0.08935 -0.71483,0.17871 -1.07225,0.26806l-0.97522,0.2438c0,0 -0.53612,0.13403 -0.67015,-0.40209z" fill="#000000" stroke="none" stroke-linecap="butt"/><path d="M235.849,182.41245c-0.55262,0 -0.55262,-0.55262 -0.55262,-0.55262v-0.65939c0,-0.36841 -0.02524,-0.73769 0,-1.10525c0.00672,-0.09782 0.1739,-0.22016 0.09502,-0.2784c-0.20169,-0.14889 -0.48532,-0.12591 -0.72799,-0.18886c0,0 -0.03956,-0.01582 -0.09232,-0.04967c-0.68894,0.89938 -1.58248,1.67232 -2.52692,2.37147c0.74578,0.98832 0.64161,2.49821 0.51687,3.80471l-0.08339,0.86417c0,0 -0.05308,0.55007 -0.60315,0.49699c-0.55007,-0.05308 -0.49699,-0.60315 -0.49699,-0.60315l0.08339,-0.86417c0.08129,-0.83312 0.32603,-2.34608 -0.28295,-3.08327c-0.57204,0.39241 -1.14564,0.76433 -1.68844,1.12686l-0.11224,0.12728c0,0 -0.39076,0.39076 -0.78153,0c-0.39076,-0.39076 0,-0.78153 0,-0.78153l0.2799,-0.26486c0.42439,-0.28345 0.88492,-0.57802 1.35504,-0.88894c-0.04473,-0.10096 -0.05849,-0.23079 -0.0038,-0.39483c0.17475,-0.52426 0.69902,-0.34951 0.69902,-0.34951c0.08507,0.03194 0.16615,0.06659 0.2434,0.10381c1.46997,-1.04469 2.86231,-2.28228 3.37115,-3.87179c0,0 0.17475,-0.52426 0.69902,-0.34951c0.52426,0.17475 0.34951,0.69902 0.34951,0.69902c-0.11158,0.32422 -0.25035,0.63404 -0.41214,0.93088c1.48813,0.73176 1.22478,0.91768 1.22478,2.54854v0.65939c0,0 0,0.55262 -0.55262,0.55262z" fill="#000000" stroke="none" stroke-linecap="butt"/><path d="M236.56562,175.08295c0.30654,-0.45981 0.76635,-0.15327 0.76635,-0.15327l0.51361,0.34241c0.59537,0.39691 1.15943,0.84474 1.78404,1.19381c1.50525,0.84123 3.16136,0.75815 4.58987,1.8147c0,0 0.4421,0.33157 0.11052,0.77367c-0.33157,0.4421 -0.77367,0.11052 -0.77367,0.11052c-0.92445,-0.70496 -1.63973,-0.7609 -2.73668,-1.08209c-1.37046,-0.40128 -2.41073,-1.1067 -3.58716,-1.891l-0.51361,-0.34241c0,0 -0.45981,-0.30654 -0.15327,-0.76635z" fill="#000000" stroke="none" stroke-linecap="butt"/><path d="M231.53544,193.19636c-0.55262,0 -0.55262,-0.55262 -0.55262,-0.55262l0.0165,-0.3301c0.11949,-0.46686 0.18236,-0.95263 0.17957,-1.43454c0,0 0,-0.55262 0.55262,-0.55262c0.55262,0 0.55262,0.55262 0.55262,0.55262c-0.00278,0.57193 -0.07648,1.14709 -0.21257,1.7026l0.0165,0.06204c0,0 0,0.55262 -0.55262,0.55262z" fill="#000000" stroke="none" stroke-linecap="butt"/><path d="M241.57363,196.1145c-0.5297,-0.15751 -0.37219,-0.68721 -0.37219,-0.68721l0.17891,-0.58147c0.0087,-1.1115 0.279,-1.56946 0.61081,-2.57292c0,0 0.17475,-0.52426 0.69902,-0.34951c0.52426,0.17475 0.34951,0.69902 0.34951,0.69902c-0.3206,0.95509 -0.57468,1.31985 -0.56562,2.38257l-0.21323,0.73732c0,0 -0.15751,0.5297 -0.68721,0.37219z" fill="#000000" stroke="none" stroke-linecap="butt"/><path d="M233.19794,194.26338c-0.24714,-0.49428 0.24714,-0.74142 0.24714,-0.74142l0.18787,-0.09393c0.60402,-0.29988 1.23235,-0.56615 1.88596,-0.73219c0,0 0.53612,-0.13403 0.67015,0.40209c0.13403,0.53612 -0.40209,0.67015 -0.40209,0.67015c-0.57687,0.14152 -1.12931,0.3812 -1.65973,0.64851l-0.18787,0.09393c0,0 -0.49428,0.24714 -0.74142,-0.24714z" fill="#000000" stroke="none" stroke-linecap="butt"/><path d="M231.9262,193.62547c0.39076,0.39076 0,0.78153 0,0.78153l-0.58683,0.35793c-1.04571,0 -2.09142,0 -3.13713,0c0,0 -0.55262,0 -0.55262,-0.55262c0,-0.55262 0.55262,-0.55262 0.55262,-0.55262c1.04571,0 2.09142,0 3.13713,0l-0.19469,-0.03421c0,0 0.39076,-0.39076 0.78153,0z" fill="#000000" stroke="none" stroke-linecap="butt"/><path d="M236.86031,178.24618c-0.50384,0.22702 -0.73086,-0.27682 -0.73086,-0.27682l-0.13179,-0.29247c-0.37234,-0.82637 -0.72421,-1.74312 -1.18556,-2.58108c-0.36619,0.25374 -0.73022,0.58604 -0.99902,0.74799c-1.87963,1.13243 -3.76338,2.2581 -5.64511,3.38707c0.00506,0.05609 0.00188,0.11867 -0.01207,0.18843c-0.10838,0.54189 -0.65027,0.43351 -0.65027,0.43351c-0.94786,-0.19059 -1.7655,-0.45329 -2.68347,-0.75928l-0.39043,-0.01612c0,0 -0.55078,-0.04515 -0.50562,-0.59593c0.04515,-0.55078 0.59593,-0.50562 0.59593,-0.50562l0.64964,0.06914c0.68232,0.22744 1.29709,0.4297 1.96196,0.59307c0.08258,-0.12507 0.19606,-0.19317 0.19606,-0.19317l0.2283,-0.13698c1.89547,-1.13728 3.78878,-2.27825 5.68644,-3.41187c0.39376,-0.23522 0.69579,-0.48555 0.99677,-0.69921c-0.46175,-0.62106 -1.03043,-1.14602 -1.77831,-1.48078c-0.65363,-0.29258 -1.40293,-0.30201 -2.08258,-0.52765c0,0 -0.02685,-0.00895 -0.06637,-0.02888c-0.02601,0.11217 -0.07481,0.19009 -0.07481,0.19009l-0.47255,0.75329c-1.17283,2.31337 -3.644,3.96036 -6.13603,4.58734c0,0 -0.53612,0.13403 -0.67015,-0.40209c-0.13403,-0.53612 0.40209,-0.67015 0.40209,-0.67015c2.19254,-0.5443 4.43181,-2.00727 5.44036,-4.0562l0.4996,-0.79886c0,0 0.27144,-0.43338 0.70899,-0.20525c0.00513,-0.02208 0.01155,-0.04485 0.01937,-0.06831c0.17475,-0.52426 0.69902,-0.34951 0.69902,-0.34951c0.7149,0.23932 1.50312,0.25607 2.18886,0.56929c1.00169,0.45755 1.72969,1.17271 2.31133,2.00878c0.12988,-0.02964 0.26972,-0.04945 0.4229,-0.05751c0,0 0.55262,0 0.55262,0.55262c0,0.33336 -0.2011,0.46563 -0.36068,0.51811c0.4339,0.80868 0.79083,1.67133 1.16046,2.49167l0.13179,0.29247c0,0 0.22702,0.50384 -0.27682,0.73086z" fill="#000000" stroke="none" stroke-linecap="butt"/><path d="M226.5826,166.8645c-0.49428,-0.24714 -0.24714,-0.74142 -0.24714,-0.74142l0.40845,-0.81452c0.25391,-0.28424 0.39439,-0.75113 0.76173,-0.85273c0.43058,-0.11908 0.83875,0.40612 1.2848,0.38141c0,0 0.55262,0 0.55262,0.55262c0,0.55262 -0.55262,0.55262 -0.55262,0.55262c-0.6593,-0.02089 -1.06065,-0.50909 -1.0906,-0.07918l-0.37583,0.75405c0,0 -0.24714,0.49428 -0.74142,0.24714z" fill="#000000" stroke="none" stroke-linecap="butt"/><path d="M239.60332,179.00225c0.50473,0.22504 0.27968,0.72977 0.27968,0.72977l-0.23789,0.53353c-0.50851,1.14048 -1.07664,3.43701 -2.10528,4.20278c-0.53646,0.39937 -1.30016,0.31421 -1.94895,0.47654c0,0 -0.53612,0.13403 -0.67015,-0.40209c-0.13403,-0.53612 0.40209,-0.67015 0.40209,-0.67015c0.52067,-0.13006 1.14658,0.00829 1.58033,-0.30774c0.79517,-0.57937 1.33665,-2.86158 1.7325,-3.74941l0.23789,-0.53353c0,0 0.22504,-0.50473 0.72977,-0.27968z" fill="#000000" stroke="none" stroke-linecap="butt"/><path d="M233.53174,168.52701c0,-0.30521 0.24742,-0.55262 0.55262,-0.55262c0.30521,0 0.55262,0.24742 0.55262,0.55262c0,0.30521 -0.24742,0.55262 -0.55262,0.55262c-0.30521,0 -0.55262,-0.24742 -0.55262,-0.55262z" fill="#000000" stroke="none" stroke-linecap="butt"/><path d="M255.67349,173.95304c-0.52426,-0.17475 -0.34951,-0.69902 -0.34951,-0.69902l0.08526,-0.25579c0.35676,-1.07027 0.73193,-1.68613 0.48532,-2.79428c0,0 -0.10838,-0.54189 0.43351,-0.65027c0.54189,-0.10838 0.65027,0.43351 0.65027,0.43351c0.24623,1.34412 -0.09533,2.08479 -0.52058,3.36054l-0.08526,0.25579c0,0 -0.17475,0.52426 -0.69902,0.34951z" fill="#000000" stroke="none" stroke-linecap="butt"/><path d="M249.81222,175.74608c0.42769,-0.34997 0.77765,0.07772 0.77765,0.07772l0.38529,0.47086c1.00073,1.22384 1.94811,2.32559 2.27784,3.88822c0,0 0.10838,0.54189 -0.43351,0.65027c-0.54189,0.10838 -0.65027,-0.43351 -0.65027,-0.43351c-0.25227,-1.35453 -1.18515,-2.3496 -2.04943,-3.40505l-0.38529,-0.47086c0,0 -0.34997,-0.42769 0.07772,-0.77765z" fill="#000000" stroke="none" stroke-linecap="butt"/><path d="M224.70855,187.34982c0,-0.30521 0.24742,-0.55262 0.55262,-0.55262c0.30521,0 0.55262,0.24742 0.55262,0.55262c0,0.30521 -0.24742,0.55262 -0.55262,0.55262c-0.30521,0 -0.55262,-0.24742 -0.55262,-0.55262z" fill="#000000" stroke="none" stroke-linecap="butt"/><g stroke="#45413c" stroke-linecap="round"><path d="M238.94763,174.13259l-1.40298,0.40073c0,0 -2.57838,-0.25899 -2.78404,-0.30055c-0.20567,-0.04156 0.20471,0.14838 -0.43843,-0.35064c-0.50354,-0.39069 -0.75766,-0.82179 -1.0084,-1.35246c-0.25074,-0.53066 -0.43843,-1.08115 -0.32882,-1.47769c0.10961,-0.39654 0.20637,-0.28524 0.85494,-0.42578c0.64858,-0.14053 1.27296,-0.16763 1.68796,-0.12523c0.2651,0.02709 0.47125,-0.01245 1.0084,0.40073c0.53715,0.41318 1.20569,1.30237 1.20569,1.30237c0,0 -0.03667,1.83225 -0.02192,1.95356c0.01475,0.12131 0.18715,0.40482 0.24114,-0.15027c0.05398,-0.55509 -0.21431,-0.58372 -0.08769,-1.4276c0.12662,-0.84388 0.25335,-1.42275 0.61381,-2.07879c0.36045,-0.65604 0.97707,-1.1843 1.27145,-1.35246c0.29438,-0.16817 0.39559,-0.36377 0.83302,0.15027c0.43742,0.51404 0.65174,1.45859 0.70149,1.65301c0.04975,0.19442 0.24711,0.27939 -0.15345,0.48853c-0.40056,0.20914 -0.67593,-0.13113 -1.118,0.17532c-0.44207,0.30644 -0.53314,0.64724 -0.76726,1.17714c-0.23411,0.52991 -0.39459,1.45265 -0.39459,1.45265" fill="url(#color-2)"/><path d="M235.85668,172.05381l1.64412,1.77824" fill="url(#color-3)"/></g></g></g></svg>