<svg version="1.1" xmlns="http://www.w3.org/2000/svg" xmlns:xlink="http://www.w3.org/1999/xlink" width="770.89367" height="770.89367" viewBox="0,0,770.89367,770.89367"><defs><linearGradient x1="236.99701" y1="-212.9543" x2="236.99701" y2="557.93936" gradientUnits="userSpaceOnUse" id="color-1"><stop offset="0" stop-color="#000000"/><stop offset="1" stop-color="#313131"/></linearGradient><linearGradient x1="405.17375" y1="-158.69749" x2="405.17375" y2="167.32942" gradientUnits="userSpaceOnUse" id="color-2"><stop offset="0" stop-color="#000000"/><stop offset="1" stop-color="#313131"/></linearGradient><linearGradient x1="253.17624" y1="-152.35368" x2="253.17624" y2="465.42247" gradientUnits="userSpaceOnUse" id="color-3"><stop offset="0" stop-color="#000000"/><stop offset="1" stop-color="#313131"/></linearGradient><linearGradient x1="121.38405" y1="71.93279" x2="121.38405" y2="503.81446" gradientUnits="userSpaceOnUse" id="color-4"><stop offset="0" stop-color="#000000"/><stop offset="1" stop-color="#313131"/></linearGradient></defs><g transform="translate(148.44983,212.95432)"><g data-paper-data="{&quot;isPaintingLayer&quot;:true}" fill-rule="nonzero" stroke="none" stroke-linecap="butt" stroke-linejoin="miter" stroke-miterlimit="10" stroke-dasharray="" stroke-dashoffset="0" style="mix-blend-mode: normal"><g stroke-width="1"><path d="M236.99692,557.93918c-212.87603,0 -385.44675,-172.57039 -385.44675,-385.44675c0,-212.87603 172.57039,-385.44675 385.44692,-385.44675c212.87636,0 385.44675,172.57039 385.44675,385.44692c0,212.87603 -172.57039,385.44675 -385.44675,385.44675z" fill="url(#color-1)"/><path d="M543.23198,142.37419c-100.36105,-100.36105 -200.71064,-200.71064 -301.0717,-301.0717c178.86656,2.74709 323.29081,147.16004 326.02693,326.02693z" fill="url(#color-2)"/><path d="M391.29507,465.42232c-149.76334,-148.51688 -298.61153,-297.96054 -446.79727,-448.04406c45.85026,-86.25056 128.4602,-149.9841 227.14407,-169.73192l390.21281,390.21281c-19.82495,98.99291 -83.90061,181.81247 -170.55945,227.56333z" fill="url(#color-3)"/><path d="M-45.97041,104.90853c127.04816,128.37192 254.86835,255.97151 383.06356,383.18491c-31.61858,10.02851 -65.15671,15.72102 -100.09607,15.72102c-182.98196,0 -331.32213,-148.34034 -331.32213,-331.32213c0,-35.10493 5.7477,-68.80848 15.86464,-100.55954c10.84474,10.97723 21.63445,22.00932 32.49017,32.97575z" fill="url(#color-4)"/></g><path d="M492.92042,281.16817h-505.84084v-320.36587c0,-16.86136 16.86136,-33.72272 33.72272,-33.72272h438.3954c16.86136,0 33.72272,16.86136 33.72272,33.72272z" fill="#212528" stroke-width="2.75"/><path d="M492.92042,281.16817v33.72272c0,16.86136 -16.86136,33.72272 -33.72272,33.72272h-438.3954c-16.86136,0 -33.72272,-16.86136 -33.72272,-33.72272v-33.72272z" fill="#dddddd" stroke-width="2.75"/><path d="M172.55455,365.47497v-16.86136h134.89089v16.86136c0,33.72272 33.72272,33.72272 67.44545,33.72272h-269.78178c33.72272,0 67.44545,0 67.44545,-33.72272" fill="#bfbebe" stroke-width="2.75"/><path d="M20.8023,-39.1977h438.3954v286.64314h-438.3954z" fill="#3e4347" stroke-width="2.75"/><g fill="#94989b" stroke-width="2.75"><path d="M240,305.61714c2.32687,0 4.43454,0.94424 5.96034,2.47004c1.52611,1.52611 2.47034,3.63378 2.47034,5.96064c0,2.32687 -0.94424,4.43454 -2.47034,5.96034c-1.5258,1.52611 -3.63347,2.47034 -5.96034,2.47034c-2.32687,0 -4.43454,-0.94424 -5.96064,-2.47034c-1.5258,-1.5258 -2.47004,-3.63347 -2.47004,-5.96034c0,-2.32687 0.94424,-4.43454 2.47004,-5.96064c1.52611,-1.5258 3.63378,-2.47004 5.96064,-2.47004z"/><path d="M105.10911,399.1977h269.78178v33.72272h-269.78178z"/></g></g></g></svg>