<svg version="1.1" xmlns="http://www.w3.org/2000/svg" xmlns:xlink="http://www.w3.org/1999/xlink" width="770.89367" height="770.89367" viewBox="0,0,770.89367,770.89367"><defs><linearGradient x1="236.99701" y1="-212.9543" x2="236.99701" y2="557.93936" gradientUnits="userSpaceOnUse" id="color-1"><stop offset="0" stop-color="#000000"/><stop offset="1" stop-color="#313131"/></linearGradient><linearGradient x1="405.17375" y1="-158.69749" x2="405.17375" y2="167.32942" gradientUnits="userSpaceOnUse" id="color-2"><stop offset="0" stop-color="#000000"/><stop offset="1" stop-color="#313131"/></linearGradient><linearGradient x1="253.17624" y1="-152.35368" x2="253.17624" y2="465.42247" gradientUnits="userSpaceOnUse" id="color-3"><stop offset="0" stop-color="#000000"/><stop offset="1" stop-color="#313131"/></linearGradient><linearGradient x1="121.38405" y1="71.93279" x2="121.38405" y2="503.81446" gradientUnits="userSpaceOnUse" id="color-4"><stop offset="0" stop-color="#000000"/><stop offset="1" stop-color="#313131"/></linearGradient></defs><g transform="translate(148.44983,212.95432)"><g data-paper-data="{&quot;isPaintingLayer&quot;:true}" fill-rule="nonzero" stroke="none" stroke-linecap="butt" stroke-linejoin="miter" stroke-miterlimit="10" stroke-dasharray="" stroke-dashoffset="0" style="mix-blend-mode: normal"><g stroke-width="1"><path d="M236.99692,557.93918c-212.87603,0 -385.44675,-172.57039 -385.44675,-385.44675c0,-212.87603 172.57039,-385.44675 385.44692,-385.44675c212.87636,0 385.44675,172.57039 385.44675,385.44692c0,212.87603 -172.57039,385.44675 -385.44675,385.44675z" fill="url(#color-1)"/><path d="M543.23198,142.37419c-100.36105,-100.36105 -200.71064,-200.71064 -301.0717,-301.0717c178.86656,2.74709 323.29081,147.16004 326.02693,326.02693z" fill="url(#color-2)"/><path d="M391.29507,465.42232c-149.76334,-148.51688 -298.61153,-297.96054 -446.79727,-448.04406c45.85026,-86.25056 128.4602,-149.9841 227.14407,-169.73192l390.21281,390.21281c-19.82495,98.99291 -83.90061,181.81247 -170.55945,227.56333z" fill="url(#color-3)"/><path d="M-45.97041,104.90853c127.04816,128.37192 254.86835,255.97151 383.06356,383.18491c-31.61858,10.02851 -65.15671,15.72102 -100.09607,15.72102c-182.98196,0 -331.32213,-148.34034 -331.32213,-331.32213c0,-35.10493 5.7477,-68.80848 15.86464,-100.55954c10.84474,10.97723 21.63445,22.00932 32.49017,32.97575z" fill="url(#color-4)"/></g><path d="M239.98446,-81.80376c72.25543,0 137.70398,29.32083 185.08899,76.70584c47.38501,47.38501 76.70584,112.83356 76.70584,185.08899c0,72.25543 -29.32083,137.70398 -76.70584,185.08899c-47.38501,47.38501 -112.83356,76.70584 -185.08899,76.70584c-72.25543,0 -137.70398,-29.32083 -185.08899,-76.70584c-47.38501,-47.38501 -76.70584,-112.83356 -76.70584,-185.08899c0,-72.25543 29.32083,-137.70398 76.70584,-185.08899c47.38501,-47.38501 112.83356,-76.70584 185.08899,-76.70584z" fill="#cfd8dc" stroke-width="39.58333"/><path d="M501.81038,180.01091c0,13.48548 -1.35582,26.64688 -3.3135,39.57018c-6.97091,1.76588 -10.4696,1.76588 -10.4696,1.76588c-105.05973,5.16535 -296.24398,-220.4634 -399.58413,-220.4634c-21.8519,0 -37.1297,4.34525 -47.71174,9.57674c19.66274,-23.07544 43.26728,-42.64559 69.76204,-57.78451c0,0 27.90349,-14.01458 82.43403,-7.74472c101.0584,7.18917 248.59838,210.09962 296.82599,218.71075c4.08731,0.72751 7.63229,0.94577 11.29632,1.25c0.27778,5.04631 0.76058,10.01986 0.76058,15.11908z" fill="#1e88e5" stroke-width="1"/><path d="M501.81038,180.01091c0,13.48548 -1.35582,26.64688 -3.3135,39.57018c-6.97091,1.76588 -10.4696,1.76588 -10.4696,1.76588c-105.05973,5.16535 -296.24398,-220.4634 -399.58413,-220.4634c-21.8519,0 -37.1297,4.34525 -47.71174,9.57674c19.66274,-23.07544 43.26728,-42.64559 69.76204,-57.78451c0,0 27.90349,-14.01458 82.43403,-7.74472c101.0584,7.18917 248.59838,210.09962 296.82599,218.71075c4.08731,0.72751 7.63229,0.94577 11.29632,1.25c0.27778,5.04631 0.76058,10.01986 0.76058,15.11908z" fill="none" stroke-width="4.16667"/><path d="M495.87121,235.22266c-5.60848,26.11116 -15.14553,50.72761 -27.92995,73.32687c-21.09793,15.0331 -52.75804,26.46831 -99.60999,26.46831c-130.03994,0 -195.48981,-104.20656 -317.77841,-104.20656c-31.75932,0 -49.79507,15.85982 -59.53716,29.8744c-8.22092,-25.42333 -12.79764,-52.5001 -12.79764,-80.67476c0,-6.76589 0.50926,-13.40611 1.00529,-20.03311c10.04632,-16.53442 31.37572,-32.9035 76.59407,-32.9035c135.09948,0 259.97406,157.14317 370.20576,157.14317c49.68925,0 62.00409,-35.31753 69.84802,-48.99481z" fill="#1e88e5" stroke-width="1"/><path d="M495.87121,235.22266c-5.60848,26.11116 -15.14553,50.72761 -27.92995,73.32687c-21.09793,15.0331 -52.75804,26.46831 -99.60999,26.46831c-130.03994,0 -195.48981,-104.20656 -317.77841,-104.20656c-31.75932,0 -49.79507,15.85982 -59.53716,29.8744c-8.22092,-25.42333 -12.79764,-52.5001 -12.79764,-80.67476c0,-6.76589 0.50926,-13.40611 1.00529,-20.03311c10.04632,-16.53442 31.37572,-32.9035 76.59407,-32.9035c135.09948,0 259.97406,157.14317 370.20576,157.14317c49.68925,0 62.00409,-35.31753 69.84802,-48.99481z" fill="none" stroke-width="4.16667"/><path d="M308.90655,386.69122c58.1152,0 106.28989,-19.57014 119.96717,-25.68788c-47.63237,49.70248 -114.55049,80.80043 -188.86281,80.80043c-44.79506,0 -86.93139,-11.28309 -123.80316,-31.1244c-0.20503,-3.40609 -0.20503,-6.80557 -0.20503,-10.21166c0,0 0,-41.33606 41.33606,-41.33606c41.33606,0 82.67212,27.55958 151.56776,27.55958z" fill="#1e88e5" stroke-width="1"/><path d="M308.90655,386.69122c58.1152,0 106.28989,-19.57014 119.96717,-25.68788c-47.63237,49.70248 -114.55049,80.80043 -188.86281,80.80043c-44.79506,0 -86.93139,-11.28309 -123.80316,-31.1244c-0.20503,-3.40609 -0.20503,-6.80557 -0.20503,-10.21166c0,0 0,-41.33606 41.33606,-41.33606c41.33606,0 82.67212,27.55958 151.56776,27.55958z" fill="none" stroke-width="4.16667"/></g></g></svg>