<svg version="1.1" xmlns="http://www.w3.org/2000/svg" xmlns:xlink="http://www.w3.org/1999/xlink" width="90.41973" height="67.79446" viewBox="0,0,90.41973,67.79446"><g transform="translate(-192.48831,-114.44095)"><g stroke-miterlimit="10"><path d="M237.52598,177.82635c-21.58196,0 -39.07762,-8.43541 -39.07762,-18.841c0,-10.4056 17.49564,-18.841 39.07762,-18.841c21.58196,0 39.07762,8.43541 39.07762,18.841c0,10.4056 -17.49564,18.841 -39.07762,18.841z" fill="#c7c7c7" stroke="#000000" stroke-width="0.5" stroke-linecap="butt"/><path d="M226.16203,134.06737c2.69221,-2.20691 2.6197,-7.80181 5.62731,-9.924c0.34092,-0.07018 0.62859,-0.11099 0.84592,-0.11248c2.51504,-0.01717 4.51798,0.12771 6.48107,0.42643c0.15692,0.13577 0.32018,0.26444 0.48923,0.38548c1.90349,5.64238 6.27265,8.71446 12.06881,3.08779c1.08246,0.00424 2.1667,-0.00767 3.24945,-0.00601c1.59765,0.64936 2.72096,1.90683 3.8603,2.84914l0.33653,0.52882l0.07374,0.22124l0.2025,0.23625l0.40449,0.80899l0.01396,0.06275l0.33224,0.46003l0.02348,0.05872l0.14126,0.18833l0.04663,0.11069l0.08887,0.0808l0.20224,0.30336l0.08985,0.25157l0.17384,0.20282l0.06067,0.12133l0.24269,0.28314l0.10112,0.20224l0.03891,0.17513l0.10503,0.14542l0.09324,0.23309l0.18661,0.32659l0.52597,0.78895l0.05006,0.14013l0.10295,0.10744l0.40449,0.70785l0.11401,0.40532l0.22606,0.35523l0.10724,0.32171l0.06788,0.13577l0.10101,0.45448l0.21907,0.4108l0.24772,0.99083c0.96981,-0.98541 2.09108,-1.73552 3.48322,-2.13907c1.29429,0.2892 2.42265,0.14728 3.37621,-0.29885c0.82605,0.06236 1.72427,0.21106 2.70557,0.4564c6.07583,1.51895 3.82297,12.18024 3.60541,18.43929c-0.02523,0.72582 -0.01487,1.60018 -0.52844,2.11374c-7.38716,7.38716 -7.75157,-4.27738 -7.92654,-8.04608c-0.02222,-0.47841 -0.42898,0.92454 -0.84479,1.16216c-1.06925,0.61101 -6.05135,1.29949 -6.82578,-0.05573l-0.79758,-1.39575l-0.76214,-0.03629l-0.99552,-0.03317l-0.05973,-0.01705l-0.12614,-0.00601l-0.03481,-0.03997l-1.19503,-0.34142l-0.66624,-0.38437l-0.70888,-0.29848l-1.17415,-0.88062l-0.28182,-0.2013l0.02753,1.29397l-0.84018,0.84018l-0.2954,1.08312l-1.08312,0.2954l-0.79385,0.79385l-1.08696,-0.2809l-1.14634,0.31266l-1.01357,-0.60813l-0.07411,0.0051l-0.16043,-0.14583l-0.53448,-0.32069l-0.10897,-0.02816l-0.05946,-0.10598l-0.22066,-0.22066l-0.21663,-0.36106l-0.31157,-0.28325l-0.80899,-1.21348l-0.01553,-0.04353l-0.03354,-0.03183l-1.41572,-2.2247l-0.05536,-0.16605l-0.1168,-0.13036l-0.46624,-0.88342l-0.04128,0.13621l-0.12221,0.20427l-0.03792,0.23501l-0.60672,1.41572l-0.36201,0.47633l-0.31099,0.65651l-0.25174,0.08393l-0.39361,0.5179l-1.76917,0.20303l-1.62724,0.54241l-0.36083,-0.31427l-0.47538,0.05455l-1.0336,-1.36883l-1.34285,-1.16959l-0.02715,-0.56993c-0.05644,0.13933 -0.12007,0.27493 -0.19049,0.40641l-0.03026,0.12102l-0.05573,0.03184c-0.73539,1.24602 -2.09172,2.0819 -3.64332,2.0819c-1.38464,0 -2.6138,-0.6657 -3.38491,-1.69448c-0.53331,0.34595 -1.19536,0.6389 -2.00421,0.86572c-0.21896,0.49159 -0.55447,0.97568 -1.02411,1.44532c-1.00418,1.00418 -2.27892,2.11374 -3.69906,2.11374c-2.33402,0 -2.70802,-3.98038 -4.70875,-5.18237c-3.70356,-2.22502 -5.86856,2.87198 -7.69009,4.86044c-0.13541,0.14782 -0.25631,0.31031 -0.36287,0.48362c0.19606,0.48731 0.30396,1.01956 0.30396,1.57703c0,0.52976 -0.09743,1.03675 -0.27538,1.50404c0.36784,0.62688 0.57874,1.35701 0.57874,2.13636c0,2.32836 -1.88231,4.21706 -4.20822,4.22744c-4.42205,2.19122 -5.59237,-6.393 -5.46023,-12.01389c0.02385,-1.01504 0.24509,-1.7969 0.59093,-2.4381c0.01487,-0.29321 0.02162,-0.56144 0.0158,-0.79783c-0.21662,-8.7814 1.71749,-15.01514 12.30707,-13.25021c1.93238,0.32206 3.08132,2.04366 4.87017,2.35351c2.37097,0.41069 4.58284,-0.51856 6.64775,-0.04073c0.12258,-0.03657 0.24749,-0.06774 0.37447,-0.09323c0.70971,-0.47166 1.55282,-0.99931 2.65254,-1.90078zM234.94778,143.6707l0.00831,-0.02038c-0.14229,0.06657 -0.2889,0.12547 -0.43927,0.17612l0.08563,0.38536c0.04819,0.12966 0.09021,0.26236 0.12566,0.39768l0.16334,-0.54443z" fill="#c7c7c7" stroke="none" stroke-width="0.5" stroke-linecap="butt"/><path d="M216.87752,132.19851c0.51139,0 0.99131,0.23978 1.4236,0.56177c0.53889,-1.71403 1.86224,-3.71102 3.36528,-3.71223c0.77412,-2.91786 1.93014,-5.45448 4.32198,-7.15688c1.47443,-3.43604 4.07018,-6.04097 7.31319,-6.0035c1.48039,0.01709 2.60448,0.75666 3.35947,1.82547c2.1198,0.26816 4.13252,2.09128 6.79192,4.61609c1.07183,1.01758 2.9355,0.90783 3.98055,1.9529c0.26139,0.26139 0.53364,1.54742 0.70806,3.08736c1.29938,-0.29806 2.53273,-0.57488 3.4415,-0.541c8.09714,0.30194 10.75346,6.19678 10.75346,13.66142c0,0.14177 0.00116,0.30123 0.00219,0.47312c0.07421,-0.02835 0.14943,-0.05465 0.22557,-0.07886c4.33211,-4.97831 11.41531,-10.04082 14.54677,-1.27271c1.09684,3.07116 0.53714,8.17368 0.28317,11.31134c-0.37177,4.59296 -4.95599,5.0843 -7.92654,2.11374c-1.51427,-1.51427 -0.48414,-4.26163 -0.52844,-6.4027c-0.0163,-0.78787 -0.88016,1.34211 -1.50316,1.8247c-0.88666,0.68681 -4.93103,1.50573 -5.73519,0.09844c-0.573,-0.33817 -1.05929,-0.80769 -1.41742,-1.36711c-1.5975,1.10633 -3.87988,0.65978 -6.02249,-1.26617c-2.48269,-2.23162 2.01677,-10.24579 -2.86206,-10.60123c-1.14046,-0.08309 0.34345,1.90359 -0.05308,2.94603c-0.19864,0.52212 -1.93934,2.7243 -2.06391,2.86353c-1.55112,1.7336 -6.02623,-0.20394 -8.71846,-1.55988c-0.42622,0.02139 -0.85091,-0.05475 -1.28775,-0.22847c-1.54112,1.80926 -4.8947,0.71105 -7.36842,0.94818c-2.24175,3.74579 -10.89627,7.72053 -12.47917,6.30426l-0.36601,-0.45256c-0.43801,0.81701 -1.11755,1.52856 -2.08625,2.08209c-2.10034,1.20019 -6.85558,-3.43566 -8.91614,-4.46593c-0.74959,0.67703 -1.74296,1.08928 -2.83258,1.08928c-2.33477,0 -4.2275,-1.8927 -4.2275,-4.2275c0,-0.15556 0.0084,-0.30921 0.02478,-0.46042c-0.79901,-1.83535 -0.97637,-3.84109 0.09726,-5.39955c0.36197,-1.21705 1.02992,-2.35627 1.61327,-2.68075c1.58672,-0.88255 2.73307,1.08403 3.7203,0.99154c2.12248,-0.19886 2.4727,-3.34559 5.39413,-2.59065c1.09118,0.28199 1.60599,1.43741 2.19959,2.49983c0.07545,0.06107 0.15079,0.12345 0.22592,0.18714c0.44091,-0.58984 1.26402,-0.97009 2.60252,-0.97009zM233.00058,130.02209c-0.0093,0.17644 0.04518,1.05123 0.03463,2.01737c0.69995,-0.02701 1.44878,-0.04374 2.18775,-0.00214c-0.40687,-1.348 -0.82822,-2.57791 -1.47147,-3.34781c-0.34934,0.41637 -0.72512,0.84363 -0.75089,1.33261z" fill="#c7c7c7" stroke="none" stroke-width="0.5" stroke-linecap="butt"/><path d="M207.20943,157.39346c1.47743,2.6265 -0.6725,5.58807 0.51929,8.08625c1.79879,3.77054 8.0567,-0.47956 10.3547,3.54193c3.01479,5.27589 -5.04776,6.82449 -8.4413,6.6086c-7.2199,-0.45928 -10.54378,-6.78708 -10.60447,-13.02663c-0.00659,-0.67886 0.07505,-2.40554 0.28783,-3.69852c0.0133,-0.09324 0.02964,-0.18551 0.04891,-0.2767c0.40444,-1.91301 2.10259,-3.3487 4.13603,-3.3487c1.37574,0 2.59802,0.65715 3.37,1.67469c0.12599,0.13014 0.23692,0.27526 0.32906,0.43905z" fill="#c7c7c7" stroke="none" stroke-width="0.5" stroke-linecap="butt"/><path d="M264.70504,135.26437c0.01341,0 0.0268,0.0001 0.04018,0.00032c0.04404,-1.36221 1.16222,-2.45302 2.53517,-2.45302c0.66933,0 1.27808,0.25925 1.73137,0.6828c0.69157,-0.12657 1.37898,-0.11804 2.01395,0.06054c0.56418,0.15868 1.02277,0.59791 1.37047,1.19786c0.44071,-0.36963 1.0089,-0.59223 1.6291,-0.59223c1.40086,0 2.53649,1.13564 2.53649,2.53649c0,0.25628 -0.038,0.50368 -0.1087,0.73686c0.65864,0.45816 1.08976,1.2206 1.08976,2.08375c0,1.40086 -1.13564,2.53649 -2.53649,2.53649c-0.99181,0 -1.85067,-0.56923 -2.26768,-1.39883c-0.27727,0.62422 -0.68293,1.08883 -1.22244,1.26868c-1.05492,0.35165 -2.31077,-1.18015 -3.27623,-0.62843c-0.44121,0.7476 -1.25503,1.24914 -2.18597,1.24914c-0.74918,0 -1.4225,-0.32479 -1.88683,-0.84127c-0.11186,0.56178 -0.28691,1.02296 -0.55386,1.28991c-1.69101,1.69101 -2.74787,1.69101 -4.43887,0c-1.95351,-1.95351 1.4135,-7.14917 0.29612,-9.25891c-1.15708,-2.18468 -6.38107,-2.89544 -8.78545,-2.75736c-0.14635,0.02626 -0.29707,0.03997 -0.45099,0.03997c-1.40086,0 -2.53649,-1.13564 -2.53649,-2.53649c0,-0.33702 0.06573,-0.6587 0.18508,-0.95293c0.60498,-2.41502 2.43229,-6.08616 5.09128,-4.45501c0.15301,0.09386 1.80262,3.19003 1.96564,3.16252c1.41425,-0.2386 2.85073,-1.14068 4.23442,-0.76331c0.28786,0.07849 0.43781,0.31456 0.52626,0.60442c0.07313,-0.00634 0.14714,-0.00956 0.22192,-0.00956c0.84894,0 1.60044,0.41704 2.06086,1.05741c0.66013,-0.12454 1.35826,-0.14127 1.85105,0.18724c2.00181,1.33454 0.92985,5.48501 0.52757,7.97596c0.11227,-0.01518 0.22685,-0.02302 0.34328,-0.02302z" fill="#c7c7c7" stroke="none" stroke-width="0.5" stroke-linecap="butt"/><path d="M238.16648,122.77194c-0.70667,-0.27595 -1.42028,-0.63107 -2.08571,-1.03165c-0.87983,0.02452 -2.03066,-0.31067 -2.85547,-0.82334c-0.39846,0.26056 -0.87474,0.41202 -1.38637,0.41202c-0.61434,0 -1.17768,-0.21839 -1.61656,-0.58179c-0.19601,0.65497 -0.64954,1.19871 -1.24309,1.51369c-0.01504,1.12387 -0.76099,2.07128 -1.78413,2.38852c-0.14977,0.63604 -0.53893,1.17968 -1.0672,1.53065c-0.07735,0.49166 -0.29597,0.93641 -0.61295,1.29143c0.02022,0.12902 0.03071,0.2613 0.03071,0.396c0,0.92919 -0.49964,1.7417 -1.24491,2.18348c0.16885,0.33967 0.26383,0.72258 0.26383,1.12766c0,1.40086 -1.13564,2.53649 -2.53649,2.53649c-0.33121,0 -0.6476,-0.06347 -0.93764,-0.17893c-0.17216,0.03689 -0.35081,0.0563 -0.53399,0.0563c-1.40086,0 -2.53649,-1.13564 -2.53649,-2.53649c0,-0.73227 0.31031,-1.39208 0.80662,-1.85508c-0.04628,-0.19163 -0.07079,-0.39176 -0.07079,-0.59761c0,-1.33699 1.03441,-2.43236 2.34658,-2.5295c-0.01091,-0.09551 -0.01651,-0.19267 -0.01651,-0.2911c0,-0.88258 0.45076,-1.65991 1.13467,-2.11425c0.15124,-0.96132 0.84245,-1.7433 1.7534,-2.02576c0.13561,-0.57592 0.46752,-1.0761 0.92122,-1.42606c-0.00503,-0.06527 -0.00762,-0.1312 -0.00762,-0.19778c0,-1.40086 1.13564,-2.53649 2.53649,-2.53649c0.00437,0 0.00877,0 0.01314,0.00004c0.30282,-1.06199 1.28038,-1.83955 2.43955,-1.83955c0.44481,0 0.86287,0.11451 1.22634,0.31562c0.36345,-0.20113 0.78154,-0.31562 1.22636,-0.31562c0.55871,0 1.07522,0.18063 1.49431,0.48668c1.64879,-0.7387 4.90993,0.20764 7.07685,2.03738c0.81622,0.19793 1.47814,0.79072 1.7721,1.56471c0.82072,0.3117 1.43764,1.03711 1.59618,1.92152c0.02614,-0.0008 0.05239,-0.0012 0.07873,-0.0012c1.40086,0 2.53649,1.13564 2.53649,2.53649c0,1.40086 -1.13564,2.53649 -2.53649,2.53649c-0.5726,0 -1.10093,-0.18976 -1.52546,-0.50979c-0.1029,0.01272 -0.20772,0.01926 -0.31405,0.01926c-0.41844,0 -0.81321,-0.10132 -1.16112,-0.28077c-0.2969,-0.05012 -0.57624,-0.15181 -0.82853,-0.29557c-0.89905,-0.39003 -1.52789,-1.28561 -1.52789,-2.32805c0,-0.09049 0.00473,-0.1799 0.01398,-0.26795c-0.27594,-0.08268 -0.55647,-0.18009 -0.8381,-0.29006z" fill="#c7c7c7" stroke="none" stroke-width="0.5" stroke-linecap="butt"/><path d="M218.17286,170.62482c0.04579,0.03112 0.08865,0.07044 0.12897,0.11658c0.60184,0.46379 0.98957,1.19178 0.98957,2.01033c0,0.03715 -0.0008,0.07407 -0.00239,0.11084c0.04343,-0.01049 0.09049,-0.04348 0.14215,-0.10313c1.0892,-1.25742 1.29934,-2.68009 3.35198,-2.68263c2.78648,-0.00347 2.10791,3.97202 3.86685,4.43063c1.85467,0.48361 3.58117,-1.42044 5.43426,-1.47163c1.89098,-0.05224 5.29181,-0.65687 7.27732,0.07181c0.4773,0.17518 1.03933,1.67543 1.24874,1.68219c3.53567,0.11425 8.10989,-2.6621 11.65954,-3.55898c3.3102,-0.83637 7.2344,-0.96463 10.19713,-1.85151c1.07934,-0.32309 3.83279,1.43995 3.35378,0.42019c-1.4385,-3.06237 4.91526,-4.20684 5.75169,-6.40306c1.08638,-2.85246 2.68652,-4.98804 3.82577,-7.61789c0.01736,-0.04006 -2.00724,-2.63536 -1.9631,-3.2807c0.29277,-4.27964 6.24707,-1.17478 6.90581,1.46012c1.33157,5.32628 -1.66146,18.72807 -7.82632,20.65829c-2.58414,0.8091 -6.31817,0.77567 -8.87493,-0.06085c-1.07657,-0.35224 -4.87858,2.48969 -6.33171,2.8426c-2.45231,0.5956 -5.79054,-0.53476 -7.75874,0.01344c-2.14649,0.59786 -7.45285,3.37835 -9.51291,2.92055c-1.06587,-0.23686 -2.88768,-2.27576 -3.44171,-2.3305c-5.07941,-0.50175 -10.00491,3.90551 -14.15844,-0.6264c-1.16831,-1.27476 -3.46211,1.25106 -5.12752,0.78596c-1.94669,-0.54366 -2.04479,-2.71967 -2.79964,-4.22941c-0.18556,-0.35247 -0.29059,-0.75399 -0.29059,-1.17999c0,-1.40086 1.13564,-2.53649 2.53649,-2.53649c0.22547,0 0.44409,0.02943 0.65221,0.08464c0.27047,0.05821 0.53023,0.16494 0.76574,0.32495z" fill="#c7c7c7" stroke="none" stroke-width="0.5" stroke-linecap="butt"/><path d="M197.66273,140.25356c0,-1.40086 1.13564,-2.53649 2.53649,-2.53649c1.40086,0 2.53649,1.13564 2.53649,2.53649c0,0.78668 -0.35814,1.48976 -0.92028,1.955c0.49106,0.46257 0.79764,1.11881 0.79764,1.84667c0,1.12697 -0.73495,2.08227 -1.75173,2.41277c1.32148,2.92219 0.52429,8.99041 1.72892,11.0985c0.7476,0.44121 1.24914,1.25503 1.24914,2.18597c0,0.6556 -0.24872,1.25314 -0.65698,1.70333c-0.92909,4.30748 3.29862,8.22665 0.15519,8.93825c-8.32019,1.88348 -6.66783,-14.06959 -7.09976,-17.02227c-0.22985,-1.57114 -1.68573,-6.66659 -0.4655,-7.88684c0.40141,-0.40141 0.76704,-0.70748 1.11393,-0.91832c-0.20837,-0.36831 -0.32726,-0.79385 -0.32726,-1.24719c0,-0.93482 0.5057,-1.75152 1.25845,-2.19147c-0.10009,-0.2726 -0.15476,-0.5671 -0.15476,-0.87439z" fill="#c7c7c7" stroke="none" stroke-width="0.5" stroke-linecap="butt"/><path d="M262.04896,159.26191v0.36789c0,3.77503 1.0239,6.75008 1.34445,10.43942c0.1706,1.96343 -0.1734,3.77556 0.83077,5.50896c0,0 0.11227,0.20584 0.15177,0.4888c0.27158,0.09971 0.55786,0.17759 0.85957,0.23172l-0.03992,-0.03247c0,0 1.12154,0 1.25525,1.05469c0.75965,-0.12993 1.46439,-0.34085 2.08761,-0.66829c1.88867,-0.99226 3.80746,-3.47305 5.55586,-4.85711c4.49716,-2.07877 2.82366,-5.50715 4.54047,-9.37994c0.92428,-2.08496 2.28327,-3.57469 1.54894,-6.17584c-0.67021,-2.37413 -2.62203,-3.37364 -2.64305,-6.37203l-0.11982,-1.54565c0,0 -0.00583,-0.07577 0.0039,-0.19165l-0.23565,-1.414l0.228,-0.038c0,-0.3878 0,-1.19141 0,-1.57922c-0.1674,-2.64964 0.79496,-5.06294 0.03931,-8.21131c-0.51768,-2.15693 -3.34172,-1.54068 -4.91378,-1.75012c-2.55713,-0.3407 -2.652,-1.18484 -4.20129,-2.71269c-0.41174,-0.40604 -1.77691,-0.20915 -3.03651,0.07823c-0.89724,1.61633 -1.43458,3.0338 -1.74825,4.41182c-0.09955,1.0326 -0.20487,2.0636 -0.38467,3.07109c-0.07139,1.77543 0.05202,3.67661 0.09669,6.02354c0.05951,3.12633 -1.60597,2.8767 -2.43669,5.06922c-0.06678,0.17623 -0.12739,0.36608 -0.18252,0.56724c0.40618,1.11531 0.79977,2.20383 1.13791,3.24303c0.00406,0.95767 0.12142,2.27923 -0.22043,3.34037c0.48208,0.36683 0.48208,1.03236 0.48208,1.03236zM258.40877,141.112c0,-0.70045 0.5678,-1.26825 1.26825,-1.26825c0.32905,0 0.6288,0.12531 0.85418,0.33078c0.05685,-1.55608 0.25214,-3.0161 0.68306,-4.51923c0.01531,-0.16142 0.03068,-0.32282 0.04637,-0.4841c-0.62983,-0.23565 -0.75315,-0.77212 -0.76227,-1.11897c-3.54871,2.82815 -3.11165,7.40154 -1.71848,12.13075c0.28488,-1.25981 0.65184,-2.52725 1.08893,-3.81717c-0.06254,0.00949 -0.12661,0.01442 -0.19179,0.01442c-0.70045,0 -1.26825,-0.5678 -1.26825,-1.26825zM260.12565,130.07488c0,-0.70045 0.5678,-1.26825 1.26825,-1.26825c0.59538,0 1.09494,0.41027 1.2314,0.96351c-0.10938,-1.76534 -0.36647,-3.56568 -1.58585,-4.21895c-2.59461,-1.39015 -4.95131,2.32215 -6.82403,1.82894c-1.93352,-0.50924 -1.97843,-5.66865 -4.67091,-5.85006c-2.59861,-0.17508 -0.32014,1.87727 0.18231,2.64498l-0.08782,0.3813h0.14649v1.47163c0,0.70045 -0.5678,1.26825 -1.26825,1.26825c-0.32798,0 -0.62688,-0.12449 -0.85204,-0.32884l-1.22272,-1.10046l0.41731,-0.4637c-2.71588,-2.99387 -4.6044,-7.79864 -8.4751,-8.69509c-2.43141,-0.5631 -4.14021,0.6065 -6.45289,0.53171c-3.417,-0.11052 -4.24424,-1.05555 -6.62327,1.98362c-2.19471,4.30842 -4.11767,7.14628 -5.49939,11.82905l-0.05215,0.42879c0.03677,0.358 -0.09773,0.6332 -0.2634,0.83082c-0.07394,0.11082 -0.17005,0.21947 -0.29452,0.30758c0.4034,0.43351 0.68332,1.02278 0.77278,1.80848c0.42765,3.75648 -1.18607,8.07263 -0.97009,12.00092c0.10498,1.90983 1.15712,2.76524 1.46006,4.67346c0.53864,3.39321 0.38192,6.82064 0.38192,10.24411c-0.00285,1.4063 -0.56299,3.27655 -0.27117,4.65039c0.52793,2.48536 2.94407,3.19734 3.08808,6.04477c0.12515,2.47422 -2.29782,4.67728 -4.85523,5.77703c6.79733,1.38908 13.90651,0.37323 21.01515,0.0479c2.53257,-0.1159 3.52035,1.82193 5.56093,1.83431c2.80592,0.13161 6.90576,-1.81238 9.91746,-2.31389c0.02123,-0.00353 0.04249,-0.007 0.06382,-0.0104c-0.12437,-0.19055 -0.22809,-0.39737 -0.30671,-0.62258c-0.85559,-2.45035 1.95027,-4.18254 2.79963,-6.03913c-0.29049,-1.15631 -0.48454,-2.36651 -0.60389,-3.58507c-0.90102,-2.50943 -1.75844,-5.56202 -0.72237,-8.07353c0.17042,-0.41316 0.51241,-0.67973 0.92072,-0.89011c0.11676,-1.74494 0.19361,-4.20674 0.55723,-6.21277c-2.25524,-5.71716 -5.3744,-13.89005 -1.48856,-18.30322c0.80236,-0.91124 2.37918,-1.85956 4.01987,-2.63901c-0.25382,-0.23189 -0.41303,-0.56562 -0.41303,-0.93654zM260.32334,177.31239c0,0 0.0338,0.01127 0.08822,0.03572c0.41931,0.02626 0.84072,0.05345 1.2612,0.07758l-0.12404,-0.22529c-1.18676,-0.96634 -2.08076,-2.24711 -2.74414,-3.71283c-1.19991,1.70179 -2.06148,2.64522 1.51876,3.82483zM259.52123,179.71873c-0.09863,-0.0332 -0.19994,-0.06678 -0.30341,-0.10097c-0.74065,-0.0229 -1.45726,-0.0188 -2.13415,0.03909c-3.99997,0.34208 -8.0052,2.48039 -11.8076,2.57856c-2.25602,-0.27644 -3.11691,-2.00002 -5.33146,-1.83518c-7.93381,0.5906 -16.21566,1.49815 -23.74165,-0.59985c-2.03219,-0.5665 -3.49294,0.03754 -4.8537,-1.63675c-3.58428,4.6384 -5.36554,-2.17466 -8.81002,-3.06198c-0.58231,-0.15 -1.21975,0.54936 -1.77543,0.31957c-3.35164,-1.38595 -2.98186,-6.75359 -4.77838,-9.15853c-2.96963,-3.97536 -3.80552,-7.11297 -3.40223,-12.29943c2.1622,-5.86695 1.03752,-15.15508 6.79082,-15.99636c0.68346,-0.09993 0.28081,-1.35408 0.47351,-2.01739c0.75339,-2.59308 0.61666,-3.99649 3.17577,-5.00462c0,0 0.13891,-0.0417 0.33689,-0.04987c0.0337,-0.04086 0.0709,-0.08177 0.11186,-0.1227c0.70006,-0.70006 1.40013,-0.30714 1.67357,-0.10105c1.93268,0.44473 3.88633,-2.66472 6.7369,-1.62893c1.01336,0.36822 0.81306,2.12571 1.68354,2.76192c0.21619,0.158 0.26109,-0.52516 0.51182,-0.61918c1.15178,-0.432 2.14431,-0.23704 3.25473,-0.56056l0.04711,-0.3009c1.49393,-4.88132 3.57364,-7.98136 5.78299,-12.45259c2.8722,-3.71059 4.58201,-3.40081 8.82868,-3.16702c4.59324,0.25288 7.1309,-1.69518 10.82936,2.24051c0.77491,0.82462 2.27997,2.11073 3.49328,3.5181c0.46056,-0.90768 1.52452,-1.51528 3.38343,-1.46446c1.92747,0.05268 3.74832,2.35828 4.66935,3.76853c0.19747,0.30236 0.46193,0.92626 0.60744,1.43434c0.46914,-0.40857 1.37456,-0.82068 1.88439,-0.98173c1.58248,-0.49984 3.86005,-0.6965 5.3803,0.09687c1.338,0.69823 3.11671,3.87954 2.95201,5.99159c0.22058,-0.0241 0.53956,-0.01458 0.82303,0.16249c1.92437,-0.32594 4.15223,2.3544 5.48117,2.88881c1.8639,0.74952 4.162,-0.07089 6.02431,0.86566c3.03726,1.52741 2.53817,4.95456 2.17802,7.68564c-0.12027,0.91205 0.05313,2.11196 0.06903,3.19243c0.04387,0.07828 0.07745,0.15771 0.10318,0.2334c0.05426,0.1412 0.08399,0.29454 0.08399,0.45483c0,0.49055 0,0.98107 0,1.47159v1.71688c0,0.04228 -0.00207,0.0841 -0.00613,0.12536c0.00176,0.01465 0.00237,0.02264 0.00237,0.02264l0.12543,1.64286c-0.02383,2.84602 1.7523,3.26031 2.50762,5.64618c0.98227,3.10272 -0.46518,5.49707 -1.63955,8.04978c-1.9966,4.33995 -0.21049,8.04212 -5.51559,10.48686c-1.80273,1.4598 -3.72978,3.90171 -5.72651,4.95367c-2.56817,1.35302 -6.02047,0.95815 -9.20842,0.77068c-0.46524,0.20997 -0.97165,0.04117 -0.97165,0.04117zM214.63544,176.15338l1.13838,-0.13243c0.65676,0.02992 1.3495,-0.17551 1.89714,-0.53924c0.74822,-0.49696 3.14807,-1.62093 3.58205,-2.42094c1.00983,-1.86152 -2.80535,-4.97757 -3.16515,-6.55369c-0.36261,-1.58844 0.22306,-3.53837 0.21938,-5.1604c0,-6.87901 -2.21893,-13.02558 -1.83777,-19.68799c0.09841,-1.72033 1.99327,-6.57649 0.25916,-7.4666c-0.2025,0.13694 -0.44669,0.21689 -0.70954,0.21689c-0.28477,0 -0.54762,-0.09386 -0.75933,-0.25236c-0.14593,0.00845 -0.39673,0.00276 -0.64498,-0.09765c-0.8358,0.19148 -1.52785,0.2877 -1.78382,0.17294c-1.06552,-0.47775 -0.8649,-2.5871 -1.99548,-2.87927c-2.48878,-0.64313 -3.78759,2.22974 -6.52788,1.69367c-0.25672,0.23849 -0.55545,0.32809 -0.55545,0.32809c-1.5351,0.0867 -1.308,3.86729 -2.03395,5.20414c-1.18048,2.17378 -2.47007,1.81431 -3.97307,2.4637c-0.68507,0.29598 0.35046,1.54055 0.08315,2.23733c-1.33189,3.47189 -1.34549,7.51165 -2.76702,11.22493c-0.28766,4.55292 0.54378,6.82645 2.97478,10.26533c0.85147,1.20445 2.04028,7.98507 3.56077,8.25558c0.48343,0.086 0.94454,-0.56327 1.41306,-0.41623c2.03301,0.63804 2.86654,2.07939 4.36805,3.32937c0.60697,0.50529 1.13116,2.04929 1.76596,1.57947c0.87873,-0.6503 1.67536,-1.50229 2.71539,-1.8391c0.54356,0.46944 1.19419,0.75734 1.88956,0.96517c0.32611,-0.42068 0.88663,-0.49074 0.88663,-0.49074z" fill="#000000" stroke="none" stroke-width="0.5" stroke-linecap="butt"/><path d="M219.12377,132.58129c0.12445,-0.08814 0.22108,-0.19767 0.29501,-0.30849c0.16568,-0.19762 0.30118,-0.47471 0.2644,-0.83272l0.05264,-0.42965c1.38169,-4.68278 3.32362,-7.54332 5.51835,-11.85174c2.37902,-3.03918 3.2187,-2.10283 6.63569,-1.99229c2.31268,0.07481 4.03501,-1.10104 6.46645,-0.53793c3.87071,0.89647 5.77753,5.69691 8.49344,8.69079l-0.41908,0.46393l1.22691,1.09996c0.22514,0.20432 0.52735,0.32859 0.85533,0.32859c0.70045,0 1.27335,-0.56792 1.27335,-1.26837l-0.00137,-1.30251h-0.14598l0.0875,-0.3813c-0.50244,-0.76772 -2.78065,-2.98917 -0.18203,-2.81408c2.69246,0.18141 2.75592,5.34283 4.68942,5.85208c1.87271,0.49323 4.24927,-3.21196 6.8439,-1.82181c2.11043,1.13072 1.35631,5.70954 1.9249,7.58413c0.47775,-0.09405 4.62965,-1.45243 5.40363,-0.68915c1.54929,1.52786 1.65294,2.38462 4.21006,2.72532c1.57205,0.20946 4.40092,-0.39675 4.91861,1.76015c0.75565,3.14837 -0.20109,5.58417 -0.0337,8.23382c0,0.3878 0.0004,1.19613 0.0004,1.58396l-0.228,0.03808l0.23577,1.41831c-0.00975,0.11588 -0.00391,0.19223 -0.00391,0.19223l0.11967,1.55033c0.021,2.99838 1.97017,4.01432 2.64037,6.38845c0.7343,2.60114 -0.63055,4.10653 -1.55483,6.1915c-1.71682,3.87281 -0.05834,7.3226 -4.55552,9.40135c-1.7484,1.38407 -3.68122,3.87653 -5.56989,4.8688c-3.42482,1.79931 -9.34292,0.09312 -13.27011,0.74711c-3.01171,0.50154 -7.13891,2.44633 -9.94484,2.31471c-2.04058,-0.01238 -3.04357,-1.9537 -5.57616,-1.8378c-7.10864,0.32532 -14.25229,1.31956 -21.04961,-0.06953c2.55743,-1.09978 4.9791,-3.30419 4.85393,-5.77841c-0.14402,-2.84743 -2.56998,-3.57238 -3.0979,-6.05776c-0.29183,-1.37382 0.26349,-3.25309 0.26634,-4.65938c0,-3.42347 0.14943,-6.87765 -0.38921,-10.27084c-0.30293,-1.90825 -1.35535,-2.7769 -1.46034,-4.68676c-0.21597,-3.92831 1.40541,-8.27524 0.97778,-12.03171c-0.08944,-0.78569 -0.36793,-1.37789 -0.77133,-1.8114z" fill="#c7c7c7" stroke="none" stroke-width="0.5" stroke-linecap="butt"/><path d="M213.76926,176.72617c-0.69537,-0.20785 -1.35214,-0.49444 -1.8957,-0.96389c-1.04001,0.33681 -1.84755,1.18994 -2.72627,1.84025c-0.63482,0.46982 -1.16565,-1.07419 -1.77263,-1.57947c-1.50151,-1.24995 -2.35502,-2.6945 -4.38803,-3.33256c-0.46851,-0.14703 -0.93469,0.5006 -1.41814,0.41459c-1.52051,-0.27052 -2.74027,-7.07055 -3.59172,-8.27499c-2.43102,-3.43891 -3.28768,-5.77221 -3.00002,-10.32511c1.42153,-3.71329 1.46205,-7.81537 2.79394,-11.28727c0.2673,-0.69677 -0.76268,-1.94607 -0.07761,-2.24205c1.50302,-0.64938 2.81266,-0.30155 3.99312,-2.47532c0.72596,-1.33683 0.51338,-5.12192 2.04849,-5.20862c0,0 0.30104,-0.09007 0.55777,-0.32854c2.74032,0.5361 4.06384,-2.33765 6.55261,-1.6945c1.13059,0.29218 0.93929,2.40309 2.00478,2.88085c0.25598,0.11478 0.95452,0.02034 1.79032,-0.17116c0.24823,0.10043 0.50147,0.1069 0.64739,0.09844c0.21169,0.15846 0.47748,0.25343 0.76227,0.25343c0.26285,0 0.50908,-0.0791 0.7116,-0.21604c1.73411,0.89011 -0.14761,5.75317 -0.24602,7.47352c-0.38114,6.66244 1.86163,12.9278 1.86163,19.80681c0.00369,1.62201 -0.59818,3.58961 -0.23559,5.17808c0.35977,1.57609 4.16994,4.69597 3.16011,6.55752c-0.43398,0.8 -2.84766,1.93185 -3.59587,2.4288c-0.54762,0.36372 -1.24709,0.57185 -1.90385,0.54191l-1.14236,0.1337c0,0 -0.56403,0.07101 -0.89016,0.49171z" fill="#c7c7c7" stroke="none" stroke-width="0.5" stroke-linecap="butt"/><path d="M262.12971,178.14764l-4.53749,-2.33005l-2.69796,-6.13171l-0.61317,-6.13175l0.61317,-6.25436l3.18851,-17.90466l6.25436,-7.35808" fill="none" stroke="#000000" stroke-width="1.5" stroke-linecap="round"/><path d="M254.03582,128.97118l3.92431,7.4807" fill="none" stroke="#000000" stroke-width="1.5" stroke-linecap="round"/><path d="M249.86626,127.25426l2.94323,1.34899" fill="none" stroke="#000000" stroke-width="1.5" stroke-linecap="round"/><path d="M257.34695,141.72517v-4.78276" fill="none" stroke="#000000" stroke-width="1.5" stroke-linecap="round"/><path d="M200.40261,151.16803c0,-0.70045 0.5678,-1.26825 1.26825,-1.26825c0.70045,0 1.26825,0.5678 1.26825,1.26825c0,0.70045 -0.5678,1.26825 -1.26825,1.26825c-0.70045,0 -1.26825,-0.5678 -1.26825,-1.26825z" fill="#c7c7c7" stroke="none" stroke-width="0.5" stroke-linecap="butt"/><path d="M220.921,170.80118c1.21476,0.36443 0.85033,1.57917 0.85033,1.57917l-0.37885,1.26101c-1.66733,4.12205 -5.71017,3.29047 -9.47304,3.07547c-1.72323,-0.09844 -2.42382,0.77495 -4.27267,0.18129c-2.10577,-0.67616 -2.76033,-2.68576 -4.44123,-3.80707c-1.24052,-0.82756 -3.22018,-0.50534 -4.14969,-1.67143c-1.4003,-1.75667 -1.26138,-4.36088 -1.51772,-6.44442c-0.86167,-1.54312 -1.99153,-0.7249 -3.02064,-2.71367c-0.90056,-1.74036 -1.10107,-5.67677 -0.84858,-7.58283c0.69386,-5.23786 4.34493,-7.58717 3.32038,-13.09459c0,0 -0.22685,-1.24779 1.02091,-1.47466c1.24779,-0.22685 1.47466,1.02091 1.47466,1.02091c1.29993,7.29248 -5.5665,12.63347 -2.67887,20.03725c0.32842,0.84204 2.46668,1.96274 3.1111,2.92752c0.29091,1.85649 0.14901,4.15241 1.18025,5.81906c0.61509,0.99404 2.42653,0.42765 3.45365,1.02656c1.48993,0.86878 2.20985,2.94537 3.89791,3.55102c1.111,0.39857 2.33767,-0.34937 3.57596,-0.30924c2.12001,0.06869 6.21502,1.23865 6.95999,-1.33936l0.35696,-1.19169c0,0 0.36443,-1.21476 1.57917,-0.85033z" fill="#939393" stroke="none" stroke-width="0.5" stroke-linecap="butt"/><path d="M258.61519,177.16658c0,1.26825 -1.26825,1.26825 -1.26825,1.26825l-0.15942,-0.01725c-2.19993,0.36537 -4.83915,0.22471 -6.80175,1.25493c-4.06394,1.62874 -6.19291,0.11343 -10.14658,-0.39269c-6.21441,-0.79551 -12.70135,0.96186 -18.94682,0.06632v0.19241h-1.47163c-0.70045,0 -1.26825,-0.5678 -1.26825,-1.26825c0,-0.32206 0.12006,-0.6161 0.31784,-0.83976l0.85439,-0.97645l0.06702,0.05862l0.11206,-0.22711c1.21474,-0.62091 1.94411,-1.20993 2.87335,-2.1867c-0.53223,-2.96167 -2.40586,-4.89563 -2.977,-7.61531c-0.79544,-3.78781 1.48539,-7.9148 0.62131,-11.85532c-0.92731,-4.22892 -2.72926,-6.77168 -2.72611,-11.36636c0.64399,-7.08594 1.82222,-13.24539 4.63723,-19.81489c1.39722,-3.26072 1.97613,-5.44554 5.46216,-6.92896c0,0 1.17069,-0.48778 1.65848,0.68291c0.48778,1.17069 -0.68288,1.65848 -0.68288,1.65848c-2.7701,1.12347 -2.98322,2.96655 -4.10336,5.57976c-2.69648,6.29073 -3.82031,12.14844 -4.43773,18.93765c0.0032,4.3837 1.78684,6.6195 2.66981,10.70786c0.8625,3.99354 -1.29957,8.13787 -0.60504,11.93581c0.56164,3.0711 2.75752,5.2113 2.90947,8.81775c-0.5804,0.78777 -1.07579,1.43475 -1.64442,1.99186c1.99688,-0.11798 4.56233,0.17187 5.58193,0.17187c3.6844,0 7.83942,-0.71171 11.46654,-0.23183c3.43262,0.45416 5.28112,1.96861 8.73915,0.58839c2.27918,-1.09762 4.93231,-1.0262 7.42386,-1.44302l0.57639,-0.01725c0,0 1.26825,0 1.26825,1.26825z" fill="#939393" stroke="none" stroke-width="0.5" stroke-linecap="butt"/><path d="M223.98183,155.39552c-1.03897,0.72727 -1.76628,-0.3117 -1.76628,-0.3117l-0.86664,-1.2382c-1.37815,-2.06696 -1.93035,-3.33151 -1.93794,-5.8661c0.00459,-7.41276 1.14876,-14.60181 3.75944,-21.53752c0.50426,-1.33962 1.63346,-4.0318 2.95223,-5.62301c0.11363,-0.51846 0.2403,-1.03663 0.38694,-1.5585l0.16034,-0.12297l-0.07049,-0.04484l0.84698,-1.33096c0.2231,-0.36315 0.62399,-0.60536 1.08144,-0.60536c0.70045,0 1.26825,0.5678 1.26825,1.26825c0,0.16008 -0.02966,0.31326 -0.08378,0.45428l-0.60328,1.68915l-0.3224,-0.11515c-0.31889,1.26665 -0.51116,2.54018 -0.72623,3.83059c-0.95173,5.23529 -4.04727,10.76484 -2.83571,16.16924c0.67683,3.01922 3.85137,6.00204 5.49165,8.58669c1.42611,2.24722 2.14329,5.22056 3.0536,7.71341c2.92729,8.4763 12.39211,17.32211 21.22859,18.92068c0,0 1.24779,0.22685 1.02091,1.47466c-0.22685,1.24779 -1.47466,1.02091 -1.47466,1.02091c-9.72949,-1.77864 -19.92183,-11.23283 -23.16516,-20.56767c-0.83706,-2.31284 -1.49663,-5.17417 -2.83287,-7.248c-1.84669,-2.86609 -4.99795,-5.95408 -5.79072,-9.31796c-0.15498,-0.65755 -0.25248,-1.31344 -0.30204,-1.96777c-0.37466,2.99917 -0.50841,6.0385 -0.50652,8.91183c-0.0072,2.08379 0.36301,2.73577 1.49581,4.43521l0.85025,1.21449c0,0 0.72727,1.03897 -0.3117,1.76628z" fill="#939393" stroke="none" stroke-width="0.5" stroke-linecap="butt"/><path d="M228.61016,175.5186c0.0028,0.00945 0.00557,0.01892 0.00837,0.02835c0.04861,-0.00442 0.09721,-0.00872 0.14585,-0.01299c-0.05312,-0.00493 -0.10459,-0.01004 -0.15424,-0.01539zM229.71228,178.79707c0.05412,0.14105 0.08378,0.2942 0.08378,0.45428c0,0.70045 -0.5678,1.26825 -1.26825,1.26825c-0.25595,0 -0.49417,-0.07581 -0.69345,-0.20622l-2.12833,-1.34421l0.23964,-0.37944c-0.05881,-0.03729 -0.11744,-0.07511 -0.17576,-0.11337c-0.9382,0.17137 -1.86569,0.38406 -2.78011,0.64547c0,0 -1.21946,0.34842 -1.56788,-0.87103c-0.34842,-1.21945 0.87103,-1.56788 0.87103,-1.56788c0.24816,-0.07086 0.49714,-0.1383 0.74695,-0.20246l-0.05527,-0.33171l0.00897,-0.00149l-0.01219,-0.01892c-0.09666,-0.7326 -0.16531,-1.46966 -0.20758,-2.20816c-0.39355,-1.22002 -0.46857,-2.64492 -0.65201,-3.9314c-0.45401,-3.18385 -0.42602,-6.1101 -0.30175,-9.05044c-0.81195,-6.48271 -1.76836,-13.14285 -0.99912,-19.21637l-0.3265,0.01305l-0.10107,-2.52655c-0.00088,-0.01941 -0.00133,-0.03896 -0.00133,-0.05859c0,-0.70045 0.5678,-1.26825 1.26825,-1.26825c0.66612,0 1.21229,0.51353 1.2642,1.16631l0.10394,1.14331l0.20281,0.45686c2.82151,2.4709 5.49438,5.31279 6.61655,8.9981c1.74104,4.34571 1.80064,9.53644 4.7235,13.3934c1.36491,1.80113 3.59903,2.75968 5.0933,4.46631c2.32865,2.65963 4.19025,4.99974 6.62302,7.17477l1.14102,0.2633c0.33921,0.07077 0.62866,0.27706 0.80921,0.55965c0.82418,0.11165 1.63337,0.27114 2.43598,0.48788l0.05088,-0.00846v-0.20733h1.34898c0.70045,0 1.26825,0.5678 1.26825,1.26825c0,0.63658 -0.469,1.16362 -1.08032,1.25444l-1.45107,0.24182l-0.00767,-0.04608l-0.09622,0.05902c-6.88183,0.01539 -14.28119,-1.1105 -21.27712,-0.54777zM227.91307,155.93268c-0.02008,-0.09597 -0.04128,-0.19132 -0.06358,-0.28603l-0.07223,0.04598c0.04658,0.07958 0.09182,0.15958 0.13582,0.24005z" fill="#939393" stroke="none" stroke-width="0.5" stroke-linecap="butt"/><path d="M199.91205,172.50645c0,-1.26825 1.26825,-1.26825 1.26825,-1.26825h1.34899c0.20026,0.00083 0.42724,-0.02235 0.67256,-0.0604c-1.09261,-0.50476 -2.83334,-0.84036 -3.50138,-1.80207c-0.74969,-1.07934 -1.09323,-2.61926 -1.25012,-4.15276c-0.08482,-0.17015 -0.13255,-0.36206 -0.13255,-0.56511c0,-0.13176 0.02011,-0.25885 0.0574,-0.37831c-0.01215,-0.20552 -0.02167,-0.40915 -0.02915,-0.6097c-0.25195,-0.34393 -0.47958,-0.73478 -0.68138,-1.15927l-0.57567,1.38163c-0.18436,0.47268 -0.64406,0.80758 -1.18199,0.80758c-0.70045,0 -1.26825,-0.5678 -1.26825,-1.26825v-1.34898c0,-2.1866 -1.18247,-10.2085 2.21188,-10.71057c0.29517,-0.04367 0.56986,0.01215 0.82543,0.1493c-0.23392,-2.187 -0.18111,-4.37797 0.03289,-6.83483c0.12943,-1.48593 -0.29768,-3.6038 0.85767,-4.83911c0.50289,-0.53769 2.75133,-0.56034 3.0387,-1.55668c0.71837,-2.49056 0.00887,-3.97046 2.42788,-5.71461c0,0 1.05524,-0.70351 1.75875,0.35175c0.70348,1.05524 -0.35175,1.75875 -0.35175,1.75875c-1.83795,1.05291 -0.7622,2.8693 -1.49642,4.58672c-0.85339,1.99608 -2.36562,1.3949 -3.58357,2.36763c-0.35609,0.28439 -0.08855,2.85345 -0.12339,3.25476c-0.35424,4.08033 -0.27956,7.29653 1.02354,11.21315c0.92004,2.10297 1.17589,5.32834 2.23735,7.80285c0.75332,0.32475 1.41966,0.69761 1.77283,1.22483c0.30351,0.4531 0.53982,1.09163 0.73115,1.79254c1.98187,1.30087 4.61726,2.51597 6.83468,2.98535c1.35545,0.28691 5.21839,-0.01383 6.22774,0.93145c3.71125,3.47573 -1.64152,4.70666 -4.0151,4.7663c-0.82713,0.16033 -1.76477,0.16126 -2.59652,0.02038c-0.60802,0.01411 -1.21632,0.03918 -1.82859,0.08363l-1.23322,0.33634c-0.11463,0.03405 -0.23605,0.05234 -0.36172,0.05234c-0.54876,0 -1.0161,-0.34851 -1.19279,-0.83628c-0.55634,0.17475 -1.24906,0.10304 -2.06608,-0.34475c-0.51351,-0.28143 -0.86716,-0.72797 -1.11793,-1.27602c-0.7074,0.08041 -1.41676,0.1245 -2.12285,0.12697h-1.34899c0,0 -1.26825,0 -1.26825,-1.26825zM217.16975,173.0655c0.32497,-0.01761 0.26327,-0.04814 -0.03372,-0.0895c0.01194,0.03009 0.02317,0.05992 0.03372,0.0895z" fill="#939393" stroke="none" stroke-width="0.5" stroke-linecap="butt"/><path d="M264.22972,178.40564c-0.99034,0.79227 -1.7826,-0.19807 -1.7826,-0.19807l-0.42171,-0.53056c-1.92677,-2.14178 -5.78099,-3.80629 -6.92218,-6.47648c-1.65205,-3.8655 0.91984,-9.28203 1.20278,-13.24413c0.84352,-10.02711 1.60329,-18.15501 8.6607,-25.86983c0,0 0.85698,-0.93489 1.79188,-0.0779c0.93489,0.857 0.07791,1.79188 0.07791,1.79188c-6.67443,7.26509 -7.22004,14.88939 -8.00154,24.35156c-0.23906,3.34572 -2.76906,8.87474 -1.3787,12.10124c0.91738,2.12885 4.86256,3.95879 6.45453,5.72687l0.51703,0.64285c0,0 0.79227,0.99034 -0.19807,1.7826z" fill="#939393" stroke="none" stroke-width="0.5" stroke-linecap="butt"/><path d="M260.7146,135.67548c-0.73717,1.03201 -1.76917,0.29487 -1.76917,0.29487l-1.27611,-1.18528c-1.51757,-4.18283 -1.34924,-5.53176 -5.72147,-7.23051c0,0 -0.22627,-0.08798 -0.44228,-0.28597c-0.41219,-0.12719 -0.67509,-0.4558 -0.67509,-0.4558l-0.32162,-0.43107c-1.23476,-1.12854 -1.74341,-2.1693 -2.59172,-3.5809c0,0 -0.65253,-1.0875 0.43499,-1.74001c1.0875,-0.65251 1.74003,0.43501 1.74003,0.43501c0.70688,1.17989 1.05776,2.09787 2.10185,2.99012l0.55585,0.66862c0.07371,0.01902 0.11731,0.036 0.11731,0.036c5.0352,1.95988 5.48745,4.06677 7.1859,8.7277l0.36663,-0.0119c0,0 1.03201,0.73717 0.29487,1.76917z" fill="#939393" stroke="none" stroke-width="0.5" stroke-linecap="butt"/></g></g></svg>