<svg version="1.1" xmlns="http://www.w3.org/2000/svg" xmlns:xlink="http://www.w3.org/1999/xlink" width="431.22672" height="506.75628" viewBox="0,0,431.22672,506.75628"><defs><linearGradient x1="24.3909" y1="-45.22503" x2="455.61289" y2="-45.22503" gradientUnits="userSpaceOnUse" id="color-1"><stop offset="0.012" stop-color="#a7a9ac"/><stop offset="1" stop-color="#414042"/></linearGradient><linearGradient x1="39.71097" y1="-44.36829" x2="438.58135" y2="-44.36829" gradientUnits="userSpaceOnUse" id="color-2"><stop offset="0" stop-color="#d1d2d3"/><stop offset="1" stop-color="#a4a5a8"/></linearGradient></defs><g transform="translate(-24.38664,72.56123)"><g data-paper-data="{&quot;isPaintingLayer&quot;:true}" fill-rule="nonzero" stroke-linecap="butt" stroke-linejoin="miter" stroke-miterlimit="10" stroke-dasharray="" stroke-dashoffset="0" style="mix-blend-mode: normal"><path d="M455.61336,-26.49423c0,4.752 -18.26296,8.605 -40.77654,8.605h-349.67838c-22.51832,0 -40.7718,-3.854 -40.7718,-8.605v-37.463c0,-4.752 18.25348,-8.604 40.7718,-8.604h349.67364c22.52779,0 40.77654,3.852 40.77654,8.604v37.463z" fill="url(#color-1)" stroke="none" stroke-width="1"/><path d="M438.57709,-63.09959v37.462c0,2.862 -11.02696,5.19 -24.59861,5.19h-349.67364c-13.55743,0 -24.59387,-2.328 -24.59387,-5.19v-37.463c0,-2.862 11.03644,-5.19 24.59387,-5.19h349.67364c13.57165,0 24.59861,2.329 24.59861,5.191z" fill="url(#color-2)" stroke="none" stroke-width="1"/><path d="M276.94961,431.69505c0,-1.38071 1.11929,-2.5 2.5,-2.5c1.38071,0 2.5,1.11929 2.5,2.5c0,1.38071 -1.11929,2.5 -2.5,2.5c-1.38071,0 -2.5,-1.11929 -2.5,-2.5z" fill="#9966ff" stroke="none" stroke-width="0.5"/><text transform="translate(47.2671,-39.28172) scale(0.55575,0.55575)" font-size="40" xml:space="preserve" fill="#000000" fill-rule="nonzero" stroke="#000000" stroke-width="3" stroke-linecap="butt" stroke-linejoin="miter" stroke-miterlimit="10" stroke-dasharray="" stroke-dashoffset="0" font-family="Sans Serif" font-weight="normal" text-anchor="start" style="mix-blend-mode: normal"><tspan x="0" dy="0">Se Recomienda Jugar en TurboWarp</tspan></text></g></g></svg>