<svg version="1.1" xmlns="http://www.w3.org/2000/svg" xmlns:xlink="http://www.w3.org/1999/xlink" width="40.06868" height="47.98774" viewBox="0,0,40.06868,47.98774"><defs><linearGradient x1="221.21612" y1="185.36579" x2="258.78389" y2="185.36579" gradientUnits="userSpaceOnUse" id="color-1"><stop offset="0" stop-color="#32cc60"/><stop offset="1" stop-color="#19af47"/></linearGradient><radialGradient cx="237.76276" cy="163.55086" r="9.39643" gradientUnits="userSpaceOnUse" id="color-2"><stop offset="0" stop-color="#9ceb60"/><stop offset="1" stop-color="#6dd627"/></radialGradient><radialGradient cx="236.72147" cy="166.04354" r="1.85945" gradientUnits="userSpaceOnUse" id="color-3"><stop offset="0" stop-color="#9ceb60"/><stop offset="1" stop-color="#6dd627"/></radialGradient></defs><g transform="translate(-219.96611,-156.2108)"><g data-paper-data="{&quot;isPaintingLayer&quot;:true}" fill-rule="nonzero" stroke-linejoin="miter" stroke-miterlimit="10" stroke-dasharray="" stroke-dashoffset="0" style="mix-blend-mode: normal"><g stroke="none" stroke-width="0.5" stroke-linecap="butt"><path d="M250.67679,173.57467c0.30978,0.66945 0.57072,1.31736 0.76204,1.77454c0.01695,-0.00086 0.03402,-0.00129 0.05118,-0.00129c0.12332,0 0.24144,0.02232 0.35052,0.06315l1.75644,0.61094l-0.02982,0.08576l0.23255,0.01152c0.10731,0.10846 0.22027,0.2153 0.33473,0.32243l-0.00642,-0.08349c-0.00251,-0.02887 -0.00379,-0.05811 -0.00379,-0.08763c0,-0.28185 0.1166,-0.53646 0.3042,-0.71823c-0.13753,-0.10159 -0.27762,-0.21373 -0.41725,-0.33309c-0.18078,0.25849 -0.48067,0.42754 -0.82004,0.42754c-0.29471,0 -0.55965,-0.1275 -0.74267,-0.33034l-0.7705,-0.84755l0.1361,-0.12372c-0.34035,-0.2099 -0.77948,-0.45873 -1.13726,-0.77053zM248.25028,170.63896c0.0141,-0.07244 0.03657,-0.14898 0.06887,-0.22973c0.37139,-0.92847 1.29987,-0.55709 1.29987,-0.55709l0.61523,0.28312c0.23854,0.17905 0.55145,0.38259 0.88251,0.60558c0.6277,-0.19503 1.52746,0.17505 2.13963,0.48189c0.21207,0.10629 3.28437,3.76739 3.32737,3.95603c0.00899,0.03942 0.01721,0.07895 0.02471,0.11856l0.01637,-0.00481l0.38007,1.29225c0.03064,0.09599 0.04718,0.19827 0.04718,0.30442c0,0.43401 -0.2765,0.80344 -0.66295,0.94177c0.00501,0.01458 0.01007,0.02914 0.01517,0.04368l0.58383,0.47768c0.2276,0.1833 0.37323,0.46426 0.37323,0.77925c0,0.55229 -0.44771,1 -1,1c-0.16796,0 -0.32624,-0.0414 -0.46521,-0.11457l-0.63264,-0.31632c-0.53268,1.69101 -1.53349,1.52656 -2.98135,0.39888c-2.21995,-1.72904 -2.09332,-4.50372 -3.59169,-6.5396c-0.2577,-0.35014 -0.75093,-0.70643 -1.29878,-1.03841l-0.11941,-0.01137l-0.00449,0.03596l-1.22402,-0.153c-0.50011,-0.05516 -0.88913,-0.47911 -0.88913,-0.99392c0,-0.55229 0.44771,-1 1,-1c0.03572,0 0.07099,0.00187 0.10573,0.00552c0.31686,-0.13098 0.64506,-0.06065 0.64506,-0.06065l1.06366,0.22792c0.07627,0.01472 0.14944,0.03811 0.21847,0.0691c0.0209,-0.00155 0.0418,-0.00226 0.06268,-0.00215z" fill="#ff94b6"/><path d="M255.25209,179.60245c-0.8575,0.5145 -1.37199,-0.343 -1.37199,-0.343l-0.37253,-0.96349c0.02462,-0.34391 0.00827,-0.80273 0.04379,-1.23368c-0.27361,0.09856 -0.54906,0.15603 -0.82952,0.10243c-0.57151,-0.10923 -0.91603,-0.73153 -1.28493,-1.18149c-0.3202,-0.39056 -0.63467,-0.78232 -0.94729,-1.17497c-0.00375,0.0684 -0.00774,0.13981 -0.01224,0.21437c0,0 -0.06652,0.99778 -1.0643,0.93126c-0.99778,-0.06652 -0.93127,-1.0643 -0.93127,-1.0643c0.06144,-0.85406 0.18731,-1.53556 0.43136,-2.06435c-0.41567,-0.51731 -0.83928,-1.03531 -1.27949,-1.55331c0,0 -0.12873,-0.15214 -0.20334,-0.37806c-0.66448,-0.0146 -1.36037,0.02023 -2.0867,0.10668c0,0 -0.99315,0.11684 -1.10999,-0.87631c-0.11684,-0.99315 0.87631,-1.10999 0.87631,-1.10999c8.12964,-0.94621 13.33888,3.87601 13.87301,11.82925l0.00222,0.6851c0,0 0,1 -1,1c-1,0 -1,-1 -1,-1l0.00221,-0.55206c-0.12288,-1.85615 -0.52075,-3.50182 -1.17584,-4.89759l-0.0339,-0.00521c-0.06841,0.70363 -0.22126,1.30901 -0.27398,2.34699l0.09141,-0.19026c0,0 0.5145,0.85749 -0.343,1.37198zM253.19647,175.22185c0.16285,-0.00043 0.27887,-0.1465 0.40241,-0.26919l-0.01227,-0.01595l0.99785,-0.76758c0.00958,-0.00753 0.01932,-0.01488 0.02918,-0.02206c-0.42271,-0.52408 -0.89869,-0.99021 -1.42618,-1.39446c-0.23316,0.5745 -0.92423,0.57449 -0.92423,0.57449h-0.0404c0.2507,0.80506 0.24964,1.89663 0.97363,1.89475zM250.74834,171.45448c-0.03755,-0.0129 -0.07528,-0.02559 -0.11315,-0.03806c0.01875,0.01687 0.0375,0.03375 0.05622,0.05064c0.01882,-0.00429 0.03779,-0.00849 0.05692,-0.01257z" fill="#c16f89"/></g><path d="M258.53638,184.66037c-1.19452,6.55389 -1.19574,10.12271 -7.13737,15.58914c-6.36023,5.85155 -7.40433,0.13973 -11.6684,0.13973c-3.83815,0 -4.77286,5.41496 -10.42993,0.49192c-4.49851,-3.91482 -8.08456,-10.17769 -8.08456,-17.21819c0,-5.51752 0.57637,-9.77499 3.81696,-13.44507c1.23551,-1.39926 3.48194,-3.19699 4.80594,-2.4851c2.74798,1.47753 4.65416,1.90427 7.96388,1.90427c0.81692,0 3.70563,-0.11322 6.63283,-0.23046c0.49603,1.46642 1.94232,1.94988 3.22375,2.52221c0.5111,0.22827 1.03351,3.4272 1.7176,4.11546c1.50973,1.51892 4.6433,2.0828 6.59661,3.36021c0.79611,0.52063 0.73719,2.4346 1.6648,3.22969c0.17651,0.1513 0.43194,0.29518 0.73612,0.42299c0.0575,0.20559 0.15715,0.40705 0.30849,0.60186c-0.03789,0.33777 -0.08668,0.67189 -0.14673,1.00134z" fill="url(#color-1)" stroke="#003200" stroke-width="2.5" stroke-linecap="butt"/><g stroke="#003200" stroke-width="2.5" stroke-linecap="round"><path d="M241.85357,168.73447l-3.17346,0.90643c0,0 -5.83213,-0.58581 -6.29734,-0.67982c-0.46521,-0.094 0.46304,0.33563 -0.99171,-0.79312c-1.13897,-0.88372 -1.71378,-1.85885 -2.28093,-3.05919c-0.56715,-1.20033 -0.9917,-2.4455 -0.74378,-3.34245c0.24792,-0.89695 0.46679,-0.6452 1.93383,-0.96308c1.46704,-0.31788 2.87935,-0.37917 3.81807,-0.28326c0.59964,0.06127 1.06594,-0.02816 2.28093,0.90643c1.215,0.93459 2.7272,2.94589 2.7272,2.94589c0,0 -0.08295,4.14445 -0.04959,4.41884c0.03336,0.27439 0.42333,0.91568 0.54544,-0.33991c0.12211,-1.25559 -0.48475,-1.32034 -0.19834,-3.22915c0.28641,-1.90881 0.57307,-3.21817 1.38839,-4.70209c0.81532,-1.48392 2.21008,-2.67881 2.87595,-3.05919c0.66586,-0.38038 0.89481,-0.82282 1.88424,0.33991c0.98942,1.16273 1.47419,3.29925 1.58673,3.73902c0.11254,0.43977 0.55894,0.63197 -0.3471,1.10503c-0.90604,0.47306 -1.52892,-0.2966 -2.52885,0.39656c-0.99994,0.69316 -1.20594,1.46401 -1.73549,2.66263c-0.52955,1.19862 -0.89254,3.2858 -0.89254,3.2858" fill="url(#color-2)"/><path d="M238.58092,168.05468l-3.7189,-4.02227" fill="url(#color-3)"/></g><path d="M232.17379,172.49383c0,1.25 -1.25,1.25 -1.25,1.25l-0.51896,-0.05272c-1.43339,0.25871 -1.29966,1.13801 -2.07999,2.39237c0,0 -0.6625,1.06 -1.7225,0.3975c-1.06,-0.6625 -0.3975,-1.7225 -0.3975,-1.7225c1.22673,-1.95242 1.16524,-2.62411 3.48162,-3.46194l1.23734,-0.05272c0,0 1.25,0 1.25,1.25z" fill="#ffd9c6" stroke="none" stroke-width="0.5" stroke-linecap="butt"/><g><path d="M226.51951,178.00166l11.05295,0.65792c0,0 0.51627,2.91225 -0.08772,4.60539c-0.60398,1.69314 -1.58216,2.96986 -3.24571,3.07027c-1.53557,0.09268 -3.29347,-1.38549 -3.72818,-2.63165c-0.43471,-1.24616 -0.30702,-5.08786 -0.30702,-5.08786" fill="#d6d58b" stroke="#003200" stroke-width="2" stroke-linecap="round"/><path d="M243.22748,180.50767l7.6575,0.29368c0,0 0.39039,1.88576 -0.00841,2.99307c-0.3988,1.1073 -1.06131,1.94859 -2.21156,2.03395c-1.06176,0.0788 -2.29523,-0.86026 -2.61026,-1.6646c-0.31503,-0.80434 -0.27029,-3.30174 -0.27029,-3.30174" fill="#d6d58b" stroke="#003200" stroke-width="1.5" stroke-linecap="round"/><path d="M232.40554,182.16845c0,-0.8236 0.66767,-1.49128 1.49127,-1.49128c0.8236,0 1.49127,0.66767 1.49127,1.49128c0,0.8236 -0.66766,1.49127 -1.49127,1.49127c-0.8236,0 -1.49127,-0.66767 -1.49127,-1.49127z" fill="#d6d323" stroke="none" stroke-width="0" stroke-linecap="butt"/><path d="M247.4937,183.0018c0,-0.53292 0.43202,-0.96494 0.96494,-0.96494c0.53292,0 0.96494,0.43202 0.96494,0.96494c0,0.53292 -0.43202,0.96494 -0.96494,0.96494c-0.53292,0 -0.96494,-0.43202 -0.96494,-0.96494z" fill="#d6d323" stroke="none" stroke-width="0" stroke-linecap="butt"/></g><g><path d="M233.17086,192.75459h12.40574l0.32433,2.14871l-13.21657,0.12162z" fill="#d6d58b" stroke="#003200" stroke-width="1.5" stroke-linecap="round"/><path d="M235.34738,194.37793c0.04221,-0.49086 -0.28527,-1.5898 0.0964,-1.8079c0.08697,-0.14737 0.2474,-0.24623 0.43091,-0.24623c0.25382,0 0.46346,0.18912 0.4957,0.43413c0.94116,1.31584 -1.18855,3.54478 -1.02301,1.62z" fill="#003200" stroke="none" stroke-width="0.5" stroke-linecap="butt"/><path d="M238.7134,194.98381c-1.00858,0.43225 -0.84731,-1.96232 -0.90327,-2.35407c-0.00411,-0.0258 -0.00624,-0.05227 -0.00624,-0.07923c0,-0.10529 0.03254,-0.20297 0.08812,-0.28355c0.0359,-0.06606 0.07809,-0.10688 0.1248,-0.12587c0.08124,-0.05707 0.18025,-0.09058 0.28708,-0.09058c0.27614,0 0.5,0.22386 0.5,0.5c0,0.1016 -0.0303,0.19612 -0.08236,0.27502c0.37906,0.75866 0.59775,1.89862 -0.00812,2.15828z" fill="#003200" stroke="none" stroke-width="0.5" stroke-linecap="butt"/><path d="M241.82622,195.26716c-0.65106,0 -0.7854,-2.42082 -0.24872,-2.72749c0.08697,-0.14737 0.2474,-0.24623 0.43091,-0.24623c0.27614,0 0.5,0.22386 0.5,0.5c0,0.08876 -0.02312,0.17212 -0.06368,0.24438c0.21793,0.89888 0.01433,2.22935 -0.6185,2.22935z" fill="#003200" stroke="none" stroke-width="0.5" stroke-linecap="butt"/><path d="M243.33838,194.12784c-0.0612,-0.3462 -0.07099,-0.63746 -0.10319,-0.99166c-0.05494,-0.08028 -0.08706,-0.17739 -0.08706,-0.28202c0,-0.11417 0.03826,-0.21939 0.10266,-0.30356c0.15216,-0.38274 0.27967,-0.39535 0.38077,-0.19617c0.0055,-0.00018 0.01103,-0.00027 0.01657,-0.00027c0.27614,0 0.5,0.22386 0.5,0.5c0,0.20747 -0.12637,0.38544 -0.30634,0.46112c0.1721,1.52945 0.02676,3.81173 -0.5034,0.81256z" fill="#003200" stroke="none" stroke-width="0.5" stroke-linecap="butt"/></g></g></g></svg>