<svg version="1.1" xmlns="http://www.w3.org/2000/svg" xmlns:xlink="http://www.w3.org/1999/xlink" width="770.89367" height="770.89367" viewBox="0,0,770.89367,770.89367"><g transform="translate(148.44983,212.95432)"><g data-paper-data="{&quot;isPaintingLayer&quot;:true}" fill-rule="nonzero" stroke-linecap="butt" stroke-linejoin="miter" stroke-miterlimit="10" stroke-dasharray="" stroke-dashoffset="0" style="mix-blend-mode: normal"><g fill="#73b5e4" stroke="none" stroke-width="1"><path d="M236.99692,557.93918c-212.87603,0 -385.44675,-172.57039 -385.44675,-385.44675c0,-212.87603 172.57039,-385.44675 385.44692,-385.44675c212.87636,0 385.44675,172.57039 385.44675,385.44692c0,212.87603 -172.57039,385.44675 -385.44675,385.44675z"/><path d="M543.23198,142.37419c-100.36105,-100.36105 -200.71064,-200.71064 -301.0717,-301.0717c178.86656,2.74709 323.29081,147.16004 326.02693,326.02693z"/><path d="M391.29507,465.4223c-149.76334,-148.51688 -298.61153,-297.96054 -446.79727,-448.04406c45.85026,-86.25056 128.4602,-149.9841 227.14407,-169.73192l390.21281,390.21281c-19.82495,98.99291 -83.90061,181.81247 -170.55945,227.56333z"/><path d="M-45.97041,104.90851c127.04816,128.37192 254.86835,255.97151 383.06356,383.18491c-31.61858,10.02851 -65.15671,15.72102 -100.09607,15.72102c-182.98196,0 -331.32213,-148.34034 -331.32213,-331.32213c0,-35.10493 5.7477,-68.80848 15.86464,-100.55954c10.84474,10.97723 21.63445,22.00932 32.49017,32.97575z"/></g><path d="M-2.34931,124.01773c0,0 58.56773,-105.01803 141.37042,-135.31166c0,0 159.54662,-36.35239 212.05559,-14.13705c0,0 105.01803,72.70478 131.27252,113.09632c0,0 -141.37042,262.54504 -208.01645,302.93657c0,2.01961 -250.4276,-157.52701 -276.68209,-266.58418z" fill="#7fccef" stroke="#ffffff" stroke-width="7.5"/><path d="M296.49045,326.14858l-40.33387,-72.87786l96.93974,-117.13547l111.07679,-68.66564c8.07829,6.05876 14.13705,14.13705 18.1762,20.19581c0,0 -110.2689,202.99641 -178.93453,245.40756z" fill="#678fe4" stroke="#ffffff" stroke-width="7.5"/><path d="M215.76504,71.50876l137.33128,64.62649c-4.03915,64.62649 -85.68778,216.32565 -85.68778,216.32565c-58.56773,-60.58735 -102.13294,-196.12984 -102.13294,-196.12984z" fill="#73b5e4" stroke="#ffffff" stroke-width="11"/><path d="M443.57348,89.05022c-50.48944,28.2741 -42.00716,32.9479 -90.47707,47.08495c-72.70478,22.21534 -187.82072,20.19581 -187.82072,20.19581c-36.35239,0 -128.849,-30.92837 -128.849,-30.92837c0,0 21.81144,-104.3833 102.59451,-136.69654c0,0 157.52701,-36.35239 212.05559,-14.13705c0,0 59.31788,65.78055 85.57237,106.17208z" fill="#92d7ef" stroke="#ffffff" stroke-width="7.5"/><path d="M300.58735,14.96047l54.52859,123.19423c-72.70478,22.21534 -187.82072,20.19581 -187.82072,20.19581l8.07829,-131.27252l24.23496,-48.46983c26.25449,-6.05876 56.5482,-8.07829 84.82222,-10.09791z" fill="#7fccef" stroke="#ffffff" stroke-width="7.5"/><path d="M334.92013,53.33256c10.09791,0 51.98974,22.33076 100.45957,32.42866c2.01961,2.01961 6.17417,-0.11541 8.1937,1.9042c-50.48944,28.2741 -42.00725,34.33278 -90.47716,48.46983c-72.70478,22.21534 -187.82072,20.19581 -187.82072,20.19581c-36.35239,0 -153.77644,-32.31325 -153.77644,-32.31325c0,0 8.94385,1.50029 12.983,-4.55847c58.56773,-18.1762 122.61716,-49.97012 138.77382,-49.97012c24.23496,0 157.52701,-14.13705 171.66406,-16.15658z" fill="#83cdef" stroke="#ffffff" stroke-width="11"/><path d="M151.48479,12.24854c0,0 145.06333,-59.89495 201.61153,-35.65991c-14.13705,36.35239 -50.48944,40.39154 -50.48944,40.39154l-127.23337,8.07829c-24.23496,-18.1762 -23.88871,-12.80984 -23.88871,-12.80984z" fill="#bee6f1" stroke="#ffffff" stroke-width="7.5"/><path d="M431.1098,91.18525c-50.48944,28.2741 -29.54349,28.79334 -78.0134,42.93039l-52.50897,-119.15508l32.9479,-19.50333c6.05876,0 5.1932,-11.82894 9.23234,-9.80933c0,0 64.85724,64.39567 91.11172,102.76767z" fill="#73b5e4" stroke="#ffffff" stroke-width="7.5"/><path d="M469.88563,109.82302c0,0 10.44406,-16.09892 6.40492,-8.02063c-4.03915,10.09791 -10.09791,22.21534 -16.15658,38.37201c-4.03915,8.07829 -8.07829,16.15658 -12.11744,24.23496c-4.03915,8.07829 -10.09791,18.1762 -16.15658,28.2741c-10.09791,18.1762 -24.23496,38.37201 -36.35239,58.56773c-14.13705,18.1762 -28.2741,38.37201 -40.39154,54.52859c-14.13705,16.15658 -26.25449,32.31325 -38.37201,44.43068c-24.23496,26.25449 -40.39154,40.39154 -40.39154,40.39154c0,0 16.15658,-18.1762 36.35239,-44.43068c10.09791,-14.13705 22.21534,-30.29363 36.35239,-46.4503c12.11744,-18.1762 26.25449,-36.35239 40.39154,-54.52859c14.13705,-18.1762 26.25449,-38.37201 36.35239,-56.5482c12.11744,-18.1762 22.21534,-36.35239 30.29363,-50.48944c8.07829,-14.13705 16.15658,-28.2741 20.19581,-36.35239c4.03915,-8.07829 6.05876,-14.13705 6.05876,-14.13705z" fill="#3b73e4" stroke="#ffffff" stroke-width="7.5"/><path d="M29.50237,139.25109c0,0 -21.75369,-15.23344 -7.61664,-13.21374c14.13705,2.01961 32.31325,4.03915 50.48944,8.07829c18.1762,4.03915 36.35239,8.07829 50.48944,12.11744c14.13705,4.03915 22.21534,6.05876 22.21534,6.05876c0,0 -10.09791,2.01961 -24.23496,0c-14.13705,-2.01961 -32.31325,-4.03915 -50.48944,-8.07829c-18.1762,-4.03915 -36.35239,-8.07829 -50.48944,-12.11744c-14.13705,-4.03915 -22.21534,-8.07829 -22.21534,-8.07829z" fill="#bee6f1" stroke="#ffffff" stroke-width="7.5"/><path d="M169.31483,176.52679c0,0 6.05876,12.11744 12.11744,28.2741c8.07829,18.1762 16.15658,40.39154 26.25449,62.60688c8.07829,22.21534 18.1762,46.4503 24.23496,62.60688c4.03915,8.07829 -14.71404,-40.62237 -10.67489,-36.58314c4.03915,4.03915 9.5785,15.75276 9.5785,15.75276c0,0 3.51983,21.52286 -0.51932,17.48371c-4.03915,-4.03915 1.61571,13.44457 -4.44313,5.36628c-10.09791,-16.15658 -20.19581,-38.37201 -30.29363,-62.60688c-10.09791,-24.23496 -16.15658,-46.4503 -22.21534,-64.62649c0,-16.15658 -4.03915,-28.2741 -4.03915,-28.2741z" fill="#bee6f1" stroke="#ffffff" stroke-width="11"/><path d="M334.92013,53.33256c10.09791,0 53.37453,22.33076 101.84436,32.42866c2.01961,2.01961 -33.98654,1.26947 -31.96701,3.28908c-50.48944,28.2741 -3.23133,32.9479 -51.70124,47.08495l-34.33278,-80.78308c8.07829,0 14.13705,0 16.15658,-2.01961z" fill="#679fe4" stroke="#ffffff" stroke-width="11"/><path d="M318.76354,55.35209l34.33278,80.78308c-72.70478,22.21534 -187.82072,20.19581 -187.82072,20.19581l6.05876,-86.84184c32.31325,-2.01961 113.09632,-10.09791 147.42918,-14.13705z" fill="#7cbfef" stroke="#ffffff" stroke-width="11"/><path d="M-2.34931,124.01773c0,0 58.56773,-105.01803 141.37042,-135.31166c0,0 159.54662,-36.35239 212.05559,-14.13705c0,0 105.01803,72.70478 131.27252,113.09632c0,0 -141.37042,262.54504 -208.01645,302.93657c0,2.01961 -250.4276,-157.52701 -276.68209,-266.58418z" fill="#7fccef" stroke="none" stroke-width="1"/><path d="M274.33278,392.62153l-18.1762,-139.35081l96.93974,-117.13547l111.07679,-68.66564c8.07829,6.05876 14.13705,14.13705 18.1762,20.19581c0,0 -139.35081,262.54504 -208.01645,304.95619z" fill="#678fe4" stroke="none" stroke-width="1"/><path d="M215.76504,71.50876l137.33128,64.62649c-4.03915,64.62649 -78.76354,256.48636 -78.76354,256.48636c-58.56773,-60.58735 -109.05718,-236.29055 -109.05718,-236.29055z" fill="#73b5e4" stroke="none" stroke-width="1"/><path d="M482.34931,87.66534c-50.48944,28.2741 -80.78308,34.33278 -129.25299,48.46983c-72.70478,22.21534 -187.82072,20.19581 -187.82072,20.19581c-36.35239,0 -167.62491,-32.31325 -167.62491,-32.31325c0,0 60.58735,-102.99842 141.37042,-135.31166c0,0 157.52701,-36.35239 212.05559,-14.13705c0,0 105.01803,72.70478 131.27252,113.09632z" fill="#92d7ef" stroke="none" stroke-width="1"/><path d="M300.58735,14.96055l54.52859,123.19423c-72.70478,22.21534 -187.82072,20.19581 -187.82072,20.19581l8.07829,-131.27252l24.23496,-48.46983c26.25449,-6.05876 56.5482,-8.07829 84.82222,-10.09791z" fill="#7fccef" stroke="none" stroke-width="1"/><path d="M334.92013,53.33256c10.09791,0 94.92013,18.1762 143.38995,28.2741c2.01961,2.01961 2.01961,4.03915 4.03915,6.05876c-50.48944,28.2741 -80.78308,34.33278 -129.25299,48.46983c-72.70478,22.21534 -187.82072,20.19581 -187.82072,20.19581c-36.35239,0 -167.62491,-32.31325 -167.62491,-32.31325c0,0 2.01961,-4.03915 6.05876,-10.09791c58.56773,-18.1762 143.38995,-44.43068 159.54662,-44.43068c24.23496,0 157.52701,-14.13705 171.66406,-16.15658z" fill="#83cdef" stroke="none" stroke-width="1"/><path d="M139.02111,-11.29393c0,0 157.52701,-36.35239 214.07521,-12.11744c-14.13705,36.35239 -50.48944,40.39154 -50.48944,40.39154l-127.23337,8.07829c-24.23496,-18.1762 -36.35239,-36.35239 -36.35239,-36.35239z" fill="#bee6f1" stroke="none" stroke-width="1"/><path d="M482.34931,85.64581c-50.48944,28.2741 -80.78308,34.33278 -129.25299,48.46983l-52.50897,-119.15508l34.33278,-44.43068c6.05876,0 12.11744,2.01961 16.15658,4.03915c0,0 105.01803,72.70478 131.27252,111.07679z" fill="#73b5e4" stroke="none" stroke-width="1"/><path d="M482.34931,87.66534c0,0 -2.01961,6.05876 -6.05876,14.13705c-4.03915,10.09791 -10.09791,22.21534 -16.15658,38.37201c-4.03915,8.07829 -8.07829,16.15658 -12.11744,24.23496c-4.03915,8.07829 -10.09791,18.1762 -16.15658,28.2741c-10.09791,18.1762 -24.23496,38.37201 -36.35239,58.56773c-14.13705,18.1762 -28.2741,38.37201 -40.39154,54.52859c-14.13705,16.15658 -26.25449,32.31325 -38.37201,44.43068c-24.23496,26.25449 -40.39154,40.39154 -40.39154,40.39154c0,0 16.15658,-18.1762 36.35239,-44.43068c10.09791,-14.13705 22.21534,-30.29363 36.35239,-46.4503c12.11744,-18.1762 26.25449,-36.35239 40.39154,-54.52859c14.13705,-18.1762 26.25449,-38.37201 36.35239,-56.5482c12.11744,-18.1762 22.21534,-36.35239 30.29363,-50.48944c8.07829,-14.13705 16.15658,-28.2741 20.19581,-36.35239c4.03915,-8.07829 6.05876,-14.13705 6.05876,-14.13705z" fill="#3b73e4" stroke="none" stroke-width="1"/><path d="M-2.34931,124.01773c0,0 10.09791,0 24.23496,2.01961c14.13705,2.01961 32.31325,4.03915 50.48944,8.07829c18.1762,4.03915 36.35239,8.07829 50.48944,12.11744c14.13705,4.03915 22.21534,6.05876 22.21534,6.05876c0,0 -10.09791,2.01961 -24.23496,0c-14.13705,-2.01961 -32.31325,-4.03915 -50.48944,-8.07829c-18.1762,-4.03915 -36.35239,-8.07829 -50.48944,-12.11744c-14.13705,-4.03915 -22.21534,-8.07829 -22.21534,-8.07829z" fill="#bee6f1" stroke="none" stroke-width="1"/><path d="M169.31483,176.52679c0,0 6.05876,12.11744 12.11744,28.2741c8.07829,18.1762 16.15658,40.39154 26.25449,62.60688c8.07829,22.21534 18.1762,46.4503 24.23496,62.60688c4.03915,8.07829 6.05876,16.15658 10.09791,20.19581c4.03915,4.03915 4.03915,6.05876 4.03915,6.05876c0,0 -2.01961,-2.01961 -6.05876,-6.05876c-4.03915,-4.03915 -8.07829,-10.09791 -14.13705,-18.1762c-10.09791,-16.15658 -20.19581,-38.37201 -30.29363,-62.60688c-10.09791,-24.23496 -16.15658,-46.4503 -22.21534,-64.62649c0,-16.15658 -4.03915,-28.2741 -4.03915,-28.2741z" fill="#bee6f1" stroke="none" stroke-width="1"/><path d="M334.92013,53.33256c10.09791,0 94.92013,18.1762 143.38995,28.2741c2.01961,2.01961 2.01961,4.03915 4.03915,6.05876c-50.48944,28.2741 -80.78308,34.33278 -129.25299,48.46983l-34.33278,-80.78308c8.07829,0 14.13705,0 16.15658,-2.01961z" fill="#679fe4" stroke="none" stroke-width="1"/><path d="M318.76354,55.35209l34.33278,80.78308c-72.70478,22.21534 -187.82072,20.19581 -187.82072,20.19581l6.05876,-86.84184c32.31325,-2.01961 113.09632,-10.09791 147.42918,-14.13705z" fill="#7cbfef" stroke="none" stroke-width="1"/></g></g></svg>