<svg version="1.1" xmlns="http://www.w3.org/2000/svg" xmlns:xlink="http://www.w3.org/1999/xlink" width="44.14248" height="33.09697" viewBox="0,0,44.14248,33.09697"><g transform="translate(-219.76502,-150.16944)"><g stroke-miterlimit="10"><path d="M241.7522,181.11395c-10.53622,0 -19.07751,-4.11813 -19.07751,-9.1981c0,-5.07998 8.5413,-9.1981 19.07751,-9.1981c10.53622,0 19.07751,4.11813 19.07751,9.1981c0,5.07998 -8.5413,9.1981 -19.07751,9.1981z" fill="#c7c7c7" stroke="#000000" stroke-width="0.5" stroke-linecap="butt"/><path d="M236.20439,159.751c1.31432,-1.07741 1.27893,-3.80881 2.74722,-4.84486c0.16644,-0.03427 0.30688,-0.05418 0.41297,-0.05491c1.22784,-0.00838 2.20566,0.06234 3.16403,0.20819c0.07661,0.06629 0.15631,0.12909 0.23884,0.1882c0.92928,2.75458 3.06228,4.25437 5.89194,1.50744c0.52845,0.00206 1.05777,-0.00374 1.58637,-0.00294c0.77996,0.31702 1.32836,0.93091 1.88458,1.39094l0.16429,0.25817l0.036,0.108l0.09886,0.11534l0.19747,0.39494l0.00681,0.03064l0.1622,0.22459l0.01147,0.02866l0.06896,0.09194l0.02275,0.05404l0.04339,0.03944l0.09873,0.14811l0.04386,0.12281l0.08487,0.09901l0.02962,0.05923l0.11848,0.13824l0.04936,0.09873l0.019,0.0855l0.05127,0.07099l0.04552,0.11379l0.09111,0.15944l0.25678,0.38516l0.02444,0.06842l0.05026,0.05244l0.19747,0.34556l0.05566,0.19789l0.11035,0.17342l0.05236,0.15705l0.03314,0.06629l0.04931,0.22187l0.10695,0.20055l0.12094,0.48372c0.47345,-0.48107 1.02086,-0.84728 1.7005,-1.04429c0.63187,0.14118 1.18274,0.0719 1.64825,-0.1459c0.40328,0.03044 0.84178,0.10304 1.32084,0.22281c2.9662,0.74155 1.86636,5.94635 1.76015,9.00197c-0.01231,0.35434 -0.00726,0.78121 -0.25798,1.03192c-3.60638,3.60638 -3.78429,-2.0882 -3.86971,-3.92806c-0.01084,-0.23355 -0.20942,0.45136 -0.41242,0.56736c-0.522,0.29829 -2.95424,0.6344 -3.33231,-0.02721l-0.38937,-0.6814l-0.37207,-0.01771l-0.48601,-0.0162l-0.02916,-0.00832l-0.06159,-0.00294l-0.017,-0.01952l-0.5834,-0.16668l-0.32525,-0.18764l-0.34607,-0.14572l-0.57322,-0.42992l-0.13759,-0.09827l0.01344,0.63171l-0.41018,0.41018l-0.14421,0.52878l-0.52878,0.14421l-0.38755,0.38755l-0.53065,-0.13713l-0.55963,0.15264l-0.49481,-0.29689l-0.03618,0.00249l-0.07831,-0.0712l-0.26094,-0.15656l-0.0532,-0.01375l-0.02903,-0.05174l-0.10773,-0.10773l-0.10576,-0.17626l-0.15211,-0.13828l-0.39494,-0.59241l-0.00758,-0.02126l-0.01636,-0.01553l-0.69116,-1.08609l-0.02703,-0.08107l-0.05701,-0.06364l-0.22761,-0.43128l-0.02014,0.06649l-0.05966,0.09973l-0.01851,0.11473l-0.2962,0.69116l-0.17673,0.23254l-0.15182,0.32051l-0.1229,0.04097l-0.19216,0.25284l-0.8637,0.09912l-0.7944,0.2648l-0.17615,-0.15343l-0.23208,0.02664l-0.50459,-0.66826l-0.65557,-0.571l-0.01325,-0.27824c-0.02755,0.06801 -0.05862,0.13422 -0.093,0.19841l-0.01477,0.05908l-0.02721,0.01555c-0.35901,0.6083 -1.02118,1.01638 -1.77866,1.01638c-0.67597,0 -1.27605,-0.32499 -1.6525,-0.82724c-0.26036,0.16889 -0.58357,0.3119 -0.97845,0.42264c-0.1069,0.23999 -0.27068,0.47632 -0.49996,0.7056c-0.49023,0.49023 -1.11255,1.03192 -1.80587,1.03192c-1.13946,0 -1.32204,-1.94321 -2.29878,-2.53001c-1.80806,-1.08624 -2.865,1.40209 -3.75427,2.37285c-0.06612,0.07216 -0.12513,0.15148 -0.17715,0.23611c0.09572,0.2379 0.14839,0.49775 0.14839,0.7699c0,0.25863 -0.04757,0.50614 -0.13443,0.73426c0.17957,0.30604 0.28254,0.66248 0.28254,1.04297c0,1.1367 -0.91894,2.05875 -2.05444,2.06382c-2.15882,1.06975 -2.73017,-3.12103 -2.66566,-5.86514c0.01165,-0.49554 0.11965,-0.87724 0.28849,-1.19027c0.00726,-0.14315 0.01056,-0.2741 0.00771,-0.3895c-0.10576,-4.28704 0.83847,-7.33033 6.00826,-6.46869c0.94338,0.15722 1.50428,0.99771 2.37759,1.14897c1.1575,0.2005 2.23731,-0.25315 3.2454,-0.01988c0.05985,-0.01786 0.12083,-0.03307 0.18282,-0.04552c0.34647,-0.23026 0.75808,-0.48787 1.29495,-0.92795zM240.49354,164.43931l0.00405,-0.00996c-0.06946,0.03251 -0.14104,0.06125 -0.21445,0.08598l0.04181,0.18813c0.02353,0.0633 0.04404,0.12808 0.06134,0.19415l0.07974,-0.26578z" fill="#c7c7c7" stroke="none" stroke-width="0.5" stroke-linecap="butt"/><path d="M231.67173,158.83863c0.24965,0 0.48396,0.11705 0.695,0.27425c0.26308,-0.83678 0.90913,-1.81171 1.64291,-1.81229c0.37792,-1.42448 0.94229,-2.66286 2.10997,-3.49396c0.71981,-1.67746 1.98704,-2.94917 3.57027,-2.93089c0.72273,0.00835 1.2715,0.3694 1.64008,0.89119c1.03488,0.13092 2.01748,1.02095 3.31579,2.25356c0.52326,0.49678 1.43309,0.44319 1.9433,0.95339c0.12761,0.12761 0.26051,0.75544 0.34568,1.50724c0.63435,-0.14552 1.23646,-0.28065 1.68012,-0.26411c3.953,0.14741 5.2498,3.02524 5.2498,6.66944c0,0.06921 0.00057,0.14705 0.00106,0.23098c0.03622,-0.01383 0.07295,-0.02668 0.11012,-0.03851c2.11492,-2.43038 5.5729,-4.90188 7.10167,-0.62132c0.53548,1.49934 0.26224,3.99036 0.13824,5.52214c-0.1815,2.24226 -2.41949,2.48214 -3.86971,1.03192c-0.73926,-0.73926 -0.23636,-2.08052 -0.25798,-3.12576c-0.00796,-0.38463 -0.4297,0.65521 -0.73383,0.89081c-0.43287,0.33529 -2.40731,0.73509 -2.79988,0.04807c-0.27973,-0.16509 -0.51714,-0.39431 -0.69199,-0.66743c-0.7799,0.5401 -1.89414,0.3221 -2.94016,-0.61813c-1.21205,-1.08946 0.98458,-5.00195 -1.39725,-5.17547c-0.55676,-0.04056 0.16768,0.92932 -0.02591,1.43823c-0.09696,0.2549 -0.94678,1.32999 -1.00759,1.39796c-0.75725,0.84633 -2.94198,-0.09956 -4.25631,-0.76152c-0.20807,0.01044 -0.41541,-0.02673 -0.62867,-0.11153c-0.75236,0.88328 -2.38956,0.34714 -3.59724,0.46289c-1.09441,1.82868 -5.31952,3.76914 -6.09227,3.07771l-0.17869,-0.22094c-0.21384,0.39886 -0.54558,0.74623 -1.0185,1.01647c-1.02538,0.58593 -3.34687,-1.67728 -4.35282,-2.18025c-0.36595,0.33051 -0.8509,0.53178 -1.38286,0.53178c-1.13983,0 -2.06384,-0.92402 -2.06384,-2.06384c0,-0.07595 0.0041,-0.15095 0.0121,-0.22478c-0.39007,-0.89602 -0.47666,-1.8752 0.04748,-2.63604c0.1767,-0.59415 0.5028,-1.15032 0.78759,-1.30874c0.77462,-0.43085 1.33427,0.52922 1.81623,0.48406c1.03619,-0.09708 1.20715,-1.6333 2.63339,-1.26474c0.53271,0.13766 0.78404,0.70173 1.07384,1.22041c0.03683,0.02981 0.07361,0.06026 0.11029,0.09137c0.21525,-0.28795 0.61709,-0.47359 1.27053,-0.47359zM239.54293,157.77612c-0.00455,0.08613 0.02205,0.5132 0.0169,0.98486c0.34172,-0.01318 0.70729,-0.02135 1.06805,-0.00105c-0.19864,-0.65809 -0.40433,-1.25852 -0.71836,-1.63438c-0.17055,0.20326 -0.35399,0.41185 -0.36658,0.65057z" fill="#c7c7c7" stroke="none" stroke-width="0.5" stroke-linecap="butt"/><path d="M226.9518,171.13869c0.72127,1.28224 -0.3283,2.72806 0.25351,3.94767c0.87817,1.84076 3.93324,-0.23412 5.05512,1.72915c1.47181,2.57567 -2.46429,3.33169 -4.121,3.22629c-3.52472,-0.22422 -5.14742,-3.31343 -5.17706,-6.35955c-0.00322,-0.33142 0.03664,-1.17437 0.14051,-1.80559c0.00649,-0.04552 0.01447,-0.09056 0.02387,-0.13508c0.19745,-0.93393 1.02647,-1.63482 2.01919,-1.63482c0.67162,0 1.26834,0.32082 1.64523,0.81757c0.06151,0.06353 0.11566,0.13438 0.16064,0.21434z" fill="#c7c7c7" stroke="none" stroke-width="0.5" stroke-linecap="butt"/><path d="M255.02091,160.33537c0.00655,0 0.01308,0.00005 0.01961,0.00016c0.02151,-0.66503 0.56739,-1.19755 1.23765,-1.19755c0.32677,0 0.62396,0.12656 0.84525,0.33334c0.33762,-0.06179 0.67321,-0.05762 0.9832,0.02956c0.27543,0.07747 0.49931,0.29189 0.66905,0.58479c0.21515,-0.18046 0.49254,-0.28912 0.79531,-0.28912c0.6839,0 1.23831,0.55441 1.23831,1.23831c0,0.12511 -0.01855,0.2459 -0.05307,0.35973c0.32154,0.22367 0.53202,0.59589 0.53202,1.01727c0,0.6839 -0.55441,1.23831 -1.23831,1.23831c-0.48419,0 -0.90348,-0.2779 -1.10707,-0.68291c-0.13537,0.30475 -0.3334,0.53157 -0.59679,0.61936c-0.51501,0.17167 -1.12811,-0.57614 -1.59945,-0.3068c-0.21539,0.36498 -0.6127,0.60983 -1.06719,0.60983c-0.36575,0 -0.69445,-0.15856 -0.92115,-0.41071c-0.05461,0.27426 -0.14007,0.4994 -0.27039,0.62973c-0.82554,0.82554 -1.34151,0.82554 -2.16703,0c-0.95369,-0.95369 0.69006,-3.4902 0.14456,-4.52016c-0.56488,-1.06655 -3.11521,-1.41355 -4.28902,-1.34613c-0.07144,0.01282 -0.14503,0.01951 -0.22017,0.01951c-0.6839,0 -1.23831,-0.55441 -1.23831,-1.23831c0,-0.16454 0.03209,-0.32158 0.09035,-0.46522c0.29534,-1.17901 1.18742,-2.97124 2.48554,-2.17491c0.0747,0.04582 0.88003,1.55735 0.95962,1.54393c0.69043,-0.11648 1.39171,-0.55688 2.06723,-0.37264c0.14054,0.03833 0.21373,0.15357 0.25693,0.29508c0.0357,-0.00309 0.07183,-0.00468 0.10834,-0.00468c0.41445,0 0.78133,0.20359 1.00611,0.51622c0.32228,-0.06079 0.6631,-0.06898 0.90368,0.09142c0.97728,0.65152 0.45394,2.67776 0.25756,3.89383c0.05481,-0.00742 0.11074,-0.01125 0.16759,-0.01125z" fill="#c7c7c7" stroke="none" stroke-width="0.5" stroke-linecap="butt"/><path d="M242.0649,154.23662c-0.34499,-0.13472 -0.69338,-0.30808 -1.01823,-0.50365c-0.42953,0.01197 -0.99136,-0.15167 -1.39403,-0.40196c-0.19454,0.12721 -0.42705,0.20116 -0.67682,0.20116c-0.29991,0 -0.57493,-0.10661 -0.7892,-0.28403c-0.09569,0.31976 -0.31711,0.58521 -0.60687,0.73897c-0.00734,0.54867 -0.37151,1.01119 -0.871,1.16606c-0.07312,0.31051 -0.26311,0.57592 -0.521,0.74726c-0.03777,0.24003 -0.14448,0.45716 -0.29924,0.63047c0.00987,0.06299 0.015,0.12756 0.015,0.19333c0,0.45362 -0.24393,0.85029 -0.60776,1.06597c0.08244,0.16582 0.12881,0.35276 0.12881,0.55052c0,0.6839 -0.55441,1.23831 -1.23831,1.23831c-0.1617,0 -0.31615,-0.03099 -0.45775,-0.08735c-0.08405,0.01801 -0.17126,0.02749 -0.26069,0.02749c-0.6839,0 -1.23831,-0.55441 -1.23831,-1.23831c0,-0.35749 0.1515,-0.67961 0.39379,-0.90564c-0.0226,-0.09355 -0.03457,-0.19125 -0.03457,-0.29175c0,-0.65271 0.505,-1.18746 1.14559,-1.23488c-0.00532,-0.04664 -0.00807,-0.09405 -0.00807,-0.14212c0,-0.43088 0.22007,-0.81035 0.55393,-1.03216c0.07383,-0.46931 0.41128,-0.85107 0.856,-0.98897c0.06621,-0.28116 0.22824,-0.52535 0.44974,-0.69619c-0.00245,-0.03186 -0.00371,-0.06407 -0.00371,-0.09656c0,-0.6839 0.55441,-1.23831 1.23831,-1.23831c0.00213,0 0.00427,0 0.00642,0.00001c0.14783,-0.51846 0.62508,-0.89806 1.19097,-0.89806c0.21716,0 0.42125,0.0559 0.5987,0.15408c0.17744,-0.09818 0.38155,-0.15408 0.5987,-0.15408c0.27276,0 0.52492,0.08818 0.72952,0.2376c0.80492,-0.36063 2.39701,0.10137 3.45488,0.99464c0.39848,0.09663 0.72162,0.38602 0.86513,0.76388c0.40067,0.15217 0.70186,0.50632 0.77925,0.93808c0.01277,-0.00039 0.02557,-0.00058 0.03844,-0.00058c0.6839,0 1.23831,0.55441 1.23831,1.23831c0,0.6839 -0.55441,1.23831 -1.23831,1.23831c-0.27954,0 -0.53746,-0.09264 -0.74473,-0.24887c-0.05023,0.00621 -0.1014,0.0094 -0.15331,0.0094c-0.20428,0 -0.39701,-0.04947 -0.56685,-0.13707c-0.14494,-0.02447 -0.28132,-0.07412 -0.40449,-0.1443c-0.43892,-0.19041 -0.74591,-0.62762 -0.74591,-1.13655c0,-0.04418 0.00231,-0.08783 0.00683,-0.13081c-0.13472,-0.04036 -0.27167,-0.08792 -0.40916,-0.14161z" fill="#c7c7c7" stroke="none" stroke-width="0.5" stroke-linecap="butt"/><path d="M232.30409,177.59819c0.02235,0.0152 0.04329,0.03439 0.06296,0.05691c0.29381,0.22642 0.4831,0.58182 0.4831,0.98145c0,0.01814 -0.00039,0.03617 -0.00117,0.0541c0.02121,-0.00513 0.04417,-0.02123 0.0694,-0.05035c0.53174,-0.61387 0.63434,-1.30841 1.63643,-1.30965c1.36035,-0.00169 1.02908,1.93911 1.88778,2.16301c0.90545,0.2361 1.74831,-0.69345 2.65298,-0.71844c0.92317,-0.02551 2.58344,-0.32068 3.55276,0.03505c0.23302,0.08552 0.5074,0.81794 0.60962,0.82124c1.7261,0.05578 3.95922,-1.29962 5.69215,-1.73749c1.61602,-0.40832 3.53181,-0.47093 4.9782,-0.9039c0.52693,-0.15773 1.87115,0.70297 1.6373,0.20513c-0.70226,-1.49503 2.3996,-2.05377 2.80795,-3.12594c0.53036,-1.39256 1.31154,-2.43514 1.86772,-3.71902c0.00848,-0.01956 -0.97993,-1.28657 -0.95837,-1.60163c0.14292,-2.0893 3.0498,-0.57352 3.37139,0.71282c0.65006,2.60027 -0.81112,9.14296 -3.82077,10.08528c-1.26156,0.39499 -3.0845,0.37868 -4.3327,-0.0297c-0.52558,-0.17196 -2.38171,1.21545 -3.09111,1.38775c-1.1972,0.29077 -2.82692,-0.26107 -3.78779,0.00656c-1.0479,0.29188 -3.63845,1.64929 -4.64417,1.42579c-0.52035,-0.11564 -1.40975,-1.11102 -1.68023,-1.13774c-2.47975,-0.24495 -4.88435,1.90666 -6.91209,-0.3058c-0.57036,-0.62232 -1.69019,0.61076 -2.50323,0.38371c-0.95037,-0.26541 -0.99825,-1.32774 -1.36678,-2.06478c-0.09059,-0.17207 -0.14187,-0.3681 -0.14187,-0.57606c0,-0.6839 0.55441,-1.23831 1.23831,-1.23831c0.11008,0 0.21681,0.01436 0.31841,0.04133c0.13204,0.02842 0.25885,0.08052 0.37383,0.15864z" fill="#c7c7c7" stroke="none" stroke-width="0.5" stroke-linecap="butt"/><path d="M222.29115,162.77108c0,-0.6839 0.55441,-1.23831 1.23831,-1.23831c0.6839,0 1.23831,0.55441 1.23831,1.23831c0,0.38406 -0.17485,0.72729 -0.44927,0.95442c0.23973,0.22582 0.38941,0.54621 0.38941,0.90154c0,0.55018 -0.3588,1.01655 -0.85518,1.17789c0.64514,1.4266 0.25595,4.38908 0.84404,5.41823c0.36498,0.21539 0.60983,0.6127 0.60983,1.06719c0,0.32006 -0.12143,0.61178 -0.32073,0.83156c-0.45358,2.10288 1.61037,4.01622 0.07577,4.36361c-4.06189,0.91951 -3.2552,-6.86871 -3.46608,-8.3102c-0.11221,-0.76703 -0.82296,-3.25459 -0.22725,-3.85032c0.19596,-0.19596 0.37446,-0.3454 0.54382,-0.44832c-0.10173,-0.1798 -0.15977,-0.38755 -0.15977,-0.60887c0,-0.45637 0.24689,-0.85508 0.61438,-1.06986c-0.04886,-0.13308 -0.07555,-0.27686 -0.07555,-0.42688z" fill="#c7c7c7" stroke="none" stroke-width="0.5" stroke-linecap="butt"/><path d="M253.72422,172.05088v0.1796c0,1.84296 0.49987,3.29536 0.65635,5.09649c0.08329,0.95854 -0.08465,1.84322 0.40558,2.68945c0,0 0.05481,0.1005 0.07409,0.23863c0.13259,0.04868 0.27234,0.0867 0.41963,0.11312l-0.01948,-0.01586c0,0 0.54753,0 0.6128,0.51489c0.37085,-0.06343 0.71491,-0.16641 1.01916,-0.32625c0.92203,-0.48441 1.85879,-1.69553 2.71235,-2.37121c2.1955,-1.01485 1.37849,-2.68857 2.21664,-4.57925c0.45123,-1.01786 1.11468,-1.74515 0.7562,-3.01502c-0.32719,-1.15903 -1.28006,-1.647 -1.29032,-3.1108l-0.05849,-0.75459c0,0 -0.00284,-0.03699 0.00191,-0.09356l-0.11505,-0.69031l0.11131,-0.01855c0,-0.18933 0,-0.58165 0,-0.77096c-0.08173,-1.29354 0.3881,-2.47171 0.0192,-4.00872c-0.25273,-1.05299 -1.63142,-0.75216 -2.39889,-0.85441c-1.24837,-0.16633 -1.2947,-0.57844 -2.05105,-1.32432c-0.201,-0.19822 -0.86747,-0.10211 -1.48242,0.0382c-0.43802,0.78908 -0.70036,1.48109 -0.85348,2.15383c-0.0486,0.50411 -0.10001,1.00743 -0.1878,1.49929c-0.03486,0.86677 0.02539,1.7949 0.0472,2.94067c0.02905,1.52626 -0.78403,1.40439 -1.18958,2.47477c-0.0326,0.08604 -0.06218,0.17872 -0.08911,0.27691c0.19829,0.54449 0.39045,1.0759 0.55553,1.58324c0.00197,0.46753 0.05927,1.11271 -0.10761,1.63076c0.23536,0.17908 0.23536,0.50398 0.23536,0.50398zM251.9471,163.19017c0,-0.34195 0.2772,-0.61915 0.61915,-0.61915c0.16064,0 0.30698,0.06117 0.41701,0.16148c0.02775,-0.75966 0.12309,-1.47244 0.33346,-2.20626c0.00747,-0.07881 0.01497,-0.1576 0.02264,-0.23634c-0.30747,-0.11505 -0.36768,-0.37694 -0.37214,-0.54627c-1.73246,1.38069 -1.51909,3.61339 -0.83895,5.92219c0.13908,-0.61504 0.31823,-1.2338 0.53161,-1.86353c-0.03053,0.00464 -0.06181,0.00704 -0.09363,0.00704c-0.34195,0 -0.61915,-0.2772 -0.61915,-0.61915zM252.78527,157.8019c0,-0.34195 0.2772,-0.61915 0.61915,-0.61915c0.29067,0 0.53454,0.20029 0.60117,0.47039c-0.0534,-0.86183 -0.17891,-1.74075 -0.77421,-2.05968c-1.26667,-0.67866 -2.4172,1.13366 -3.33145,0.89287c-0.94394,-0.24862 -0.96586,-2.76742 -2.28032,-2.85598c-1.26863,-0.08548 -0.15629,0.91647 0.089,1.29127l-0.04287,0.18615h0.07151v0.71844c0,0.34195 -0.2772,0.61915 -0.61915,0.61915c-0.16012,0 -0.30604,-0.06078 -0.41597,-0.16054l-0.59692,-0.53724l0.20373,-0.22638c-1.32588,-1.4616 -2.24786,-3.80725 -4.13751,-4.24491c-1.18701,-0.27491 -2.02125,0.2961 -3.15028,0.25958c-1.66816,-0.05395 -2.07203,-0.51531 -3.23345,0.96839c-1.07145,2.10335 -2.01023,3.48878 -2.68478,5.77489l-0.02546,0.20934c0.01795,0.17478 -0.04772,0.30914 -0.12859,0.40561c-0.03609,0.0541 -0.08303,0.10714 -0.14378,0.15016c0.19694,0.21164 0.3336,0.49932 0.37727,0.88289c0.20878,1.83389 -0.57904,3.94102 -0.47359,5.8588c0.05126,0.93237 0.56489,1.34997 0.71279,2.28156c0.26297,1.65655 0.18646,3.3298 0.18646,5.00113c-0.00139,0.68655 -0.27486,1.5996 -0.13238,2.2703c0.25773,1.21333 1.43727,1.56093 1.50759,2.95103c0.06109,1.20791 -1.12179,2.28343 -2.3703,2.82033c3.31843,0.67814 6.7891,0.18221 10.2595,0.02339c1.23639,-0.05659 1.71862,0.88946 2.71482,0.8955c1.36984,0.06425 3.37136,-0.8848 4.84166,-1.12963c0.01036,-0.00173 0.02074,-0.00342 0.03116,-0.00508c-0.06072,-0.09303 -0.11135,-0.194 -0.14973,-0.30394c-0.4177,-1.19626 0.95211,-2.0419 1.36677,-2.94828c-0.14182,-0.5645 -0.23655,-1.15532 -0.29481,-1.75021c-0.43987,-1.22509 -0.85847,-2.71535 -0.35266,-3.94145c0.08321,-0.20171 0.25016,-0.33184 0.4495,-0.43454c0.057,-0.85187 0.09452,-2.05371 0.27204,-3.03304c-1.10099,-2.79109 -2.62376,-6.78106 -0.7267,-8.93554c0.39171,-0.44487 1.1615,-0.90782 1.96248,-1.28835c-0.12391,-0.11321 -0.20164,-0.27614 -0.20164,-0.4572zM252.88178,180.86305c0,0 0.01649,0.00549 0.04307,0.01743c0.20471,0.01282 0.41044,0.02609 0.61571,0.03787l-0.06056,-0.10999c-0.57937,-0.47176 -1.01582,-1.09703 -1.33967,-1.81259c-0.58579,0.83081 -1.00641,1.29139 0.74146,1.86727zM252.4902,182.03779c-0.04816,-0.01621 -0.09761,-0.0326 -0.14812,-0.0493c-0.36158,-0.01117 -0.71143,-0.00918 -1.04189,0.01908c-1.95276,0.167 -3.9081,1.21092 -5.76442,1.25884c-1.10138,-0.13496 -1.52166,-0.97639 -2.60279,-0.89593c-3.87325,0.28833 -7.91641,0.73139 -11.59057,-0.29284c-0.99211,-0.27656 -1.70524,0.01833 -2.36955,-0.79905c-1.74983,2.26445 -2.61944,-1.06167 -4.30102,-1.49485c-0.28428,-0.07324 -0.59548,0.26819 -0.86677,0.15602c-1.63625,-0.67661 -1.45573,-3.29707 -2.33278,-4.47115c-1.44977,-1.94076 -1.85784,-3.47252 -1.66095,-6.00453c1.05558,-2.86422 0.50652,-7.39865 3.31524,-7.80935c0.33367,-0.04879 0.13709,-0.66106 0.23117,-0.98488c0.3678,-1.26593 0.30106,-1.95106 1.55041,-2.44324c0,0 0.06782,-0.02035 0.16446,-0.02434c0.01645,-0.01995 0.03461,-0.03992 0.0546,-0.0599c0.34176,-0.34176 0.68353,-0.14994 0.81703,-0.04933c0.94352,0.21711 1.8973,-1.30091 3.28892,-0.79524c0.49471,0.17977 0.39693,1.03776 0.8219,1.34835c0.10553,0.07713 0.12746,-0.25638 0.24986,-0.30229c0.5623,-0.2109 1.04685,-0.11573 1.58894,-0.27367l0.023,-0.1469c0.72933,-2.38304 1.74463,-3.89646 2.82323,-6.0793c1.4022,-1.8115 2.23691,-1.66026 4.31012,-1.54613c2.24239,0.12346 3.48127,-0.82759 5.28684,1.09381c0.37831,0.40258 1.11307,1.03045 1.7054,1.71751c0.22485,-0.44313 0.74427,-0.73975 1.65177,-0.71494c0.94098,0.02573 1.8299,1.15129 2.27956,1.83979c0.0964,0.1476 0.22551,0.45219 0.29655,0.70023c0.22904,-0.19947 0.67105,-0.40066 0.91995,-0.47928c0.77256,-0.24402 1.88446,-0.34002 2.62663,0.0473c0.65321,0.34088 1.52157,1.89397 1.44116,2.92507c0.10768,-0.01177 0.26341,-0.00712 0.4018,0.07933c0.93947,-0.15912 2.0271,1.14941 2.67588,1.4103c0.90994,0.3659 2.03187,-0.03461 2.94104,0.42261c1.48278,0.74568 1.23913,2.4188 1.06329,3.7521c-0.05872,0.44526 0.02594,1.03106 0.0337,1.55854c0.02142,0.03822 0.03782,0.07699 0.05038,0.11394c0.02648,0.06892 0.041,0.14379 0.041,0.22204c0,0.23949 0,0.47896 0,0.71843v0.83817c0,0.02065 -0.001,0.04107 -0.00299,0.0612c0.00086,0.00716 0.00116,0.01105 0.00116,0.01105l0.06123,0.80203c-0.01162,1.38942 0.85546,1.59167 1.22422,2.75644c0.47954,1.51473 -0.2271,2.68365 -0.80043,3.92987c-0.97473,2.11875 -0.10276,3.92613 -2.69267,5.11964c-0.88008,0.71266 -1.82087,1.90479 -2.79566,2.41836c-1.25376,0.66054 -2.93917,0.46776 -4.49551,0.37624c-0.22713,0.10251 -0.47436,0.02009 -0.47436,0.02009zM230.57715,180.29722l0.55575,-0.06465c0.32062,0.0146 0.65882,-0.08568 0.92617,-0.26325c0.36528,-0.24261 1.53687,-0.79133 1.74875,-1.18189c0.493,-0.90878 -1.36956,-2.43003 -1.54521,-3.19948c-0.17702,-0.77547 0.1089,-1.72742 0.10709,-2.51928c0,-3.3583 -1.08327,-6.35903 -0.89719,-9.6116c0.04804,-0.83986 0.9731,-3.21062 0.12652,-3.64516c-0.09886,0.06686 -0.21807,0.10589 -0.34638,0.10589c-0.13903,0 -0.26734,-0.04582 -0.3707,-0.1232c-0.07125,0.00413 -0.19369,0.00135 -0.31488,-0.04768c-0.40803,0.09348 -0.74588,0.14046 -0.87085,0.08443c-0.52018,-0.23324 -0.42224,-1.26301 -0.97419,-1.40565c-1.21501,-0.31398 -1.84907,1.08855 -3.18689,0.82685c-0.12533,0.11642 -0.27116,0.16017 -0.27116,0.16017c-0.74943,0.04233 -0.63856,1.888 -0.99297,2.54063c-0.5763,1.06123 -1.20588,0.88574 -1.93965,1.20276c-0.33445,0.1445 0.17109,0.75209 0.04059,1.09225c-0.65022,1.69495 -0.65687,3.66716 -1.35084,5.47996c-0.14043,2.22272 0.26547,3.33265 1.45229,5.0115c0.41568,0.58801 0.99604,3.89828 1.73836,4.03034c0.23602,0.04199 0.46113,-0.27499 0.68984,-0.2032c0.9925,0.3115 1.39943,1.01515 2.13246,1.62538c0.29632,0.24668 0.55223,1.00045 0.86213,0.77109c0.42898,-0.31747 0.81791,-0.73342 1.32564,-0.89784c0.26537,0.22917 0.583,0.36973 0.92247,0.47119c0.15921,-0.20538 0.43285,-0.23958 0.43285,-0.23958z" fill="#000000" stroke="none" stroke-width="0.5" stroke-linecap="butt"/><path d="M232.76833,159.02552c0.06075,-0.04303 0.10792,-0.09651 0.14402,-0.1506c0.08088,-0.09648 0.14704,-0.23176 0.12908,-0.40653l0.0257,-0.20974c0.67453,-2.28612 1.62258,-3.68261 2.69402,-5.78597c1.16142,-1.48372 1.57135,-1.02659 3.23952,-0.97263c1.12903,0.03652 1.96988,-0.53752 3.15689,-0.26262c1.88966,0.43766 2.82057,2.78121 4.14645,4.24281l-0.20459,0.22648l0.59897,0.537c0.10991,0.09976 0.25746,0.16042 0.41758,0.16042c0.34195,0 0.62165,-0.27725 0.62165,-0.61921l-0.00068,-0.63588h-0.07126l0.04272,-0.18615c-0.24529,-0.3748 -1.35751,-1.4593 -0.08886,-1.37382c1.31445,0.08856 1.34543,2.60835 2.28935,2.85695c0.91425,0.24078 2.07447,-1.56807 3.34117,-0.88941c1.03031,0.55201 0.66214,2.78738 0.93973,3.70254c0.23324,-0.04591 2.26017,-0.70907 2.63802,-0.33643c0.75635,0.7459 0.80695,1.16416 2.05532,1.33049c0.76747,0.10226 2.14852,-0.19369 2.40124,0.8593c0.3689,1.53702 -0.09817,2.72617 -0.01644,4.01971c0,0.18933 0.00019,0.58395 0.00019,0.77329l-0.11131,0.0186l0.11511,0.69242c-0.00475,0.05657 -0.00191,0.09385 -0.00191,0.09385l0.05843,0.75686c0.01026,1.46379 0.96182,1.95978 1.28901,3.11881c0.35847,1.26987 -0.30784,2.00479 -0.75905,3.02267c-0.83815,1.8907 -0.02849,3.57486 -2.22399,4.5897c-0.85356,0.67569 -1.79715,1.89252 -2.71919,2.37693c-1.67198,0.87841 -4.56118,0.04546 -6.47841,0.36473c-1.47031,0.24485 -3.48518,1.1943 -4.85503,1.13003c-0.9962,-0.00604 -1.48586,-0.95378 -2.72225,-0.89721c-3.4704,0.15882 -6.95791,0.64419 -10.27632,-0.03395c1.24853,-0.53691 2.43077,-1.6131 2.36967,-2.821c-0.07031,-1.3901 -1.25465,-1.74402 -1.51238,-2.95737c-0.14247,-0.6707 0.12864,-1.58815 0.13003,-2.27469c0,-1.67132 0.07295,-3.35763 -0.19002,-5.01419c-0.14789,-0.9316 -0.66167,-1.35567 -0.71294,-2.28806c-0.10544,-1.91778 0.68612,-4.03993 0.47735,-5.87384c-0.04366,-0.38357 -0.17963,-0.67269 -0.37655,-0.88433z" fill="#c7c7c7" stroke="none" stroke-width="0.5" stroke-linecap="butt"/><path d="M230.15428,180.57686c-0.33947,-0.10147 -0.66012,-0.24138 -0.92547,-0.47057c-0.50772,0.16443 -0.90197,0.58092 -1.33095,0.89839c-0.30991,0.22935 -0.56908,-0.52441 -0.86539,-0.77109c-0.73303,-0.61022 -1.14971,-1.31544 -2.14222,-1.62694c-0.22872,-0.07178 -0.45632,0.24439 -0.69232,0.20241c-0.7423,-0.13207 -1.33779,-3.45181 -1.75346,-4.03982c-1.18681,-1.67886 -1.60503,-2.81798 -1.4646,-5.04068c0.69399,-1.81281 0.71377,-3.81544 1.364,-5.5104c0.1305,-0.34016 -0.37234,-0.95007 -0.0379,-1.09457c0.73377,-0.31702 1.37312,-0.14721 1.94943,-1.20844c0.35441,-0.65264 0.25063,-2.5005 1.00007,-2.54283c0,0 0.14696,-0.04397 0.27229,-0.16039c1.3378,0.26172 1.98395,-1.14123 3.19896,-0.82725c0.55195,0.14264 0.45855,1.17318 0.97873,1.40642c0.12496,0.05603 0.46598,0.00992 0.87403,-0.08356c0.12118,0.04903 0.24481,0.0522 0.31606,0.04805c0.10334,0.07737 0.23311,0.12372 0.37214,0.12372c0.12833,0 0.24854,-0.03861 0.3474,-0.10547c0.84659,0.43454 -0.07205,2.80868 -0.12011,3.64854c-0.18607,3.25257 0.90884,6.3113 0.90884,9.6696c0.00181,0.79186 -0.29203,1.75244 -0.11502,2.5279c0.17564,0.76944 2.03574,2.29255 1.54274,3.20135c-0.21187,0.39055 -1.39021,0.94312 -1.7555,1.18572c-0.26734,0.17757 -0.60883,0.27917 -0.92945,0.26456l-0.5577,0.06527c0,0 -0.27536,0.03468 -0.43457,0.24006z" fill="#c7c7c7" stroke="none" stroke-width="0.5" stroke-linecap="butt"/><path d="M253.76364,181.27081l-2.21518,-1.13753l-1.31713,-2.99347l-0.29934,-2.99348l0.29934,-3.05336l1.55661,-8.74098l3.05336,-3.59218" fill="none" stroke="#000000" stroke-width="1.5" stroke-linecap="round"/><path d="M249.81225,157.26307l1.91583,3.65206" fill="none" stroke="#000000" stroke-width="1.5" stroke-linecap="round"/><path d="M247.77668,156.42488l1.43687,0.65857" fill="none" stroke="#000000" stroke-width="1.5" stroke-linecap="round"/><path d="M251.42872,163.48951v-2.33493" fill="none" stroke="#000000" stroke-width="1.5" stroke-linecap="round"/><path d="M223.62873,168.09948c0,-0.34195 0.2772,-0.61915 0.61915,-0.61915c0.34195,0 0.61915,0.2772 0.61915,0.61915c0,0.34195 -0.2772,0.61915 -0.61915,0.61915c-0.34195,0 -0.61915,-0.2772 -0.61915,-0.61915z" fill="#c7c7c7" stroke="none" stroke-width="0.5" stroke-linecap="butt"/><path d="M233.64573,177.68428c0.59304,0.17791 0.41512,0.77095 0.41512,0.77095l-0.18495,0.61562c-0.81398,2.01236 -2.78769,1.60639 -4.6247,1.50143c-0.84128,-0.04807 -1.18329,0.37833 -2.0859,0.08851c-1.02803,-0.3301 -1.34758,-1.31118 -2.16818,-1.85859c-0.60562,-0.40401 -1.57208,-0.24671 -2.02587,-0.81598c-0.68362,-0.8576 -0.6158,-2.12896 -0.74094,-3.14614c-0.42067,-0.75335 -0.97225,-0.35389 -1.47466,-1.32479c-0.43964,-0.84964 -0.53754,-2.77138 -0.41428,-3.7019c0.33873,-2.5571 2.12118,-3.70403 1.62099,-6.39272c0,0 -0.11076,-0.60915 0.49841,-0.71992c0.60915,-0.11076 0.71992,0.49841 0.71992,0.49841c0.63462,3.56016 -2.71754,6.1676 -1.30782,9.78211c0.16033,0.41107 1.20422,0.9582 1.51882,1.42921c0.14203,0.90633 0.07274,2.02719 0.57619,2.84083c0.30028,0.48528 1.18462,0.20878 1.68606,0.50117c0.72738,0.42412 1.07884,1.43792 1.90294,1.73359c0.54239,0.19459 1.14124,-0.17056 1.74577,-0.15098c1.03498,0.03353 3.03415,0.6047 3.39784,-0.65387l0.17426,-0.58178c0,0 0.17791,-0.59304 0.77095,-0.41512z" fill="#939393" stroke="none" stroke-width="0.5" stroke-linecap="butt"/><path d="M252.04786,180.79185c0,0.61915 -0.61915,0.61915 -0.61915,0.61915l-0.07782,-0.00843c-1.07399,0.17837 -2.36246,0.1097 -3.32058,0.61266c-1.984,0.79514 -3.02336,0.05538 -4.95352,-0.1917c-3.03385,-0.38837 -6.20074,0.46958 -9.24976,0.03238v0.09392h-0.71844c-0.34195,0 -0.61915,-0.2772 -0.61915,-0.61915c0,-0.15722 0.05861,-0.30078 0.15517,-0.40997l0.41711,-0.4767l0.03271,0.02862l0.05472,-0.11087c0.59304,-0.30314 0.94911,-0.59069 1.40275,-1.06754c-0.25984,-1.44587 -1.17453,-2.39002 -1.45336,-3.71776c-0.38832,-1.84919 0.72516,-3.86397 0.30332,-5.78771c-0.45271,-2.06455 -1.33241,-3.30591 -1.33087,-5.549c0.31438,-3.45932 0.8896,-6.46634 2.26387,-9.67355c0.68212,-1.59187 0.96473,-2.65848 2.6666,-3.38269c0,0 0.57153,-0.23813 0.80966,0.3334c0.23813,0.57153 -0.33338,0.80966 -0.33338,0.80966c-1.35235,0.54846 -1.45639,1.44826 -2.00325,2.72403c-1.31641,3.0711 -1.86505,5.93081 -2.16648,9.24528c0.00156,2.14011 0.87233,3.23161 1.30339,5.22754c0.42107,1.94962 -0.63445,3.97288 -0.29538,5.82701c0.27419,1.4993 1.34621,2.54413 1.42038,4.30478c-0.28336,0.38459 -0.52519,0.70044 -0.80279,0.97241c0.97486,-0.0576 2.2273,0.08391 2.72508,0.08391c1.79871,0 3.82716,-0.34745 5.59792,-0.11317c1.6758,0.22172 2.57822,0.96107 4.26642,0.28725c1.11268,-0.53585 2.40793,-0.501 3.62429,-0.70448l0.28139,-0.00843c0,0 0.61915,0 0.61915,0.61915z" fill="#939393" stroke="none" stroke-width="0.5" stroke-linecap="butt"/><path d="M235.14001,170.16332c-0.50723,0.35506 -0.86229,-0.15217 -0.86229,-0.15217l-0.42309,-0.60448c-0.6728,-1.00908 -0.94239,-1.62643 -0.9461,-2.86379c0.00225,-3.61887 0.56083,-7.12854 1.83535,-10.51454c0.24617,-0.654 0.79744,-1.9683 1.44126,-2.74513c0.05547,-0.25311 0.11731,-0.50607 0.1889,-0.76086l0.07827,-0.06004l-0.03442,-0.0219l0.41349,-0.64977c0.10891,-0.17729 0.30463,-0.29554 0.52794,-0.29554c0.34195,0 0.61915,0.2772 0.61915,0.61915c0,0.07816 -0.01448,0.15292 -0.04091,0.22178l-0.29453,0.82464l-0.15739,-0.05621c-0.15569,0.61838 -0.24955,1.2401 -0.35455,1.87007c-0.46463,2.55584 -1.97586,5.25535 -1.38438,7.89376c0.33042,1.47396 1.88022,2.93017 2.681,4.19199c0.69622,1.09709 1.04634,2.54865 1.49076,3.76566c1.42909,4.13809 6.04978,8.45657 10.3637,9.23699c0,0 0.60915,0.11076 0.4984,0.71992c-0.11076,0.60915 -0.71992,0.49841 -0.71992,0.49841c-4.74989,-0.86833 -9.72575,-5.48382 -11.30913,-10.04105c-0.40864,-1.12911 -0.73065,-2.52601 -1.383,-3.53844c-0.90155,-1.39921 -2.43998,-2.90674 -2.827,-4.54898c-0.07566,-0.32102 -0.12326,-0.64122 -0.14746,-0.96065c-0.18291,1.46418 -0.2482,2.94798 -0.24728,4.35072c-0.00352,1.01729 0.17721,1.3356 0.73025,2.16525l0.41509,0.59291c0,0 0.35506,0.50723 -0.15217,0.86229z" fill="#939393" stroke="none" stroke-width="0.5" stroke-linecap="butt"/><path d="M237.39954,179.98731c0.00136,0.00461 0.00273,0.00923 0.00409,0.01384c0.02373,-0.00216 0.04746,-0.00426 0.07121,-0.00634c-0.02592,-0.0024 -0.05107,-0.00491 -0.0753,-0.00752zM237.9376,181.58785c0.02643,0.06886 0.04091,0.14363 0.04091,0.22178c0,0.34195 -0.2772,0.61915 -0.61915,0.61915c-0.12495,0 -0.24125,-0.03701 -0.33855,-0.10068l-1.03905,-0.65623l0.11699,-0.18524c-0.02871,-0.01821 -0.05734,-0.03668 -0.08581,-0.05535c-0.45802,0.08366 -0.91082,0.1875 -1.35723,0.31512c0,0 -0.59534,0.17009 -0.76543,-0.42523c-0.17009,-0.59532 0.42523,-0.76543 0.42523,-0.76543c0.12115,-0.03459 0.24271,-0.06752 0.36467,-0.09885l-0.02699,-0.16194l0.00438,-0.00073l-0.00595,-0.00923c-0.0472,-0.35766 -0.0807,-0.71748 -0.10134,-1.07802c-0.19212,-0.59561 -0.22876,-1.29123 -0.31832,-1.91928c-0.22165,-1.55434 -0.20798,-2.98293 -0.14731,-4.41838c-0.39638,-3.16484 -0.8633,-6.41629 -0.48776,-9.38135l-0.15939,0.00638l-0.04934,-1.23345c-0.00043,-0.00948 -0.00065,-0.01901 -0.00065,-0.0286c0,-0.34195 0.2772,-0.61915 0.61915,-0.61915c0.32519,0 0.59183,0.25071 0.61718,0.56939l0.05074,0.55817l0.09901,0.22304c1.37744,1.20628 2.68234,2.59369 3.23018,4.39284c0.84996,2.12156 0.87907,4.65565 2.306,6.5386c0.66635,0.8793 1.75703,1.34727 2.48653,2.18044c1.13684,1.29841 2.04566,2.44085 3.23333,3.50269l0.55704,0.12855c0.1656,0.03455 0.30691,0.13526 0.39505,0.27321c0.40237,0.05449 0.7974,0.13237 1.18923,0.23817l0.02484,-0.00413v-0.10122h0.65856c0.34195,0 0.61915,0.2772 0.61915,0.61915c0,0.31077 -0.22897,0.56808 -0.5274,0.61241l-0.7084,0.11805l-0.00374,-0.02249l-0.04697,0.02881c-3.35969,0.00752 -6.97201,-0.54214 -10.3874,-0.26742zM237.05923,170.42555c-0.00981,-0.04685 -0.02014,-0.0934 -0.03104,-0.13964l-0.03526,0.02244c0.02273,0.03884 0.04483,0.0779 0.06631,0.1172z" fill="#939393" stroke="none" stroke-width="0.5" stroke-linecap="butt"/><path d="M223.38926,178.51681c0,-0.61915 0.61915,-0.61915 0.61915,-0.61915h0.65857c0.09777,0.0004 0.20858,-0.01091 0.32834,-0.02948c-0.5334,-0.24642 -1.38322,-0.41025 -1.70936,-0.87977c-0.36599,-0.52693 -0.53371,-1.27871 -0.6103,-2.02736c-0.04142,-0.08307 -0.06472,-0.17676 -0.06472,-0.27589c0,-0.06433 0.00982,-0.12638 0.02803,-0.18469c-0.00592,-0.10034 -0.01058,-0.19974 -0.01423,-0.29765c-0.123,-0.16791 -0.23413,-0.35872 -0.33264,-0.56596l-0.28103,0.67451c-0.09,0.23076 -0.31443,0.39425 -0.57705,0.39425c-0.34195,0 -0.61915,-0.2772 -0.61915,-0.61915v-0.65856c0,-1.06749 -0.57728,-4.98374 1.07983,-5.22885c0.14409,-0.02131 0.27821,0.00592 0.40297,0.07288c-0.1142,-1.06768 -0.08842,-2.1373 0.01605,-3.33674c0.0632,-0.72543 -0.14533,-1.75936 0.41871,-2.36243c0.24551,-0.2625 1.34318,-0.27356 1.48348,-0.75996c0.35071,-1.21588 0.00432,-1.93836 1.18528,-2.78984c0,0 0.51517,-0.34345 0.85861,0.17172c0.34344,0.51517 -0.17172,0.85861 -0.17172,0.85861c-0.89728,0.51402 -0.3721,1.40078 -0.73055,2.23921c-0.41662,0.97447 -1.15488,0.68099 -1.74949,1.15587c-0.17385,0.13883 -0.04323,1.39304 -0.06023,1.58895c-0.17294,1.992 -0.13648,3.56214 0.49968,5.47422c0.44916,1.02667 0.57406,2.60127 1.09227,3.80932c0.36777,0.15855 0.69308,0.34058 0.86548,0.59795c0.14817,0.2212 0.26354,0.53293 0.35694,0.87511c0.96754,0.63508 2.25412,1.22828 3.33666,1.45743c0.66171,0.14007 2.54759,-0.00677 3.04036,0.45472c1.81181,1.69684 -0.80138,2.29777 -1.96017,2.32689c-0.4038,0.07827 -0.86155,0.07873 -1.26761,0.00996c-0.29682,0.0069 -0.5938,0.01913 -0.89271,0.04082l-0.60205,0.1642c-0.05596,0.01662 -0.11524,0.02555 -0.17659,0.02555c-0.2679,0 -0.49606,-0.17015 -0.58232,-0.40827c-0.2716,0.08531 -0.60978,0.0503 -1.00866,-0.16831c-0.25069,-0.13739 -0.42335,-0.35538 -0.54578,-0.62295c-0.34534,0.03926 -0.69166,0.06078 -1.03636,0.06199h-0.65857c0,0 -0.61915,0 -0.61915,-0.61915zM231.81438,178.78972c0.15865,-0.0086 0.12852,-0.02351 -0.01647,-0.0437c0.00583,0.01469 0.01131,0.02926 0.01647,0.0437z" fill="#939393" stroke="none" stroke-width="0.5" stroke-linecap="butt"/><path d="M254.78885,181.39676c-0.48348,0.38679 -0.87026,-0.09669 -0.87026,-0.09669l-0.20587,-0.259c-0.94064,-1.04562 -2.82225,-1.85822 -3.37939,-3.16179c-0.80652,-1.88713 0.44906,-4.53145 0.58719,-6.46572c0.4118,-4.8952 0.78272,-8.86321 4.22811,-12.62955c0,0 0.41837,-0.45641 0.87478,-0.03803c0.45641,0.41838 0.03804,0.87478 0.03804,0.87478c-3.25842,3.54678 -3.52479,7.26894 -3.90632,11.88833c-0.1167,1.63337 -1.35184,4.3326 -0.67308,5.90777c0.44787,1.03931 2.37388,1.93266 3.15107,2.79583l0.25241,0.31384c0,0 0.38679,0.48348 -0.09669,0.87026z" fill="#939393" stroke="none" stroke-width="0.5" stroke-linecap="butt"/><path d="M253.07279,160.53608c-0.35988,0.50383 -0.8637,0.14395 -0.8637,0.14395l-0.62299,-0.57865c-0.74087,-2.04204 -0.6587,-2.70057 -2.7932,-3.5299c0,0 -0.11046,-0.04295 -0.21591,-0.1396c-0.20122,-0.06209 -0.32958,-0.22252 -0.32958,-0.22252l-0.157,-0.21045c-0.6028,-0.55095 -0.85112,-1.05905 -1.26527,-1.74818c0,0 -0.31856,-0.53092 0.21235,-0.84947c0.53092,-0.31855 0.84947,0.21237 0.84947,0.21237c0.3451,0.57602 0.51639,1.02416 1.02612,1.45975l0.27137,0.32642c0.03599,0.00929 0.05727,0.01757 0.05727,0.01757c2.45816,0.9568 2.67895,1.98537 3.50813,4.26082l0.17899,-0.00581c0,0 0.50383,0.35988 0.14395,0.8637z" fill="#939393" stroke="none" stroke-width="0.5" stroke-linecap="butt"/></g></g></svg>