<svg version="1.1" xmlns="http://www.w3.org/2000/svg" xmlns:xlink="http://www.w3.org/1999/xlink" width="196.74322" height="184.43574" viewBox="0,0,196.74322,184.43574"><g transform="translate(-141.62839,-87.78213)"><g fill="none" stroke-miterlimit="10"><g stroke-linecap="butt"><path d="M189.98662,180.10781c0,-29.12535 23.61075,-52.7361 52.7361,-52.7361c29.12534,0 52.7361,23.61075 52.7361,52.7361c0,29.12535 -23.61076,52.7361 -52.7361,52.7361c-29.12535,0 -52.7361,-23.61075 -52.7361,-52.7361z" stroke="#e0ad0b" stroke-width="12.5"/><path d="M189.98662,180.10781c0,-29.12535 23.61075,-52.7361 52.7361,-52.7361c29.12534,0 52.7361,23.61075 52.7361,52.7361c0,29.12535 -23.61076,52.7361 -52.7361,52.7361c-29.12535,0 -52.7361,-23.61075 -52.7361,-52.7361z" stroke="#f2c018" stroke-width="8.5"/></g><path d="M292.06978,228.41201l20.11668,20.11668" stroke="#e0ad0b" stroke-width="8.5" stroke-linecap="round"/><path d="M334.12161,179.08635h-25.2311" stroke="#e0ad0b" stroke-width="8.5" stroke-linecap="round"/><path d="M287.97826,132.10954l19.20746,-19.20746" stroke="#e0ad0b" stroke-width="8.5" stroke-linecap="round"/><path d="M242.85869,114.53554v-22.50341" stroke="#e0ad0b" stroke-width="8.5" stroke-linecap="round"/><path d="M177.24678,111.58054l18.75284,18.75284" stroke="#e0ad0b" stroke-width="8.5" stroke-linecap="round"/><path d="M145.87839,179.46962h27.73147" stroke="#e0ad0b" stroke-width="8.5" stroke-linecap="round"/><path d="M175.76928,245.8812l17.389,-17.389" stroke="#e0ad0b" stroke-width="8.5" stroke-linecap="round"/><path d="M242.85869,245.46446v22.50341" stroke="#e0ad0b" stroke-width="8.5" stroke-linecap="round"/></g></g></svg>