<svg version="1.1" xmlns="http://www.w3.org/2000/svg" xmlns:xlink="http://www.w3.org/1999/xlink" width="770.89367" height="770.89367" viewBox="0,0,770.89367,770.89367"><defs><linearGradient x1="236.99701" y1="-212.9543" x2="236.99701" y2="557.93936" gradientUnits="userSpaceOnUse" id="color-1"><stop offset="0" stop-color="#000000"/><stop offset="1" stop-color="#313131"/></linearGradient><linearGradient x1="405.17375" y1="-158.69749" x2="405.17375" y2="167.32942" gradientUnits="userSpaceOnUse" id="color-2"><stop offset="0" stop-color="#000000"/><stop offset="1" stop-color="#313131"/></linearGradient><linearGradient x1="253.17624" y1="-152.35368" x2="253.17624" y2="465.42247" gradientUnits="userSpaceOnUse" id="color-3"><stop offset="0" stop-color="#000000"/><stop offset="1" stop-color="#313131"/></linearGradient><linearGradient x1="121.38405" y1="71.93279" x2="121.38405" y2="503.81446" gradientUnits="userSpaceOnUse" id="color-4"><stop offset="0" stop-color="#000000"/><stop offset="1" stop-color="#313131"/></linearGradient></defs><g transform="translate(148.44983,212.95432)"><g data-paper-data="{&quot;isPaintingLayer&quot;:true}" fill-rule="nonzero" stroke="none" stroke-linecap="butt" stroke-linejoin="miter" stroke-miterlimit="10" stroke-dasharray="" stroke-dashoffset="0" style="mix-blend-mode: normal"><g stroke-width="1"><path d="M236.99692,557.93918c-212.87603,0 -385.44675,-172.57039 -385.44675,-385.44675c0,-212.87603 172.57039,-385.44675 385.44692,-385.44675c212.87636,0 385.44675,172.57039 385.44675,385.44692c0,212.87603 -172.57039,385.44675 -385.44675,385.44675z" fill="url(#color-1)"/><path d="M543.23198,142.37419c-100.36105,-100.36105 -200.71064,-200.71064 -301.0717,-301.0717c178.86656,2.74709 323.29081,147.16004 326.02693,326.02693z" fill="url(#color-2)"/><path d="M391.29507,465.42232c-149.76334,-148.51688 -298.61153,-297.96054 -446.79727,-448.04406c45.85026,-86.25056 128.4602,-149.9841 227.14407,-169.73192l390.21281,390.21281c-19.82495,98.99291 -83.90061,181.81247 -170.55945,227.56333z" fill="url(#color-3)"/><path d="M-45.97041,104.90853c127.04816,128.37192 254.86835,255.97151 383.06356,383.18491c-31.61858,10.02851 -65.15671,15.72102 -100.09607,15.72102c-182.98196,0 -331.32213,-148.34034 -331.32213,-331.32213c0,-35.10493 5.7477,-68.80848 15.86464,-100.55954c10.84474,10.97723 21.63445,22.00932 32.49017,32.97575z" fill="url(#color-4)"/></g><path d="M240,465.6997l-285.6997,-171.41982v-228.55976l285.6997,171.41982z" fill="#89664c" stroke-width="2.6875"/><path d="M525.6997,65.72012v228.55976l-285.6997,171.41982v-228.55976z" fill="#fed0ac" stroke-width="2.6875"/><path d="M240,-105.6997l285.6997,171.41982l-285.6997,171.41982l-285.6997,-171.41982z" fill="#d3976e" stroke-width="2.6875"/><path d="M356.0655,167.50064l-285.6997,-171.41982l53.56869,-32.14122l284.80672,171.41982z" fill="#89664c" stroke-width="2.6875"/><path d="M252.49936,-13.73994l-63.38945,-38.39106l52.67572,-32.14122l63.38945,39.28371z" fill="#d0d0d0" stroke-width="2.6875"/><path d="M407.84857,218.39073l-49.99745,30.35593v-82.13866l49.99745,-30.35593z" fill="#d3976e" stroke-width="2.6875"/><g fill="#ffffff" stroke-width="2.6875"><path d="M512.30769,173.75049l-50.89043,30.35559v-82.13866l50.89043,-30.35559z"/><path d="M325.70991,394.27477l-68.74632,41.96198v-112.49392l68.74632,-41.06933z"/></g><path d="M357.85113,313.02909l49.99745,-30.35559v82.13833l-49.99745,30.35593z" fill="#d3976e" stroke-width="2.6875"/></g></g></svg>