<svg version="1.1" xmlns="http://www.w3.org/2000/svg" xmlns:xlink="http://www.w3.org/1999/xlink" width="770.89367" height="770.89367" viewBox="0,0,770.89367,770.89367"><g transform="translate(148.44983,212.95432)"><g data-paper-data="{&quot;isPaintingLayer&quot;:true}" fill-rule="nonzero" stroke="none" stroke-miterlimit="10" stroke-dasharray="" stroke-dashoffset="0" style="mix-blend-mode: normal"><g fill="#5d89ab" stroke-width="1" stroke-linecap="butt" stroke-linejoin="miter"><path d="M236.99692,557.93918c-212.87603,0 -385.44675,-172.57039 -385.44675,-385.44675c0,-212.87603 172.57039,-385.44675 385.44692,-385.44675c212.87636,0 385.44675,172.57039 385.44675,385.44692c0,212.87603 -172.57039,385.44675 -385.44675,385.44675z"/><path d="M543.23198,142.37419c-100.36105,-100.36105 -200.71064,-200.71064 -301.0717,-301.0717c178.86656,2.74709 323.29081,147.16004 326.02693,326.02693z"/><path d="M391.29507,465.4223c-149.76334,-148.51688 -298.61153,-297.96054 -446.79727,-448.04406c45.85026,-86.25056 128.4602,-149.9841 227.14407,-169.73192l390.21281,390.21281c-19.82495,98.99291 -83.90061,181.81247 -170.55945,227.56333z"/><path d="M-45.97041,104.90851c127.04816,128.37192 254.86835,255.97151 383.06356,383.18491c-31.61858,10.02851 -65.15671,15.72102 -100.09607,15.72102c-182.98196,0 -331.32213,-148.34034 -331.32213,-331.32213c0,-35.10493 5.7477,-68.80848 15.86464,-100.55954c10.84474,10.97723 21.63445,22.00932 32.49017,32.97575z"/></g><path d="M238.36525,33.25935c-3.00087,-31.23215 6.11755,-59.97719 47.94899,-63.59894c42.20589,-3.65364 56.27213,26.15776 59.55132,57.87186l-0.32204,-0.32661c-35.2726,-13.68355 -73.80425,-10.74646 -107.00699,5.56046z" fill="#f1f1f2" stroke-width="0" stroke-linecap="butt" stroke-linejoin="miter"/><path d="M427.84539,-24.85886c13.13057,-5.48073 27.06925,-5.38918 39.96887,5.3614c25.36202,21.13846 25.66444,44.03656 17.17461,63.78624l-0.42999,0.03189c-10.32822,-28.51006 -29.76357,-53.17917 -56.77315,-69.03649z" fill="#f1f1f2" stroke-width="0" stroke-linecap="butt" stroke-linejoin="miter"/><path d="M481.73287,243.58696c0.46967,1.67587 11.66199,42.62001 -16.62476,80.53902c-19.16069,25.66399 -52.54235,58.46085 -137.84562,65.82009c-41.76819,3.59398 -78.94654,-7.18025 -105.67376,-23.64601c0.39398,0.24277 0.76439,0.49744 1.16249,0.73608l-0.38216,-0.23094c-24.83223,-11.21193 -56.31951,-28.55789 -77.22748,-57.59308c0,0 -11.25206,23.47527 -61.70037,24.45412c-63.75069,1.25763 -89.4867,-34.08234 -92.78229,-60.72151c-3.34709,-27.02141 4.90768,-57.99477 58.78334,-67.13326c45.10338,-7.63031 69.62136,5.99403 76.40343,10.62294l0.52567,0.60081c4.97093,-15.37537 13.2576,-22.45628 13.2576,-22.45628l-0.68054,-0.24277c-18.98521,-7.12418 -43.96507,-18.5038 -74.53263,-36.68511c-63.98941,-38.0703 -63.35671,-105.22774 -45.65689,-129.37531c18.32115,-24.96391 72.59445,-56.32767 149.26484,-13.63213c43.14514,24.00818 64.98009,60.98801 75.83405,88.70179l2.29256,-0.90736c2.95715,-1.70364 6.18134,-3.3831 9.63226,-4.97093l0.4496,-0.78804c-16.8161,-39.50745 -42.20177,-120.74303 30.07424,-127.01172c68.73764,-5.96214 62.8228,76.86531 57.27883,112.08184l0.54115,0.08385c8.87978,0.62447 17.89887,1.92635 26.91391,4.04358c-0.19905,-0.41405 -10.45166,-21.93062 2.71439,-53.27431c10.31693,-24.53384 56.5268,-83.3532 94.06365,-52.10053c39.59854,32.97951 18.10204,70.28183 -2.50763,93.15987c-17.85515,19.80927 -38.39279,27.90512 -47.71027,31.47904l0.26283,0.16716c2.29256,1.44081 4.58519,2.94121 6.84952,4.54147c63.02651,44.35501 57.62139,136.18569 57.62139,136.18569l-0.13939,-0.65277c-0.23865,-1.02669 -0.40993,-1.62392 -0.46188,-1.7952zM408.13592,99.69177c3.80898,2.01019 7.5341,4.18343 11.15639,6.50383M343.40989,83.96614c-0.81169,4.41803 -1.73912,8.81233 -2.75398,13.18253M266.27449,117.96455c-3.78944,-7.16431 -7.18437,-14.54361 -10.34058,-22.00623M122.82882,245.60082c-0.40222,-8.83194 0.42183,-17.74712 2.84195,-26.26473M73.49464,203.55431M65.45074,332.50428" fill="#449bdd" stroke-width="0" stroke-linecap="round" stroke-linejoin="round"/><path d="M65.77689,333.01438c-50.91438,-4.93546 -72.1444,-36.03645 -75.11803,-60.06882c-3.34709,-27.02141 4.90768,-57.99477 58.78334,-67.13326c7.83707,-1.32965 15.05333,-2.01431 21.64818,-2.21695l0.50972,0.03189c-21.47743,41.53671 -23.50716,90.38941 -6.14944,128.87383z" fill="#f1f1f2" stroke-width="0" stroke-linecap="butt" stroke-linejoin="miter"/><path d="M54.46517,151.14036c-53.91937,-38.79868 -52.43485,-100.04174 -35.70984,-122.86789c17.44881,-23.78548 67.57927,-53.37822 138.59765,-19.17252l-0.71243,0.23453c-40.76103,12.76077 -76.02539,44.86061 -92.57912,89.66156c-6.34438,17.20238 -9.36943,34.77875 -9.41727,51.95343z" fill="#f1f1f2" stroke-width="0" stroke-linecap="butt" stroke-linejoin="miter"/><path d="M426.45242,187.75391c34.71085,25.27817 46.95824,26.81465 55.26085,55.75829c0,0 12.27875,41.89934 -16.60164,80.61829c-19.16428,25.66444 -52.54235,58.45726 -137.84508,65.82062c-85.29145,7.33917 -151.54153,-45.16716 -148.42896,-83.93395c4.13559,-51.60309 41.53725,-44.86473 113.14461,-89.01657c71.59912,-44.12865 72.59033,-96.54709 72.59033,-96.54709c0,0 37.75192,49.69628 61.87989,67.30042z" fill="#e6e7e8" stroke-width="0" stroke-linecap="butt" stroke-linejoin="miter"/><g stroke-width="0" stroke-linecap="butt" stroke-linejoin="miter"><path d="M307.83898,263.14659c0.5735,2.71851 -1.15425,5.40512 -3.87634,5.98999c-2.73445,0.59723 -5.42107,-1.20979 -5.98633,-3.86093c-0.29419,-1.32919 -0.05966,-2.67067 0.6646,-3.79303c0.73662,-1.13007 1.85898,-1.91811 3.20045,-2.20467c0.36209,-0.07561 0.72838,-0.11986 1.09818,-0.11986c2.33269,0 4.39438,1.67587 4.89944,3.9885z" fill="#ffffff"/><path d="M315.59273,261.48262c1.49223,6.9812 -2.96539,13.89084 -9.95842,15.40726c-0.9079,0.19547 -1.82709,0.29472 -2.74628,0.29472c-6.07384,0 -11.40327,-4.31053 -12.66098,-10.22484c-0.74844,-3.38722 -0.13168,-6.85822 1.74324,-9.75983c1.88263,-2.91702 4.78424,-4.92722 8.17505,-5.6633c6.81397,-1.49277 13.95874,3.08426 15.44731,9.94606zM297.97623,265.27977c0.56122,2.65114 3.25188,4.45404 5.98221,3.86093c2.72621,-0.58533 4.45404,-3.27194 3.88046,-5.99045c-0.50514,-2.31216 -2.56317,-3.98796 -4.89944,-3.98796c-0.36621,0 -0.7325,0.04372 -1.09818,0.11932c-1.34148,0.28648 -2.46391,1.07094 -3.20045,2.20512c-0.72426,1.12236 -0.95879,2.46391 -0.6646,3.79303z" fill="#231f20"/></g><g stroke-width="0" stroke-linecap="butt" stroke-linejoin="miter"><path d="M430.95788,255.56c0.56938,2.71492 -1.15425,5.40512 -3.87688,5.99457c-2.73033,0.59311 -5.41695,-1.21033 -5.98587,-3.86505c-0.2906,-1.32919 -0.05966,-2.67067 0.6646,-3.79303c0.7402,-1.13007 1.86256,-1.91864 3.19992,-2.20512c0.36621,-0.07919 0.7325,-0.11932 1.09871,-0.11932c2.33635,0 4.39796,1.67587 4.89944,3.98796z" fill="#ffffff"/><path d="M438.71117,253.88878c1.49681,6.98891 -2.96486,13.89854 -9.95842,15.41084c-0.90736,0.19135 -1.82655,0.2906 -2.74628,0.2906c-6.07384,0 -11.39916,-4.30641 -12.66098,-10.22484c-0.74432,-3.38722 -0.13115,-6.85768 1.74324,-9.75937c1.88263,-2.91756 4.78424,-4.93134 8.1797,-5.66383c6.81397,-1.49277 13.95821,3.08472 15.44273,9.94659zM421.09109,257.68547c0.56938,2.65526 3.25966,4.46228 5.98221,3.86093c2.72621,-0.58487 4.45404,-3.2756 3.88046,-5.98999c-0.50156,-2.31262 -2.55905,-3.9885 -4.89944,-3.9885c-0.36209,0 -0.72838,0.04013 -1.09818,0.11986c-1.33736,0.28648 -2.45979,1.07452 -3.20045,2.20467c-0.72426,1.12236 -0.9552,2.46391 -0.6646,3.79303z" fill="#231f20"/></g><path d="M362.02477,359.24866c-50.30899,3.3831 -55.92758,-62.04048 -55.92758,-62.04048c0,0 28.75321,-0.90988 65.85877,-3.21304c37.09808,-2.28676 45.99243,0 45.99243,0c0,0 -5.6266,61.85494 -55.92354,65.25353v0z" fill="#ffffff" stroke-width="0" stroke-linecap="round" stroke-linejoin="miter"/></g></g></svg>