<svg version="1.1" xmlns="http://www.w3.org/2000/svg" xmlns:xlink="http://www.w3.org/1999/xlink" width="732.18773" height="646.42379" viewBox="0,0,732.18773,646.42379"><g transform="translate(122.92872,-107.56842)"><g stroke-miterlimit="10"><path d="M-122.67872,651.2012v-543.38278h731.68773v543.38278z" fill-opacity="0.6" fill="#000000" stroke="#000000" stroke-width="0.5"/><g stroke="none"><path d="M443.55086,624.91369h-493.98539v-511.01655l51.10166,51.10166l51.10166,-51.10166l51.10166,51.10166l51.10166,-51.10166l51.10166,51.10166l51.10166,-51.10166l51.10166,51.10166l51.10166,-51.10166l51.10166,51.10166l51.10166,-51.10166l51.10166,51.10166l51.10166,-51.10166v391.84749z" fill="#cfd8dc" stroke-width="1"/><path d="M443.55086,624.91369h-493.98539v-511.01655l51.10166,51.10166l51.10166,-51.10166l51.10166,51.10166l51.10166,-51.10166l51.10166,51.10166l51.10166,-51.10166l51.10166,51.10166l51.10166,-51.10166l51.10166,51.10166l51.10166,-51.10166l51.10166,51.10166l51.10166,-51.10166v391.84749z" fill="none" stroke-width="4.16667"/><path d="M0.6671,216.10044h255.50828v68.13281h-255.50828z" fill="none" stroke-width="4.16667"/><path d="M256.17537,216.10044h255.50828v68.13281h-255.50828z" fill="none" stroke-width="4.16667"/><path d="M290.24586,335.33491h221.43778v34.0705h-221.43778z" fill="none" stroke-width="4.16667"/><path d="M290.24586,403.47591h221.43778v34.06232h-221.43778z" fill="none" stroke-width="4.16667"/><path d="M290.24586,471.60872h221.43778v34.0705h-221.43778z" fill="none" stroke-width="4.16667"/><path d="M290.24586,719.92172h187.37546v34.0705h-187.37546z" fill="none" stroke-width="4.16667"/><path d="M443.55086,505.67922h119.23447l-119.23447,119.23447z" fill="#78909c" stroke-width="1"/><path d="M443.55086,505.67922h119.23447l-119.23447,119.23447z" fill="none" stroke-width="4.16667"/></g><text transform="translate(-42.55811,215.87558) scale(0.34712,0.282)" font-size="40" xml:space="preserve" fill="#000000" stroke="#000000" stroke-width="1" font-family="Handwriting" font-weight="normal" text-anchor="start"><tspan x="0" dy="0"> </tspan><tspan x="0" dy="46.150000000000006px">V4-22/02/2025:</tspan><tspan x="0" dy="46.150000000000006px">Se Mejoro el X"Numero" (ahora no pasara lo que pasaba en tormenta xd)</tspan><tspan x="0" dy="46.150000000000006px">Se Añadio Nieve y Viento</tspan><tspan x="0" dy="46.150000000000006px"> </tspan><tspan x="0" dy="46.150000000000006px">V3-18/02/2025:</tspan><tspan x="0" dy="46.150000000000006px">Se Añadio X2 X3 y X4 de Velocidad en Ajustes (No Pongan x2 o x3 o x4 en tormenta porque...)</tspan><tspan x="0" dy="46.150000000000006px">se Mejoro el Modo Controlador</tspan><tspan x="0" dy="46.150000000000006px">V2-17/02/2025:</tspan><tspan x="0" dy="46.150000000000006px">Se Añadio Niveles a las Manzanas</tspan><tspan x="0" dy="46.150000000000006px">Controlador De Juego en Configuraciones</tspan><tspan x="0" dy="46.150000000000006px">Nave Manzana</tspan><tspan x="0" dy="46.150000000000006px">V1-12/02/2025:</tspan><tspan x="0" dy="46.150000000000006px">Se Añadio el Sistema de Niveles</tspan><tspan x="0" dy="46.150000000000006px">Se Añadio Sistema de Dias y Hora</tspan><tspan x="0" dy="46.150000000000006px">Ultima Alfa:</tspan><tspan x="0" dy="46.150000000000006px">Se Añadieron Codigos secretos</tspan><tspan x="0" dy="46.150000000000006px">Configuracion Añadida</tspan><tspan x="0" dy="46.150000000000006px"> </tspan></text></g></g></svg>