<svg version="1.1" xmlns="http://www.w3.org/2000/svg" xmlns:xlink="http://www.w3.org/1999/xlink" width="51.49494" height="34.15076" viewBox="0,0,51.49494,34.15076"><defs><radialGradient cx="235.18968" cy="79.59788" r="24.4036" gradientUnits="userSpaceOnUse" id="color-1"><stop offset="0" stop-color="#9ceb60"/><stop offset="1" stop-color="#6dd627"/></radialGradient><radialGradient cx="232.48534" cy="86.07166" r="4.8292" gradientUnits="userSpaceOnUse" id="color-2"><stop offset="0" stop-color="#9ceb60"/><stop offset="1" stop-color="#6dd627"/></radialGradient></defs><g transform="translate(-209.34839,-62.53133)"><g stroke="#45413c" stroke-width="2.5" stroke-linecap="round" stroke-miterlimit="10"><g><path d="M245.81399,93.06033l-8.24184,2.3541c0,0 -15.1467,-1.52141 -16.35491,-1.76557c-1.2082,-0.24413 1.20257,0.87166 -2.57558,-2.05983c-2.95803,-2.29512 -4.45088,-4.82765 -5.92383,-7.94506c-1.47296,-3.1174 -2.57556,-6.35124 -1.93168,-8.68072c0.64388,-2.32948 1.2123,-1.67566 5.02237,-2.50123c3.81007,-0.82557 7.478,-0.98475 9.91597,-0.73566c1.55733,0.15913 2.76837,-0.07313 5.92383,2.35411c3.1555,2.42723 7.08285,7.65081 7.08285,7.65081c0,0 -0.21543,10.76361 -0.12879,11.47623c0.08664,0.71262 1.09943,2.37812 1.41657,-0.88278c0.31714,-3.26091 -1.25895,-3.42907 -0.51511,-8.38647c0.74384,-4.9574 1.48833,-8.35796 3.60581,-12.21187c2.11748,-3.85391 5.73983,-6.95717 7.46917,-7.94506c1.72932,-0.98789 2.32393,-2.13696 4.89359,0.88278c2.56964,3.01974 3.82864,8.56853 4.12092,9.71066c0.29228,1.14213 1.45163,1.64129 -0.90146,2.86988c-2.35309,1.22859 -3.97078,-0.7703 -6.56771,1.02992c-2.59696,1.80021 -3.13197,3.80219 -4.50727,6.91515c-1.3753,3.11295 -2.31802,8.5336 -2.31802,8.5336" fill="url(#color-1)"/><path d="M227.65615,80.84852l9.6584,10.4463" fill="url(#color-2)"/></g></g></g></svg>