<svg version="1.1" xmlns="http://www.w3.org/2000/svg" xmlns:xlink="http://www.w3.org/1999/xlink" width="770.89367" height="770.89367" viewBox="0,0,770.89367,770.89367"><g transform="translate(148.44983,212.95432)"><g data-paper-data="{&quot;isPaintingLayer&quot;:true}" fill-rule="nonzero" stroke-linejoin="miter" stroke-miterlimit="10" stroke-dasharray="" stroke-dashoffset="0" style="mix-blend-mode: normal"><g fill="#ffc96b" stroke="none" stroke-width="1" stroke-linecap="butt"><path d="M236.99692,557.93918c-212.87603,0 -385.44675,-172.57039 -385.44675,-385.44675c0,-212.87603 172.57039,-385.44675 385.44692,-385.44675c212.87636,0 385.44675,172.57039 385.44675,385.44692c0,212.87603 -172.57039,385.44675 -385.44675,385.44675z"/><path d="M543.23198,142.37419c-100.36105,-100.36105 -200.71064,-200.71064 -301.0717,-301.0717c178.86656,2.74709 323.29081,147.16004 326.02693,326.02693z"/><path d="M391.29507,465.4223c-149.76334,-148.51688 -298.61153,-297.96054 -446.79727,-448.04406c45.85026,-86.25056 128.4602,-149.9841 227.14407,-169.73192l390.21281,390.21281c-19.82495,98.99291 -83.90061,181.81247 -170.55945,227.56333z"/><path d="M-45.97041,104.90851c127.04816,128.37192 254.86835,255.97151 383.06356,383.18491c-31.61858,10.02851 -65.15671,15.72102 -100.09607,15.72102c-182.98196,0 -331.32213,-148.34034 -331.32213,-331.32213c0,-35.10493 5.7477,-68.80848 15.86464,-100.55954c10.84474,10.97723 21.63445,22.00932 32.49017,32.97575z"/></g><path d="M15.07836,180.00008c0,-124.22082 100.7009,-224.92179 224.92179,-224.92179c124.2209,0 224.92172,100.7009 224.92172,224.92179c0,124.2209 -100.7009,224.92179 -224.92172,224.92179c-124.22082,0 -224.92179,-100.7009 -224.92179,-224.92179z" fill="#ffd358" stroke="#ffffff" stroke-width="5" stroke-linecap="butt"/><path d="M15.07836,190.771c0,-118.27224 95.87863,-214.15079 214.15087,-214.15079c118.27224,0 214.15079,95.87863 214.15079,214.15079c0,118.27224 -95.87855,214.15087 -214.15079,214.15087c-118.27224,0 -214.15087,-95.87863 -214.15087,-214.15087z" fill="#ffe291" stroke="#ffffff" stroke-width="6" stroke-linecap="butt"/><path d="M15.07836,180.00008c0,-124.22082 100.7009,-224.92179 224.92179,-224.92179c124.2209,0 224.92172,100.7009 224.92172,224.92179c0,124.2209 -100.7009,224.92179 -224.92172,224.92179c-124.22082,0 -224.92179,-100.7009 -224.92179,-224.92179z" fill="#ffaf25" stroke="none" stroke-width="0" stroke-linecap="butt"/><path d="M15.07836,190.771c0,-118.27224 95.87863,-214.15079 214.15087,-214.15079c118.27224,0 214.15079,95.87863 214.15079,214.15079c0,118.27224 -95.87863,214.15087 -214.15079,214.15087c-118.27224,0 -214.15087,-95.87863 -214.15087,-214.15087z" fill="#ffc96b" stroke="none" stroke-width="0" stroke-linecap="butt"/><path d="M122.50494,158.06074c0,-10.34447 8.38587,-18.73042 18.73042,-18.73042c10.34447,0 18.73019,8.38587 18.73019,18.73042c0,10.34447 -8.38564,18.73042 -18.73019,18.73042c-10.34447,0 -18.73042,-8.38587 -18.73042,-18.73042z" fill="#ffffff" stroke="none" stroke-width="0" stroke-linecap="butt"/><path d="M320.03446,155.56339c0,-10.34447 8.38564,-18.73027 18.73019,-18.73027c10.34447,0 18.73042,8.38579 18.73042,18.73027c0,10.34447 -8.38587,18.73042 -18.73042,18.73042c-10.34447,0 -18.73019,-8.38587 -18.73019,-18.73042z" fill="#ffffff" stroke="none" stroke-width="0" stroke-linecap="butt"/><path d="M236.41055,266.14353c-42.42886,2.85317 -47.16727,-52.32278 -47.16727,-52.32278c0,0 24.24943,-0.76745 55.54287,-2.70971c31.28721,-1.9285 38.78839,0 38.78839,0c0,0 -4.74518,52.16623 -47.16385,55.03248z" fill="#ffffff" stroke="none" stroke-width="0" stroke-linecap="round"/><path d="M226.06996,470.83887v-54.05862" fill="none" stroke="#ffffff" stroke-width="3.5" stroke-linecap="round"/><path d="M253.93004,-110.83887v54.05862" data-paper-data="{&quot;index&quot;:null}" fill="none" stroke="#ffffff" stroke-width="3.5" stroke-linecap="round"/><path d="M476.78025,166.06996h54.05862" data-paper-data="{&quot;index&quot;:null}" fill="none" stroke="#ffffff" stroke-width="3.5" stroke-linecap="round"/><path d="M-50.83887,193.93004h54.05862" data-paper-data="{&quot;index&quot;:null}" fill="none" stroke="#ffffff" stroke-width="3.5" stroke-linecap="round"/><path d="M24.4958,375.80402l38.22524,-38.22524" fill="none" stroke="#ffffff" stroke-width="3.5" stroke-linecap="round"/><path d="M455.5042,-15.80402l-38.22524,38.22524" data-paper-data="{&quot;index&quot;:null}" fill="none" stroke="#ffffff" stroke-width="3.5" stroke-linecap="round"/><path d="M455.5042,375.80402l-38.22524,-38.22524" data-paper-data="{&quot;index&quot;:null}" fill="none" stroke="#ffffff" stroke-width="3.5" stroke-linecap="round"/><path d="M24.4958,-15.80402l38.22524,38.22524" data-paper-data="{&quot;index&quot;:null}" fill="none" stroke="#ffffff" stroke-width="3.5" stroke-linecap="round"/></g></g></svg>