<svg version="1.1" xmlns="http://www.w3.org/2000/svg" xmlns:xlink="http://www.w3.org/1999/xlink" width="157.72417" height="166.09738" viewBox="0,0,157.72417,166.09738"><defs><linearGradient x1="243.32128" y1="213.12897" x2="243.32128" y2="349.76135" gradientUnits="userSpaceOnUse" id="color-1"><stop offset="0" stop-color="#fd442b"/><stop offset="1" stop-color="#b12515"/></linearGradient><linearGradient x1="203.5934" y1="247.34059" x2="277.67906" y2="247.34059" gradientUnits="userSpaceOnUse" id="color-2"><stop offset="0" stop-color="#bd7d08"/><stop offset="1" stop-color="#f1c214"/></linearGradient><linearGradient x1="195.70031" y1="215.60996" x2="282.30427" y2="215.60996" gradientUnits="userSpaceOnUse" id="color-3"><stop offset="0" stop-color="#bd7d08"/><stop offset="1" stop-color="#f1c214"/></linearGradient></defs><g transform="translate(-164.99139,-184.91397)"><g stroke="#45413c" stroke-width="2.5" stroke-linecap="round" stroke-miterlimit="10"><path d="M283.29442,213.12897c0,0 0.25591,10.05853 -1.40783,13.86595c-2.63029,6.01935 -4.56792,11.64974 -4.56792,11.64974l0.17294,9.69322c0,0 6.87744,16.32545 12.56446,33.65565c5.39792,16.44919 10.92534,36.33585 14.52348,44.78731c4.03087,9.46786 15.06381,19.88657 15.06381,19.88657c0,0 -8.42059,0.18751 -11.62969,0.18751c-3.31514,0 -7.95338,-0.18751 -7.95338,-0.18751c0,0 -10.35593,-10.03188 -15.86061,-10.03188c-7.33429,0 -24.2531,10.03188 -24.2531,10.03188c0,0 -14.12177,3.09394 -21.5907,3.09394c-7.15198,0 -22.31328,-3.09394 -22.31328,-3.09394c0,0 -16.11135,-12.00075 -23.34302,-12.00075c-5.83972,0 -16.77069,12.00075 -16.77069,12.00075c0,0 -3.96255,0.58264 -5.50842,0.41701c-1.38423,-0.14831 -3.42127,-0.76454 -3.42127,-0.76454c0,0 6.29503,-9.05698 9.68749,-17.7484c1.39737,-3.58004 3.91416,-9.06495 6.00897,-15.74802c3.52434,-11.24369 7.10953,-25.56495 11.31799,-37.62257c5.44924,-15.61259 11.28985,-27.39639 11.28985,-27.39639c0,0 -1.07629,-3.868 -1.13315,-5.51683c-0.0462,-1.33987 0.81729,-3.64299 0.81729,-3.64299c0,0 -3.86189,-5.3484 -4.86538,-8.64265c-1.08778,-3.57095 -1.42886,-12.01997 -1.42886,-12.01997z" fill="url(#color-1)"/><path d="M203.5934,239.88247c0,0 24.27656,6.02522 36.45298,5.73871c12.79577,-0.30107 37.6327,-5.77273 37.6327,-5.77273l-0.33258,8.72958c0,0 -27.41335,6.16153 -37.77039,6.25247c-16.90911,0.14848 -35.59571,-7.12132 -35.59571,-7.12132z" fill="url(#color-2)"/><path d="M196.18686,194.45593c0,0 3.57152,1.21241 7.91806,0.03095c9.41261,-2.55851 25.82879,-8.6426 41.22142,-8.30979c14.4925,0.31335 26.65758,9.96062 30.91623,9.9526c2.74117,-0.00516 6.06171,-1.83595 6.06171,-1.83595c0,0 -1.37889,8.13155 -1.49867,11.03603c-0.05226,1.26714 0.06727,5.47807 0.06727,5.47807c0,0 -2.90868,9.70285 -6.36739,12.89754c-3.61613,3.34008 -13.96504,5.42175 -13.96504,5.42175c0,0 -8.22391,6.54628 -12.59894,9.45353c-3.32104,2.20686 -11.37192,6.47532 -11.37192,6.47532c0,0 -11.77116,-10.28382 -17.2591,-13.89273c-3.92643,-2.58205 -12.58196,-5.73101 -12.58196,-5.73101c0,0 -5.00082,-3.0302 -6.6911,-5.29219c-1.94887,-2.60803 -4.33712,-9.46617 -4.33712,-9.46617l0.48654,-16.21797z" fill="url(#color-3)"/></g></g></svg>