<svg version="1.1" xmlns="http://www.w3.org/2000/svg" xmlns:xlink="http://www.w3.org/1999/xlink" width="640.15312" height="193.92163" viewBox="0,0,640.15312,193.92163"><defs><linearGradient x1="43.69534" y1="219.9039" x2="43.69534" y2="341.02957" gradientUnits="userSpaceOnUse" id="color-1"><stop offset="0" stop-color="#d9d9d9"/><stop offset="1" stop-color="#076900"/></linearGradient><linearGradient x1="180.69534" y1="195.65182" x2="180.69534" y2="316.77748" gradientUnits="userSpaceOnUse" id="color-2"><stop offset="0" stop-color="#d9d9d9"/><stop offset="1" stop-color="#076900"/></linearGradient><linearGradient x1="139.69534" y1="215.05347" x2="139.69534" y2="336.17916" gradientUnits="userSpaceOnUse" id="color-3"><stop offset="0" stop-color="#d9d9d9"/><stop offset="1" stop-color="#076900"/></linearGradient><linearGradient x1="93.69534" y1="247.79379" x2="93.69534" y2="368.91946" gradientUnits="userSpaceOnUse" id="color-4"><stop offset="0" stop-color="#d9d9d9"/><stop offset="1" stop-color="#076900"/></linearGradient><linearGradient x1="236.69534" y1="225.96692" x2="236.69534" y2="347.09259" gradientUnits="userSpaceOnUse" id="color-5"><stop offset="0" stop-color="#d9d9d9"/><stop offset="1" stop-color="#076900"/></linearGradient><linearGradient x1="512.57443" y1="225.96691" x2="512.57443" y2="347.09261" gradientUnits="userSpaceOnUse" id="color-6"><stop offset="0" stop-color="#d9d9d9"/><stop offset="1" stop-color="#076900"/></linearGradient><linearGradient x1="375.57443" y1="201.71482" x2="375.57443" y2="322.84049" gradientUnits="userSpaceOnUse" id="color-7"><stop offset="0" stop-color="#d9d9d9"/><stop offset="1" stop-color="#076900"/></linearGradient><linearGradient x1="416.57443" y1="221.11649" x2="416.57443" y2="342.24219" gradientUnits="userSpaceOnUse" id="color-8"><stop offset="0" stop-color="#d9d9d9"/><stop offset="1" stop-color="#076900"/></linearGradient><linearGradient x1="462.57443" y1="253.85679" x2="462.57443" y2="374.9825" gradientUnits="userSpaceOnUse" id="color-9"><stop offset="0" stop-color="#d9d9d9"/><stop offset="1" stop-color="#076900"/></linearGradient><linearGradient x1="319.57443" y1="232.02992" x2="319.57443" y2="353.15563" gradientUnits="userSpaceOnUse" id="color-10"><stop offset="0" stop-color="#d9d9d9"/><stop offset="1" stop-color="#076900"/></linearGradient><linearGradient x1="-36.57657" y1="221.70296" x2="-36.57657" y2="342.82863" gradientUnits="userSpaceOnUse" id="color-11"><stop offset="0" stop-color="#d9d9d9"/><stop offset="1" stop-color="#076900"/></linearGradient><linearGradient x1="100.42343" y1="197.45086" x2="100.42343" y2="318.57653" gradientUnits="userSpaceOnUse" id="color-12"><stop offset="0" stop-color="#d9d9d9"/><stop offset="1" stop-color="#076900"/></linearGradient><linearGradient x1="59.42343" y1="216.85253" x2="59.42343" y2="337.97819" gradientUnits="userSpaceOnUse" id="color-13"><stop offset="0" stop-color="#d9d9d9"/><stop offset="1" stop-color="#076900"/></linearGradient><linearGradient x1="13.42343" y1="249.59283" x2="13.42343" y2="370.71852" gradientUnits="userSpaceOnUse" id="color-14"><stop offset="0" stop-color="#d9d9d9"/><stop offset="1" stop-color="#076900"/></linearGradient><linearGradient x1="156.42343" y1="227.76598" x2="156.42343" y2="348.89165" gradientUnits="userSpaceOnUse" id="color-15"><stop offset="0" stop-color="#d9d9d9"/><stop offset="1" stop-color="#076900"/></linearGradient><linearGradient x1="432.30252" y1="227.76596" x2="432.30252" y2="348.89166" gradientUnits="userSpaceOnUse" id="color-16"><stop offset="0" stop-color="#d9d9d9"/><stop offset="1" stop-color="#076900"/></linearGradient><linearGradient x1="295.30252" y1="203.51388" x2="295.30252" y2="324.63957" gradientUnits="userSpaceOnUse" id="color-17"><stop offset="0" stop-color="#d9d9d9"/><stop offset="1" stop-color="#076900"/></linearGradient><linearGradient x1="336.30252" y1="222.91555" x2="336.30252" y2="344.04123" gradientUnits="userSpaceOnUse" id="color-18"><stop offset="0" stop-color="#d9d9d9"/><stop offset="1" stop-color="#076900"/></linearGradient><linearGradient x1="382.30252" y1="255.65586" x2="382.30252" y2="376.78156" gradientUnits="userSpaceOnUse" id="color-19"><stop offset="0" stop-color="#d9d9d9"/><stop offset="1" stop-color="#076900"/></linearGradient><linearGradient x1="239.30252" y1="233.82898" x2="239.30252" y2="354.95468" gradientUnits="userSpaceOnUse" id="color-20"><stop offset="0" stop-color="#d9d9d9"/><stop offset="1" stop-color="#076900"/></linearGradient><linearGradient x1="323.57655" y1="240.55785" x2="323.57655" y2="361.68353" gradientUnits="userSpaceOnUse" id="color-21"><stop offset="0" stop-color="#d9d9d9"/><stop offset="1" stop-color="#076900"/></linearGradient><linearGradient x1="460.57655" y1="216.30578" x2="460.57655" y2="337.43145" gradientUnits="userSpaceOnUse" id="color-22"><stop offset="0" stop-color="#d9d9d9"/><stop offset="1" stop-color="#076900"/></linearGradient><linearGradient x1="419.57655" y1="235.70744" x2="419.57655" y2="356.83312" gradientUnits="userSpaceOnUse" id="color-23"><stop offset="0" stop-color="#d9d9d9"/><stop offset="1" stop-color="#076900"/></linearGradient><linearGradient x1="373.57655" y1="268.44775" x2="373.57655" y2="389.57343" gradientUnits="userSpaceOnUse" id="color-24"><stop offset="0" stop-color="#d9d9d9"/><stop offset="1" stop-color="#076900"/></linearGradient><linearGradient x1="516.57655" y1="246.62088" x2="516.57655" y2="367.74655" gradientUnits="userSpaceOnUse" id="color-25"><stop offset="0" stop-color="#d9d9d9"/><stop offset="1" stop-color="#076900"/></linearGradient><linearGradient x1="17.42343" y1="224.70296" x2="17.42343" y2="345.82863" gradientUnits="userSpaceOnUse" id="color-26"><stop offset="0" stop-color="#d9d9d9"/><stop offset="1" stop-color="#076900"/></linearGradient></defs><g transform="translate(80.07657,-195.6518)"><g stroke="none" stroke-width="0" stroke-miterlimit="10"><path d="M87.19534,280.4667c0,33.44794 -19.47562,60.56285 -43.5,60.56285c-24.02438,0 -43.5,-27.11491 -43.5,-60.56284c0,-33.44793 19.47562,-60.56283 43.5,-60.56283c24.02439,0 43.5,27.1149 43.5,60.56285z" fill="url(#color-1)"/><path d="M224.19534,256.21463c0,33.44794 -19.47562,60.56285 -43.5,60.56285c-24.02438,0 -43.5,-27.11491 -43.5,-60.56284c0,-33.44794 19.47562,-60.56284 43.5,-60.56284c24.02438,0 43.5,27.11491 43.5,60.56285z" fill="url(#color-2)"/><path d="M183.19534,275.61629c0,33.44794 -19.47562,60.56285 -43.5,60.56285c-24.02438,0 -43.5,-27.11491 -43.5,-60.56284c0,-33.44793 19.47562,-60.56284 43.5,-60.56284c24.02438,0 43.5,27.11491 43.5,60.56285z" fill="url(#color-3)"/><path d="M137.19534,308.35661c0,33.44794 -19.47562,60.56284 -43.5,60.56284c-24.02438,0 -43.5,-27.11491 -43.5,-60.56284c0,-33.44793 19.47562,-60.56284 43.5,-60.56284c24.02438,0 43.5,27.1149 43.5,60.56284z" fill="url(#color-4)"/><path d="M280.19534,286.52974c0,33.44794 -19.47562,60.56284 -43.5,60.56284c-24.02438,0 -43.5,-27.11491 -43.5,-60.56284c0,-33.44793 19.47562,-60.56283 43.5,-60.56283c24.02438,0 43.5,27.1149 43.5,60.56285z" fill="url(#color-5)"/><path d="M512.57443,225.96691c24.02438,0 43.5,27.11491 43.5,60.56285c0,33.44794 -19.47562,60.56285 -43.5,60.56285c-24.02438,0 -43.5,-27.11491 -43.5,-60.56284c0,-33.44793 19.47562,-60.56284 43.5,-60.56284z" fill="url(#color-6)"/><path d="M375.57443,201.71482c24.02438,0 43.5,27.1149 43.5,60.56285c0,33.44794 -19.47562,60.56285 -43.5,60.56285c-24.02438,0 -43.5,-27.1149 -43.5,-60.56283c0,-33.44793 19.47562,-60.56284 43.5,-60.56284z" fill="url(#color-7)"/><path d="M416.57443,221.11649c24.02438,0 43.5,27.11491 43.5,60.56285c0,33.44794 -19.47562,60.56285 -43.5,60.56285c-24.02438,0 -43.5,-27.11491 -43.5,-60.56284c0,-33.44793 19.47562,-60.56284 43.5,-60.56284z" fill="url(#color-8)"/><path d="M462.57443,253.85679c24.02438,0 43.5,27.1149 43.5,60.56284c0,33.44794 -19.47562,60.56285 -43.5,60.56285c-24.02438,0 -43.5,-27.11491 -43.5,-60.56284c0,-33.44793 19.47562,-60.56284 43.5,-60.56284z" fill="url(#color-9)"/><path d="M319.57443,232.02992c24.02438,0 43.5,27.11491 43.5,60.56285c0,33.44794 -19.47562,60.56285 -43.5,60.56285c-24.02438,0 -43.5,-27.11491 -43.5,-60.56284c0,-33.44793 19.47562,-60.56284 43.5,-60.56284z" fill="url(#color-10)"/><path d="M6.92343,282.26577c0,33.44794 -19.47562,60.56284 -43.5,60.56284c-24.02438,0 -43.5,-27.11491 -43.5,-60.56284c0,-33.44793 19.47562,-60.56283 43.5,-60.56283c24.02439,0 43.5,27.1149 43.5,60.56285z" fill="url(#color-11)"/><path d="M143.92343,258.01367c0,33.44794 -19.47562,60.56285 -43.5,60.56285c-24.02438,0 -43.5,-27.11491 -43.5,-60.56284c0,-33.44794 19.47562,-60.56284 43.5,-60.56284c24.02438,0 43.5,27.11491 43.5,60.56285z" fill="url(#color-12)"/><path d="M102.92343,277.41533c0,33.44794 -19.47562,60.56285 -43.5,60.56285c-24.02438,0 -43.5,-27.11491 -43.5,-60.56284c0,-33.44793 19.47562,-60.56283 43.5,-60.56283c24.02438,0 43.5,27.1149 43.5,60.56285z" fill="url(#color-13)"/><path d="M56.92343,310.15564c0,33.44794 -19.47562,60.56285 -43.5,60.56285c-24.02438,0 -43.5,-27.11491 -43.5,-60.56284c0,-33.44793 19.47562,-60.56284 43.5,-60.56284c24.02438,0 43.5,27.11491 43.5,60.56285z" fill="url(#color-14)"/><path d="M199.92343,288.32878c0,33.44794 -19.47562,60.56284 -43.5,60.56284c-24.02438,0 -43.5,-27.11491 -43.5,-60.56284c0,-33.44793 19.47562,-60.56283 43.5,-60.56283c24.02438,0 43.5,27.11491 43.5,60.56285z" fill="url(#color-15)"/><path d="M432.30252,227.76596c24.02438,0 43.5,27.1149 43.5,60.56284c0,33.44794 -19.47562,60.56285 -43.5,60.56285c-24.02438,0 -43.5,-27.11491 -43.5,-60.56284c0,-33.44793 19.47562,-60.56284 43.5,-60.56284z" fill="url(#color-16)"/><path d="M295.30252,203.51388c24.02438,0 43.5,27.11491 43.5,60.56285c0,33.44794 -19.47562,60.56284 -43.5,60.56284c-24.02438,0 -43.5,-27.11491 -43.5,-60.56284c0,-33.44793 19.47562,-60.56283 43.5,-60.56283z" fill="url(#color-17)"/><path d="M336.30252,222.91555c24.02438,0 43.5,27.11491 43.5,60.56285c0,33.44794 -19.47562,60.56285 -43.5,60.56285c-24.02438,0 -43.5,-27.11491 -43.5,-60.56284c0,-33.44793 19.47562,-60.56284 43.5,-60.56284z" fill="url(#color-18)"/><path d="M382.30252,255.65586c24.02438,0 43.5,27.1149 43.5,60.56284c0,33.44794 -19.47562,60.56285 -43.5,60.56285c-24.02438,0 -43.5,-27.1149 -43.5,-60.56283c0,-33.44793 19.47562,-60.56284 43.5,-60.56284z" fill="url(#color-19)"/><path d="M239.30252,233.82898c24.02438,0 43.5,27.1149 43.5,60.56284c0,33.44794 -19.47562,60.56285 -43.5,60.56285c-24.02438,0 -43.5,-27.11491 -43.5,-60.56284c0,-33.44793 19.47562,-60.56284 43.5,-60.56284z" fill="url(#color-20)"/><path d="M367.07655,301.12066c0,33.44794 -19.47562,60.56285 -43.5,60.56285c-24.02438,0 -43.5,-27.11491 -43.5,-60.56284c0,-33.44793 19.47562,-60.56284 43.5,-60.56284c24.02439,0 43.5,27.1149 43.5,60.56284z" fill="url(#color-21)"/><path d="M504.07655,276.86859c0,33.44794 -19.47562,60.56284 -43.5,60.56284c-24.02438,0 -43.5,-27.11491 -43.5,-60.56284c0,-33.44794 19.47562,-60.56284 43.5,-60.56284c24.02438,0 43.5,27.1149 43.5,60.56284z" fill="url(#color-22)"/><path d="M463.07655,296.27024c0,33.44794 -19.47562,60.56285 -43.5,60.56285c-24.02438,0 -43.5,-27.11491 -43.5,-60.56284c0,-33.44793 19.47562,-60.56283 43.5,-60.56283c24.02438,0 43.5,27.11491 43.5,60.56285z" fill="url(#color-23)"/><path d="M417.07655,329.01058c0,33.44794 -19.47562,60.56285 -43.5,60.56285c-24.02438,0 -43.5,-27.11491 -43.5,-60.56284c0,-33.44793 19.47562,-60.56284 43.5,-60.56284c24.02438,0 43.5,27.11491 43.5,60.56285z" fill="url(#color-24)"/><path d="M560.07655,307.1837c0,33.44794 -19.47562,60.56285 -43.5,60.56285c-24.02438,0 -43.5,-27.11491 -43.5,-60.56284c0,-33.44793 19.47562,-60.56284 43.5,-60.56284c24.02438,0 43.5,27.1149 43.5,60.56284z" fill="url(#color-25)"/><path d="M60.92343,285.26577c0,33.44794 -19.47562,60.56284 -43.5,60.56284c-24.02438,0 -43.5,-27.11491 -43.5,-60.56284c0,-33.44793 19.47562,-60.56283 43.5,-60.56283c24.02439,0 43.5,27.1149 43.5,60.56285z" fill="url(#color-26)"/></g></g></svg>