<svg version="1.1" xmlns="http://www.w3.org/2000/svg" xmlns:xlink="http://www.w3.org/1999/xlink" width="266.26572" height="62.57982" viewBox="0,0,266.26572,62.57982"><g transform="translate(66.41438,5.5804)"><g data-paper-data="{&quot;isPaintingLayer&quot;:true}" fill-rule="nonzero" stroke="none" stroke-width="1" stroke-linecap="butt" stroke-linejoin="miter" stroke-miterlimit="10" stroke-dasharray="" stroke-dashoffset="0" style="mix-blend-mode: normal"><path d="M56.34608,33.45758c0,-8.18409 -3.80272,-15.48166 -9.73346,-20.22006c-0.01618,-0.0128 -0.03233,-0.02627 -0.04918,-0.03907c-1.36951,-1.08255 -0.64064,-3.27457 1.10544,-3.27457h128.17809c12.88141,0 23.73244,10.15518 23.9992,23.03388c0.13876,6.70006 -2.52011,12.78305 -6.88665,17.14961c-4.25811,4.25811 -10.14709,6.89205 -16.64167,6.89205h-128.64761c-1.74608,0 -2.47564,-2.19136 -1.10544,-3.2739c0.01618,-0.0128 0.03301,-0.0256 0.04918,-0.03907c5.93077,-4.74648 9.73278,-12.04474 9.73211,-20.22883z" fill="#d30000"/><path d="M156.06409,13.23752h16.81615c12.58298,0 22.78799,9.05375 22.78799,20.22006c0,5.24028 -2.2412,10.00763 -5.91122,13.59951c-11.22424,-11.28015 -22.45455,-22.55357 -33.69293,-33.81957z" fill="#fa4141"/><path d="M150.83525,13.23752c2.86972,2.87511 5.74146,5.74752 8.60848,8.62533c9.14875,9.18108 18.28806,18.37226 27.43007,27.56008c-3.86468,2.67032 -8.72368,4.26349 -13.99358,4.26349h-18.76701c-7.24099,-7.21875 -14.484,-14.4355 -21.71758,-21.66166c-6.26015,-6.2541 -12.51157,-12.51696 -18.75623,-18.78723z" fill="#fa4141"/><path d="M108.41464,13.23752c2.46958,2.4817 4.93377,4.96946 7.4067,7.44847c10.64424,10.66983 21.31407,21.31473 31.98726,31.9556c0.34895,0.34827 0.69789,0.69656 1.04684,1.04483h-45.3685c-13.46005,-13.47959 -26.941,-26.93763 -40.36939,-40.44889z" fill="#fa4141"/><path d="M56.34676,33.45758c0,-8.18409 -3.80204,-15.48233 -9.73346,-20.22006h11.2788c3.25639,3.28065 6.50941,6.56398 9.77187,9.83789c10.18145,10.2158 20.38713,20.40734 30.58137,30.61101h-51.63203c5.93143,-4.74648 9.73346,-12.04474 9.73346,-20.22883z" fill="#fa4141"/><g><path d="M-42.87864,41.49108c-12.99841,0 -23.53574,-10.53731 -23.53574,-23.53574c0,-12.99841 10.53731,-23.53574 23.53575,-23.53574c12.99843,0 23.53574,10.53731 23.53574,23.53575c0,12.99841 -10.53731,23.53574 -23.53574,23.53574z" fill="#d30000"/><path d="M-24.17963,16.11629c-6.12814,-6.12814 -12.25558,-12.25558 -18.38372,-18.38372c10.92176,0.16774 19.74044,8.98573 19.90751,19.90751z" fill="#fa4141"/><path d="M-33.45704,35.84191c-9.14469,-9.06858 -18.2335,-18.19375 -27.28186,-27.35799c2.79966,-5.26654 7.8439,-9.15817 13.86963,-10.36399l23.82676,23.82676c-1.21053,6.0446 -5.12305,11.10164 -10.41452,13.89523z" fill="#fa4141"/><path d="M-60.15688,13.8286c7.75768,7.83851 15.5625,15.62986 23.39022,23.39763c-1.93066,0.61235 -3.97853,0.95994 -6.11196,0.95994c-11.17305,0 -20.23084,-9.0578 -20.23084,-20.23084c0,-2.14354 0.35096,-4.20151 0.96871,-6.14026c0.66219,0.67028 1.32102,1.34391 1.98388,2.01353z" fill="#fa4141"/></g></g></g></svg>