<svg version="1.1" xmlns="http://www.w3.org/2000/svg" xmlns:xlink="http://www.w3.org/1999/xlink" width="732.18773" height="543.88278" viewBox="0,0,732.18773,543.88278"><g transform="translate(122.92872,-107.56842)"><g stroke-miterlimit="10"><path d="M-122.67872,651.2012v-543.38278h731.68773v543.38278z" fill-opacity="0.6" fill="#000000" stroke="#000000" stroke-width="0.5" stroke-linecap="butt"/><g stroke="none" stroke-linecap="butt"><path d="M443.55082,624.91366h-493.98539v-511.01655l51.10166,51.10166l51.10166,-51.10166l51.10166,51.10166l51.10166,-51.10166l51.10166,51.10166l51.10166,-51.10166l51.10166,51.10166l51.10166,-51.10166l51.10166,51.10166l51.10166,-51.10166l51.10166,51.10166l51.10166,-51.10166v391.84749z" fill="#cfd8dc" stroke-width="1"/><path d="M443.55082,624.91366h-493.98539v-511.01655l51.10166,51.10166l51.10166,-51.10166l51.10166,51.10166l51.10166,-51.10166l51.10166,51.10166l51.10166,-51.10166l51.10166,51.10166l51.10166,-51.10166l51.10166,51.10166l51.10166,-51.10166l51.10166,51.10166l51.10166,-51.10166v391.84749z" fill="none" stroke-width="4.16667"/><path d="M0.66708,216.10042h255.50828v68.13281h-255.50828z" fill="none" stroke-width="4.16667"/><path d="M256.17535,216.10042h255.50828v68.13281h-255.50828z" fill="none" stroke-width="4.16667"/><path d="M290.24585,335.33489h221.43778v34.0705h-221.43778z" fill="none" stroke-width="4.16667"/><path d="M290.24585,403.47588h221.43778v34.06232h-221.43778z" fill="none" stroke-width="4.16667"/><path d="M290.24585,471.6087h221.43778v34.0705h-221.43778z" fill="none" stroke-width="4.16667"/><path d="M290.24585,539.74151h187.37546v34.0705h-187.37546z" fill="none" stroke-width="4.16667"/><path d="M443.55082,505.67919h119.23447l-119.23447,119.23447z" fill="#78909c" stroke-width="1"/><path d="M443.55082,505.67919h119.23447l-119.23447,119.23447z" fill="none" stroke-width="4.16667"/></g><text transform="translate(-36.98224,211.34665) scale(0.25311,0.20128)" font-size="40" xml:space="preserve" fill="#000000" stroke="#000000" stroke-width="1" stroke-linecap="butt" font-family="Handwriting" font-weight="normal" text-anchor="start"><tspan x="0" dy="0">V?? ???????? (Coming soon(Not in development)):</tspan><tspan x="0" dy="46.15px">Improved Physics</tspan><tspan x="0" dy="46.15px"> </tspan><tspan x="0" dy="46.15px">V10 ?????? (Coming Soon):</tspan><tspan x="0" dy="46.15px">Changed The Story (Lore)</tspan><tspan x="0" dy="46.15px">Account System</tspan><tspan x="0" dy="46.15px">Game Modes</tspan><tspan x="0" dy="46.15px">Final Boss harder</tspan><tspan x="0" dy="46.15px">Save and Load Game System (Originally Created by AetherPixel)</tspan><tspan x="0" dy="46.15px">Have more than 1 save game at a time</tspan><tspan x="0" dy="46.15px">News Button</tspan><tspan x="0" dy="46.15px"> </tspan><tspan x="0" dy="46.15px">V9 18/04/2025:</tspan><tspan x="0" dy="46.15px">The Final Boss was added to La Manzana Dios You can fight him with the Final Boss code or when you reach level 200 (s</tspan><tspan x="0" dy="46.15px">olo is only one thing but it cost a lot to do so it deserved a full version)</tspan><tspan x="0" dy="46.15px">Bug Fix</tspan><tspan x="0" dy="46.15px">I forgot to change the text that says the version in Settings xD (It says V8 but it is V9)</tspan><tspan x="0" dy="46.15px"> </tspan><tspan x="0" dy="46.15px">V8 17/04/2025: </tspan><tspan x="0" dy="46.15px">Essence Button in the Barn</tspan><tspan x="0" dy="46.15px">Added Stones (Also a Stone Muraya)</tspan><tspan x="0" dy="46.15px">Improvements with the Colitions and Physics System Redone (for this there will be many bugs I know xd, if something happens Comment and I fix </tspan><tspan x="0" dy="46.15px">it for example</tspan><tspan x="0" dy="46.15px">what no longer pauses the bowl in the Pause menu and with the Time Apple and some secret codes no longer work xd)</tspan><tspan x="0" dy="46.15px">Bug Fix</tspan><tspan x="0" dy="46.15px">A New Apple Inside the Code (For April 1st)</tspan><tspan x="0" dy="46.15px"> </tspan><tspan x="0" dy="46.15px">V7 22/03/2025:</tspan><tspan x="0" dy="46.15px">Bugfix</tspan><tspan x="0" dy="46.15px">Added Regenerate life (0.1) every second</tspan><tspan x="0" dy="46.15px">Added a Rainbow that appears after rain and changes to sunny that recovers (0. 5) of life every 5 milliseconds approx</tspan><tspan x="0" dy="46.15px">Decreased the life that gives you the Radio now is (1) before was (5)</tspan><tspan x="0" dy="46.15px">V6 21/02/2025:</tspan><tspan x="0" dy="46.15px">modified some things in the music</tspan><tspan x="0" dy="46.15px">Removed the Tornado Because it gives much lagg (still remains in the code but no longer appears)</tspan><tspan x="0" dy="46.15px">Added Double Jump at the start and using the Apple Rabbit</tspan><tspan x="0" dy="46.15px">bug fix</tspan><tspan x="0" dy="46.15px">the radio gives you life to touch it</tspan><tspan x="0" dy="46.15px"> </tspan><tspan x="0" dy="46.15px">V5 7/03/2025:</tspan><tspan x="0" dy="46.15px">Added Tornadoes</tspan><tspan x="0" dy="46.15px">Feature to Switch Music between ATPLM 1, ATPLM 2 and Future ATPLM 3</tspan><tspan x="0" dy="46.15px">Added Nublina</tspan><tspan x="0" dy="46.15px">Bug Fix</tspan><tspan x="0" dy="46.15px">More Lagg Added :P</tspan><tspan x="0" dy="46.15px"> </tspan></text><path d="M87.7609,286.78238h139.38898" fill="none" stroke="#ff0000" stroke-width="2" stroke-linecap="round"/></g></g></svg>