<svg version="1.1" xmlns="http://www.w3.org/2000/svg" xmlns:xlink="http://www.w3.org/1999/xlink" width="714.0908" height="96.61394" viewBox="0,0,714.0908,96.61394"><defs><linearGradient x1="43.69535" y1="311.15671" x2="43.69535" y2="336.71573" gradientUnits="userSpaceOnUse" id="color-1"><stop offset="0" stop-color="#ca6e00"/><stop offset="1" stop-color="#000000"/></linearGradient><linearGradient x1="180.69535" y1="306.03922" x2="180.69535" y2="331.59824" gradientUnits="userSpaceOnUse" id="color-2"><stop offset="0" stop-color="#ca6e00"/><stop offset="1" stop-color="#000000"/></linearGradient><linearGradient x1="139.69535" y1="310.1332" x2="139.69535" y2="335.69224" gradientUnits="userSpaceOnUse" id="color-3"><stop offset="0" stop-color="#ca6e00"/><stop offset="1" stop-color="#000000"/></linearGradient><linearGradient x1="93.69535" y1="317.04182" x2="93.69535" y2="342.60083" gradientUnits="userSpaceOnUse" id="color-4"><stop offset="0" stop-color="#ca6e00"/><stop offset="1" stop-color="#000000"/></linearGradient><linearGradient x1="236.69535" y1="312.43607" x2="236.69535" y2="337.99511" gradientUnits="userSpaceOnUse" id="color-5"><stop offset="0" stop-color="#ca6e00"/><stop offset="1" stop-color="#000000"/></linearGradient><linearGradient x1="512.57444" y1="312.43607" x2="512.57444" y2="337.99511" gradientUnits="userSpaceOnUse" id="color-6"><stop offset="0" stop-color="#ca6e00"/><stop offset="1" stop-color="#000000"/></linearGradient><linearGradient x1="375.57444" y1="307.31859" x2="375.57444" y2="332.87762" gradientUnits="userSpaceOnUse" id="color-7"><stop offset="0" stop-color="#ca6e00"/><stop offset="1" stop-color="#000000"/></linearGradient><linearGradient x1="416.57444" y1="311.41256" x2="416.57444" y2="336.97161" gradientUnits="userSpaceOnUse" id="color-8"><stop offset="0" stop-color="#ca6e00"/><stop offset="1" stop-color="#000000"/></linearGradient><linearGradient x1="462.57444" y1="318.32119" x2="462.57444" y2="343.88023" gradientUnits="userSpaceOnUse" id="color-9"><stop offset="0" stop-color="#ca6e00"/><stop offset="1" stop-color="#000000"/></linearGradient><linearGradient x1="319.57444" y1="313.71545" x2="319.57444" y2="339.27449" gradientUnits="userSpaceOnUse" id="color-10"><stop offset="0" stop-color="#ca6e00"/><stop offset="1" stop-color="#000000"/></linearGradient><linearGradient x1="-36.57656" y1="311.53632" x2="-36.57656" y2="337.09536" gradientUnits="userSpaceOnUse" id="color-11"><stop offset="0" stop-color="#ca6e00"/><stop offset="1" stop-color="#000000"/></linearGradient><linearGradient x1="100.42344" y1="306.41882" x2="100.42344" y2="331.97785" gradientUnits="userSpaceOnUse" id="color-12"><stop offset="0" stop-color="#ca6e00"/><stop offset="1" stop-color="#000000"/></linearGradient><linearGradient x1="59.42344" y1="310.51282" x2="59.42344" y2="336.07186" gradientUnits="userSpaceOnUse" id="color-13"><stop offset="0" stop-color="#ca6e00"/><stop offset="1" stop-color="#000000"/></linearGradient><linearGradient x1="13.42344" y1="317.42143" x2="13.42344" y2="342.98047" gradientUnits="userSpaceOnUse" id="color-14"><stop offset="0" stop-color="#ca6e00"/><stop offset="1" stop-color="#000000"/></linearGradient><linearGradient x1="156.42344" y1="312.8157" x2="156.42344" y2="338.37473" gradientUnits="userSpaceOnUse" id="color-15"><stop offset="0" stop-color="#ca6e00"/><stop offset="1" stop-color="#000000"/></linearGradient><linearGradient x1="432.30253" y1="312.8157" x2="432.30253" y2="338.37473" gradientUnits="userSpaceOnUse" id="color-16"><stop offset="0" stop-color="#ca6e00"/><stop offset="1" stop-color="#000000"/></linearGradient><linearGradient x1="295.30253" y1="307.6982" x2="295.30253" y2="333.25723" gradientUnits="userSpaceOnUse" id="color-17"><stop offset="0" stop-color="#ca6e00"/><stop offset="1" stop-color="#000000"/></linearGradient><linearGradient x1="336.30253" y1="311.7922" x2="336.30253" y2="337.35124" gradientUnits="userSpaceOnUse" id="color-18"><stop offset="0" stop-color="#ca6e00"/><stop offset="1" stop-color="#000000"/></linearGradient><linearGradient x1="382.30253" y1="318.70081" x2="382.30253" y2="344.25985" gradientUnits="userSpaceOnUse" id="color-19"><stop offset="0" stop-color="#ca6e00"/><stop offset="1" stop-color="#000000"/></linearGradient><linearGradient x1="239.30253" y1="314.09506" x2="239.30253" y2="339.65411" gradientUnits="userSpaceOnUse" id="color-20"><stop offset="0" stop-color="#ca6e00"/><stop offset="1" stop-color="#000000"/></linearGradient><linearGradient x1="323.57656" y1="315.51495" x2="323.57656" y2="341.07397" gradientUnits="userSpaceOnUse" id="color-21"><stop offset="0" stop-color="#ca6e00"/><stop offset="1" stop-color="#000000"/></linearGradient><linearGradient x1="460.57656" y1="310.39745" x2="460.57656" y2="335.95649" gradientUnits="userSpaceOnUse" id="color-22"><stop offset="0" stop-color="#ca6e00"/><stop offset="1" stop-color="#000000"/></linearGradient><linearGradient x1="419.57656" y1="314.49145" x2="419.57656" y2="340.05048" gradientUnits="userSpaceOnUse" id="color-23"><stop offset="0" stop-color="#ca6e00"/><stop offset="1" stop-color="#000000"/></linearGradient><linearGradient x1="373.57656" y1="321.40007" x2="373.57656" y2="346.95908" gradientUnits="userSpaceOnUse" id="color-24"><stop offset="0" stop-color="#ca6e00"/><stop offset="1" stop-color="#000000"/></linearGradient><linearGradient x1="516.57656" y1="316.79432" x2="516.57656" y2="342.35335" gradientUnits="userSpaceOnUse" id="color-25"><stop offset="0" stop-color="#ca6e00"/><stop offset="1" stop-color="#000000"/></linearGradient><linearGradient x1="242.94629" y1="321.53718" x2="242.94629" y2="364.49137" gradientUnits="userSpaceOnUse" id="color-26"><stop offset="0" stop-color="#ca6e00"/><stop offset="1" stop-color="#000000"/></linearGradient></defs><g transform="translate(111.80371,-306.03922)"><g stroke-width="0" stroke-miterlimit="10"><g stroke="none"><path d="M87.19535,323.9362c0,7.05793 -19.47562,12.77952 -43.5,12.77952c-24.02438,0 -43.5,-5.72158 -43.5,-12.77951c0,-7.05793 19.47562,-12.77951 43.5,-12.77951c24.02439,0 43.5,5.72158 43.5,12.77952z" fill="url(#color-1)"/><path d="M224.19535,318.81872c0,7.05793 -19.47562,12.77952 -43.5,12.77952c-24.02438,0 -43.5,-5.72158 -43.5,-12.77951c0,-7.05793 19.47562,-12.77951 43.5,-12.77951c24.02438,0 43.5,5.72158 43.5,12.77952z" fill="url(#color-2)"/><path d="M183.19535,322.9127c0,7.05793 -19.47562,12.77951 -43.5,12.77951c-24.02438,0 -43.5,-5.72158 -43.5,-12.77951c0,-7.05793 19.47562,-12.77951 43.5,-12.77951c24.02438,0 43.5,5.72158 43.5,12.77952z" fill="url(#color-3)"/><path d="M137.19535,329.82133c0,7.05793 -19.47562,12.77952 -43.5,12.77952c-24.02438,0 -43.5,-5.72158 -43.5,-12.77951c0,-7.05793 19.47562,-12.77951 43.5,-12.77951c24.02438,0 43.5,5.72158 43.5,12.77952z" fill="url(#color-4)"/><path d="M280.19535,325.21558c0,7.05793 -19.47562,12.77952 -43.5,12.77952c-24.02438,0 -43.5,-5.72158 -43.5,-12.77951c0,-7.05793 19.47562,-12.77951 43.5,-12.77951c24.02438,0 43.5,5.72158 43.5,12.77952z" fill="url(#color-5)"/></g><g stroke="none"><path d="M512.57444,312.43607c24.02438,0 43.5,5.72158 43.5,12.77952c0,7.05793 -19.47562,12.77952 -43.5,12.77952c-24.02438,0 -43.5,-5.72158 -43.5,-12.77951c0,-7.05793 19.47562,-12.77951 43.5,-12.77951z" fill="url(#color-6)"/><path d="M375.57444,307.31859c24.02438,0 43.5,5.72158 43.5,12.77952c0,7.05793 -19.47562,12.77952 -43.5,12.77952c-24.02438,0 -43.5,-5.72158 -43.5,-12.77951c0,-7.05793 19.47562,-12.77951 43.5,-12.77951z" fill="url(#color-7)"/><path d="M416.57444,311.41256c24.02438,0 43.5,5.72158 43.5,12.77952c0,7.05793 -19.47562,12.77952 -43.5,12.77952c-24.02438,0 -43.5,-5.72158 -43.5,-12.77951c0,-7.05793 19.47562,-12.77951 43.5,-12.77951z" fill="url(#color-8)"/><path d="M462.57444,318.32119c24.02438,0 43.5,5.72158 43.5,12.77952c0,7.05793 -19.47562,12.77952 -43.5,12.77952c-24.02438,0 -43.5,-5.72158 -43.5,-12.77951c0,-7.05793 19.47562,-12.77951 43.5,-12.77951z" fill="url(#color-9)"/><path d="M319.57444,313.71545c24.02438,0 43.5,5.72158 43.5,12.77952c0,7.05793 -19.47562,12.77952 -43.5,12.77952c-24.02438,0 -43.5,-5.72159 -43.5,-12.77952c0,-7.05793 19.47562,-12.77951 43.5,-12.77951z" fill="url(#color-10)"/></g><g stroke="none"><path d="M6.92344,324.31584c0,7.05793 -19.47562,12.77951 -43.5,12.77951c-24.02438,0 -43.5,-5.72158 -43.5,-12.77951c0,-7.05793 19.47562,-12.77951 43.5,-12.77951c24.02439,0 43.5,5.72158 43.5,12.77952z" fill="url(#color-11)"/><path d="M143.92344,319.19834c0,7.05793 -19.47562,12.77951 -43.5,12.77951c-24.02438,0 -43.5,-5.72158 -43.5,-12.77951c0,-7.05793 19.47562,-12.77951 43.5,-12.77951c24.02438,0 43.5,5.72158 43.5,12.77952z" fill="url(#color-12)"/><path d="M102.92344,323.29233c0,7.05793 -19.47562,12.77952 -43.5,12.77952c-24.02438,0 -43.5,-5.72158 -43.5,-12.77951c0,-7.05793 19.47562,-12.77952 43.5,-12.77952c24.02438,0 43.5,5.72158 43.5,12.77952z" fill="url(#color-13)"/><path d="M56.92344,330.20095c0,7.05793 -19.47562,12.77951 -43.5,12.77951c-24.02438,0 -43.5,-5.72158 -43.5,-12.77951c0,-7.05793 19.47562,-12.77951 43.5,-12.77951c24.02438,0 43.5,5.72158 43.5,12.77952z" fill="url(#color-14)"/><path d="M199.92344,325.5952c0,7.05793 -19.47562,12.77952 -43.5,12.77952c-24.02438,0 -43.5,-5.72158 -43.5,-12.77951c0,-7.05793 19.47562,-12.77951 43.5,-12.77951c24.02438,0 43.5,5.72158 43.5,12.77952z" fill="url(#color-15)"/></g><g stroke="none"><path d="M432.30253,312.8157c24.02438,0 43.5,5.72158 43.5,12.77952c0,7.05793 -19.47562,12.77952 -43.5,12.77952c-24.02438,0 -43.5,-5.72158 -43.5,-12.77951c0,-7.05793 19.47562,-12.77951 43.5,-12.77951z" fill="url(#color-16)"/><path d="M295.30253,307.6982c24.02438,0 43.5,5.72158 43.5,12.77952c0,7.05793 -19.47562,12.77952 -43.5,12.77952c-24.02438,0 -43.5,-5.72158 -43.5,-12.77951c0,-7.05793 19.47562,-12.77951 43.5,-12.77951z" fill="url(#color-17)"/><path d="M336.30253,311.7922c24.02438,0 43.5,5.72158 43.5,12.77952c0,7.05793 -19.47562,12.77952 -43.5,12.77952c-24.02438,0 -43.5,-5.72158 -43.5,-12.77951c0,-7.05793 19.47562,-12.77951 43.5,-12.77951z" fill="url(#color-18)"/><path d="M382.30253,318.70081c24.02438,0 43.5,5.72158 43.5,12.77952c0,7.05793 -19.47562,12.77952 -43.5,12.77952c-24.02438,0 -43.5,-5.72158 -43.5,-12.77951c0,-7.05793 19.47562,-12.77951 43.5,-12.77951z" fill="url(#color-19)"/><path d="M239.30253,314.09506c24.02438,0 43.5,5.72158 43.5,12.77952c0,7.05793 -19.47562,12.77952 -43.5,12.77952c-24.02438,0 -43.5,-5.72158 -43.5,-12.77951c0,-7.05793 19.47562,-12.77951 43.5,-12.77951z" fill="url(#color-20)"/></g><g stroke="none"><path d="M367.07656,328.29445c0,7.05793 -19.47562,12.77952 -43.5,12.77952c-24.02438,0 -43.5,-5.72158 -43.5,-12.77951c0,-7.05793 19.47562,-12.77951 43.5,-12.77951c24.02439,0 43.5,5.72158 43.5,12.77952z" fill="url(#color-21)"/><path d="M504.07656,323.17697c0,7.05793 -19.47562,12.77952 -43.5,12.77952c-24.02438,0 -43.5,-5.72158 -43.5,-12.77951c0,-7.05793 19.47562,-12.77951 43.5,-12.77951c24.02438,0 43.5,5.72158 43.5,12.77952z" fill="url(#color-22)"/><path d="M463.07656,327.27096c0,7.05793 -19.47562,12.77952 -43.5,12.77952c-24.02438,0 -43.5,-5.72158 -43.5,-12.77951c0,-7.05793 19.47562,-12.77951 43.5,-12.77951c24.02438,0 43.5,5.72158 43.5,12.77952z" fill="url(#color-23)"/><path d="M417.07656,334.17958c0,7.05793 -19.47562,12.77952 -43.5,12.77952c-24.02438,0 -43.5,-5.72158 -43.5,-12.77951c0,-7.05793 19.47562,-12.77951 43.5,-12.77951c24.02438,0 43.5,5.72158 43.5,12.77952z" fill="url(#color-24)"/><path d="M560.07656,329.57383c0,7.05793 -19.47562,12.77952 -43.5,12.77952c-24.02438,0 -43.5,-5.72158 -43.5,-12.77951c0,-7.05793 19.47562,-12.77951 43.5,-12.77951c24.02438,0 43.5,5.72158 43.5,12.77952z" fill="url(#color-25)"/></g><path d="M-111.80371,364.49137v-42.95418h709.5v42.95418z" fill="url(#color-26)" stroke="#000000"/><path d="M-107.21291,402.65316v-42.95418h709.5v42.95418z" fill="#000000" stroke="#000000"/></g></g></svg>