<svg version="1.1" xmlns="http://www.w3.org/2000/svg" xmlns:xlink="http://www.w3.org/1999/xlink" width="770.89367" height="770.89367" viewBox="0,0,770.89367,770.89367"><g transform="translate(148.44983,212.95432)"><g data-paper-data="{&quot;isPaintingLayer&quot;:true}" fill-rule="nonzero" stroke="none" stroke-width="1" stroke-linecap="butt" stroke-linejoin="miter" stroke-miterlimit="10" stroke-dasharray="" stroke-dashoffset="0" style="mix-blend-mode: normal"><g fill="#524e84"><path d="M236.99692,557.93918c-212.87603,0 -385.44675,-172.57039 -385.44675,-385.44675c0,-212.87603 172.57039,-385.44675 385.44692,-385.44675c212.87636,0 385.44675,172.57039 385.44675,385.44692c0,212.87603 -172.57039,385.44675 -385.44675,385.44675z"/><path d="M543.23198,142.37417c-100.36105,-100.36105 -200.71064,-200.71064 -301.0717,-301.0717c178.86656,2.74709 323.29081,147.16004 326.02693,326.02693z"/><path d="M391.29507,465.42227c-149.76334,-148.51688 -298.61153,-297.96054 -446.79727,-448.04406c45.85026,-86.25056 128.4602,-149.9841 227.14407,-169.73192l390.21281,390.21281c-19.82495,98.99291 -83.90061,181.81247 -170.55945,227.56333z"/><path d="M-45.97041,104.90848c127.04816,128.37192 254.86835,255.97151 383.06356,383.18491c-31.61858,10.02851 -65.15671,15.72102 -100.09607,15.72102c-182.98196,0 -331.32213,-148.34034 -331.32213,-331.32213c0,-35.10493 5.7477,-68.80848 15.86464,-100.55954c10.84474,10.97723 21.63445,22.00932 32.49017,32.97575z"/></g><g><g fill="#6863a8"><path d="M318.85628,374.05036c-0.27172,0 -0.54727,-0.11864 -0.73097,-0.34061c-0.03444,-0.0421 -3.59742,-4.28246 -8.01766,-10.93004c-2.25796,-3.31805 -4.78763,-7.34027 -7.30966,-11.61508c-2.73634,-4.61542 -5.31194,-9.22318 -7.64644,-13.68934c-2.434,-4.669 -4.74554,-9.40305 -6.88486,-14.08736c-2.00154,-4.33987 -3.86149,-8.71036 -5.37317,-12.64073c-2.93534,-7.41681 -4.37814,-12.76702 -4.38579,-12.8206c-0.11481,-0.43246 0.08037,-0.88405 0.47838,-1.09454c0.1416,-0.07654 0.29468,-0.10716 0.44394,-0.10716c0.27172,0 0.54344,0.11864 0.72714,0.34061c0.03827,0.0421 3.6089,4.27098 8.02914,10.92239c2.31154,3.40224 4.84504,7.42064 7.30966,11.61508c2.63683,4.4432 5.20861,9.05096 7.63878,13.697c2.30388,4.39728 4.61924,9.14281 6.88486,14.09501c2.05895,4.48912 3.91507,8.85578 5.36552,12.63308c2.93534,7.41681 4.38197,12.7632 4.39345,12.8206c0.11481,0.42863 -0.08037,0.88405 -0.47838,1.09454c-0.13777,0.07271 -0.29086,0.10716 -0.44394,0.10716z" opacity="0.25"/><path d="M279.43005,297.68166c0,0 1.40453,5.26219 4.35901,12.7211c1.4428,3.74285 3.25682,8.04828 5.35021,12.58715c2.07043,4.53888 4.4011,9.32268 6.86189,14.0376c2.46462,4.71492 5.07466,9.34947 7.62348,13.64725c2.5335,4.29777 5.02108,8.25111 7.27904,11.56916c4.43937,6.68202 7.9526,10.84585 7.9526,10.84585c0,0 -1.41601,-5.26219 -4.36666,-12.7211c-1.43897,-3.7505 -3.26447,-8.04828 -5.34256,-12.5795c-2.07809,-4.54653 -4.39345,-9.33799 -6.86189,-14.04526c-2.46462,-4.71492 -5.06701,-9.36478 -7.61582,-13.6549c-2.52585,-4.29777 -5.02108,-8.25111 -7.27904,-11.56916c-4.43937,-6.68202 -7.96026,-10.83819 -7.96026,-10.83819M279.43005,295.76814c0.54727,0 1.08688,0.23728 1.46193,0.67356c0.14543,0.17222 3.64335,4.31691 8.07889,10.99893c2.33067,3.42903 4.87183,7.46274 7.3441,11.66866c2.64832,4.46234 5.22774,9.08923 7.6694,13.74675c2.31154,4.41641 4.63455,9.1696 6.90399,14.13711c2.07043,4.50826 3.9342,8.89788 5.38465,12.67518c2.95831,7.47422 4.37431,12.70962 4.43172,12.92776c0.23728,0.86491 -0.16456,1.77958 -0.96059,2.1929c-0.27937,0.14543 -0.58171,0.21814 -0.88405,0.21814c-0.55109,0 -1.08688,-0.23728 -1.46193,-0.68121c-0.14543,-0.17222 -3.63569,-4.32456 -8.07124,-11.00276c-2.27709,-3.34484 -4.81825,-7.38237 -7.3441,-11.67249c-2.75165,-4.63455 -5.33107,-9.2538 -7.67705,-13.73909c-2.44166,-4.67665 -4.76084,-9.42984 -6.90399,-14.1218c-2.0092,-4.35901 -3.8768,-8.75245 -5.39231,-12.68283c-2.95831,-7.47422 -4.36666,-12.70962 -4.42789,-12.93159c-0.22962,-0.86109 0.16839,-1.77575 0.96442,-2.18907c0.27937,-0.14543 0.58171,-0.21814 0.88405,-0.21814z" opacity="0.25"/></g><g fill="#6863a8"><path d="M393.47219,308.67676c-0.13395,0 -0.26407,-0.02679 -0.39419,-0.0842c-0.05358,-0.02296 -5.10145,-2.31154 -11.95186,-6.40265c-3.52088,-2.05512 -7.53928,-4.59628 -11.60743,-7.34027c-4.4432,-2.96979 -8.74863,-6.01229 -12.79381,-9.04714c-4.16383,-3.11904 -8.30086,-6.39882 -12.28864,-9.74366c-3.68545,-3.05781 -7.24842,-6.19981 -10.29858,-9.08158c-5.84007,-5.43441 -9.44515,-9.64033 -9.48342,-9.6786c-0.28703,-0.34061 -0.30616,-0.83812 -0.03827,-1.19787c0.18753,-0.24493 0.47073,-0.3827 0.76541,-0.3827c0.13012,0 0.26407,0.02679 0.39419,0.0842c0.04975,0.02296 5.10145,2.30388 11.95186,6.39499c3.64335,2.13166 7.66175,4.66517 11.59978,7.33262c4.23654,2.82436 8.54197,5.87452 12.79764,9.06244c4.0758,3.06164 8.20901,6.33759 12.27716,9.75131c3.74668,3.11139 7.30966,6.25339 10.29858,9.08158c5.84773,5.42675 9.46046,9.62885 9.4949,9.67094c0.28703,0.34061 0.30616,0.83812 0.03827,1.19787c-0.1837,0.24876 -0.4669,0.3827 -0.76158,0.3827z" opacity="0.25"/><path d="M325.38522,256.67486c0,0 3.53236,4.14086 9.41453,9.60588c2.92386,2.75547 6.41413,5.85155 10.25648,9.04331c3.82705,3.20706 7.99087,6.51746 12.25037,9.70922c4.25185,3.19176 8.6032,6.24574 12.75172,9.02035c4.14469,2.79374 8.0942,5.28515 11.56151,7.30966c6.88486,4.11025 11.85619,6.3529 11.85619,6.3529c0,0 -3.54384,-4.14086 -9.42601,-9.59823c-2.91621,-2.75547 -6.41413,-5.85155 -10.25648,-9.04331c-3.82705,-3.20706 -7.98322,-6.52511 -12.23507,-9.71687c-4.2595,-3.19176 -8.6032,-6.26105 -12.75937,-9.03566c-4.13704,-2.79374 -8.09037,-5.2775 -11.55768,-7.302c-6.88486,-4.11025 -11.85619,-6.34524 -11.85619,-6.34524M325.38522,254.76134c0.26407,0 0.52813,0.05741 0.78837,0.16839c0.20666,0.09568 5.1512,2.33067 12.03606,6.44092c3.67014,2.14315 7.70384,4.69196 11.65335,7.36324c4.25567,2.83967 8.57641,5.9013 12.84357,9.09689c4.09494,3.07312 8.2358,6.36055 12.31161,9.7781c3.76581,3.13052 7.3441,6.28401 10.33302,9.11602c5.89748,5.46885 9.43367,9.58292 9.5791,9.75514c0.58554,0.68121 0.61615,1.67242 0.08037,2.3919c-0.37122,0.49369 -0.94528,0.76541 -1.53082,0.76541c-0.26407,0 -0.53579,-0.05741 -0.78837,-0.16839c-0.20666,-0.09568 -5.1512,-2.33832 -12.03223,-6.44857c-3.54767,-2.07043 -7.58138,-4.61924 -11.66484,-7.37089c-4.46234,-2.98127 -8.77924,-6.03908 -12.83591,-9.08158c-4.17913,-3.13435 -8.32765,-6.42178 -12.32691,-9.77045c-3.70075,-3.07694 -7.27521,-6.23043 -10.33685,-9.11602c-5.886,-5.4765 -9.41453,-9.59058 -9.55996,-9.76662c-0.58554,-0.68121 -0.61615,-1.66859 -0.08037,-2.38808c0.37122,-0.49369 0.94528,-0.76541 1.53082,-0.76541z" opacity="0.25"/></g><g fill="#6863a8"><path d="M430.84712,241.28631c-2.434,0 -6.34907,-0.08037 -11.18645,-0.45925c-4.06432,-0.27937 -8.7869,-0.76924 -13.6549,-1.41601c-5.32725,-0.6927 -10.53586,-1.51168 -15.48423,-2.43017c-5.05553,-0.9338 -10.21821,-2.03216 -15.34263,-3.2683c-4.74936,-1.12898 -9.33416,-2.36129 -13.25689,-3.56681c-7.64644,-2.26944 -12.75172,-4.43555 -12.8053,-4.45851c-0.40949,-0.17604 -0.64294,-0.61233 -0.56258,-1.05244c0.08037,-0.43628 0.45925,-0.76158 0.90318,-0.78072c0,0 0.87639,-0.03444 2.434,-0.03444c2.42252,0 6.31845,0.08037 11.12522,0.45542c4.17913,0.29086 8.90171,0.78072 13.6549,1.41601c5.12059,0.66208 10.33302,1.48107 15.48423,2.434c4.98664,0.92615 10.1455,2.03216 15.33497,3.28361c4.72257,1.12132 9.3112,2.35363 13.25689,3.56681c7.64644,2.26944 12.75172,4.42406 12.80147,4.4432c0.40949,0.17604 0.64677,0.61233 0.5664,1.05244c-0.08037,0.44011 -0.45925,0.76541 -0.90701,0.78454c0,0 -0.84195,0.03062 -2.36129,0.03062z" opacity="0.25"/><path d="M351.89134,224.77261c-1.53465,0 -2.3919,0.03062 -2.3919,0.03062c0,0 5.01343,2.13932 12.70579,4.42024c3.84235,1.18256 8.34679,2.39956 13.19948,3.5515c4.85652,1.1749 10.0613,2.29623 15.29288,3.26064c5.22392,0.97207 10.48611,1.77958 15.43448,2.42252c4.94837,0.65825 9.59823,1.13663 13.60515,1.41218c4.86035,0.37888 8.7869,0.45542 11.10991,0.45542c1.49255,0 2.32684,-0.03062 2.32684,-0.03062c0,0 -5.01343,-2.12784 -12.70579,-4.40876c-3.84235,-1.18256 -8.33913,-2.39956 -13.19948,-3.5515c-4.85652,-1.17108 -10.05365,-2.30005 -15.28522,-3.27212c-5.23157,-0.96824 -10.48611,-1.78723 -15.43448,-2.42635c-4.94837,-0.66208 -9.59823,-1.13281 -13.60515,-1.41218c-4.82208,-0.37505 -8.71801,-0.45159 -11.05251,-0.45159M351.89134,222.85909c2.44166,0 6.36055,0.0842 11.18645,0.45542c4.20592,0.29468 8.95146,0.78837 13.71613,1.42366c5.14355,0.66591 10.37129,1.48872 15.53781,2.44548c5.00578,0.92615 10.18377,2.03599 15.3809,3.29126c4.75319,1.12515 9.35713,2.36511 13.30281,3.57829c7.7115,2.28475 12.70196,4.39728 12.91245,4.4853c0.82664,0.34826 1.29737,1.22848 1.13281,2.1087c-0.16074,0.88022 -0.91466,1.53082 -1.81019,1.56526c0,0 -0.86109,0.03062 -2.39956,0.03062c-2.45314,0 -6.39117,-0.07654 -11.24386,-0.45925c-4.09111,-0.2832 -8.84048,-0.77689 -13.71996,-1.42366c-5.34638,-0.69652 -10.57413,-1.51934 -15.53781,-2.43783c-5.07849,-0.93763 -10.25648,-2.03982 -15.38855,-3.27978c-4.77233,-1.13281 -9.38392,-2.37277 -13.30281,-3.57829c-7.7115,-2.28475 -12.70579,-4.40876 -12.91628,-4.49678c-0.82281,-0.35209 -1.29354,-1.22848 -1.12898,-2.1087c0.16074,-0.88022 0.91466,-1.53082 1.81019,-1.56526c0,0 0.88405,-0.03444 2.46844,-0.03444z" opacity="0.25"/></g><g fill="#6863a8"><path d="M201.49227,63.91422c-0.2832,0 -0.55875,-0.12247 -0.74245,-0.35592l0.7501,-0.59702l-0.77306,0.5664c-0.86874,-1.07923 -3.99161,-5.05553 -7.811,-11.01424c-2.26561,-3.452 -4.7264,-7.51632 -7.11448,-11.73755c-2.52585,-4.40493 -5.02108,-9.05479 -7.41299,-13.81181c-2.26561,-4.51591 -4.50443,-9.29589 -6.64375,-14.20217c-1.94797,-4.42406 -3.7352,-8.82517 -5.16651,-12.72493c-2.80905,-7.46274 -4.12938,-12.67518 -4.18296,-12.88949c-0.10716,-0.43628 0.10333,-0.88787 0.50517,-1.09071c0.13395,-0.06889 0.27937,-0.0995 0.42098,-0.0995c0.28703,0 0.5664,0.13012 0.75393,0.36357c0.63529,0.7922 3.89593,4.92158 7.82631,11.04868c2.23117,3.40607 4.69196,7.46657 7.11448,11.73372c2.65597,4.64986 5.1512,9.29972 7.41681,13.81564c2.34981,4.67665 4.58863,9.45663 6.65523,14.19834c1.95179,4.42789 3.73902,8.82517 5.16651,12.71727c2.67893,7.11448 4.02605,12.30778 4.16765,12.87801c0.11098,0.43628 -0.09568,0.89553 -0.50134,1.09836c-0.13395,0.06889 -0.27937,0.10333 -0.42863,0.10333z" opacity="0.25"/><path d="M163.32514,-13.0936v0v0M163.32514,-13.0936c0.00383,0.01148 1.33181,5.29663 4.15234,12.79381c1.38156,3.76964 3.13052,8.10186 5.14355,12.67135c1.99772,4.57332 4.23654,9.40305 6.62462,14.15624c2.38808,4.75319 4.90627,9.44132 7.39003,13.77354c2.45696,4.34752 4.88331,8.33531 7.08769,11.69545c4.32073,6.73943 7.77273,10.95301 7.78038,10.96831c-0.00383,-0.01531 -1.32033,-5.30046 -4.14469,-12.79764c-1.38156,-3.76964 -3.13052,-8.10186 -5.14355,-12.66752c-1.99389,-4.57715 -4.24419,-9.39922 -6.63227,-14.15242c-2.38425,-4.75702 -4.91775,-9.43749 -7.39385,-13.77354c-2.46462,-4.33987 -4.88714,-8.33148 -7.08769,-11.69162c-4.32839,-6.74708 -7.77273,-10.96831 -7.77656,-10.97597M201.50375,62.96511v0v0v0M163.32514,-15.00712c0.59319,0 1.15959,0.27555 1.52316,0.76541v0c0.86874,1.08305 4.00692,5.08614 7.85693,11.08695c2.24648,3.42903 4.71875,7.50866 7.14892,11.79113c2.66362,4.669 5.17034,9.33034 7.43978,13.86156c2.35746,4.69579 4.60394,9.48725 6.67437,14.24044c1.96327,4.45085 3.75433,8.86727 5.18182,12.7632c2.70189,7.16423 4.0605,12.41111 4.18679,12.91628c0.2832,0.92615 -0.17604,1.91735 -1.06392,2.30771c-0.25259,0.10716 -0.51282,0.16074 -0.76924,0.16074c-0.58171,0 -1.15194,-0.27172 -1.51934,-0.75393v0c-0.87639,-1.09071 -4.02605,-5.10145 -7.86075,-11.08312c-2.28092,-3.48261 -4.75319,-7.56607 -7.14509,-11.79496c-2.53733,-4.42789 -5.04405,-9.09306 -7.43978,-13.86539c-2.27709,-4.53122 -4.51974,-9.32268 -6.66671,-14.24426c-1.95945,-4.44703 -3.7505,-8.86727 -5.18182,-12.76702c-2.83201,-7.51249 -4.16765,-12.78233 -4.22123,-13.0043c-0.23728,-0.95293 0.2832,-1.93266 1.20552,-2.26561c0.21431,-0.07654 0.43246,-0.11481 0.6506,-0.11481z" opacity="0.25"/></g><g fill="#ffffff"><path d="M154.84823,104.15561c-0.12629,0 -0.25641,-0.02679 -0.37888,-0.0842c-0.20283,-0.09568 -5.06701,-2.3919 -11.84853,-6.594c-3.5515,-2.15463 -7.52397,-4.76084 -11.47731,-7.52397c-4.26333,-2.95065 -8.519,-6.07352 -12.64073,-9.27676c-3.9763,-3.0846 -8.0521,-6.42944 -12.11643,-9.95032c-3.67779,-3.16114 -7.18719,-6.36438 -10.1455,-9.2538c-5.05553,-4.85269 -8.38123,-8.7027 -9.28441,-9.77045c-0.29086,-0.34443 -0.32147,-0.87257 -0.04592,-1.22848c0.19135,-0.24493 0.47455,-0.39036 0.76541,-0.39036c0.13012,0 0.26024,0.02679 0.38653,0.08802c0.53579,0.25641 5.35786,2.58708 11.83323,6.59783c3.48261,2.11636 7.45509,4.71875 11.48114,7.52397c4.40493,3.05398 8.6606,6.17302 12.64456,9.2691c4.11407,3.1841 8.18988,6.53277 12.12408,9.94266c3.68162,3.16497 7.18719,6.36438 10.14167,9.2538c5.05935,4.85652 8.38123,8.71036 9.28059,9.7781c0.29086,0.34443 0.32147,0.86874 0.04592,1.22465c-0.19135,0.24876 -0.47455,0.39419 -0.76541,0.39419z" opacity="0.25"/><path d="M87.64531,51.03621v0v0v0M87.64531,51.03621c0.01531,0.01148 3.48644,4.20592 9.25762,9.75131c2.87028,2.80905 6.31463,5.95871 10.1034,9.21553c3.77729,3.2683 7.87606,6.65523 12.07816,9.91588c4.2021,3.26447 8.49604,6.40265 12.60246,9.24614c4.09111,2.8588 8.00235,5.41144 11.43521,7.49718c6.80831,4.2174 11.73755,6.53277 11.75286,6.54042c-0.01148,-0.01148 -3.47878,-4.21358 -9.25762,-9.75897c-2.87028,-2.80905 -6.31463,-5.95871 -10.1034,-9.21553c-3.76964,-3.27212 -7.87606,-6.65141 -12.08198,-9.90822c-4.2021,-3.2683 -8.5037,-6.39882 -12.60629,-9.24232c-4.09494,-2.85498 -8.00618,-5.41144 -11.43521,-7.49336c-6.80066,-4.21358 -11.72607,-6.54042 -11.7452,-6.54808M154.87502,103.20267v0v0v0M87.65296,49.12651c0.27937,0 0.56258,0.06123 0.83047,0.1837c0.53196,0.25641 5.39613,2.60622 11.90211,6.6361c3.50557,2.13166 7.49718,4.74554 11.53089,7.55842c4.42024,3.06546 8.69122,6.19216 12.68666,9.29972c4.12556,3.19558 8.22049,6.5519 12.15852,9.96945c3.70075,3.17645 7.22546,6.39499 10.17994,9.28441c5.07466,4.87183 8.41567,8.74863 9.36861,9.87761c0.54344,0.61615 0.63912,1.53082 0.19901,2.25796c-0.35974,0.58554 -0.98738,0.91849 -1.63798,0.91849c-0.27172,0 -0.55109,-0.05741 -0.81133,-0.17987c-0.20666,-0.09568 -5.13207,-2.42635 -11.9289,-6.6361c-3.57829,-2.16993 -7.56607,-4.78763 -11.53089,-7.55842c-4.27864,-2.96213 -8.54962,-6.09648 -12.68666,-9.30738c-3.99161,-3.09608 -8.08272,-6.4524 -12.15087,-9.97711c-3.69693,-3.17645 -7.22164,-6.39117 -10.17994,-9.28441c-5.07849,-4.87566 -8.43098,-8.75245 -9.38009,-9.87378c-0.55109,-0.63146 -0.62764,-1.56143 -0.16456,-2.28857c0.35974,-0.5664 0.97972,-0.88022 1.61501,-0.88022z" opacity="0.25"/></g><g fill="#6863a8"><path d="M129.39072,135.62923c-1.74131,0 -6.46388,-0.06506 -12.679,-0.6506c-4.11025,-0.35209 -8.82517,-0.91849 -13.62811,-1.64563c-5.11676,-0.74627 -10.31389,-1.65711 -15.44596,-2.69424c-4.94072,-0.99886 -10.08044,-2.18524 -15.27757,-3.53236c-4.74171,-1.21317 -9.30738,-2.52202 -13.19948,-3.78495c-6.70881,-2.1087 -11.38929,-4.07963 -12.65987,-4.63073c-0.41332,-0.17987 -0.66973,-0.63529 -0.58554,-1.0754c0.0842,-0.44011 0.44011,-0.77306 0.8917,-0.78454l0.77689,-0.00383c1.74513,0 6.48684,0.06506 12.76702,0.66208c4.05284,0.34826 8.76776,0.91466 13.62811,1.64563c5.33107,0.78072 10.5282,1.6839 15.44596,2.68659c5.08997,1.02948 10.22969,2.21203 15.28139,3.52088c4.71109,1.20169 9.27676,2.51054 13.19948,3.78878c6.70881,2.11253 11.38546,4.08346 12.65987,4.63838c0.40949,0.17987 0.66973,0.63529 0.58171,1.07157c-0.0842,0.44011 -0.44011,0.77306 -0.88787,0.78454z" opacity="0.25"/><path d="M47.57996,117.78372c-0.48986,0 -0.7501,0.00383 -0.76158,0.00383c0.01531,0 4.98664,2.21969 12.62925,4.62307c3.82322,1.23996 8.30852,2.52968 13.1459,3.76581c4.83356,1.25144 10.01538,2.46844 15.22782,3.52088c5.20861,1.05626 10.45549,1.96327 15.39621,2.68659c4.93689,0.74627 9.57527,1.29737 13.57453,1.63798c6.13093,0.57788 10.76931,0.64677 12.59098,0.64677c0.54727,0 0.83812,-0.00383 0.84195,-0.00383c-0.01148,0 -4.98281,-2.22351 -12.62542,-4.6269c-3.81939,-1.24379 -8.30469,-2.53733 -13.14208,-3.76964c-4.82973,-1.25144 -10.01538,-2.45696 -15.22782,-3.5094c-5.20861,-1.06009 -10.45549,-1.95562 -15.39621,-2.67893c-4.93689,-0.74245 -9.57527,-1.29737 -13.57453,-1.63798c-6.23426,-0.59319 -10.92239,-0.65825 -12.679,-0.65825M46.82604,117.78754v0v0v0M130.23267,134.66482v0v0v0M47.57996,115.87019c1.76044,0 6.53659,0.06506 12.84357,0.66591c4.08346,0.34826 8.81751,0.91849 13.69317,1.64946c5.35021,0.78454 10.56647,1.69155 15.49954,2.69424c5.10911,1.02948 10.26414,2.21969 15.32349,3.53236c4.73406,1.20552 9.32268,2.52202 13.24158,3.80026c6.72795,2.12018 11.42756,4.09877 12.77851,4.6843c0.75393,0.30616 1.24762,1.0754 1.18256,1.91735c-0.07654,0.97972 -0.88405,1.74131 -1.8676,1.76427l-0.88405,0.00383c-1.75661,0 -6.51363,-0.06506 -12.75554,-0.65442c-4.14086,-0.35209 -8.87492,-0.92615 -13.68934,-1.64946c-5.1359,-0.75393 -10.35216,-1.66476 -15.49954,-2.70572c-4.95602,-0.99886 -10.11105,-2.1929 -15.31966,-3.54384c-4.7685,-1.217 -9.3533,-2.5335 -13.24541,-3.79643c-6.72412,-2.11636 -11.42756,-4.09111 -12.77851,-4.67665c-0.75393,-0.30616 -1.24762,-1.0754 -1.18256,-1.91735c0.07654,-0.9759 0.88022,-1.74131 1.86377,-1.76427l0.79603,-0.00383z" opacity="0.25"/></g><g fill="#6863a8"><path d="M161.14372,374.05036c-0.15308,0 -0.30234,-0.03444 -0.44394,-0.10716c-0.39801,-0.21049 -0.59702,-0.66591 -0.47838,-1.09454c0.01148,-0.05741 1.4581,-5.40379 4.39728,-12.82826c1.44662,-3.76581 3.30274,-8.1363 5.36552,-12.62925c2.26178,-4.94837 4.57715,-9.69008 6.88103,-14.09118c2.43017,-4.64603 5.00195,-9.2538 7.64261,-13.70082c2.46462,-4.19062 4.99429,-8.21284 7.31348,-11.61891c4.41258,-6.64375 7.98322,-10.87646 8.02149,-10.91856c0.18753,-0.22197 0.45542,-0.34061 0.73097,-0.34061c0.15308,0 0.30234,0.03444 0.44394,0.10716c0.39801,0.21049 0.59702,0.66208 0.48221,1.09454c-0.01531,0.05358 -1.45428,5.39996 -4.39345,12.82826c-1.51168,3.91889 -3.3678,8.29321 -5.37317,12.63691c-2.13549,4.68048 -4.45085,9.41453 -6.88103,14.0797c-2.33832,4.46999 -4.9101,9.07775 -7.65026,13.697c-2.5182,4.27098 -5.04787,8.29321 -7.31348,11.61891c-4.41258,6.63992 -7.97556,10.88412 -8.01383,10.92239c-0.18753,0.2258 -0.45925,0.34443 -0.73097,0.34443z" opacity="0.25"/><path d="M200.56995,297.68166c0,0 -3.52088,4.15617 -7.96026,10.83819c-2.25413,3.31805 -4.75319,7.27139 -7.27904,11.56916c-2.54881,4.29012 -5.14738,8.93998 -7.61582,13.6549c-2.46844,4.71109 -4.78381,9.49873 -6.86189,14.04526c-2.07426,4.5274 -3.89976,8.82899 -5.34256,12.5795c-2.95448,7.45891 -4.36666,12.7211 -4.36666,12.7211c0,0 3.51323,-4.16383 7.9526,-10.84585c2.25413,-3.31805 4.74554,-7.27139 7.27904,-11.56916c2.54881,-4.29777 5.15503,-8.93232 7.62348,-13.64725c2.46079,-4.71492 4.79146,-9.49873 6.86189,-14.0376c2.08957,-4.53505 3.90741,-8.84048 5.35021,-12.58715c2.95448,-7.45891 4.35901,-12.7211 4.35901,-12.7211M200.56995,295.76814c0.30234,0 0.60467,0.07271 0.88022,0.21814c0.7922,0.41332 1.19404,1.32416 0.96059,2.18907c-0.05741,0.22197 -1.46959,5.45737 -4.42024,12.91628c-1.51934,3.94568 -3.38694,8.33531 -5.39613,12.69431c-2.14315,4.69196 -4.46616,9.44515 -6.90782,14.12563c-2.34215,4.4853 -4.92541,9.10454 -7.6694,13.73527c-2.5335,4.29395 -5.07466,8.33148 -7.33645,11.65718c-4.44703,6.69733 -7.93729,10.84967 -8.08272,11.02189c-0.37122,0.44394 -0.91084,0.68121 -1.46193,0.68121c-0.29851,0 -0.60467,-0.07271 -0.88405,-0.21814c-0.7922,-0.41332 -1.19404,-1.32416 -0.96059,-2.1929c0.06123,-0.21814 1.47724,-5.45354 4.42789,-12.91245c1.46193,-3.7926 3.32188,-8.1784 5.39231,-12.68666c2.27327,-4.96368 4.59628,-9.7207 6.90782,-14.13328c2.43783,-4.66134 5.01726,-9.28824 7.66175,-13.73909c2.4761,-4.2174 5.01726,-8.25111 7.33645,-11.66101c4.45085,-6.70116 7.94495,-10.84585 8.0942,-11.01806c0.37122,-0.44011 0.91084,-0.67739 1.4581,-0.67739z" opacity="0.25"/></g><g fill="#6863a8"><path d="M86.52781,308.67676c-0.29468,0 -0.57788,-0.13395 -0.76541,-0.3827c-0.26789,-0.35974 -0.25259,-0.85726 0.03827,-1.19787c0.03444,-0.04592 3.64717,-4.24419 9.50255,-9.6786c2.98127,-2.82053 6.54425,-5.96636 10.29475,-9.07775c4.06815,-3.4099 8.19753,-6.68585 12.27334,-9.74749c4.25185,-3.18793 8.5611,-6.23808 12.80147,-9.06627c3.93803,-2.66362 7.9526,-5.19713 11.6036,-7.33262c6.84658,-4.08728 11.89446,-6.3682 11.94421,-6.39117c0.12629,-0.06123 0.26024,-0.0842 0.39419,-0.0842c0.29468,0 0.57788,0.13395 0.76541,0.3827c0.26789,0.35974 0.25259,0.85726 -0.03827,1.19787c-0.03444,0.0421 -3.63952,4.24419 -9.48725,9.68243c-3.05016,2.87794 -6.61314,6.01994 -10.29475,9.08158c-3.98778,3.34101 -8.12482,6.61696 -12.28864,9.73983c-4.04136,3.03485 -8.34679,6.07735 -12.79381,9.05096c-4.06815,2.74016 -8.08655,5.28132 -11.61508,7.34027c-6.84276,4.08728 -11.89446,6.37586 -11.94421,6.39882c-0.12247,0.05741 -0.25641,0.0842 -0.39036,0.0842z" opacity="0.25"/><path d="M154.61478,256.67486c0,0 -4.96751,2.23499 -11.85236,6.34524c-3.47113,2.02451 -7.42447,4.50826 -11.55768,7.302c-4.15617,2.77078 -8.49987,5.8439 -12.75937,9.03566c-4.25185,3.19176 -8.40802,6.5098 -12.23507,9.71687c-3.84235,3.19176 -7.34027,6.28401 -10.25648,9.04331c-5.88217,5.45737 -9.42601,9.59823 -9.42601,9.59823c0,0 4.97133,-2.24265 11.85619,-6.3529c3.4673,-2.02451 7.41299,-4.51591 11.56151,-7.30966c4.14852,-2.77078 8.49987,-5.82859 12.75172,-9.02035c4.2595,-3.19176 8.42333,-6.50215 12.25037,-9.70922c3.84235,-3.19176 7.33262,-6.28401 10.25648,-9.04331c5.87452,-5.46502 9.41071,-9.60588 9.41071,-9.60588M154.61478,254.76134c0.58937,0 1.16342,0.27172 1.53082,0.76541c0.53579,0.71566 0.50517,1.70686 -0.07654,2.38808c-0.14543,0.17604 -3.67396,4.29012 -9.55231,9.75514c-3.06929,2.89707 -6.64758,6.05056 -10.34068,9.11985c-4.00309,3.35632 -8.15543,6.64758 -12.33074,9.7781c-4.05667,3.0425 -8.3774,6.10031 -12.83208,9.07775c-4.08346,2.75547 -8.12099,5.30429 -11.64953,7.36706c-6.89634,4.12173 -11.84088,6.36438 -12.04754,6.45623c-0.25641,0.11098 -0.52431,0.16839 -0.78837,0.16839c-0.58554,0 -1.15959,-0.27172 -1.53082,-0.76541c-0.53961,-0.71566 -0.50517,-1.71069 0.07654,-2.3919c0.14925,-0.17222 3.68162,-4.28629 9.56379,-9.74366c3.00423,-2.8435 6.58252,-6.00081 10.34068,-9.11985c4.08346,-3.42521 8.22815,-6.71264 12.31926,-9.78576c4.27098,-3.19558 8.59172,-6.25722 12.83591,-9.08923c3.95717,-2.67893 7.99087,-5.22774 11.6457,-7.36324c6.90016,-4.12173 11.84471,-6.35672 12.05137,-6.44857c0.25259,-0.11098 0.52048,-0.16839 0.78454,-0.16839z" opacity="0.25"/></g><g fill="#6863a8"><path d="M49.15288,241.28631c-1.51551,0 -2.36511,-0.03062 -2.36511,-0.03062c-0.44776,-0.01914 -0.82281,-0.34443 -0.90318,-0.78454c-0.08037,-0.44011 0.15308,-0.87639 0.5664,-1.05244c0.04975,-0.01914 5.15503,-2.17376 12.80912,-4.4432c3.93803,-1.20935 8.52666,-2.44548 13.25306,-3.56681c5.18565,-1.25144 10.3445,-2.35746 15.33115,-3.28361c5.1512,-0.95293 10.36364,-1.77192 15.48805,-2.434c4.74936,-0.63529 9.47577,-1.12515 13.65873,-1.41601c4.79912,-0.37888 8.69505,-0.45542 11.11757,-0.45542c1.56143,0 2.43017,0.03444 2.43017,0.03444c0.44776,0.01914 0.82281,0.34443 0.90318,0.78072c0.08037,0.44011 -0.15308,0.87639 -0.56258,1.05244c-0.04975,0.02296 -5.15503,2.18907 -12.80912,4.45851c-3.91124,1.20169 -8.49987,2.43783 -13.25306,3.56681c-5.12059,1.23614 -10.28327,2.3345 -15.3388,3.2683c-4.94454,0.91849 -10.15698,1.73748 -15.48423,2.43017c-4.86418,0.64677 -9.59058,1.13663 -13.66255,1.41601c-4.82973,0.37888 -8.7448,0.45925 -11.1788,0.45925z" opacity="0.25"/><path d="M128.10866,224.77261c-2.3345,0 -6.23043,0.07654 -11.04868,0.45542c-4.00692,0.27937 -8.65678,0.7501 -13.60515,1.41218c-4.94837,0.63912 -10.2029,1.4581 -15.43448,2.42635c-5.23157,0.96824 -10.42487,2.09722 -15.28522,3.27212c-4.85652,1.15194 -9.35713,2.36894 -13.19948,3.5515c-7.68854,2.27709 -12.70579,4.40876 -12.70579,4.40876c0,0 0.8343,0.03062 2.32684,0.03062c2.32302,0 6.24574,-0.07271 11.10991,-0.45542c4.00692,-0.27555 8.65678,-0.75393 13.60515,-1.41218c4.94837,-0.64294 10.21056,-1.45045 15.43448,-2.42252c5.23157,-0.96442 10.43253,-2.08574 15.29288,-3.26064c4.84887,-1.15194 9.35713,-2.36894 13.19948,-3.5515c7.68854,-2.27709 12.70579,-4.42024 12.70579,-4.42024c0,0 -0.86109,-0.03444 -2.39573,-0.03444M128.10866,222.85909c1.58057,0 2.46844,0.03444 2.46462,0.03444c0.89553,0.03444 1.64563,0.68121 1.81019,1.56526c0.16456,0.88405 -0.30616,1.75661 -1.12898,2.1087c-0.21049,0.09185 -5.20861,2.21203 -12.89714,4.48912c-3.94186,1.217 -8.54579,2.45314 -13.31429,3.58594c-5.13972,1.23996 -10.32154,2.34215 -15.39238,3.27595c-4.96368,0.92615 -10.19142,1.74513 -15.53398,2.44166c-4.89096,0.64677 -9.6365,1.14046 -13.70848,1.41983c-4.868,0.3827 -8.80986,0.46307 -11.25917,0.46307c-1.53847,0 -2.39956,-0.03062 -2.39956,-0.03062c-0.89553,-0.03444 -1.64563,-0.68121 -1.81019,-1.56526c-0.16456,-0.88405 0.30616,-1.76044 1.13281,-2.1087c0.21049,-0.09185 5.20478,-2.20055 12.89332,-4.47764c3.96865,-1.22465 8.57258,-2.46079 13.31429,-3.58594c5.20478,-1.25527 10.38278,-2.36511 15.38855,-3.29126c5.16651,-0.95676 10.39808,-1.77958 15.53015,-2.44166c4.77233,-0.63912 9.51786,-1.13281 13.70848,-1.42366c4.83739,-0.37888 8.76393,-0.45925 11.20176,-0.45925z" opacity="0.25"/></g><g fill="#6863a8"><path d="M278.49625,63.92187c-0.14543,0 -0.29468,-0.03444 -0.43246,-0.10333c-0.39801,-0.20283 -0.60467,-0.65825 -0.49369,-1.09454l0.92615,0.2411l-0.92232,-0.24876c0.14543,-0.57023 1.49255,-5.76353 4.17531,-12.88949c1.41601,-3.88062 3.20324,-8.28173 5.16651,-12.71345c2.03982,-4.69196 4.27864,-9.46811 6.64758,-14.19451c2.25796,-4.50061 4.75319,-9.15047 7.41681,-13.81564c2.45314,-4.31308 4.91393,-8.37358 7.11831,-11.74138c3.93803,-6.13858 7.19485,-10.25648 7.80717,-11.01806c0.18753,-0.23728 0.47838,-0.3674 0.76924,-0.3674c0.1416,0 0.27937,0.03062 0.41332,0.09568c0.39801,0.19901 0.62381,0.63912 0.51282,1.0754c-0.01148,0.05358 -1.37008,5.42675 -4.18679,12.90097c-1.42366,3.88062 -3.21089,8.2779 -5.16651,12.71727c-2.12401,4.87183 -4.36283,9.65181 -6.63992,14.20217c-2.40338,4.77615 -4.89862,9.42601 -7.41681,13.81946c-2.3766,4.20975 -4.84121,8.27407 -7.11448,11.74138c-4.3016,6.70881 -7.80717,11.00658 -7.84162,11.04868c-0.18753,0.22197 -0.45925,0.34443 -0.73862,0.34443z" opacity="0.25"/><path d="M316.67486,-13.0936c0,0.00383 -3.44434,4.22123 -7.77656,10.97597c-2.20438,3.36015 -4.62307,7.35175 -7.09152,11.69162c-2.4761,4.33604 -5.0096,9.02035 -7.39385,13.77354c-2.38425,4.75319 -4.63455,9.57527 -6.62844,14.15242c-2.02068,4.56949 -3.76964,8.90171 -5.14355,12.66752c-2.82819,7.50866 -4.14469,12.79764 -4.14852,12.80147c0.00383,0 3.452,-4.22123 7.78038,-10.96831c2.20821,-3.36015 4.63455,-7.35175 7.08769,-11.69545c2.48758,-4.33222 5.00578,-9.02417 7.39385,-13.77354c2.38425,-4.75319 4.6269,-9.58292 6.62079,-14.15624c2.01303,-4.57332 3.76199,-8.90554 5.14355,-12.67135c2.82819,-7.50866 4.15617,-12.79764 4.15617,-12.79764M278.49625,62.96511v0v0v0M315.17466,-14.27998l1.50403,1.18256l1.85612,0.4669c-0.05741,0.22197 -1.38922,5.48416 -4.2174,12.99282c-1.43514,3.90741 -3.2262,8.32382 -5.18565,12.77468c-2.13166,4.89096 -4.37431,9.68625 -6.66671,14.25192c-2.40721,4.79529 -4.9101,9.46046 -7.43212,13.85391c-2.3919,4.23271 -4.86418,8.31617 -7.14127,11.7873c-4.37431,6.82362 -7.87606,11.10991 -7.9105,11.15201c-0.37505,0.45159 -0.91466,0.6927 -1.47341,0.6927c-0.29851,0 -0.59319,-0.06506 -0.87257,-0.20666c-0.79985,-0.40567 -1.20935,-1.3165 -0.98738,-2.18524c0.14543,-0.57406 1.50403,-5.81711 4.2021,-12.96986c1.42749,-3.91124 3.21855,-8.32765 5.18565,-12.77468c2.04747,-4.71109 4.29395,-9.50638 6.67054,-14.24809c2.26178,-4.51591 4.7685,-9.18108 7.43978,-13.86156c2.46079,-4.33222 4.93689,-8.41185 7.14127,-11.77965c3.97247,-6.18833 7.25608,-10.33685 7.88754,-11.12905z" opacity="0.25"/></g><g fill="#6863a8"><path d="M325.12498,104.16326c-0.29086,0 -0.57406,-0.13395 -0.76158,-0.37888c-0.27172,-0.35974 -0.25641,-0.86109 0.03444,-1.20169l0.72714,0.61998l-0.708,-0.64677c0.88787,-1.06009 4.19062,-4.89479 9.30355,-9.80106c2.96979,-2.90473 6.47536,-6.10414 10.13402,-9.24997c3.99161,-3.45582 8.07124,-6.80449 12.12408,-9.94266c3.97247,-3.08843 8.22432,-6.20747 12.64456,-9.2691c4.01457,-2.79757 7.98704,-5.40379 11.48496,-7.5278c6.7777,-4.19444 11.63422,-6.49832 11.84088,-6.594c0.13012,-0.06123 0.26789,-0.09185 0.40567,-0.09185c0.3253,0 0.63912,0.16456 0.81899,0.45925c0.25259,0.41715 0.14925,0.96059 -0.23728,1.2591c-1.0754,1.3012 -4.31691,5.0096 -9.18491,9.6786c-2.96979,2.90855 -6.47919,6.11179 -10.13784,9.24997c-4.07198,3.52471 -8.15161,6.87337 -12.11643,9.94649c-4.12173,3.19941 -8.37358,6.32228 -12.64456,9.28059c-3.99926,2.79374 -7.97174,5.39613 -11.48114,7.5278c-6.78153,4.19827 -11.79496,6.56338 -11.84471,6.58635c-0.13012,0.06506 -0.26789,0.09568 -0.40184,0.09568z" opacity="0.25"/><path d="M392.35852,51.03621v0v0v0M392.35852,51.03621c-0.02296,0.00765 -4.94454,2.3345 -11.74903,6.54808c-3.42903,2.08574 -7.34027,4.64221 -11.43521,7.49718c-4.10259,2.8435 -8.40037,5.97019 -12.60246,9.23849c-4.20592,3.26064 -8.31234,6.64375 -12.08581,9.91205c-3.7926,3.25299 -7.22929,6.40647 -10.09957,9.2117c-5.79032,5.55304 -9.25762,9.76279 -9.26145,9.76279c0,0 4.93306,-2.31536 11.75286,-6.54042c3.43286,-2.08574 7.3441,-4.64221 11.43139,-7.49718c4.11025,-2.84732 8.40037,-5.9855 12.60246,-9.24997c4.2021,-3.26064 8.30469,-6.64758 12.07816,-9.91588c3.7926,-3.25299 7.23312,-6.4103 10.1034,-9.21553c5.77884,-5.54156 9.24614,-9.736 9.26528,-9.75131M392.35852,49.12269c0.64294,0 1.27823,0.32913 1.63415,0.92615c0.45159,0.74245 0.33678,1.68007 -0.23728,2.29623h-0.00383c-1.17108,1.38539 -4.44703,5.12059 -9.33416,9.81255c-2.99275,2.92769 -6.53277,6.14624 -10.2029,9.29589c-4.09111,3.54002 -8.21284,6.89634 -12.18914,9.98094c-4.13321,3.21089 -8.4616,6.34524 -12.73641,9.30738c-4.0184,2.80522 -8.12099,5.4191 -11.63422,7.55459c-6.83893,4.23271 -11.97483,6.54808 -12.18149,6.64375l-1.27823,-1.73365v-0.01148l-0.96824,-1.25527c0.89553,-1.06775 4.6843,-4.93689 9.8202,-9.8623c2.98892,-2.92769 6.51363,-6.14241 10.18377,-9.29207c4.00692,-3.4673 8.09803,-6.82745 12.16618,-9.97328c3.98778,-3.10373 8.25494,-6.23043 12.679,-9.29972c4.03371,-2.80905 8.02532,-5.42675 11.52323,-7.55459c6.8351,-4.22889 11.73755,-6.55573 11.94421,-6.65141c0.26024,-0.12247 0.53961,-0.1837 0.81516,-0.1837z" opacity="0.25"/></g><g fill="#6863a8"><path d="M349.74819,135.62158c-0.45159,-0.00765 -0.8343,-0.33295 -0.91849,-0.77689c-0.08037,-0.44394 0.15308,-0.88787 0.5664,-1.06392c1.3165,-0.57023 5.99315,-2.54499 12.70962,-4.65751c3.86149,-1.26293 8.42715,-2.5756 13.19565,-3.78878c5.07084,-1.3165 10.21439,-2.49906 15.26991,-3.52088c4.97516,-1.01034 10.17229,-1.91352 15.44978,-2.69041c4.83739,-0.72331 9.55231,-1.28971 13.63576,-1.6418c6.29166,-0.59319 11.03337,-0.65825 12.77851,-0.65825l0.75776,0.00383c0.45159,0.00765 0.83047,0.33295 0.91466,0.77689c0.0842,0.44394 -0.14925,0.88787 -0.56258,1.06392c-1.3165,0.57023 -5.99315,2.54116 -12.71345,4.65369c-3.85766,1.25527 -8.4195,2.56029 -13.19183,3.78112c-5.22392,1.35477 -10.36364,2.54499 -15.27374,3.53619c-5.16268,1.04096 -10.35981,1.94797 -15.44978,2.69424c-4.77615,0.72331 -9.49107,1.28971 -13.63194,1.6418c-6.2266,0.58937 -10.95301,0.6506 -12.69431,0.6506z" opacity="0.25"/><path d="M432.43534,117.78372c-1.74513,0 -6.44092,0.06506 -12.69431,0.65442c-4.00309,0.34443 -8.63764,0.89936 -13.57836,1.63798c-4.93689,0.72331 -10.18377,1.62267 -15.39621,2.67893c-5.21244,1.04861 -10.39808,2.25796 -15.22782,3.5094c-4.83739,1.23231 -9.32651,2.52585 -13.1459,3.77347c-7.63878,2.40338 -12.61394,4.6269 -12.62925,4.6269c0.00383,0 0.28703,0.00383 0.82281,0.00383c1.80637,0 6.45623,-0.06506 12.61394,-0.64677c4.00309,-0.34061 8.63764,-0.8917 13.57453,-1.63798c4.94072,-0.71948 10.18377,-1.63032 15.39621,-2.68276c5.21244,-1.05244 10.39043,-2.27327 15.22782,-3.52471c4.83739,-1.23614 9.32268,-2.52585 13.14208,-3.76581c7.64261,-2.40338 12.61777,-4.62307 12.63308,-4.62307c-0.00383,0 -0.26024,-0.00383 -0.73862,-0.00383M433.17779,117.78754v0v0v0M349.76733,134.66482v0v0v0M432.43534,115.87019l0.78454,0.00765c0.97972,0.02296 1.7834,0.78072 1.86377,1.75661c0.06889,0.8496 -0.43246,1.62649 -1.19787,1.93266v0c-1.28589,0.55875 -6.00081,2.54499 -12.75172,4.66517c-3.88445,1.26293 -8.46925,2.5756 -13.25306,3.80026c-5.24305,1.3586 -10.40191,2.55264 -15.33115,3.54767c-5.17799,1.04478 -10.39426,1.95562 -15.48805,2.69807c-4.80677,0.72714 -9.54083,1.29737 -13.68169,1.64946c-6.27636,0.59319 -11.0372,0.65825 -12.79381,0.65825l-0.86491,-0.00383c-0.97972,-0.01914 -1.7834,-0.77689 -1.86377,-1.75279c-0.06889,-0.85343 0.43246,-1.63032 1.19787,-1.93649v0c1.28589,-0.55875 6.00081,-2.54881 12.74406,-4.669c3.89211,-1.27058 8.48073,-2.59091 13.25689,-3.80791c5.09763,-1.32033 10.25648,-2.50671 15.32732,-3.53236c4.99429,-1.01417 10.20673,-1.92118 15.49571,-2.69807c4.85652,-0.72714 9.59823,-1.3012 13.68169,-1.64946c6.33759,-0.60085 11.11374,-0.66591 12.87418,-0.66591z" opacity="0.25"/></g></g><g><g><path d="M158.74416,369.35074c-9.95415,0 -18.58413,-6.75474 -20.98752,-16.42185l-70.82331,-284.3916c-2.88177,-11.58447 4.19827,-23.35646 15.78274,-26.23823c1.72217,-0.42863 3.48261,-0.64294 5.24305,-0.64294c9.95415,0 18.58796,6.75091 20.99517,16.42185l70.81948,284.39543c1.39687,5.61045 0.52431,11.42756 -2.45696,16.38358c-2.98127,4.95602 -7.7115,8.45394 -13.31812,9.85082c-1.726,0.4248 -3.49409,0.64294 -5.25453,0.64294z" fill="#37e462"/><path d="M87.9553,45.47934c-1.42366,0 -2.87028,0.17222 -4.31691,0.52813c-9.55613,2.38042 -15.36942,12.04754 -12.99282,21.60367l70.81948,284.39925c2.01685,8.10568 9.28441,13.51713 17.27528,13.51713c1.42749,0 2.88177,-0.17222 4.32839,-0.53579c9.54848,-2.38042 15.36942,-12.04754 12.98899,-21.59985l-70.81948,-284.39543c-2.01685,-8.10568 -9.29207,-13.51713 -17.28294,-13.51713M87.9553,37.82525c11.71459,0 21.87539,7.94495 24.71123,19.31893l70.81566,284.39925c1.64563,6.60548 0.61998,13.45589 -2.88942,19.28448c-3.50557,5.82859 -9.07393,9.94649 -15.67558,11.58829c-2.02451,0.50517 -4.10259,0.76158 -6.17685,0.76158c-11.71076,0 -21.87157,-7.94495 -24.70358,-19.32275l-70.81948,-284.39543c-3.39076,-13.63194 4.94072,-27.48202 18.57265,-30.87661c2.02068,-0.50517 4.09494,-0.75776 6.16537,-0.75776z" fill="#524e84"/></g><g><path d="M179.41021,235.31229c-6.64375,0 -13.34108,-0.50134 -19.90447,-1.48489l-2.52968,-0.3827l-44.83001,-180.03572l5.66403,1.78723c6.19216,0.92997 12.50296,2.33832 18.76401,2.33832c0.00383,0 0.00765,0 0.01148,0c36.73581,0 68.97485,-16.44482 103.11209,-32.85902c33.8196,-16.26494 68.79498,-33.55554 108.22886,-33.55554c6.56338,0 13.18035,0.2411 19.67867,1.17108l2.54881,0.24876l44.82619,179.95535l-5.63341,-0.8343c-6.13858,-0.87639 -12.3958,-1.33947 -18.59562,-1.33947c-37.68492,0 -71.85278,16.42568 -104.90315,32.32323c-33.41394,16.06211 -67.95685,32.66766 -106.4378,32.66766z" fill="#37e462"/><path d="M347.92269,-5.5237c-76.7935,0 -135.81037,65.01385 -211.34095,65.01385c-6.32611,0 -12.75937,-0.45542 -19.33806,-1.4428c14.27488,57.3368 28.54976,114.66212 42.82847,171.99509c6.57486,0.98738 13.01196,1.4428 19.33424,1.4428c75.53058,0 134.54745,-65.01003 211.33712,-65.01003c6.25722,0 12.62542,0.42863 19.13906,1.36243c-14.28253,-57.33297 -28.55359,-114.66595 -42.82464,-171.99892c-6.50598,-0.92997 -12.88184,-1.36243 -19.13523,-1.36243M347.92269,-13.17779c6.74325,0 13.54774,0.48603 20.22211,1.4428l5.10145,0.73097l1.23996,4.99812c14.26723,57.32915 28.54211,114.66212 42.82464,171.99509l2.75165,11.04103l-11.263,-1.61501c-5.95871,-0.85343 -12.03223,-1.28589 -18.05218,-1.28589c-36.81235,0 -69.082,15.51867 -103.24604,31.94818c-33.79281,16.25346 -68.73757,33.06185 -108.09108,33.06185c-6.8351,0 -13.71996,-0.509 -20.47087,-1.52699l-5.05553,-0.75776l-1.23614,-4.95985l-42.8323,-172.00275l-2.76695,-11.1214l11.33188,1.70304c6.00081,0.90318 12.12408,1.3586 18.20143,1.3586c35.86325,0 67.72723,-15.32349 101.45881,-31.54634c34.20996,-16.45247 69.57952,-33.46369 109.88214,-33.46369z" fill="#524e84"/></g></g></g></g></svg>