<svg version="1.1" xmlns="http://www.w3.org/2000/svg" xmlns:xlink="http://www.w3.org/1999/xlink" width="37.51182" height="37.51182" viewBox="0,0,37.51182,37.51182"><g transform="translate(-320.81723,-43.29428)"><g stroke-miterlimit="10"><g stroke="none" stroke-width="1" stroke-linecap="butt"><path d="M320.81723,62.05019c0,-10.3586 8.39731,-18.75591 18.75591,-18.75591c10.3586,0 18.75591,8.39731 18.75591,18.75591c0,10.3586 -8.39731,18.75591 -18.75591,18.75591c-10.3586,0 -18.75591,-8.39731 -18.75591,-18.75591z" fill="#3d5afe"/><path d="M323.76601,65.23087l18.98814,-18.98814c4.80209,0.96113 8.82193,4.06213 11.05286,8.25923c-7.21126,7.30331 -14.45406,14.57539 -21.74176,21.80258c-4.21727,-2.22671 -7.33518,-6.25631 -8.29924,-11.07368z" fill="#506afe"/><path d="M354.92427,57.15638c0.49211,1.54497 0.77183,3.18491 0.77183,4.89316c0,8.90422 -7.21841,16.12263 -16.12263,16.12263c-1.70011,0 -3.33257,-0.2768 -4.87104,-0.76468c6.23809,-6.19061 12.45797,-12.39942 18.64012,-18.6463c0.52821,-0.53375 1.05351,-1.07009 1.58172,-1.60481z" fill="#506afe"/></g><path d="M347.5854,48.9791c0.14288,-0.14202 0.30231,-0.25598 0.4833,-0.26146c0.39379,-0.00458 0.81059,0.04531 1.15569,0.23277c0.48779,0.26512 0.93072,0.64787 1.26529,1.08528c0.23531,0.30361 0.33456,0.70323 0.39149,1.06976c0.02121,0.13688 0.01609,0.19537 -0.14318,0.39049c-0.63674,0.78025 -1.24322,1.61162 -2.00691,2.2755c-0.23622,0.19703 -0.64039,0.39311 -0.90288,0.22928c-0.95195,-0.5939 -1.8775,-1.36284 -2.43615,-2.32805c-0.17636,-0.30463 0.36142,-0.60784 0.58234,-0.88181c0.50462,-0.62547 1.03689,-1.24369 1.61102,-1.81175z" fill="#ff9400" stroke="none" stroke-width="1" stroke-linecap="round"/><path d="M344.58686,52.37268c0.30607,-0.31851 0.34761,-0.42772 0.56436,-0.37878c0.6484,0.17079 1.27582,0.51848 1.75807,0.96868c0.42288,0.39457 0.61271,0.98788 0.86232,1.50732c0.07275,0.14951 0.33621,0.08858 0.07095,0.41722c-1.00224,1.37976 -2.19876,2.61347 -3.28575,3.91713c-3.64062,4.36674 -7.20941,8.79849 -10.88824,13.11351c-0.92467,1.09047 -0.37082,0.36809 -0.59427,0.36618c-0.56785,-0.00505 -1.15598,-0.11605 -1.66898,-0.38535c-0.41159,-0.17424 -0.70637,-0.56931 -1.01177,-0.90114c-0.19625,-0.21436 -0.47703,-0.48048 -0.4851,-0.78869c-0.00856,-0.33397 -0.42185,0.15808 0.46346,-0.9424c3.4861,-4.35243 7.06493,-8.65722 10.66942,-12.945c1.13707,-1.35274 2.32119,-2.67448 3.54553,-3.94866z" fill="#ffff00" stroke="none" stroke-width="1" stroke-linecap="round"/><path d="M341.145,59.38953c1.66452,-1.9761 3.32543,-3.97949 5.01224,-5.96423c0.41491,-0.47632 0.31061,-0.57507 0.61147,-0.61985c0.23638,-0.03636 0.41785,0.24221 0.56665,0.45496c0.27955,0.40116 0.4829,0.84562 0.61695,1.33297c0.04707,0.17833 0.29236,-0.2014 -0.24194,0.49842c-2.2173,2.75934 -4.45591,5.50652 -6.70889,8.23618c-2.4233,2.93589 -4.84588,5.89358 -7.35788,8.74916c-0.64261,0.71052 -0.37552,0.20002 -0.58454,0.21007c-0.37852,0.00575 -0.81948,0.06864 -1.18035,-0.08967c-0.36713,-0.16155 -0.78885,-0.40884 -0.9113,-0.79165c-0.05422,-0.27087 -0.07466,0.02077 0.51411,-0.67763c2.3549,-2.79393 4.74743,-5.56529 7.11857,-8.34673c0.84691,-0.99436 1.70237,-1.99186 2.54491,-2.99201z" fill="#f6e575" stroke="none" stroke-width="0.66647" stroke-linecap="round"/><path d="M346.37808,50.22475c0.12971,-0.13953 0.1306,-0.13493 0.25504,-0.10397c0.46611,0.15043 0.93818,0.3252 1.35416,0.59798c0.44947,0.29492 0.83597,0.69145 1.18185,1.09948c0.22622,0.26648 0.37849,0.58678 0.51741,0.90441c0.03468,0.07944 0.09607,0.04916 -0.02515,0.19367c-0.49134,0.59973 -1.01891,1.17012 -1.55281,1.72356c-0.1331,0.13824 -0.12604,0.1052 -0.16923,0.05908c-0.17202,-0.18367 -0.21095,-0.47633 -0.38116,-0.66747c-0.42212,-0.47442 -0.86667,-0.96227 -1.38973,-1.3419c-0.31387,-0.21865 -0.7205,-0.2805 -1.07936,-0.42251c-0.1025,-0.04058 -0.25769,-0.04405 -0.31886,-0.13768c-0.03058,-0.05217 0.01226,-0.00936 0.13539,-0.15433c0.49245,-0.57967 0.95408,-1.19217 1.47248,-1.75031z" fill="#c0c8c9" stroke="none" stroke-width="1" stroke-linecap="round"/><path d="M345.59818,51.2664c0,0 1.26408,0.30139 1.74779,0.70023c0.58926,0.4858 0.7028,0.5435 1.35048,1.85361" fill="none" stroke="#acb3b4" stroke-width="2" stroke-linecap="round"/><path d="M330.38005,70.50228c0.17603,0.11274 0.47018,-0.22727 0.62346,-0.07571c0.25098,0.24963 -0.01599,0.84475 0.27103,1.02961c0.26377,0.16888 0.67258,-0.36986 0.92101,-0.19701c0.2501,0.17504 -0.03481,0.68457 0.18834,0.89974c0.21027,0.20309 0.66365,0.01755 0.86203,0.16907c0.09669,0.07351 0.13745,0.08961 -0.25184,0.33069c-1.55755,0.9641 -3.10028,1.97648 -4.74316,2.78622c-0.4108,0.20239 -0.38427,0.03354 -0.28111,-0.36126c0.41247,-1.57941 1.02345,-3.07895 1.5868,-4.58275c0.14199,-0.39366 0.19455,-0.48826 0.35883,-0.65189c0.05875,-0.05746 0.20456,-0.06337 0.24718,-0.00162c0.13,0.1895 0.03063,0.53496 0.21741,0.65491z" fill="#ffffcc" stroke="none" stroke-width="1" stroke-linecap="round"/><path d="M327.75189,75.6434c0.08854,-0.33582 0.20741,-0.66146 0.32253,-0.9841c0.03296,-0.08353 0.03188,-0.09617 0.06846,-0.08741c0.14261,0.03586 0.28249,0.09909 0.39681,0.19514c0.11838,0.10194 0.21686,0.24065 0.2693,0.38096c0.01521,0.04069 -0.02293,0.04126 -0.09917,0.08505c-0.30375,0.17537 -0.60414,0.36872 -0.92407,0.50558c-0.08004,0.03422 -0.0562,-0.01069 -0.03387,-0.09523z" fill="#464646" stroke="none" stroke-width="1" stroke-linecap="round"/><path d="M345.46033,54.40587l-12.51346,14.84179" fill="none" stroke="#edd571" stroke-width="2" stroke-linecap="round"/></g></g></svg>