<svg version="1.1" xmlns="http://www.w3.org/2000/svg" xmlns:xlink="http://www.w3.org/1999/xlink" width="142.5783" height="43.87142" viewBox="0,0,142.5783,43.87142"><defs><linearGradient x1="243.18021" y1="156.04755" x2="243.18021" y2="197.51588" gradientUnits="userSpaceOnUse" id="color-1"><stop offset="0" stop-color="#68160d"/><stop offset="1" stop-color="#fd442b"/></linearGradient></defs><g transform="translate(-171.93652,-154.79755)"><g fill="url(#color-1)" stroke="#45413c" stroke-width="2.5" stroke-linecap="round" stroke-miterlimit="10"><path d="M281.62899,156.04755c0,0 4.64868,2.9797 6.2277,5.06113c1.56414,2.06184 0.96807,5.51807 0.96807,5.51807c0,0 15.98044,5.78191 19.55856,9.45937c6.04808,6.21601 4.76835,14.72169 4.76835,14.72169c0,0 0.39621,5.80654 0.01306,6.61116c-0.31967,0.67131 -2.60305,-2.36586 -2.60305,-2.36586c0,0 -4.1193,-5.59163 -4.58963,-7.00262c-0.2011,-0.6033 3.84615,-0.71739 3.84615,-0.71739c0,0 -6.48182,0.11151 -10.64613,1.80792c-3.00253,1.22314 -5.64763,3.3981 -7.39694,3.96586c-3.95677,1.28422 -8.43163,1.51761 -8.43163,1.51761c0,0 -7.05076,0.90465 -10.01697,0.04238c-3.16466,-0.91996 -8.41424,-5.40029 -8.41424,-5.40029l-53.5944,0.8491c0,0 -6.18231,3.93668 -9.28267,4.63744c-2.20224,0.49777 -13.86638,0.00636 -16.98331,-0.62857c-3.11432,-0.6344 -9.27521,-4.00887 -9.27521,-4.00887c0,0 -2.31322,-1.66909 -2.64504,-2.75186c-0.38967,-1.27156 0.45256,-4.40254 0.45256,-4.40254c0,0 5.90834,-7.85832 11.60682,-12.44075c2.62848,-2.11369 3.58944,-3.0148 7.24651,-2.66109c1.94055,0.18769 0.85485,-4.44411 2.33455,-6.39751c2.03684,-2.68889 5.92958,-4.118 5.92958,-4.118"/></g></g></svg>