<svg version="1.1" xmlns="http://www.w3.org/2000/svg" xmlns:xlink="http://www.w3.org/1999/xlink" width="61.86398" height="58.55961" viewBox="0,0,61.86398,58.55961"><defs><linearGradient x1="221.41568" y1="185.3839" x2="258.98346" y2="185.3839" gradientUnits="userSpaceOnUse" id="color-1"><stop offset="0" stop-color="#000000"/><stop offset="1" stop-color="#39160f"/></linearGradient><radialGradient cx="237.76276" cy="163.55086" r="9.39643" gradientUnits="userSpaceOnUse" id="color-2"><stop offset="0" stop-color="#3c5a25"/><stop offset="1" stop-color="#1a3309"/></radialGradient><radialGradient cx="236.72147" cy="166.04354" r="1.85945" gradientUnits="userSpaceOnUse" id="color-3"><stop offset="0" stop-color="#3c5a25"/><stop offset="1" stop-color="#1a3309"/></radialGradient></defs><g transform="translate(-214.90164,-156.2108)"><g stroke-miterlimit="10"><g><g fill="none" stroke="#0c0b0a" stroke-width="5" stroke-linecap="round"><path d="M264.59857,180.71418l-2.89368,0.59869"/><path d="M222.98943,182.3107l-5.58779,0.59869"/><path d="M258.79439,207.15429l-5.68249,2.70258l-1.71443,-9.17572"/><path d="M235.56292,196.8795l-3.90135,14.69809l-10.3431,-3.35697"/></g><path d="M258.73594,184.67848c-1.19452,6.55389 -1.19574,10.12271 -7.13737,15.58914c-6.36023,5.85155 -7.40433,0.13973 -11.6684,0.13973c-3.83815,0 -4.77286,5.41496 -10.42993,0.49192c-4.49851,-3.91482 -8.08456,-10.17769 -8.08456,-17.21819c0,-5.51752 0.57637,-9.77499 3.81696,-13.44507c1.23551,-1.39926 3.48194,-3.19699 4.80594,-2.4851c2.74798,1.47753 4.65416,1.90427 7.96388,1.90427c2.64887,0 -1.57541,0.93307 9.73782,-2.33824c6.97282,-2.01625 12.49554,9.13223 10.99565,17.36154z" fill="url(#color-1)" stroke="#0c0b0a" stroke-width="2.5" stroke-linecap="butt"/><g stroke="#0d0c0b" stroke-width="2.5" stroke-linecap="round"><path d="M241.85357,168.73447l-3.17346,0.90643c0,0 -5.83213,-0.58581 -6.29734,-0.67982c-0.46521,-0.094 0.46304,0.33563 -0.99171,-0.79312c-1.13897,-0.88372 -1.71378,-1.85885 -2.28093,-3.05919c-0.56715,-1.20033 -0.9917,-2.4455 -0.74378,-3.34245c0.24792,-0.89695 0.46679,-0.6452 1.93383,-0.96308c1.46704,-0.31788 2.87935,-0.37917 3.81807,-0.28326c0.59964,0.06127 1.06594,-0.02816 2.28093,0.90643c1.215,0.93459 2.7272,2.94589 2.7272,2.94589c0,0 -0.08295,4.14445 -0.04959,4.41884c0.03336,0.27439 0.42333,0.91568 0.54544,-0.33991c0.12211,-1.25559 -0.48475,-1.32034 -0.19834,-3.22915c0.28641,-1.90881 0.57307,-3.21817 1.38839,-4.70209c0.81532,-1.48392 2.21008,-2.67881 2.87595,-3.05919c0.66586,-0.38038 0.89481,-0.82282 1.88424,0.33991c0.98942,1.16273 1.47419,3.29925 1.58673,3.73902c0.11254,0.43977 0.55894,0.63197 -0.3471,1.10503c-0.90604,0.47306 -1.52892,-0.2966 -2.52885,0.39656c-0.99994,0.69316 -1.20594,1.46401 -1.73549,2.66263c-0.52955,1.19862 -0.89254,3.2858 -0.89254,3.2858" fill="url(#color-2)"/><path d="M238.58092,168.05468l-3.7189,-4.02227" fill="url(#color-3)"/></g><path d="M232.17379,172.49383c0,1.25 -1.25,1.25 -1.25,1.25l-0.51896,-0.05272c-1.43339,0.25871 -1.29966,1.13801 -2.07999,2.39237c0,0 -0.6625,1.06 -1.7225,0.3975c-1.06,-0.6625 -0.3975,-1.7225 -0.3975,-1.7225c1.22673,-1.95242 1.16524,-2.62411 3.48162,-3.46194l1.23734,-0.05272c0,0 1.25,0 1.25,1.25z" fill="#2c2522" stroke="none" stroke-width="0.5" stroke-linecap="butt"/><g><path d="M251.11463,190.53855c0,0 -1.05216,1.16625 -2.37656,1.10372c-2.11019,-0.09963 -5.08205,-1.44267 -6.87924,-1.41459c-1.47696,0.02308 -3.55274,0.15652 -5.33582,0.29127c-2.00335,0.15139 -3.96975,-0.13894 -3.96975,-0.13894" fill="none" stroke="#ffffff" stroke-width="5" stroke-linecap="round"/><path d="M250.90878,177.86381c0,1.38071 -1.11929,2.5 -2.5,2.5c-1.38071,0 -2.5,-1.11929 -2.5,-2.5c0,-1.38071 0.94169,-1.30117 2.3224,-1.30117c1.38071,0 2.67761,-0.07954 2.67761,1.30117z" fill="#ffffff" stroke="none" stroke-width="0.5" stroke-linecap="butt"/><path d="M235.59163,180.36381c-1.38071,0 -2.5,-1.11929 -2.5,-2.5c0,-1.38071 1.11929,-2.5 2.5,-2.5c1.38071,0 2.5,1.11929 2.5,2.5c0,1.38071 -1.11929,2.5 -2.5,2.5z" fill="#ffffff" stroke="none" stroke-width="0.5" stroke-linecap="butt"/><path d="M229.87105,179.54686c3.66053,1.93491 0.85145,-13.30083 6.76341,-11.39531c4.25544,2.73899 1.88158,12.67719 3.78235,11.12445" fill="none" stroke="#ffffff" stroke-width="2.5" stroke-linecap="round"/><path d="M243.18961,177.82752c1.90077,1.55275 0.68855,-5.70278 5.37247,-6.06916c7.10257,1.10288 1.51277,8.27493 5.1733,6.34002" fill="none" stroke="#ffffff" stroke-width="2.5" stroke-linecap="round"/></g></g><path d="M262.68229,186.6289v-23.66666h12.83333v23.66666z" fill="#00ae97" stroke="#000000" stroke-width="2.5" stroke-linecap="butt"/></g></g></svg>