<svg version="1.1" xmlns="http://www.w3.org/2000/svg" xmlns:xlink="http://www.w3.org/1999/xlink" width="770.89367" height="770.89367" viewBox="0,0,770.89367,770.89367"><defs><linearGradient x1="236.99701" y1="-212.95431" x2="236.99701" y2="557.93936" gradientUnits="userSpaceOnUse" id="color-1"><stop offset="0" stop-color="#fbbd5a"/><stop offset="1" stop-color="#faa51d"/></linearGradient><linearGradient x1="405.17375" y1="-158.69753" x2="405.17375" y2="167.3294" gradientUnits="userSpaceOnUse" id="color-2"><stop offset="0" stop-color="#fbbd5a"/><stop offset="1" stop-color="#faa51d"/></linearGradient><linearGradient x1="253.17624" y1="-152.35371" x2="253.17624" y2="465.42243" gradientUnits="userSpaceOnUse" id="color-3"><stop offset="0" stop-color="#fbbd5a"/><stop offset="1" stop-color="#faa51d"/></linearGradient><linearGradient x1="121.38405" y1="71.93273" x2="121.38405" y2="503.81441" gradientUnits="userSpaceOnUse" id="color-4"><stop offset="0" stop-color="#fbbd58"/><stop offset="1" stop-color="#faa620"/></linearGradient></defs><g transform="translate(148.44983,212.95432)"><g data-paper-data="{&quot;isPaintingLayer&quot;:true}" fill-rule="nonzero" stroke-linecap="butt" stroke-linejoin="miter" stroke-miterlimit="10" stroke-dasharray="" stroke-dashoffset="0" style="mix-blend-mode: normal"><g stroke="none" stroke-width="1"><path d="M236.99692,557.93918c-212.87603,0 -385.44675,-172.57039 -385.44675,-385.44675c0,-212.87603 172.57039,-385.44675 385.44692,-385.44675c212.87636,0 385.44675,172.57039 385.44675,385.44692c0,212.87603 -172.57039,385.44675 -385.44675,385.44675z" fill="url(#color-1)"/><path d="M543.23198,142.37417c-100.36105,-100.36105 -200.71064,-200.71064 -301.0717,-301.0717c178.86656,2.74709 323.29081,147.16004 326.02693,326.02693z" fill="url(#color-2)"/><path d="M391.29507,465.42227c-149.76334,-148.51688 -298.61153,-297.96054 -446.79727,-448.04406c45.85026,-86.25056 128.4602,-149.9841 227.14407,-169.73192l390.21281,390.21281c-19.82495,98.99291 -83.90061,181.81247 -170.55945,227.56333z" fill="url(#color-3)"/><path d="M-45.97041,104.90848c127.04816,128.37192 254.86835,255.97151 383.06356,383.18491c-31.61858,10.02851 -65.15671,15.72102 -100.09607,15.72102c-182.98196,0 -331.32213,-148.34034 -331.32213,-331.32213c0,-35.10493 5.7477,-68.80848 15.86464,-100.55954c10.84474,10.97723 21.63445,22.00932 32.49017,32.97575z" fill="url(#color-4)"/></g><path d="M48.55856,180.71792v-155.61205c0,0 25.26312,0 42.973,0c3.03319,0 2.1134,11.10876 11.44144,10.03362c11.90909,-1.37263 33.99862,-0.80562 40.37737,-0.80562c13.73547,0 5.88593,-9.22801 19.87571,-9.22801c22.52815,0 280.22737,0 280.22737,0v155.61205c0,0 -250.33279,0 -276.67813,0c-6.44424,0 -4.73464,10.18666 -14.26799,12.19001c-6.93653,1.45765 -50.34863,0.58723 -54.58714,0.58723c-7.69473,0 -8.89675,-13.48709 -14.19693,-13.48709c-20.34548,0 -35.16469,0.70984 -35.16469,0.70984z" fill="#ffffff" stroke="#000000" stroke-width="0"/><path d="M51.56157,356.39359v-155.61205c0,0 25.26311,0 42.973,0c3.03319,0 2.11339,11.10876 11.44143,10.03362c11.90909,-1.37262 33.99862,-0.80562 40.37738,-0.80562c13.73548,0 5.88594,-9.22801 19.87571,-9.22801c22.52816,0 221.66881,0 221.66881,0v155.61204c0,0 -191.77424,0 -218.11958,0c-6.44425,0 -4.73464,10.18666 -14.268,12.19001c-6.93653,1.45765 -50.34862,0.58723 -54.58713,0.58723c-7.69473,0 -8.89675,-13.48709 -14.19693,-13.48709c-20.34548,0 -35.16468,0.70984 -35.16468,0.70984z" fill="#ffffff" stroke="#000000" stroke-width="0"/></g></g></svg>