<svg version="1.1" xmlns="http://www.w3.org/2000/svg" xmlns:xlink="http://www.w3.org/1999/xlink" width="94.26009" height="74.42182" viewBox="0,0,94.26009,74.42182"><defs><linearGradient x1="221.41568" y1="185.3839" x2="258.98346" y2="185.3839" gradientUnits="userSpaceOnUse" id="color-1"><stop offset="0" stop-color="#000000"/><stop offset="1" stop-color="#39160f"/></linearGradient><radialGradient cx="237.76276" cy="163.55086" r="9.39643" gradientUnits="userSpaceOnUse" id="color-2"><stop offset="0" stop-color="#3c5a25"/><stop offset="1" stop-color="#1a3309"/></radialGradient><radialGradient cx="236.72147" cy="166.04354" r="1.85945" gradientUnits="userSpaceOnUse" id="color-3"><stop offset="0" stop-color="#3c5a25"/><stop offset="1" stop-color="#1a3309"/></radialGradient></defs><g transform="translate(-214.90164,-140.34859)"><g stroke-miterlimit="10"><g fill="none" stroke="#0c0b0a" stroke-width="5" stroke-linecap="round"><path d="M217.40164,180.71418l2.89368,0.59869"/><path d="M259.01078,182.3107l5.58779,0.59869"/><path d="M230.60274,200.68115l-1.71443,9.17572l-5.68249,-2.70258"/><path d="M260.68174,208.22062l-10.3431,3.35697l-3.90135,-14.69809"/></g><path d="M258.73594,184.67848c-1.19452,6.55389 -1.19574,10.12271 -7.13737,15.58914c-6.36023,5.85155 -7.40433,0.13973 -11.6684,0.13973c-3.83815,0 -4.77286,5.41496 -10.42993,0.49192c-4.49851,-3.91482 -8.08456,-10.17769 -8.08456,-17.21819c0,-5.51752 0.57637,-9.77499 3.81696,-13.44507c1.23551,-1.39926 3.48194,-3.19699 4.80594,-2.4851c2.74798,1.47753 4.65416,1.90427 7.96388,1.90427c2.64887,0 -1.57541,0.93307 9.73782,-2.33824c6.97282,-2.01625 12.49554,9.13223 10.99565,17.36154z" fill="url(#color-1)" stroke="#0c0b0a" stroke-width="2.5" stroke-linecap="butt"/><g stroke="#0d0c0b" stroke-width="2.5" stroke-linecap="round"><path d="M241.85357,168.73447l-3.17346,0.90643c0,0 -5.83213,-0.58581 -6.29734,-0.67982c-0.46521,-0.094 0.46304,0.33563 -0.99171,-0.79312c-1.13897,-0.88372 -1.71378,-1.85885 -2.28093,-3.05919c-0.56715,-1.20033 -0.9917,-2.4455 -0.74378,-3.34245c0.24792,-0.89695 0.46679,-0.6452 1.93383,-0.96308c1.46704,-0.31788 2.87935,-0.37917 3.81807,-0.28326c0.59964,0.06127 1.06594,-0.02816 2.28093,0.90643c1.215,0.93459 2.7272,2.94589 2.7272,2.94589c0,0 -0.08295,4.14445 -0.04959,4.41884c0.03336,0.27439 0.42333,0.91568 0.54544,-0.33991c0.12211,-1.25559 -0.48475,-1.32034 -0.19834,-3.22915c0.28641,-1.90881 0.57307,-3.21817 1.38839,-4.70209c0.81532,-1.48392 2.21008,-2.67881 2.87595,-3.05919c0.66586,-0.38038 0.89481,-0.82282 1.88424,0.33991c0.98942,1.16273 1.47419,3.29925 1.58673,3.73902c0.11254,0.43977 0.55894,0.63197 -0.3471,1.10503c-0.90604,0.47306 -1.52892,-0.2966 -2.52885,0.39656c-0.99994,0.69316 -1.20594,1.46401 -1.73549,2.66263c-0.52955,1.19862 -0.89254,3.2858 -0.89254,3.2858" fill="url(#color-2)"/><path d="M238.58092,168.05468l-3.7189,-4.02227" fill="url(#color-3)"/></g><path d="M232.17379,172.49383c0,1.25 -1.25,1.25 -1.25,1.25l-0.51896,-0.05272c-1.43339,0.25871 -1.29966,1.13801 -2.07999,2.39237c0,0 -0.6625,1.06 -1.7225,0.3975c-1.06,-0.6625 -0.3975,-1.7225 -0.3975,-1.7225c1.22673,-1.95242 1.16524,-2.62411 3.48162,-3.46194l1.23734,-0.05272c0,0 1.25,0 1.25,1.25z" fill="#2c2522" stroke="none" stroke-width="0.5" stroke-linecap="butt"/><g><path d="M249.44695,190.38001c0,0 -1.9664,0.29033 -3.96975,0.13894c-1.78308,-0.13475 -3.85886,-0.26819 -5.33582,-0.29127c-1.79719,-0.02808 -4.76905,1.31496 -6.87924,1.41459c-1.3244,0.06253 -2.37656,-1.10372 -2.37656,-1.10372" fill="none" stroke="#ffffff" stroke-width="5" stroke-linecap="round"/><path d="M231.09142,177.86381c0,-1.38071 1.2969,-1.30117 2.67761,-1.30117c1.38071,0 2.3224,-0.07954 2.3224,1.30117c0,1.38071 -1.11929,2.5 -2.5,2.5c-1.38071,0 -2.5,-1.11929 -2.5,-2.5z" fill="#ffffff" stroke="none" stroke-width="0.5" stroke-linecap="butt"/><path d="M243.90858,177.86381c0,-1.38071 1.11929,-2.5 2.5,-2.5c1.38071,0 2.5,1.11929 2.5,2.5c0,1.38071 -1.11929,2.5 -2.5,2.5c-1.38071,0 -2.5,-1.11929 -2.5,-2.5z" fill="#ffffff" stroke="none" stroke-width="0.5" stroke-linecap="butt"/><path d="M241.5834,179.276c1.90077,1.55274 -0.47309,-8.38546 3.78235,-11.12445c5.91196,-1.90552 3.10288,13.33022 6.76341,11.39531" fill="none" stroke="#ffffff" stroke-width="2.5" stroke-linecap="round"/><path d="M228.26483,178.09838c3.66053,1.93491 -1.92927,-5.23714 5.1733,-6.34002c4.68392,0.36638 3.4717,7.62191 5.37247,6.06916" fill="none" stroke="#ffffff" stroke-width="2.5" stroke-linecap="round"/></g><path d="M264.76265,193.52285c-0.06994,0.64193 -0.32103,1.25441 0.00102,1.84369c-1.18862,0.1271 -2.37391,0.4891 -3.5554,0.78276v-9.05354c2.26912,0.54151 5.87031,-0.64537 7.16649,-1.8333c0.01526,0.3885 0.02292,0.77246 0.02291,1.14999c0,0.80184 0.14366,1.58547 0.39042,2.33454c-2.2822,0.89637 -3.66689,1.48528 -4.02543,4.77586z" fill="#00ae97" stroke="#000000" stroke-width="2.5" stroke-linecap="butt"/><path d="M307.91173,169.32722c-1.36258,0.52347 -2.91797,0.82895 -3.85629,1.21852c-0.31735,0.13596 -0.62188,0.259 -0.91336,0.37449c-0.23317,-0.66263 -0.37429,-1.3695 -0.37429,-2.14413c-0.00002,-0.52862 -0.01513,-1.07151 -0.04506,-1.62302c1.60255,-1.55274 3.47393,-2.85975 5.189,-4.27248z" fill="#00ae97" stroke="#000000" stroke-width="2.5" stroke-linecap="butt"/><path d="M253.00047,164.64177c2.0913,0.36125 4.48964,0.30217 5.85121,-0.49659c0.26041,-0.15644 0.53305,-0.30417 0.81139,-0.44821c0.23529,1.29034 0.3932,2.60913 0.47083,3.89092c-0.08207,0.07803 -0.16359,0.15661 -0.24452,0.23579c-1.02831,1.03873 -4.8387,2.36965 -6.8889,1.79328z" fill="#00ae97" stroke="#000000" stroke-width="2.5" stroke-linecap="butt"/><path d="M294.26733,155.5346c1.70172,-1.21292 1.8665,-2.29903 3.46258,-2.43987v3.08833c-1.70127,1.45171 -3.55728,2.77794 -5.22903,4.2927c-0.08977,-1.21856 -0.24998,-2.46815 -0.47786,-3.68953c0.77743,-0.38925 1.5708,-0.77158 2.24432,-1.25164z" fill="#00ae97" stroke="#000000" stroke-width="2.5" stroke-linecap="butt"/><path d="M282.31791,204.43411c1.35001,-0.22735 2.69122,-0.55658 3.98452,-1.15692c-0.2884,-1.32557 0.06965,-4.03779 0.75124,-5.18677c0.43023,-0.72526 1.77416,-1.07771 2.93077,-1.35373c0.46284,1.24975 1.20454,2.39444 2.02924,3.35503c0.43539,0.50713 0.47449,2.31749 1.09762,3.14997c0.28301,0.37529 0.41033,0.77682 0.46194,1.19243z" fill="#00ae97" stroke="#000000" stroke-width="2.5" stroke-linecap="butt"/><path d="M304.56107,190.07047h-1.08757c-0.04051,-0.50902 -0.17228,-1.00826 -0.53364,-1.49243c-0.74484,-0.99106 -0.53468,-2.34541 -1.09915,-3.15199c-0.71461,-1.02112 -1.44027,-2.03711 -1.90878,-3.17665c0.38491,-0.09314 0.72376,-0.18233 0.96563,-0.28128c0.96637,-0.40668 2.37319,-0.70987 3.66351,-1.181z" fill="#00ae97" stroke="#000000" stroke-width="2.5" stroke-linecap="butt"/><path d="M266.42904,145.62458h4.30341c0.55068,1.1341 0.95684,2.33961 1.24202,3.38366c0.41802,1.16085 0.759,2.42979 1.01984,3.73732c-0.33408,0.16975 -0.66174,0.34335 -0.97155,0.52946c-1.24417,0.76944 -3.58579,0.78629 -5.59373,0.4194z" fill="#00ae97" stroke="#000000" stroke-width="2.5" stroke-linecap="butt"/><path d="M299.49614,141.5986v3.16803c-1.64006,0.10967 -2.05254,1.35672 -3.75278,2.56859c-0.61681,0.43964 -1.33742,0.79632 -2.05281,1.15246c-0.26093,-1.28288 -0.59721,-2.52498 -1.00555,-3.65612c-0.27384,-1.00567 -0.65878,-2.1433 -1.17069,-3.23297z" fill="#00ae97" stroke="#000000" stroke-width="2.5" stroke-linecap="butt"/><path d="M279.56107,177.92761h-1.08757c-0.04051,-0.50902 -0.17228,-1.00826 -0.53364,-1.49243c-0.74484,-0.99106 -0.53468,-2.34541 -1.09915,-3.15199c-0.71461,-1.02112 -1.44027,-2.03711 -1.90878,-3.17665c0.38491,-0.09314 0.72376,-0.18233 0.96563,-0.28128c0.96637,-0.40668 2.37319,-0.70987 3.66351,-1.181z" fill="#00ae97" stroke="#000000" stroke-width="2.5" stroke-linecap="butt"/><path d="M283.98964,152.35618h-1.08757c-0.04051,-0.50902 -0.17228,-1.00826 -0.53364,-1.49243c-0.74484,-0.99106 -0.53468,-2.34541 -1.09915,-3.15199c-0.71461,-1.02112 -1.44027,-2.03711 -1.90878,-3.17665c0.38491,-0.09314 0.72376,-0.18233 0.96563,-0.28128c0.96637,-0.40668 2.37319,-0.70987 3.66351,-1.181z" fill="#00ae97" stroke="#000000" stroke-width="2.5" stroke-linecap="butt"/><path d="M293.27535,187.35618c-1.29032,-0.47113 -2.69714,-0.77432 -3.66351,-1.181c-0.24187,-0.09895 -0.58072,-0.18814 -0.96563,-0.28128c0.46851,-1.13954 1.19417,-2.15553 1.90878,-3.17665c0.56447,-0.80658 0.35431,-2.16093 1.09915,-3.15199c0.36136,-0.48417 0.49313,-0.98341 0.53364,-1.49243h1.08757z" fill="#00ae97" stroke="#000000" stroke-width="2.5" stroke-linecap="butt"/></g></g></svg>