<svg version="1.1" xmlns="http://www.w3.org/2000/svg" xmlns:xlink="http://www.w3.org/1999/xlink" width="119.27982" height="166.25186" viewBox="0,0,119.27982,166.25186"><defs><linearGradient x1="137.27377" y1="187.55419" x2="137.27377" y2="194.81505" gradientUnits="userSpaceOnUse" id="color-1"><stop offset="0" stop-color="#2c0b06"/><stop offset="1" stop-color="#ff0000"/></linearGradient></defs><g transform="translate(-165.18929,-142.02369)"><g stroke="#000000" stroke-miterlimit="10"><path d="M284.46911,224.35677c0,45.47131 -26.7017,82.33308 -59.63991,82.33308c-32.93821,0 -59.63991,-36.86178 -59.63991,-82.33308c0,-45.47131 26.7017,-82.33308 59.63991,-82.33308c32.93821,0 59.63991,36.86178 59.63991,82.33308z" fill-opacity="0.01176" fill="#ffffff" stroke-width="0" stroke-linecap="butt"/><path d="M264.13091,216.48874l2.92699,-0.85675l2.93329,1.02017l3.30662,-0.27434l0.72705,1.79439l-0.85593,0.72391l-0.23814,0.65315l1.5594,0.86456l-0.10451,1.82006l0.6241,1.80618l-1.76765,1.87144l-0.65863,1.53581l-4.11853,0.47164l-4.88397,-0.34895c-0.31266,-0.71986 -0.55375,-1.46429 -0.69043,-1.94058c-0.93077,-1.53562 -1.51319,-2.92945 -1.82727,-4.58476z" fill="#f5dacf" stroke-width="1.5" stroke-linecap="butt"/><path d="M231.19759,203.09767c0,0 6.86727,-4.39387 20.53388,19.5417c6.21242,0.22173 9.74629,-2.52865 9.74629,-2.52865c0,0 2.74993,7.79511 2.56881,7.83746c-1.11114,0.25982 -10.14656,5.29833 -18.19513,5.38112c-2.92375,0.03008 -7.76449,-12.84413 -8.70622,-13.12258c-0.98086,-0.14804 -4.96537,-2.62967 -6.11454,-6.47056c-1.37101,-4.58235 0.16691,-10.63848 0.16691,-10.63848z" fill="#55d8a6" stroke-width="1.5" stroke-linecap="butt"/><path d="M217.26526,302.54584c-0.35166,1.13367 -1.28167,7.01463 -8.85024,3.90664c-6.53111,-0.11771 -15.8496,-0.6399 -15.61127,-4.0061c0.34202,-7.61864 16.99908,-5.33933 17.22428,-5.68954c0.12684,-0.19727 -1.19338,-13.13984 -1.35768,-15.84724c1.49637,-0.00216 10.69296,1.27789 11.85169,1.1609c-0.33334,1.7766 -3.75121,15.03285 -3.64203,15.26126c0,0 0.11748,0.59347 0.38525,5.21409z" fill="#ff4816" stroke-width="1.5" stroke-linecap="butt"/><path d="M237.85178,303.4641c-0.35166,1.13367 0.95226,4.20342 -7.2085,4.05634c-6.53111,-0.11771 -7.13709,-1.3341 -6.89875,-4.7003c0.14462,-4.06554 3.47424,-4.6723 3.69944,-5.02251c0.12684,-0.19727 -1.45205,-13.65717 -1.61635,-16.36457c1.49637,-0.00216 10.69296,0.10312 11.85169,-0.01387c-0.33334,1.7766 -3.75121,16.20761 -3.64203,16.43602c0,0 3.54673,0.98826 3.8145,5.60889z" fill="#ff4816" stroke-width="1.5" stroke-linecap="butt"/><path d="M210.31969,218.93432c-0.94174,0.27845 -4.00483,3.66147 -4.47214,5.76008c-0.60442,2.71437 5.37642,10.08185 4.29001,9.82782c-0.18112,-0.04235 -7.48361,6.81631 -7.48361,6.81631c0,0 -8.95469,-13.86221 -8.93112,-18.85728c0.02257,-4.78385 22.14266,-18.91476 22.14266,-18.91476c0,0 2.19229,6.27037 0.97058,10.51611c-1.21658,4.22793 -6.51638,4.85172 -6.51638,4.85172z" fill="#55d8a6" stroke-width="1.5" stroke-linecap="butt"/><path d="M216.15669,204.06189c0,0 2.14716,-0.24295 2.17676,0.15892c0.16748,2.27422 0.75261,9.84603 1.11849,9.84143c2.41412,-0.03034 10.39022,-0.15646 10.39845,-0.49877c0.05497,-2.28497 0.26821,-9.90103 0.66897,-9.92082c0.80602,-0.03978 1.8955,-0.03522 1.88201,0.28165c-0.10528,2.47353 -0.39086,9.83197 -0.07933,10.19333c1.59777,1.85334 5.31595,5.78101 5.32204,6.03945c0.04532,1.92024 1.02146,28.84516 1.02146,28.84516l-0.49775,13.77996l0.31759,18.47753c-1.00958,0.20198 -11.92969,-0.56656 -13.3226,-0.40365c0,0 -0.43829,-12.55342 -0.61975,-17.46306c-0.15201,-4.11267 -0.56902,-11.33661 -0.56902,-11.33661l-2.39784,12.12703l-0.83936,17.42329c-1.00585,0.04171 -9.52415,0.4272 -12.03095,0.06909c-1.47821,0.0098 1.64001,-18.31551 1.64001,-18.31551l-0.24793,-8.92058c0,0 0.00009,-33.65869 0.0263,-35.33964c0.00378,-0.24179 4.11433,-3.12605 6.03264,-4.45905c0.58393,-0.40577 -0.04776,-10.49826 -0.04776,-10.49826z" fill="#1d8bbc" stroke-width="1.5" stroke-linecap="butt"/><path d="M203.22534,183.05694l-1.376,-3.43903c0,0 2.46842,-19.4157 22.25295,-19.88146c25.64749,-0.60379 24.08024,18.15333 24.08024,18.15333l0.12272,3.21037l-2.73739,4.35683l-2.90234,0.0418l-0.64179,2.20248l-2.29544,5.06591l-3.31326,2.85773l-5.50123,2.59566l-0.56989,1.37004l-1.47183,0.61126l0.20547,2.60145c-2.30293,0.09463 -4.67145,0.41021 -6.82269,0.39614c-0.68084,0 -1.36108,0.01791 -2.0402,0.0433l0.21766,-4.14584l-6.86207,-3.16019l-4.94984,-4.68525l-1.99409,-6.04278l-0.83245,-0.07189l-2.13455,-1.5778z" fill="#f5dacf" stroke-width="1.5" stroke-linecap="butt"/><path d="M245.53257,172.45624c0.14428,3.77467 -1.40372,8.10615 -2.4399,8.14576c-1.03618,0.03961 -1.84334,-4.33606 -1.98763,-8.11072c-0.14429,-3.77467 -0.7537,-6.6145 0.28248,-6.65411c0.09501,-0.00363 2.59682,0.85947 3.72163,2.68735c0.64668,1.0509 0.37836,2.75275 0.42342,3.93172z" fill="#000000" stroke-width="1.5" stroke-linecap="butt"/><path d="M204.30268,173.0856c1.7491,-1.4148 2.86382,-4.03931 4.14024,-5.35184c2.28614,-2.3508 4.15646,-2.97604 4.47451,-2.56041c1.154,1.50805 1.31018,3.84515 1.47428,8.1379c0.08651,2.26286 -1.91081,2.07155 -2.75322,3.43813c-0.75567,1.22589 -0.2645,4.12578 -1.78691,4.18398c-1.25696,0.04805 -0.31276,-3.29898 -1.90235,-4.64639c-0.9312,-0.78933 -3.57743,1.17371 -3.83715,0.01414c-0.35593,-1.58915 -0.7213,-2.47787 0.19061,-3.21548z" fill="#000000" stroke-width="1.5" stroke-linecap="butt"/><path d="M232.93781,173.34814c1.97967,-0.07567 3.66674,2.01453 3.7682,4.66858c0.10146,2.65406 -1.42114,4.86695 -3.40081,4.94262c-1.97967,0.07567 -3.66674,-2.01453 -3.7682,-4.66858c-0.10146,-2.65406 1.42114,-4.86695 3.40081,-4.94262z" fill="#ffffff" stroke-width="1.5" stroke-linecap="butt"/><path d="M218.46752,174.03638c1.97967,-0.07567 3.66674,2.01453 3.7682,4.66858c0.10146,2.65406 -1.42114,4.86695 -3.40081,4.94262c-1.97967,0.07567 -3.66674,-2.01453 -3.7682,-4.66858c-0.10146,-2.65406 1.42114,-4.86695 3.40081,-4.94262z" fill="#ffffff" stroke-width="1.5" stroke-linecap="butt"/><path d="M233.21685,168.33612c3.13258,0.07901 6.63719,1.58831 6.61549,2.44823c-0.02169,0.85992 -3.68668,1.29811 -6.81927,1.21912c-3.13258,-0.079 -5.51569,0.27622 -5.494,-0.5837c0.00199,-0.07884 0.84807,-2.10469 2.42048,-2.9398c0.90403,-0.48013 2.29885,-0.16851 3.27729,-0.14383z" fill="#000000" stroke-width="1.5" stroke-linecap="butt"/><path d="M218.84005,168.37821c0.97369,-0.09929 2.34066,-0.51648 3.2787,-0.10676c1.63157,0.71264 2.62984,2.66799 2.63784,2.74645c0.08727,0.85576 -2.31599,0.6835 -5.43341,1.0014c-3.11741,0.3179 -6.80516,0.16077 -6.89243,-0.69499c-0.08727,-0.85576 3.29187,-2.6282 6.40929,-2.9461z" fill="#000000" stroke-width="1.5" stroke-linecap="butt"/><path d="M225.73178,191.04087c5.69745,-0.21779 10.13014,-5.26012 10.25244,-2.06079c0.1223,3.19933 -4.39726,5.96946 -10.0947,6.18724c-5.69745,0.21779 -10.41527,-2.19924 -10.53757,-5.39857c-0.1223,-3.19933 4.68239,1.4899 10.37983,1.27212z" fill="url(#color-1)" stroke-width="1.5" stroke-linecap="butt"/><path d="M233.24504,177.01254c0.34954,-0.01336 0.65347,0.51418 0.67886,1.1783c0.02538,0.66412 -0.23739,1.21332 -0.58693,1.22668c-0.34954,0.01336 -0.65347,-0.51418 -0.67886,-1.1783c-0.02538,-0.66412 0.23739,-1.21332 0.58693,-1.22668z" fill="#ff0000" stroke-width="1.5" stroke-linecap="butt"/><path d="M218.11371,179.11209c-0.02673,-0.69908 0.20662,-1.27553 0.52121,-1.28756c0.31457,-0.01202 0.59125,0.54494 0.61798,1.24401c0.02672,0.69908 -0.20663,1.27553 -0.52122,1.28756c-0.31457,0.01202 -0.59125,-0.54494 -0.61798,-1.24401z" fill="#ff0000" stroke-width="1.5" stroke-linecap="butt"/><path d="M210.35958,166.5719c0,0 9.39648,-6.08593 16.34074,-6.02732c6.94426,0.0586 15.26922,5.62551 15.26922,5.62551" fill="none" stroke-width="3.5" stroke-linecap="round"/><path d="M244.83519,177.79189c0,0 1.90896,-16.81849 -20.5869,-14.85894c-21.48623,-1.09421 -23.16913,16.74594 -23.16913,16.74594l-4.50457,-1.17607l-5.00985,-3.54213l-0.63656,-3.08703l2.80928,-5.18927l7.9075,-4.76188l2.55133,-9.22418l5.67336,-6.23216l5.82378,-2.29685l5.5606,-1.04225l9.69843,1.39237l7.9531,4.57046l3.23286,5.89172l1.78037,5.8781l9.11997,5.25183l2.40897,3.33041l0.14251,3.72818l-3.79675,3.77504l-6.95831,0.84669z" fill="#9e6246" stroke-width="1.5" stroke-linecap="round"/><path d="M231.1,203.09089c0,2.77821 -1.01818,5.94488 -0.89711,8.74324c-0.22676,0.31008 -0.40248,1.99249 -0.60548,2.05244c-1.67979,0.49607 -9.13074,0.93554 -10.26115,0.57475c-0.11563,-0.0369 -2.15788,-8.61797 -2.12585,-10.88998c0,0 13.88959,-0.67967 13.88959,-0.48045z" fill="#55d8a6" stroke-width="1.5" stroke-linecap="butt"/><path d="M218.27529,219.36287l10.01451,0.06339l0.25353,8.5567l-10.07789,0.44469z" fill="none" stroke-width="1.5" stroke-linecap="round"/><path d="M218.97912,219.36286l10.01451,0.06339l0.25353,8.5567l-10.07789,0.44469z" fill="none" stroke-width="1.5" stroke-linecap="round"/><path d="M204.1335,235.5727c1.56967,-0.61222 3.06011,-0.85825 4.85561,-0.88428c0.47622,-0.13692 1.23513,-0.32761 2.01119,-0.44463l2.88757,3.95435l1.78585,3.74105l-0.9522,1.37325l-0.64813,2.49135l-1.86206,0.42952l-1.48718,1.05445l-1.56032,-0.86291l-0.42721,0.54846l-0.15935,1.10962l-1.9067,0.33601l-1.52222,-2.94819l-2.4213,-1.94481l-0.82712,-2.9355z" fill="#f5dacf" stroke-width="1.5" stroke-linecap="butt"/></g></g></svg>