<svg version="1.1" xmlns="http://www.w3.org/2000/svg" xmlns:xlink="http://www.w3.org/1999/xlink" width="119.89697" height="165.9085" viewBox="0,0,119.89697,165.9085"><defs><linearGradient x1="137.27376" y1="187.55419" x2="137.27376" y2="194.81505" gradientUnits="userSpaceOnUse" id="color-1"><stop offset="0" stop-color="#2c0b06"/><stop offset="1" stop-color="#ff0000"/></linearGradient></defs><g transform="translate(-163.87157,-142.36705)"><g stroke="#000000" stroke-miterlimit="10"><path d="M283.69467,224.73641c0,45.47131 -26.7017,82.33308 -59.63991,82.33308c-32.93821,0 -59.63991,-36.86178 -59.63991,-82.33308c0,-45.47131 26.7017,-82.33308 59.63991,-82.33308c32.93821,0 59.63991,36.86178 59.63991,82.33308z" fill-opacity="0.01176" fill="#ffffff" stroke-width="0" stroke-linecap="butt"/><path d="M220.95316,303.1993c-0.35166,1.13367 0.95225,4.20342 -7.2085,4.05634c-6.53111,-0.11771 -7.13708,-1.3341 -6.89875,-4.7003c0.14462,-4.06554 3.47424,-4.6723 3.69944,-5.02251c0.12684,-0.19727 -1.45205,-13.65717 -1.61635,-16.36457c1.49637,-0.00216 10.69296,1.27789 11.85169,1.1609c-0.33334,1.7766 -3.75121,15.03285 -3.64203,15.26126c0,0 3.54673,0.98826 3.8145,5.60888z" fill="#ff4816" stroke-width="1.5" stroke-linecap="butt"/><path d="M237.85177,303.4641c-0.35166,1.13367 0.95226,4.20342 -7.2085,4.05634c-6.53111,-0.11771 -7.13709,-1.3341 -6.89875,-4.7003c0.14462,-4.06554 3.47424,-4.6723 3.69944,-5.02251c0.12684,-0.19727 -1.45205,-13.65717 -1.61635,-16.36457c1.49637,-0.00216 10.69296,0.10312 11.85169,-0.01387c-0.33334,1.7766 -3.75121,16.20761 -3.64203,16.43602c0,0 3.54673,0.98826 3.8145,5.60889z" fill="#ff4816" stroke-width="1.5" stroke-linecap="butt"/><path d="M178.01812,207.76422c0.0046,1.68483 -0.30374,3.16364 -0.92733,4.84757c-0.04414,0.49354 -0.14013,1.27013 -0.31102,2.03613l-4.72987,1.2662l-4.13341,0.31566l-0.93716,-1.38356l-2.08965,-1.50342l0.2713,-1.8916l-0.4468,-1.76747l1.36778,-1.14384l-0.35736,-0.59633l-0.97737,-0.549l0.37462,-1.89949l3.29884,-0.35588l2.68747,-1.55644l3.03619,0.28781z" fill="#f5dacf" stroke-width="1.5" stroke-linecap="butt"/><path d="M210.4949,220.67555c-0.94174,0.27845 -1.17389,-4.24907 -8.35412,-5.45087c-2.44853,-0.40982 -5.4742,-0.56218 -8.58903,-0.57792c-7.89966,-0.03992 -16.37279,0.79885 -17.4592,0.54482c-0.18112,-0.04235 0.59487,-10.20619 0.59487,-10.20619c0,0 10.54427,-0.37633 16.5192,-0.58958c7.08627,-0.25291 23.2359,-0.82931 23.2359,-0.82931c0,0 2.19229,6.27037 0.97058,10.51611c-1.21658,4.22793 -5.84492,6.43095 -6.9182,6.59294z" fill="#55d8a6" stroke-width="1.5" stroke-linecap="butt"/><path d="M273.49577,203.40173l3.03619,-0.28781l2.68746,1.55644l3.29884,0.35588l0.37462,1.8995l-0.97738,0.54899l-0.35736,0.59634l1.36778,1.14384l-0.44679,1.76746l0.27129,1.89161l-2.08965,1.50342l-0.93716,1.38356l-4.13341,-0.31567l-4.72987,-1.2662c-0.17089,-0.766 -0.26687,-1.54259 -0.31102,-2.03613c-0.62359,-1.68392 -0.93193,-3.16273 -0.92733,-4.84757z" fill="#f5dacf" stroke-width="1.5" stroke-linecap="butt"/><path d="M231.19758,203.09767c0,0 15.15783,0.54099 22.11304,0.78923c6.21242,0.22173 17.64206,0.62966 17.64206,0.62966c0,0 0.77599,10.16384 0.59487,10.20619c-1.11114,0.25982 -9.94916,-0.6235 -17.99774,-0.54071c-2.92375,0.03008 -5.74332,0.18764 -8.05048,0.5738c-7.18023,1.2018 -7.41239,5.72932 -8.35412,5.45087c-0.98086,-0.14804 -4.96537,-2.62967 -6.11454,-6.47056c-1.37101,-4.58235 0.16691,-10.63848 0.16691,-10.63848z" fill="#55d8a6" stroke-width="1.5" stroke-linecap="butt"/><path d="M216.15668,204.06189c0,0 2.14716,-0.24295 2.17676,0.15892c0.16748,2.27422 0.75261,9.84603 1.11849,9.84143c2.41412,-0.03034 10.39022,-0.15646 10.39845,-0.49877c0.05497,-2.28497 0.26821,-9.90103 0.66897,-9.92082c0.80602,-0.03978 1.8955,-0.03522 1.88201,0.28165c-0.10528,2.47353 -0.39086,9.83197 -0.07933,10.19333c1.59777,1.85334 5.31595,5.78101 5.32204,6.03945c0.04532,1.92024 1.02146,28.84516 1.02146,28.84516l-0.49775,13.77996l0.31759,18.47753c-1.00958,0.20198 -11.92969,-0.56656 -13.3226,-0.40365c0,0 -0.43829,-12.55342 -0.61975,-17.46306c-0.15201,-4.11267 -0.56902,-11.33661 -0.56902,-11.33661l-2.39784,12.12703l-0.83936,17.42329c-1.00585,0.04171 -9.52415,0.4272 -12.03095,0.06909c-1.47821,0.0098 1.64001,-18.31551 1.64001,-18.31551l-0.24793,-8.92058c0,0 0.00009,-33.65869 0.0263,-35.33964c0.00378,-0.24179 4.11433,-3.12605 6.03264,-4.45905c0.58393,-0.40577 -0.04776,-10.49826 -0.04776,-10.49826z" fill="#1d8bbc" stroke-width="1.5" stroke-linecap="butt"/><path d="M203.22533,183.05694l-1.376,-3.43903c0,0 2.46842,-19.4157 22.25295,-19.88146c25.64749,-0.60379 24.08024,18.15333 24.08024,18.15333l0.12272,3.21037l-2.73739,4.35683l-2.90234,0.0418l-0.64179,2.20248l-2.29544,5.06591l-3.31326,2.85773l-5.50123,2.59566l-0.56989,1.37004l-1.47183,0.61126l0.20547,2.60145c-2.30293,0.09463 -4.67145,0.41021 -6.82269,0.39614c-0.68084,0 -1.36108,0.01791 -2.0402,0.0433l0.21766,-4.14584l-6.86207,-3.16019l-4.94984,-4.68525l-1.99409,-6.04278l-0.83245,-0.07189l-2.13455,-1.5778z" fill="#f5dacf" stroke-width="1.5" stroke-linecap="butt"/><path d="M245.53256,172.45624c0.14428,3.77467 -1.40372,8.10615 -2.4399,8.14576c-1.03618,0.03961 -1.84334,-4.33606 -1.98763,-8.11072c-0.14429,-3.77467 -0.7537,-6.6145 0.28248,-6.65411c0.09501,-0.00363 2.59682,0.85947 3.72163,2.68735c0.64668,1.0509 0.37836,2.75275 0.42342,3.93172z" fill="#000000" stroke-width="1.5" stroke-linecap="butt"/><path d="M204.30267,173.0856c1.7491,-1.4148 2.86382,-4.03931 4.14024,-5.35184c2.28614,-2.3508 4.15646,-2.97604 4.47451,-2.56041c1.154,1.50805 1.31018,3.84515 1.47428,8.1379c0.08651,2.26286 -1.91081,2.07155 -2.75322,3.43813c-0.75567,1.22589 -0.2645,4.12578 -1.78691,4.18398c-1.25696,0.04805 -0.31276,-3.29898 -1.90235,-4.64639c-0.9312,-0.78933 -3.57743,1.17371 -3.83715,0.01414c-0.35593,-1.58915 -0.7213,-2.47787 0.19061,-3.21548z" fill="#000000" stroke-width="1.5" stroke-linecap="butt"/><path d="M232.9378,173.34814c1.97967,-0.07567 3.66674,2.01453 3.7682,4.66858c0.10146,2.65406 -1.42114,4.86695 -3.40081,4.94262c-1.97967,0.07567 -3.66674,-2.01453 -3.7682,-4.66858c-0.10146,-2.65406 1.42114,-4.86695 3.40081,-4.94262z" fill="#ffffff" stroke-width="1.5" stroke-linecap="butt"/><path d="M218.46751,174.03638c1.97967,-0.07567 3.66674,2.01453 3.7682,4.66858c0.10146,2.65406 -1.42114,4.86695 -3.40081,4.94262c-1.97967,0.07567 -3.66674,-2.01453 -3.7682,-4.66858c-0.10146,-2.65406 1.42114,-4.86695 3.40081,-4.94262z" fill="#ffffff" stroke-width="1.5" stroke-linecap="butt"/><path d="M233.21684,168.33612c3.13258,0.07901 6.63719,1.58831 6.61549,2.44823c-0.02169,0.85992 -3.68668,1.29811 -6.81927,1.21912c-3.13258,-0.079 -5.51569,0.27622 -5.494,-0.5837c0.00199,-0.07884 0.84807,-2.10469 2.42048,-2.9398c0.90403,-0.48013 2.29885,-0.16851 3.27729,-0.14383z" fill="#000000" stroke-width="1.5" stroke-linecap="butt"/><path d="M218.84004,168.37821c0.97369,-0.09929 2.34066,-0.51648 3.2787,-0.10676c1.63157,0.71264 2.62984,2.66799 2.63784,2.74645c0.08727,0.85576 -2.31599,0.6835 -5.43341,1.0014c-3.11741,0.3179 -6.80516,0.16077 -6.89243,-0.69499c-0.08727,-0.85576 3.29187,-2.6282 6.40929,-2.9461z" fill="#000000" stroke-width="1.5" stroke-linecap="butt"/><path d="M225.73177,191.04087c5.69745,-0.21779 10.13014,-5.26012 10.25244,-2.06079c0.1223,3.19933 -4.39726,5.96946 -10.0947,6.18724c-5.69745,0.21779 -10.41527,-2.19924 -10.53757,-5.39857c-0.1223,-3.19933 4.68239,1.4899 10.37983,1.27212z" fill="url(#color-1)" stroke-width="1.5" stroke-linecap="butt"/><path d="M233.24503,177.01254c0.34954,-0.01336 0.65347,0.51418 0.67886,1.1783c0.02538,0.66412 -0.23739,1.21332 -0.58693,1.22668c-0.34954,0.01336 -0.65347,-0.51418 -0.67886,-1.1783c-0.02538,-0.66412 0.23739,-1.21332 0.58693,-1.22668z" fill="#ff0000" stroke-width="1.5" stroke-linecap="butt"/><path d="M218.1137,179.11209c-0.02673,-0.69908 0.20662,-1.27553 0.52121,-1.28756c0.31457,-0.01202 0.59125,0.54494 0.61798,1.24401c0.02672,0.69908 -0.20663,1.27553 -0.52122,1.28756c-0.31457,0.01202 -0.59125,-0.54494 -0.61798,-1.24401z" fill="#ff0000" stroke-width="1.5" stroke-linecap="butt"/><path d="M210.35957,166.5719c0,0 9.39648,-6.08593 16.34074,-6.02732c6.94426,0.0586 15.26922,5.62551 15.26922,5.62551" fill="none" stroke-width="3.5" stroke-linecap="round"/><path d="M244.83518,177.79189c0,0 1.90896,-16.81849 -20.5869,-14.85894c-21.48623,-1.09421 -23.16913,16.74594 -23.16913,16.74594l-4.50457,-1.17607l-5.00985,-3.54213l-0.63656,-3.08703l2.80928,-5.18927l7.9075,-4.76188l2.55133,-9.22418l5.67336,-6.23216l5.82378,-2.29685l5.5606,-1.04225l9.69843,1.39237l7.9531,4.57046l3.23286,5.89172l1.78037,5.8781l9.11997,5.25183l2.40897,3.33041l0.14251,3.72818l-3.79675,3.77504l-6.95831,0.84669z" fill="#9e6246" stroke-width="1.5" stroke-linecap="round"/><path d="M231.09999,203.09089c0,2.77821 -1.01818,5.94488 -0.89711,8.74324c-0.22676,0.31008 -0.40248,1.99249 -0.60548,2.05244c-1.67979,0.49607 -9.13074,0.93554 -10.26115,0.57475c-0.11563,-0.0369 -2.15788,-8.61797 -2.12585,-10.88998c0,0 13.88959,-0.67967 13.88959,-0.48045z" fill="#55d8a6" stroke-width="1.5" stroke-linecap="butt"/><path d="M218.27528,219.36287l10.01451,0.06339l0.25353,8.5567l-10.07789,0.44469z" fill="none" stroke-width="1.5" stroke-linecap="round"/><path d="M218.97911,219.36286l10.01451,0.06339l0.25353,8.5567l-10.07789,0.44469z" fill="none" stroke-width="1.5" stroke-linecap="round"/></g></g></svg>