<svg version="1.1" xmlns="http://www.w3.org/2000/svg" xmlns:xlink="http://www.w3.org/1999/xlink" width="33.98908" height="25.48417" viewBox="0,0,33.98908,25.48417"><g transform="translate(-223.00546,-157.78225)"><g stroke-miterlimit="10"><path d="M239.93528,181.60905c-8.11274,0 -14.68941,-3.1709 -14.68941,-7.0824c0,-3.91151 6.57668,-7.0824 14.68941,-7.0824c8.11274,0 14.68941,3.1709 14.68941,7.0824c0,3.91151 -6.57668,7.0824 -14.68941,7.0824z" fill="#c7c7c7" stroke="#000000" stroke-width="0.5" stroke-linecap="butt"/><path d="M235.66354,165.15989c1.01201,-0.82959 0.98476,-2.93273 2.11532,-3.73047c0.12816,-0.02639 0.23629,-0.04172 0.31798,-0.04228c0.94542,-0.00645 1.69833,0.048 2.43626,0.1603c0.05899,0.05104 0.12036,0.0994 0.1839,0.14491c0.71553,2.12099 2.35791,3.2758 4.53671,1.16071c0.4069,0.00159 0.81447,-0.00288 1.22148,-0.00226c0.60056,0.2441 1.02282,0.71679 1.4511,1.071l0.1265,0.19879l0.02772,0.08316l0.07612,0.08881l0.15205,0.3041l0.00524,0.02359l0.12489,0.17293l0.00883,0.02207l0.0531,0.07079l0.01752,0.04161l0.03341,0.03037l0.07602,0.11404l0.03377,0.09456l0.06535,0.07624l0.02281,0.04561l0.09123,0.10644l0.03801,0.07602l0.01463,0.06583l0.03948,0.05466l0.03505,0.08762l0.07015,0.12277l0.19772,0.29657l0.01882,0.05268l0.0387,0.04038l0.15205,0.26608l0.04286,0.15237l0.08497,0.13353l0.04032,0.12093l0.02552,0.05104l0.03797,0.17084l0.08235,0.15442l0.09312,0.37246c0.36455,-0.37042 0.78605,-0.65239 1.30936,-0.80409c0.48653,0.10871 0.91069,0.05536 1.26913,-0.11234c0.31052,0.02344 0.64816,0.07934 1.01703,0.17156c2.28393,0.57098 1.43707,4.5786 1.35529,6.93139c-0.00948,0.27284 -0.00559,0.60152 -0.19864,0.79456c-2.77686,2.77686 -2.91385,-1.60788 -2.97962,-3.02455c-0.00835,-0.17983 -0.16125,0.34754 -0.31756,0.43686c-0.40193,0.22968 -2.27472,0.48848 -2.56583,-0.02095l-0.29981,-0.52467l-0.28649,-0.01364l-0.37422,-0.01247l-0.02245,-0.00641l-0.04742,-0.00226l-0.01309,-0.01503l-0.44921,-0.12834l-0.25044,-0.14448l-0.26647,-0.1122l-0.44137,-0.33103l-0.10594,-0.07567l0.01035,0.48641l-0.31583,0.31583l-0.11104,0.40715l-0.40715,0.11104l-0.29841,0.29841l-0.40859,-0.10559l-0.43091,0.11753l-0.381,-0.2286l-0.02786,0.00192l-0.0603,-0.05482l-0.20092,-0.12055l-0.04096,-0.01059l-0.02235,-0.03984l-0.08295,-0.08295l-0.08143,-0.13572l-0.11712,-0.10647l-0.3041,-0.45615l-0.00584,-0.01637l-0.0126,-0.01196l-0.53218,-0.83627l-0.02081,-0.06242l-0.0439,-0.049l-0.17526,-0.33208l-0.01551,0.0512l-0.04594,0.07679l-0.01425,0.08834l-0.22807,0.53218l-0.13608,0.17905l-0.1169,0.24679l-0.09463,0.03155l-0.14796,0.19468l-0.66504,0.07632l-0.61168,0.20389l-0.13563,-0.11814l-0.1787,0.02051l-0.38853,-0.51455l-0.50478,-0.43966l-0.0102,-0.21424c-0.02121,0.05237 -0.04514,0.10335 -0.07161,0.15277l-0.01137,0.04549l-0.02095,0.01197c-0.27643,0.46838 -0.78629,0.7826 -1.36954,0.7826c-0.52049,0 -0.98254,-0.25024 -1.2724,-0.63696c-0.20047,0.13004 -0.44934,0.24016 -0.75339,0.32543c-0.08231,0.18479 -0.20842,0.36676 -0.38496,0.5433c-0.37747,0.37747 -0.85665,0.79456 -1.39049,0.79456c-0.87737,0 -1.01795,-1.49624 -1.77003,-1.94807c-1.39218,-0.83639 -2.20601,1.07959 -2.89073,1.82706c-0.05091,0.05556 -0.09635,0.11664 -0.1364,0.1818c0.0737,0.18318 0.11426,0.38326 0.11426,0.59281c0,0.19914 -0.03663,0.38972 -0.10351,0.56537c0.13827,0.23565 0.21755,0.5101 0.21755,0.80307c0,0.87524 -0.70757,1.58521 -1.58189,1.58911c-1.66226,0.82369 -2.10219,-2.40315 -2.05252,-4.51607c0.00897,-0.38156 0.09213,-0.67546 0.22213,-0.91649c0.00559,-0.11022 0.00813,-0.21105 0.00594,-0.29991c-0.08143,-3.30096 0.64561,-5.64425 4.62627,-4.9808c0.72639,0.12106 1.15827,0.76822 1.83071,0.88469c0.89126,0.15438 1.7227,-0.19492 2.49891,-0.01531c0.04608,-0.01375 0.09304,-0.02546 0.14077,-0.03505c0.26678,-0.1773 0.58371,-0.37565 0.99709,-0.71451zM238.96613,168.76982l0.00312,-0.00767c-0.05348,0.02503 -0.1086,0.04716 -0.16512,0.0662l0.03219,0.14486c0.01812,0.04874 0.03391,0.09862 0.04723,0.14949l0.0614,-0.20465z" fill="#c7c7c7" stroke="none" stroke-width="0.5" stroke-linecap="butt"/><path d="M232.17346,164.45738c0.19223,0 0.37264,0.09013 0.53514,0.21117c0.20257,-0.64431 0.70002,-1.39499 1.26502,-1.39544c0.29099,-1.09683 0.72555,-2.05036 1.62465,-2.6903c0.55424,-1.29162 1.52999,-2.27082 2.74906,-2.25674c0.55649,0.00643 0.97904,0.28443 1.26284,0.6862c0.79684,0.10081 1.55343,0.78612 2.55311,1.73521c0.4029,0.38251 1.10346,0.34125 1.49631,0.7341c0.09826,0.09826 0.20059,0.58168 0.26617,1.16055c0.48844,-0.11205 0.95206,-0.2161 1.29367,-0.20336c3.04375,0.1135 4.04227,2.32939 4.04227,5.13537c0,0.05329 0.00044,0.11323 0.00082,0.17785c0.02789,-0.01065 0.05617,-0.02054 0.08479,-0.02965c1.62846,-1.87136 4.29105,-3.77438 5.46818,-0.47841c0.41231,1.15447 0.20192,3.07252 0.10644,4.25197c-0.13975,1.72651 -1.86297,1.91121 -2.97962,0.79456c-0.56922,-0.56922 -0.18199,-1.60197 -0.19864,-2.40679c-0.00613,-0.29616 -0.33086,0.5045 -0.56504,0.68591c-0.3333,0.25817 -1.85359,0.56601 -2.15587,0.03701c-0.21539,-0.12712 -0.39819,-0.30361 -0.53282,-0.51391c-0.60051,0.41587 -1.45846,0.24801 -2.26388,-0.47595c-0.93326,-0.83887 0.75811,-3.85143 -1.07586,-3.98504c-0.4287,-0.03123 0.12911,0.71556 -0.01995,1.10742c-0.07466,0.19627 -0.72901,1.02407 -0.77583,1.07641c-0.58307,0.65166 -2.26528,-0.07666 -3.2773,-0.58636c-0.16021,0.00804 -0.31986,-0.02058 -0.48407,-0.08588c-0.57931,0.68011 -1.83993,0.26729 -2.76982,0.35642c-0.84268,1.40806 -4.09595,2.90218 -4.69096,2.36979l-0.13759,-0.17012c-0.16465,0.30712 -0.42009,0.57459 -0.78423,0.78267c-0.78953,0.45116 -2.57704,-1.29148 -3.35161,-1.67876c-0.28178,0.25449 -0.65518,0.40946 -1.06478,0.40946c-0.87765,0 -1.58913,-0.71148 -1.58913,-1.58913c0,-0.05848 0.00316,-0.11623 0.00932,-0.17308c-0.30035,-0.68992 -0.36702,-1.44388 0.03656,-2.02971c0.13606,-0.45749 0.38715,-0.88573 0.60643,-1.00771c0.59645,-0.33175 1.02737,0.40749 1.39847,0.37272c0.79785,-0.07475 0.92949,-1.25762 2.02767,-0.97383c0.41018,0.106 0.6037,0.54032 0.82684,0.9397c0.02836,0.02295 0.05668,0.0464 0.08492,0.07035c0.16574,-0.22172 0.47515,-0.36466 0.97829,-0.36466zM238.23417,163.63926c-0.0035,0.06632 0.01698,0.39516 0.01301,0.75833c0.26312,-0.01015 0.5446,-0.01644 0.82238,-0.00081c-0.15295,-0.50672 -0.31133,-0.96904 -0.55313,-1.25845c-0.13132,0.15651 -0.27257,0.31712 -0.28226,0.50093z" fill="#c7c7c7" stroke="none" stroke-width="0.5" stroke-linecap="butt"/><path d="M228.53918,173.92825c0.55537,0.98731 -0.25279,2.10057 0.1952,3.03965c0.67618,1.41736 3.02854,-0.18027 3.89237,1.33142c1.13327,1.98323 -1.89747,2.56535 -3.17311,2.4842c-2.71398,-0.17265 -3.96344,-2.55129 -3.98626,-4.89676c-0.00248,-0.25519 0.02821,-0.90425 0.10819,-1.39028c0.005,-0.03505 0.01114,-0.06973 0.01838,-0.10401c0.15203,-0.71911 0.79037,-1.25879 1.55475,-1.25879c0.51714,0 0.9766,0.24703 1.2668,0.62952c0.04736,0.04892 0.08906,0.10347 0.12369,0.16504z" fill="#c7c7c7" stroke="none" stroke-width="0.5" stroke-linecap="butt"/><path d="M250.15199,165.60985c0.00504,0 0.01007,0.00004 0.0151,0.00012c0.01656,-0.51206 0.43688,-0.9221 0.95297,-0.9221c0.25161,0 0.48044,0.09745 0.65083,0.25667c0.25996,-0.04758 0.51836,-0.04437 0.75705,0.02276c0.21208,0.05965 0.38446,0.22475 0.51516,0.45028c0.16566,-0.13895 0.37925,-0.22262 0.61238,-0.22262c0.52659,0 0.95348,0.42689 0.95348,0.95348c0,0.09633 -0.01428,0.18934 -0.04086,0.27699c0.24758,0.17222 0.40965,0.45883 0.40965,0.78328c0,0.52659 -0.42689,0.95348 -0.95348,0.95348c-0.37282,0 -0.69567,-0.21398 -0.85243,-0.52583c-0.10423,0.23465 -0.25671,0.4093 -0.45952,0.4769c-0.39655,0.13218 -0.86863,-0.44362 -1.23155,-0.23623c-0.16585,0.28103 -0.47177,0.46956 -0.82172,0.46956c-0.28162,0 -0.53472,-0.12209 -0.70927,-0.31624c-0.04205,0.21118 -0.10785,0.38453 -0.2082,0.48488c-0.63565,0.63565 -1.03294,0.63565 -1.66858,0c-0.73433,-0.73433 0.53134,-2.6874 0.11131,-3.48046c-0.43495,-0.82123 -2.39867,-1.08841 -3.30248,-1.0365c-0.05501,0.00987 -0.11167,0.01502 -0.16953,0.01502c-0.52659,0 -0.95348,-0.42689 -0.95348,-0.95348c0,-0.12669 0.02471,-0.24761 0.06957,-0.35821c0.22741,-0.90782 0.9143,-2.28781 1.91383,-1.67465c0.05752,0.03528 0.67761,1.19914 0.73889,1.1888c0.53162,-0.08969 1.0716,-0.42879 1.59174,-0.28693c0.10821,0.02951 0.16457,0.11825 0.19783,0.22721c0.02749,-0.00238 0.05531,-0.0036 0.08342,-0.0036c0.31912,0 0.60161,0.15676 0.77469,0.39748c0.24815,-0.04681 0.51058,-0.05311 0.69582,0.07039c0.75249,0.50166 0.34953,2.06184 0.19832,2.99819c0.0422,-0.00571 0.08527,-0.00866 0.12904,-0.00866z" fill="#c7c7c7" stroke="none" stroke-width="0.5" stroke-linecap="butt"/><path d="M240.17605,160.9139c-0.26564,-0.10373 -0.53389,-0.23722 -0.78402,-0.3878c-0.33073,0.00922 -0.76333,-0.11678 -1.07338,-0.3095c-0.14979,0.09795 -0.32882,0.15489 -0.52114,0.15489c-0.23093,0 -0.44269,-0.08209 -0.60767,-0.2187c-0.07368,0.24621 -0.24417,0.4506 -0.46728,0.569c-0.00565,0.42247 -0.28606,0.7786 -0.67066,0.89785c-0.0563,0.23909 -0.20259,0.44345 -0.40116,0.57538c-0.02908,0.18482 -0.11125,0.35201 -0.23041,0.48545c0.0076,0.0485 0.01155,0.09822 0.01155,0.14886c0,0.34928 -0.18782,0.65471 -0.46797,0.82078c0.06348,0.12768 0.09918,0.27162 0.09918,0.42389c0,0.52659 -0.42689,0.95348 -0.95348,0.95348c-0.12451,0 -0.24343,-0.02386 -0.35246,-0.06726c-0.06472,0.01387 -0.13187,0.02117 -0.20073,0.02117c-0.52659,0 -0.95348,-0.42689 -0.95348,-0.95348c0,-0.27526 0.11665,-0.52329 0.30321,-0.69733c-0.0174,-0.07203 -0.02662,-0.14726 -0.02662,-0.22464c0,-0.50258 0.38884,-0.91433 0.88209,-0.95084c-0.0041,-0.03591 -0.00621,-0.07242 -0.00621,-0.10943c0,-0.33177 0.16945,-0.62396 0.42652,-0.79475c0.05685,-0.36136 0.31668,-0.65531 0.65911,-0.76149c0.05098,-0.21649 0.17574,-0.40451 0.34629,-0.53606c-0.00189,-0.02453 -0.00286,-0.04933 -0.00286,-0.07435c0,-0.52659 0.42689,-0.95348 0.95348,-0.95348c0.00164,0 0.00329,0 0.00494,0.00001c0.11383,-0.39921 0.4813,-0.69149 0.91703,-0.69149c0.16721,0 0.32436,0.04304 0.46099,0.11864c0.13663,-0.0756 0.29379,-0.11864 0.46099,-0.11864c0.21002,0 0.40418,0.0679 0.56172,0.18295c0.61978,-0.27768 1.84566,0.07805 2.66021,0.76586c0.30682,0.0744 0.55564,0.29723 0.66614,0.58818c0.30851,0.11717 0.54042,0.38986 0.60001,0.72231c0.00983,-0.0003 0.01969,-0.00045 0.0296,-0.00045c0.52659,0 0.95348,0.42689 0.95348,0.95348c0,0.52659 -0.42689,0.95348 -0.95348,0.95348c-0.21524,0 -0.41384,-0.07133 -0.57343,-0.19163c-0.03868,0.00478 -0.07808,0.00724 -0.11805,0.00724c-0.15729,0 -0.30569,-0.03809 -0.43647,-0.10554c-0.1116,-0.01884 -0.21661,-0.05707 -0.31145,-0.11111c-0.33796,-0.14661 -0.57434,-0.48326 -0.57434,-0.87513c0,-0.03402 0.00178,-0.06763 0.00526,-0.10072c-0.10373,-0.03108 -0.20918,-0.0677 -0.31505,-0.10904z" fill="#c7c7c7" stroke="none" stroke-width="0.5" stroke-linecap="butt"/><path d="M232.66037,178.90197c0.01721,0.0117 0.03333,0.02648 0.04848,0.04382c0.22623,0.17434 0.37198,0.44799 0.37198,0.7557c0,0.01397 -0.0003,0.02785 -0.0009,0.04166c0.01633,-0.00395 0.03401,-0.01635 0.05344,-0.03877c0.40943,-0.47267 0.48843,-1.00746 1.26003,-1.00841c1.04745,-0.0013 0.79238,1.49309 1.45356,1.66549c0.69718,0.18179 1.34617,-0.53395 2.04276,-0.55319c0.71083,-0.01964 1.98921,-0.24692 2.73557,0.02699c0.17942,0.06585 0.39069,0.6298 0.4694,0.63234c1.32907,0.04295 3.04854,-1.00069 4.38287,-1.33784c1.24431,-0.3144 2.71944,-0.36261 3.83314,-0.69599c0.40573,-0.12145 1.44076,0.54128 1.2607,0.15795c-0.54073,-1.15115 1.84766,-1.58137 2.16208,-2.40693c0.40837,-1.07225 1.00987,-1.87502 1.43812,-2.86359c0.00653,-0.01506 -0.75453,-0.99064 -0.73793,-1.23323c0.11005,-1.60873 2.3483,-0.4416 2.59592,0.54886c0.50054,2.00217 -0.62455,7.03995 -2.94194,7.76552c-0.97138,0.30414 -2.37502,0.29158 -3.33612,-0.02287c-0.40469,-0.13241 -1.83388,0.93588 -2.38011,1.06855c-0.92183,0.22389 -2.17669,-0.20102 -2.91654,0.00505c-0.80687,0.22474 -2.80155,1.26993 -3.57594,1.09784c-0.40066,-0.08904 -1.08549,-0.85547 -1.29375,-0.87604c-1.90937,-0.18861 -3.76088,1.4681 -5.32221,-0.23546c-0.43917,-0.47918 -1.30142,0.47028 -1.92745,0.29545c-0.73177,-0.20436 -0.76864,-1.02234 -1.0524,-1.58985c-0.06975,-0.13249 -0.10924,-0.28343 -0.10924,-0.44356c0,-0.52659 0.42689,-0.95348 0.95348,-0.95348c0.08476,0 0.16694,0.01106 0.24517,0.03182c0.10167,0.02188 0.19931,0.062 0.28784,0.12215z" fill="#c7c7c7" stroke="none" stroke-width="0.5" stroke-linecap="butt"/><path d="M224.95055,167.48531c0,-0.52659 0.42689,-0.95348 0.95348,-0.95348c0.52659,0 0.95348,0.42689 0.95348,0.95348c0,0.29572 -0.13463,0.56 -0.34593,0.73489c0.18459,0.17388 0.29984,0.42057 0.29984,0.69417c0,0.42363 -0.27627,0.78273 -0.65848,0.90696c0.49675,1.09846 0.19708,3.37953 0.6499,4.17196c0.28103,0.16585 0.46956,0.47177 0.46956,0.82172c0,0.24644 -0.0935,0.47106 -0.24696,0.64029c-0.34925,1.61919 1.23996,3.09243 0.05834,3.35992c-3.1276,0.70801 -2.50646,-5.28881 -2.66883,-6.39873c-0.0864,-0.5906 -0.63367,-2.50599 -0.17498,-2.96469c0.15089,-0.15089 0.28833,-0.26595 0.41873,-0.3452c-0.07833,-0.13844 -0.12302,-0.29841 -0.12302,-0.46882c0,-0.3514 0.1901,-0.6584 0.47306,-0.82378c-0.03762,-0.10247 -0.05817,-0.21318 -0.05817,-0.32869z" fill="#c7c7c7" stroke="none" stroke-width="0.5" stroke-linecap="butt"/><path d="M249.15356,174.63062v0.13829c0,1.41905 0.38489,2.53738 0.50538,3.92422c0.06413,0.73806 -0.06518,1.41925 0.31229,2.07084c0,0 0.0422,0.07738 0.05705,0.18374c0.10209,0.03748 0.2097,0.06676 0.32311,0.0871l-0.015,-0.01221c0,0 0.42159,0 0.47185,0.39646c0.28555,-0.04884 0.55047,-0.12813 0.78474,-0.25121c0.70995,-0.37299 1.43124,-1.30553 2.08847,-1.8258c1.6905,-0.78142 1.06142,-2.07016 1.70678,-3.52596c0.34744,-0.78374 0.85829,-1.34374 0.58226,-2.32152c-0.25193,-0.89244 -0.98563,-1.26817 -0.99353,-2.39527l-0.04504,-0.58102c0,0 -0.00219,-0.02848 0.00147,-0.07204l-0.08859,-0.53153l0.08571,-0.01428c0,-0.14578 0,-0.44786 0,-0.59363c-0.06293,-0.99601 0.29883,-1.90318 0.01478,-3.08666c-0.1946,-0.81079 -1.25617,-0.57915 -1.84711,-0.65788c-0.96123,-0.12807 -0.9969,-0.44539 -1.57928,-1.01971c-0.15477,-0.15263 -0.66794,-0.07862 -1.14144,0.02941c-0.33727,0.60758 -0.53927,1.14042 -0.65717,1.65842c-0.03742,0.38816 -0.07701,0.77571 -0.1446,1.15443c-0.02684,0.6674 0.01955,1.38205 0.03634,2.26427c0.02237,1.1752 -0.60369,1.08136 -0.91596,1.90554c-0.0251,0.06625 -0.04788,0.13761 -0.06861,0.21322c0.15268,0.41925 0.30064,0.82843 0.42775,1.21907c0.00152,0.35999 0.04564,0.85677 -0.08286,1.25566c0.18122,0.13789 0.18122,0.38806 0.18122,0.38806zM247.7852,167.808c0,-0.2633 0.21344,-0.47674 0.47674,-0.47674c0.12369,0 0.23637,0.0471 0.32109,0.12434c0.02137,-0.58493 0.09478,-1.13376 0.25676,-1.69879c0.00575,-0.06068 0.01153,-0.12135 0.01743,-0.18198c-0.23675,-0.08859 -0.28311,-0.29024 -0.28654,-0.42062c-1.33397,1.06311 -1.16968,2.78226 -0.64598,4.56c0.10709,-0.47357 0.24503,-0.95001 0.40933,-1.43489c-0.02351,0.00357 -0.04759,0.00542 -0.07209,0.00542c-0.2633,0 -0.47674,-0.21344 -0.47674,-0.47674zM248.43058,163.65911c0,-0.2633 0.21344,-0.47674 0.47674,-0.47674c0.22381,0 0.41159,0.15422 0.46289,0.36219c-0.04112,-0.6636 -0.13776,-1.34035 -0.59613,-1.58592c-0.97532,-0.52256 -1.86121,0.8729 -2.56517,0.6875c-0.72682,-0.19143 -0.7437,-2.13087 -1.75581,-2.19906c-0.97683,-0.06582 -0.12034,0.70567 0.06853,0.99426l-0.03301,0.14333h0.05506v0.55319c0,0.2633 -0.21344,0.47674 -0.47674,0.47674c-0.12329,0 -0.23565,-0.0468 -0.32029,-0.12361l-0.45962,-0.41367l0.15687,-0.17431c-1.02091,-1.12541 -1.73082,-2.93153 -3.18582,-3.26852c-0.91398,-0.21168 -1.55633,0.22799 -2.42567,0.19987c-1.28446,-0.04154 -1.59543,-0.39678 -2.48971,0.74565c-0.825,1.61955 -1.54785,2.68631 -2.06724,4.44658l-0.0196,0.16119c0.01382,0.13458 -0.03674,0.23803 -0.09901,0.31231c-0.02779,0.04166 -0.06393,0.0825 -0.11071,0.11562c0.15164,0.16296 0.25687,0.38447 0.29049,0.67981c0.16076,1.41207 -0.44585,3.03453 -0.36466,4.51119c0.03947,0.71791 0.43496,1.03946 0.54884,1.75677c0.20248,1.27552 0.14357,2.5639 0.14357,3.8508c-0.00107,0.52863 -0.21164,1.23167 -0.10193,1.7481c0.19845,0.93425 1.10668,1.20189 1.16082,2.27225c0.04704,0.93007 -0.86376,1.75821 -1.8251,2.17161c2.55514,0.52216 5.22751,0.1403 7.89967,0.01801c0.952,-0.04357 1.32331,0.68487 2.09037,0.68952c1.05476,0.04947 2.5959,-0.68128 3.72801,-0.8698c0.00798,-0.00133 0.01597,-0.00263 0.02399,-0.00391c-0.04675,-0.07163 -0.08574,-0.14938 -0.11529,-0.23403c-0.32162,-0.9211 0.73311,-1.57223 1.05239,-2.27013c-0.1092,-0.43466 -0.18214,-0.88958 -0.227,-1.34764c-0.33869,-0.9433 -0.66101,-2.09078 -0.27154,-3.03486c0.06407,-0.15531 0.19262,-0.25551 0.34611,-0.33459c0.04389,-0.65593 0.07278,-1.58133 0.20947,-2.3354c-0.84775,-2.1491 -2.02026,-5.22132 -0.55955,-6.88024c0.30161,-0.34254 0.89434,-0.69901 1.51108,-0.99201c-0.09541,-0.08717 -0.15526,-0.21262 -0.15526,-0.35204zM248.50489,181.41586c0,0 0.0127,0.00423 0.03316,0.01342c0.15762,0.00987 0.31603,0.02009 0.47409,0.02916l-0.04663,-0.08469c-0.44611,-0.36325 -0.78217,-0.8447 -1.03153,-1.39567c-0.45105,0.63971 -0.77492,0.99435 0.57091,1.43777zM248.20338,182.3204c-0.03708,-0.01248 -0.07516,-0.0251 -0.11405,-0.03796c-0.27841,-0.0086 -0.54779,-0.00707 -0.80224,0.01469c-1.5036,0.12859 -3.00918,0.93239 -4.43852,0.96929c-0.84805,-0.10392 -1.17166,-0.75181 -2.00411,-0.68985c-2.98235,0.22201 -6.09552,0.56316 -8.92457,-0.22548c-0.76391,-0.21295 -1.31301,0.01411 -1.82452,-0.61526c-1.34734,1.74359 -2.01693,-0.81747 -3.31172,-1.15101c-0.21889,-0.05639 -0.45851,0.2065 -0.6674,0.12013c-1.25989,-0.52098 -1.12089,-2.5387 -1.79621,-3.44272c-1.1163,-1.49436 -1.43051,-2.67379 -1.27891,-4.6234c0.81278,-2.20541 0.39001,-5.69685 2.55269,-6.01309c0.25692,-0.03757 0.10556,-0.50901 0.178,-0.75834c0.2832,-0.97475 0.23181,-1.50229 1.19379,-1.88126c0,0 0.05222,-0.01567 0.12663,-0.01874c0.01267,-0.01536 0.02665,-0.03074 0.04204,-0.04612c0.26315,-0.26315 0.52631,-0.11545 0.6291,-0.03798c0.7265,0.16717 1.46089,-1.00168 2.53242,-0.61232c0.38092,0.13842 0.30563,0.79906 0.63285,1.03821c0.08126,0.05939 0.09814,-0.19741 0.19239,-0.23276c0.43296,-0.16239 0.80606,-0.08911 1.22346,-0.21072l0.01771,-0.11311c0.56157,-1.83491 1.34334,-3.00022 2.17385,-4.68097c1.07967,-1.39483 1.72239,-1.27838 3.31873,-1.1905c1.72661,0.09506 2.68053,-0.63723 4.07079,0.84222c0.29129,0.30998 0.85705,0.79343 1.31313,1.32246c0.17313,-0.3412 0.57308,-0.5696 1.27184,-0.55049c0.72454,0.01981 1.409,0.88648 1.75523,1.41661c0.07423,0.11365 0.17364,0.34818 0.22834,0.53917c0.17636,-0.15359 0.5167,-0.3085 0.70835,-0.36904c0.59486,-0.18789 1.45101,-0.26181 2.02247,0.03642c0.50296,0.26247 1.17159,1.45833 1.10967,2.25226c0.08291,-0.00906 0.20282,-0.00548 0.30938,0.06108c0.72338,-0.12252 1.56084,0.88503 2.06039,1.08591c0.70064,0.28174 1.56451,-0.02665 2.26456,0.3254c1.14172,0.57416 0.95411,1.86244 0.81872,2.88906c-0.04521,0.34284 0.01997,0.7939 0.02595,1.20005c0.01649,0.02943 0.02912,0.05928 0.03879,0.08773c0.02039,0.05307 0.03157,0.11072 0.03157,0.17097c0,0.1844 0,0.36879 0,0.55318v0.64538c0,0.0159 -0.00077,0.03162 -0.0023,0.04712c0.00066,0.00551 0.00089,0.00851 0.00089,0.00851l0.04715,0.61755c-0.00895,1.06983 0.65869,1.22556 0.94263,2.12242c0.36924,1.16632 -0.17486,2.06637 -0.61632,3.02594c-0.75053,1.63141 -0.07912,3.02306 -2.07332,3.94205c-0.67765,0.54874 -1.40204,1.46666 -2.15262,1.8621c-0.96538,0.50861 -2.26312,0.36017 -3.46148,0.2897c-0.17489,0.07893 -0.36525,0.01547 -0.36525,0.01547zM231.33065,180.98018l0.42792,-0.04978c0.24687,0.01124 0.50728,-0.06597 0.71314,-0.2027c0.28126,-0.18681 1.18337,-0.60931 1.34651,-0.91004c0.3796,-0.69975 -1.05454,-1.87109 -1.18979,-2.46355c-0.1363,-0.5971 0.08385,-1.33009 0.08246,-1.93981c0,-2.58584 -0.8341,-4.89636 -0.69082,-7.40079c0.03699,-0.64668 0.74927,-2.47213 0.09742,-2.80672c-0.07612,0.05148 -0.16791,0.08153 -0.26671,0.08153c-0.10705,0 -0.20585,-0.03528 -0.28543,-0.09486c-0.05486,0.00318 -0.14914,0.00104 -0.24245,-0.03671c-0.31418,0.07198 -0.57432,0.10815 -0.67054,0.06501c-0.40053,-0.17959 -0.32512,-0.9725 -0.75011,-1.08233c-0.93554,-0.24176 -1.42376,0.83817 -2.45386,0.63666c-0.0965,0.08964 -0.20879,0.12333 -0.20879,0.12333c-0.57705,0.03259 -0.49168,1.45373 -0.76457,1.95625c-0.44374,0.81713 -0.92851,0.68201 -1.4935,0.92611c-0.25752,0.11126 0.13174,0.5791 0.03125,0.84102c-0.50066,1.30509 -0.50578,2.82366 -1.04013,4.21949c-0.10813,1.71146 0.20441,2.56609 1.11824,3.85878c0.32007,0.45276 0.76694,3.00162 1.33851,3.1033c0.18173,0.03233 0.35506,-0.21174 0.53117,-0.15646c0.76421,0.23985 1.07754,0.78165 1.64196,1.25152c0.22816,0.18994 0.42521,0.77033 0.66383,0.59373c0.33031,-0.24445 0.62978,-0.56472 1.02072,-0.69132c0.20433,0.17646 0.4489,0.28469 0.71029,0.36281c0.12259,-0.15814 0.33329,-0.18447 0.33329,-0.18447z" fill="#000000" stroke="none" stroke-width="0.5" stroke-linecap="butt"/><path d="M233.01783,164.60128c0.04678,-0.03313 0.0831,-0.07431 0.11089,-0.11596c0.06228,-0.07429 0.11322,-0.17845 0.09939,-0.31302l0.01979,-0.1615c0.51938,-1.76028 1.24936,-2.83556 2.07436,-4.45511c0.89428,-1.14244 1.20992,-0.79046 2.49438,-0.74891c0.86934,0.02812 1.51678,-0.41388 2.43076,-0.20221c1.45501,0.33699 2.1718,2.14149 3.19271,3.2669l-0.15753,0.17439l0.4612,0.41348c0.08463,0.07681 0.19824,0.12352 0.32153,0.12352c0.2633,0 0.47866,-0.21348 0.47866,-0.47678l-0.00052,-0.48962h-0.05487l0.03289,-0.14333c-0.18887,-0.28859 -1.04526,-1.12364 -0.06842,-1.05782c1.01211,0.06819 1.03596,2.00839 1.76277,2.19981c0.70396,0.1854 1.59731,-1.20739 2.57265,-0.68483c0.79332,0.42504 0.50984,2.14624 0.72358,2.8509c0.17959,-0.03535 1.7403,-0.54597 2.03124,-0.25905c0.58238,0.57433 0.62134,0.89639 1.58257,1.02446c0.59094,0.07874 1.65433,-0.14914 1.84892,0.66165c0.28405,1.18348 -0.07559,2.09911 -0.01266,3.09512c0,0.14578 0.00015,0.44963 0.00015,0.59542l-0.08571,0.01432l0.08863,0.53315c-0.00366,0.04356 -0.00147,0.07226 -0.00147,0.07226l0.04499,0.58277c0.0079,1.1271 0.74059,1.509 0.99252,2.40144c0.27602,0.97778 -0.23703,1.54366 -0.58446,2.32741c-0.64536,1.45581 -0.02194,2.75259 -1.71244,3.534c-0.65723,0.52027 -1.38378,1.45721 -2.09374,1.8302c-1.2874,0.67636 -3.51204,0.035 -4.98828,0.28084c-1.13212,0.18853 -2.68354,0.91959 -3.7383,0.87011c-0.76706,-0.00465 -1.14409,-0.7344 -2.09609,-0.69084c-2.67216,0.12229 -5.35749,0.49602 -7.91262,-0.02614c0.96135,-0.41341 1.87166,-1.24206 1.82461,-2.17213c-0.05414,-1.07036 -0.96606,-1.34287 -1.16451,-2.27713c-0.1097,-0.51643 0.09905,-1.22285 0.10012,-1.75148c0,-1.28689 0.05617,-2.58533 -0.14631,-3.86085c-0.11387,-0.71732 -0.50948,-1.04385 -0.54895,-1.76177c-0.08119,-1.47666 0.5283,-3.11069 0.36755,-4.52277c-0.03362,-0.29534 -0.13831,-0.51796 -0.28994,-0.68092z" fill="#c7c7c7" stroke="none" stroke-width="0.5" stroke-linecap="butt"/><path d="M231.00505,181.1955c-0.26139,-0.07813 -0.50828,-0.18586 -0.7126,-0.36233c-0.39094,0.12661 -0.6945,0.4473 -1.02481,0.69175c-0.23863,0.1766 -0.43818,-0.40379 -0.66634,-0.59373c-0.56442,-0.46986 -0.88526,-1.01287 -1.64948,-1.25272c-0.17611,-0.05527 -0.35136,0.18818 -0.53308,0.15585c-0.57156,-0.10169 -1.03008,-2.65784 -1.35014,-3.1106c-0.91383,-1.2927 -1.23585,-2.1698 -1.12772,-3.88125c0.53436,-1.39584 0.54959,-2.93783 1.05026,-4.24293c0.10048,-0.26192 -0.2867,-0.73154 -0.02918,-0.8428c0.56499,-0.2441 1.05728,-0.11335 1.50103,-0.93048c0.27289,-0.50252 0.19298,-1.92535 0.77004,-1.95794c0,0 0.11316,-0.03386 0.20966,-0.1235c1.03009,0.20152 1.52761,-0.87873 2.46315,-0.63697c0.42499,0.10983 0.35308,0.90333 0.75361,1.08292c0.09622,0.04314 0.3588,0.00764 0.67299,-0.06434c0.09331,0.03775 0.1885,0.04019 0.24336,0.037c0.07957,0.05957 0.17949,0.09526 0.28654,0.09526c0.09881,0 0.19137,-0.02973 0.26749,-0.08121c0.65186,0.33459 -0.05548,2.16264 -0.09248,2.80932c-0.14327,2.50443 0.69979,4.85961 0.69979,7.44545c0.00139,0.60972 -0.22486,1.34935 -0.08856,1.94645c0.13524,0.59246 1.56749,1.76523 1.18789,2.46499c-0.16314,0.30072 -1.07044,0.72619 -1.35171,0.91299c-0.20585,0.13673 -0.46879,0.21496 -0.71566,0.20371l-0.42942,0.05026c0,0 -0.21202,0.0267 -0.33461,0.18484z" fill="#c7c7c7" stroke="none" stroke-width="0.5" stroke-linecap="butt"/><path d="M249.18391,181.72983l-1.70566,-0.87588l-1.01417,-2.30493l-0.23049,-2.30494l0.23049,-2.35104l1.19857,-6.73043l2.35104,-2.76593" fill="none" stroke="#000000" stroke-width="1.5" stroke-linecap="round"/><path d="M246.1414,163.24422l1.47516,2.81203" fill="none" stroke="#000000" stroke-width="1.5" stroke-linecap="round"/><path d="M244.57404,162.59883l1.10637,0.50709" fill="none" stroke="#000000" stroke-width="1.5" stroke-linecap="round"/><path d="M247.38606,168.03849v-1.79786" fill="none" stroke="#000000" stroke-width="1.5" stroke-linecap="round"/><path d="M225.98047,171.5881c0,-0.2633 0.21344,-0.47674 0.47674,-0.47674c0.2633,0 0.47674,0.21344 0.47674,0.47674c0,0.2633 -0.21344,0.47674 -0.47674,0.47674c-0.2633,0 -0.47674,-0.21344 -0.47674,-0.47674z" fill="#c7c7c7" stroke="none" stroke-width="0.5" stroke-linecap="butt"/><path d="M233.69341,178.96826c0.45663,0.13699 0.31964,0.59362 0.31964,0.59362l-0.14241,0.47402c-0.62675,1.54949 -2.14648,1.2369 -3.56095,1.15608c-0.64777,-0.03701 -0.91112,0.29131 -1.60611,0.06815c-0.79157,-0.25417 -1.03762,-1.00959 -1.66947,-1.43109c-0.46632,-0.31108 -1.21048,-0.18996 -1.55989,-0.62829c-0.52638,-0.66034 -0.47416,-1.63927 -0.57051,-2.42248c-0.32391,-0.58007 -0.74862,-0.27249 -1.13547,-1.02007c-0.33852,-0.65421 -0.4139,-2.13392 -0.31899,-2.85041c0.26082,-1.96893 1.63328,-2.85205 1.24814,-4.9223c0,0 -0.08528,-0.46904 0.38377,-0.55433c0.46904,-0.08528 0.55433,0.38377 0.55433,0.38377c0.48865,2.74127 -2.09247,4.74896 -1.007,7.53208c0.12345,0.31652 0.92723,0.7378 1.16947,1.10047c0.10936,0.69786 0.05601,1.56091 0.44366,2.1874c0.23121,0.37366 0.91214,0.16076 1.29824,0.38589c0.56007,0.32657 0.83069,1.10718 1.46524,1.33484c0.41763,0.14983 0.87874,-0.13133 1.34422,-0.11625c0.79692,0.02582 2.33625,0.46561 2.61629,-0.50347l0.13418,-0.44796c0,0 0.13699,-0.45663 0.59362,-0.31964z" fill="#939393" stroke="none" stroke-width="0.5" stroke-linecap="butt"/><path d="M247.86279,181.36104c0,0.47674 -0.47674,0.47674 -0.47674,0.47674l-0.05992,-0.00649c-0.82696,0.13734 -1.81906,0.08447 -2.5568,0.47174c-1.52765,0.61225 -2.32794,0.04264 -3.81414,-0.14761c-2.33602,-0.29904 -4.77448,0.36157 -7.12218,0.02493v0.07232h-0.55319c-0.2633,0 -0.47674,-0.21344 -0.47674,-0.47674c0,-0.12106 0.04513,-0.2316 0.11948,-0.31567l0.32117,-0.36705l0.02519,0.02204l0.04213,-0.08537c0.45663,-0.23341 0.7308,-0.45482 1.0801,-0.82199c-0.20007,-1.1133 -0.90437,-1.84028 -1.11907,-2.86262c-0.299,-1.42385 0.55836,-2.9752 0.23355,-4.45645c-0.34858,-1.58967 -1.02594,-2.5455 -1.02475,-4.27265c0.24207,-2.66363 0.68498,-4.97899 1.74315,-7.44849c0.52522,-1.22572 0.74283,-2.04699 2.05324,-2.60462c0,0 0.44007,-0.18336 0.62343,0.25671c0.18336,0.44007 -0.2567,0.62343 -0.2567,0.62343c-1.04129,0.42231 -1.1214,1.11514 -1.54247,2.09746c-1.01362,2.3647 -1.43606,4.56664 -1.66816,7.11873c0.0012,1.64785 0.67168,2.48829 1.00359,4.02513c0.32422,1.50118 -0.48852,3.05906 -0.22744,4.48671c0.21112,1.15444 1.03656,1.95894 1.09367,3.31462c-0.21818,0.29613 -0.40439,0.53933 -0.61814,0.74874c0.75063,-0.04435 1.71499,0.06461 2.09827,0.06461c1.38498,0 2.94686,-0.26753 4.31032,-0.08714c1.29034,0.17072 1.98519,0.74001 3.28508,0.22118c0.85675,-0.4126 1.85407,-0.38576 2.79065,-0.54244l0.21667,-0.00649c0,0 0.47674,0 0.47674,0.47674z" fill="#939393" stroke="none" stroke-width="0.5" stroke-linecap="butt"/><path d="M234.84399,173.17723c-0.39056,0.27339 -0.66395,-0.11717 -0.66395,-0.11717l-0.32577,-0.46544c-0.51805,-0.77698 -0.72563,-1.25233 -0.72848,-2.20508c0.00173,-2.78648 0.43183,-5.48887 1.41319,-8.09604c0.18955,-0.50357 0.61402,-1.51556 1.10975,-2.11371c0.04271,-0.19489 0.09033,-0.38967 0.14545,-0.58585l0.06027,-0.04623l-0.0265,-0.01686l0.31838,-0.50031c0.08386,-0.13651 0.23456,-0.22756 0.40651,-0.22756c0.2633,0 0.47674,0.21344 0.47674,0.47674c0,0.06018 -0.01115,0.11775 -0.0315,0.17077l-0.22678,0.63496l-0.12119,-0.04328c-0.11988,0.47614 -0.19215,0.95486 -0.273,1.43993c-0.35776,1.96796 -1.52138,4.04654 -1.06595,6.07808c0.25442,1.13493 1.44774,2.25619 2.06433,3.22777c0.53608,0.84474 0.80567,1.96242 1.14786,2.8995c1.10038,3.18627 4.65824,6.51144 7.9799,7.11235c0,0 0.46904,0.08528 0.38376,0.55433c-0.08528,0.46904 -0.55433,0.38377 -0.55433,0.38377c-3.65735,-0.6686 -7.48869,-4.22246 -8.70787,-7.73146c-0.31465,-0.8694 -0.56259,-1.94499 -1.06489,-2.72455c-0.69418,-1.07737 -1.87875,-2.23815 -2.17675,-3.50265c-0.05826,-0.24718 -0.09491,-0.49373 -0.11354,-0.73969c-0.14084,1.1274 -0.19111,2.2699 -0.1904,3.34999c-0.00271,0.7833 0.13645,1.02839 0.56228,1.66721l0.31961,0.45653c0,0 0.27339,0.39056 -0.11717,0.66395z" fill="#939393" stroke="none" stroke-width="0.5" stroke-linecap="butt"/><path d="M236.58379,180.74156c0.00105,0.00355 0.0021,0.00711 0.00315,0.01066c0.01827,-0.00166 0.03654,-0.00328 0.05483,-0.00488c-0.01996,-0.00185 -0.03932,-0.00378 -0.05798,-0.00579zM236.99809,181.97395c0.02035,0.05302 0.0315,0.11059 0.0315,0.17077c0,0.2633 -0.21344,0.47674 -0.47674,0.47674c-0.09621,0 -0.18576,-0.0285 -0.26068,-0.07752l-0.80005,-0.50529l0.09008,-0.14263c-0.02211,-0.01402 -0.04415,-0.02824 -0.06607,-0.04262c-0.35267,0.06442 -0.70132,0.14437 -1.04505,0.24264c0,0 -0.4584,0.13097 -0.58937,-0.32742c-0.13097,-0.45839 0.32742,-0.58937 0.32742,-0.58937c0.09328,-0.02663 0.18688,-0.05199 0.28079,-0.07611l-0.02078,-0.12469l0.00337,-0.00056l-0.00458,-0.00711c-0.03634,-0.27539 -0.06214,-0.55245 -0.07803,-0.83006c-0.14793,-0.45861 -0.17614,-0.99423 -0.2451,-1.47782c-0.17067,-1.19682 -0.16014,-2.29681 -0.11343,-3.40209c-0.30521,-2.43688 -0.66473,-4.94045 -0.37557,-7.2235l-0.12273,0.00491l-0.03799,-0.94974c-0.00033,-0.0073 -0.0005,-0.01464 -0.0005,-0.02202c0,-0.2633 0.21344,-0.47674 0.47674,-0.47674c0.25039,0 0.4557,0.19304 0.47522,0.43842l0.03907,0.42978l0.07624,0.17174c1.06061,0.92882 2.06536,1.9971 2.48719,3.38242c0.65446,1.63357 0.67687,3.58478 1.77559,5.03463c0.51308,0.67705 1.35289,1.03738 1.91459,1.67891c0.87535,0.99976 1.57513,1.87942 2.48962,2.69702l0.42891,0.09898c0.12751,0.0266 0.23632,0.10415 0.30418,0.21037c0.30982,0.04196 0.61399,0.10192 0.91569,0.18339l0.01913,-0.00318v-0.07794h0.50708c0.2633,0 0.47674,0.21344 0.47674,0.47674c0,0.23929 -0.1763,0.43741 -0.40609,0.47155l-0.54546,0.0909l-0.00288,-0.01732l-0.03617,0.02218c-2.58691,0.00579 -5.36835,-0.41744 -7.99815,-0.20591zM236.32176,173.37914c-0.00755,-0.03607 -0.01551,-0.07192 -0.0239,-0.10752l-0.02715,0.01728c0.0175,0.02991 0.03452,0.05998 0.05106,0.09024z" fill="#939393" stroke="none" stroke-width="0.5" stroke-linecap="butt"/><path d="M225.79608,179.60929c0,-0.47674 0.47674,-0.47674 0.47674,-0.47674h0.50709c0.07528,0.00031 0.1606,-0.0084 0.25282,-0.0227c-0.41071,-0.18974 -1.06506,-0.31589 -1.31618,-0.67741c-0.28181,-0.40573 -0.41095,-0.98459 -0.46992,-1.56104c-0.03189,-0.06396 -0.04983,-0.1361 -0.04983,-0.21243c0,-0.04953 0.00756,-0.09731 0.02158,-0.14221c-0.00456,-0.07726 -0.00815,-0.1538 -0.01096,-0.22919c-0.09471,-0.12929 -0.18028,-0.27621 -0.25613,-0.43578l-0.21639,0.51936c-0.0693,0.17768 -0.24211,0.30357 -0.44432,0.30357c-0.2633,0 -0.47674,-0.21344 -0.47674,-0.47674v-0.50708c0,-0.82195 -0.4445,-3.83741 0.83145,-4.02614c0.11095,-0.01641 0.21422,0.00456 0.31028,0.05612c-0.08793,-0.8221 -0.06808,-1.64569 0.01236,-2.56924c0.04866,-0.55857 -0.1119,-1.35468 0.3224,-1.81904c0.18904,-0.20212 1.03423,-0.21064 1.14226,-0.58516c0.27004,-0.93621 0.00333,-1.49251 0.91265,-2.14814c0,0 0.39667,-0.26445 0.66112,0.13222c0.26444,0.39667 -0.13222,0.66112 -0.13222,0.66112c-0.69089,0.39579 -0.28651,1.07858 -0.56251,1.72416c-0.32079,0.75033 -0.88924,0.52435 -1.34708,0.89c-0.13386,0.1069 -0.03329,1.07262 -0.04638,1.22347c-0.13316,1.53381 -0.10509,2.7428 0.38475,4.21507c0.34585,0.79052 0.44202,2.00294 0.84103,2.93312c0.28318,0.12208 0.53366,0.26224 0.66641,0.46041c0.11409,0.17032 0.20292,0.41035 0.27484,0.67382c0.74499,0.489 1.73564,0.94576 2.56918,1.1222c0.50951,0.10785 1.96161,-0.00521 2.34103,0.35013c1.39507,1.30654 -0.61705,1.76925 -1.5093,1.79167c-0.31092,0.06027 -0.66338,0.06062 -0.97604,0.00767c-0.22855,0.00531 -0.45722,0.01473 -0.68737,0.03143l-0.46357,0.12643c-0.04309,0.0128 -0.08873,0.01967 -0.13597,0.01967c-0.20628,0 -0.38196,-0.13101 -0.44838,-0.31436c-0.20913,0.06569 -0.46952,0.03873 -0.77665,-0.1296c-0.19303,-0.10579 -0.32597,-0.27364 -0.42024,-0.47966c-0.26591,0.03023 -0.53257,0.0468 -0.79798,0.04773h-0.50709c0,0 -0.47674,0 -0.47674,-0.47674zM232.2833,179.81943c0.12216,-0.00662 0.09896,-0.0181 -0.01268,-0.03365c0.00449,0.01131 0.00871,0.02253 0.01268,0.03365z" fill="#939393" stroke="none" stroke-width="0.5" stroke-linecap="butt"/><path d="M249.97331,181.82681c-0.37227,0.29782 -0.67009,-0.07445 -0.67009,-0.07445l-0.15852,-0.19943c-0.72428,-0.80511 -2.17309,-1.4308 -2.60208,-2.43453c-0.62101,-1.45306 0.34577,-3.48915 0.45213,-4.97851c0.31708,-3.76923 0.60268,-6.82454 3.25558,-9.72457c0,0 0.32214,-0.35143 0.67357,-0.02928c0.35143,0.32215 0.02929,0.67357 0.02929,0.67357c-2.50894,2.73097 -2.71404,5.59698 -3.00781,9.15384c-0.08986,1.25767 -1.0409,3.33604 -0.51826,4.5489c0.34485,0.80025 1.82785,1.48812 2.42628,2.15275l0.19435,0.24165c0,0 0.29782,0.37227 -0.07445,0.67009z" fill="#939393" stroke="none" stroke-width="0.5" stroke-linecap="butt"/><path d="M248.65197,165.76439c-0.2771,0.38794 -0.66504,0.11084 -0.66504,0.11084l-0.47969,-0.44555c-0.57046,-1.57234 -0.50719,-2.0794 -2.15072,-2.71797c0,0 -0.08505,-0.03307 -0.16625,-0.10749c-0.15494,-0.04781 -0.25377,-0.17134 -0.25377,-0.17134l-0.12089,-0.16204c-0.46415,-0.42422 -0.65535,-0.81545 -0.97424,-1.34607c0,0 -0.24529,-0.4088 0.16351,-0.65408c0.4088,-0.24528 0.65408,0.16352 0.65408,0.16352c0.26572,0.44353 0.39761,0.78859 0.7901,1.12399l0.20895,0.25134c0.02771,0.00715 0.0441,0.01353 0.0441,0.01353c1.89275,0.73672 2.06275,1.52871 2.70121,3.28077l0.13782,-0.00447c0,0 0.38794,0.2771 0.11084,0.66504z" fill="#939393" stroke="none" stroke-width="0.5" stroke-linecap="butt"/></g></g></svg>