<svg version="1.1" xmlns="http://www.w3.org/2000/svg" xmlns:xlink="http://www.w3.org/1999/xlink" width="770.89367" height="770.89367" viewBox="0,0,770.89367,770.89367"><g transform="translate(148.44983,212.95432)"><g data-paper-data="{&quot;isPaintingLayer&quot;:true}" fill-rule="nonzero" stroke-linecap="butt" stroke-miterlimit="10" stroke-dasharray="" stroke-dashoffset="0" style="mix-blend-mode: normal"><g fill="#ff3333" stroke="none" stroke-width="1" stroke-linejoin="miter"><path d="M236.99692,557.93918c-212.87603,0 -385.44675,-172.57039 -385.44675,-385.44675c0,-212.87603 172.57039,-385.44675 385.44692,-385.44675c212.87636,0 385.44675,172.57039 385.44675,385.44692c0,212.87603 -172.57039,385.44675 -385.44675,385.44675z"/><path d="M543.23198,142.37419c-100.36105,-100.36105 -200.71064,-200.71064 -301.0717,-301.0717c178.86656,2.74709 323.29081,147.16004 326.02693,326.02693z"/><path d="M391.29507,465.4223c-149.76334,-148.51688 -298.61153,-297.96054 -446.79727,-448.04406c45.85026,-86.25056 128.4602,-149.9841 227.14407,-169.73192l390.21281,390.21281c-19.82495,98.99291 -83.90061,181.81247 -170.55945,227.56333z"/><path d="M-45.97041,104.90851c127.04816,128.37192 254.86835,255.97151 383.06356,383.18491c-31.61858,10.02851 -65.15671,15.72102 -100.09607,15.72102c-182.98196,0 -331.32213,-148.34034 -331.32213,-331.32213c0,-35.10493 5.7477,-68.80848 15.86464,-100.55954c10.84474,10.97723 21.63445,22.00932 32.49017,32.97575z"/></g><path d="M239.99971,57.26567c15.46452,-35.16435 48.84062,-59.60483 87.6191,-59.60483c53.46121,0 96.84983,46.31377 96.84983,103.37909c0,98.60548 -176.82866,254.92442 -176.82866,254.92442l-7.64027,6.3748l-6.0902,-4.94409c0,0 -178.37815,-152.9104 -178.37815,-256.35514c0,-57.06525 43.38862,-103.37909 96.84983,-103.37909c38.77876,0 72.15486,24.44048 87.61853,59.60483z" fill="#dc2b2b" stroke="#ffffff" stroke-width="10" stroke-linejoin="round"/><path d="M240.36667,70.58535c14.80351,-33.66127 46.7529,-57.05703 83.87383,-57.05703c51.17598,0 92.70999,44.33409 92.70999,98.96015c0,94.39062 -169.2702,244.02771 -169.2702,244.02771l-7.31362,6.10229l-5.82985,-4.73278c0,0 -170.7534,-146.37428 -170.7534,-245.39729c0,-54.62599 41.53401,-98.96015 92.70999,-98.96015c37.12122,0 69.07061,23.39576 83.87326,57.05703z" fill="#ff3333" stroke="#ffffff" stroke-width="10" stroke-linejoin="round"/><path d="M239.99971,57.26567c15.46452,-35.16435 48.84062,-59.60483 87.6191,-59.60483c53.46121,0 96.84983,46.31377 96.84983,103.37909c0,98.60548 -176.82866,254.92442 -176.82866,254.92442l-7.64027,6.3748l-6.0902,-4.94409c0,0 -178.37815,-152.9104 -178.37815,-256.35514c0,-57.06525 43.38862,-103.37909 96.84983,-103.37909c38.77876,0 72.15486,24.44048 87.61853,59.60483z" fill="#dc2b2b" stroke="none" stroke-width="0" stroke-linejoin="round"/><path d="M229.23193,89.20355c13.0922,-29.76999 41.34809,-50.46112 74.1778,-50.46112c45.2599,0 81.99248,39.20902 81.99248,87.52013c0,83.47883 -149.70209,215.81751 -149.70209,215.81751l-6.46819,5.39687l-5.15589,-4.18568c0,0 -151.01389,-129.45308 -151.01389,-217.0287c0,-48.31104 36.73258,-87.52013 81.99248,-87.52013c32.82993,0 61.08589,20.69114 74.1773,50.46105z" fill="#ff3333" stroke="none" stroke-width="0" stroke-linejoin="round"/></g></g></svg>