<svg version="1.1" xmlns="http://www.w3.org/2000/svg" xmlns:xlink="http://www.w3.org/1999/xlink" width="40.06868" height="47.98774" viewBox="0,0,40.06868,47.98774"><defs><linearGradient x1="221.21612" y1="185.36579" x2="258.78389" y2="185.36579" gradientUnits="userSpaceOnUse" id="color-1"><stop offset="0" stop-color="#0009ff"/><stop offset="1" stop-color="#0006bd"/></linearGradient><radialGradient cx="237.76276" cy="163.55086" r="9.39643" gradientUnits="userSpaceOnUse" id="color-2"><stop offset="0" stop-color="#9ceb60"/><stop offset="1" stop-color="#6dd627"/></radialGradient><radialGradient cx="236.72147" cy="166.04354" r="1.85945" gradientUnits="userSpaceOnUse" id="color-3"><stop offset="0" stop-color="#9ceb60"/><stop offset="1" stop-color="#6dd627"/></radialGradient><radialGradient cx="240.51846" cy="185.99166" r="10.41184" gradientUnits="userSpaceOnUse" id="color-4"><stop offset="0" stop-color="#af7c81"/><stop offset="1" stop-color="#ffaeb5"/></radialGradient><linearGradient x1="231.75635" y1="186.55956" x2="249.20622" y2="186.55956" gradientUnits="userSpaceOnUse" id="color-5"><stop offset="0" stop-color="#ffffff"/><stop offset="1" stop-color="#cbe3fa"/></linearGradient><linearGradient x1="240.53481" y1="181.42015" x2="240.53481" y2="192.30348" gradientUnits="userSpaceOnUse" id="color-6"><stop offset="0" stop-color="#e84857"/><stop offset="1" stop-color="#ff002d"/></linearGradient></defs><g transform="translate(-219.96611,-156.2108)"><g data-paper-data="{&quot;isPaintingLayer&quot;:true}" fill-rule="nonzero" stroke-linejoin="miter" stroke-miterlimit="10" stroke-dasharray="" stroke-dashoffset="0" style="mix-blend-mode: normal"><path d="M258.53638,184.66037c-1.19452,6.55389 -1.19574,10.12271 -7.13737,15.58914c-6.36023,5.85155 -7.40433,0.13973 -11.6684,0.13973c-3.83815,0 -4.77286,5.41496 -10.42993,0.49192c-4.49851,-3.91482 -8.08456,-10.17769 -8.08456,-17.21819c0,-5.51752 0.57637,-9.77499 3.81696,-13.44507c1.23551,-1.39926 3.48194,-3.19699 4.80594,-2.4851c2.74798,1.47753 4.65416,1.90427 7.96388,1.90427c2.64887,0 -1.57541,0.93307 9.73782,-2.33824c6.97282,-2.01625 12.49554,9.13223 10.99565,17.36154z" fill="url(#color-1)" stroke="#000598" stroke-width="2.5" stroke-linecap="butt"/><g stroke="#000598" stroke-width="2.5" stroke-linecap="round"><path d="M241.85357,168.73447l-3.17346,0.90643c0,0 -5.83213,-0.58581 -6.29734,-0.67982c-0.46521,-0.094 0.46304,0.33563 -0.99171,-0.79312c-1.13897,-0.88372 -1.71378,-1.85885 -2.28093,-3.05919c-0.56715,-1.20033 -0.9917,-2.4455 -0.74378,-3.34245c0.24792,-0.89695 0.46679,-0.6452 1.93383,-0.96308c1.46704,-0.31788 2.87935,-0.37917 3.81807,-0.28326c0.59964,0.06127 1.06594,-0.02816 2.28093,0.90643c1.215,0.93459 2.7272,2.94589 2.7272,2.94589c0,0 -0.08295,4.14445 -0.04959,4.41884c0.03336,0.27439 0.42333,0.91568 0.54544,-0.33991c0.12211,-1.25559 -0.48475,-1.32034 -0.19834,-3.22915c0.28641,-1.90881 0.57307,-3.21817 1.38839,-4.70209c0.81532,-1.48392 2.21008,-2.67881 2.87595,-3.05919c0.66586,-0.38038 0.89481,-0.82282 1.88424,0.33991c0.98942,1.16273 1.47419,3.29925 1.58673,3.73902c0.11254,0.43977 0.55894,0.63197 -0.3471,1.10503c-0.90604,0.47306 -1.52892,-0.2966 -2.52885,0.39656c-0.99994,0.69316 -1.20594,1.46401 -1.73549,2.66263c-0.52955,1.19862 -0.89254,3.2858 -0.89254,3.2858" fill="url(#color-2)"/><path d="M238.58092,168.05468l-3.7189,-4.02227" fill="url(#color-3)"/></g><g stroke="none" stroke-width="0" stroke-linecap="butt"><path d="M223.07877,181.68381c0,-1.28272 0.64404,-2.41502 1.62638,-3.09117c0.17992,-1.57655 0.69445,-3.13515 1.46378,-3.93793c0.86035,-0.89776 1.99383,-1.58487 3.22969,-2.03268c0.55409,-1.37897 1.90384,-2.35259 3.48098,-2.35259c2.07107,0 3.75,1.67893 3.75,3.75c0,2.07107 -1.67893,3.75 -3.75,3.75c-1.26461,0 -2.38302,-0.62598 -3.06226,-1.58498c-0.35588,0.14323 -0.66054,0.36362 -0.88251,0.70344c-0.28224,0.43211 -0.38617,0.93239 -0.40574,1.45266c1.21651,0.61992 2.04969,1.88429 2.04969,3.34326c0,2.07107 -1.67893,3.75 -3.75,3.75c-2.07107,0 -3.75,-1.67893 -3.75,-3.75z" fill="#545aff"/><path d="M224.53208,182.18805c0,-1.38071 1.11929,-2.5 2.5,-2.5c1.38071,0 2.5,1.11929 2.5,2.5c0,1.38071 -1.11929,2.5 -2.5,2.5c-1.38071,0 -2.5,-1.11929 -2.5,-2.5z" fill="#0006bd"/><path d="M230.28036,174.32197c0,-1.38071 1.11929,-2.5 2.5,-2.5c1.38071,0 2.5,1.11929 2.5,2.5c0,1.38071 -1.11929,2.5 -2.5,2.5c-1.38071,0 -2.5,-1.11929 -2.5,-2.5z" fill="#0006bd"/></g><g stroke="#000000"><path d="M240.84001,176.8035c-0.16576,0.10675 -0.41341,0.0634 -0.41341,0.0634c-4.83743,-6.9516 -20.91877,17.1806 0.61353,19.50142c0,0 0.10636,0.00368 0.24584,-0.00179c17.03234,-0.66888 8.00393,-25.00463 -0.44596,-19.56303z" fill="url(#color-4)" stroke-width="0.5" stroke-linecap="round"/><path d="M240.91801,179.67201c-0.13616,0.07839 -0.33958,0.04656 -0.33958,0.04656c-5.22865,-4.08246 -17.18277,12.61726 0.50396,14.32165c0,0 0.08737,0.0027 0.20194,-0.00131c13.99044,-0.49122 6.57446,-18.36316 -0.36631,-14.3669z" fill="url(#color-5)" stroke-width="0" stroke-linecap="round"/><path d="M249.07609,186.86181c0,3.00535 -3.82406,5.44167 -8.54128,5.44167c-4.71722,0 -8.54128,-2.43632 -8.54128,-5.44167c0,-3.00535 3.82406,-5.44166 8.54128,-5.44166c4.71722,0 8.54128,2.43631 8.54128,5.44166z" fill="url(#color-6)" stroke-width="0" stroke-linecap="butt"/></g></g></g></svg>