<svg version="1.1" xmlns="http://www.w3.org/2000/svg" xmlns:xlink="http://www.w3.org/1999/xlink" width="770.89367" height="770.89367" viewBox="0,0,770.89367,770.89367"><g transform="translate(148.44983,212.95432)"><g data-paper-data="{&quot;isPaintingLayer&quot;:true}" fill-rule="nonzero" stroke="none" stroke-width="1" stroke-linecap="butt" stroke-linejoin="miter" stroke-miterlimit="10" stroke-dasharray="" stroke-dashoffset="0" style="mix-blend-mode: normal"><g fill="#59c0cc"><path d="M236.99692,557.93918c-212.87603,0 -385.44675,-172.57039 -385.44675,-385.44675c0,-212.87603 172.57039,-385.44675 385.44692,-385.44675c212.87636,0 385.44675,172.57039 385.44675,385.44692c0,212.87603 -172.57039,385.44675 -385.44675,385.44675z"/><path d="M543.23198,142.37417c-100.36105,-100.36105 -200.71064,-200.71064 -301.0717,-301.0717c178.86656,2.74709 323.29081,147.16004 326.02693,326.02693z"/><path d="M391.29507,465.42227c-149.76334,-148.51688 -298.61153,-297.96054 -446.79727,-448.04406c45.85026,-86.25056 128.4602,-149.9841 227.14407,-169.73192l390.21281,390.21281c-19.82495,98.99291 -83.90061,181.81247 -170.55945,227.56333z"/><path d="M-45.97041,104.90848c127.04816,128.37192 254.86835,255.97151 383.06356,383.18491c-31.61858,10.02851 -65.15671,15.72102 -100.09607,15.72102c-182.98196,0 -331.32213,-148.34034 -331.32213,-331.32213c0,-35.10493 5.7477,-68.80848 15.86464,-100.55954c10.84474,10.97723 21.63445,22.00932 32.49017,32.97575z"/></g><g><path d="M447.88719,237.79208c0,45.02853 -36.50066,81.63847 -81.52919,81.63847h-252.72353c-45.021,0 -81.52542,-36.60994 -81.52919,-81.64601c0,-41.64075 31.25505,-76.03864 71.57686,-80.96016c2.46076,-36.03338 32.39688,-64.5262 69.05581,-64.5262c3.16922,0 6.25553,0.29017 9.30793,0.70092c17.97147,-32.03511 52.23747,-53.6883 91.5795,-53.6883c57.96166,0 104.96483,46.99563 104.96483,104.96483c0,4.32988 -0.29393,8.58817 -0.80267,12.78239c39.59828,5.56969 70.09965,39.60581 70.09965,80.73406z" fill="#3f699b"/><g fill="#ffffff"><path d="M237.20008,210.49007c4.34873,0 8.29047,1.76738 11.14691,4.62005c2.85267,2.85644 4.62005,6.79818 4.62005,11.14691c0,4.34873 -1.76738,8.29047 -4.62005,11.14691c-2.85644,2.85267 -6.79818,4.62005 -11.14691,4.62005c-4.34873,0 -8.29047,-1.76738 -11.14691,-4.62005c-2.85267,-2.85644 -4.62005,-6.79818 -4.62005,-11.14691c0,-4.34873 1.76738,-8.29047 4.62005,-11.14691c2.85644,-2.85267 6.79818,-4.62005 11.14691,-4.62005z"/><path d="M355.44473,210.49007c4.34873,0 8.29047,1.76738 11.14691,4.62005c2.85267,2.85644 4.62005,6.79818 4.62005,11.14691c0,4.34873 -1.76738,8.29047 -4.62005,11.14691c-2.85644,2.85267 -6.79818,4.62005 -11.14691,4.62005c-4.34873,0 -8.29047,-1.76738 -11.14691,-4.62005c-2.85267,-2.85644 -4.62005,-6.79818 -4.62005,-11.14691c0,-4.34873 1.76738,-8.29047 4.62005,-11.14691c2.85644,-2.85267 6.79818,-4.62005 11.14691,-4.62005z"/></g><path d="M324.89813,235.12029c0,15.7858 -12.78616,28.57573 -28.57196,28.57573c-15.78203,0 -28.57196,-12.78993 -28.57196,-28.57573" fill="#e8e338"/></g></g></g></svg>