<svg version="1.1" xmlns="http://www.w3.org/2000/svg" xmlns:xlink="http://www.w3.org/1999/xlink" width="732.18773" height="543.88278" viewBox="0,0,732.18773,543.88278"><g transform="translate(122.92872,-107.56842)"><g stroke-miterlimit="10"><path d="M-122.67872,651.2012v-543.38278h731.68773v543.38278z" fill-opacity="0.6" fill="#000000" stroke="#000000" stroke-width="0.5" stroke-linecap="butt"/><g stroke="none" stroke-linecap="butt"><path d="M443.55082,624.91366h-493.98539v-511.01655l51.10166,51.10166l51.10166,-51.10166l51.10166,51.10166l51.10166,-51.10166l51.10166,51.10166l51.10166,-51.10166l51.10166,51.10166l51.10166,-51.10166l51.10166,51.10166l51.10166,-51.10166l51.10166,51.10166l51.10166,-51.10166v391.84749z" fill="#cfd8dc" stroke-width="1"/><path d="M443.55082,624.91366h-493.98539v-511.01655l51.10166,51.10166l51.10166,-51.10166l51.10166,51.10166l51.10166,-51.10166l51.10166,51.10166l51.10166,-51.10166l51.10166,51.10166l51.10166,-51.10166l51.10166,51.10166l51.10166,-51.10166l51.10166,51.10166l51.10166,-51.10166v391.84749z" fill="none" stroke-width="4.16667"/><path d="M0.66708,216.10042h255.50828v68.13281h-255.50828z" fill="none" stroke-width="4.16667"/><path d="M256.17535,216.10042h255.50828v68.13281h-255.50828z" fill="none" stroke-width="4.16667"/><path d="M290.24585,335.33489h221.43778v34.0705h-221.43778z" fill="none" stroke-width="4.16667"/><path d="M290.24585,403.47588h221.43778v34.06232h-221.43778z" fill="none" stroke-width="4.16667"/><path d="M290.24585,471.6087h221.43778v34.0705h-221.43778z" fill="none" stroke-width="4.16667"/><path d="M290.24585,539.74151h187.37546v34.0705h-187.37546z" fill="none" stroke-width="4.16667"/><path d="M443.55082,505.67919h119.23447l-119.23447,119.23447z" fill="#78909c" stroke-width="1"/><path d="M443.55082,505.67919h119.23447l-119.23447,119.23447z" fill="none" stroke-width="4.16667"/></g><text transform="translate(-39.98524,213.23203) scale(0.25311,0.20563)" font-size="40" xml:space="preserve" fill="#000000" stroke="#000000" stroke-width="1" stroke-linecap="butt" font-family="Handwriting" font-weight="normal" text-anchor="start"><tspan x="0" dy="0">V?? ???????? (Proximamente(No en desarrollo)):</tspan><tspan x="0" dy="46.15px">Mejora en las Fisicas</tspan><tspan x="0" dy="46.15px"> </tspan><tspan x="0" dy="46.15px">V10 ?????? (Proximamente):</tspan><tspan x="0" dy="46.15px">Se Cambio La Historia (Lore)</tspan><tspan x="0" dy="46.15px">Sistema de Cuentas</tspan><tspan x="0" dy="46.15px">Modos de Juego</tspan><tspan x="0" dy="46.15px">Final Boss mas Dificil</tspan><tspan x="0" dy="46.15px">Sistema de Guardado y Cargado de Partidas (Creado Originalmente por AetherPixel)</tspan><tspan x="0" dy="46.15px">Tener mas de 1 partida guardada a la vez</tspan><tspan x="0" dy="46.15px">Boton de Noticias</tspan><tspan x="0" dy="46.15px"> </tspan><tspan x="0" dy="46.15px">V9 18/04/2025:</tspan><tspan x="0" dy="46.15px">Se añadio A La Manzana Dios el Final Boss Puedes Pelear contra el con el codigo Final Boss o al llegar al nivel 200 (s</tspan><tspan x="0" dy="46.15px">olo es una cosa pero costo mucho en hacerlo asi que se merecia una vercion Completa)</tspan><tspan x="0" dy="46.15px">Arreglo de Bugs</tspan><tspan x="0" dy="46.15px">Se Me Olvido Cambiar El texto que Dice la vercion en Ajustes xD (Dice V8 pero es V9)</tspan><tspan x="0" dy="46.15px"> </tspan><tspan x="0" dy="46.15px">V8 17/04/2025: </tspan><tspan x="0" dy="46.15px">Boton de Esencias en el Granero</tspan><tspan x="0" dy="46.15px">Piedras Añadidas (Tambien una Muraya de Piedra)</tspan><tspan x="0" dy="46.15px">Mejoras con las Coliciones y Sistema de Fisicas Rehecho(por esto habra muchos bugs Yo lo se xd, si pasa algo Comenten y lo Arreglo por ejemp</tspan><tspan x="0" dy="46.15px">lo que ya no se pausa el bowl en el menu de Pausa y con la Manzana Tiempo y algunos codigos secretos ya no funcionan xd)</tspan><tspan x="0" dy="46.15px">Arreglo de Bugs</tspan><tspan x="0" dy="46.15px">Una Nueva Manzana Dentro del Codigo (Para el 1 de Abril)</tspan><tspan x="0" dy="46.15px"> </tspan><tspan x="0" dy="46.15px">V7 22/03/2025:</tspan><tspan x="0" dy="46.15px">Arreglo de Bugs</tspan><tspan x="0" dy="46.15px">Se Añadio Regeneracion de vida (0.1) cada segundo</tspan><tspan x="0" dy="46.15px">Se Añadio Un Arcoiris que aparece despues de lluvia y que cambie a soleado que te recupera (0.5) de vida cada 5 milisegundos aprox</tspan><tspan x="0" dy="46.15px">Se Disminuyo la Vida que te da la Radio ahora es (1) antes era (5)</tspan><tspan x="0" dy="46.15px">V6 21/02/2025:</tspan><tspan x="0" dy="46.15px">se modifico algunas cosas de la musica</tspan><tspan x="0" dy="46.15px">Se elimino el Tornado Por que da Mucho lagg (aun sigue en el codigo pero ya no aparecera)</tspan><tspan x="0" dy="46.15px">Se añadio Doble Salto al Inicio Y al Usar a la Manzana Conejo</tspan><tspan x="0" dy="46.15px">arreglo de bugs</tspan><tspan x="0" dy="46.15px">la radio te da vida al tocarla</tspan><tspan x="0" dy="46.15px"> </tspan><tspan x="0" dy="46.15px">V5-7/03/2025:</tspan><tspan x="0" dy="46.15px">Se añadio Tornados</tspan><tspan x="0" dy="46.15px">Funcion de Cambiar de Musica entre ATPLM 1, ATPLM 2 y El Futuro ATPLM 3</tspan><tspan x="0" dy="46.15px">se Añadio Nublina</tspan><tspan x="0" dy="46.15px">Arreglo de Bug</tspan><tspan x="0" dy="46.15px">Mas Lagg Añadido :P</tspan></text><path d="M143.1489,291.52022h159.57447" fill="none" stroke="#ff0000" stroke-width="2" stroke-linecap="round"/></g></g></svg>