<svg version="1.1" xmlns="http://www.w3.org/2000/svg" xmlns:xlink="http://www.w3.org/1999/xlink" width="1454.86812" height="412.91291" viewBox="0,0,1454.86812,412.91291"><defs><radialGradient cx="50.50001" cy="316.50001" r="51.40873" gradientUnits="userSpaceOnUse" id="color-1"><stop offset="0" stop-color="#fff900"/><stop offset="1" stop-color="#fff900" stop-opacity="0"/></radialGradient><linearGradient x1="8.57518" y1="309.82036" x2="8.57518" y2="331.99303" gradientUnits="userSpaceOnUse" id="color-2"><stop offset="0" stop-color="#ea3526"/><stop offset="1" stop-color="#ca2128"/></linearGradient><linearGradient x1="25.85148" y1="296.75838" x2="25.85148" y2="318.79468" gradientUnits="userSpaceOnUse" id="color-3"><stop offset="0" stop-color="#ea3526"/><stop offset="1" stop-color="#ca2128"/></linearGradient><linearGradient x1="17.46029" y1="307.41995" x2="17.46029" y2="326.08925" gradientUnits="userSpaceOnUse" id="color-4"><stop offset="0" stop-color="#fbf4e9"/><stop offset="1" stop-color="#eae1d7"/></linearGradient><linearGradient x1="19.8497" y1="300.85839" x2="19.8497" y2="323.04962" gradientUnits="userSpaceOnUse" id="color-5"><stop offset="0" stop-color="#fbf4e9"/><stop offset="1" stop-color="#eae1d7"/></linearGradient><linearGradient x1="34.16832" y1="321.16531" x2="66.83172" y2="321.16531" gradientUnits="userSpaceOnUse" id="color-6"><stop offset="0" stop-color="#ff866e"/><stop offset="1" stop-color="#ff6242"/></linearGradient><radialGradient cx="48.55483" cy="302.19826" r="8.16975" gradientUnits="userSpaceOnUse" id="color-7"><stop offset="0" stop-color="#9ceb60"/><stop offset="1" stop-color="#6dd627"/></radialGradient><radialGradient cx="47.64948" cy="304.36553" r="1.6167" gradientUnits="userSpaceOnUse" id="color-8"><stop offset="0" stop-color="#9ceb60"/><stop offset="1" stop-color="#6dd627"/></radialGradient></defs><g transform="translate(83.9321,37.53673)"><g data-paper-data="{&quot;isPaintingLayer&quot;:true}" fill-rule="nonzero" stroke-linejoin="miter" stroke-miterlimit="10" stroke-dasharray="" stroke-dashoffset="0" style="mix-blend-mode: normal"><path d="M-83.9321,375.37618v-412.91291h1454.86812v412.91291z" fill-opacity="0.96863" fill="#000000" stroke="none" stroke-width="0" stroke-linecap="butt"/><text transform="translate(34.29811,191.83415) scale(1.84523,1.84523)" font-size="40" xml:space="preserve" fill="#8f0000" fill-rule="nonzero" stroke="none" stroke-width="1" stroke-linecap="butt" stroke-linejoin="miter" stroke-miterlimit="10" stroke-dasharray="" stroke-dashoffset="0" font-family="Pixel" font-weight="normal" text-anchor="start" style="mix-blend-mode: normal"><tspan x="0" dy="0">YOU LOST</tspan></text><text transform="translate(125.27344,337.62892) scale(0.5,0.5)" font-size="40" xml:space="preserve" fill-opacity="0.57255" fill="#ff0000" fill-rule="nonzero" stroke="none" stroke-width="1" stroke-linecap="butt" stroke-linejoin="miter" stroke-miterlimit="10" stroke-dasharray="" stroke-dashoffset="0" font-family="Handwriting" font-weight="normal" text-anchor="start" style="mix-blend-mode: normal"><tspan x="0" dy="0">Space to Observe the World</tspan></text><g><path d="M-0.90872,316.50001c0,-28.39226 23.01647,-51.40873 51.40873,-51.40873c28.39226,0 51.40873,23.01647 51.40873,51.40873c0,28.39226 -23.01647,51.40873 -51.40873,51.40873c-28.39226,0 -51.40873,-23.01647 -51.40873,-51.40873z" fill="url(#color-1)" stroke="none" stroke-width="0" stroke-linecap="butt"/><g><path d="M9.24393,331.99228c0.09713,-1.64522 -3.45633,-8.35441 -3.45026,-8.41625c0.39294,-4.00613 -2.05197,-6.93387 -5.20776,-7.92326c-0.12905,-0.04159 2.03987,-4.31258 9.87394,-5.80364c4.31352,-0.82099 6.36801,16.20039 6.08411,16.20154c-2.08825,0.00846 -7.30458,6.0188 -7.30002,5.94162z" fill="url(#color-2)" stroke="#303a44" stroke-width="0.6" stroke-linecap="butt"/><path d="M40.45653,338.53164c0,0 -0.10288,0.43419 -0.23149,0.52154c-0.15554,0.10564 -0.63643,0.06794 -0.63643,0.06794c0,0 -1.67924,-6.13194 -3.04771,-10.64773c-2.39275,-7.89579 -10.04365,-32.55215 -10.04365,-32.55215l0.9514,-0.32211c0,0 7.64053,24.27334 10.02184,32.13286c1.3779,4.54777 2.98605,10.79965 2.98605,10.79965z" fill="#d5d9e0" stroke="#2d3842" stroke-width="0.6" stroke-linecap="round"/><path d="M27.68531,294.91523c0,0.58227 -0.46317,1.05429 -1.03452,1.05429c-0.57135,0 -1.03452,-0.47202 -1.03452,-1.05429c0,-0.58227 0.46317,-1.05429 1.03452,-1.05429c0.57135,0 1.03452,0.47202 1.03452,1.05429z" fill="#d5d9e0" stroke="#2d3842" stroke-width="0.6" stroke-linecap="butt"/><path d="M27.31631,294.73461c0,0.26416 -0.22126,0.47831 -0.4942,0.47831c-0.27294,0 -0.4942,-0.21415 -0.4942,-0.47831c0,-0.26416 0.22126,-0.47831 0.4942,-0.47831c0.27294,0 0.4942,0.21415 0.4942,0.47831z" fill="#eef0f3" stroke="#2d3842" stroke-width="0" stroke-linecap="butt"/><path d="M25.27068,318.79464c-2.03932,-1.90343 -5.24393,-11.57897 -6.5216,-17.88133c-0.0908,-0.4479 4.21806,0.08294 8.08669,-4.15145c0.20417,-0.22348 0.36456,10.42325 6.11955,19.73487c-4.09732,0.41391 -7.67461,2.30727 -7.68463,2.29792z" fill="url(#color-3)" stroke="#303a44" stroke-width="0.6" stroke-linecap="butt"/><path d="M16.45236,326.08913c-0.10976,0.03551 -4.88487,-6.81906 -5.98104,-16.19038c-0.00169,-0.01442 2.73775,-0.1245 4.82151,-2.40076c1.23413,-1.34815 9.16038,15.21701 9.15646,15.23425c-0.62427,2.74812 -5.7264,2.62236 -7.99693,3.3569z" fill="url(#color-4)" stroke="#303a44" stroke-width="0.6" stroke-linecap="butt"/><path d="M24.46726,322.71808c0.09981,0.10223 -3.51548,4.04445 -10.08532,-18.20538c-0.06144,-0.23468 0.5604,-2.47689 4.24421,-3.64876c1.15946,-0.36884 6.69525,17.78688 6.69525,17.78688c0,0 -1.70043,1.10765 -1.78042,1.20808c-0.252,0.31639 0.34431,2.26305 0.92628,2.85917z" fill="url(#color-5)" stroke="#303a44" stroke-width="0.6" stroke-linecap="butt"/><path d="M22.16528,322.23757c0,0 -0.3725,-0.59178 -0.25778,-0.96388c0.22245,-0.72161 1.5579,-1.32254 1.5579,-1.32254" fill="none" stroke="#303a44" stroke-width="0.6" stroke-linecap="round"/></g><g><path d="M66.61651,320.55198c-1.03858,5.6983 -1.03964,8.80122 -6.20561,13.55402c-5.52992,5.08765 -6.43771,0.12149 -10.14512,0.12149c-3.33709,0 -4.14978,4.70805 -9.06833,0.4277c-3.91124,-3.40375 -7.02914,-8.84902 -7.02914,-14.9704c0,-4.79722 0.50113,-8.49889 3.31867,-11.68985c1.07422,-1.21659 3.02738,-2.77963 4.17854,-2.16068c2.38924,1.28464 4.04657,1.65567 6.92422,1.65567c2.30307,0 -1.36974,0.81126 8.46657,-2.03299c6.06254,-1.75303 10.86428,7.94004 9.56019,15.09504z" fill="url(#color-6)" stroke="#45413c" stroke-width="2.5" stroke-linecap="butt"/><g stroke="#45413c" stroke-width="2.5" stroke-linecap="round"><path d="M52.1116,306.70517l-2.75917,0.7881c0,0 -5.07076,-0.50933 -5.47524,-0.59107c-0.40448,-0.08173 0.40259,0.29181 -0.86224,-0.68958c-0.99028,-0.76835 -1.49005,-1.61618 -1.98316,-2.65982c-0.49311,-1.04363 -0.86224,-2.12625 -0.64668,-2.9061c0.21556,-0.77986 0.40585,-0.56097 1.68137,-0.83735c1.27552,-0.27638 2.50346,-0.32967 3.31963,-0.24628c0.52136,0.05327 0.92678,-0.02448 1.98316,0.7881c1.05638,0.81258 2.37117,2.56131 2.37117,2.56131c0,0 -0.07212,3.6034 -0.04312,3.84197c0.02901,0.23857 0.36807,0.79614 0.47423,-0.29553c0.10617,-1.09168 -0.42147,-1.14797 -0.17245,-2.80759c0.24902,-1.65962 0.49826,-2.79805 1.20714,-4.08824c0.70888,-1.2902 1.92156,-2.3291 2.5005,-2.65982c0.57893,-0.33072 0.778,-0.7154 1.63826,0.29553c0.86025,1.01094 1.28174,2.86854 1.37959,3.2509c0.09785,0.38236 0.48597,0.54947 -0.30179,0.96077c-0.78776,0.4113 -1.32932,-0.25788 -2.19872,0.34479c-0.8694,0.60267 -1.04851,1.27289 -1.50893,2.31503c-0.46042,1.04214 -0.77602,2.85685 -0.77602,2.85685" fill="url(#color-7)"/><path d="M49.26618,306.11412l-3.23341,-3.49717" fill="url(#color-8)"/></g><path d="M43.69549,309.97373c0,1.08682 -1.08682,1.08682 -1.08682,1.08682l-0.45121,-0.04584c-1.24627,0.22494 -1.12999,0.98945 -1.80845,2.08005c0,0 -0.57601,0.92162 -1.49763,0.34561c-0.92162,-0.57601 -0.34561,-1.49763 -0.34561,-1.49763c1.06658,-1.69754 1.01312,-2.28154 3.0271,-3.00999l1.07581,-0.04584c0,0 1.08682,0 1.08682,1.08682z" fill="#ffd9c6" stroke="none" stroke-width="0.5" stroke-linecap="butt"/></g><text transform="translate(37.07453,324.54496) scale(0.33718,0.33718)" font-size="40" xml:space="preserve" fill="#000000" fill-rule="nonzero" stroke="#000000" stroke-width="4" stroke-linecap="butt" stroke-linejoin="miter" stroke-miterlimit="10" stroke-dasharray="" stroke-dashoffset="0" font-family="Handwriting" font-weight="normal" text-anchor="start" style="mix-blend-mode: normal"><tspan x="0" dy="0">.GO</tspan></text><text transform="translate(37.39889,349.41468) scale(0.4367,0.4367)" font-size="40" xml:space="preserve" fill="#000000" fill-rule="nonzero" stroke="#000000" stroke-width="4" stroke-linecap="butt" stroke-linejoin="miter" stroke-miterlimit="10" stroke-dasharray="" stroke-dashoffset="0" font-family="Handwriting" font-weight="normal" text-anchor="start" style="mix-blend-mode: normal"><tspan x="0" dy="0">AP</tspan></text><g fill="#000000" stroke-linecap="butt"><text transform="translate(31.83759,296.83366) scale(0.4367,0.4367)" font-size="40" xml:space="preserve" fill="#000000" fill-rule="nonzero" stroke="#000000" stroke-width="4" stroke-linecap="butt" stroke-linejoin="miter" stroke-miterlimit="10" stroke-dasharray="" stroke-dashoffset="0" font-family="Handwriting" font-weight="normal" text-anchor="start" style="mix-blend-mode: normal"><tspan x="0" dy="0">CTH</tspan></text><path d="M65.40395,287.83988c0,-0.36795 0.29828,-0.66623 0.66623,-0.66623c0.36795,0 0.66623,0.29828 0.66623,0.66623c0,0.36795 -0.29828,0.66623 -0.66623,0.66623c-0.36795,0 -0.66623,-0.29828 -0.66623,-0.66623z" stroke="none" stroke-width="0.5"/></g></g></g></g></svg>