<svg version="1.1" xmlns="http://www.w3.org/2000/svg" xmlns:xlink="http://www.w3.org/1999/xlink" width="568.50367" height="968.79185" viewBox="0,0,568.50367,968.79185"><defs><radialGradient cx="11.31295" cy="229.3412" r="15.76577" gradientUnits="userSpaceOnUse" id="color-1"><stop offset="0" stop-color="#00f2ff" stop-opacity="0"/><stop offset="1" stop-color="#00f2ff" stop-opacity="0.2902"/></radialGradient><radialGradient cx="184.73638" cy="230.09195" r="20.27027" gradientUnits="userSpaceOnUse" id="color-2"><stop offset="0" stop-color="#00f2ff" stop-opacity="0"/><stop offset="1" stop-color="#00f2ff" stop-opacity="0.2902"/></radialGradient><radialGradient cx="374.67632" cy="240.60246" r="61.56156" gradientUnits="userSpaceOnUse" id="color-3"><stop offset="0" stop-color="#00f2ff" stop-opacity="0"/><stop offset="1" stop-color="#00f2ff" stop-opacity="0.2902"/></radialGradient><radialGradient cx="54.8565" cy="379.49135" r="36.78679" gradientUnits="userSpaceOnUse" id="color-4"><stop offset="0" stop-color="#00f2ff" stop-opacity="0"/><stop offset="1" stop-color="#00f2ff" stop-opacity="0.2902"/></radialGradient><radialGradient cx="304.10575" cy="383.99585" r="15.76577" gradientUnits="userSpaceOnUse" id="color-5"><stop offset="0" stop-color="#00f2ff" stop-opacity="0"/><stop offset="1" stop-color="#00f2ff" stop-opacity="0.2902"/></radialGradient><radialGradient cx="461.7634" cy="392.25411" r="66.06607" gradientUnits="userSpaceOnUse" id="color-6"><stop offset="0" stop-color="#00f2ff" stop-opacity="0"/><stop offset="1" stop-color="#00f2ff" stop-opacity="0.2902"/></radialGradient><radialGradient cx="421.22286" cy="540.15201" r="52.55255" gradientUnits="userSpaceOnUse" id="color-7"><stop offset="0" stop-color="#00f2ff" stop-opacity="0"/><stop offset="1" stop-color="#00f2ff" stop-opacity="0.2902"/></radialGradient><radialGradient cx="164.46611" cy="505.61747" r="45.7958" gradientUnits="userSpaceOnUse" id="color-8"><stop offset="0" stop-color="#00f2ff" stop-opacity="0"/><stop offset="1" stop-color="#00f2ff" stop-opacity="0.2902"/></radialGradient><radialGradient cx="36.83848" cy="489.85171" r="40.54054" gradientUnits="userSpaceOnUse" id="color-9"><stop offset="0" stop-color="#00f2ff" stop-opacity="0"/><stop offset="1" stop-color="#00f2ff" stop-opacity="0.2902"/></radialGradient><radialGradient cx="286.83848" cy="568.68054" r="68.31832" gradientUnits="userSpaceOnUse" id="color-10"><stop offset="0" stop-color="#00f2ff" stop-opacity="0"/><stop offset="1" stop-color="#00f2ff" stop-opacity="0.2902"/></radialGradient><radialGradient cx="152.45409" cy="592.70456" r="106.60661" gradientUnits="userSpaceOnUse" id="color-11"><stop offset="0" stop-color="#00f2ff" stop-opacity="0"/><stop offset="1" stop-color="#00f2ff" stop-opacity="0.2902"/></radialGradient><radialGradient cx="36.83848" cy="480.8427" r="22.52252" gradientUnits="userSpaceOnUse" id="color-12"><stop offset="0" stop-color="#00f2ff" stop-opacity="0"/><stop offset="1" stop-color="#00f2ff" stop-opacity="0.2902"/></radialGradient><radialGradient cx="-11.96032" cy="555.16702" r="33.78378" gradientUnits="userSpaceOnUse" id="color-13"><stop offset="0" stop-color="#00f2ff" stop-opacity="0"/><stop offset="1" stop-color="#00f2ff" stop-opacity="0.2902"/></radialGradient><radialGradient cx="307.10875" cy="561.92378" r="58.55856" gradientUnits="userSpaceOnUse" id="color-14"><stop offset="0" stop-color="#00f2ff" stop-opacity="0"/><stop offset="1" stop-color="#00f2ff" stop-opacity="0.2902"/></radialGradient><radialGradient cx="450.50214" cy="425.28714" r="9.75976" gradientUnits="userSpaceOnUse" id="color-15"><stop offset="0" stop-color="#00f2ff" stop-opacity="0"/><stop offset="1" stop-color="#00f2ff" stop-opacity="0.2902"/></radialGradient><radialGradient cx="473.02466" cy="434.29615" r="63.06306" gradientUnits="userSpaceOnUse" id="color-16"><stop offset="0" stop-color="#00f2ff" stop-opacity="0"/><stop offset="1" stop-color="#00f2ff" stop-opacity="0.2902"/></radialGradient><radialGradient cx="458.00965" cy="256.36822" r="33.78378" gradientUnits="userSpaceOnUse" id="color-17"><stop offset="0" stop-color="#00f2ff" stop-opacity="0"/><stop offset="1" stop-color="#00f2ff" stop-opacity="0.2902"/></radialGradient><radialGradient cx="212.51415" cy="245.10696" r="66.06607" gradientUnits="userSpaceOnUse" id="color-18"><stop offset="0" stop-color="#00f2ff" stop-opacity="0"/><stop offset="1" stop-color="#00f2ff" stop-opacity="0.2902"/></radialGradient><radialGradient cx="45.09674" cy="254.86672" r="38.28829" gradientUnits="userSpaceOnUse" id="color-19"><stop offset="0" stop-color="#00f2ff" stop-opacity="0"/><stop offset="1" stop-color="#00f2ff" stop-opacity="0.2902"/></radialGradient><radialGradient cx="-2.95131" cy="362.97483" r="41.29129" gradientUnits="userSpaceOnUse" id="color-20"><stop offset="0" stop-color="#00f2ff" stop-opacity="0"/><stop offset="1" stop-color="#00f2ff" stop-opacity="0.2902"/></radialGradient><radialGradient cx="109.6613" cy="257.11898" r="33.03303" gradientUnits="userSpaceOnUse" id="color-21"><stop offset="0" stop-color="#00f2ff" stop-opacity="0"/><stop offset="1" stop-color="#00f2ff" stop-opacity="0.2902"/></radialGradient><radialGradient cx="120.17181" cy="372.73459" r="11.26126" gradientUnits="userSpaceOnUse" id="color-22"><stop offset="0" stop-color="#00f2ff" stop-opacity="0"/><stop offset="1" stop-color="#00f2ff" stop-opacity="0.2902"/></radialGradient><radialGradient cx="211.7634" cy="344.20606" r="15.01502" gradientUnits="userSpaceOnUse" id="color-23"><stop offset="0" stop-color="#00f2ff" stop-opacity="0"/><stop offset="1" stop-color="#00f2ff" stop-opacity="0.2902"/></radialGradient><radialGradient cx="275.57722" cy="443.30516" r="30.03003" gradientUnits="userSpaceOnUse" id="color-24"><stop offset="0" stop-color="#00f2ff" stop-opacity="0"/><stop offset="1" stop-color="#00f2ff" stop-opacity="0.2902"/></radialGradient><radialGradient cx="354.40605" cy="329.9418" r="29.27928" gradientUnits="userSpaceOnUse" id="color-25"><stop offset="0" stop-color="#00f2ff" stop-opacity="0"/><stop offset="1" stop-color="#00f2ff" stop-opacity="0.2902"/></radialGradient><radialGradient cx="365.66731" cy="435.79765" r="39.03904" gradientUnits="userSpaceOnUse" id="color-26"><stop offset="0" stop-color="#00f2ff" stop-opacity="0"/><stop offset="1" stop-color="#00f2ff" stop-opacity="0.2902"/></radialGradient><radialGradient cx="102.90454" cy="436.54841" r="32.28228" gradientUnits="userSpaceOnUse" id="color-27"><stop offset="0" stop-color="#00f2ff" stop-opacity="0"/><stop offset="1" stop-color="#00f2ff" stop-opacity="0.2902"/></radialGradient><radialGradient cx="187.73938" cy="375.73759" r="13.51351" gradientUnits="userSpaceOnUse" id="color-28"><stop offset="0" stop-color="#00f2ff" stop-opacity="0"/><stop offset="1" stop-color="#00f2ff" stop-opacity="0.2902"/></radialGradient><radialGradient cx="243.29494" cy="363.72558" r="46.54655" gradientUnits="userSpaceOnUse" id="color-29"><stop offset="0" stop-color="#00f2ff" stop-opacity="0"/><stop offset="1" stop-color="#00f2ff" stop-opacity="0.2902"/></radialGradient><radialGradient cx="229.78142" cy="465.82768" r="24.77477" gradientUnits="userSpaceOnUse" id="color-30"><stop offset="0" stop-color="#00f2ff" stop-opacity="0"/><stop offset="1" stop-color="#00f2ff" stop-opacity="0.2902"/></radialGradient><radialGradient cx="178.73037" cy="409.52138" r="32.28228" gradientUnits="userSpaceOnUse" id="color-31"><stop offset="0" stop-color="#00f2ff" stop-opacity="0"/><stop offset="1" stop-color="#00f2ff" stop-opacity="0.2902"/></radialGradient><radialGradient cx="176.47812" cy="326.9388" r="46.54655" gradientUnits="userSpaceOnUse" id="color-32"><stop offset="0" stop-color="#00f2ff" stop-opacity="0"/><stop offset="1" stop-color="#00f2ff" stop-opacity="0.2902"/></radialGradient><radialGradient cx="420.47211" cy="406.51837" r="18.76877" gradientUnits="userSpaceOnUse" id="color-33"><stop offset="0" stop-color="#00f2ff" stop-opacity="0"/><stop offset="1" stop-color="#00f2ff" stop-opacity="0.2902"/></radialGradient><radialGradient cx="212.51415" cy="498.86072" r="30.03003" gradientUnits="userSpaceOnUse" id="color-34"><stop offset="0" stop-color="#00f2ff" stop-opacity="0"/><stop offset="1" stop-color="#00f2ff" stop-opacity="0.2902"/></radialGradient><radialGradient cx="183.98563" cy="377.2391" r="39.03904" gradientUnits="userSpaceOnUse" id="color-35"><stop offset="0" stop-color="#00f2ff" stop-opacity="0"/><stop offset="1" stop-color="#00f2ff" stop-opacity="0.2902"/></radialGradient><radialGradient cx="37.77459" cy="306.26577" r="15.76577" gradientUnits="userSpaceOnUse" id="color-36"><stop offset="0" stop-color="#00f2ff" stop-opacity="0"/><stop offset="1" stop-color="#00f2ff" stop-opacity="0.2902"/></radialGradient><radialGradient cx="211.19802" cy="305.51502" r="20.27027" gradientUnits="userSpaceOnUse" id="color-37"><stop offset="0" stop-color="#00f2ff" stop-opacity="0"/><stop offset="1" stop-color="#00f2ff" stop-opacity="0.2902"/></radialGradient><radialGradient cx="401.13796" cy="295.00451" r="61.56156" gradientUnits="userSpaceOnUse" id="color-38"><stop offset="0" stop-color="#00f2ff" stop-opacity="0"/><stop offset="1" stop-color="#00f2ff" stop-opacity="0.2902"/></radialGradient><radialGradient cx="81.31814" cy="156.11562" r="36.78679" gradientUnits="userSpaceOnUse" id="color-39"><stop offset="0" stop-color="#00f2ff" stop-opacity="0"/><stop offset="1" stop-color="#00f2ff" stop-opacity="0.2902"/></radialGradient><radialGradient cx="330.56739" cy="151.61112" r="15.76577" gradientUnits="userSpaceOnUse" id="color-40"><stop offset="0" stop-color="#00f2ff" stop-opacity="0"/><stop offset="1" stop-color="#00f2ff" stop-opacity="0.2902"/></radialGradient><radialGradient cx="488.22504" cy="143.35286" r="66.06607" gradientUnits="userSpaceOnUse" id="color-41"><stop offset="0" stop-color="#00f2ff" stop-opacity="0"/><stop offset="1" stop-color="#00f2ff" stop-opacity="0.2902"/></radialGradient><radialGradient cx="447.6845" cy="-4.54504" r="52.55255" gradientUnits="userSpaceOnUse" id="color-42"><stop offset="0" stop-color="#00f2ff" stop-opacity="0"/><stop offset="1" stop-color="#00f2ff" stop-opacity="0.2902"/></radialGradient><radialGradient cx="190.92775" cy="29.9895" r="45.7958" gradientUnits="userSpaceOnUse" id="color-43"><stop offset="0" stop-color="#00f2ff" stop-opacity="0"/><stop offset="1" stop-color="#00f2ff" stop-opacity="0.2902"/></radialGradient><radialGradient cx="63.30012" cy="45.75526" r="40.54054" gradientUnits="userSpaceOnUse" id="color-44"><stop offset="0" stop-color="#00f2ff" stop-opacity="0"/><stop offset="1" stop-color="#00f2ff" stop-opacity="0.2902"/></radialGradient><radialGradient cx="313.30012" cy="-33.07357" r="68.31832" gradientUnits="userSpaceOnUse" id="color-45"><stop offset="0" stop-color="#00f2ff" stop-opacity="0"/><stop offset="1" stop-color="#00f2ff" stop-opacity="0.2902"/></radialGradient><radialGradient cx="63.30012" cy="54.76427" r="22.52252" gradientUnits="userSpaceOnUse" id="color-46"><stop offset="0" stop-color="#00f2ff" stop-opacity="0"/><stop offset="1" stop-color="#00f2ff" stop-opacity="0.2902"/></radialGradient><radialGradient cx="14.50132" cy="-19.56005" r="33.78378" gradientUnits="userSpaceOnUse" id="color-47"><stop offset="0" stop-color="#00f2ff" stop-opacity="0"/><stop offset="1" stop-color="#00f2ff" stop-opacity="0.2902"/></radialGradient><radialGradient cx="333.57039" cy="-26.31681" r="58.55856" gradientUnits="userSpaceOnUse" id="color-48"><stop offset="0" stop-color="#00f2ff" stop-opacity="0"/><stop offset="1" stop-color="#00f2ff" stop-opacity="0.2902"/></radialGradient><radialGradient cx="476.96378" cy="110.31983" r="9.75976" gradientUnits="userSpaceOnUse" id="color-49"><stop offset="0" stop-color="#00f2ff" stop-opacity="0"/><stop offset="1" stop-color="#00f2ff" stop-opacity="0.2902"/></radialGradient><radialGradient cx="499.4863" cy="101.31082" r="63.06306" gradientUnits="userSpaceOnUse" id="color-50"><stop offset="0" stop-color="#00f2ff" stop-opacity="0"/><stop offset="1" stop-color="#00f2ff" stop-opacity="0.2902"/></radialGradient><radialGradient cx="484.47129" cy="279.23875" r="33.78378" gradientUnits="userSpaceOnUse" id="color-51"><stop offset="0" stop-color="#00f2ff" stop-opacity="0"/><stop offset="1" stop-color="#00f2ff" stop-opacity="0.2902"/></radialGradient><radialGradient cx="238.97579" cy="290.50001" r="66.06607" gradientUnits="userSpaceOnUse" id="color-52"><stop offset="0" stop-color="#00f2ff" stop-opacity="0"/><stop offset="1" stop-color="#00f2ff" stop-opacity="0.2902"/></radialGradient><radialGradient cx="71.55838" cy="280.74025" r="38.28829" gradientUnits="userSpaceOnUse" id="color-53"><stop offset="0" stop-color="#00f2ff" stop-opacity="0"/><stop offset="1" stop-color="#00f2ff" stop-opacity="0.2902"/></radialGradient><radialGradient cx="23.51033" cy="172.63214" r="41.29129" gradientUnits="userSpaceOnUse" id="color-54"><stop offset="0" stop-color="#00f2ff" stop-opacity="0"/><stop offset="1" stop-color="#00f2ff" stop-opacity="0.2902"/></radialGradient><radialGradient cx="136.12294" cy="278.48799" r="33.03303" gradientUnits="userSpaceOnUse" id="color-55"><stop offset="0" stop-color="#00f2ff" stop-opacity="0"/><stop offset="1" stop-color="#00f2ff" stop-opacity="0.2902"/></radialGradient><radialGradient cx="146.63345" cy="162.87238" r="11.26126" gradientUnits="userSpaceOnUse" id="color-56"><stop offset="0" stop-color="#00f2ff" stop-opacity="0"/><stop offset="1" stop-color="#00f2ff" stop-opacity="0.2902"/></radialGradient><radialGradient cx="238.22504" cy="191.40091" r="15.01502" gradientUnits="userSpaceOnUse" id="color-57"><stop offset="0" stop-color="#00f2ff" stop-opacity="0"/><stop offset="1" stop-color="#00f2ff" stop-opacity="0.2902"/></radialGradient><radialGradient cx="302.03886" cy="92.30181" r="30.03003" gradientUnits="userSpaceOnUse" id="color-58"><stop offset="0" stop-color="#00f2ff" stop-opacity="0"/><stop offset="1" stop-color="#00f2ff" stop-opacity="0.2902"/></radialGradient><radialGradient cx="380.86769" cy="205.66517" r="29.27928" gradientUnits="userSpaceOnUse" id="color-59"><stop offset="0" stop-color="#00f2ff" stop-opacity="0"/><stop offset="1" stop-color="#00f2ff" stop-opacity="0.2902"/></radialGradient><radialGradient cx="392.12895" cy="99.80932" r="39.03904" gradientUnits="userSpaceOnUse" id="color-60"><stop offset="0" stop-color="#00f2ff" stop-opacity="0"/><stop offset="1" stop-color="#00f2ff" stop-opacity="0.2902"/></radialGradient><radialGradient cx="129.36618" cy="99.05856" r="32.28228" gradientUnits="userSpaceOnUse" id="color-61"><stop offset="0" stop-color="#00f2ff" stop-opacity="0"/><stop offset="1" stop-color="#00f2ff" stop-opacity="0.2902"/></radialGradient><radialGradient cx="214.20102" cy="159.86938" r="13.51351" gradientUnits="userSpaceOnUse" id="color-62"><stop offset="0" stop-color="#00f2ff" stop-opacity="0"/><stop offset="1" stop-color="#00f2ff" stop-opacity="0.2902"/></radialGradient><radialGradient cx="269.75658" cy="171.88139" r="46.54655" gradientUnits="userSpaceOnUse" id="color-63"><stop offset="0" stop-color="#00f2ff" stop-opacity="0"/><stop offset="1" stop-color="#00f2ff" stop-opacity="0.2902"/></radialGradient><radialGradient cx="256.24306" cy="69.77929" r="24.77477" gradientUnits="userSpaceOnUse" id="color-64"><stop offset="0" stop-color="#00f2ff" stop-opacity="0"/><stop offset="1" stop-color="#00f2ff" stop-opacity="0.2902"/></radialGradient><radialGradient cx="205.19201" cy="126.08559" r="32.28228" gradientUnits="userSpaceOnUse" id="color-65"><stop offset="0" stop-color="#00f2ff" stop-opacity="0"/><stop offset="1" stop-color="#00f2ff" stop-opacity="0.2902"/></radialGradient><radialGradient cx="202.93976" cy="208.66817" r="46.54655" gradientUnits="userSpaceOnUse" id="color-66"><stop offset="0" stop-color="#00f2ff" stop-opacity="0"/><stop offset="1" stop-color="#00f2ff" stop-opacity="0.2902"/></radialGradient><radialGradient cx="446.93375" cy="129.0886" r="18.76877" gradientUnits="userSpaceOnUse" id="color-67"><stop offset="0" stop-color="#00f2ff" stop-opacity="0"/><stop offset="1" stop-color="#00f2ff" stop-opacity="0.2902"/></radialGradient><radialGradient cx="238.97579" cy="36.74625" r="30.03003" gradientUnits="userSpaceOnUse" id="color-68"><stop offset="0" stop-color="#00f2ff" stop-opacity="0"/><stop offset="1" stop-color="#00f2ff" stop-opacity="0.2902"/></radialGradient><radialGradient cx="210.44727" cy="158.36787" r="39.03904" gradientUnits="userSpaceOnUse" id="color-69"><stop offset="0" stop-color="#00f2ff" stop-opacity="0"/><stop offset="1" stop-color="#00f2ff" stop-opacity="0.2902"/></radialGradient><radialGradient cx="9.70937" cy="833.61618" r="15.76577" gradientUnits="userSpaceOnUse" id="color-70"><stop offset="0" stop-color="#00f2ff" stop-opacity="0"/><stop offset="1" stop-color="#00f2ff" stop-opacity="0.2902"/></radialGradient><radialGradient cx="183.1328" cy="834.36693" r="20.27027" gradientUnits="userSpaceOnUse" id="color-71"><stop offset="0" stop-color="#00f2ff" stop-opacity="0"/><stop offset="1" stop-color="#00f2ff" stop-opacity="0.2902"/></radialGradient><radialGradient cx="210.91057" cy="849.38194" r="66.06607" gradientUnits="userSpaceOnUse" id="color-72"><stop offset="0" stop-color="#00f2ff" stop-opacity="0"/><stop offset="1" stop-color="#00f2ff" stop-opacity="0.2902"/></radialGradient><radialGradient cx="79.71456" cy="760.39059" r="36.78679" gradientUnits="userSpaceOnUse" id="color-73"><stop offset="0" stop-color="#00f2ff" stop-opacity="0"/><stop offset="1" stop-color="#00f2ff" stop-opacity="0.2902"/></radialGradient><radialGradient cx="328.96381" cy="755.88609" r="15.76577" gradientUnits="userSpaceOnUse" id="color-74"><stop offset="0" stop-color="#00f2ff" stop-opacity="0"/><stop offset="1" stop-color="#00f2ff" stop-opacity="0.2902"/></radialGradient><radialGradient cx="486.62146" cy="747.62783" r="66.06607" gradientUnits="userSpaceOnUse" id="color-75"><stop offset="0" stop-color="#00f2ff" stop-opacity="0"/><stop offset="1" stop-color="#00f2ff" stop-opacity="0.2902"/></radialGradient><radialGradient cx="446.08092" cy="599.72993" r="52.55255" gradientUnits="userSpaceOnUse" id="color-76"><stop offset="0" stop-color="#00f2ff" stop-opacity="0"/><stop offset="1" stop-color="#00f2ff" stop-opacity="0.2902"/></radialGradient><radialGradient cx="189.32417" cy="634.26447" r="45.7958" gradientUnits="userSpaceOnUse" id="color-77"><stop offset="0" stop-color="#00f2ff" stop-opacity="0"/><stop offset="1" stop-color="#00f2ff" stop-opacity="0.2902"/></radialGradient><radialGradient cx="61.69654" cy="650.03023" r="40.54054" gradientUnits="userSpaceOnUse" id="color-78"><stop offset="0" stop-color="#00f2ff" stop-opacity="0"/><stop offset="1" stop-color="#00f2ff" stop-opacity="0.2902"/></radialGradient><radialGradient cx="311.69654" cy="571.2014" r="68.31832" gradientUnits="userSpaceOnUse" id="color-79"><stop offset="0" stop-color="#00f2ff" stop-opacity="0"/><stop offset="1" stop-color="#00f2ff" stop-opacity="0.2902"/></radialGradient><radialGradient cx="61.69654" cy="659.03924" r="22.52252" gradientUnits="userSpaceOnUse" id="color-80"><stop offset="0" stop-color="#00f2ff" stop-opacity="0"/><stop offset="1" stop-color="#00f2ff" stop-opacity="0.2902"/></radialGradient><radialGradient cx="12.89774" cy="584.71492" r="33.78378" gradientUnits="userSpaceOnUse" id="color-81"><stop offset="0" stop-color="#00f2ff" stop-opacity="0"/><stop offset="1" stop-color="#00f2ff" stop-opacity="0.2902"/></radialGradient><radialGradient cx="331.96681" cy="577.95816" r="58.55856" gradientUnits="userSpaceOnUse" id="color-82"><stop offset="0" stop-color="#00f2ff" stop-opacity="0"/><stop offset="1" stop-color="#00f2ff" stop-opacity="0.2902"/></radialGradient><radialGradient cx="475.3602" cy="714.5948" r="9.75976" gradientUnits="userSpaceOnUse" id="color-83"><stop offset="0" stop-color="#00f2ff" stop-opacity="0"/><stop offset="1" stop-color="#00f2ff" stop-opacity="0.2902"/></radialGradient><radialGradient cx="497.88272" cy="705.58579" r="63.06306" gradientUnits="userSpaceOnUse" id="color-84"><stop offset="0" stop-color="#00f2ff" stop-opacity="0"/><stop offset="1" stop-color="#00f2ff" stop-opacity="0.2902"/></radialGradient><radialGradient cx="21.90675" cy="776.90711" r="41.29129" gradientUnits="userSpaceOnUse" id="color-85"><stop offset="0" stop-color="#00f2ff" stop-opacity="0"/><stop offset="1" stop-color="#00f2ff" stop-opacity="0.2902"/></radialGradient><radialGradient cx="145.02987" cy="767.14735" r="11.26126" gradientUnits="userSpaceOnUse" id="color-86"><stop offset="0" stop-color="#00f2ff" stop-opacity="0"/><stop offset="1" stop-color="#00f2ff" stop-opacity="0.2902"/></radialGradient><radialGradient cx="236.62146" cy="795.67588" r="15.01502" gradientUnits="userSpaceOnUse" id="color-87"><stop offset="0" stop-color="#00f2ff" stop-opacity="0"/><stop offset="1" stop-color="#00f2ff" stop-opacity="0.2902"/></radialGradient><radialGradient cx="300.43528" cy="696.57678" r="30.03003" gradientUnits="userSpaceOnUse" id="color-88"><stop offset="0" stop-color="#00f2ff" stop-opacity="0"/><stop offset="1" stop-color="#00f2ff" stop-opacity="0.2902"/></radialGradient><radialGradient cx="379.26411" cy="809.94014" r="29.27928" gradientUnits="userSpaceOnUse" id="color-89"><stop offset="0" stop-color="#00f2ff" stop-opacity="0"/><stop offset="1" stop-color="#00f2ff" stop-opacity="0.2902"/></radialGradient><radialGradient cx="390.52537" cy="704.08429" r="39.03904" gradientUnits="userSpaceOnUse" id="color-90"><stop offset="0" stop-color="#00f2ff" stop-opacity="0"/><stop offset="1" stop-color="#00f2ff" stop-opacity="0.2902"/></radialGradient><radialGradient cx="127.7626" cy="703.33353" r="32.28228" gradientUnits="userSpaceOnUse" id="color-91"><stop offset="0" stop-color="#00f2ff" stop-opacity="0"/><stop offset="1" stop-color="#00f2ff" stop-opacity="0.2902"/></radialGradient><radialGradient cx="212.59744" cy="764.14435" r="13.51351" gradientUnits="userSpaceOnUse" id="color-92"><stop offset="0" stop-color="#00f2ff" stop-opacity="0"/><stop offset="1" stop-color="#00f2ff" stop-opacity="0.2902"/></radialGradient><radialGradient cx="268.153" cy="776.15636" r="46.54655" gradientUnits="userSpaceOnUse" id="color-93"><stop offset="0" stop-color="#00f2ff" stop-opacity="0"/><stop offset="1" stop-color="#00f2ff" stop-opacity="0.2902"/></radialGradient><radialGradient cx="254.63948" cy="674.05426" r="24.77477" gradientUnits="userSpaceOnUse" id="color-94"><stop offset="0" stop-color="#00f2ff" stop-opacity="0"/><stop offset="1" stop-color="#00f2ff" stop-opacity="0.2902"/></radialGradient><radialGradient cx="203.58843" cy="730.36056" r="32.28228" gradientUnits="userSpaceOnUse" id="color-95"><stop offset="0" stop-color="#00f2ff" stop-opacity="0"/><stop offset="1" stop-color="#00f2ff" stop-opacity="0.2902"/></radialGradient><radialGradient cx="201.33618" cy="812.94314" r="46.54655" gradientUnits="userSpaceOnUse" id="color-96"><stop offset="0" stop-color="#00f2ff" stop-opacity="0"/><stop offset="1" stop-color="#00f2ff" stop-opacity="0.2902"/></radialGradient><radialGradient cx="445.33017" cy="733.36357" r="18.76877" gradientUnits="userSpaceOnUse" id="color-97"><stop offset="0" stop-color="#00f2ff" stop-opacity="0"/><stop offset="1" stop-color="#00f2ff" stop-opacity="0.2902"/></radialGradient><radialGradient cx="237.37221" cy="641.02122" r="30.03003" gradientUnits="userSpaceOnUse" id="color-98"><stop offset="0" stop-color="#00f2ff" stop-opacity="0"/><stop offset="1" stop-color="#00f2ff" stop-opacity="0.2902"/></radialGradient><radialGradient cx="208.84369" cy="762.64284" r="39.03904" gradientUnits="userSpaceOnUse" id="color-99"><stop offset="0" stop-color="#00f2ff" stop-opacity="0"/><stop offset="1" stop-color="#00f2ff" stop-opacity="0.2902"/></radialGradient></defs><g transform="translate(45.7441,101.39189)"><g stroke="none" stroke-miterlimit="10"><path d="M23.32497,229.3412c0,8.70719 -5.37796,15.76577 -12.01201,15.76577c-6.63405,0 -12.01201,-7.05857 -12.01201,-15.76577c0,-8.70719 5.37796,-15.76577 12.01201,-15.76577c6.63405,0 12.01201,7.05857 12.01201,15.76577z" fill="url(#color-1)" stroke-width="NaN"/><path d="M205.00665,230.09195c0,6.63405 -9.07531,12.01201 -20.27027,12.01201c-11.19496,0 -20.27027,-5.37796 -20.27027,-12.01201c0,-6.63405 9.07531,-12.01201 20.27027,-12.01201c11.19496,0 20.27027,5.37796 20.27027,12.01201z" fill="url(#color-2)" stroke-width="0"/><path d="M374.67632,213.57543c33.99951,0 61.56156,12.10042 61.56156,27.02703c0,14.92662 -27.56205,27.02703 -61.56156,27.02703c-33.99951,0 -61.56156,-12.10042 -61.56156,-27.02703c0,-14.92662 27.56205,-27.02703 61.56156,-27.02703z" fill="url(#color-3)" stroke-width="0"/><path d="M54.8565,342.70456c10.78033,0 19.51952,16.47001 19.51952,36.78679c0,20.31678 -8.73919,36.78679 -19.51952,36.78679c-10.78033,0 -19.51952,-16.47001 -19.51952,-36.78679c0,-20.31678 8.73919,-36.78679 19.51952,-36.78679z" fill="url(#color-4)" stroke-width="0"/><path d="M316.11776,383.99585c0,8.70719 -5.37796,15.76577 -12.01201,15.76577c-6.63405,0 -12.01201,-7.05857 -12.01201,-15.76577c0,-8.70719 5.37796,-15.76577 12.01201,-15.76577c6.63405,0 12.01201,7.05857 12.01201,15.76577z" fill="url(#color-5)" stroke-width="0"/><path d="M461.76341,326.18804c9.95108,0 18.01802,29.57879 18.01802,66.06607c0,36.48728 -8.06694,66.06607 -18.01802,66.06607c-9.95108,0 -18.01802,-29.57879 -18.01802,-66.06607c0,-36.48728 8.06694,-66.06607 18.01802,-66.06607z" fill="url(#color-6)" stroke-width="0"/><path d="M421.22287,566.42829c-29.02397,0 -52.55255,-11.76429 -52.55255,-26.27628c0,-14.51199 23.52858,-26.27628 52.55255,-26.27628c29.02397,0 52.55255,11.76429 52.55255,26.27628c0,14.51199 -23.52858,26.27628 -52.55255,26.27628z" fill="url(#color-7)" stroke-width="0"/><path d="M164.46611,551.41327c-13.2681,0 -24.02402,-20.50348 -24.02402,-45.7958c0,-25.29232 10.75592,-45.7958 24.02402,-45.7958c13.2681,0 24.02402,20.50348 24.02402,45.7958c0,25.29232 -10.75592,45.7958 -24.02402,45.7958z" fill="url(#color-8)" stroke-width="0"/><path d="M36.83848,530.39225c-9.95108,0 -18.01802,-18.15062 -18.01802,-40.54054c0,-22.38992 8.06694,-40.54054 18.01802,-40.54054c9.95108,0 18.01802,18.15062 18.01802,40.54054c0,22.38992 -8.06694,40.54054 -18.01802,40.54054z" fill="url(#color-9)" stroke-width="0"/><path d="M299.60124,568.68054c0,37.73117 -5.71408,68.31832 -12.76276,68.31832c-7.04868,0 -12.76276,-30.58715 -12.76276,-68.31832c0,-37.73117 5.71408,-68.31832 12.76276,-68.31832c7.04868,0 12.76276,30.58715 12.76276,68.31832z" fill="url(#color-10)" stroke-width="0"/><path d="M152.4541,534.89675c58.87721,0 106.60661,25.88144 106.60661,57.80781c0,31.92637 -47.72941,57.80781 -106.60661,57.80781c-58.87721,0 -106.60661,-25.88144 -106.60661,-57.80781c0,-31.92637 47.72941,-57.80781 106.60661,-57.80781z" fill="url(#color-11)" stroke-width="0"/><path d="M36.83848,464.32618c12.43884,0 22.52252,7.3947 22.52252,16.51652c0,9.12182 -10.08367,16.51652 -22.52252,16.51652c-12.43884,0 -22.52252,-7.3947 -22.52252,-16.51652c0,-9.12182 10.08367,-16.51652 22.52252,-16.51652z" fill="url(#color-12)" stroke-width="0"/><path d="M21.82346,555.16702c0,4.56091 -15.12552,8.25826 -33.78378,8.25826c-18.65827,0 -33.78378,-3.69735 -33.78378,-8.25826c0,-4.56091 15.12552,-8.25826 33.78378,-8.25826c18.65827,0 33.78378,3.69735 33.78378,8.25826z" fill="url(#color-13)" stroke-width="0"/><path d="M365.66731,561.92378c0,25.70695 -26.21756,46.54655 -58.55856,46.54655c-32.341,0 -58.55856,-20.8396 -58.55856,-46.54655c0,-25.70695 26.21756,-46.54655 58.55856,-46.54655c32.341,0 58.55856,20.8396 58.55856,46.54655z" fill="url(#color-14)" stroke-width="0"/><path d="M440.74238,425.28714c0,-1.65851 4.36959,-3.003 9.75976,-3.003c5.39017,0 9.75976,1.34449 9.75976,3.003c0,1.65851 -4.36959,3.003 -9.75976,3.003c-5.39017,0 -9.75976,-1.34449 -9.75976,-3.003z" fill="url(#color-15)" stroke-width="0"/><path d="M449.75139,434.29615c0,-34.82877 10.4198,-63.06306 23.27327,-63.06306c12.85347,0 23.27327,28.2343 23.27327,63.06306c0,34.82877 -10.4198,63.06306 -23.27327,63.06306c-12.85347,0 -23.27327,-28.2343 -23.27327,-63.06306z" fill="url(#color-16)" stroke-width="0"/><path d="M442.24388,256.36822c0,-18.65827 7.05857,-33.78378 15.76577,-33.78378c8.70719,0 15.76577,15.12552 15.76577,33.78378c0,18.65827 -7.05857,33.78378 -15.76577,33.78378c-8.70719,0 -15.76577,-15.12552 -15.76577,-33.78378z" fill="url(#color-17)" stroke-width="0"/><path d="M278.58022,245.10696c0,9.95108 -29.57879,18.01802 -66.06607,18.01802c-36.48728,0 -66.06607,-8.06694 -66.06607,-18.01802c0,-9.95108 29.57879,-18.01802 66.06607,-18.01802c36.48728,0 66.06607,8.06694 66.06607,18.01802z" fill="url(#color-18)" stroke-width="0"/><path d="M45.09674,216.57843c10.36571,0 18.76877,17.14225 18.76877,38.28829c0,21.14604 -8.40307,38.28829 -18.76877,38.28829c-10.36571,0 -18.76877,-17.14225 -18.76877,-38.28829c0,-21.14604 8.40307,-38.28829 18.76877,-38.28829z" fill="url(#color-19)" stroke-width="0"/><path d="M-2.95131,416.27813c-22.80455,0 -41.29129,-23.8647 -41.29129,-53.3033c0,-29.4386 18.48674,-53.3033 41.29129,-53.3033c22.80455,0 41.29129,23.8647 41.29129,53.3033c0,29.4386 -18.48674,53.3033 -41.29129,53.3033z" fill="url(#color-20)" stroke-width="0"/><path d="M109.6613,224.08595c6.21942,0 11.26126,14.78939 11.26126,33.03303c0,18.24364 -5.04184,33.03303 -11.26126,33.03303c-6.21942,0 -11.26126,-14.78939 -11.26126,-33.03303c0,-18.24364 5.04184,-33.03303 11.26126,-33.03303z" fill="url(#color-21)" stroke-width="0"/><path d="M131.43307,372.73459c0,4.97554 -5.04184,9.00901 -11.26126,9.00901c-6.21942,0 -11.26126,-4.03347 -11.26126,-9.00901c0,-4.97554 5.04184,-9.00901 11.26126,-9.00901c6.21942,0 11.26126,4.03347 11.26126,9.00901z" fill="url(#color-22)" stroke-width="0"/><path d="M218.52016,344.20606c0,8.29256 -3.0251,15.01502 -6.75676,15.01502c-3.73165,0 -6.75676,-6.72245 -6.75676,-15.01502c0,-8.29256 3.0251,-15.01502 6.75676,-15.01502c3.73165,0 6.75676,6.72245 6.75676,15.01502z" fill="url(#color-23)" stroke-width="0"/><path d="M275.57722,473.33519c-16.58513,0 -30.03003,-13.4449 -30.03003,-30.03003c0,-16.58513 13.4449,-30.03003 30.03003,-30.03003c16.58513,0 30.03003,13.4449 30.03003,30.03003c0,16.58513 -13.4449,30.03003 -30.03003,30.03003z" fill="url(#color-24)" stroke-width="0"/><path d="M383.68533,329.9418c0,3.73165 -13.10878,6.75676 -29.27928,6.75676c-16.1705,0 -29.27928,-3.0251 -29.27928,-6.75676c0,-3.73165 13.10878,-6.75676 29.27928,-6.75676c16.1705,0 29.27928,3.0251 29.27928,6.75676z" fill="url(#color-25)" stroke-width="0"/><path d="M365.66731,396.75861c5.80479,0 10.51051,17.47837 10.51051,39.03904c0,21.56067 -4.70572,39.03904 -10.51051,39.03904c-5.80479,0 -10.51051,-17.47837 -10.51051,-39.03904c0,-21.56067 4.70572,-39.03904 10.51051,-39.03904z" fill="url(#color-26)" stroke-width="0"/><path d="M102.90455,404.26613c9.95108,0 18.01802,14.45327 18.01802,32.28228c0,17.82901 -8.06694,32.28228 -18.01802,32.28228c-9.95108,0 -18.01802,-14.45327 -18.01802,-32.28228c0,-17.82901 8.06694,-32.28228 18.01802,-32.28228z" fill="url(#color-27)" stroke-width="0"/><path d="M187.73938,362.22408c0.41463,0 0.75075,6.0502 0.75075,13.51351c0,7.4633 -0.33612,13.51351 -0.75075,13.51351c-0.41463,0 -0.75075,-6.0502 -0.75075,-13.51351c0,-7.4633 0.33612,-13.51351 0.75075,-13.51351z" fill="url(#color-28)" stroke-width="0"/><path d="M243.29493,317.17903c6.21942,0 11.26126,20.8396 11.26126,46.54655c0,25.70695 -5.04184,46.54655 -11.26126,46.54655c-6.21942,0 -11.26126,-20.8396 -11.26126,-46.54655c0,-25.70695 5.04184,-46.54655 11.26126,-46.54655z" fill="url(#color-29)" stroke-width="0"/><path d="M229.78143,470.33218c-13.68273,0 -24.77477,-2.01673 -24.77477,-4.5045c0,-2.48776 11.09204,-4.5045 24.77477,-4.5045c13.68273,0 24.77477,2.01673 24.77477,4.5045c0,2.48776 -11.09204,4.5045 -24.77477,4.5045z" fill="url(#color-30)" stroke-width="0"/><path d="M178.73037,441.80366c-0.41463,0 -0.75075,-14.45327 -0.75075,-32.28228c0,-17.82901 0.33612,-32.28228 0.75075,-32.28228c0.41463,0 0.75075,14.45327 0.75075,32.28228c0,17.82901 -0.33612,32.28228 -0.75075,32.28228z" fill="url(#color-31)" stroke-width="0"/><path d="M223.02466,326.9388c0,7.87794 -20.8396,14.26426 -46.54655,14.26426c-25.70695,0 -46.54655,-6.38633 -46.54655,-14.26426c0,-7.87794 20.8396,-14.26426 46.54655,-14.26426c25.70695,0 46.54655,6.38633 46.54655,14.26426z" fill="url(#color-32)" stroke-width="0"/><path d="M420.47212,387.7496c2.9024,0 5.25526,8.40307 5.25526,18.76877c0,10.36571 -2.35286,18.76877 -5.25526,18.76877c-2.9024,0 -5.25526,-8.40307 -5.25526,-18.76877c0,-10.36571 2.35286,-18.76877 5.25526,-18.76877z" fill="url(#color-33)" stroke-width="0"/><path d="M212.51415,528.89075c-9.12182,0 -16.51652,-13.4449 -16.51652,-30.03003c0,-16.58513 7.3947,-30.03003 16.51652,-30.03003c9.12182,0 16.51652,13.4449 16.51652,30.03003c0,16.58513 -7.3947,30.03003 -16.51652,30.03003z" fill="url(#color-34)" stroke-width="0"/><path d="M183.98562,416.27814c-9.95108,0 -18.01802,-17.47837 -18.01802,-39.03904c0,-21.56067 8.06694,-39.03904 18.01802,-39.03904c9.95108,0 18.01802,17.47837 18.01802,39.03904c0,21.56067 -8.06694,39.03904 -18.01802,39.03904z" fill="url(#color-35)" stroke-width="0"/><path d="M37.7746,322.03154c-6.63405,0 -12.01201,-7.05858 -12.01201,-15.76577c0,-8.7072 5.37796,-15.76577 12.01201,-15.76577c6.63405,0 12.01201,7.05858 12.01201,15.76577c0,8.7072 -5.37796,15.76577 -12.01201,15.76577z" fill="url(#color-36)" stroke-width="NaN"/><path d="M211.19802,317.52703c-11.19496,0 -20.27027,-5.37796 -20.27027,-12.01201c0,-6.63405 9.07531,-12.01201 20.27027,-12.01201c11.19496,0 20.27027,5.37796 20.27027,12.01201c0,6.63405 -9.07531,12.01201 -20.27027,12.01201z" fill="url(#color-37)" stroke-width="0"/><path d="M339.5764,295.00451c0,-14.92661 27.56205,-27.02703 61.56156,-27.02703c33.99951,0 61.56156,12.10041 61.56156,27.02703c0,14.92661 -27.56205,27.02703 -61.56156,27.02703c-33.99951,0 -61.56156,-12.10041 -61.56156,-27.02703z" fill="url(#color-38)" stroke-width="0"/><path d="M61.79862,156.11562c0,-20.31678 8.73919,-36.78679 19.51952,-36.78679c10.78033,0 19.51952,16.47001 19.51952,36.78679c0,20.31678 -8.73919,36.78679 -19.51952,36.78679c-10.78033,0 -19.51952,-16.47001 -19.51952,-36.78679z" fill="url(#color-39)" stroke-width="0"/><path d="M330.56739,167.37689c-6.63405,0 -12.01201,-7.05858 -12.01201,-15.76577c0,-8.7072 5.37796,-15.76577 12.01201,-15.76577c6.63405,0 12.01201,7.05858 12.01201,15.76577c0,8.7072 -5.37796,15.76577 -12.01201,15.76577z" fill="url(#color-40)" stroke-width="0"/><path d="M470.20703,143.35286c0,-36.48728 8.06694,-66.06607 18.01802,-66.06607c9.95108,0 18.01802,29.57879 18.01802,66.06607c0,36.48728 -8.06694,66.06607 -18.01802,66.06607c-9.95108,0 -18.01802,-29.57879 -18.01802,-66.06607z" fill="url(#color-41)" stroke-width="0"/><path d="M500.23706,-4.54504c0,14.51199 -23.52858,26.27628 -52.55255,26.27628c-29.02397,0 -52.55255,-11.76429 -52.55255,-26.27628c0,-14.51199 23.52858,-26.27628 52.55255,-26.27628c29.02397,0 52.55255,11.76429 52.55255,26.27628z" fill="url(#color-42)" stroke-width="0"/><path d="M214.95177,29.9895c0,25.29232 -10.75592,45.7958 -24.02402,45.7958c-13.2681,0 -24.02402,-20.50348 -24.02402,-45.7958c0,-25.29232 10.75592,-45.7958 24.02402,-45.7958c13.2681,0 24.02402,20.50348 24.02402,45.7958z" fill="url(#color-43)" stroke-width="0"/><path d="M81.31814,45.75526c0,22.38992 -8.06694,40.54054 -18.01802,40.54054c-9.95108,0 -18.01802,-18.15062 -18.01802,-40.54054c0,-22.38992 8.06694,-40.54054 18.01802,-40.54054c9.95108,0 18.01802,18.15062 18.01802,40.54054z" fill="url(#color-44)" stroke-width="0"/><path d="M313.30012,35.24475c-7.04868,0 -12.76276,-30.58715 -12.76276,-68.31832c0,-37.73117 5.71408,-68.31832 12.76276,-68.31832c7.04868,0 12.76276,30.58715 12.76276,68.31832c0,37.73117 -5.71408,68.31832 -12.76276,68.31832z" fill="url(#color-45)" stroke-width="0"/><path d="M40.7776,54.76427c0,-9.12182 10.08368,-16.51652 22.52252,-16.51652c12.43885,0 22.52252,7.3947 22.52252,16.51652c0,9.12182 -10.08368,16.51652 -22.52252,16.51652c-12.43885,0 -22.52252,-7.3947 -22.52252,-16.51652z" fill="url(#color-46)" stroke-width="0"/><path d="M14.50132,-11.30179c-18.65826,0 -33.78378,-3.69735 -33.78378,-8.25826c0,-4.56091 15.12551,-8.25826 33.78378,-8.25826c18.65826,0 33.78378,3.69735 33.78378,8.25826c0,4.56091 -15.12551,8.25826 -33.78378,8.25826z" fill="url(#color-47)" stroke-width="0"/><path d="M333.57039,20.22974c-32.341,0 -58.55856,-20.8396 -58.55856,-46.54655c0,-25.70695 26.21756,-46.54655 58.55856,-46.54655c32.341,0 58.55856,20.8396 58.55856,46.54655c0,25.70695 -26.21756,46.54655 -58.55856,46.54655z" fill="url(#color-48)" stroke-width="0"/><path d="M476.96378,107.31683c5.39017,0 9.75976,1.34449 9.75976,3.003c0,1.65851 -4.36959,3.003 -9.75976,3.003c-5.39017,0 -9.75976,-1.34449 -9.75976,-3.003c0,-1.65851 4.36959,-3.003 9.75976,-3.003z" fill="url(#color-49)" stroke-width="0"/><path d="M499.4863,38.24776c12.85347,0 23.27327,28.23429 23.27327,63.06306c0,34.82876 -10.4198,63.06306 -23.27327,63.06306c-12.85347,0 -23.27327,-28.23429 -23.27327,-63.06306c0,-34.82876 10.4198,-63.06306 23.27327,-63.06306z" fill="url(#color-50)" stroke-width="0"/><path d="M484.47129,245.45497c8.7072,0 15.76577,15.12551 15.76577,33.78378c0,18.65826 -7.05858,33.78378 -15.76577,33.78378c-8.7072,0 -15.76577,-15.12551 -15.76577,-33.78378c0,-18.65826 7.05858,-33.78378 15.76577,-33.78378z" fill="url(#color-51)" stroke-width="0"/><path d="M238.97579,308.51803c-36.48728,0 -66.06607,-8.06694 -66.06607,-18.01802c0,-9.95108 29.57879,-18.01802 66.06607,-18.01802c36.48728,0 66.06607,8.06694 66.06607,18.01802c0,9.95108 -29.57879,18.01802 -66.06607,18.01802z" fill="url(#color-52)" stroke-width="0"/><path d="M52.78961,280.74025c0,-21.14604 8.40306,-38.28829 18.76877,-38.28829c10.3657,0 18.76877,17.14225 18.76877,38.28829c0,21.14604 -8.40306,38.28829 -18.76877,38.28829c-10.3657,0 -18.76877,-17.14225 -18.76877,-38.28829z" fill="url(#color-53)" stroke-width="0"/><path d="M64.80162,172.63214c0,29.4386 -18.48674,53.3033 -41.29129,53.3033c-22.80455,0 -41.29129,-23.8647 -41.29129,-53.3033c0,-29.4386 18.48674,-53.3033 41.29129,-53.3033c22.80455,0 41.29129,23.8647 41.29129,53.3033z" fill="url(#color-54)" stroke-width="0"/><path d="M124.86168,278.48799c0,-18.24364 5.04184,-33.03303 11.26126,-33.03303c6.21942,0 11.26126,14.78939 11.26126,33.03303c0,18.24364 -5.04184,33.03303 -11.26126,33.03303c-6.21942,0 -11.26126,-14.78939 -11.26126,-33.03303z" fill="url(#color-55)" stroke-width="0"/><path d="M146.63345,171.88139c-6.21942,0 -11.26126,-4.03347 -11.26126,-9.00901c0,-4.97554 5.04184,-9.00901 11.26126,-9.00901c6.21942,0 11.26126,4.03347 11.26126,9.00901c0,4.97554 -5.04184,9.00901 -11.26126,9.00901z" fill="url(#color-56)" stroke-width="0"/><path d="M238.22504,206.41593c-3.73166,0 -6.75676,-6.72246 -6.75676,-15.01502c0,-8.29257 3.02511,-15.01502 6.75676,-15.01502c3.73166,0 6.75676,6.72246 6.75676,15.01502c0,8.29257 -3.02511,15.01502 -6.75676,15.01502z" fill="url(#color-57)" stroke-width="0"/><path d="M332.06889,92.30181c0,16.58513 -13.4449,30.03003 -30.03003,30.03003c-16.58513,0 -30.03003,-13.4449 -30.03003,-30.03003c0,-16.58513 13.4449,-30.03003 30.03003,-30.03003c16.58513,0 30.03003,13.4449 30.03003,30.03003z" fill="url(#color-58)" stroke-width="0"/><path d="M380.86769,212.42193c-16.1705,0 -29.27928,-3.02511 -29.27928,-6.75676c0,-3.73166 13.10878,-6.75676 29.27928,-6.75676c16.1705,0 29.27928,3.02511 29.27928,6.75676c0,3.73166 -13.10878,6.75676 -29.27928,6.75676z" fill="url(#color-59)" stroke-width="0"/><path d="M381.61844,99.80932c0,-21.56067 4.70572,-39.03904 10.51051,-39.03904c5.80479,0 10.51051,17.47837 10.51051,39.03904c0,21.56067 -4.70572,39.03904 -10.51051,39.03904c-5.80479,0 -10.51051,-17.47837 -10.51051,-39.03904z" fill="url(#color-60)" stroke-width="0"/><path d="M111.34817,99.05856c0,-17.82901 8.06694,-32.28228 18.01802,-32.28228c9.95108,0 18.01802,14.45327 18.01802,32.28228c0,17.82901 -8.06694,32.28228 -18.01802,32.28228c-9.95108,0 -18.01802,-14.45327 -18.01802,-32.28228z" fill="url(#color-61)" stroke-width="0"/><path d="M213.45027,159.86938c0,-7.46331 0.33612,-13.51351 0.75075,-13.51351c0.41463,0 0.75075,6.05021 0.75075,13.51351c0,7.46331 -0.33612,13.51351 -0.75075,13.51351c-0.41463,0 -0.75075,-6.05021 -0.75075,-13.51351z" fill="url(#color-62)" stroke-width="0"/><path d="M258.49531,171.88139c0,-25.70695 5.04184,-46.54655 11.26126,-46.54655c6.21942,0 11.26126,20.8396 11.26126,46.54655c0,25.70695 -5.04184,46.54655 -11.26126,46.54655c-6.21942,0 -11.26126,-20.8396 -11.26126,-46.54655z" fill="url(#color-63)" stroke-width="0"/><path d="M281.01784,69.77929c0,2.48777 -11.09204,4.5045 -24.77477,4.5045c-13.68273,0 -24.77477,-2.01674 -24.77477,-4.5045c0,-2.48777 11.09204,-4.5045 24.77477,-4.5045c13.68273,0 24.77477,2.01674 24.77477,4.5045z" fill="url(#color-64)" stroke-width="0"/><path d="M205.94276,126.08559c0,17.82901 -0.33612,32.28228 -0.75075,32.28228c-0.41463,0 -0.75075,-14.45327 -0.75075,-32.28228c0,-17.82901 0.33612,-32.28228 0.75075,-32.28228c0.41463,0 0.75075,14.45327 0.75075,32.28228z" fill="url(#color-65)" stroke-width="0"/><path d="M202.93975,222.93243c-25.70695,0 -46.54655,-6.38632 -46.54655,-14.26426c0,-7.87793 20.8396,-14.26426 46.54655,-14.26426c25.70695,0 46.54655,6.38632 46.54655,14.26426c0,7.87793 -20.8396,14.26426 -46.54655,14.26426z" fill="url(#color-66)" stroke-width="0"/><path d="M441.6785,129.0886c0,-10.3657 2.35286,-18.76877 5.25526,-18.76877c2.9024,0 5.25526,8.40306 5.25526,18.76877c0,10.3657 -2.35286,18.76877 -5.25526,18.76877c-2.9024,0 -5.25526,-8.40306 -5.25526,-18.76877z" fill="url(#color-67)" stroke-width="0"/><path d="M255.49231,36.74625c0,16.58513 -7.3947,30.03003 -16.51652,30.03003c-9.12182,0 -16.51652,-13.4449 -16.51652,-30.03003c0,-16.58513 7.3947,-30.03003 16.51652,-30.03003c9.12182,0 16.51652,13.4449 16.51652,30.03003z" fill="url(#color-68)" stroke-width="0"/><path d="M228.46528,158.36787c0,21.56067 -8.06694,39.03904 -18.01802,39.03904c-9.95108,0 -18.01802,-17.47837 -18.01802,-39.03904c0,-21.56067 8.06694,-39.03904 18.01802,-39.03904c9.95108,0 18.01802,17.47837 18.01802,39.03904z" fill="url(#color-69)" stroke-width="0"/><path d="M21.72139,833.61618c0,8.70719 -5.37796,15.76577 -12.01201,15.76577c-6.63405,0 -12.01201,-7.05857 -12.01201,-15.76577c0,-8.70719 5.37796,-15.76577 12.01201,-15.76577c6.63405,0 12.01201,7.05857 12.01201,15.76577z" fill="url(#color-70)" stroke-width="NaN"/><path d="M203.40307,834.36693c0,6.63405 -9.07531,12.01201 -20.27027,12.01201c-11.19496,0 -20.27027,-5.37796 -20.27027,-12.01201c0,-6.63405 9.07531,-12.01201 20.27027,-12.01201c11.19496,0 20.27027,5.37796 20.27027,12.01201z" fill="url(#color-71)" stroke-width="0"/><path d="M276.97664,849.38194c0,9.95108 -29.57879,18.01802 -66.06607,18.01802c-36.48728,0 -66.06607,-8.06694 -66.06607,-18.01802c0,-9.95108 29.57879,-18.01802 66.06607,-18.01802c36.48728,0 66.06607,8.06694 66.06607,18.01802z" fill="url(#color-72)" stroke-width="0"/><path d="M60.19504,760.39059c0,-20.31678 8.73919,-36.78679 19.51952,-36.78679c10.78033,0 19.51952,16.47001 19.51952,36.78679c0,20.31678 -8.73919,36.78679 -19.51952,36.78679c-10.78033,0 -19.51952,-16.47001 -19.51952,-36.78679z" fill="url(#color-73)" stroke-width="0"/><path d="M328.96381,771.65186c-6.63405,0 -12.01201,-7.05858 -12.01201,-15.76577c0,-8.7072 5.37796,-15.76577 12.01201,-15.76577c6.63405,0 12.01201,7.05858 12.01201,15.76577c0,8.7072 -5.37796,15.76577 -12.01201,15.76577z" fill="url(#color-74)" stroke-width="0"/><path d="M468.60345,747.62783c0,-36.48728 8.06694,-66.06607 18.01802,-66.06607c9.95108,0 18.01802,29.57879 18.01802,66.06607c0,36.48728 -8.06694,66.06607 -18.01802,66.06607c-9.95108,0 -18.01802,-29.57879 -18.01802,-66.06607z" fill="url(#color-75)" stroke-width="0"/><path d="M498.63348,599.72993c0,14.51199 -23.52858,26.27628 -52.55255,26.27628c-29.02397,0 -52.55255,-11.76429 -52.55255,-26.27628c0,-14.51199 23.52858,-26.27628 52.55255,-26.27628c29.02397,0 52.55255,11.76429 52.55255,26.27628z" fill="url(#color-76)" stroke-width="0"/><path d="M213.34819,634.26447c0,25.29232 -10.75592,45.7958 -24.02402,45.7958c-13.2681,0 -24.02402,-20.50348 -24.02402,-45.7958c0,-25.29232 10.75592,-45.7958 24.02402,-45.7958c13.2681,0 24.02402,20.50348 24.02402,45.7958z" fill="url(#color-77)" stroke-width="0"/><path d="M79.71456,650.03023c0,22.38992 -8.06694,40.54054 -18.01802,40.54054c-9.95108,0 -18.01802,-18.15062 -18.01802,-40.54054c0,-22.38992 8.06694,-40.54054 18.01802,-40.54054c9.95108,0 18.01802,18.15062 18.01802,40.54054z" fill="url(#color-78)" stroke-width="0"/><path d="M311.69654,639.51972c-7.04868,0 -12.76276,-30.58715 -12.76276,-68.31832c0,-37.73117 5.71408,-68.31832 12.76276,-68.31832c7.04868,0 12.76276,30.58715 12.76276,68.31832c0,37.73117 -5.71408,68.31832 -12.76276,68.31832z" fill="url(#color-79)" stroke-width="0"/><path d="M39.17402,659.03924c0,-9.12182 10.08368,-16.51652 22.52252,-16.51652c12.43885,0 22.52252,7.3947 22.52252,16.51652c0,9.12182 -10.08368,16.51652 -22.52252,16.51652c-12.43885,0 -22.52252,-7.3947 -22.52252,-16.51652z" fill="url(#color-80)" stroke-width="0"/><path d="M12.89774,592.97318c-18.65826,0 -33.78378,-3.69735 -33.78378,-8.25826c0,-4.56091 15.12551,-8.25826 33.78378,-8.25826c18.65826,0 33.78378,3.69735 33.78378,8.25826c0,4.56091 -15.12551,8.25826 -33.78378,8.25826z" fill="url(#color-81)" stroke-width="0"/><path d="M331.96681,624.50471c-32.341,0 -58.55856,-20.8396 -58.55856,-46.54655c0,-25.70695 26.21756,-46.54655 58.55856,-46.54655c32.341,0 58.55856,20.8396 58.55856,46.54655c0,25.70695 -26.21756,46.54655 -58.55856,46.54655z" fill="url(#color-82)" stroke-width="0"/><path d="M475.3602,711.5918c5.39017,0 9.75976,1.34449 9.75976,3.003c0,1.65851 -4.36959,3.003 -9.75976,3.003c-5.39017,0 -9.75976,-1.34449 -9.75976,-3.003c0,-1.65851 4.36959,-3.003 9.75976,-3.003z" fill="url(#color-83)" stroke-width="0"/><path d="M497.88272,642.52273c12.85347,0 23.27327,28.23429 23.27327,63.06306c0,34.82876 -10.4198,63.06306 -23.27327,63.06306c-12.85347,0 -23.27327,-28.23429 -23.27327,-63.06306c0,-34.82876 10.4198,-63.06306 23.27327,-63.06306z" fill="url(#color-84)" stroke-width="0"/><path d="M63.19804,776.90711c0,29.4386 -18.48674,53.3033 -41.29129,53.3033c-22.80455,0 -41.29129,-23.8647 -41.29129,-53.3033c0,-29.4386 18.48674,-53.3033 41.29129,-53.3033c22.80455,0 41.29129,23.8647 41.29129,53.3033z" fill="url(#color-85)" stroke-width="0"/><path d="M145.02987,776.15636c-6.21942,0 -11.26126,-4.03347 -11.26126,-9.00901c0,-4.97554 5.04184,-9.00901 11.26126,-9.00901c6.21942,0 11.26126,4.03347 11.26126,9.00901c0,4.97554 -5.04184,9.00901 -11.26126,9.00901z" fill="url(#color-86)" stroke-width="0"/><path d="M236.62146,810.6909c-3.73166,0 -6.75676,-6.72246 -6.75676,-15.01502c0,-8.29257 3.02511,-15.01502 6.75676,-15.01502c3.73166,0 6.75676,6.72246 6.75676,15.01502c0,8.29257 -3.02511,15.01502 -6.75676,15.01502z" fill="url(#color-87)" stroke-width="0"/><path d="M330.46531,696.57678c0,16.58513 -13.4449,30.03003 -30.03003,30.03003c-16.58513,0 -30.03003,-13.4449 -30.03003,-30.03003c0,-16.58513 13.4449,-30.03003 30.03003,-30.03003c16.58513,0 30.03003,13.4449 30.03003,30.03003z" fill="url(#color-88)" stroke-width="0"/><path d="M379.26411,816.6969c-16.1705,0 -29.27928,-3.02511 -29.27928,-6.75676c0,-3.73166 13.10878,-6.75676 29.27928,-6.75676c16.1705,0 29.27928,3.02511 29.27928,6.75676c0,3.73166 -13.10878,6.75676 -29.27928,6.75676z" fill="url(#color-89)" stroke-width="0"/><path d="M380.01486,704.08429c0,-21.56067 4.70572,-39.03904 10.51051,-39.03904c5.80479,0 10.51051,17.47837 10.51051,39.03904c0,21.56067 -4.70572,39.03904 -10.51051,39.03904c-5.80479,0 -10.51051,-17.47837 -10.51051,-39.03904z" fill="url(#color-90)" stroke-width="0"/><path d="M109.74459,703.33353c0,-17.82901 8.06694,-32.28228 18.01802,-32.28228c9.95108,0 18.01802,14.45327 18.01802,32.28228c0,17.82901 -8.06694,32.28228 -18.01802,32.28228c-9.95108,0 -18.01802,-14.45327 -18.01802,-32.28228z" fill="url(#color-91)" stroke-width="0"/><path d="M211.84669,764.14435c0,-7.46331 0.33612,-13.51351 0.75075,-13.51351c0.41463,0 0.75075,6.05021 0.75075,13.51351c0,7.46331 -0.33612,13.51351 -0.75075,13.51351c-0.41463,0 -0.75075,-6.05021 -0.75075,-13.51351z" fill="url(#color-92)" stroke-width="0"/><path d="M256.89173,776.15636c0,-25.70695 5.04184,-46.54655 11.26126,-46.54655c6.21942,0 11.26126,20.8396 11.26126,46.54655c0,25.70695 -5.04184,46.54655 -11.26126,46.54655c-6.21942,0 -11.26126,-20.8396 -11.26126,-46.54655z" fill="url(#color-93)" stroke-width="0"/><path d="M279.41426,674.05426c0,2.48777 -11.09204,4.5045 -24.77477,4.5045c-13.68273,0 -24.77477,-2.01674 -24.77477,-4.5045c0,-2.48777 11.09204,-4.5045 24.77477,-4.5045c13.68273,0 24.77477,2.01674 24.77477,4.5045z" fill="url(#color-94)" stroke-width="0"/><path d="M204.33918,730.36056c0,17.82901 -0.33612,32.28228 -0.75075,32.28228c-0.41463,0 -0.75075,-14.45327 -0.75075,-32.28228c0,-17.82901 0.33612,-32.28228 0.75075,-32.28228c0.41463,0 0.75075,14.45327 0.75075,32.28228z" fill="url(#color-95)" stroke-width="0"/><path d="M201.33617,827.2074c-25.70695,0 -46.54655,-6.38632 -46.54655,-14.26426c0,-7.87793 20.8396,-14.26426 46.54655,-14.26426c25.70695,0 46.54655,6.38632 46.54655,14.26426c0,7.87793 -20.8396,14.26426 -46.54655,14.26426z" fill="url(#color-96)" stroke-width="0"/><path d="M440.07492,733.36357c0,-10.3657 2.35286,-18.76877 5.25526,-18.76877c2.9024,0 5.25526,8.40306 5.25526,18.76877c0,10.3657 -2.35286,18.76877 -5.25526,18.76877c-2.9024,0 -5.25526,-8.40306 -5.25526,-18.76877z" fill="url(#color-97)" stroke-width="0"/><path d="M253.88873,641.02122c0,16.58513 -7.3947,30.03003 -16.51652,30.03003c-9.12182,0 -16.51652,-13.4449 -16.51652,-30.03003c0,-16.58513 7.3947,-30.03003 16.51652,-30.03003c9.12182,0 16.51652,13.4449 16.51652,30.03003z" fill="url(#color-98)" stroke-width="0"/><path d="M226.8617,762.64284c0,21.56067 -8.06694,39.03904 -18.01802,39.03904c-9.95108,0 -18.01802,-17.47837 -18.01802,-39.03904c0,-21.56067 8.06694,-39.03904 18.01802,-39.03904c9.95108,0 18.01802,17.47837 18.01802,39.03904z" fill="url(#color-99)" stroke-width="0"/></g></g></svg>