<svg version="1.1" xmlns="http://www.w3.org/2000/svg" xmlns:xlink="http://www.w3.org/1999/xlink" width="385.81746" height="385.81746" viewBox="0,0,385.81746,385.81746"><defs><radialGradient cx="240" cy="180" r="192.90873" gradientUnits="userSpaceOnUse" id="color-1"><stop offset="0" stop-color="#fff900"/><stop offset="1" stop-color="#fff900" stop-opacity="0"/></radialGradient><linearGradient x1="82.67913" y1="154.93497" x2="82.67913" y2="238.1368" gradientUnits="userSpaceOnUse" id="color-2"><stop offset="0" stop-color="#ea3526"/><stop offset="1" stop-color="#ca2128"/></linearGradient><linearGradient x1="147.50762" y1="105.92057" x2="147.50762" y2="188.61062" gradientUnits="userSpaceOnUse" id="color-3"><stop offset="0" stop-color="#ea3526"/><stop offset="1" stop-color="#ca2128"/></linearGradient><linearGradient x1="116.02012" y1="145.92751" x2="116.02012" y2="215.98321" gradientUnits="userSpaceOnUse" id="color-4"><stop offset="0" stop-color="#fbf4e9"/><stop offset="1" stop-color="#eae1d7"/></linearGradient><linearGradient x1="124.98622" y1="121.30567" x2="124.98622" y2="204.57708" gradientUnits="userSpaceOnUse" id="color-5"><stop offset="0" stop-color="#fbf4e9"/><stop offset="1" stop-color="#eae1d7"/></linearGradient><linearGradient x1="178.71612" y1="197.50631" x2="301.28392" y2="197.50631" gradientUnits="userSpaceOnUse" id="color-6"><stop offset="0" stop-color="#ff866e"/><stop offset="1" stop-color="#ff6242"/></linearGradient><radialGradient cx="232.70082" cy="126.3334" r="30.65658" gradientUnits="userSpaceOnUse" id="color-7"><stop offset="0" stop-color="#9ceb60"/><stop offset="1" stop-color="#6dd627"/></radialGradient><radialGradient cx="229.30353" cy="134.46596" r="6.0666" gradientUnits="userSpaceOnUse" id="color-8"><stop offset="0" stop-color="#9ceb60"/><stop offset="1" stop-color="#6dd627"/></radialGradient></defs><g transform="translate(-47.09127,12.90873)"><g data-paper-data="{&quot;isPaintingLayer&quot;:true}" fill-rule="nonzero" stroke-linejoin="miter" stroke-miterlimit="10" stroke-dasharray="" stroke-dashoffset="0" style="mix-blend-mode: normal"><path d="M47.09127,180c0,-106.54055 86.36818,-192.90873 192.90873,-192.90873c106.54055,0 192.90873,86.36818 192.90873,192.90873c0,106.54055 -86.36818,192.90873 -192.90873,192.90873c-106.54055,0 -192.90873,-86.36818 -192.90873,-192.90873z" fill="url(#color-1)" stroke="none" stroke-width="0" stroke-linecap="butt"/><g><path d="M85.18858,238.13403c0.36446,-6.1736 -12.96971,-31.34953 -12.94694,-31.58158c1.4745,-15.03281 -7.69991,-26.019 -19.54187,-29.73166c-0.48427,-0.15607 7.65453,-16.18274 37.05147,-21.77786c16.18626,-3.08074 23.89563,60.79115 22.83033,60.79547c-7.83605,0.03176 -27.41008,22.58526 -27.39298,22.29563z" fill="url(#color-2)" stroke="#303a44" stroke-width="0.6" stroke-linecap="butt"/><path d="M202.31235,262.67259c0,0 -0.38605,1.62926 -0.86866,1.95704c-0.58367,0.39642 -2.38818,0.25495 -2.38818,0.25495c0,0 -6.30125,-23.00979 -11.43638,-39.95509c-8.97868,-29.62855 -37.68829,-122.15033 -37.68829,-122.15033l3.57007,-1.20871c0,0 28.6707,91.08453 37.60645,120.57696c5.17052,17.0653 11.20499,40.52517 11.20499,40.52517z" fill="#d5d9e0" stroke="#2d3842" stroke-width="0.6" stroke-linecap="round"/><path d="M154.38897,99.00419c0,2.18493 -1.73803,3.95618 -3.88199,3.95618c-2.14397,0 -3.88199,-1.77124 -3.88199,-3.95618c0,-2.18493 1.73803,-3.95618 3.88199,-3.95618c2.14397,0 3.88199,1.77124 3.88199,3.95618z" fill="#d5d9e0" stroke="#2d3842" stroke-width="0.6" stroke-linecap="butt"/><path d="M153.0043,98.3264c0,0.99125 -0.83027,1.79482 -1.85446,1.79482c-1.02419,0 -1.85446,-0.80357 -1.85446,-1.79482c0,-0.99125 0.83026,-1.79483 1.85446,-1.79483c1.02419,0 1.85446,0.80357 1.85446,1.79483z" fill="#eef0f3" stroke="#2d3842" stroke-width="0" stroke-linecap="butt"/><path d="M145.32817,188.61049c-7.65245,-7.14251 -19.67759,-43.44952 -24.472,-67.09882c-0.34073,-1.68071 15.82806,0.31121 30.34489,-15.57812c0.76615,-0.83859 1.36798,39.11274 22.96331,74.05412c-15.37501,1.55318 -28.79859,8.65792 -28.83619,8.62282z" fill="url(#color-3)" stroke="#303a44" stroke-width="0.6" stroke-linecap="butt"/><path d="M112.23785,215.9827c-0.41187,0.13324 -18.33022,-25.58817 -22.44356,-60.7536c-0.00633,-0.05411 10.27326,-0.46718 18.09248,-9.00875c4.63103,-5.05885 34.37387,57.10108 34.35918,57.16576c-2.34254,10.31217 -21.48805,9.84029 -30.0081,12.5966z" fill="url(#color-4)" stroke="#303a44" stroke-width="0.6" stroke-linecap="butt"/><path d="M142.3134,203.33305c0.37453,0.38363 -13.19165,15.17659 -37.84466,-68.31478c-0.23054,-0.88063 2.10286,-9.29439 15.92619,-13.69179c4.35081,-1.38406 25.1236,66.74441 25.1236,66.74441c0,0 -6.38077,4.1564 -6.68094,4.53327c-0.94562,1.18725 1.29199,8.49199 3.47581,10.72889z" fill="url(#color-5)" stroke="#303a44" stroke-width="0.6" stroke-linecap="butt"/><path d="M133.67532,201.52991c0,0 -1.39777,-2.22061 -0.96732,-3.61692c0.83475,-2.7078 5.84596,-4.96276 5.84596,-4.96276" fill="none" stroke="#303a44" stroke-width="0.6" stroke-linecap="round"/></g><g><path d="M300.47637,195.20482c-3.89721,21.38258 -3.90119,33.02613 -23.28623,50.86078c-20.75075,19.09114 -24.1572,0.45588 -38.06906,0.45588c-12.52226,0 -15.57183,17.66673 -34.02846,1.60493c-14.67674,-12.7724 -26.37651,-33.20551 -26.37651,-56.17568c0,-18.00134 1.88045,-31.89167 12.45313,-43.86559c4.03095,-4.56519 11.3601,-10.43043 15.67975,-8.10783c8.9655,4.82056 15.18456,6.21283 25.98278,6.21283c8.64214,0 -5.1399,3.04421 31.7704,-7.62869c22.74937,-6.57817 40.76767,29.79461 35.87416,56.64338z" fill="url(#color-6)" stroke="#45413c" stroke-width="2.5" stroke-linecap="butt"/><g stroke="#45413c" stroke-width="2.5" stroke-linecap="round"><path d="M246.0474,143.24533l-10.35366,2.9573c0,0 -19.02778,-1.91125 -20.54556,-2.21797c-1.51778,-0.30668 1.5107,1.09502 -3.23553,-2.58762c-3.71598,-2.88321 -5.59134,-6.06464 -7.44171,-9.98085c-1.85037,-3.91617 -3.2355,-7.97863 -2.42664,-10.905c0.80886,-2.92637 1.52294,-2.10502 6.30927,-3.14212c4.78633,-1.03711 9.3941,-1.23707 12.45675,-0.92416c1.95637,0.1999 3.47771,-0.09187 7.44171,2.9573c3.96403,3.04917 8.8977,9.6112 8.8977,9.6112c0,0 -0.27063,13.52159 -0.16179,14.41681c0.10884,0.89522 1.38115,2.98748 1.77954,-1.10898c0.39839,-4.09646 -1.58153,-4.30771 -0.6471,-10.53535c0.93443,-6.22764 1.86969,-10.49953 4.52973,-15.34093c2.66004,-4.8414 7.21056,-8.73983 9.38301,-9.98085c2.17242,-1.24102 2.91939,-2.68451 6.14748,1.10898c3.22806,3.7935 4.80966,10.76406 5.17683,12.19884c0.36717,1.43478 1.82359,2.06185 -1.13244,3.60525c-2.95603,1.5434 -4.98822,-0.96768 -8.25057,1.29381c-3.26238,2.26149 -3.93447,4.77645 -5.66217,8.68704c-1.7277,3.91059 -2.91198,10.72018 -2.91198,10.72018" fill="url(#color-7)"/><path d="M235.37013,141.02747l-12.1332,-13.12297" fill="url(#color-8)"/></g><path d="M214.46637,155.51054c0,4.07822 -4.07822,4.07822 -4.07822,4.07822l-1.69315,-0.172c-4.67655,0.84406 -4.24024,3.71285 -6.78613,7.80529c0,0 -2.16146,3.45833 -5.61979,1.29687c-3.45833,-2.16146 -1.29687,-5.61979 -1.29687,-5.61979c4.0023,-6.36992 3.80169,-8.56136 11.35906,-11.29485l4.03692,-0.172c0,0 4.07822,0 4.07822,4.07822z" fill="#ffd9c6" stroke="none" stroke-width="0.5" stroke-linecap="butt"/></g><text transform="translate(189.62155,210.18828) scale(1.26527,1.26527)" font-size="40" xml:space="preserve" fill="#000000" fill-rule="nonzero" stroke="#000000" stroke-width="4" stroke-linecap="butt" stroke-linejoin="miter" stroke-miterlimit="10" stroke-dasharray="" stroke-dashoffset="0" font-family="Handwriting" font-weight="normal" text-anchor="start" style="mix-blend-mode: normal"><tspan x="0" dy="0">.GO</tspan></text><text transform="translate(190.8387,303.51067) scale(1.63871,1.63871)" font-size="40" xml:space="preserve" fill="#000000" fill-rule="nonzero" stroke="#000000" stroke-width="4" stroke-linecap="butt" stroke-linejoin="miter" stroke-miterlimit="10" stroke-dasharray="" stroke-dashoffset="0" font-family="Handwriting" font-weight="normal" text-anchor="start" style="mix-blend-mode: normal"><tspan x="0" dy="0">AP</tspan></text><g fill="#000000" stroke-linecap="butt"><text transform="translate(168.71698,106.20298) scale(1.63871,1.63871)" font-size="40" xml:space="preserve" fill="#000000" fill-rule="nonzero" stroke="#000000" stroke-width="4" stroke-linecap="butt" stroke-linejoin="miter" stroke-miterlimit="10" stroke-dasharray="" stroke-dashoffset="0" font-family="Handwriting" font-weight="normal" text-anchor="start" style="mix-blend-mode: normal"><tspan x="0" dy="0">CTH</tspan></text><path d="M294.67307,72.45431c0,-1.38071 1.11929,-2.5 2.5,-2.5c1.38071,0 2.5,1.11929 2.5,2.5c0,1.38071 -1.11929,2.5 -2.5,2.5c-1.38071,0 -2.5,-1.11929 -2.5,-2.5z" stroke="none" stroke-width="0.5"/></g></g></g></svg>