<svg version="1.1" xmlns="http://www.w3.org/2000/svg" xmlns:xlink="http://www.w3.org/1999/xlink" width="770.89367" height="770.89367" viewBox="0,0,770.89367,770.89367"><g transform="translate(148.44983,212.95432)"><g data-paper-data="{&quot;isPaintingLayer&quot;:true}" fill-rule="nonzero" stroke-linecap="butt" stroke-linejoin="miter" stroke-miterlimit="10" stroke-dasharray="" stroke-dashoffset="0" style="mix-blend-mode: normal"><g fill="#ffe656" stroke="none" stroke-width="1"><path d="M236.99692,557.93918c-212.87603,0 -385.44675,-172.57039 -385.44675,-385.44675c0,-212.87603 172.57039,-385.44675 385.44692,-385.44675c212.87636,0 385.44675,172.57039 385.44675,385.44692c0,212.87603 -172.57039,385.44675 -385.44675,385.44675z"/><path d="M543.23198,142.37419c-100.36105,-100.36105 -200.71064,-200.71064 -301.0717,-301.0717c178.86656,2.74709 323.29081,147.16004 326.02693,326.02693z"/><path d="M391.29507,465.4223c-149.76334,-148.51688 -298.61153,-297.96054 -446.79727,-448.04406c45.85026,-86.25056 128.4602,-149.9841 227.14407,-169.73192l390.21281,390.21281c-19.82495,98.99291 -83.90061,181.81247 -170.55945,227.56333z"/><path d="M-45.97041,104.90851c127.04816,128.37192 254.86835,255.97151 383.06356,383.18491c-31.61858,10.02851 -65.15671,15.72102 -100.09607,15.72102c-182.98196,0 -331.32213,-148.34034 -331.32213,-331.32213c0,-35.10493 5.7477,-68.80848 15.86464,-100.55954c10.84474,10.97723 21.63445,22.00932 32.49017,32.97575z"/></g><path d="M338.12786,440.68463l-16.60623,-175.12057l54.34776,-12.07729l18.11601,193.23645z" fill="#ffda00" stroke="#ffffff" stroke-width="4.5"/><path d="M-36.26772,99.50165l-9.15338,-34.7221l199.73371,-9.05787l381.58089,66.42505l-64.09367,36.23188z" fill="#ffda00" stroke="#ffffff" stroke-width="4.5"/><path d="M394.22738,455.65881l-175.71445,-112.33817l-192.19948,81.12082l52.52982,-201.8924l-136.5202,-157.7267l208.22664,-12.4239l107.78791,-178.61934l76.22137,194.22802l203.11795,47.34912l-161.12208,132.46043z" fill="#ffda00" stroke="#ffffff" stroke-width="10"/><path d="M343.83887,455.65881c0,0 14.3445,9.02775 5.67862,3.4874c-24.28244,-15.5243 -161.80043,-103.2995 -161.80043,-103.2995l-170.76867,72.07573l46.67263,-179.38089l-121.2978,-170.33294l185.00886,19.1546l95.76917,-158.70279l67.72247,172.57111l180.46973,42.06951l-143.15648,117.69074c0,0 78.10208,185.64039 80.48808,213.70177c0.81453,9.57947 -64.78618,-29.03474 -64.78618,-29.03474z" fill="#ffe656" stroke="#ffffff" stroke-width="10"/><path d="M394.22738,455.72008l-175.71445,-112.33816l-192.19948,81.12082l52.52982,-201.89241l-136.5202,-157.7267l208.22664,-12.4239l107.78791,-178.61933l76.22137,194.22801l203.11795,47.34913l-161.12208,132.46043z" fill="#ffda00" stroke="none" stroke-width="0"/><path d="M370.15295,425.68006l-156.12181,-99.8121l-170.76867,72.07571l46.67263,-179.38089l-121.29781,-140.13976l185.00887,-11.03857l95.76917,-158.70279l67.72246,172.57111l180.46975,42.06951l-143.15661,117.69074z" fill="#ffe656" stroke="none" stroke-width="0"/></g></g></svg>