<svg version="1.1" xmlns="http://www.w3.org/2000/svg" xmlns:xlink="http://www.w3.org/1999/xlink" width="50.40737" height="37.79419" viewBox="0,0,50.40737,37.79419"><g transform="translate(-216.52455,-145.47222)"><g stroke-miterlimit="10"><path d="M241.63226,180.80846c-12.03156,0 -21.78506,-4.70259 -21.78506,-10.50353c0,-5.80095 9.75351,-10.50353 21.78506,-10.50353c12.03156,0 21.78506,4.70259 21.78506,10.50353c0,5.80095 -9.75351,10.50353 -21.78506,10.50353z" fill="#c7c7c7" stroke="#000000" stroke-width="0.5" stroke-linecap="butt"/><path d="M235.29708,156.4136c1.50085,-1.23032 1.46044,-4.34937 3.13712,-5.53246c0.19006,-0.03913 0.35043,-0.06187 0.47158,-0.0627c1.4021,-0.00957 2.5187,0.07119 3.61308,0.23774c0.08748,0.0757 0.17849,0.14741 0.27274,0.21491c1.06117,3.14552 3.49689,4.85817 6.72815,1.72138c0.60345,0.00235 1.20789,-0.00427 1.81151,-0.00336c0.89065,0.36201 1.51689,1.06303 2.15205,1.58835l0.18761,0.29481l0.04111,0.12333l0.11289,0.13171l0.2255,0.45099l0.00778,0.03499l0.18522,0.25646l0.0131,0.03273l0.07875,0.10499l0.02598,0.06171l0.04955,0.04504l0.11274,0.16913l0.05008,0.14024l0.09692,0.11306l0.03382,0.06764l0.1353,0.15786l0.05637,0.11274l0.0217,0.09763l0.05855,0.08107l0.05198,0.12994l0.10404,0.18207l0.29322,0.43982l0.02791,0.07813l0.05739,0.05988l0.2255,0.3946l0.06356,0.22598l0.12601,0.19803l0.05979,0.17934l0.03784,0.0757l0.05631,0.25336l0.12213,0.22901l0.1381,0.55237c0.54064,-0.54935 1.16574,-0.96753 1.94184,-1.1925c0.72155,0.16122 1.3506,0.0821 1.88218,-0.16661c0.46052,0.03476 0.96125,0.11766 1.5083,0.25443c3.38717,0.84679 2.13124,6.79028 2.00996,10.27956c-0.01406,0.40463 -0.00829,0.89208 -0.29459,1.17837c-4.11821,4.11821 -4.32137,-2.38457 -4.41891,-4.48555c-0.01238,-0.2667 -0.23914,0.51542 -0.47095,0.64788c-0.59608,0.34062 -3.37352,0.72444 -3.80524,-0.03107l-0.44463,-0.77811l-0.42488,-0.02022l-0.55499,-0.0185l-0.0333,-0.0095l-0.07033,-0.00336l-0.01941,-0.02229l-0.6662,-0.19034l-0.37141,-0.21427l-0.39519,-0.1664l-0.65457,-0.49094l-0.15712,-0.11222l0.01535,0.72136l-0.46839,0.46839l-0.16468,0.60383l-0.60383,0.16468l-0.44255,0.44255l-0.60596,-0.15659l-0.63905,0.1743l-0.56504,-0.33903l-0.04131,0.00284l-0.08942,-0.0813l-0.29797,-0.17878l-0.06075,-0.0157l-0.03315,-0.05908l-0.12302,-0.12302l-0.12077,-0.20128l-0.1737,-0.15791l-0.45099,-0.67649l-0.00866,-0.02428l-0.01868,-0.01773l-0.78925,-1.24023l-0.03087,-0.09258l-0.0651,-0.07267l-0.25991,-0.49249l-0.023,0.07593l-0.06813,0.11388l-0.02114,0.13101l-0.33824,0.78925l-0.20181,0.26554l-0.17337,0.366l-0.14034,0.04678l-0.21943,0.28872l-0.98628,0.11319l-0.90714,0.30238l-0.20115,-0.17521l-0.26502,0.03042l-0.5762,-0.7631l-0.74861,-0.65204l-0.01513,-0.31773c-0.03146,0.07766 -0.06694,0.15327 -0.1062,0.22657l-0.01687,0.06746l-0.03107,0.01776c-0.40996,0.69463 -1.16611,1.16063 -2.03109,1.16063c-0.77191,0 -1.45715,-0.37111 -1.88703,-0.94465c-0.29731,0.19286 -0.66639,0.35617 -1.11732,0.48262c-0.12207,0.27405 -0.3091,0.54392 -0.57092,0.80574c-0.55981,0.55981 -1.27045,1.17837 -2.06217,1.17837c-1.30118,0 -1.50967,-2.219 -2.62503,-2.88908c-2.06467,-1.2404 -3.27161,1.60108 -4.28709,2.70961c-0.0755,0.0824 -0.14289,0.17298 -0.20229,0.26962c0.1093,0.27166 0.16945,0.56839 0.16945,0.87917c0,0.29534 -0.05432,0.57797 -0.15351,0.83847c0.20506,0.34947 0.32264,0.7565 0.32264,1.19099c0,1.29802 -1.04936,2.35094 -2.34601,2.35673c-2.46521,1.22157 -3.11765,-3.56398 -3.04398,-6.69754c0.0133,-0.56587 0.13663,-1.00174 0.32943,-1.3592c0.00829,-0.16347 0.01206,-0.313 0.0088,-0.44478c-0.12077,-4.89547 0.95747,-8.37068 6.86098,-7.38675c1.07727,0.17953 1.71777,1.13931 2.71503,1.31204c1.32178,0.22896 2.55484,-0.28908 3.706,-0.0227c0.06834,-0.02039 0.13798,-0.03776 0.20877,-0.05198c0.39564,-0.26294 0.86567,-0.55711 1.47873,-1.05965zM240.19496,161.76729l0.00462,-0.01137c-0.07932,0.03712 -0.16106,0.06994 -0.24489,0.09818l0.04774,0.21483c0.02687,0.07228 0.05029,0.14626 0.07005,0.2217l0.09106,-0.3035z" fill="#c7c7c7" stroke="none" stroke-width="0.5" stroke-linecap="butt"/><path d="M230.12113,155.37174c0.28508,0 0.55265,0.13366 0.79364,0.31317c0.30042,-0.95554 1.03816,-2.06883 1.87608,-2.0695c0.43156,-1.62665 1.07602,-3.04078 2.40943,-3.98984c0.82197,-1.91553 2.26905,-3.36773 4.07698,-3.34685c0.8253,0.00954 1.45196,0.42183 1.87285,1.01767c1.18175,0.1495 2.30381,1.16585 3.78638,2.57339c0.59752,0.56728 1.63648,0.50609 2.2191,1.0887c0.14572,0.14572 0.29748,0.86265 0.39474,1.72115c0.72438,-0.16617 1.41194,-0.32048 1.91857,-0.30159c4.51403,0.16833 5.99487,3.45459 5.99487,7.61599c0,0.07903 0.00065,0.16792 0.00121,0.26376c0.04136,-0.01579 0.0833,-0.03047 0.12575,-0.04398c2.41508,-2.77531 6.36383,-5.59757 8.10957,-0.7095c0.61148,1.71213 0.29946,4.55669 0.15786,6.30586c-0.20726,2.56049 -2.76287,2.83441 -4.41891,1.17837c-0.84418,-0.84418 -0.26991,-2.3758 -0.29459,-3.56938c-0.00909,-0.43922 -0.49068,0.7482 -0.83798,1.01724c-0.4943,0.38288 -2.74896,0.83942 -3.19725,0.05489c-0.31943,-0.18852 -0.59053,-0.45027 -0.7902,-0.76215c-0.89059,0.61675 -2.16296,0.36781 -3.35744,-0.70586c-1.38407,-1.24408 1.12432,-5.71185 -1.59555,-5.90999c-0.63578,-0.04632 0.19148,1.06121 -0.02959,1.64235c-0.11072,0.29108 -1.08115,1.51875 -1.15059,1.59636c-0.86472,0.96644 -3.35952,-0.11369 -4.86038,-0.8696c-0.2376,0.01192 -0.47437,-0.03052 -0.71789,-0.12736c-0.85914,1.00864 -2.7287,0.39641 -4.10777,0.52859c-1.24973,2.08821 -6.07449,4.30407 -6.95691,3.51451l-0.20405,-0.2523c-0.24419,0.45547 -0.62301,0.85214 -1.16305,1.16073c-1.17091,0.66909 -3.82187,-1.91533 -4.97059,-2.48968c-0.41789,0.37742 -0.97166,0.60725 -1.57912,0.60725c-1.3016,0 -2.35675,-1.05516 -2.35675,-2.35675c0,-0.08673 0.00468,-0.17237 0.01382,-0.25668c-0.44543,-1.02319 -0.54431,-2.14134 0.05422,-3.01016c0.20178,-0.67847 0.57416,-1.31358 0.89937,-1.49448c0.88456,-0.492 1.52363,0.60433 2.074,0.55276c1.18325,-0.11086 1.37847,-1.8651 3.00713,-1.44424c0.60831,0.1572 0.89531,0.80132 1.22624,1.39362c0.04206,0.03404 0.08406,0.06881 0.12594,0.10434c0.2458,-0.32882 0.70467,-0.5408 1.45085,-0.5408zM239.10944,154.15844c-0.0052,0.09835 0.02518,0.58604 0.0193,1.12464c0.39022,-0.01505 0.80767,-0.02438 1.21963,-0.0012c-0.22683,-0.75149 -0.46171,-1.43713 -0.82031,-1.86634c-0.19476,0.23211 -0.40423,0.4703 -0.41861,0.7429z" fill="#c7c7c7" stroke="none" stroke-width="0.5" stroke-linecap="butt"/><path d="M224.73133,169.41748c0.82364,1.46422 -0.37489,3.11524 0.28949,4.50794c1.0028,2.10201 4.49146,-0.26735 5.77256,1.97456c1.68069,2.94122 -2.81403,3.80454 -4.70587,3.68418c-4.02496,-0.25604 -5.87796,-3.78368 -5.91181,-7.26212c-0.00368,-0.37846 0.04184,-1.34104 0.16045,-2.06185c0.00741,-0.05198 0.01652,-0.10341 0.02726,-0.15425c0.22547,-1.06648 1.17215,-1.86684 2.30576,-1.86684c0.76694,0 1.44835,0.36635 1.87873,0.9336c0.07024,0.07255 0.13207,0.15345 0.18344,0.24476z" fill="#c7c7c7" stroke="none" stroke-width="0.5" stroke-linecap="butt"/><path d="M256.78411,157.08091c0.00748,0 0.01494,0.00006 0.02239,0.00018c0.02456,-0.75941 0.64792,-1.36751 1.4133,-1.36751c0.37315,0 0.71251,0.14452 0.96521,0.38065c0.38554,-0.07056 0.76875,-0.0658 1.12274,0.03376c0.31452,0.08846 0.57017,0.33332 0.764,0.66779c0.24568,-0.20607 0.56244,-0.33015 0.90818,-0.33015c0.78096,0 1.41406,0.63309 1.41406,1.41406c0,0.14287 -0.02118,0.2808 -0.0606,0.41078c0.36717,0.25541 0.60753,0.68046 0.60753,1.16164c0,0.78096 -0.63309,1.41406 -1.41406,1.41406c-0.55291,0 -1.03171,-0.31734 -1.26419,-0.77983c-0.15458,0.348 -0.38072,0.60701 -0.68149,0.70726c-0.5881,0.19603 -1.28822,-0.65791 -1.82645,-0.35034c-0.24596,0.41678 -0.69966,0.69638 -1.21865,0.69638c-0.41766,0 -0.79301,-0.18106 -1.05188,-0.469c-0.06236,0.31318 -0.15995,0.57028 -0.30876,0.7191c-0.9427,0.9427 -1.5319,0.9427 -2.47458,0c-1.08904,-1.08904 0.788,-3.98554 0.16508,-5.16168c-0.64505,-1.21792 -3.55733,-1.61417 -4.89773,-1.53718c-0.08158,0.01464 -0.16561,0.02228 -0.25142,0.02228c-0.78096,0 -1.41406,-0.63309 -1.41406,-1.41406c0,-0.18789 0.03664,-0.36722 0.10317,-0.53125c0.33726,-1.34634 1.35594,-3.39293 2.8383,-2.48358c0.0853,0.05232 1.00493,1.77838 1.09581,1.76305c0.78842,-0.13301 1.58923,-0.63591 2.36062,-0.42553c0.16049,0.04377 0.24406,0.17537 0.29339,0.33696c0.04077,-0.00353 0.08202,-0.00534 0.12372,-0.00534c0.47327,0 0.89222,0.23248 1.1489,0.58948c0.36802,-0.06942 0.75721,-0.07877 1.03193,0.10439c1.11598,0.74399 0.51836,3.0578 0.29411,4.44646c0.06259,-0.00847 0.12646,-0.01285 0.19138,-0.01285z" fill="#c7c7c7" stroke="none" stroke-width="0.5" stroke-linecap="butt"/><path d="M241.98934,150.1166c-0.39395,-0.15384 -0.79179,-0.3518 -1.16274,-0.57513c-0.49049,0.01367 -1.13206,-0.1732 -1.59188,-0.45901c-0.22215,0.14526 -0.48766,0.22971 -0.77288,0.22971c-0.34247,0 -0.65653,-0.12174 -0.90121,-0.32434c-0.10927,0.36514 -0.36212,0.66827 -0.693,0.84385c-0.00838,0.62654 -0.42424,1.1547 -0.99462,1.33155c-0.0835,0.35458 -0.30045,0.65766 -0.59494,0.85331c-0.04313,0.2741 -0.16499,0.52204 -0.34171,0.71995c0.01127,0.07193 0.01713,0.14566 0.01713,0.22077c0,0.518 -0.27855,0.97097 -0.69402,1.21726c0.09414,0.18935 0.14709,0.40283 0.14709,0.62865c0,0.78096 -0.63309,1.41406 -1.41406,1.41406c-0.18465,0 -0.36102,-0.03539 -0.52272,-0.09975c-0.09598,0.02057 -0.19557,0.03139 -0.29769,0.03139c-0.78096,0 -1.41406,-0.63309 -1.41406,-1.41406c0,-0.40823 0.173,-0.77606 0.44968,-1.03417c-0.02581,-0.10683 -0.03948,-0.21839 -0.03948,-0.33316c0,-0.74535 0.57667,-1.35599 1.30818,-1.41014c-0.00608,-0.05326 -0.00922,-0.1074 -0.00922,-0.16229c0,-0.49203 0.2513,-0.92536 0.63255,-1.17865c0.08431,-0.53592 0.46965,-0.97186 0.97749,-1.12933c0.07561,-0.32106 0.26063,-0.59991 0.51357,-0.795c-0.0028,-0.03638 -0.00424,-0.07316 -0.00424,-0.11026c0,-0.78096 0.63309,-1.41406 1.41406,-1.41406c0.00243,0 0.00488,0 0.00733,0.00001c0.16881,-0.59204 0.71379,-1.02552 1.36,-1.02552c0.24798,0 0.48104,0.06383 0.68367,0.17595c0.20262,-0.11211 0.4357,-0.17595 0.68367,-0.17595c0.31147,0 0.59942,0.10069 0.83306,0.27132c0.91916,-0.41181 2.7372,0.11576 3.94521,1.1358c0.45503,0.11034 0.82404,0.44081 0.98791,0.87229c0.45753,0.17377 0.80147,0.57818 0.88984,1.07122c0.01458,-0.00045 0.0292,-0.00066 0.0439,-0.00066c0.78096,0 1.41406,0.63309 1.41406,1.41406c0,0.78096 -0.63309,1.41406 -1.41406,1.41406c-0.31921,0 -0.61374,-0.10579 -0.85042,-0.28419c-0.05736,0.00709 -0.11579,0.01073 -0.17507,0.01073c-0.23327,0 -0.45336,-0.05649 -0.6473,-0.15652c-0.16551,-0.02794 -0.32125,-0.08464 -0.4619,-0.16478c-0.50121,-0.21743 -0.85177,-0.71669 -0.85177,-1.29785c0,-0.05045 0.00264,-0.1003 0.0078,-0.14938c-0.15384,-0.04609 -0.31023,-0.1004 -0.46723,-0.16171z" fill="#c7c7c7" stroke="none" stroke-width="0.5" stroke-linecap="butt"/><path d="M230.84324,176.79373c0.02552,0.01736 0.04943,0.03927 0.0719,0.06499c0.33551,0.25855 0.55166,0.66439 0.55166,1.12074c0,0.02071 -0.00045,0.0413 -0.00134,0.06178c0.02422,-0.00586 0.05044,-0.02424 0.07925,-0.0575c0.60721,-0.70099 0.72437,-1.4941 1.86868,-1.49552c1.55342,-0.00193 1.17513,2.21432 2.1557,2.46999c1.03395,0.26961 1.99644,-0.79187 3.0295,-0.8204c1.05419,-0.02913 2.95009,-0.36619 4.05698,0.04002c0.26609,0.09766 0.57941,0.93403 0.69614,0.93779c1.97107,0.0637 4.52113,-1.48407 6.5,-1.98408c1.84537,-0.46627 4.03306,-0.53777 5.68473,-1.03218c0.60171,-0.18012 2.13671,0.80274 1.86967,0.23424c-0.80193,-1.70721 2.74016,-2.34525 3.20647,-3.56959c0.60563,-1.5902 1.49768,-2.78074 2.13279,-4.24684c0.00968,-0.02234 -1.11901,-1.46916 -1.09439,-1.82894c0.1632,-2.38582 3.48264,-0.65492 3.84987,0.81399c0.74232,2.96931 -0.92624,10.44056 -4.36303,11.51662c-1.44061,0.45105 -3.52226,0.43242 -4.94761,-0.03392c-0.60017,-0.19637 -2.71973,1.38795 -3.52981,1.5847c-1.36711,0.33204 -3.22813,-0.29812 -4.32537,0.00749c-1.19662,0.3333 -4.15483,1.88336 -5.30329,1.62814c-0.5942,-0.13205 -1.60983,-1.2687 -1.91869,-1.29921c-2.83169,-0.27971 -5.57756,2.17726 -7.89308,-0.3492c-0.65131,-0.71064 -1.93007,0.69744 -2.8585,0.43817c-1.08525,-0.30308 -1.13993,-1.51618 -1.56076,-2.35782c-0.10345,-0.19649 -0.162,-0.42034 -0.162,-0.65782c0,-0.78096 0.63309,-1.41406 1.41406,-1.41406c0.1257,0 0.24758,0.0164 0.3636,0.0472c0.15078,0.03245 0.29559,0.09195 0.42689,0.18115z" fill="#c7c7c7" stroke="none" stroke-width="0.5" stroke-linecap="butt"/><path d="M219.40922,159.8623c0,-0.78096 0.63309,-1.41406 1.41406,-1.41406c0.78096,0 1.41406,0.63309 1.41406,1.41406c0,0.43857 -0.19967,0.83051 -0.51303,1.08987c0.27375,0.25787 0.44468,0.62373 0.44468,1.02949c0,0.62826 -0.40972,1.16082 -0.97655,1.34506c0.7367,1.62907 0.29228,5.012 0.96383,6.18721c0.41678,0.24596 0.69638,0.69966 0.69638,1.21865c0,0.36548 -0.13866,0.69861 -0.36625,0.94958c-0.51795,2.40133 1.83892,4.58622 0.08652,4.98291c-4.63837,1.05001 -3.71719,-7.84354 -3.958,-9.48962c-0.12814,-0.87589 -0.93976,-3.71649 -0.2595,-4.39677c0.22377,-0.22377 0.4276,-0.39442 0.621,-0.51195c-0.11617,-0.20532 -0.18245,-0.44255 -0.18245,-0.69528c0,-0.52114 0.28193,-0.97644 0.70158,-1.2217c-0.05579,-0.15197 -0.08627,-0.31615 -0.08627,-0.48746z" fill="#c7c7c7" stroke="none" stroke-width="0.5" stroke-linecap="butt"/><path d="M255.30339,170.45913v0.20509c0,2.10452 0.57081,3.76305 0.7495,5.8198c0.09511,1.09458 -0.09666,2.10482 0.46314,3.07115c0,0 0.06259,0.11476 0.08461,0.2725c0.15141,0.05559 0.31099,0.099 0.47919,0.12917l-0.02224,-0.01811c0,0 0.62524,0 0.69977,0.58797c0.42348,-0.07243 0.81637,-0.19003 1.1638,-0.37255c1.05289,-0.55316 2.1226,-1.93617 3.0973,-2.70774c2.50709,-1.15888 1.57413,-3.07014 2.53123,-5.22915c0.51527,-1.16232 1.27288,-1.99283 0.86352,-3.44292c-0.37363,-1.32352 -1.46173,-1.88075 -1.47345,-3.5523l-0.06679,-0.86168c0,0 -0.00324,-0.04224 0.00218,-0.10684l-0.13138,-0.78828l0.12711,-0.02118c0,-0.2162 0,-0.6642 0,-0.88038c-0.09333,-1.47712 0.44318,-2.8225 0.02192,-4.57765c-0.2886,-1.20243 -1.86296,-0.85891 -2.73935,-0.97567c-1.42554,-0.18994 -1.47845,-0.66053 -2.34214,-1.51227c-0.22953,-0.22635 -0.99058,-0.1166 -1.69281,0.04362c-0.50019,0.90107 -0.79976,1.69129 -0.97461,2.45951c-0.0555,0.57566 -0.1142,1.15041 -0.21445,1.71208c-0.03981,0.98979 0.02899,2.04964 0.0539,3.35802c0.03317,1.74287 -0.8953,1.60371 -1.35841,2.826c-0.03723,0.09825 -0.071,0.20408 -0.10176,0.31621c0.22643,0.62177 0.44586,1.2286 0.63437,1.80794c0.00225,0.53388 0.06768,1.27063 -0.12288,1.8622c0.26876,0.2045 0.26876,0.57551 0.26876,0.57551zM253.27406,160.34087c0,-0.39048 0.31654,-0.70702 0.70702,-0.70702c0.18344,0 0.35055,0.06985 0.47619,0.1844c0.03169,-0.86747 0.14056,-1.68141 0.38079,-2.51938c0.00853,-0.09 0.01709,-0.17997 0.02585,-0.26988c-0.35111,-0.13138 -0.41986,-0.43044 -0.42496,-0.6238c-1.97834,1.57664 -1.73469,4.12622 -0.95802,6.76269c0.15882,-0.70233 0.36339,-1.40891 0.60706,-2.12801c-0.03486,0.0053 -0.07058,0.00804 -0.10692,0.00804c-0.39048,0 -0.70702,-0.31654 -0.70702,-0.70702zM254.23118,154.18788c0,-0.39048 0.31654,-0.70702 0.70702,-0.70702c0.33192,0 0.6104,0.22872 0.68649,0.53715c-0.06098,-0.98414 -0.2043,-1.9878 -0.88409,-2.352c-1.44644,-0.77498 -2.76026,1.29455 -3.80426,1.01959c-1.07791,-0.28391 -1.10294,-3.16018 -2.60395,-3.26131c-1.44868,-0.09761 -0.17847,1.04654 0.10163,1.47453l-0.04895,0.21257h0.08166v0.8204c0,0.39048 -0.31654,0.70702 -0.70702,0.70702c-0.18284,0 -0.34947,-0.06941 -0.47501,-0.18332l-0.68164,-0.61349l0.23264,-0.25851c-1.51405,-1.66904 -2.56688,-4.34759 -4.72472,-4.84736c-1.35548,-0.31393 -2.30811,0.33812 -3.59738,0.29642c-1.90491,-0.06161 -2.3661,-0.58844 -3.69235,1.10583c-1.22351,2.40187 -2.29553,3.98392 -3.06581,6.59448l-0.02907,0.23905c0.0205,0.19959 -0.05449,0.35301 -0.14684,0.46318c-0.04121,0.06178 -0.09481,0.12235 -0.16419,0.17147c0.22489,0.24168 0.38095,0.57019 0.43081,1.00819c0.23841,2.09416 -0.66122,4.50034 -0.5408,6.6903c0.05854,1.0647 0.64506,1.54156 0.81395,2.60537c0.30029,1.89165 0.21292,3.80238 0.21292,5.71091c-0.00159,0.78399 -0.31387,1.82662 -0.15117,2.59251c0.29431,1.38553 1.64125,1.78246 1.72155,3.36985c0.06976,1.37934 -1.281,2.6075 -2.7067,3.2206c3.78939,0.77438 7.75264,0.20807 11.71557,0.02671c1.41186,-0.06462 1.96253,1.0157 3.10012,1.02259c1.56425,0.07337 3.84984,-1.01037 5.52881,-1.28995c0.01183,-0.00198 0.02368,-0.00391 0.03558,-0.0058c-0.06934,-0.10623 -0.12715,-0.22153 -0.17098,-0.34708c-0.47698,-1.36604 1.08724,-2.33169 1.56075,-3.36671c-0.16195,-0.64462 -0.27012,-1.31929 -0.33665,-1.99861c-0.5023,-1.39896 -0.98031,-3.10072 -0.40271,-4.50084c0.09502,-0.23034 0.28566,-0.37894 0.51329,-0.49621c0.06509,-0.97277 0.10793,-2.34518 0.31065,-3.4635c-1.25725,-3.18721 -2.99613,-7.74345 -0.82984,-10.20371c0.4473,-0.50801 1.32634,-1.03666 2.241,-1.4712c-0.1415,-0.12928 -0.23026,-0.31533 -0.23026,-0.52209zM254.34139,180.52195c0,0 0.01883,0.00627 0.04918,0.0199c0.23376,0.01464 0.46869,0.02979 0.70309,0.04324l-0.06915,-0.1256c-0.6616,-0.53871 -1.15999,-1.25272 -1.5298,-2.06984c-0.66893,0.94872 -1.14924,1.47467 0.84669,2.13228zM253.89424,181.86342c-0.055,-0.01851 -0.11146,-0.03723 -0.16914,-0.0563c-0.4129,-0.01276 -0.8124,-0.01048 -1.18976,0.02179c-2.2299,0.1907 -4.46275,1.38278 -6.58253,1.4375c-1.25769,-0.15411 -1.73762,-1.11496 -2.97219,-1.02308c-4.42296,0.32925 -9.03994,0.83519 -13.23555,-0.3344c-1.13291,-0.31581 -1.94725,0.02093 -2.70585,-0.91245c-1.99817,2.58583 -2.9912,-1.21235 -4.91144,-1.707c-0.32463,-0.08363 -0.67999,0.30625 -0.98979,0.17816c-1.86847,-0.77264 -1.66233,-3.765 -2.66386,-5.10571c-1.65553,-2.2162 -2.12151,-3.96535 -1.89668,-6.85672c1.20539,-3.27072 0.57841,-8.4487 3.78575,-8.91768c0.38103,-0.05571 0.15655,-0.75488 0.26398,-1.12466c0.42,-1.4456 0.34379,-2.22796 1.77045,-2.78999c0,0 0.07745,-0.02324 0.1878,-0.02779c0.01878,-0.02278 0.03952,-0.04559 0.06235,-0.0684c0.39026,-0.39026 0.78054,-0.17122 0.93299,-0.05633c1.07743,0.24792 2.16657,-1.48554 3.7557,-0.9081c0.56492,0.20528 0.45326,1.18504 0.93855,1.53971c0.12051,0.08808 0.14555,-0.29277 0.28532,-0.34519c0.6421,-0.24083 1.19542,-0.13215 1.81445,-0.31251l0.02626,-0.16775c0.83284,-2.72125 1.99223,-4.44946 3.22391,-6.9421c1.60121,-2.0686 2.55438,-1.89589 4.92183,-1.76556c2.56064,0.14098 3.97535,-0.94504 6.03717,1.24905c0.432,0.45972 1.27104,1.1767 1.94744,1.96127c0.25676,-0.50602 0.8499,-0.84474 1.8862,-0.81641c1.07453,0.02938 2.08961,1.31469 2.60308,2.1009c0.11008,0.16855 0.25752,0.51637 0.33864,0.79961c0.26155,-0.22778 0.76629,-0.45752 1.05051,-0.5473c0.8822,-0.27865 2.15191,-0.38828 2.99941,0.05401c0.74592,0.38926 1.73752,2.16277 1.6457,3.34021c0.12296,-0.01344 0.30079,-0.00813 0.45883,0.09059c1.0728,-0.1817 2.31479,1.31254 3.05565,1.61046c1.03908,0.41783 2.32024,-0.03952 3.35844,0.48259c1.69322,0.85151 1.41499,2.76209 1.2142,4.28461c-0.06705,0.50845 0.02962,1.17739 0.03848,1.77973c0.02446,0.04364 0.04319,0.08792 0.05753,0.13011c0.03024,0.0787 0.04682,0.1642 0.04682,0.25355c0,0.27348 0,0.54694 0,0.82039v0.95713c0,0.02358 -0.00114,0.0469 -0.00341,0.06989c0.00098,0.00818 0.00132,0.01262 0.00132,0.01262l0.06992,0.91586c-0.01327,1.58661 0.97687,1.81757 1.39797,3.14764c0.5476,1.72971 -0.25933,3.06452 -0.91403,4.48761c-1.11307,2.41945 -0.11734,4.48334 -3.07482,5.84624c-1.00498,0.8138 -2.07929,2.17513 -3.19243,2.76158c-1.4317,0.75429 -3.35631,0.53415 -5.13353,0.42964c-0.25937,0.11706 -0.54168,0.02294 -0.54168,0.02294zM228.8712,179.87582l0.63462,-0.07383c0.36612,0.01667 0.75232,-0.09784 1.05762,-0.30061c0.41712,-0.27704 1.75499,-0.90364 1.99694,-1.34963c0.56297,-1.03776 -1.56393,-2.77491 -1.76451,-3.65356c-0.20214,-0.88553 0.12436,-1.97258 0.12229,-2.87683c0,-3.83492 -1.23701,-7.26153 -1.02452,-10.97572c0.05486,-0.95906 1.11121,-3.66628 0.14448,-4.1625c-0.11289,0.07635 -0.24902,0.12092 -0.39554,0.12092c-0.15876,0 -0.30528,-0.05232 -0.42331,-0.14069c-0.08136,0.00472 -0.22118,0.00154 -0.35957,-0.05445c-0.46594,0.10675 -0.85174,0.16039 -0.99444,0.09641c-0.59401,-0.26634 -0.48217,-1.44226 -1.11245,-1.60515c-1.38745,-0.35854 -2.1115,1.24304 -3.63919,0.9442c-0.14312,0.13294 -0.30964,0.1829 -0.30964,0.1829c-0.85579,0.04834 -0.72919,2.15595 -1.1339,2.90121c-0.65809,1.21184 -1.37702,1.01145 -2.21493,1.37346c-0.38192,0.16501 0.19537,0.85883 0.04635,1.24727c-0.7425,1.9355 -0.7501,4.18762 -1.54256,6.2577c-0.16036,2.53818 0.30315,3.80563 1.6584,5.72275c0.47467,0.67146 1.1374,4.45154 1.98507,4.60234c0.26952,0.04795 0.52658,-0.31402 0.78774,-0.23204c1.13336,0.35571 1.59804,1.15922 2.43511,1.85606c0.33837,0.28169 0.6306,1.14244 0.98449,0.88053c0.48986,-0.36253 0.93399,-0.83751 1.51378,-1.02526c0.30303,0.26169 0.66574,0.4222 1.05339,0.53806c0.18181,-0.23453 0.49428,-0.27358 0.49428,-0.27358z" fill="#000000" stroke="none" stroke-width="0.5" stroke-linecap="butt"/><path d="M231.37336,155.58516c0.06937,-0.04914 0.12324,-0.11021 0.16446,-0.17197c0.09236,-0.11017 0.16791,-0.26465 0.1474,-0.46423l0.02935,-0.23951c0.77026,-2.61057 1.85286,-4.20526 3.07637,-6.60714c1.32625,-1.6943 1.79436,-1.17229 3.69929,-1.11067c1.28927,0.0417 2.24945,-0.61381 3.60493,-0.29989c2.15785,0.49977 3.22088,3.17593 4.73493,4.84497l-0.23363,0.25862l0.68398,0.61321c0.12551,0.11392 0.294,0.18319 0.47684,0.18319c0.39048,0 0.70988,-0.3166 0.70988,-0.70709l-0.00078,-0.72613h-0.08137l0.04878,-0.21257c-0.2801,-0.42799 -1.55017,-1.66641 -0.10147,-1.5688c1.501,0.10113 1.53638,2.97854 2.61426,3.26242c1.044,0.27495 2.36889,-1.79062 3.81536,-1.01564c1.17654,0.63035 0.75611,3.18298 1.0731,4.22802c0.26634,-0.05243 2.58094,-0.8097 3.01242,-0.38418c0.86369,0.85176 0.92148,1.32938 2.34702,1.51932c0.87639,0.11677 2.45345,-0.22118 2.74203,0.98126c0.42126,1.75516 -0.1121,3.11308 -0.01877,4.5902c0,0.2162 0.00022,0.66683 0.00022,0.88304l-0.12711,0.02124l0.13145,0.79069c-0.00542,0.0646 -0.00218,0.10717 -0.00218,0.10717l0.06672,0.86428c0.01172,1.67154 1.09833,2.23792 1.47195,3.56144c0.40935,1.45009 -0.35153,2.28932 -0.86678,3.45166c-0.9571,2.15904 -0.03253,4.08222 -2.53963,5.24109c-0.9747,0.77159 -2.05221,2.16111 -3.10511,2.71427c-1.90927,1.00308 -5.20852,0.05191 -7.39785,0.41649c-1.67898,0.2796 -3.97981,1.3638 -5.54407,1.29041c-1.13758,-0.0069 -1.69674,-1.08914 -3.1086,-1.02455c-3.96293,0.18136 -7.9454,0.73562 -11.73478,-0.03877c1.42573,-0.61311 2.77575,-1.84204 2.70598,-3.22137c-0.08029,-1.58739 -1.43271,-1.99154 -1.72702,-3.37709c-0.16269,-0.76589 0.1469,-1.81355 0.14848,-2.59752c0,-1.90852 0.0833,-3.83416 -0.21699,-5.72582c-0.16888,-1.06382 -0.75558,-1.54807 -0.81412,-2.61279c-0.1204,-2.18996 0.7835,-4.61329 0.5451,-6.70748c-0.04986,-0.43801 -0.20512,-0.76816 -0.42999,-1.00984z" fill="#c7c7c7" stroke="none" stroke-width="0.5" stroke-linecap="butt"/><path d="M228.38832,180.19515c-0.38765,-0.11587 -0.75381,-0.27564 -1.05682,-0.53736c-0.57978,0.18777 -1.02998,0.66337 -1.51984,1.02589c-0.35389,0.2619 -0.64985,-0.59884 -0.98821,-0.88053c-0.83706,-0.69682 -1.31288,-1.50213 -2.44625,-1.85784c-0.26118,-0.08197 -0.52108,0.27907 -0.79058,0.23114c-0.84765,-0.15081 -1.52765,-3.9417 -2.00232,-4.61317c-1.35525,-1.91713 -1.83282,-3.21792 -1.67246,-5.75607c0.79248,-2.07009 0.81507,-4.35694 1.55758,-6.29246c0.14902,-0.38844 -0.42518,-1.08491 -0.04328,-1.24992c0.83791,-0.36201 1.568,-0.1681 2.2261,-1.37995c0.40471,-0.74527 0.2862,-2.85538 1.142,-2.90372c0,0 0.16782,-0.05021 0.31093,-0.18315c1.52767,0.29886 2.26552,-1.3032 3.65297,-0.94466c0.63028,0.16288 0.52363,1.33968 1.11764,1.60602c0.14269,0.06398 0.53211,0.01133 0.99808,-0.09542c0.13838,0.05599 0.27955,0.05961 0.36092,0.05487c0.11801,0.08835 0.26619,0.14128 0.42496,0.14128c0.14654,0 0.28381,-0.04409 0.3967,-0.12044c0.96674,0.49621 -0.08228,3.2073 -0.13716,4.16635c-0.21248,3.71419 1.03783,7.20702 1.03783,11.04195c0.00207,0.90424 -0.33348,2.00115 -0.13134,2.88667c0.20057,0.87864 2.32466,2.61792 1.76169,3.6557c-0.24194,0.44598 -1.58751,1.07697 -2.00465,1.354c-0.30528,0.20277 -0.69524,0.31879 -1.06136,0.30211l-0.63685,0.07453c0,0 -0.31444,0.0396 -0.49625,0.27413z" fill="#c7c7c7" stroke="none" stroke-width="0.5" stroke-linecap="butt"/><path d="M255.34841,180.98759l-2.52957,-1.29897l-1.50406,-3.41831l-0.34182,-3.41833l0.34182,-3.4867l1.77753,-9.98153l3.4867,-4.102" fill="none" stroke="#000000" stroke-width="1.5" stroke-linecap="round"/><path d="M250.83622,153.57257l2.18773,4.17037" fill="none" stroke="#000000" stroke-width="1.5" stroke-linecap="round"/><path d="M250.15255,153.36746l-1.6408,-0.75204" fill="none" stroke="#000000" stroke-width="1.5" stroke-linecap="round"/><path d="M252.68211,160.68269v-2.66631" fill="none" stroke="#000000" stroke-width="1.5" stroke-linecap="round"/><path d="M220.93663,165.94693c0,-0.39048 0.31654,-0.70702 0.70702,-0.70702c0.39048,0 0.70702,0.31654 0.70702,0.70702c0,0.39048 -0.31654,0.70702 -0.70702,0.70702c-0.39048,0 -0.70702,-0.31654 -0.70702,-0.70702z" fill="#c7c7c7" stroke="none" stroke-width="0.5" stroke-linecap="butt"/><path d="M232.37529,176.89204c0.67721,0.20316 0.47404,0.88037 0.47404,0.88037l-0.2112,0.70299c-0.9295,2.29796 -3.18333,1.83438 -5.28106,1.71452c-0.96068,-0.05489 -1.35123,0.43202 -2.38194,0.10107c-1.17393,-0.37695 -1.53883,-1.49727 -2.4759,-2.12237c-0.69157,-0.46135 -1.7952,-0.28172 -2.31339,-0.93179c-0.78064,-0.97931 -0.7032,-2.43111 -0.8461,-3.59265c-0.48037,-0.86027 -1.11024,-0.40412 -1.68395,-1.51281c-0.50204,-0.97022 -0.61383,-3.1647 -0.47308,-4.22729c0.3868,-2.92001 2.42223,-4.22972 1.85105,-7.3c0,0 -0.12648,-0.6956 0.56915,-0.82209c0.6956,-0.12648 0.82209,0.56915 0.82209,0.56915c0.72469,4.06543 -3.10322,7.04293 -1.49343,11.17042c0.18308,0.46941 1.37513,1.09419 1.73438,1.63205c0.16219,1.03496 0.08306,2.3149 0.65797,3.24401c0.3429,0.55415 1.35275,0.23841 1.92535,0.5723c0.83061,0.48431 1.23195,1.642 2.17301,1.97963c0.61937,0.22221 1.30321,-0.19477 1.99354,-0.17241c1.18187,0.03829 3.46477,0.69052 3.88007,-0.74667l0.19899,-0.66435c0,0 0.20316,-0.67721 0.88037,-0.47404z" fill="#939393" stroke="none" stroke-width="0.5" stroke-linecap="butt"/><path d="M253.38912,180.44065c0,0.70702 -0.70702,0.70702 -0.70702,0.70702l-0.08886,-0.00963c-1.22641,0.20368 -2.69775,0.12527 -3.79185,0.69961c-2.26558,0.90799 -3.45245,0.06324 -5.65654,-0.21891c-3.46443,-0.44349 -7.08077,0.53622 -10.56252,0.03698v0.10725h-0.8204c-0.39048,0 -0.70702,-0.31654 -0.70702,-0.70702c0,-0.17953 0.06693,-0.34347 0.17719,-0.46815l0.47631,-0.54436l0.03735,0.03268l0.06249,-0.12661c0.67721,-0.34616 1.08381,-0.67452 1.60183,-1.21905c-0.29672,-1.65107 -1.34122,-2.72922 -1.65963,-4.2454c-0.44343,-2.11163 0.82808,-4.41236 0.34637,-6.60912c-0.51696,-2.35756 -1.52151,-3.7751 -1.51975,-6.33654c0.359,-3.95028 1.01586,-7.38407 2.58517,-11.04646c0.77893,-1.81779 1.10165,-3.03578 3.04505,-3.86277c0,0 0.65264,-0.27193 0.92457,0.38072c0.27193,0.65264 -0.38069,0.92457 -0.38069,0.92457c-1.54428,0.6263 -1.66309,1.6538 -2.28756,3.11063c-1.50324,3.50696 -2.12975,6.77253 -2.47396,10.55741c0.00178,2.44384 0.99613,3.69025 1.48837,5.96945c0.48083,2.22632 -0.72449,4.53673 -0.3373,6.654c0.3131,1.71209 1.53727,2.9052 1.62197,4.91573c-0.32358,0.43917 -0.59973,0.79985 -0.91673,1.11042c1.11322,-0.06577 2.54341,0.09582 3.11183,0.09582c2.05399,0 4.37033,-0.39676 6.3924,-0.12923c1.91364,0.25319 2.94413,1.09747 4.87193,0.32802c1.2706,-0.6119 2.74967,-0.5721 4.13866,-0.80446l0.32133,-0.00963c0,0 0.70702,0 0.70702,0.70702z" fill="#939393" stroke="none" stroke-width="0.5" stroke-linecap="butt"/><path d="M234.08164,168.30368c-0.57922,0.40545 -0.98467,-0.17377 -0.98467,-0.17377l-0.48314,-0.69027c-0.76829,-1.15229 -1.07614,-1.85726 -1.08037,-3.27023c0.00257,-4.13247 0.64043,-8.14025 2.09583,-12.0068c0.28111,-0.74682 0.91062,-2.24765 1.64581,-3.13473c0.06334,-0.28903 0.13396,-0.57789 0.21571,-0.86884l0.08938,-0.06856l-0.03931,-0.02501l0.47217,-0.74199c0.12437,-0.20245 0.34786,-0.33748 0.60287,-0.33748c0.39048,0 0.70702,0.31654 0.70702,0.70702c0,0.08925 -0.01654,0.17462 -0.04672,0.25326l-0.33633,0.94168l-0.17973,-0.06419c-0.17779,0.70614 -0.28497,1.4161 -0.40487,2.13548c-0.53057,2.91857 -2.25628,6.00121 -1.58086,9.01407c0.37731,1.68315 2.14707,3.34603 3.0615,4.78693c0.79503,1.25279 1.19484,2.91036 1.70233,4.3001c1.63191,4.72538 6.90839,9.65676 11.83456,10.54794c0,0 0.6956,0.12648 0.56913,0.82209c-0.12648,0.6956 -0.82209,0.56915 -0.82209,0.56915c-5.42401,-0.99157 -11.10607,-6.2621 -12.91417,-11.46611c-0.46664,-1.28936 -0.83435,-2.88451 -1.57928,-4.04063c-1.0295,-1.59779 -2.78627,-3.31928 -3.22822,-5.19459c-0.0864,-0.36658 -0.14075,-0.73222 -0.16839,-1.09699c-0.20887,1.67198 -0.28343,3.36637 -0.28237,4.96819c-0.00402,1.16167 0.20236,1.52515 0.83389,2.47255l0.474,0.67706c0,0 0.40545,0.57922 -0.17377,0.98467z" fill="#939393" stroke="none" stroke-width="0.5" stroke-linecap="butt"/><path d="M236.66185,179.52193c0.00155,0.00526 0.00312,0.01054 0.00467,0.0158c0.0271,-0.00247 0.0542,-0.00486 0.08132,-0.00724c-0.0296,-0.00274 -0.05832,-0.00561 -0.08599,-0.00859zM237.27627,181.34962c0.03018,0.07863 0.04672,0.16401 0.04672,0.25326c0,0.39048 -0.31654,0.70702 -0.70702,0.70702c-0.14268,0 -0.27549,-0.04226 -0.3866,-0.11497l-1.18652,-0.74936l0.13359,-0.21153c-0.03278,-0.02079 -0.06548,-0.04189 -0.09799,-0.06321c-0.52302,0.09553 -1.04009,0.21411 -1.54985,0.35984c0,0 -0.67983,0.19423 -0.87406,-0.48558c-0.19423,-0.67981 0.48558,-0.87406 0.48558,-0.87406c0.13834,-0.0395 0.27716,-0.0771 0.41643,-0.11288l-0.03082,-0.18492l0.005,-0.00083l-0.00679,-0.01054c-0.0539,-0.40842 -0.09215,-0.81931 -0.11572,-1.23102c-0.21939,-0.68014 -0.26123,-1.47449 -0.3635,-2.19167c-0.25311,-1.77494 -0.2375,-3.40628 -0.16822,-5.04545c-0.45264,-3.61401 -0.98582,-7.32691 -0.55698,-10.71279l-0.18201,0.00729l-0.05634,-1.40851c-0.00049,-0.01083 -0.00074,-0.02171 -0.00074,-0.03266c0,-0.39048 0.31654,-0.70702 0.70702,-0.70702c0.37134,0 0.67582,0.28629 0.70477,0.6502l0.05794,0.63739l0.11306,0.25469c1.57293,1.37748 3.06303,2.9618 3.68862,5.01629c0.97059,2.42266 1.00383,5.3164 2.63328,7.46658c0.76092,1.00409 2.00639,1.53848 2.83943,2.4899c1.29818,1.48269 2.33599,2.78726 3.69222,3.99981l0.6361,0.14679c0.1891,0.03945 0.35047,0.15446 0.45112,0.31199c0.45948,0.06222 0.91057,0.15116 1.35801,0.27197l0.02837,-0.00472v-0.11559h0.75203c0.39048,0 0.70702,0.31654 0.70702,0.70702c0,0.35488 -0.26147,0.6487 -0.60225,0.69933l-0.80894,0.1348l-0.00427,-0.02568l-0.05364,0.0329c-3.83651,0.00859 -7.9615,-0.61908 -11.86162,-0.30537zM236.27324,168.60312c-0.0112,-0.0535 -0.023,-0.10666 -0.03545,-0.15946l-0.04026,0.02562c0.02596,0.04435 0.05119,0.08896 0.07572,0.13383z" fill="#939393" stroke="none" stroke-width="0.5" stroke-linecap="butt"/><path d="M220.66318,177.84273c0,-0.70702 0.70702,-0.70702 0.70702,-0.70702h0.75204c0.11165,0.00046 0.23818,-0.01246 0.37494,-0.03366c-0.6091,-0.28139 -1.57953,-0.46847 -1.95196,-1.00463c-0.41793,-0.60171 -0.60946,-1.46019 -0.69692,-2.31509c-0.0473,-0.09486 -0.07391,-0.20185 -0.07391,-0.31505c0,-0.07346 0.01121,-0.14432 0.03201,-0.2109c-0.00676,-0.11458 -0.01208,-0.22809 -0.01625,-0.33989c-0.14046,-0.19174 -0.26736,-0.40963 -0.37985,-0.64628l-0.32091,0.77024c-0.10277,0.26351 -0.35906,0.4502 -0.65895,0.4502c-0.39048,0 -0.70702,-0.31654 -0.70702,-0.70702v-0.75203c0,-1.21899 -0.65921,-5.69105 1.23308,-5.97095c0.16454,-0.02433 0.31769,0.00676 0.46016,0.08322c-0.13041,-1.21921 -0.10097,-2.44063 0.01833,-3.8103c0.07217,-0.82839 -0.16596,-2.00906 0.47813,-2.69772c0.28035,-0.29976 1.53381,-0.31238 1.69402,-0.86782c0.40048,-1.38844 0.00493,-2.21346 1.3535,-3.18578c0,0 0.58828,-0.39219 0.98047,0.19609c0.39218,0.58828 -0.19609,0.98047 -0.19609,0.98047c-1.02463,0.58697 -0.42491,1.59958 -0.83423,2.55701c-0.47575,1.11277 -1.31879,0.77764 -1.99778,1.31992c-0.19852,0.15853 -0.04937,1.59075 -0.06878,1.81446c-0.19748,2.27471 -0.15585,4.06769 0.5706,6.25114c0.51291,1.17238 0.65553,2.97045 1.24729,4.34995c0.41997,0.18105 0.79144,0.38892 0.98831,0.68281c0.1692,0.25259 0.30094,0.60857 0.4076,0.99931c1.10486,0.72521 2.57403,1.4026 3.81021,1.66427c0.75562,0.15995 2.90915,-0.00773 3.47186,0.51926c2.06895,1.93766 -0.91511,2.62388 -2.23836,2.65713c-0.46111,0.08938 -0.98382,0.0899 -1.44751,0.01137c-0.33895,0.00788 -0.67807,0.02185 -1.01941,0.04661l-0.6875,0.1875c-0.0639,0.01898 -0.1316,0.02918 -0.20165,0.02918c-0.30592,0 -0.56646,-0.1943 -0.66497,-0.46621c-0.31015,0.09742 -0.69632,0.05744 -1.15181,-0.1922c-0.28627,-0.15689 -0.48343,-0.40582 -0.62324,-0.71136c-0.39435,0.04483 -0.78982,0.06941 -1.18344,0.07079h-0.75204c0,0 -0.70702,0 -0.70702,-0.70702zM230.28402,178.15437c0.18117,-0.00982 0.14676,-0.02685 -0.01881,-0.0499c0.00666,0.01677 0.01292,0.03341 0.01881,0.0499z" fill="#939393" stroke="none" stroke-width="0.5" stroke-linecap="butt"/><path d="M256.51912,181.13141c-0.5521,0.44168 -0.99377,-0.11041 -0.99377,-0.11041l-0.23509,-0.29576c-1.07414,-1.19402 -3.22279,-2.12195 -3.85901,-3.61052c-0.92098,-2.15496 0.51279,-5.17457 0.67053,-7.38336c0.47024,-5.58995 0.89381,-10.12111 4.82818,-14.42198c0,0 0.47775,-0.52119 0.99893,-0.04343c0.52119,0.47776 0.04344,0.99893 0.04344,0.99893c-3.72087,4.05015 -4.02504,8.30058 -4.46072,13.57557c-0.13326,1.86518 -1.5437,4.9475 -0.76861,6.74622c0.51143,1.18681 2.71079,2.20695 3.59828,3.19263l0.28823,0.35838c0,0 0.44168,0.5521 -0.11041,0.99377z" fill="#939393" stroke="none" stroke-width="0.5" stroke-linecap="butt"/><path d="M254.55951,157.3101c-0.41096,0.57534 -0.98628,0.16438 -0.98628,0.16438l-0.71141,-0.66077c-0.84602,-2.33185 -0.75219,-3.08385 -3.18962,-4.03088c0,0 -0.12614,-0.04905 -0.24655,-0.15941c-0.22978,-0.0709 -0.37636,-0.2541 -0.37636,-0.2541l-0.17928,-0.24032c-0.68835,-0.62914 -0.97191,-1.20935 -1.44484,-1.99629c0,0 -0.36377,-0.60627 0.24249,-0.97003c0.60627,-0.36376 0.97003,0.24251 0.97003,0.24251c0.39408,0.65777 0.58968,1.16951 1.17175,1.66692l0.30988,0.37275c0.0411,0.01061 0.0654,0.02006 0.0654,0.02006c2.80703,1.09259 3.05916,2.26714 4.00602,4.86553l0.20439,-0.00663c0,0 0.57534,0.41096 0.16438,0.98628z" fill="#939393" stroke="none" stroke-width="0.5" stroke-linecap="butt"/></g></g></svg>