<svg version="1.1" xmlns="http://www.w3.org/2000/svg" xmlns:xlink="http://www.w3.org/1999/xlink" width="770.89367" height="770.89367" viewBox="0,0,770.89367,770.89367"><g transform="translate(148.44983,212.95432)"><g data-paper-data="{&quot;isPaintingLayer&quot;:true}" fill-rule="nonzero" stroke="none" stroke-width="1" stroke-linecap="butt" stroke-linejoin="miter" stroke-miterlimit="10" stroke-dasharray="" stroke-dashoffset="0" style="mix-blend-mode: normal"><g fill="#29abe2"><path d="M236.99692,557.93918c-212.87603,0 -385.44675,-172.57039 -385.44675,-385.44675c0,-212.87603 172.57039,-385.44675 385.44692,-385.44675c212.87636,0 385.44675,172.57039 385.44675,385.44692c0,212.87603 -172.57039,385.44675 -385.44675,385.44675z"/><path d="M543.23198,142.37417c-100.36105,-100.36105 -200.71064,-200.71064 -301.0717,-301.0717c178.86656,2.74709 323.29081,147.16004 326.02693,326.02693z"/><path d="M391.29507,465.42227c-149.76334,-148.51688 -298.61153,-297.96054 -446.79727,-448.04406c45.85026,-86.25056 128.4602,-149.9841 227.14407,-169.73192l390.21281,390.21281c-19.82495,98.99291 -83.90061,181.81247 -170.55945,227.56333z"/><path d="M-45.97041,104.90848c127.04816,128.37192 254.86835,255.97151 383.06356,383.18491c-31.61858,10.02851 -65.15671,15.72102 -100.09607,15.72102c-182.98196,0 -331.32213,-148.34034 -331.32213,-331.32213c0,-35.10493 5.7477,-68.80848 15.86464,-100.55954c10.84474,10.97723 21.63445,22.00932 32.49017,32.97575z"/></g><g><g><path d="M353.93649,306.57771c-19.42966,8.03216 -38.21243,14.0659 -54.62714,16.88447c-13.85797,2.37576 -41.68944,5.31755 -56.06338,5.31755c-17.20406,0 -53.98796,-2.04462 -76.05521,-9.42989c-29.55264,-9.9112 -66.71003,-35.79431 -84.74195,-64.90799c-38.44346,-62.02781 22.3984,-135.84203 18.88674,-131.57182l-12.1291,-102.73152l69.96371,46.30619c0,0 24.43917,-9.83804 50.1259,-11.05866c9.59931,-0.45821 26.86884,0.45821 35.23214,1.23216l15.49829,-6.00679l40.37256,-39.76033l15.49829,62.74401c0,0 35.28604,25.72524 45.37437,43.6917c15.22875,27.13837 14.27383,56.20585 14.27383,56.20585c0,0 40.30325,6.15696 48.30076,41.17732c7.9821,35.02421 -18.31686,70.54128 -69.9098,91.90775zM159.19327,66.44471l11.0548,11.07791M269.39477,63.21413c0,0 -12.67587,-5.61404 -23.53815,-7.42378" fill="#faa51d"/><path d="M421.76702,216.07925c8.00135,35.02036 -19.72615,68.11161 -71.32294,89.48578c-19.42966,8.02446 -44.12296,15.22875 -60.59542,17.57371c-14.97462,2.13703 -55.30483,3.19592 -55.30483,3.19592c-5.89128,-1.57101 -9.20271,-2.653 -18.85978,-6.18776c-34.78163,-12.77213 -84.61874,-39.13655 -81.93878,-84.76506c0.4043,-6.99252 3.57712,-12.55265 8.10147,-16.96533c13.58459,-13.22264 39.35603,-16.05661 39.35603,-16.05661l42.29012,-18.56714c0,0 37.16124,17.53521 60.91117,12.36783c7.41608,-1.60951 12.50645,-4.53205 16.01426,-7.78958c7.68561,-7.13499 7.71257,-15.87564 7.71257,-15.92955l49.50982,-14.45865l15.65231,16.87677c0,0 40.48038,6.17236 48.47403,41.21967z" fill="#ffffff"/></g><g><path d="M218.41791,135.21091c15.89874,24.33905 14.21992,53.58365 -3.70419,65.27764c-17.94336,11.72479 -45.37437,1.48245 -61.25001,-22.85661c-15.91029,-24.33905 -14.25458,-53.5721 3.68108,-65.28919c17.93566,-11.71709 45.35897,-1.47859 61.27311,22.86816" fill="#ffffff"/><path d="M208.70308,167.20092c0,5.86432 -4.36647,10.6274 -9.78799,10.6274c-5.38686,0 -9.79954,-4.76693 -9.79954,-10.6274c0,-5.86817 4.41268,-10.6351 9.79954,-10.6351c5.41381,0.00385 9.78799,4.76693 9.78799,10.6351" fill="#000000"/></g><g><path d="M347.29437,118.47275c15.88719,24.3352 17.83555,51.16938 2.67225,61.08059c-15.171,9.91505 -39.01333,-2.99569 -54.89282,-27.354c-15.93725,-24.33135 -16.73045,-49.61763 -1.5556,-59.53268c15.14404,-9.8958 37.87358,1.45934 53.77618,25.8061" fill="#ffffff"/><path d="M344.57206,156.41565c0,5.86432 -4.35877,10.6274 -9.77644,10.6274c-5.39456,0 -9.80339,-4.76308 -9.80339,-10.6274c0,-5.86817 4.40883,-10.63895 9.80339,-10.63895c5.41766,0.00385 9.77644,4.77078 9.77644,10.63895" fill="#000000"/></g><path d="M283.05252,185.77961c10.07293,0 24.75491,-1.5479 25.51731,3.08811c0.78165,4.64756 -9.28742,22.83351 -16.23374,23.60746c-6.96557,0.76625 -33.27608,-12.78368 -33.64958,-21.29715c-0.40045,-8.50577 15.07088,-5.39841 24.36601,-5.39841" fill="#5e4a42"/><path d="M77.7743,210.0301c-0.11937,-0.09626 -12.9377,-9.56466 -32.60609,-18.2668c-21.79387,-9.65322 -34.02308,-12.27927 -34.13859,-12.30622l1.33228,-6.38799c0.51982,0.11166 12.93385,2.75696 35.45162,12.72592c20.37688,9.02944 33.31458,18.6018 33.85366,19.00995l-3.89286,5.22514z" fill="#0d3846"/><path d="M44.51747,235.29713c-11.0548,0 -27.66204,-1.49785 -28.45139,-1.57101l0.57758,-6.49195c0.21948,0.0154 22.20972,1.99456 31.97846,1.44394c9.8881,-0.56217 29.40247,-3.14201 29.59499,-3.16512l0.85481,6.46115c-0.80476,0.10396 -19.93792,2.62605 -30.08401,3.20362c-1.31302,0.09241 -2.83012,0.11937 -4.47044,0.11937z" fill="#0d3846"/><path d="M402.50294,203.9001l-1.05119,-6.43805c0.24643,-0.03851 24.58164,-4.03918 36.72998,-8.26319c13.97734,-4.86319 23.50349,-13.12638 23.61131,-13.20724l4.29332,4.89784c-0.42356,0.3735 -10.58504,9.18731 -25.75989,14.45095c-12.68357,4.42423 -36.80699,8.3941 -37.82353,8.55968z" fill="#0d3846"/><path d="M451.53914,244.66156c-4.40883,0 -10.34246,-0.18867 -17.31573,-0.88177c-15.53294,-1.5556 -30.33814,-7.48924 -30.96578,-7.74722l2.44507,-6.0453c0.15402,0.06931 14.59342,5.85277 29.16374,7.30056c14.51641,1.45164 24.54313,0.60838 24.63554,0.60838l0.56217,6.49195c-0.22718,0.02695 -3.31914,0.27339 -8.52502,0.27339z" fill="#0d3846"/><path d="M212.48043,225.48604c0,0 56.21355,16.59183 77.24117,21.16239c21.00451,4.5744 58.94741,9.15265 58.94741,9.15265c0,0 -43.41061,55.65137 -94.13719,41.52772c-50.73428,-14.10826 -49.82171,-46.09442 -42.05138,-71.84276z" fill="#0d3846"/></g></g></g></svg>