<svg version="1.1" xmlns="http://www.w3.org/2000/svg" xmlns:xlink="http://www.w3.org/1999/xlink" width="221.95703" height="152.45022" viewBox="0,0,221.95703,152.45022"><defs><linearGradient x1="239.70602" y1="208.27949" x2="239.70602" y2="314.09121" gradientUnits="userSpaceOnUse" id="color-1"><stop offset="0" stop-color="#68160d"/><stop offset="1" stop-color="#fd442b"/></linearGradient><linearGradient x1="146.51546" y1="241.67195" x2="146.51546" y2="324.69578" gradientUnits="userSpaceOnUse" id="color-2"><stop offset="0" stop-color="#68160d"/><stop offset="1" stop-color="#fd442b"/></linearGradient><linearGradient x1="338.03572" y1="224.06341" x2="338.03572" y2="329.26842" gradientUnits="userSpaceOnUse" id="color-3"><stop offset="0" stop-color="#68160d"/><stop offset="1" stop-color="#fd442b"/></linearGradient></defs><g transform="translate(-131.72785,-179.11435)"><g stroke="#45413c" stroke-width="2.5" stroke-linecap="round" stroke-miterlimit="10"><path d="M306.88416,182.55747l16.7474,63.94059c0,0 4.80203,27.49012 4.91764,37.89462c0.08623,7.7605 -2.50196,18.95945 -2.50196,18.95945h-9.15983l-16.74036,10.7391l-119.47604,-0.82529c0,0 -6.47058,-1.51985 -9.42936,-3.353c-2.97735,-1.84467 -8.37939,-7.68068 -8.37939,-7.68068l-12.00155,3.87147c0,0 5.02655,-21.6788 8.79994,-34.71602c5.19942,-17.96421 21.83837,-91.00594 21.83837,-91.00594z" fill="url(#color-1)"/><g><path d="M157.9148,275.48838c-1.44225,9.57177 -5.88712,18.90375 -6.66591,24.51677c-1.44883,10.44219 -2.75463,24.69065 -2.75463,24.69065c0,0 -8.42751,-4.47242 -10.90188,-7.55276c-2.66974,-3.32356 -4.57506,-11.71446 -4.57506,-11.71446c0,0 5.45847,-19.30986 9.70163,-29.33085c4.70733,-11.11721 30.75371,-61.81512 30.75371,-61.81512c0,0 -13.06419,44.65599 -15.55786,61.20577z" fill="url(#color-2)"/><path d="M314.87019,211.64899c0,0 28.15273,41.13512 32.5782,56.15697c4.05967,13.78017 4.969,42.9853 4.969,42.9853c0,0 -6.60435,5.92055 -11.0544,8.91167c-4.69952,3.15879 -16.43513,9.56552 -16.43513,9.56552c0,0 3.26704,-22.45353 3.53669,-37.08164c0.18342,-9.9505 -4.31228,-28.78351 -4.77498,-43.76073c-0.42953,-13.90376 -8.81938,-36.77709 -8.81938,-36.77709z" fill="url(#color-3)"/></g></g></g></svg>