<svg version="1.1" xmlns="http://www.w3.org/2000/svg" xmlns:xlink="http://www.w3.org/1999/xlink" width="770.89367" height="770.89367" viewBox="0,0,770.89367,770.89367"><g transform="translate(148.44983,212.95432)"><g data-paper-data="{&quot;isPaintingLayer&quot;:true}" fill-rule="nonzero" stroke="none" stroke-width="1" stroke-linecap="butt" stroke-linejoin="miter" stroke-miterlimit="10" stroke-dasharray="" stroke-dashoffset="0" style="mix-blend-mode: normal"><g fill="#72cf15"><path d="M236.99692,557.93918c-212.87603,0 -385.44675,-172.57039 -385.44675,-385.44675c0,-212.87603 172.57039,-385.44675 385.44692,-385.44675c212.87636,0 385.44675,172.57039 385.44675,385.44692c0,212.87603 -172.57039,385.44675 -385.44675,385.44675z"/><path d="M543.23198,142.37419c-100.36105,-100.36105 -200.71064,-200.71064 -301.0717,-301.0717c178.86656,2.74709 323.29081,147.16004 326.02693,326.02693z"/><path d="M391.29507,465.4223c-149.76334,-148.51688 -298.61153,-297.96054 -446.79727,-448.04406c45.85026,-86.25056 128.4602,-149.9841 227.14407,-169.73192l390.21281,390.21281c-19.82495,98.99291 -83.90061,181.81247 -170.55945,227.56333z"/><path d="M-45.97041,104.90851c127.04816,128.37192 254.86835,255.97151 383.06356,383.18491c-31.61858,10.02851 -65.15671,15.72102 -100.09607,15.72102c-182.98196,0 -331.32213,-148.34034 -331.32213,-331.32213c0,-35.10493 5.7477,-68.80848 15.86464,-100.55954c10.84474,10.97723 21.63445,22.00932 32.49017,32.97575z"/></g><path d="M368.92885,-92.14256l97.85812,173.69952c1.94161,3.44637 2.50466,7.66949 0.52426,10.60137c-11.18396,31.72639 -33.31872,56.90931 -61.57935,72.83072c-28.26062,15.92141 -61.65691,21.11509 -94.19883,14.9309c-26.46453,-5.0678 -53.56982,-1.60203 -77.0055,11.60103c-21.3678,12.03803 -57.5472,44.52813 -67.01271,68.02191l-106.00649,-178.49219c-3.10664,-5.51426 -1.60188,-10.90225 0.67963,-14.91182c11.96054,-30.34783 32.71682,-54.75416 60.2882,-70.2872c28.26062,-15.92141 62.34624,-21.50346 94.88807,-15.31927c26.46453,5.0678 53.18161,0.91271 76.61714,-12.29035c23.43569,-13.20306 40.83285,-33.90093 50.21109,-59.16164c2.58238,-5.08711 7.01902,-8.4947 12.31975,-8.75679c5.30072,-0.26209 9.69851,2.70865 12.4167,7.53359z" fill="#ffffff"/><path d="M165.79599,294.16735l78.71954,139.72832c4.71371,8.36695 1.79113,18.8315 -6.57582,23.54529c-8.36695,4.71371 -18.8315,1.79113 -23.54529,-6.57582l-200.80559,-356.43275c-3.77098,-6.69356 -1.9444,-13.23385 0.82491,-18.10091c14.51856,-36.83809 151.38217,217.83579 151.38217,217.83579z" fill="#ffffff"/></g></g></svg>