<svg version="1.1" xmlns="http://www.w3.org/2000/svg" xmlns:xlink="http://www.w3.org/1999/xlink" width="228.83639" height="347.00276" viewBox="0,0,228.83639,347.00276"><defs><linearGradient x1="239.70602" y1="208.27949" x2="239.70602" y2="314.09121" gradientUnits="userSpaceOnUse" id="color-1"><stop offset="0" stop-color="#68160d"/><stop offset="1" stop-color="#fd442b"/></linearGradient><linearGradient x1="146.0505" y1="243.06684" x2="146.0505" y2="326.09067" gradientUnits="userSpaceOnUse" id="color-2"><stop offset="0" stop-color="#68160d"/><stop offset="1" stop-color="#fd442b"/></linearGradient><linearGradient x1="338.03572" y1="224.06341" x2="338.03572" y2="329.26842" gradientUnits="userSpaceOnUse" id="color-3"><stop offset="0" stop-color="#68160d"/><stop offset="1" stop-color="#fd442b"/></linearGradient><linearGradient x1="242.82111" y1="213.12897" x2="242.82111" y2="349.76135" gradientUnits="userSpaceOnUse" id="color-4"><stop offset="0" stop-color="#fd442b"/><stop offset="1" stop-color="#b12515"/></linearGradient><linearGradient x1="243.18021" y1="156.04755" x2="243.18021" y2="197.51588" gradientUnits="userSpaceOnUse" id="color-5"><stop offset="0" stop-color="#68160d"/><stop offset="1" stop-color="#fd442b"/></linearGradient><linearGradient x1="192.21618" y1="136.25367" x2="289.78391" y2="136.25367" gradientUnits="userSpaceOnUse" id="color-6"><stop offset="0" stop-color="#ff866e"/><stop offset="1" stop-color="#ff6242"/></linearGradient><radialGradient cx="235.18968" cy="79.59788" r="24.4036" gradientUnits="userSpaceOnUse" id="color-7"><stop offset="0" stop-color="#9ceb60"/><stop offset="1" stop-color="#6dd627"/></radialGradient><radialGradient cx="232.48534" cy="86.07166" r="4.8292" gradientUnits="userSpaceOnUse" id="color-8"><stop offset="0" stop-color="#9ceb60"/><stop offset="1" stop-color="#6dd627"/></radialGradient><radialGradient cx="258.60204" cy="125.79246" r="11.84163" gradientUnits="userSpaceOnUse" id="color-9"><stop offset="0" stop-color="#ffe32b"/><stop offset="1" stop-color="#ff922b"/></radialGradient><radialGradient cx="222.23412" cy="125.49836" r="11.84163" gradientUnits="userSpaceOnUse" id="color-10"><stop offset="0" stop-color="#ffeb6c"/><stop offset="1" stop-color="#ffb36b"/></radialGradient><radialGradient cx="194.4395" cy="342.89827" r="17.83418" gradientUnits="userSpaceOnUse" id="color-11"><stop offset="0" stop-color="#a24b18"/><stop offset="1" stop-color="#592d0d"/></radialGradient><radialGradient cx="281.80271" cy="342.89827" r="17.83418" gradientUnits="userSpaceOnUse" id="color-12"><stop offset="0" stop-color="#a24b18"/><stop offset="1" stop-color="#592d0d"/></radialGradient><linearGradient x1="299.36931" y1="253.00358" x2="293.27491" y2="279.21957" gradientUnits="userSpaceOnUse" id="color-13"><stop offset="0" stop-color="#ff866e"/><stop offset="1" stop-color="#ff6242"/></linearGradient><linearGradient x1="203.5934" y1="247.34059" x2="277.67906" y2="247.34059" gradientUnits="userSpaceOnUse" id="color-14"><stop offset="0" stop-color="#bd7d08"/><stop offset="1" stop-color="#f1c214"/></linearGradient><linearGradient x1="195.70031" y1="215.60996" x2="282.30427" y2="215.60996" gradientUnits="userSpaceOnUse" id="color-15"><stop offset="0" stop-color="#bd7d08"/><stop offset="1" stop-color="#f1c214"/></linearGradient><linearGradient x1="240.89337" y1="155.82932" x2="240.89337" y2="220.09714" gradientUnits="userSpaceOnUse" id="color-16"><stop offset="0" stop-color="#ffffff"/><stop offset="1" stop-color="#878787"/></linearGradient><linearGradient x1="222.46693" y1="136.43696" x2="222.46693" y2="158.07324" gradientUnits="userSpaceOnUse" id="color-17"><stop offset="0" stop-color="#ffffff"/><stop offset="1" stop-color="#868686"/></linearGradient><linearGradient x1="259.587" y1="136.43696" x2="259.587" y2="158.07324" gradientUnits="userSpaceOnUse" id="color-18"><stop offset="0" stop-color="#ffffff"/><stop offset="1" stop-color="#868686"/></linearGradient><linearGradient x1="280.96153" y1="223.60941" x2="324.01364" y2="223.60941" gradientUnits="userSpaceOnUse" id="color-19"><stop offset="0" stop-color="#fd442b"/><stop offset="1" stop-color="#b12515"/></linearGradient><linearGradient x1="292.14743" y1="246.49798" x2="322.15004" y2="246.49798" gradientUnits="userSpaceOnUse" id="color-20"><stop offset="0" stop-color="#bd7d08"/><stop offset="1" stop-color="#f1c214"/></linearGradient><linearGradient x1="159.59676" y1="217.93309" x2="197.12912" y2="217.93309" gradientUnits="userSpaceOnUse" id="color-21"><stop offset="0" stop-color="#fd442b"/><stop offset="1" stop-color="#b12515"/></linearGradient><linearGradient x1="155.82246" y1="225.4429" x2="184.82581" y2="225.4429" gradientUnits="userSpaceOnUse" id="color-22"><stop offset="0" stop-color="#bd7d08"/><stop offset="1" stop-color="#f1c214"/></linearGradient><linearGradient x1="126.10541" y1="188.18242" x2="190.08152" y2="188.18242" gradientUnits="userSpaceOnUse" id="color-23"><stop offset="0" stop-color="#bd7d08"/><stop offset="1" stop-color="#f1c214"/></linearGradient><linearGradient x1="166.61918" y1="204.02853" x2="176.797" y2="204.02853" gradientUnits="userSpaceOnUse" id="color-24"><stop offset="0" stop-color="#ff866e"/><stop offset="1" stop-color="#ff6242"/></linearGradient><linearGradient x1="145.1204" y1="211.62545" x2="172.03545" y2="211.62545" gradientUnits="userSpaceOnUse" id="color-25"><stop offset="0" stop-color="#ff866e"/><stop offset="1" stop-color="#ff6242"/></linearGradient></defs><g transform="translate(-124.8485,-7.29804)"><g stroke-miterlimit="10"><g fill="none"><g stroke-linecap="butt"><path d="M187.26391,99.62372c0,-29.12535 23.61075,-52.7361 52.7361,-52.7361c29.12534,0 52.7361,23.61075 52.7361,52.7361c0,29.12535 -23.61076,52.7361 -52.7361,52.7361c-29.12535,0 -52.7361,-23.61075 -52.7361,-52.7361z" stroke="#e0ad0b" stroke-width="12.5"/><path d="M187.26391,99.62372c0,-29.12535 23.61075,-52.7361 52.7361,-52.7361c29.12534,0 52.7361,23.61075 52.7361,52.7361c0,29.12535 -23.61076,52.7361 -52.7361,52.7361c-29.12535,0 -52.7361,-23.61075 -52.7361,-52.7361z" stroke="#f2c018" stroke-width="8.5"/></g><path d="M309.46375,168.0446l-20.11668,-20.11668" stroke="#e0ad0b" stroke-width="8.5" stroke-linecap="round"/><path d="M306.1678,98.60226h25.2311" stroke="#e0ad0b" stroke-width="8.5" stroke-linecap="round"/><path d="M304.46301,32.41799l-19.20746,19.20746" stroke="#e0ad0b" stroke-width="8.5" stroke-linecap="round"/><path d="M240.13598,34.05145v-22.50341" stroke="#e0ad0b" stroke-width="8.5" stroke-linecap="round"/><path d="M193.27691,49.84929l-18.75284,-18.75284" stroke="#e0ad0b" stroke-width="8.5" stroke-linecap="round"/><path d="M143.15568,98.98553h27.73147" stroke="#e0ad0b" stroke-width="8.5" stroke-linecap="round"/><path d="M173.04657,165.39711l17.389,-17.389" stroke="#e0ad0b" stroke-width="8.5" stroke-linecap="round"/><path d="M240.13598,164.98037v22.50341" stroke="#e0ad0b" stroke-width="8.5" stroke-linecap="round"/></g><path d="M194.96702,208.27949l100.75806,0.31585l27.90649,37.90272c0,0 4.80203,27.49012 4.91764,37.89462c0.08623,7.7605 -2.50196,18.95945 -2.50196,18.95945h-9.15983l-16.74036,10.7391l-119.47604,-0.82529c0,0 -6.47058,-1.51985 -9.42936,-3.353c-2.97735,-1.84467 -8.37939,-7.68068 -8.37939,-7.68068l-12.00155,3.87147c0,0 5.02655,-21.6788 8.79994,-34.71602c5.19942,-17.96421 19.51356,-63.10822 19.51356,-63.10822z" fill="url(#color-1)" stroke="#45413c" stroke-width="2.5" stroke-linecap="round"/><g stroke="#45413c" stroke-width="2.5" stroke-linecap="round"><path d="M155.58999,276.88327c-1.44225,9.57177 -4.02727,18.90375 -4.80606,24.51677c-1.44883,10.44219 -2.75463,24.69065 -2.75463,24.69065c0,0 -8.42751,-4.47242 -10.90188,-7.55276c-2.66974,-3.32356 -4.57506,-11.71446 -4.57506,-11.71446c0,0 5.45847,-19.30986 9.70163,-29.33085c4.70733,-11.11721 26.56905,-40.42687 26.56905,-40.42687c0,0 -10.73938,23.26774 -13.23305,39.81752z" fill="url(#color-2)"/><path d="M324.6344,224.20296c0,0 18.38853,28.58115 22.814,43.603c4.05967,13.78017 4.969,42.9853 4.969,42.9853c0,0 -6.60435,5.92055 -11.0544,8.91167c-4.69952,3.15879 -16.43513,9.56552 -16.43513,9.56552c0,0 3.26704,-22.45353 3.53669,-37.08164c0.18342,-9.9505 -4.31228,-28.78351 -4.77498,-43.76073c-0.42953,-13.90376 0.94482,-24.22312 0.94482,-24.22312z" fill="url(#color-3)"/></g><path d="M282.79425,213.12897c0,0 0.25591,10.05853 -1.40783,13.86595c-2.63029,6.01935 -4.56792,11.64974 -4.56792,11.64974l0.17294,9.69322c0,0 6.87744,16.32545 12.56446,33.65565c5.39792,16.44919 10.92534,36.33585 14.52348,44.78731c4.03087,9.46786 15.06381,19.88657 15.06381,19.88657c0,0 -8.42059,0.18751 -11.62969,0.18751c-3.31514,0 -7.95338,-0.18751 -7.95338,-0.18751c0,0 -10.35593,-10.03188 -15.86061,-10.03188c-7.33429,0 -24.2531,10.03188 -24.2531,10.03188c0,0 -14.12177,3.09394 -21.5907,3.09394c-7.15198,0 -22.31328,-3.09394 -22.31328,-3.09394c0,0 -16.11135,-12.00075 -23.34302,-12.00075c-5.83972,0 -16.77069,12.00075 -16.77069,12.00075c0,0 -3.96255,0.58264 -5.50842,0.41701c-1.38423,-0.14831 -3.42127,-0.76454 -3.42127,-0.76454c0,0 6.29503,-9.05698 9.68749,-17.7484c1.39737,-3.58004 3.91416,-9.06495 6.00897,-15.74802c3.52434,-11.24369 7.10953,-25.56495 11.31799,-37.62257c5.44924,-15.61259 11.28985,-27.39639 11.28985,-27.39639c0,0 -1.07629,-3.868 -1.13315,-5.51683c-0.0462,-1.33987 0.81729,-3.64299 0.81729,-3.64299c0,0 -3.86189,-5.3484 -4.86538,-8.64265c-1.08778,-3.57095 -1.42886,-12.01997 -1.42886,-12.01997z" fill="url(#color-4)" stroke="#45413c" stroke-width="2.5" stroke-linecap="round"/><path d="M281.62899,156.04755c0,0 4.64868,2.9797 6.2277,5.06113c1.56414,2.06184 0.96807,5.51807 0.96807,5.51807c0,0 15.98044,5.78191 19.55856,9.45937c6.04808,6.21601 4.76835,14.72169 4.76835,14.72169c0,0 0.39621,5.80654 0.01306,6.61116c-0.31967,0.67131 -2.60305,-2.36586 -2.60305,-2.36586c0,0 -4.1193,-5.59163 -4.58963,-7.00262c-0.2011,-0.6033 3.84615,-0.71739 3.84615,-0.71739c0,0 -6.48182,0.11151 -10.64613,1.80792c-3.00253,1.22314 -5.64763,3.3981 -7.39694,3.96586c-3.95677,1.28422 -8.43163,1.51761 -8.43163,1.51761c0,0 -7.05076,0.90465 -10.01697,0.04238c-3.16466,-0.91996 -8.41424,-5.40029 -8.41424,-5.40029l-53.5944,0.8491c0,0 -6.18231,3.93668 -9.28267,4.63744c-2.20224,0.49777 -13.86638,0.00636 -16.98331,-0.62857c-3.11432,-0.6344 -9.27521,-4.00887 -9.27521,-4.00887c0,0 -2.31322,-1.66909 -2.64504,-2.75186c-0.38967,-1.27156 0.45256,-4.40254 0.45256,-4.40254c0,0 5.90834,-7.85832 11.60682,-12.44075c2.62848,-2.11369 3.58944,-3.0148 7.24651,-2.66109c1.94055,0.18769 0.85485,-4.44411 2.33455,-6.39751c2.03684,-2.68889 5.92958,-4.118 5.92958,-4.118" fill="url(#color-5)" stroke="#45413c" stroke-width="2.5" stroke-linecap="round"/><g><path d="M289.14108,134.42165c-3.10231,17.0212 -7.77213,24.4565 -23.20322,38.65344c-16.51824,15.19714 -14.22989,0.19622 -25.30417,0.19622c-9.96811,0 -8.39566,13.56327 -23.08772,0.77757c-11.68314,-10.16724 -25.32986,-23.93262 -25.32986,-42.2176c0,-14.32962 1.4969,-25.38676 9.91308,-34.91838c3.20876,-3.63403 9.04299,-8.30295 12.48157,-6.45409c7.13682,3.83732 12.08739,4.94561 20.68311,4.94561c6.87941,0 -4.09152,2.42329 25.29022,-6.07268c18.1092,-5.23643 32.45234,23.71744 28.55696,45.08989z" fill="url(#color-6)" stroke="#45413c" stroke-width="2.5" stroke-linecap="butt"/><g stroke="#45413c" stroke-width="2.5" stroke-linecap="round"><path d="M245.81399,93.06033l-8.24184,2.3541c0,0 -15.1467,-1.52141 -16.35491,-1.76557c-1.2082,-0.24413 1.20257,0.87166 -2.57558,-2.05983c-2.95803,-2.29512 -4.45088,-4.82765 -5.92383,-7.94506c-1.47296,-3.1174 -2.57556,-6.35124 -1.93168,-8.68072c0.64388,-2.32948 1.2123,-1.67566 5.02237,-2.50123c3.81007,-0.82557 7.478,-0.98475 9.91597,-0.73566c1.55733,0.15913 2.76837,-0.07313 5.92383,2.35411c3.1555,2.42723 7.08285,7.65081 7.08285,7.65081c0,0 -0.21543,10.76361 -0.12879,11.47623c0.08664,0.71262 1.09943,2.37812 1.41657,-0.88278c0.31714,-3.26091 -1.25895,-3.42907 -0.51511,-8.38647c0.74384,-4.9574 1.48833,-8.35796 3.60581,-12.21187c2.11748,-3.85391 5.73983,-6.95717 7.46917,-7.94506c1.72932,-0.98789 2.32393,-2.13696 4.89359,0.88278c2.56964,3.01974 3.82864,8.56853 4.12092,9.71066c0.29228,1.14213 1.45163,1.64129 -0.90146,2.86988c-2.35309,1.22859 -3.97078,-0.7703 -6.56771,1.02992c-2.59696,1.80021 -3.13197,3.80219 -4.50727,6.91515c-1.3753,3.11295 -2.31802,8.5336 -2.31802,8.5336" fill="url(#color-7)"/><path d="M227.65615,80.84852l9.6584,10.4463" fill="url(#color-8)"/></g><path d="M220.6745,102.82379c0,3.24639 -3.24639,3.2464 -3.24639,3.2464l-1.3478,-0.13692c-3.72268,0.6719 -3.37537,2.95554 -5.40197,6.21326c0,0 -1.72059,2.75294 -4.47353,1.03235c-2.75294,-1.72059 -1.03235,-4.47353 -1.03235,-4.47353c3.18596,-5.07066 3.02626,-6.81511 9.04216,-8.99105l3.21352,-0.13692c0,0 3.24639,0 3.24639,3.24639z" fill="#ffd9c6" stroke="none" stroke-width="0.5" stroke-linecap="butt"/></g><g stroke="#45413c" stroke-width="2.5" stroke-linecap="round"><path d="M246.76048,125.69217c0,0 0.33817,1.5482 1.09535,1.21584c2.96641,-1.30209 22.58791,-10.36969 22.58791,-10.36969c0,0 -0.37643,0.61223 -0.41695,1.38751c-0.18307,3.50253 0.25499,12.47294 -7.16347,15.86424c-7.26069,3.31918 -12.72381,-0.43713 -14.62113,-5.44468c-0.40813,-1.07718 -1.48171,-2.65323 -1.48171,-2.65323z" fill="url(#color-9)"/><path d="M232.59403,128.05122c-1.89732,5.00755 -7.36044,8.76386 -14.62113,5.44468c-7.41846,-3.3913 -6.98039,-12.36171 -7.16347,-15.86424c-0.04053,-0.77528 -0.41695,-1.38751 -0.41695,-1.38751c0,0 19.6215,9.06759 22.58791,10.36969c0.75718,0.33236 1.09535,-1.21584 1.09535,-1.21584c0,0 -1.07358,1.57605 -1.48171,2.65322z" fill="url(#color-10)"/></g><path d="M212.27368,345.48844c0,4.08355 -8.97135,5.03643 -18.26289,5.03643c-9.29154,0 -17.40547,0.54733 -17.40547,-3.53622c0,-4.08355 6.52196,-11.74144 15.8135,-11.74144c9.29154,0 19.85486,6.15768 19.85486,10.24123z" fill="url(#color-11)" stroke="#45413c" stroke-width="2.5" stroke-linecap="butt"/><path d="M283.82338,335.24719c9.29154,0 15.8135,7.6579 15.8135,11.74144c0,4.08355 -8.11393,3.53622 -17.40547,3.53622c-9.29154,0 -18.26289,-0.95289 -18.26289,-5.03643c0,-4.08355 10.56332,-10.24123 19.85486,-10.24123z" fill="url(#color-12)" stroke="#45413c" stroke-width="2.5" stroke-linecap="butt"/><g stroke="#45413c" stroke-width="2.5" stroke-linecap="round"><path d="M316.2872,259.2692c0,0 -2.81494,7.24969 -3.20679,10.906c-0.36983,3.45092 -4.30892,11.73182 -7.53063,10.71683c-2.28377,-0.71949 -3.57544,-2.23799 -3.57544,-2.23799l2.66766,-13.22432l-2.35065,11.82144c0,0 -3.20599,3.99604 -6.33414,2.89031c-5.09055,-1.7994 -3.83252,-6.09864 -3.83252,-6.09864l2.27389,-11.10651l-3.32536,12.76685c0,0 -2.40268,1.85435 -5.51589,0.83007c-6.45429,-2.32982 -1.30311,-8.00022 -1.30311,-8.00022c0,0 -2.88747,0.75543 -4.01312,-0.33747c-1.20239,-1.16741 0.13612,-7.61775 0.13612,-7.61775l6.76224,-7.16734c0,0 9.93269,-2.33752 15.02444,-1.37204c4.14818,0.78656 12.15594,5.0667 12.15594,5.0667z" fill="url(#color-13)"/><path d="M286.7129,266.02055l0.28303,4.52847" fill="none"/></g><path d="M203.5934,239.88247c0,0 24.27656,6.02522 36.45298,5.73871c12.79577,-0.30107 37.6327,-5.77273 37.6327,-5.77273l-0.33258,8.72958c0,0 -27.41335,6.16153 -37.77039,6.25247c-16.90911,0.14848 -35.59571,-7.12132 -35.59571,-7.12132z" fill="url(#color-14)" stroke="#45413c" stroke-width="2.5" stroke-linecap="round"/><path d="M196.18686,194.45593c0,0 3.57152,1.21241 7.91806,0.03095c9.41261,-2.55851 25.82879,-8.6426 41.22142,-8.30979c14.4925,0.31335 26.65758,9.96062 30.91623,9.9526c2.74117,-0.00516 6.06171,-1.83595 6.06171,-1.83595c0,0 -1.37889,8.13155 -1.49867,11.03603c-0.05226,1.26714 0.06727,5.47807 0.06727,5.47807c0,0 -2.90868,9.70285 -6.36739,12.89754c-3.61613,3.34008 -13.96504,5.42175 -13.96504,5.42175c0,0 -8.22391,6.54628 -12.59894,9.45353c-3.32104,2.20686 -11.37192,6.47532 -11.37192,6.47532c0,0 -11.77116,-10.28382 -17.2591,-13.89273c-3.92643,-2.58205 -12.58196,-5.73101 -12.58196,-5.73101c0,0 -5.00082,-3.0302 -6.6911,-5.29219c-1.94887,-2.60803 -4.33712,-9.46617 -4.33712,-9.46617l0.48654,-16.21797z" fill="url(#color-15)" stroke="#45413c" stroke-width="2.5" stroke-linecap="round"/><g stroke="#45413c" stroke-width="2.5" stroke-linecap="round"><path d="M270.34182,155.92039c0,0 4.66454,13.70706 4.53827,18.51232c-0.1175,4.47144 -3.06502,12.78324 -3.06502,12.78324l-3.11609,-5.50066l-0.7332,4.76578c0,0 -5.82363,13.12033 -5.85258,13.16561c-1.73563,2.71482 -7.61681,5.85514 -7.61681,5.85514l0.82173,-3.05333c0,0 -6.95229,9.60066 -10.54585,12.75323c-3.00728,2.63823 -9.5716,4.89543 -9.5716,4.89543c0,0 0.40029,-5.46272 -0.43534,-7.99061c-0.98717,-2.98632 -5.10914,-8.78229 -5.10914,-8.78229l0.1602,4.40908c0,0 -8.24782,-5.14765 -10.78724,-9.29743c-2.46877,-4.03434 -5.50331,-14.72469 -5.50331,-14.72469l-3.84929,6.76171c0,0 -2.86899,-12.69187 -2.77228,-18.78451c0.0851,-5.36149 4.25121,-15.27843 4.25121,-15.27843c0,0 18.53993,-8.34199 28.8504,-8.03874c10.46128,0.30769 30.33593,7.54917 30.33593,7.54917z" fill="url(#color-16)"/><g><path d="M204.15157,150.15141c0,0 4.93871,1.19938 7.60728,-1.33612c6.14563,-5.83918 14.29104,-11.08301 18.59289,-12.16496c5.6187,-1.41314 10.06396,4.65478 10.06396,4.65478l0.3666,8.94335c0,0 -3.91104,7.10529 -21.39866,7.82081c-5.11829,0.20942 -15.23207,-7.91786 -15.23207,-7.91786z" fill="url(#color-17)"/><path d="M277.90236,150.15141c0,0 -10.11379,8.12728 -15.23207,7.91786c-17.48762,-0.71552 -21.39866,-7.82081 -21.39866,-7.82081l0.3666,-8.94335c0,0 4.44526,-6.06792 10.06396,-4.65478c4.30185,1.08194 12.44727,6.32578 18.59289,12.16496c2.66856,2.53551 7.60727,1.33612 7.60727,1.33612z" fill="url(#color-18)"/></g></g><g stroke="#45413c" stroke-width="2.5" stroke-linecap="round"><g><path d="M282.26662,195.4993l24.0026,-8.10899c0,0 4.4857,5.82189 6.61879,9.75502c2.52587,4.65738 2.88565,7.78068 4.71024,11.30905c1.16711,2.25695 3.18219,4.68936 4.52323,7.44549c1.99908,4.10855 1.74874,9.03347 1.74874,9.03347c0,0 0.4139,2.98395 -0.16466,6.00822c-0.60918,3.18435 -0.89402,9.80587 -0.89402,9.80587l-6.65327,19.08109c0,0 -7.53823,-5.8035 -11.61747,-7.34132c-3.72613,-1.40471 -11.89469,-1.52245 -11.89469,-1.52245c0,0 1.28172,-12.10958 1.60952,-16.84786c0.23654,-3.41914 0.17446,-10.13879 0.17446,-10.13879c0,0 -4.04415,-3.40767 -6.05664,-6.27478c-1.93047,-2.75026 -5.78249,-9.39182 -5.78249,-9.39182c0,0 -1.5729,-4.47489 -1.62795,-6.64922c-0.053,-2.09332 1.30359,-6.16298 1.30359,-6.16298z" fill="url(#color-19)"/><path d="M298.15965,225.40276l-5.07715,-2.37373" fill="none"/></g><path d="M292.67775,235.33731c0,0 9.24571,-1.636 14.43544,-0.78558c5.15881,0.84535 15.03687,6.26645 15.03687,6.26645l-6.26141,17.87112c0,0 -7.74262,-5.06853 -11.90595,-6.34955c-3.69417,-1.13667 -11.83524,-0.95543 -11.83524,-0.95543z" fill="url(#color-20)"/></g><path d="M195.67702,196.88811c0,0 -0.93363,5.63345 -0.4283,9.26698c0.61008,4.38678 1.8804,14.10577 1.8804,14.10577c0,0 -2.6288,4.42569 -4.59022,7.03438c-2.99439,3.98254 -10.02706,10.35716 -10.02706,10.35716c0,0 -11.72187,0.79521 -15.23487,0.98639c-3.36306,0.18302 -10.54695,-7.63107 -10.54695,-7.63107l2.86674,-11.61499c0,0 9.98351,-6.36125 12.97346,-11.18375c2.29572,-3.70278 3.44024,-15.28995 3.44024,-15.28995z" fill="url(#color-21)" stroke="#45413c" stroke-width="2.5" stroke-linecap="round"/><g stroke="#45413c" stroke-width="2.5" stroke-linecap="round"><path d="M163.32321,215.24268c0,0 4.89396,-3.67047 7.99289,-4.40581c2.76304,-0.65563 9.70888,0.20539 9.70888,0.20539l2.25023,2.40024c0,0 1.52531,4.83776 1.55028,7.50882c0.02504,2.67944 -2.22766,16.54205 -6.45815,17.19641c-0.99079,0.15325 -13.844,2.14745 -13.844,2.14745l-8.70087,-3.30033z" fill="url(#color-22)"/><path d="M176.37979,210.90952c0,0 0.3494,10.35143 -1.11135,15.17724c-1.54533,5.10521 -7.92115,14.66301 -7.92115,14.66301" fill="none"/></g><g stroke="#45413c" stroke-width="2.5"><path d="M154.42013,125.41318l-1.54162,-4.5285c0,0 -12.7665,-1.85291 -17.18311,-4.8562c-4.4069,-2.99669 -9.28748,-13.1438 -9.28748,-13.1438l-0.30252,-14.67227c0,0 2.41899,-4.20791 3.09598,-6.50967c0.56198,-1.91074 0.68554,-6.34748 0.68554,-6.34748l0.48468,-6.99715l-3.54565,1.20785l7.31137,-29.52578l5.57602,20.71079l-2.21538,37.10769c0,0 4.65252,9.73507 8.8237,9.70797c2.85545,-0.01855 6.68399,-2.50796 6.68399,-2.50796l1.38462,-40.70769l-5.26154,-3.04615l7.75385,-35.72308l9.13846,35.72308l-3.89977,3.69879l0.45378,37.96639c0,0 1.37916,5.45378 7.69508,5.46075c3.07461,0.00339 7.58223,-5.30949 7.58223,-5.30949c0,0 2.90057,-7.67813 1.90822,-12.7168c-1.66069,-8.4321 -4.93342,-29.63614 -4.93342,-29.63614l3.17648,-15.12605l10.28571,27.07564l-4.50413,-1.19926l5.71564,21.80061l0.58065,10.21936c0,0 -5.76959,10.44679 -9.90813,13.29822c-3.94225,2.71619 -14.36284,3.42436 -14.36284,3.42436l-1.28081,5.76326c0,0 2.53438,3.02333 2.39166,4.55244c-0.14492,1.55273 -3.25468,4.69414 -3.25468,4.69414l3.20548,193.56165l2.34246,3.82192l-6.53424,18.12847l-6.90411,-17.26027l2.46575,-3.08219l-3.08219,-193.93151c0,0 -2.45161,-3.71015 -2.57504,-5.56177c-0.12313,-1.847 1.83532,-5.53412 1.83532,-5.53412z" fill="url(#color-23)" stroke-linecap="round"/><path d="M176.797,203.97398c0,5.20224 -2.5914,8.32849 -4.98058,8.32849c-0.09817,0 -3.97534,-0.85184 -5.03471,-2.85842c-0.79242,-1.50095 1.44545,-13.68947 3.83462,-13.68947c2.38917,0 6.18067,3.01716 6.18067,8.21939z" fill="url(#color-24)" stroke-linecap="butt"/><path d="M147.47032,196.23491c0,0 7.53226,-2.80742 11.18233,-3.25365c3.44503,-0.42117 8.91974,0.17833 8.91974,0.17833c0,0 3.31447,2.94267 3.05534,6.31053c-0.18369,2.38737 -3.22411,2.44662 -3.22411,2.44662l-11.37373,1.75929l11.37373,-0.70918c0,0 4.98104,2.49239 4.61234,5.78967c-0.6,5.36577 -4.76235,5.16143 -4.76235,5.16143l-11.33292,0.30003l11.33292,0.60006c0,0 4.20553,1.66851 3.91278,4.93279c-0.3031,3.37968 -5.1129,5.71828 -5.1129,5.71828l-9.45095,-0.45004l-1.05011,5.40054l-6.90069,-5.40054c0,0 -3.31025,-11.56048 -3.52278,-16.7386c-0.17315,-4.21854 2.34136,-12.04554 2.34136,-12.04554z" fill="url(#color-25)" stroke-linecap="round"/></g></g></g></svg>