<svg version="1.1" xmlns="http://www.w3.org/2000/svg" xmlns:xlink="http://www.w3.org/1999/xlink" width="40.06868" height="47.98774" viewBox="0,0,40.06868,47.98774"><defs><linearGradient x1="221.21612" y1="185.36579" x2="258.78389" y2="185.36579" gradientUnits="userSpaceOnUse" id="color-1"><stop offset="0" stop-color="#7378ff"/><stop offset="1" stop-color="#0009ff"/></linearGradient><radialGradient cx="237.76276" cy="163.55086" r="9.39643" gradientUnits="userSpaceOnUse" id="color-2"><stop offset="0" stop-color="#9ceb60"/><stop offset="1" stop-color="#6dd627"/></radialGradient><radialGradient cx="236.72147" cy="166.04354" r="1.85945" gradientUnits="userSpaceOnUse" id="color-3"><stop offset="0" stop-color="#9ceb60"/><stop offset="1" stop-color="#6dd627"/></radialGradient></defs><g transform="translate(-219.96611,-156.2108)"><g data-paper-data="{&quot;isPaintingLayer&quot;:true}" fill-rule="nonzero" stroke-linejoin="miter" stroke-miterlimit="10" stroke-dasharray="" stroke-dashoffset="0" style="mix-blend-mode: normal"><path d="M258.53638,184.66037c-1.19452,6.55389 -1.19574,10.12271 -7.13737,15.58914c-6.36023,5.85155 -7.40433,0.13973 -11.6684,0.13973c-3.83815,0 -4.77286,5.41496 -10.42993,0.49192c-4.49851,-3.91482 -8.08456,-10.17769 -8.08456,-17.21819c0,-5.51752 0.57637,-9.77499 3.81696,-13.44507c1.23551,-1.39926 3.48194,-3.19699 4.80594,-2.4851c2.74798,1.47753 4.65416,1.90427 7.96388,1.90427c2.64887,0 -1.57541,0.93307 9.73782,-2.33824c6.97282,-2.01625 12.49554,9.13223 10.99565,17.36154z" fill="url(#color-1)" stroke="#000598" stroke-width="2.5" stroke-linecap="butt"/><g stroke="#000598" stroke-width="2.5" stroke-linecap="round"><path d="M241.85357,168.73447l-3.17346,0.90643c0,0 -5.83213,-0.58581 -6.29734,-0.67982c-0.46521,-0.094 0.46304,0.33563 -0.99171,-0.79312c-1.13897,-0.88372 -1.71378,-1.85885 -2.28093,-3.05919c-0.56715,-1.20033 -0.9917,-2.4455 -0.74378,-3.34245c0.24792,-0.89695 0.46679,-0.6452 1.93383,-0.96308c1.46704,-0.31788 2.87935,-0.37917 3.81807,-0.28326c0.59964,0.06127 1.06594,-0.02816 2.28093,0.90643c1.215,0.93459 2.7272,2.94589 2.7272,2.94589c0,0 -0.08295,4.14445 -0.04959,4.41884c0.03336,0.27439 0.42333,0.91568 0.54544,-0.33991c0.12211,-1.25559 -0.48475,-1.32034 -0.19834,-3.22915c0.28641,-1.90881 0.57307,-3.21817 1.38839,-4.70209c0.81532,-1.48392 2.21008,-2.67881 2.87595,-3.05919c0.66586,-0.38038 0.89481,-0.82282 1.88424,0.33991c0.98942,1.16273 1.47419,3.29925 1.58673,3.73902c0.11254,0.43977 0.55894,0.63197 -0.3471,1.10503c-0.90604,0.47306 -1.52892,-0.2966 -2.52885,0.39656c-0.99994,0.69316 -1.20594,1.46401 -1.73549,2.66263c-0.52955,1.19862 -0.89254,3.2858 -0.89254,3.2858" fill="url(#color-2)"/><path d="M238.58092,168.05468l-3.7189,-4.02227" fill="url(#color-3)"/></g><path d="M231.0485,172.49383c0,1.25 -1.25,1.25 -1.25,1.25l-0.51896,-0.05272c-1.43339,0.25871 -1.29966,1.13801 -2.07999,2.39237c0,0 -0.6625,1.06 -1.7225,0.3975c-1.06,-0.6625 -0.3975,-1.7225 -0.3975,-1.7225c1.22673,-1.95242 1.16524,-2.62411 3.48162,-3.46194l1.23734,-0.05272c0,0 1.25,0 1.25,1.25z" fill="#c8c7ff" stroke="none" stroke-width="0.5" stroke-linecap="butt"/><g><path d="M254.41775,185.07099c0,8.04128 -6.45505,14.56003 -14.41775,14.56003c-7.9627,0 -14.41776,-6.51875 -14.41776,-14.56003c0,-8.04128 6.45505,-14.56003 14.41776,-14.56003c7.9627,0 14.41775,6.51875 14.41775,14.56003z" fill="#7378ff" stroke="none" stroke-width="0" stroke-linecap="butt"/><path d="M252.72822,185.06646c0,7.16939 -5.66472,12.98132 -12.65249,12.98132c-6.98778,0 -12.65249,-5.81194 -12.65249,-12.98132c0,-7.16939 5.66472,-12.98132 12.65249,-12.98132c6.98778,0 12.65249,5.81193 12.65249,12.98132z" fill="#edebfd" stroke="#000000" stroke-width="0" stroke-linecap="butt"/><path d="M240.49502,197.58264c0,0 -0.00576,-0.97317 -0.00857,-1.44792c-0.00272,-0.45947 0.02478,-1.05989 0.02478,-1.05989" fill="none" stroke="#e40000" stroke-width="2.5" stroke-linecap="round"/><path d="M240.09252,184.42423l0.20397,-7.54683" fill="none" stroke="none" stroke-width="0" stroke-linecap="round"/><path d="M240.32111,183.85973l-0.01133,-6.79329" fill="none" stroke="#ff8300" stroke-width="6" stroke-linecap="round"/><path d="M238.76058,185.02103l-4.23329,-0.01369" fill="none" stroke="#ff8300" stroke-width="6" stroke-linecap="round"/><path d="M241.0212,176.70678l-0.02469,7.02813" fill="none" stroke="#ffbd00" stroke-width="2.5" stroke-linecap="round"/><path d="M234.53,185.74498l4.89603,-0.04319" fill="none" stroke="#ffbd00" stroke-width="2.5" stroke-linecap="round"/><path d="M242.02856,185.01104c0,0.96918 -0.778,1.75486 -1.73771,1.75486c-0.95971,0 -1.73771,-0.78568 -1.73771,-1.75486c0,-0.96918 0.778,-1.75486 1.73771,-1.75486c0.95971,0 1.73771,0.78568 1.73771,1.75486z" fill="#2d2d2d" stroke="#404040" stroke-width="0.5" stroke-linecap="butt"/><path d="M240.29723,175.09461c0,0 -0.00576,-0.97317 -0.00857,-1.44793c-0.00272,-0.45947 0.02478,-1.05989 0.02478,-1.05989" fill="none" stroke="#e40000" stroke-width="2.5" stroke-linecap="round"/><path d="M247.4471,178.52527c0,0 0.64584,-0.72801 0.9609,-1.08316c0.30492,-0.34372 0.7265,-0.77213 0.7265,-0.77213" fill="none" stroke="#e40000" stroke-width="2.5" stroke-linecap="round"/><path d="M249.38328,193.22012c0,0 -0.70087,-0.6752 -1.04277,-1.00458c-0.33091,-0.31879 -0.74165,-0.75759 -0.74165,-0.75759" fill="none" stroke="#e40000" stroke-width="2.5" stroke-linecap="round"/><path d="M249.82768,185.00568c0,0 0.97319,0.00223 1.44794,0.00332c0.45948,0.00105 1.05965,0.03348 1.05965,0.03348" data-paper-data="{&quot;index&quot;:null}" fill="none" stroke="#e40000" stroke-width="2.5" stroke-linecap="round"/><path d="M228.01188,185.02505c0,0 0.97319,0.00223 1.44794,0.00332c0.45948,0.00105 1.05965,0.03348 1.05965,0.03348" data-paper-data="{&quot;index&quot;:null}" fill="none" stroke="#e40000" stroke-width="2.5" stroke-linecap="round"/><path d="M233.06856,178.21335c0,0 -0.72348,-0.65091 -1.07641,-0.96845c-0.34158,-0.30732 -0.76704,-0.73187 -0.76704,-0.73187" fill="none" stroke="#e40000" stroke-width="2.5" stroke-linecap="round"/><path d="M231.21837,193.60433c0,0 0.66816,-0.70758 0.99411,-1.05276c0.31546,-0.33408 0.75014,-0.74918 0.75014,-0.74918" fill="none" stroke="#e40000" stroke-width="2.5" stroke-linecap="round"/></g></g></g></svg>