<svg version="1.1" xmlns="http://www.w3.org/2000/svg" xmlns:xlink="http://www.w3.org/1999/xlink" width="770.89367" height="770.89367" viewBox="0,0,770.89367,770.89367"><defs><linearGradient x1="240" y1="-205.44683" x2="240" y2="565.44684" gradientUnits="userSpaceOnUse" id="color-1"><stop offset="0" stop-color="#ccada0"/><stop offset="1" stop-color="#9a8479"/></linearGradient><linearGradient x1="408.17674" y1="-151.19002" x2="408.17674" y2="174.83691" gradientUnits="userSpaceOnUse" id="color-2"><stop offset="0" stop-color="#ccada0"/><stop offset="1" stop-color="#9a8479"/></linearGradient><linearGradient x1="256.17923" y1="-144.84619" x2="256.17923" y2="472.92995" gradientUnits="userSpaceOnUse" id="color-3"><stop offset="0" stop-color="#ccada0"/><stop offset="1" stop-color="#9a8479"/></linearGradient><linearGradient x1="124.38704" y1="79.44026" x2="124.38704" y2="511.32193" gradientUnits="userSpaceOnUse" id="color-4"><stop offset="0" stop-color="#ccada0"/><stop offset="1" stop-color="#9a8479"/></linearGradient><linearGradient x1="192.61032" y1="317.30281" x2="192.61032" y2="383.39497" gradientUnits="userSpaceOnUse" id="color-5"><stop offset="0" stop-color="#a68e82"/><stop offset="1" stop-color="#9a8479"/></linearGradient><linearGradient x1="192.61032" y1="317.30281" x2="192.61032" y2="383.39497" gradientUnits="userSpaceOnUse" id="color-6"><stop offset="0" stop-color="#a68e82"/><stop offset="1" stop-color="#9a8479"/></linearGradient></defs><g transform="translate(145.44684,205.44683)"><g data-paper-data="{&quot;isPaintingLayer&quot;:true}" fill-rule="nonzero" stroke-miterlimit="10" stroke-dasharray="" stroke-dashoffset="0" style="mix-blend-mode: normal"><g stroke="none" stroke-width="1" stroke-linecap="butt" stroke-linejoin="miter"><path d="M239.99991,565.44666c-212.87603,0 -385.44675,-172.57039 -385.44675,-385.44675c0,-212.87603 172.57039,-385.44675 385.44692,-385.44675c212.87636,0 385.44675,172.57039 385.44675,385.44692c0,212.87603 -172.57039,385.44675 -385.44675,385.44675z" fill="url(#color-1)"/><path d="M546.23497,149.88168c-100.36105,-100.36105 -200.71064,-200.71064 -301.0717,-301.0717c178.86656,2.74709 323.29081,147.16004 326.02693,326.02693z" fill="url(#color-2)"/><path d="M394.29806,472.92979c-149.76334,-148.51688 -298.61153,-297.96054 -446.79727,-448.04406c45.85026,-86.25056 128.4602,-149.9841 227.14407,-169.73192l390.21281,390.21281c-19.82495,98.99291 -83.90061,181.81247 -170.55945,227.56333z" fill="url(#color-3)"/><path d="M-42.96742,112.416c127.04816,128.37192 254.86835,255.97151 383.06356,383.18491c-31.61858,10.02851 -65.15671,15.72102 -100.09607,15.72102c-182.98196,0 -331.32213,-148.34034 -331.32213,-331.32213c0,-35.10493 5.7477,-68.80848 15.86464,-100.55954c10.84474,10.97723 21.63445,22.00932 32.49017,32.97575z" fill="url(#color-4)"/></g><g stroke-width="1.74879"><path d="M18.76667,329.95601v0v0v0v0v0v0v0v0v0v0v0v0v0v0v0v0v0v0v0c-0.25552,-0.43165 -7.57994,-12.69574 -7.57994,-12.7101c-20.31633,-32.68556 -24.81894,-106.59773 -23.05279,-129.66543l0.15608,-1.10499c5.77153,-97.77704 51.14822,-149.96387 77.94601,-177.5843c60.8257,-62.73437 153.02278,-65.28576 153.02278,-65.28576l3.26674,63.46949c0,0 -0.17504,-18.25402 36.91585,-50.16679c37.08141,-31.9125 91.91772,-27.25057 91.91772,-27.25057l-29.09881,79.53711c0,0 17.15337,-24.77504 31.2107,-33.82848c24.92299,-16.02507 45.99666,-9.1388 45.99666,-9.1388l-5.81407,49.33168c0,0 37.09577,48.18415 65.47977,93.46113c6.07447,9.66067 13.11953,19.43976 17.5842,30.6891c16.23019,40.87111 18.57864,113.71649 0.3742,149.79777c-3.13912,6.38337 -6.56708,12.58194 -10.11806,18.67591c-0.92317,1.56509 -1.85583,3.12069 -2.79337,4.65245c-3.24804,5.35912 -6.64729,10.61853 -10.21723,15.70723c-0.48773,0.67822 -0.91857,1.39926 -1.4063,2.07721c-4.04332,5.66748 -8.31859,11.13092 -12.75969,16.43775c-1.05595,1.28058 -2.17313,2.51346 -3.25753,3.78916c-3.8065,4.3823 -7.75038,8.64104 -11.79858,12.73855c-0.93266,0.96273 -1.84174,1.93495 -2.78388,2.85488c-4.87193,4.77113 -9.94735,9.31926 -15.17452,13.66335c-1.1646,0.95325 -2.35793,1.86857 -3.53201,2.80285c-4.38907,3.50465 -8.92474,6.85782 -13.56472,10.05411c-1.33992,0.91071 -2.6465,1.86857 -3.9959,2.76031c-5.66748,3.73226 -11.46719,7.2369 -17.46606,10.47628c-1.06516,0.58311 -2.20619,1.10011 -3.29059,1.66453c-5.12284,2.67468 -10.35922,5.13151 -15.71401,7.40788c-22.65529,9.61786 -47.25149,15.88742 -73.66126,17.79393c-30.17833,2.17692 -57.50179,1.26161 -82.18334,-1.9634c-6.10292,-0.79663 -12.04028,-1.74988 -17.82129,-2.82182c-1.09822,-0.223 -2.1921,-0.43625 -3.2811,-0.64977c-5.86122,-1.15702 -11.61378,-2.39966 -17.1344,-3.81761c-0.03306,-0.01436 -0.07587,-0.02384 -0.11353,-0.03333c-5.5301,-1.39438 -10.84723,-2.96868 -16.04106,-4.64297c-0.90908,-0.294 -1.84174,-0.58311 -2.74595,-0.87738c-4.99034,-1.6266 -9.85279,-3.37648 -14.54019,-5.23556c-0.82373,-0.30836 -1.61901,-0.66874 -2.43813,-0.99119c-4.6259,-1.86396 -9.13799,-3.8084 -13.46528,-5.86664c-0.16583,-0.09944 -0.35036,-0.15662 -0.51131,-0.24658c-4.43161,-2.12951 -8.66434,-4.34897 -12.77893,-6.62046c-0.76683,-0.42704 -1.52905,-0.84432 -2.27718,-1.27109c-3.95824,-2.25279 -7.79319,-4.55301 -11.44822,-6.92421c-0.55873,-0.36038 -1.089,-0.73025 -1.64312,-1.08602c-3.47023,-2.29533 -6.82721,-4.63809 -10.03731,-7.02826c-0.33139,-0.223 -0.69584,-0.46497 -1.01313,-0.71616c-3.34749,-2.51834 -6.51018,-5.09358 -9.55933,-7.68779c-0.59179,-0.49803 -1.17409,-1.00067 -1.7423,-1.4987c-2.97329,-2.59394 -5.83304,-5.18815 -8.52236,-7.85362c-0.30754,-0.28912 -0.58691,-0.59748 -0.89012,-0.89147c-2.53297,-2.52782 -4.93805,-5.07461 -7.21062,-7.6214c-0.3173,-0.36987 -0.67714,-0.73025 -0.99904,-1.09063c-2.32948,-2.67956 -7.36236,-9.03448 -7.75065,-9.54199c-2.02627,-2.67956 -3.95797,-5.35912 -5.70514,-8.02432c-0.10893,-0.1661 -0.21298,-0.33193 -0.31242,-0.49803c-1.67618,-2.56576 -3.20063,-5.0887 -4.6259,-7.60704z" fill="#ffffff" stroke="#ffffff" stroke-linecap="butt" stroke-linejoin="miter"/><path d="M376.83134,187.31006v0v0v0v0v0v0v0v0v0v0v0v0v0v0v0v0v0v0v0c0,0 55.15361,62.48752 38.11378,127.30858c-17.03523,64.80209 -118.83879,92.25642 -197.05929,87.32895c-103.40415,-6.52075 -151.34199,-68.23087 -134.32573,-127.12351c17.03983,-58.89291 153.93647,-86.42311 153.93647,-86.42311l-22.47998,42.31291c0,0 17.70749,-2.74134 32.01059,-10.93637c14.29849,-8.18094 29.97971,-19.09347 29.97971,-19.09347l-32.75411,46.50065c0,0 43.26019,-0.46497 80.72041,-15.48911c37.46021,-15.00544 51.85815,-44.38551 51.85815,-44.38551z" fill="#ffffff" stroke="#ffffff" stroke-linecap="butt" stroke-linejoin="miter"/><g fill="#ffffff" stroke="#ffffff" stroke-linejoin="miter"><path d="M447.41038,153.52412c0,0 88.78348,-49.97197 109.07136,-7.47887c20.29709,42.4931 -16.00773,92.28975 -91.76164,137.34373c0,0 1.67618,-73.97883 -17.30971,-129.86485v0v0v0v0v0v0v0v0v0v0v0v0v0v0v0v0v0v0v0zM447.41038,153.52412c-1.59083,-6.53971 -6.82721,-19.04578 -6.82721,-19.04578M462.75046,294.90873l0.95163,-11.96062" stroke-linecap="round"/><path d="M463.70208,282.93863c0.49261,-13.70129 0.47825,-36.26147 -2.60857,-64.43223c-1.77563,-16.39494 -5.2082,-33.30688 -8.73073,-47.91373l0.00948,0.01897c52.00501,-13.26504 98.29052,34.90015 98.29052,34.90015h0.01897c-25.99302,43.2377 -86.56293,76.23162 -86.56293,76.23162l-0.41674,1.19522v0v0v0v0v0v0v0v0v0v0v0v0v0v0v0v0v0v0v0z" stroke-linecap="butt"/></g><g fill="#ffffff" stroke="#ffffff" stroke-linejoin="miter"><path d="M30.71699,315.9797c-73.74173,-29.40364 -113.53142,-69.16515 -102.38614,-110.93261c11.15016,-41.77206 97.13079,-9.88341 97.13079,-9.88341c-7.87855,53.75192 5.25534,120.81602 5.25534,120.81602v0v0v0v0v0v0v0v0v0v0v0v0v0v0v0v0v0v0v0zM28.46799,176.79125c0,0 -2.6419,12.17386 -3.00174,18.37243M31.54072,315.41067l2.72725,10.7513" stroke-linecap="round"/><path d="M30.99148,314.39104c0,0 -58.48674,-20.758 -88.17273,-56.11851l0.01436,-0.00461c0,0 33.11856,-50.90652 80.95696,-46.79465l0.00488,-0.01409c-0.79555,13.82431 -1.14591,29.74018 -0.11841,44.92581c1.73281,26.11252 5.27431,46.6383 7.86906,59.02569l-0.55412,-1.01964v0v0v0v0v0v0v0v0v0v0v0v0v0v0v0v0v0v0v0z" stroke-linecap="butt"/></g><path d="M316.57873,289.28406c-3.43257,0 -6.4297,-2.48989 -7.00252,-5.99453c-0.62024,-3.87939 2.01706,-7.53117 5.88994,-8.1571c3.52253,-0.55033 34.74245,-5.43499 46.24757,-4.00268c3.89185,0.49315 6.65704,4.0501 6.19288,7.92949c-0.49234,3.90784 -4.09535,6.62046 -7.9303,6.20318c-7.23446,-0.88686 -29.73341,1.92059 -42.27063,3.91732c-0.37881,0.07587 -0.75761,0.10432 -1.12694,0.10432v0v0v0v0v0v0v0v0v0v0v0v0v0v0v0v0v0v0v0v0z" fill="#ffffff" stroke="none" stroke-linecap="butt" stroke-linejoin="miter"/><path d="M201.49441,290.80173c-0.44492,0 -0.89472,-0.0523 -1.35888,-0.12817c-16.39575,-3.17732 -45.22956,0.0569 -45.5138,0.08535c-3.83035,0.42677 -7.4049,-2.34275 -7.85931,-6.24599c-0.44519,-3.89836 2.34817,-7.42658 6.24951,-7.87258c1.27841,-0.12789 31.27221,-3.49977 49.8224,0.08535c3.84444,0.74 6.3728,4.47226 5.62467,8.35165c-0.6579,3.36239 -3.63606,5.72438 -6.96458,5.72438v0v0v0v0v0v0v0v0v0v0v0v0v0v0v0v0v0v0v0v0z" fill="#ffffff" stroke="none" stroke-linecap="butt" stroke-linejoin="miter"/><path d="M192.74498,326.17634c0,0 15.32599,-1.71222 58.23095,-1.71222c42.90035,0 58.23095,-7.1613 58.23095,-7.1613c0,0 9.15695,66.09215 -56.58322,66.09215c-65.74505,0 -59.87868,-57.21863 -59.87868,-57.21863v0v0v0v0v0v0v0v0v0v0v0v0v0v0v0v0v0v0v0z" fill="url(#color-5)" stroke="url(#color-6)" stroke-linecap="round" stroke-linejoin="round"/></g></g></g></svg>