<svg version="1.1" xmlns="http://www.w3.org/2000/svg" xmlns:xlink="http://www.w3.org/1999/xlink" width="770.89367" height="770.89367" viewBox="0,0,770.89367,770.89367"><g transform="translate(148.44983,212.95432)"><g data-paper-data="{&quot;isPaintingLayer&quot;:true}" stroke="none" stroke-width="1" stroke-linecap="butt" stroke-linejoin="miter" stroke-miterlimit="10" stroke-dasharray="" stroke-dashoffset="0" style="mix-blend-mode: normal"><g fill="#c47258" fill-rule="nonzero"><path d="M236.99692,557.93918c-212.87603,0 -385.44675,-172.57039 -385.44675,-385.44675c0,-212.87603 172.57039,-385.44675 385.44692,-385.44675c212.87636,0 385.44675,172.57039 385.44675,385.44692c0,212.87603 -172.57039,385.44675 -385.44675,385.44675z"/><path d="M543.23198,142.37419c-100.36105,-100.36105 -200.71064,-200.71064 -301.0717,-301.0717c178.86656,2.74709 323.29081,147.16004 326.02693,326.02693z"/><path d="M391.29507,465.4223c-149.76334,-148.51688 -298.61153,-297.96054 -446.79727,-448.04406c45.85026,-86.25056 128.4602,-149.9841 227.14407,-169.73192l390.21281,390.21281c-19.82495,98.99291 -83.90061,181.81247 -170.55945,227.56333z"/><path d="M-45.97041,104.90851c127.04816,128.37192 254.86835,255.97151 383.06356,383.18491c-31.61858,10.02851 -65.15671,15.72102 -100.09607,15.72102c-182.98196,0 -331.32213,-148.34034 -331.32213,-331.32213c0,-35.10493 5.7477,-68.80848 15.86464,-100.55954c10.84474,10.97723 21.63445,22.00932 32.49017,32.97575z"/></g><path d="M86.91879,253.71162c0,0 -49.72712,41.89269 -71.0364,35.33049c-34.55877,-10.64211 -47.3159,-30.04067 -47.3159,-30.04067c0,0 -27.46261,-44.96722 -23.29083,-51.22485c4.17178,-6.25763 13.55818,4.86846 23.29083,8.51451c9.73265,3.65024 10.27918,-11.42228 20.28722,-13.96697c12.85312,-3.26651 15.20599,9.42396 26.15686,12.03128c10.95079,2.60731 18.68101,-26.33619 25.69375,-1.71043c7.14202,25.07218 46.21462,41.06665 46.21462,41.06665" fill="#7cb2ff" fill-rule="evenodd"/><path d="M126.6719,289.94311c-101.06127,55.48137 -158.0996,-31.49746 -158.0996,-31.49746c72.96195,77.14299 60.93501,-73.40367 158.0996,-80.27434c57.16078,-4.03669 74.895,62.49631 74.895,62.49631" fill="#4d97ff" fill-rule="evenodd"/><path d="M474.46183,269.54565c4.55477,-45.8098 14.82028,-108.0316 18.75113,-107.64059c3.93636,0.38909 0.04836,63.24973 -4.51177,109.06144c-4.55477,45.8098 -8.05978,57.23046 -11.99063,56.83945c-3.93276,-0.39644 -6.80165,-12.44507 -2.24872,-58.2603" fill="#ffae00" fill-rule="evenodd"/><path d="M486.8126,125.13071c3.39601,-5.66745 11.80733,-4.97767 14.2459,1.15824l7.52421,18.99595l19.91349,4.57234c6.43997,1.47105 8.38456,9.69032 3.3015,13.90391l-15.74149,13.02209l1.80517,20.35859c0.58518,6.57389 -6.6271,10.96931 -12.19812,7.43108l-17.25766,-10.94771l-18.79743,8.01296c-6.07829,2.58828 -12.48314,-2.91534 -10.83959,-9.31166l5.07498,-19.78979l-13.42618,-15.40267c-4.34111,-4.97856 -1.08342,-12.77206 5.50663,-13.18717l20.39078,-1.28951l10.4979,-17.52666" fill="#ffdb6f" fill-rule="evenodd"/><path d="M39.21129,374.03144c-52.00804,0 -20.52491,-216.47684 112.11731,-213.26501c135.10989,3.27482 184.16363,213.26501 184.16363,213.26501z" fill="#ffdb6f" fill-rule="evenodd"/><path d="M433.46419,287.14066c0,0 -269.94482,71.88037 -318.39751,79.01967c-64.88409,9.56118 -86.38806,-11.3016 -94.22022,-45.08622c-12.95617,-55.88399 32.19877,-57.72759 46.03661,-88.26025c13.83218,-30.53839 -18.71012,-80.21628 46.03661,-82.78118c54.15504,-2.14693 54.97938,-43.75797 81.60177,-46.81524c41.29038,-4.7405 50.30768,34.46021 80.85747,45.38388c28.85516,10.31688 44.03859,-16.08222 76.33459,-3.10305c27.67009,11.12417 28.91815,70.24865 65.36506,82.54077c59.39929,20.03829 16.38562,59.10162 16.38562,59.10162" fill="#6ae66a" fill-rule="evenodd"/><path d="M82.70931,270.01537c-5.89132,-1.78628 -9.25771,-8.0783 -7.4657,-13.96962l3.58975,-11.83982c1.78628,-5.89132 8.07257,-9.25198 13.96962,-7.4657l31.52318,9.55545c5.89698,1.79201 9.25771,8.07837 7.4657,13.97528l-3.58975,11.83408c-1.78628,5.89698 -8.07257,9.25198 -13.96955,7.4657l-31.52318,-9.55538" fill="#ff652d" fill-rule="evenodd"/><path d="M61.58664,261.65653c6.52677,1.6603 15.85887,8.75962 23.47347,10.64894c-19.69483,51.01186 -23.24446,99.90538 -47.634,101.62293h-0.11451c-18.72151,-1.54579 -38.93163,-19.06504 -27.25211,-37.09949c6.92756,-10.70619 -3.83589,-23.98876 -0.916,-36.29793c4.17942,-17.74826 22.32839,-21.58415 28.62614,-23.35896c6.8703,-1.88932 14.14131,-17.9772 23.817,-15.51541" fill="#ffae00" fill-rule="evenodd"/><path d="M110.65075,242.18843c-5.78247,10.47718 -10.53443,21.24063 -14.54209,31.88957l-5.38169,-1.6603l-5.15274,-1.54006c4.17942,-10.65467 9.10315,-21.36087 15.05738,-31.7178z" fill="#f1602b" fill-rule="evenodd"/><path d="M96.10866,274.08028c-18.95053,49.92402 -22.78649,97.329 -46.31722,99.79087c-2.74814,0 -4.12217,0 -8.70237,0.17176h-1.14509c-0.85882,0 -1.6603,-0.05725 -2.51912,-0.11451c24.38947,-1.71756 27.93916,-50.61108 47.634,-101.62293c2.06108,0.51529 3.9504,0.62972 5.66803,0.11451z" fill="#f3a600" fill-rule="evenodd"/><path d="M106.4742,204.5164c-5.55352,2.66222 -12.28058,0.292 -14.93714,-5.26718l-1.03058,-2.14127c-2.65648,-5.55918 -0.28627,-12.27492 5.26725,-14.93714l15.37224,-7.35693c5.55918,-2.66222 12.28065,-0.292 14.93714,5.26152l1.0305,2.14693c2.65648,5.55352 0.28627,12.28058 -5.26718,14.93714l-15.37224,7.35693" fill="#ff652d" fill-rule="evenodd"/><path d="M262.48398,157.28605c-4.17942,0.05725 -8.47335,0.28635 -12.88179,0.6298c-76.83261,5.89698 -116.05051,42.7102 -138.95152,84.27545l-10.01914,-3.03441c23.12995,-40.36292 62.29052,-75.45865 137.23388,-81.24105c8.58786,-0.68698 16.77493,-0.85882 24.61849,-0.6298" fill="#4ba04b" fill-rule="evenodd"/><path d="M395.08673,243.71475c-3.0802,-5.3359 -1.23666,-12.22332 4.10497,-15.30352l5.45048,-3.14884c5.3359,-3.0802 12.22332,-1.23093 15.30352,4.09923l11.63946,20.16426c3.0802,5.3359 1.23666,12.21767 -4.10504,15.30352l-5.45041,3.14318c-5.3359,3.0802 -12.22332,1.23659 -15.30352,-4.09923l-11.63939,-20.1586" fill="#ff652d" fill-rule="evenodd"/><path d="M263.04337,166.45218c-5.81113,2.04962 -12.2406,-1.01904 -14.29021,-6.83017l-2.09541,-5.93711c-2.05535,-5.81113 1.01338,-12.24052 6.82451,-14.29587l21.95054,-7.75771c5.81113,-2.04962 12.2406,1.02477 14.29021,6.83017l2.10114,5.93711c2.05535,5.81113 -1.01911,12.24626 -6.83024,14.29587l-21.95054,7.75771" fill="#ff652d" fill-rule="evenodd"/><path d="M47.79798,374.03144c51.52707,0 12.72722,-201.61423 201.81458,-216.12765c150.52792,-11.55347 187.78771,116.15363 195.61413,183.21897c2.04396,17.50204 -11.45043,32.90861 -29.06132,32.90861z" fill="#ffdb6f" fill-rule="evenodd"/><path d="M185.1263,152.14198c-1.6603,0 -3.30914,-0.72138 -4.44276,-2.1126c-1.9981,-2.4504 -1.62598,-6.05727 0.82434,-8.04971l30.0575,-24.48112c2.45613,-1.9867 6.06308,-1.62598 8.05537,0.82442c1.9981,2.4504 1.62598,6.05727 -0.82442,8.05544l-30.05743,24.47539c-1.0649,0.86455 -2.34162,1.28811 -3.61261,1.28811" fill="#ffbf00" fill-rule="evenodd"/><path d="M380.30423,170.06134c-0.35499,0 -0.70991,-0.02859 -1.07063,-0.10304l-38.08994,-7.20809c-3.10886,-0.58394 -5.14701,-3.58402 -4.563,-6.68715c0.58967,-3.10879 3.58968,-5.18133 6.68707,-4.563l38.09575,7.21375c3.10886,0.58394 5.14701,3.58402 4.55734,6.68715c-0.51529,2.74814 -2.91982,4.66039 -5.61644,4.66039" fill="#ffbf00" fill-rule="evenodd"/><path d="M54.93052,287.59355c-1.27099,0 -2.55351,-0.41791 -3.61834,-1.29392l-30.0403,-24.50398c-2.4504,-1.99236 -2.81685,-5.59931 -0.81303,-8.04971c1.9981,-2.44466 5.59931,-2.82259 8.05537,-0.81876l30.0403,24.50978c2.4504,1.99236 2.81678,5.59931 0.81295,8.04971c-1.12789,1.38557 -2.77673,2.10687 -4.43703,2.10687" fill="#d9a411" fill-rule="evenodd"/><path d="M377.94482,271.24005c-9.3379,0 -9.35502,-14.51342 0,-14.51342c9.34356,0 9.35502,14.51342 0,14.51342" fill="#ffd451" fill-rule="evenodd"/><path d="M303.61759,284.22202c-9.3379,0 -9.35502,-14.51342 0,-14.51342c9.34356,0 9.35502,14.51342 0,14.51342" fill="#ffd451" fill-rule="evenodd"/><path d="M294.63233,343.97909c-9.3379,0 -9.35502,-14.5135 0,-14.5135c9.34356,0 9.36083,14.5135 0,14.5135" fill="#ffd451" fill-rule="evenodd"/><path d="M171.7024,351.23642c-9.3379,0 -9.35502,-14.51342 0,-14.51342c9.3379,0 9.35502,14.51342 0,14.51342" fill="#ffd451" fill-rule="evenodd"/><path d="M186.0853,225.04653c-9.3379,0 -9.35502,-14.5135 0,-14.5135c9.3379,0 9.35502,14.5135 0,14.5135" fill="#ffd451" fill-rule="evenodd"/><path d="M263.02617,192.16019c-9.3379,0 -9.35502,-14.51916 0,-14.51916c9.3379,0 9.35502,14.51916 0,14.51916" fill="#ffd451" fill-rule="evenodd"/><path d="M225.30886,293.0114c-9.3379,0 -9.35502,-14.5135 0,-14.5135c9.3379,0 9.35502,14.5135 0,14.5135" fill="#ffd451" fill-rule="evenodd"/><path d="M144.96845,298.73662c-9.3379,0 -9.35502,-14.51342 0,-14.51342c9.3379,0 9.35502,14.51342 0,14.51342" fill="#ffd451" fill-rule="evenodd"/><path d="M392.11818,330.18645c-9.3379,0 -9.35502,-14.51342 0,-14.51342c9.3379,0 9.35502,14.51342 0,14.51342" fill="#ffd451" fill-rule="evenodd"/><path d="M335.49216,217.78919c-9.34356,0 -9.36075,-14.51342 0,-14.51342c9.3379,0 9.35502,14.51342 0,14.51342" fill="#ffd451" fill-rule="evenodd"/><path d="M85.57482,270.87646l5.15274,1.54579c-1.71756,0.50956 -3.60695,0.40078 -5.66803,-0.11451c0.17176,-0.45803 0.34353,-0.91607 0.51529,-1.43136" fill="#4ba04b" fill-rule="evenodd"/><path d="M129.06195,139.86992c0,0 20.03263,1.77481 27.54978,25.16817c0.92746,2.8855 -2.71947,5.12408 -4.90653,3.02867c-8.63365,-8.25006 -24.87043,-19.38563 -48.18361,-17.2387" fill="#4d97ff" fill-rule="evenodd"/><path d="M300.72687,250.6085c-1.0821,-13.85504 -8.98291,-29.02692 -32.62814,-29.02692c-0.80729,0 -1.60305,0 -2.34743,0.10878c30.9735,1.14509 33.08618,29.54221 29.25021,43.51749c-5.78247,21.12046 1.60305,30.3437 1.60305,39.90488c0,19.86079 -10.53443,24.96209 -9.4466,38.23892c0.97906,12.08596 4.63745,21.36087 5.20992,30.69303h-46.08813c-3.60695,-9.05163 -11.27301,-21.5269 -11.10124,-31.20825c0.33779,-17.97154 6.80724,-18.25774 7.37986,-36.46977c0.57254,-18.25774 -11.45043,-27.48113 -11.45043,-43.33426c0,-3.5497 0.22902,-7.61453 0.916,-11.79969c-18.60707,2.63363 -26.7369,-4.57447 -14.14131,-8.35884c15.45816,-4.68898 21.06886,-26.27306 41.85146,-26.38756c3.9504,0 6.81305,1.13928 8.5306,3.09159c1.71756,-1.95238 4.5802,-3.09159 8.5306,-3.09159c20.78267,0.11451 26.39903,21.69859 41.85146,26.38756c13.45433,4.01339 3.38359,11.96579 -17.91995,7.73478" fill="#ffd451" fill-rule="evenodd"/><path d="M268.12563,221.60223c32.90868,0 35.17012,29.35906 31.27697,43.63773c-5.75961,21.13758 1.61451,30.34943 1.62025,39.88768c0.0172,19.85513 -10.5287,24.9906 -9.45233,38.23311c1.07063,13.19099 5.32443,23.04983 5.33017,33.24647c0,11.7539 -8.59359,17.88562 -18.02299,22.53455c-12.73869,6.26343 -24.2693,6.23484 -42.69881,1.75769c-23.0097,-5.58204 -27.10328,13.72906 -62.21041,2.1126c-33.02892,-10.92941 22.68338,-1.23093 32.14717,-9.4638c9.4638,-8.2214 17.54783,-9.66422 38.4564,-7.63746c20.90283,2.03823 -5.24425,-25.15097 -4.95232,-43.03087c0.292,-17.98294 6.75579,-18.25208 7.34546,-36.4927c0.58394,-18.25201 -11.46189,-27.44107 -11.46189,-43.31133c0,-15.62985 4.11651,-41.47361 32.62241,-41.47361" fill="#ffffff" fill-rule="evenodd"/><path d="M300.72687,250.6085c-3.2061,-0.6298 -6.69861,-1.55153 -10.36267,-2.80532c-11.56501,-3.89315 -18.77876,-9.91037 -22.09937,-15.63565c-3.32068,5.72529 -10.53443,11.74251 -22.09371,15.63565c-3.38359,1.14509 -6.64128,1.9981 -9.6241,2.68507c0.34919,-2.11834 0.80729,-4.29393 1.49427,-6.34928c3.48664,-11.85128 11.7367,-22.5574 30.0575,-22.5574c20.14713,0 28.84943,10.99247 31.65482,22.84375c0.45803,2.05535 0.80729,4.12209 0.97332,6.18318" fill="#e6e6e6" fill-rule="evenodd"/><path d="M290.36648,241.84785c-11.57067,-3.89315 -18.77876,-9.90471 -22.09937,-15.68718c-3.32068,5.78247 -10.53443,11.79403 -22.09944,15.68718c-28.05367,9.44667 -43.74078,-0.28635 -28.28269,-4.98098c15.45816,-4.63745 21.06886,-26.22161 41.84572,-26.33604c3.95614,0 6.87596,1.13928 8.53634,3.09159c1.6603,-1.95238 4.57439,-3.09159 8.53053,-3.09159c20.78267,0.11451 26.39337,21.69866 41.84572,26.33604c15.46382,4.69471 -0.22902,14.42758 -28.27696,4.98098" fill="#ffffff" fill-rule="evenodd"/><path d="M296.89149,376.59179c0,11.79969 -8.58786,17.91995 -18.0288,22.5574c-12.71576,6.2405 -24.28069,6.24043 -42.65875,1.77481c-23.01544,-5.60497 -27.13768,13.68908 -62.23334,2.06108c-16.43141,-5.43902 -10.87796,-5.72529 0,-5.72529c35.09566,11.628 39.21783,-7.66606 62.23334,-2.11834c18.37806,4.47135 29.94299,4.52295 42.65875,-1.76915c8.81687,-4.29393 16.82653,-9.91037 17.86277,-20.15853c0.10878,1.14509 0.16603,2.23285 0.16603,3.37786" fill="#e6e6e6" fill-rule="evenodd"/><g fill-rule="evenodd"><path d="M325.02248,96.16274c-0.38079,5.91197 -21.8655,9.33856 -47.98421,7.64775c-26.11379,-1.68933 -46.98024,-7.85274 -46.59445,-13.76317c0.38079,-5.91197 21.86543,-9.33863 47.98421,-7.64775c26.11379,1.68933 46.97531,7.85127 46.59453,13.76317" fill="#4d97ff"/><path d="M325.02248,96.16274c0,0 -33.66004,-16.02313 -64.70792,-13.1086c-4.44695,0.38329 -8.86119,1.22255 -13.23501,2.65068c-4.88382,1.54741 -9.60036,3.78276 -14.12595,6.89301c-0.38858,0.11333 -0.7607,0.06865 -1.09878,-0.06872c-1.72057,-0.72902 -2.28753,-4.46077 -1.35999,-6.66363l49.93799,-115.05984c2.20653,-5.1013 9.61704,-4.62584 11.17518,0.76702l34.1657,120.65798z" fill="#7cb2ff"/><path d="M315.07029,92.09048c0.27128,0.63325 -50.69729,-21.64677 -82.11669,0.49868c0,0 -2.93357,0.86874 -2.89322,-4.98025c0.00265,-0.57012 0.18345,-1.1883 0.42636,-1.74372l49.96401,-115.07351c1.60121,-3.74476 6.02398,-4.48892 8.85921,-2.47921c0,0 -23.99685,56.70032 -29.72662,86.95553c-5.28842,27.90168 13.89855,6.96151 55.48696,36.82255" fill="#4d97ff"/><path d="M265.68692,4.73056c0.10143,0.05865 0.15023,0.11179 0.24622,0.22306l3.39204,4.49325l5.59035,-0.30075c1.83148,-0.08482 2.94099,1.96649 1.90806,3.45694l-3.17038,4.57969l1.98795,5.28688c0.61819,1.65428 -0.95701,3.36816 -2.68978,2.83641l-5.3581,-1.60643l-4.39727,3.50339c-1.3816,1.15942 -3.49839,0.18249 -3.53198,-1.63862l-0.1456,-5.63467l-0.29539,-0.22211z" fill="#ffdb6f"/><path d="M316.87546,60.68621l-3.01633,0.83757l-2.70609,7.73037c-0.89836,2.49457 -4.25586,2.88925 -5.72294,0.71094l-4.48142,-6.908l-8.21251,-0.18587c-2.64788,-0.07048 -4.05808,-3.13377 -2.40843,-5.21059l5.15965,-6.36633l-2.33648,-7.86347c-0.76525,-2.54808 1.7299,-4.87933 4.22058,-3.93328l7.66341,2.95723l5.61563,-3.83803z" fill="#ffdb6f"/><path d="M263.5763,77.32892l-3.56939,3.11298l0.30994,2.61356c-4.44541,0.37829 -8.86119,1.22255 -13.23847,2.64421c-0.20366,-0.30773 -0.30163,-0.746 -0.16824,-1.19396l1.05013,-4.63334l-3.22697,-3.44709c-1.0455,-1.11797 -0.34911,-2.90843 1.13245,-3.07446l4.71404,-0.49074l2.29341,-4.10115c0.73247,-1.32802 2.71242,-1.22535 3.31664,0.15809l1.8841,4.34119l4.59666,0.87028c1.50611,0.29833 2.00464,2.19816 0.90556,3.20058" fill="#ffdb6f"/><path d="M273.48615,51.14024c-0.15883,2.35412 -2.18926,4.13341 -4.54485,3.97965c-2.35412,-0.15883 -4.13687,-2.1958 -3.97811,-4.54985c0.15383,-2.35566 2.18926,-4.13341 4.5433,-3.97466c2.35566,0.15383 4.13841,2.19073 3.97965,4.54485" fill="#ffdb6f"/><path d="M297.27125,-8.359c-0.31516,0.08717 -0.6284,0.11524 -0.9426,0.09393c-2.28003,-0.15214 -4.02287,-2.08975 -3.87073,-4.36978c0.11113,-1.65655 1.13575,-2.99736 2.58218,-3.57667z" fill="#ffdb6f"/><path d="M272.93014,25.30273l-4.67839,-1.39579c1.63686,-4.92997 3.33869,-9.89405 5.09365,-14.67872l1.54278,-0.06556c1.87117,-0.07247 2.98186,1.95738 1.92871,3.42527l-3.17126,4.61746l2.01669,5.24682c0.57695,1.64693 -0.99611,3.38866 -2.73226,2.85044" fill="#ffdb6f"/></g></g></g></svg>