<svg version="1.1" xmlns="http://www.w3.org/2000/svg" xmlns:xlink="http://www.w3.org/1999/xlink" width="34.23782" height="32.39692" viewBox="0,0,34.23782,32.39692"><defs><linearGradient x1="229.78937" y1="181.4903" x2="246.45429" y2="181.4903" gradientUnits="userSpaceOnUse" id="color-1"><stop offset="0" stop-color="#ff866e"/><stop offset="1" stop-color="#ff6242"/></linearGradient><radialGradient cx="237.1294" cy="171.81328" r="4.16822" gradientUnits="userSpaceOnUse" id="color-2"><stop offset="0" stop-color="#9ceb60"/><stop offset="1" stop-color="#6dd627"/></radialGradient><radialGradient cx="236.66749" cy="172.91902" r="0.82485" gradientUnits="userSpaceOnUse" id="color-3"><stop offset="0" stop-color="#9ceb60"/><stop offset="1" stop-color="#6dd627"/></radialGradient></defs><g transform="translate(-222.88109,-163.80154)"><g stroke-miterlimit="10"><g><path d="M249.10789,166.15462c0.18234,0.52366 -0.34131,0.706 -0.34131,0.706l-0.02896,0.01008c-4.26206,1.48411 -8.52261,2.89192 -12.82179,4.21711c0,0 -0.52997,0.16307 -0.69304,-0.36691c-0.16307,-0.52997 0.36691,-0.69304 0.36691,-0.69304c4.28783,-1.31707 8.53367,-2.72471 12.78323,-4.20448l0.02896,-0.01008c0,0 0.52366,-0.18234 0.706,0.34131z" fill="#00ff2c" stroke="none" stroke-linecap="butt"/><path d="M234.65015,175.78035c0,0.5545 -0.5545,0.5545 -0.5545,0.5545l-0.23021,-0.02339c-0.63585,0.11476 -0.57652,0.50482 -0.92268,1.06125c0,0 -0.29388,0.47021 -0.76409,0.17633c-0.47021,-0.29388 -0.17633,-0.76409 -0.17633,-0.76409c0.54417,-0.86609 0.5169,-1.16405 1.54443,-1.5357l0.54888,-0.02339c0,0 0.5545,0 0.5545,0.5545z" fill="#ffd9c6" stroke="none" stroke-linecap="butt"/><path d="M228.3293,178.56696c-0.49595,-0.24798 -0.24798,-0.74393 -0.24798,-0.74393l0.04243,-0.05534c0.17981,-0.71589 0.28234,-1.4324 0.41447,-2.15956c0,0 0.09919,-0.54555 0.64474,-0.44636c0.54555,0.09919 0.44636,0.64474 0.44636,0.64474c-0.13665,0.75111 -0.24543,1.48989 -0.4297,2.23015l-0.1264,0.28233c0,0 -0.24798,0.49595 -0.74393,0.24798z" fill="#ff5500" stroke="none" stroke-linecap="butt"/><path d="M243.69453,177.49962c-0.52604,0.17534 -0.70139,-0.35069 -0.70139,-0.35069l-0.17015,-0.51048c-0.44203,-1.37607 -0.53192,-2.83491 -0.61711,-4.27527c0,0 -0.03256,-0.55354 0.52098,-0.5861c0.55354,-0.03256 0.5861,0.52098 0.5861,0.52098c0.07832,1.33899 0.14444,2.72117 0.56473,3.99765l0.16752,0.50253c0,0 0.17534,0.52604 -0.35069,0.70139z" fill="#00ff83" stroke="none" stroke-linecap="butt"/><path d="M239.70984,186.5919c-0.24798,0.49595 -0.74393,0.24798 -0.74393,0.24798l-0.52017,-0.26032c-2.21989,-1.27052 -3.22797,-3.43523 -5.91561,-3.91096c0,0 -0.54555,-0.09919 -0.44636,-0.64474c0.09919,-0.54555 0.64474,-0.44636 0.64474,-0.44636c0.9492,0.17655 2.01017,0.44598 2.82062,1.00967c1.28194,0.89163 2.04602,2.23097 3.41989,3.01462l0.49284,0.24618c0,0 0.49595,0.24798 0.24798,0.74393z" fill="#ff0032" stroke="none" stroke-linecap="butt"/><path d="M245.44125,187.70112c-0.17534,-0.52604 0.35069,-0.70139 0.35069,-0.70139l0.66191,-0.20973c1.13896,-1.00683 2.12043,-2.02511 2.25351,-3.5353c0,0 0.0502,-0.55222 0.60242,-0.50202c0.55222,0.0502 0.50202,0.60242 0.50202,0.60242c-0.17693,1.89418 -1.37207,3.19323 -2.81154,4.39994l-0.85761,0.29677c0,0 -0.52604,0.17534 -0.70139,-0.35069z" fill="#002eff" stroke="none" stroke-linecap="butt"/><path d="M239.12947,180.82035c-0.5545,0 -0.5545,-0.5545 -0.5545,-0.5545l0.00192,-0.13047c0.18549,-2.2196 0.48947,-4.82256 -0.14942,-6.97711c0,0 -0.15233,-0.53316 0.38083,-0.68549c0.53316,-0.15233 0.68549,0.38083 0.68549,0.38083c0.64406,2.32219 0.38651,4.98829 0.18825,7.37387l0.00192,0.03837c0,0 0,0.5545 -0.5545,0.5545z" fill="#00ff14" stroke="none" stroke-linecap="butt"/><path d="M232.14235,189.13621c-0.17534,0.52604 -0.70139,0.35069 -0.70139,0.35069l-0.30736,-0.10566c-3.05558,-1.40977 -3.23188,-4.21324 -4.10045,-7.09887c0,0 -0.15933,-0.53111 0.37178,-0.69044c0.53111,-0.15933 0.69044,0.37178 0.69044,0.37178c0.74848,2.50271 0.81683,5.21105 3.49713,6.40794l0.19915,0.06317c0,0 0.52604,0.17534 0.35069,0.70139z" fill="#0009ff" stroke="none" stroke-linecap="butt"/><path d="M234.21021,184.69305c-0.54398,-0.10746 -0.43653,-0.65144 -0.43653,-0.65144l0.12878,-0.64401c0.7331,-2.05523 1.41454,-4.12392 1.99006,-6.22997c0.31476,-1.15185 0.365,-2.41449 0.88379,-3.48106c0,0 0.24798,-0.49595 0.74393,-0.24798c0.49595,0.24798 0.24798,0.74393 0.24798,0.74393c-0.49642,0.95669 -0.51643,2.21745 -0.80456,3.27234c-0.57588,2.10842 -1.25259,4.18243 -1.99225,6.238l-0.10978,0.56366c0,0 -0.10746,0.54398 -0.65144,0.43653z" fill="#00ff39" stroke="none" stroke-linecap="butt"/><path d="M235.22308,183.01182c-0.5511,0.06123 -0.61234,-0.48987 -0.61234,-0.48987l-0.07932,-0.72433c-0.68059,-2.76995 -1.54085,-5.58431 -2.89595,-8.10508c-0.4723,-0.87858 -1.25448,-2.22812 -2.26409,-2.42793c0,0 -0.53794,-0.13449 -0.40346,-0.67243c0.13449,-0.53794 0.67243,-0.40346 0.67243,-0.40346c1.38449,0.39103 2.29521,1.7314 2.9698,2.97479c1.4198,2.61695 2.31185,5.55863 3.01328,8.44076l0.08952,0.79519c0,0 0.06123,0.5511 -0.48987,0.61234z" fill="#00c2ff" stroke="none" stroke-linecap="butt"/><path d="M241.03521,175.06676c-0.54129,-0.12029 -0.421,-0.66158 -0.421,-0.66158l0.15604,-0.66075c-0.1752,-1.08476 -0.25031,-2.96458 -1.27301,-3.56939c0,0 -0.46137,-0.30758 -0.15379,-0.76895c0.30758,-0.46137 0.76895,-0.15379 0.76895,-0.15379c1.37937,0.9833 1.55976,2.94711 1.76602,4.53469l-0.18163,0.85877c0,0 -0.12029,0.54129 -0.66158,0.421z" fill="#ff0000" stroke="none" stroke-linecap="butt"/><path d="M230.26036,185.9957c-0.49595,0.24798 -0.74393,-0.24798 -0.74393,-0.24798l-0.19196,-0.39066c-0.33443,-0.90477 -0.60893,-1.46633 -1.40715,-2.02305c0,0 -0.45121,-0.32229 -0.12892,-0.7735c0.32229,-0.45121 0.7735,-0.12892 0.7735,-0.12892c0.96647,0.70324 1.37923,1.42881 1.80072,2.53549l0.14571,0.28468c0,0 0.24798,0.49595 -0.24798,0.74393z" fill="#ff0000" stroke="none" stroke-linecap="butt"/><path d="M232.30896,173.60076c-0.42598,0.35498 -0.78096,-0.071 -0.78096,-0.071l-0.42209,-0.50651c-1.07001,-1.28417 -2.10269,-1.43194 -3.7079,-1.93643c0,0 -0.52898,-0.16625 -0.36273,-0.69524c0.16625,-0.52898 0.69524,-0.36273 0.69524,-0.36273c1.79947,0.56555 2.99965,0.81139 4.22735,2.28445l0.42209,0.50651c0,0 0.35498,0.42598 -0.071,0.78096z" fill="#ff0000" stroke="none" stroke-linecap="butt"/><path d="M236.14372,180.52979c-0.33117,-0.12805 -0.36828,-0.38617 -0.35214,-0.55527c-0.42243,-0.25052 -0.20033,-0.70981 -0.20033,-0.70981l0.15474,-0.30971c0.50102,-1.48232 1.32527,-2.88501 2.19451,-4.22619c0.18568,-0.67545 0.27981,-1.3292 0.21467,-1.9259c0,0 -0.0502,-0.55222 0.50202,-0.60242c0.55222,-0.0502 0.60242,0.50202 0.60242,0.50202c0.01049,0.13612 0.01492,0.27353 0.01379,0.41204c0.09803,-0.00381 0.20983,0.02361 0.3325,0.10539c0.46137,0.30758 0.15379,0.76895 0.15379,0.76895c-0.28714,0.43071 -0.58242,0.86847 -0.87326,1.31371c-0.51279,1.65539 -1.41749,3.33745 -1.97714,4.78484l-0.0484,0.12516c0,0 -0.19998,0.51718 -0.71716,0.3172z" fill="#beff00" stroke="none" stroke-linecap="butt"/><path d="M244.04447,171.40604c0.50248,-0.23447 0.73696,0.26801 0.73696,0.26801l0.02013,0.04314c0.89171,1.91096 1.66648,3.90432 2.49436,5.86098c0.1514,0.04137 0.30173,0.08637 0.45065,0.13563c0,0 0.52604,0.17534 0.35069,0.70139c-0.06469,0.19407 -0.17711,0.29268 -0.29324,0.33984c0.31264,0.70733 0.63694,1.40656 0.98116,2.0919c0.93792,1.86736 2.07938,3.02583 2.20988,5.21298c0,0 0.03076,0.55364 -0.52288,0.5844c-0.55364,0.03076 -0.5844,-0.52288 -0.5844,-0.52288c-0.1013,-1.99164 -1.234,-3.06529 -2.09361,-4.77674c-0.35057,-0.69797 -0.68057,-1.41019 -0.99866,-2.13063c-1.65251,2.46271 -3.74674,4.29072 -6.20045,6.00233l-0.54227,0.27281c0,0 -0.22099,0.1105 -0.44169,0.03645c0.10912,0.09787 0.19637,0.2557 0.14652,0.50493c-0.10875,0.54373 -0.65247,0.43498 -0.65247,0.43498l-0.44783,-0.09021c-0.50506,-0.12862 -0.99708,-0.3173 -1.46417,-0.54849c0,0 -0.49595,-0.24798 -0.24798,-0.74393c0.24798,-0.49595 0.74393,-0.24798 0.74393,-0.24798c0.39306,0.19888 0.80928,0.35991 1.23719,0.46452l0.39635,0.07863c0,0 0.04564,0.00913 0.10784,0.03532c-0.04426,-0.04371 -0.08556,-0.10009 -0.12162,-0.17221c-0.24798,-0.49595 0.24798,-0.74393 0.24798,-0.74393l0.47074,-0.23369c2.36682,-1.66313 4.38767,-3.42346 5.96226,-5.83947c-0.11947,-0.0207 -0.23913,-0.03994 -0.35877,-0.05812l-0.00276,0.00624c0,0 -0.5545,-0.00133 -0.55317,-0.55582c0.00133,-0.5545 0.55582,-0.55317 0.55582,-0.55317l0.16874,0.00665c0.05945,0.00925 0.1189,0.01875 0.17833,0.02853c-0.71332,-1.71414 -1.40308,-3.44427 -2.18142,-5.1123l-0.02013,-0.04314c0,0 -0.23447,-0.50248 0.26801,-0.73696z" fill="#beff00" stroke="none" stroke-linecap="butt"/><path d="M235.51024,174.29798c-0.44785,-0.32695 -0.1209,-0.7748 -0.1209,-0.7748l0.07897,-0.10818c1.77073,-2.42554 3.55263,-4.8019 6.16165,-6.37167c0,0 0.47548,-0.28529 0.76076,0.19019c0.28529,0.47548 -0.19019,0.76076 -0.19019,0.76076c-2.47754,1.48208 -4.15856,3.77615 -5.83653,6.07461l-0.07897,0.10818c0,0 -0.32695,0.44785 -0.7748,0.1209z" fill="#beff00" stroke="none" stroke-linecap="butt"/><path d="M231.07601,177.43593c-0.12468,-0.5403 0.41561,-0.66498 0.41561,-0.66498l0.03367,-0.00777c1.03255,-0.23828 2.02898,-0.45383 3.02496,-0.81722c0,0 0.52111,-0.1895 0.71061,0.33161c0.1895,0.52111 -0.33161,0.71061 -0.33161,0.71061c-1.03955,0.37683 -2.07795,0.60713 -3.15459,0.85559l-0.03367,0.00777c0,0 -0.5403,0.12468 -0.66498,-0.41561z" fill="#beff00" stroke="none" stroke-linecap="butt"/><path d="M233.89558,175.83972c-0.5545,0 -0.5545,-0.5545 -0.5545,-0.5545v-0.42209c0,-1.70081 0.09964,-3.33319 0.43286,-5.00496c0,0 0.10875,-0.54373 0.65247,-0.43498c0.54373,0.10875 0.43498,0.65247 0.43498,0.65247c-0.321,1.59931 -0.41132,3.16035 -0.41132,4.78747v0.42209c0,0 0,0.5545 -0.5545,0.5545z" fill="#00ff2c" stroke="none" stroke-linecap="butt"/><path d="M231.56198,182.75325c-0.46137,-0.30758 -0.15379,-0.76895 -0.15379,-0.76895l0.10504,-0.12363c0.29782,-0.87755 0.49685,-1.78648 0.62361,-2.70804c-0.17099,-0.36884 -0.34686,-0.735 -0.51696,-1.10138c0,0 -0.2335,-0.50293 0.26943,-0.73644c0.16708,-0.07757 0.30443,-0.07387 0.41336,-0.03433c0.0184,-0.41238 0.0261,-0.82476 0.02541,-1.23551c0,0 0,-0.5545 0.5545,-0.5545c0.5545,0 0.5545,0.5545 0.5545,0.5545c-0.00148,0.9774 -0.0466,1.96049 -0.16302,2.93273c0.36619,0.81085 0.69947,1.63622 0.90613,2.50399c0.30743,1.29087 0.39324,2.53573 1.15076,3.66285l0.53211,0.17369c0,0 0.51919,0.19469 0.3245,0.71389c-0.03,0.08001 -0.06771,0.14306 -0.11003,0.19249c1.37458,0.94364 2.40096,2.22968 3.61289,3.44161l0.23594,0.04609c0,0 0.51484,0.20594 0.3089,0.72077c-0.20594,0.51484 -0.72077,0.3089 -0.72077,0.3089l-0.60824,-0.29158c-1.40855,-1.40855 -2.5569,-3.00797 -4.40095,-3.85724c0,0 -0.50247,-0.23449 -0.26799,-0.73696c0.04455,-0.09546 0.09877,-0.16432 0.15738,-0.21325c-0.77778,-1.22954 -0.94536,-2.43138 -1.29018,-3.89155c-0.05667,-0.23999 -0.12403,-0.47658 -0.19972,-0.71041c-0.09716,0.39622 -0.21022,0.7885 -0.3412,1.17561l-0.23263,0.38288c0,0 -0.30758,0.46137 -0.76895,0.15379z" fill="#00ff2c" stroke="none" stroke-linecap="butt"/><path d="M250.40182,181.65479c0.55268,0.04483 0.50785,0.59751 0.50785,0.59751l-0.0381,0.46978c-0.15003,1.84976 -0.37119,3.68188 -0.55924,5.52623c-0.12262,1.20259 -0.03892,1.68176 -0.95104,2.48922c0,0 -0.42598,0.35498 -0.78096,-0.071c-0.35498,-0.42598 0.071,-0.78096 0.071,-0.78096c0.68,-0.51183 0.46591,-0.83896 0.55767,-1.74914c0.12601,-1.25 0.26934,-2.49429 0.39516,-3.7423c-0.12202,0.07231 -0.2914,0.10602 -0.50815,-0.00236c-0.49595,-0.24798 -0.24798,-0.74393 -0.24798,-0.74393l0.12033,-0.19468c0.36767,-1.90616 0.77634,-3.60107 -0.197,-5.37252c0,0 -0.26288,-0.48822 0.22533,-0.7511c0.48822,-0.26288 0.7511,0.22533 0.7511,0.22533c0.74125,1.4004 0.81232,2.71011 0.64802,4.09945c0.002,0.00015 0.00401,0.0003 0.00602,0.00047z" fill="#00ff2c" stroke="none" stroke-linecap="butt"/><path d="M240.66322,187.68147c-0.52219,-0.1865 -0.3357,-0.70869 -0.3357,-0.70869l0.06579,-0.18423c0.3411,-0.94987 0.5882,-1.51133 0.35389,-2.49275c0,0 -0.12029,-0.54129 0.421,-0.66158c0.54129,-0.12029 0.66158,0.421 0.66158,0.421c0.25214,1.20222 0.01645,1.95661 -0.39209,3.10632l-0.06579,0.18423c0,0 -0.1865,0.52219 -0.70869,0.3357z" fill="#00ffe6" stroke="none" stroke-linecap="butt"/><path d="M242.19403,175.31199c0,0.5545 -0.5545,0.5545 -0.5545,0.5545l-0.34169,-0.00557c-1.66299,-0.23814 -3.26446,-0.70475 -4.92249,-0.96655c0,0 -0.54771,-0.08648 -0.46123,-0.63419c0.08648,-0.54771 0.63419,-0.46123 0.63419,-0.46123c1.653,0.261 3.24899,0.72795 4.90637,0.96412l0.18486,-0.00557c0,0 0.5545,0 0.5545,0.5545z" fill="#00ffe6" stroke="none" stroke-linecap="butt"/><path d="M249.36564,173.92937c-0.54805,-0.08431 -0.46373,-0.63236 -0.46373,-0.63236l0.00688,-0.04475c0.2616,-1.68786 0.98723,-3.2817 1.17203,-4.96901c-0.04046,0.01567 -0.0674,0.02189 -0.0674,0.02189c-1.50989,0.34383 -2.98785,0.27542 -4.5317,0.27684l-0.68242,0.00063c0,0 -0.5545,0.00051 -0.55501,-0.55398c-0.00051,-0.5545 0.55398,-0.55501 0.55398,-0.55501l0.68242,-0.00063c1.45415,-0.00134 2.8642,0.08389 4.28336,-0.24844c0,0 0.21639,-0.04994 0.40689,0.05034c0.05993,-0.15324 0.19649,-0.32781 0.50762,-0.32781c0.5545,0 0.5545,0.5545 0.5545,0.5545c-0.00447,2.06042 -0.92076,3.90512 -1.22817,5.91932l-0.00688,0.04475c0,0 -0.08431,0.54805 -0.63236,0.46373z" fill="#00ffe6" stroke="none" stroke-linecap="butt"/><path d="M226.44603,176.47185c-0.54555,-0.09919 -0.44636,-0.64474 -0.44636,-0.64474l0.16881,-0.91594c-0.00083,-0.86139 -0.05214,-1.33403 -0.32481,-2.14431c0,0 -0.17534,-0.52604 0.35069,-0.70139c0.52604,-0.17534 0.70139,0.35069 0.70139,0.35069c0.31382,0.94949 0.37805,1.58654 0.37724,2.5946l-0.18222,1.01473c0,0 -0.09919,0.54555 -0.64474,0.44636z" fill="#00ffe6" stroke="none" stroke-linecap="butt"/><path d="M234.51357,193.16005c-0.05693,0.55156 -0.60849,0.49464 -0.60849,0.49464l-0.45532,-0.04699c-1.90026,-0.1977 -4.43978,-0.4535 -6.15575,-1.29262c0,0 -0.49595,-0.24798 -0.24798,-0.74393c0.24798,-0.49595 0.74393,-0.24798 0.74393,-0.24798c0.13546,0.06972 0.27807,0.13492 0.42671,0.19598c0.13029,-0.19941 0.3808,-0.2454 0.3808,-0.2454l0.1048,-0.01924c0.81688,-0.14996 1.59586,-0.28918 2.3778,-0.49806c-0.10299,-0.02136 -0.2058,-0.04231 -0.30843,-0.0628c0,0 -0.54373,-0.10875 -0.43498,-0.65247c0.10875,-0.54373 0.65247,-0.43498 0.65247,-0.43498c3.22892,0.64691 6.68826,1.7946 9.98828,1.78684h0.94541c0,0 0.5545,0 0.5545,0.5545c0,0.5545 -0.5545,0.5545 -0.5545,0.5545h-0.94541c-2.76986,-0.00593 -5.62046,-0.7696 -8.3798,-1.40946c-0.01011,0.35681 -0.38627,0.4822 -0.38627,0.4822c-0.65396,0.21712 -1.2972,0.3745 -1.95052,0.51034c1.13947,0.21313 2.33701,0.32063 3.30279,0.41947l0.45532,0.04699c0,0 0.55156,0.05693 0.49464,0.60849z" fill="#00ffe6" stroke="none" stroke-linecap="butt"/><path d="M246.93045,192.88722c-0.19663,0 -0.36936,-0.10235 -0.46781,-0.25668c-0.35598,0.00116 -0.71324,-0.00012 -1.07299,-0.00012c0,0 -0.5545,0 -0.5545,-0.5545c0,-0.5545 0.5545,-0.5545 0.5545,-0.5545c1.25837,0 2.48671,0.02088 3.73738,-0.11907l0.0534,-0.00593c0,0 0.5511,-0.06123 0.61234,0.48987c0.06123,0.5511 -0.48987,0.61234 -0.48987,0.61234l-0.0534,0.00593c-0.61836,0.06824 -1.23097,0.1 -1.84414,0.11455c-0.09711,0.16068 -0.27346,0.26811 -0.47491,0.26811z" fill="#00ffe6" stroke="none" stroke-linecap="butt"/><path d="M239.95593,174.99866c0,-0.5545 0.5545,-0.5545 0.5545,-0.5545l1.13206,0.01c0.52017,0.20081 1.05202,0.37218 1.58828,0.52493c0,0 0.53316,0.15233 0.38083,0.68549c-0.15233,0.53316 -0.68549,0.38083 -0.68549,0.38083c-0.50487,-0.14466 -1.00872,-0.29989 -1.49333,-0.50227l-0.92234,0.01c0,0 -0.5545,0 -0.5545,-0.5545z" fill="#8b00ff" stroke="none" stroke-linecap="butt"/><path d="M229.71412,178.26083c-0.18055,-0.52428 0.34373,-0.70483 0.34373,-0.70483l0.61497,-0.20409c0.58562,-0.45477 1.22316,-0.84694 1.88562,-1.17999c0,0 0.49595,-0.24798 0.74393,0.24798c0.24798,0.49595 -0.24798,0.74393 -0.24798,0.74393c-0.65405,0.32505 -1.27532,0.72156 -1.85596,1.1646l-0.77947,0.27613c0,0 -0.52428,0.18055 -0.70483,-0.34373z" fill="#8b00ff" stroke="none" stroke-linecap="butt"/><path d="M237.59057,183.56425c-0.09116,0.54695 -0.63811,0.45579 -0.63811,0.45579c-0.36463,-0.06077 -1.17617,-0.19603 -1.54081,-0.2568c0,0 -0.54695,-0.09116 -0.45579,-0.63811c0.09116,-0.54695 0.63811,-0.45579 0.63811,-0.45579c0.36463,0.06077 0.72927,0.12155 1.0939,0.18232l0.44691,0.07448c0,0 0.54695,0.09116 0.45579,0.63811z" fill="#8b00ff" stroke="none" stroke-linecap="butt"/><path d="M242.62774,179.43029c-0.45121,-0.32229 -0.12892,-0.7735 -0.12892,-0.7735l0.64578,-0.90403c0.12968,-0.17293 0.25936,-0.34585 0.38904,-0.51878c0,0 0.3327,-0.4436 0.77629,-0.1109c0.4436,0.3327 0.1109,0.77629 0.1109,0.77629c-0.12712,0.16948 -0.25424,0.33895 -0.38136,0.50842l-0.63822,0.89358c0,0 -0.32229,0.45121 -0.7735,0.12892z" fill="#8b00ff" stroke="none" stroke-linecap="butt"/><path d="M226.51718,183.8319c0.53999,-0.126 0.66599,0.41399 0.66599,0.41399l0.14282,0.61207c0.32462,1.39123 0.6904,2.77164 0.89332,4.18632c0,0 0.07842,0.54892 -0.4705,0.62734c-0.54892,0.07842 -0.62734,-0.4705 -0.62734,-0.4705c-0.19664,-1.38237 -0.55829,-2.7319 -0.87546,-4.09116l-0.14282,-0.61207c0,0 -0.126,-0.53999 0.41399,-0.66599z" fill="#8b00ff" stroke="none" stroke-linecap="butt"/><path d="M226.81247,182.31749v0.68862v1.10899c0,0 0,0.5545 -0.5545,0.5545c-0.5545,0 -0.5545,-0.5545 -0.5545,-0.5545v-1.10899v-0.68862" fill="#8b00ff" stroke="none" stroke-linecap="butt"/><path d="M235.08522,169.62758c0.10923,-1.47462 0.28424,-3.83724 0.39347,-5.31185c0,0 0.04096,-0.55298 0.59394,-0.51202c0.55298,0.04096 0.51202,0.59394 0.51202,0.59394c-0.10923,1.47462 -0.21846,2.94923 -0.32769,4.42384l-0.06578,0.88801c0,0 -0.00157,0.02121 -0.00825,0.05501c0.01565,0.10359 0.00353,0.18368 0.00353,0.18368l-0.2957,0.60892c-0.03758,0.02174 -0.07544,0.04341 -0.11356,0.06492c1.98457,0.06773 3.97422,0.2269 5.97062,0.2269h0.20908c0.00145,-0.09192 0.03075,-0.19518 0.10567,-0.30757c0.30758,-0.46137 0.76895,-0.15379 0.76895,-0.15379l0.84788,0.56525c0.8422,0.56147 1.45718,0.97675 2.39498,1.34863c0,0 0.51484,0.20594 0.3089,0.72077c-0.20594,0.51484 -0.72077,0.3089 -0.72077,0.3089c-1.002,-0.40391 -1.70108,-0.85745 -2.59826,-1.45557l-0.03321,-0.02214c-0.15554,0.1045 -0.3378,0.1045 -0.3378,0.1045h-0.94541c-2.51732,0 -5.03079,-0.26044 -7.52901,-0.2568c0,0 -0.5545,0 -0.5545,-0.5545c0,-0.03144 0.00178,-0.0611 0.00515,-0.08908c-0.08995,-0.08191 -0.15963,-0.20879 -0.15963,-0.40534c0,-0.5545 0.5545,-0.5545 0.5545,-0.5545c0.36106,0.01643 0.70735,-0.15661 1.02701,-0.34945c-0.00979,-0.07086 -0.0061,-0.1207 -0.0061,-0.1207z" fill="#000000" stroke="none" stroke-linecap="butt"/><path d="M237.0776,186.44331l0.20907,-0.05226c0.11798,-0.02949 0.23357,-0.05755 0.347,-0.08479c-0.01632,-0.31942 0.29626,-0.49308 0.29626,-0.49308l0.18617,-0.10343c0.91314,-0.50656 1.73405,-1.07119 2.5923,-1.66536c0,0 0.4559,-0.31562 0.77152,0.14028c0.24015,0.34688 0.03365,0.61254 -0.07885,0.71977c0.05769,0.0328 0.11558,0.08061 0.17169,0.14794c0.35498,0.42598 -0.071,0.78096 -0.071,0.78096c-0.53232,0.43789 -1.04726,0.7291 -1.5832,0.9492c0.4954,0.07065 0.99203,0.11839 1.49065,0.11647h0.642c0,0 0.5545,0 0.5545,0.5545c0,0.5545 -0.5545,0.5545 -0.5545,0.5545h-0.642c-0.92626,-0.00314 -1.8375,-0.15418 -2.74977,-0.31565c-0.19573,0.32092 -0.59818,0.22031 -0.59818,0.22031l-0.20907,-0.05226c-1.53672,-0.38418 -2.63247,-0.3103 -3.64128,-1.53012c0,0 -0.3327,-0.4436 0.1109,-0.77629c0.4436,-0.3327 0.77629,0.1109 0.77629,0.1109c0.37011,0.585 1.03477,0.76696 1.75395,0.8914c0.11042,-0.08418 0.22553,-0.11296 0.22553,-0.11296z" fill="#000000" stroke="none" stroke-linecap="butt"/><path d="M242.41209,182.19517c-0.13449,-0.53794 0.40346,-0.67243 0.40346,-0.67243c0.35863,-0.08966 1.69578,-0.42394 2.05441,-0.5136c0,0 0.53794,-0.13449 0.67243,0.40346c0.13449,0.53794 -0.40346,0.67243 -0.40346,0.67243c-0.35863,0.08966 -0.71725,0.17931 -1.07588,0.26897l-0.97853,0.24463c0,0 -0.53794,0.13449 -0.67243,-0.40346z" fill="#000000" stroke="none" stroke-linecap="butt"/><path d="M236.55398,175.06629c0.30758,-0.46137 0.76895,-0.15379 0.76895,-0.15379l0.51535,0.34357c0.59738,0.39826 1.16335,0.8476 1.79009,1.19786c1.51035,0.84408 3.17207,0.76072 4.60542,1.82085c0,0 0.4436,0.3327 0.1109,0.77629c-0.3327,0.4436 -0.77629,0.1109 -0.77629,0.1109c-0.92758,-0.70735 -1.64529,-0.76348 -2.74595,-1.08576c-1.3751,-0.40263 -2.4189,-1.11045 -3.59932,-1.8974l-0.51535,-0.34357c0,0 -0.46137,-0.30758 -0.15379,-0.76895z" fill="#000000" stroke="none" stroke-linecap="butt"/><path d="M231.50676,193.24107c-0.5545,0 -0.5545,-0.5545 -0.5545,-0.5545l0.01656,-0.33122c0.1199,-0.46844 0.18297,-0.95586 0.18018,-1.4394c0,0 0,-0.5545 0.5545,-0.5545c0.5545,0 0.5545,0.5545 0.5545,0.5545c-0.00279,0.57387 -0.07674,1.15097 -0.21329,1.70837l0.01656,0.06225c0,0 0,0.5545 -0.5545,0.5545z" fill="#000000" stroke="none" stroke-linecap="butt"/><path d="M241.57896,196.1691c-0.53149,-0.15804 -0.37345,-0.68953 -0.37345,-0.68953l0.17951,-0.58344c0.00873,-1.11526 0.27994,-1.57478 0.61288,-2.58163c0,0 0.17534,-0.52604 0.70139,-0.35069c0.52604,0.17534 0.35069,0.70139 0.35069,0.70139c-0.32169,0.95832 -0.57663,1.32432 -0.56753,2.39064l-0.21396,0.73982c0,0 -0.15804,0.53149 -0.68953,0.37345z" fill="#000000" stroke="none" stroke-linecap="butt"/><path d="M233.17489,194.3117c-0.24798,-0.49595 0.24798,-0.74393 0.24798,-0.74393l0.1885,-0.09425c0.60607,-0.30089 1.23652,-0.56807 1.89235,-0.73468c0,0 0.53794,-0.13449 0.67243,0.40346c0.13449,0.53794 -0.40346,0.67243 -0.40346,0.67243c-0.57883,0.142 -1.13314,0.38249 -1.66536,0.65071l-0.1885,0.09425c0,0 -0.49595,0.24798 -0.74393,-0.24798z" fill="#000000" stroke="none" stroke-linecap="butt"/><path d="M231.89885,193.67163c0.39209,0.39209 0,0.78418 0,0.78418l-0.58882,0.35914c-1.04926,0 -2.09851,0 -3.14776,0c0,0 -0.5545,0 -0.5545,-0.5545c0,-0.5545 0.5545,-0.5545 0.5545,-0.5545c1.04926,0 2.09851,0 3.14776,0l-0.19535,-0.03433c0,0 0.39209,-0.39209 0.78418,0z" fill="#000000" stroke="none" stroke-linecap="butt"/><path d="M226.53714,166.82c-0.49595,-0.24798 -0.24798,-0.74393 -0.24798,-0.74393l0.40984,-0.81728c0.25477,-0.28521 0.39572,-0.75368 0.76431,-0.85562c0.43204,-0.11948 0.84159,0.4075 1.28916,0.3827c0,0 0.5545,0 0.5545,0.5545c0,0.5545 -0.5545,0.5545 -0.5545,0.5545c-0.66154,-0.02096 -1.06424,-0.51081 -1.09429,-0.07944l-0.37711,0.7566c0,0 -0.24798,0.49595 -0.74393,0.24798z" fill="#000000" stroke="none" stroke-linecap="butt"/><path d="M239.60198,178.99887c0.50644,0.2258 0.28063,0.73224 0.28063,0.73224l-0.23869,0.53534c-0.51023,1.14435 -1.08029,3.44865 -2.11241,4.21702c-0.53827,0.40072 -1.30456,0.31527 -1.95555,0.47816c0,0 -0.53794,0.13449 -0.67243,-0.40346c-0.13449,-0.53794 0.40346,-0.67243 0.40346,-0.67243c0.52244,-0.1305 1.15047,0.00832 1.58569,-0.30878c0.79786,-0.58134 1.34118,-2.87128 1.73837,-3.76212l0.23869,-0.53534c0,0 0.2258,-0.50644 0.73224,-0.28063z" fill="#000000" stroke="none" stroke-linecap="butt"/><path d="M233.50983,168.48813c0,-0.30624 0.24825,-0.5545 0.5545,-0.5545c0.30624,0 0.5545,0.24825 0.5545,0.5545c0,0.30624 -0.24825,0.5545 -0.5545,0.5545c-0.30624,0 -0.5545,-0.24825 -0.5545,-0.5545z" fill="#000000" stroke="none" stroke-linecap="butt"/><path d="M255.72659,173.93255c-0.52604,-0.17534 -0.35069,-0.70139 -0.35069,-0.70139l0.08555,-0.25666c0.35796,-1.07389 0.73441,-1.69185 0.48697,-2.80375c0,0 -0.10875,-0.54373 0.43498,-0.65247c0.54373,-0.10875 0.65247,0.43498 0.65247,0.43498c0.24706,1.34867 -0.09565,2.09186 -0.52234,3.37193l-0.08555,0.25666c0,0 -0.17534,0.52604 -0.70139,0.35069z" fill="#000000" stroke="none" stroke-linecap="butt"/><path d="M249.84546,175.73167c0.42914,-0.35115 0.78029,0.07798 0.78029,0.07798l0.38659,0.47245c1.00412,1.22799 1.95471,2.33347 2.28555,3.9014c0,0 0.10875,0.54373 -0.43498,0.65247c-0.54373,0.10875 -0.65247,-0.43498 -0.65247,-0.43498c-0.25312,-1.35912 -1.18917,-2.35756 -2.05637,-3.41659l-0.38659,-0.47245c0,0 -0.35115,-0.42914 0.07798,-0.78029z" fill="#000000" stroke="none" stroke-linecap="butt"/><path d="M224.65674,187.37472c0,-0.30624 0.24825,-0.5545 0.5545,-0.5545c0.30624,0 0.5545,0.24825 0.5545,0.5545c0,0.30624 -0.24825,0.5545 -0.5545,0.5545c-0.30624,0 -0.5545,-0.24825 -0.5545,-0.5545z" fill="#000000" stroke="none" stroke-linecap="butt"/><path d="M246.3445,181.17738c-0.52988,2.90728 -0.53043,4.4904 -3.16611,6.91528c-2.82137,2.59573 -3.28453,0.06198 -5.17606,0.06198c-1.70259,0 -2.11722,2.40206 -4.62668,0.21821c-1.99552,-1.7366 -3.58628,-4.51479 -3.58628,-7.63793c0,-2.44755 0.25568,-4.33615 1.69319,-5.96418c0.54807,-0.62071 1.54458,-1.41817 2.1319,-1.10238c1.21899,0.65543 2.06457,0.84473 3.53275,0.84473c1.17503,0 -0.69885,0.41391 4.31966,-1.03723c3.09312,-0.8944 5.54298,4.05102 4.87763,7.70151z" fill="url(#color-1)" stroke="#45413c" stroke-linecap="butt"/><path d="M230.64188,186.63273c0,-0.5545 0.5545,-0.5545 0.5545,-0.5545c0.73933,0 2.41995,0 3.15928,0c0,0 0.5545,0 0.5545,0.5545c0,0.5545 -0.5545,0.5545 -0.5545,0.5545c-0.73933,0 -1.47865,0 -2.21798,0h-0.94129c0,0 -0.5545,0 -0.5545,-0.5545z" fill="#00ffe6" stroke="none" stroke-linecap="butt"/><path d="M227.50988,181.14182c-0.36514,-0.4173 0.05216,-0.78244 0.05216,-0.78244c0.2782,-0.24342 0.749,-0.65538 1.0272,-0.8988c0,0 0.36681,-0.32096 0.71353,-0.01714c0.01423,-0.1642 0.09536,-0.4581 0.48918,-0.50186c0.5511,-0.06123 0.61234,0.48987 0.61234,0.48987c0.06935,0.74011 0.57027,1.47802 1.19281,1.88423l0.23287,0.15525c0,0 0.46137,0.30758 0.15379,0.76895c-0.30758,0.46137 -0.76895,0.15379 -0.76895,0.15379l-0.23287,-0.15525c-1.08416,-0.73565 -1.39563,-1.03326 -1.58257,-2.03279c-0.04255,0.05692 -0.07985,0.08956 -0.07985,0.08956c-0.2782,0.24342 -0.5564,0.48685 -0.8346,0.73027l-0.19261,0.16853c0,0 -0.4173,0.36514 -0.78244,-0.05216z" fill="#8b00ff" stroke="none" stroke-linecap="butt"/><path d="M241.15147,189.54635c0.38592,0.39815 -0.01223,0.78408 -0.01223,0.78408l-0.4743,0.45466c-0.51132,0.28934 -0.96726,0.76811 -1.16741,1.32048c0,0 -0.20594,0.51484 -0.72077,0.3089c-0.51484,-0.20594 -0.3089,-0.72077 -0.3089,-0.72077c0.15072,-0.35258 0.35994,-0.68892 0.61209,-0.98929c-0.44924,0 -0.89848,0 -1.34773,0h-0.81702c0,0 -0.5545,0 -0.5545,-0.5545c0,-0.5545 0.5545,-0.5545 0.5545,-0.5545c0.85824,0 2.48786,0 3.38981,0l0.06237,-0.06129c0,0 0.39815,-0.38592 0.78408,0.01223z" fill="#000000" stroke="none" stroke-linecap="butt"/><path d="M250.59147,189.73416c-0.39209,-0.39209 0,-0.78418 0,-0.78418l0.00277,-0.00277c0.22676,-0.22648 0.49859,-0.45084 0.79017,-0.67774c-0.39724,-0.00692 -0.49901,-0.42929 -0.49901,-0.42929l-0.19358,-0.80341c-0.46145,-1.91597 -0.51124,-4.51935 -1.34382,-6.38273c-0.03278,0.09489 -0.07731,0.15723 -0.07731,0.15723v0l-0.33909,0.47472c-0.3979,0.53278 -0.88738,1.07115 -1.51066,1.3029c0,0 -0.52604,0.17534 -0.70139,-0.35069c-0.17534,-0.52604 0.35069,-0.70139 0.35069,-0.70139c0.42246,-0.11307 0.71516,-0.53232 0.95893,-0.89541l0.33909,-0.47472c0,0 0.24929,-0.349 0.61632,-0.21388c-0.0577,-0.14851 -0.12544,-0.46638 0.22859,-0.6788c0.47548,-0.28529 0.76076,0.19019 0.76076,0.19019c1.2006,2.04548 1.2399,5.00571 1.79602,7.31281l0.19358,0.80341c0,0 0.02662,0.11047 0.00574,0.24345c0.98013,-0.74234 1.99428,-1.54171 2.21431,-2.55098c0,0 0.13449,-0.53794 0.67243,-0.40346c0.53794,0.13449 0.40346,0.67243 0.40346,0.67243c-0.51285,1.88269 -2.54093,2.84772 -3.88105,4.18954l-0.00277,0.00277c0,0 -0.39209,0.39209 -0.78418,0z" fill="#000000" stroke="none" stroke-linecap="butt"/><path d="M235.83494,182.42063c-0.5545,0 -0.5545,-0.5545 -0.5545,-0.5545v-0.66163c0,-0.36966 -0.02532,-0.74019 0,-1.10899c0.00674,-0.09815 0.17449,-0.22091 0.09534,-0.27934c-0.20238,-0.14939 -0.48697,-0.12633 -0.73045,-0.1895c0,0 -0.0397,-0.01588 -0.09263,-0.04984c-0.69128,0.90243 -1.58784,1.67798 -2.53548,2.3795c0.7483,0.99167 0.64379,2.50667 0.51862,3.8176l-0.08367,0.8671c0,0 -0.05326,0.55193 -0.60519,0.49867c-0.55193,-0.05326 -0.49867,-0.60519 -0.49867,-0.60519l0.08367,-0.8671c0.08157,-0.83594 0.32713,-2.35403 -0.28391,-3.09372c-0.57397,0.39374 -1.14953,0.76692 -1.69416,1.13068l-0.11262,0.12772c0,0 -0.39209,0.39209 -0.78418,0c-0.39209,-0.39209 0,-0.78418 0,-0.78418l0.28085,-0.26575c0.42583,-0.28441 0.88792,-0.57998 1.35963,-0.89195c-0.04488,-0.1013 -0.05868,-0.23157 -0.00381,-0.39617c0.17534,-0.52604 0.70139,-0.35069 0.70139,-0.35069c0.08536,0.03205 0.16671,0.06682 0.24422,0.10416c1.47495,-1.04823 2.87201,-2.29002 3.38257,-3.88491c0,0 0.17534,-0.52604 0.70139,-0.35069c0.52604,0.17534 0.35069,0.70139 0.35069,0.70139c-0.11196,0.32532 -0.2512,0.63618 -0.41353,0.93403c1.49317,0.73424 1.22893,0.92079 1.22893,2.55717v0.66163c0,0 0,0.5545 -0.5545,0.5545z" fill="#000000" stroke="none" stroke-linecap="butt"/><path d="M243.18649,181.84829c0.4436,-0.3327 0.77629,0.1109 0.77629,0.1109l0.34762,0.46349c0.26371,0.35804 0.55414,0.67026 0.86759,0.94409c0.65849,-3.8705 1.42056,-7.7432 2.3618,-11.50831c0,0 0.13449,-0.53794 0.67243,-0.40346c0.53794,0.13449 0.40346,0.67243 0.40346,0.67243c-0.97714,3.90842 -1.76025,7.93409 -2.43409,11.95189c0.76807,0.44181 1.62622,0.73918 2.53714,0.96691c0,0 0.53794,0.13449 0.40346,0.67243c-0.13449,0.53794 -0.67243,0.40346 -0.67243,0.40346c-0.8788,-0.2197 -1.70238,-0.50444 -2.45789,-0.89463c-0.23068,1.41668 -0.44876,2.83089 -0.65797,4.23714l0.00605,0.08717c0,0 0,0.5545 -0.5545,0.5545c-0.5545,0 -0.5545,-0.5545 -0.5545,-0.5545l0.00605,-0.2505c0.23236,-1.55927 0.47543,-3.12817 0.73425,-4.69937c-0.56907,-0.41197 -1.0875,-0.90898 -1.54804,-1.51385l-0.34762,-0.46349c0,0 -0.3327,-0.4436 0.1109,-0.77629z" fill="#00ff2c" stroke="none" stroke-linecap="butt"/><path d="M246.15396,182.72703c-0.53794,-0.13449 -0.40346,-0.67243 -0.40346,-0.67243l0.11293,-0.41371c0.22269,-3.56303 0.5009,-7.58506 2.25151,-10.76354c0,0 0.26929,-0.48472 0.754,-0.21543c0.48472,0.26929 0.21543,0.754 0.21543,0.754c-1.68363,3.00114 -1.90326,6.92064 -2.11411,10.29414l-0.14388,0.6135c0,0 -0.13449,0.53794 -0.67243,0.40346z" fill="#8b00ff" stroke="none" stroke-linecap="butt"/><path d="M234.56909,189.07553c-0.08121,-0.54852 0.4673,-0.62973 0.4673,-0.62973l0.40106,-0.05938c0.57419,-0.08448 1.23731,-0.34003 1.84201,-0.35861c-0.03862,-0.10365 -0.04459,-0.23429 0.01971,-0.39503c0.20594,-0.51484 0.72077,-0.3089 0.72077,-0.3089l0.63001,0.252c0.21059,0.07863 0.36056,0.28162 0.36056,0.51963c0,0.22135 -0.12971,0.41242 -0.31726,0.50133l-0.75966,0.37983l-0.05867,-0.11733c-0.6526,0.34715 -1.28105,0.47606 -2.27505,0.62411l-0.40106,0.05938c0,0 -0.54852,0.08121 -0.62973,-0.4673z" fill="#8b00ff" stroke="none" stroke-linecap="butt"/><path d="M247.09384,172.73732c-0.1195,0.16731 -0.25674,0.22827 -0.38211,0.23874c0.11708,0.21182 0.03485,0.45849 0.03485,0.45849c-1.43338,4.23013 -5.69952,7.99648 -9.82052,9.50418l-0.81496,0.29635c0,0 -0.52111,0.1895 -0.71061,-0.33161c-0.1895,-0.52111 0.33161,-0.71061 0.33161,-0.71061l0.81496,-0.29635c3.77056,-1.36196 7.87506,-4.91922 9.14743,-8.81265c0,0 0.10754,-0.32261 0.40682,-0.37833l-0.29044,-0.21312c-0.75885,-0.20428 -1.52332,-0.32989 -2.29845,-0.45902c0,0 -0.54695,-0.09116 -0.45579,-0.63811c0.09116,-0.54695 0.63811,-0.45579 0.63811,-0.45579c0.88505,0.14757 1.73786,0.29856 2.59778,0.55399l0.67239,0.47035c0,0 0.45121,0.32229 0.12892,0.7735z" fill="#00ff2c" stroke="none" stroke-linecap="butt"/><path d="M239.54166,181.47673c-0.19722,-0.51824 0.32102,-0.71545 0.32102,-0.71545l0.8634,-0.32484c1.7566,-1.09392 1.41198,-3.91711 1.77595,-5.76973c0.09215,-0.46904 0.28008,-0.91221 0.45764,-1.35812c-0.29334,-0.46669 -0.60152,-0.91691 -0.93096,-1.34272c-0.70161,-0.90687 -1.25803,-1.9759 -2.30454,-2.47647c0,0 -0.49595,-0.24798 -0.24798,-0.74393c0.24798,-0.49595 0.74393,-0.24798 0.74393,-0.24798c1.57214,0.81193 2.58806,2.35975 3.44215,3.97158c0.05462,0.00337 0.11414,0.01522 0.17887,0.03787c0.52336,0.18318 0.34019,0.70654 0.34019,0.70654c-0.01872,0.05349 -0.03688,0.10742 -0.0545,0.16176c0.30444,0.60795 0.59635,1.20714 0.89688,1.76155c0.6976,1.28691 1.51816,2.52226 2.27714,3.77391l0.51707,0.85271c0,0 0.28751,0.47413 -0.18663,0.76164c-0.47413,0.28751 -0.76164,-0.18663 -0.76164,-0.18663l-0.51707,-0.85271c-0.90847,-1.49817 -1.69085,-3.17139 -2.56158,-4.75475c-0.47004,2.44879 -0.50276,5.26208 -2.55693,6.69129l-0.97695,0.37551c0,0 -0.51824,0.19722 -0.71545,-0.32102z" fill="#00ffe6" stroke="none" stroke-linecap="butt"/><g stroke="#45413c" stroke-linecap="round"><path d="M238.94407,174.11271l-1.40774,0.40209c0,0 -2.58711,-0.25986 -2.79348,-0.30157c-0.20637,-0.0417 0.2054,0.14888 -0.43992,-0.35183c-0.50524,-0.39201 -0.76023,-0.82458 -1.01181,-1.35705c-0.25159,-0.53246 -0.43991,-1.08481 -0.32994,-1.4827c0.10998,-0.39788 0.20707,-0.28621 0.85784,-0.42722c0.65077,-0.14101 1.27727,-0.1682 1.69368,-0.12565c0.266,0.02718 0.47285,-0.01249 1.01181,0.40209c0.53897,0.41458 1.20978,1.30679 1.20978,1.30679c0,0 -0.0368,1.83846 -0.022,1.96018c0.0148,0.12172 0.18779,0.40619 0.24196,-0.15078c0.05417,-0.55698 -0.21503,-0.5857 -0.08798,-1.43244c0.12705,-0.84674 0.25421,-1.42757 0.61588,-2.08583c0.36167,-0.65826 0.98038,-1.18831 1.27576,-1.35705c0.29537,-0.16874 0.39693,-0.365 0.83584,0.15078c0.4389,0.51578 0.65395,1.46354 0.70387,1.65862c0.04992,0.19508 0.24794,0.28034 -0.15397,0.49019c-0.40192,0.20985 -0.67822,-0.13157 -1.12179,0.17591c-0.44357,0.30748 -0.53495,0.64943 -0.76986,1.18113c-0.23491,0.5317 -0.39593,1.45757 -0.39593,1.45757" fill="url(#color-2)"/><path d="M237.49233,173.81116l-1.64969,-1.78426" fill="url(#color-3)"/></g><path d="M243.12821,182.74614c-0.28543,-0.47539 0.18997,-0.76082 0.18997,-0.76082l0.71021,-0.42476c1.73419,-1.40686 3.41318,-3.21476 5.00794,-4.81024c0,0 0.39209,-0.39209 0.78418,0c0.39209,0.39209 0,0.78418 0,0.78418c-1.645,1.64428 -3.37087,3.47411 -5.15474,4.9336l-0.77673,0.46801c0,0 -0.47539,0.28543 -0.76082,-0.18997z" fill="#ff0000" stroke="none" stroke-linecap="butt"/><path d="M236.84967,178.24024c-0.50554,0.22779 -0.73334,-0.27776 -0.73334,-0.27776l-0.13223,-0.29347c-0.37361,-0.82917 -0.72666,-1.74903 -1.18957,-2.58983c-0.36743,0.2546 -0.73269,0.58803 -1.0024,0.75053c-1.886,1.13627 -3.77614,2.26575 -5.66423,3.39854c0.00507,0.05628 0.00189,0.11907 -0.01211,0.18907c-0.10875,0.54373 -0.65247,0.43498 -0.65247,0.43498c-0.95107,-0.19123 -1.77148,-0.45482 -2.69256,-0.76185l-0.39176,-0.01618c0,0 -0.55264,-0.0453 -0.50734,-0.59795c0.0453,-0.55264 0.59795,-0.50734 0.59795,-0.50734l0.65184,0.06938c0.68463,0.22821 1.30148,0.43115 1.9686,0.59508c0.08285,-0.1255 0.19673,-0.19382 0.19673,-0.19382l0.22907,-0.13744c1.90189,-1.14113 3.80162,-2.28597 5.70571,-3.42343c0.3951,-0.23602 0.69815,-0.48719 1.00015,-0.70158c-0.46331,-0.62317 -1.03392,-1.1499 -1.78433,-1.48579c-0.65585,-0.29357 -1.40768,-0.30303 -2.08964,-0.52944c0,0 -0.02694,-0.00898 -0.0666,-0.02898c-0.0261,0.11255 -0.07507,0.19073 -0.07507,0.19073l-0.47415,0.75584c-1.17681,2.32121 -3.65635,3.97378 -6.15682,4.60288c0,0 -0.53794,0.13449 -0.67243,-0.40346c-0.13449,-0.53794 0.40346,-0.67243 0.40346,-0.67243c2.19997,-0.54615 4.44683,-2.01407 5.45879,-4.06994l0.50129,-0.80157c0,0 0.27236,-0.43485 0.71139,-0.20594c0.00515,-0.02216 0.01159,-0.045 0.01944,-0.06854c0.17534,-0.52604 0.70139,-0.35069 0.70139,-0.35069c0.71732,0.24013 1.50821,0.25694 2.19628,0.57122c1.00509,0.4591 1.73555,1.17668 2.31917,2.01559c0.13032,-0.02974 0.27064,-0.04962 0.42433,-0.0577c0,0 0.5545,0 0.5545,0.5545c0,0.33449 -0.20178,0.46721 -0.3619,0.51986c0.43537,0.81142 0.79351,1.67699 1.1644,2.50011l0.13223,0.29347c0,0 0.22779,0.50554 -0.27776,0.73334z" fill="#000000" stroke="none" stroke-linecap="butt"/></g></g></g></svg>