<svg version="1.1" xmlns="http://www.w3.org/2000/svg" xmlns:xlink="http://www.w3.org/1999/xlink" width="770.89367" height="770.89367" viewBox="0,0,770.89367,770.89367"><defs><linearGradient x1="236.99701" y1="-212.95432" x2="236.99701" y2="557.93935" gradientUnits="userSpaceOnUse" id="color-1"><stop offset="0" stop-color="#fbbd58"/><stop offset="1" stop-color="#faa620"/></linearGradient><linearGradient x1="405.17375" y1="-158.69754" x2="405.17375" y2="167.32939" gradientUnits="userSpaceOnUse" id="color-2"><stop offset="0" stop-color="#fbbd58"/><stop offset="1" stop-color="#faa620"/></linearGradient><linearGradient x1="253.17624" y1="-152.35372" x2="253.17624" y2="465.42242" gradientUnits="userSpaceOnUse" id="color-3"><stop offset="0" stop-color="#fbbd58"/><stop offset="1" stop-color="#faa620"/></linearGradient><linearGradient x1="121.38405" y1="71.93273" x2="121.38405" y2="503.8144" gradientUnits="userSpaceOnUse" id="color-4"><stop offset="0" stop-color="#fbbd58"/><stop offset="1" stop-color="#faa620"/></linearGradient></defs><g transform="translate(148.44983,212.95433)"><g data-paper-data="{&quot;isPaintingLayer&quot;:true}" fill-rule="nonzero" stroke="none" stroke-width="1" stroke-linecap="butt" stroke-linejoin="miter" stroke-miterlimit="10" stroke-dasharray="" stroke-dashoffset="0" style="mix-blend-mode: normal"><g><path d="M236.99692,557.93918c-212.87603,0 -385.44675,-172.57039 -385.44675,-385.44675c0,-212.87603 172.57039,-385.44675 385.44692,-385.44675c212.87636,0 385.44675,172.57039 385.44675,385.44692c0,212.87603 -172.57039,385.44675 -385.44675,385.44675z" fill="url(#color-1)"/><path d="M543.23198,142.37416c-100.36105,-100.36105 -200.71064,-200.71064 -301.0717,-301.0717c178.86656,2.74709 323.29081,147.16004 326.02693,326.02693z" fill="url(#color-2)"/><path d="M391.29507,465.42226c-149.76334,-148.51688 -298.61153,-297.96054 -446.79727,-448.04406c45.85026,-86.25056 128.4602,-149.9841 227.14407,-169.73192l390.21281,390.21281c-19.82495,98.99291 -83.90061,181.81247 -170.55945,227.56333z" fill="url(#color-3)"/><path d="M-45.97041,104.90847c127.04816,128.37192 254.86835,255.97151 383.06356,383.18491c-31.61858,10.02851 -65.15671,15.72102 -100.09607,15.72102c-182.98196,0 -331.32213,-148.34034 -331.32213,-331.32213c0,-35.10493 5.7477,-68.80848 15.86464,-100.55954c10.84474,10.97723 21.63445,22.00932 32.49017,32.97575z" fill="url(#color-4)"/></g><g><path d="M269.18,143.42c0.101,-0.38 0.891,1.8 2.37,6.49c3.2,1.86 6.51,2.79 9.96,2.79c6.63,0 10.62,-2.53 11.95,-7.57c0.521,-7.43 0.521,-13.27 0,-17.52c1.59,-18.05 2.79,-31.46 3.58,-40.22c0.8,-10.61 1.33,-18.84 1.59,-24.68c0.54,-9.29 -0.729,-14.87 -3.77,-16.73c-3.061,-1.84 -5.91,-2.51 -8.57,-1.98c-1.86,0.26 -3.32,0.66 -4.38,1.19c-3.72,1.33 -5.57,3.86 -5.57,7.57c0.13,1.59 0.26,3.22 0.4,4.87c0.13,1.66 0.26,3.35 0.39,5.08c-0.05,0.48 -0.1,0.95 -0.14,1.42c-0.05,0.47 -0.101,0.92 -0.141,1.37c-0.09,0.9 -0.18,1.77 -0.26,2.61c-0.09,0.84 -0.17,1.65 -0.24,2.42c-0.069,0.78 -0.149,1.53 -0.21,2.24c-0.1,1.07 -0.189,2.07 -0.27,3c-0.14,1.54 -0.25,2.9 -0.33,4.05c-0.23,-0.19 -0.45,-0.38 -0.67,-0.57c-1.3,-1.12 -2.3,-2.02 -3,-2.68c-0.11,-0.12 -0.21,-0.22 -0.311,-0.32c-2.899,-4.98 -6.31,-9.18 -10.22,-12.6c-2.75,-2.39 -5.74,-4.41 -8.97,-6.04c-1.851,-0.94 -3.771,-1.75 -5.78,-2.43c-5.54,-1.88 -11.68,-2.82 -18.44,-2.82c-5.05,0 -9.95,0.56 -14.73,1.69c-4.78,1.13 -9.42,2.83 -13.93,5.08c-3.72,1.86 -6.77,5.58 -9.16,11.15c-0.22,0.43 -1.13,3.57 -2.87,9.44c-0.14,0.45 -0.28,0.92 -0.42,1.4c-0.29,0.96 -0.6,2 -0.93,3.09c-5.85,18.59 -8.61,30.4 -8.61,35.44v23.09c0,11.15 5.34,20.98 16.36,29.47c2.67,2.06 5.39,3.86 8.15,5.41c0.68,0.39 1.37,0.76 2.07,1.11h0.01c6.6,3.36 13.46,5.27 20.66,5.73c1.55,0.1 3.11,0.13 4.68,0.1c0.23,0 0.51,0.011 0.84,0.021c0.17,0.02 0.35,0.03 0.54,0.04c0.35,0.02 0.76,0.05 1.21,0.09c2.17,0.19 5.34,0.55 9.52,1.07c0.93,0.109 1.91,0.229 2.94,0.37c14.329,2.13 24.149,4.92 29.47,8.369c11.939,7.961 17.91,20.04 17.91,36.23c0,4.65 -0.71,9.09 -2.13,13.33c-0.2,0.6 -0.421,1.2 -0.65,1.8c-2.65,6.37 -10.62,11.94 -23.89,16.73c-9.561,3.439 -19.12,5.71 -28.67,6.76c-8.5,0.8 -17.39,-4.24 -26.68,-15.13c-8.5,-9.561 -13.54,-19.11 -15.14,-28.67c-1.06,-8.221 -1.59,-14.471 -1.59,-18.721c-1.33,-4.51 -5.18,-6.77 -11.55,-6.77c-5.83,0 -10.12,1.31 -12.85,3.93c-0.15,0.13 -0.29,0.271 -0.43,0.431c-1.09,1.149 -1.9,2.55 -2.44,4.18c-0.27,0.82 -0.47,1.689 -0.6,2.62c0,0.16 0.06,0.43 0.19,0.81c0.13,0.37 0.32,0.851 0.58,1.431c0.31,0.699 0.71,1.539 1.21,2.529c0.03,0.08 0.07,0.17 0.09,0.271c0.11,0.35 0.19,0.8 0.24,1.35c0.01,0.07 0.02,0.15 0.02,0.23c0.12,1.649 0,4.09 -0.36,7.31c-0.53,7.7 -0.68,13.41 -0.42,17.12c-0.19,0.41 -0.41,0.84 -0.62,1.31c-0.07,0.15 -0.14,0.32 -0.21,0.48c-0.26,0.67 -0.46,1.27 -0.46,1.8v21.9c1,1.859 1.26,5.04 1.26,9.55c0,0.7 -0.01,1.59 -0.04,2.68c-0.06,1.82 -0.16,4.181 -0.32,7.08c-0.27,4.641 -0.39,8.03 -0.39,10.15c0,7.85 1.32,13.12 3.96,15.8c0.24,0.27 0.5,0.5 0.78,0.7c0.28,0.22 0.57,0.399 0.87,0.56c0.29,0.17 0.6,0.311 0.92,0.42c0.81,0.29 1.69,0.44 2.64,0.44c3.99,0 9.29,-2.13 15.94,-6.38c0.08,-0.4 0.15,-0.811 0.21,-1.221c0.2,-1.25 0.36,-2.56 0.47,-3.96c0.27,-3.22 0.3,-6.85 0.1,-10.869c-0.08,-1.74 -0.21,-3.551 -0.38,-5.44c-1.07,-11.95 -1.6,-19.12 -1.6,-21.51c14.87,15.93 29.73,22.96 44.6,21.1c44.06,-5.57 69.94,-19.229 77.65,-41.01c1.85,-4.78 2.12,-15.38 0.8,-31.86c-1.34,-5.029 -2.66,-8.609 -3.989,-10.74c-8.49,-22.83 -30.65,-35.299 -66.49,-37.43c-14.6,-0.8 -24.48,-2.92 -29.66,-6.37c-5.18,-3.45 -8.44,-8.49 -9.76,-15.13c-1.06,-5.31 -1.99,-10.61 -2.79,-15.93c0.26,0.53 0.53,-0.66 0.8,-3.59c0.79,-9.02 2.79,-18.44 5.98,-28.26c1.84,-6.64 3.31,-11.68 4.37,-15.14c3.19,-7.96 10.09,-11.55 20.71,-10.75c8.49,0.8 15.32,6.84 20.5,18.12c5.181,11.29 9.221,19.98 12.15,26.08c3.431,11.879 4.891,21.399 4.391,28.549zM362.59,210.02c2.04,25.391 1,40.381 -3.71,53.051c-14.62,40.52 -54.37,65.14 -118.1,73.189c-2.9,0.37 -5.76,0.601 -8.61,0.681c-3.71,5.439 -8.56,10.14 -14.26,13.81c-14.94,9.55 -28.94,14.22 -42.74,14.22c-28.39,0 -58.97,-21.189 -58.97,-67.72c0,-3.17 0.1,-7.29 0.41,-12.99c0.14,-2.45 0.19,-4.35 0.23,-5.76c-0.76,-3.52 -1.34,-7.1 -1.34,-10.72v-21.91c0,-3.58 0.54,-7.15 1.26,-10.73c0.04,-3.04 0.35,-6.43 0.58,-10.14c-1.09,-3.98 -1.89,-8.6 -1.89,-13.76c0,-2.351 0.19,-4.71 0.51,-7.021c1.72,-12.13 7.13,-24.31 16.23,-34.04c-3.12,-8.74 -4.69,-17.97 -4.69,-27.44v-23.08c0,-9.37 1.79,-21.05 10.9,-50.11c3.8,-12.5 4.96,-16.39 6.64,-20.01c8.91,-20.01 22.36,-30.01 32.14,-34.95c15.98,-7.96 33.13,-12.04 50.97,-12.04c8.24,0 16.11,0.86 23.63,2.49c3.35,-2.27 6.93,-4.17 10.729,-5.75c4.84,-2.08 10,-3.53 15.71,-4.44c14.25,-2.44 29.33,0.59 42.46,8.56c13.811,8.42 29.65,25.89 27.7,61.84c-0.31,6.33 -0.86,14.8 -1.67,25.85c-0.05,0.27 -0.05,0.54 -0.09,0.81c-0.73,8.01 -1.771,19.96 -3.17,35.76c0.359,6.11 0.22,12.95 -0.32,21.01c-0.229,3.07 -0.72,6.15 -1.54,9.14c-0.18,0.68 -0.359,1.31 -0.54,1.9c6.11,7.83 10.271,15.66 13.13,22.45c2.67,5.39 4.931,11.59 6.92,19.15c0.771,2.85 1.271,5.75 1.491,8.7z" fill="#f2f2f2"/><path d="M312.97,214.01c1.32,16.48 1.05,27.08 -0.8,31.86c-7.71,21.78 -33.59,35.439 -77.65,41.01c-14.87,1.86 -29.73,-5.17 -44.6,-21.1c0,2.39 0.53,9.56 1.6,21.51c0.17,1.89 0.3,3.7 0.38,5.44c0.2,4.02 0.16,7.64 -0.1,10.869c-0.12,1.391 -0.27,2.71 -0.47,3.96c-0.06,0.41 -0.13,0.82 -0.21,1.221c-6.65,4.25 -11.95,6.38 -15.94,6.38c-0.95,0 -1.83,-0.15 -2.64,-0.44c-0.32,-0.12 -0.62,-0.25 -0.92,-0.42c-0.3,-0.16 -0.59,-0.34 -0.87,-0.56c-0.27,-0.21 -0.53,-0.44 -0.78,-0.7c-2.63,-2.69 -3.94,-7.96 -3.94,-15.8c0,-2.12 0.13,-5.51 0.4,-10.15c0.16,-2.899 0.25,-5.26 0.29,-7.08c0.03,-1.09 0.04,-1.979 0.04,-2.68c0,-4.51 -0.26,-7.69 -1.26,-9.55v-21.9c0,-0.53 0.2,-1.13 0.46,-1.8c0.07,-0.16 0.14,-0.33 0.21,-0.48c0.22,-0.47 0.46,-0.899 0.66,-1.31c-0.27,-3.71 -0.14,-9.42 0.39,-17.12c0.36,-3.229 0.48,-5.66 0.35,-7.31c0,-0.08 -0.01,-0.16 -0.02,-0.23c-0.05,-0.54 -0.13,-0.99 -0.24,-1.35c-0.02,-0.101 -0.06,-0.19 -0.09,-0.271c-0.5,-0.99 -0.9,-1.83 -1.21,-2.529c-0.25,-0.58 -0.45,-1.061 -0.58,-1.431c-0.13,-0.38 -0.19,-0.649 -0.19,-0.81c0.13,-0.931 0.33,-1.8 0.6,-2.62c0.54,-1.62 1.36,-3.021 2.44,-4.18c0.14,-0.15 0.28,-0.29 0.43,-0.431c2.73,-2.62 7.02,-3.93 12.85,-3.93c6.37,0 10.22,2.26 11.55,6.77c0,4.25 0.53,10.5 1.59,18.721c1.6,9.56 6.64,19.109 15.14,28.67c9.29,10.89 18.18,15.93 26.68,15.13c9.55,-1.05 19.11,-3.32 28.67,-6.76c13.27,-4.79 21.239,-10.36 23.89,-16.73c0.229,-0.6 0.45,-1.2 0.65,-1.8c1.43,-4.24 2.14,-8.68 2.14,-13.33c0,-16.19 -5.96,-28.27 -17.9,-36.23c-5.319,-3.449 -15.12,-6.239 -29.45,-8.369c-0.01,0 -0.029,0 -0.039,0c-1.03,-0.141 -2.011,-0.261 -2.94,-0.37c-4.2,-0.53 -7.37,-0.891 -9.52,-1.07c-0.45,-0.04 -0.86,-0.07 -1.21,-0.09c-0.19,-0.021 -0.37,-0.03 -0.54,-0.04c-0.33,-0.01 -0.61,-0.021 -0.84,-0.021c-1.57,0.03 -3.13,0 -4.68,-0.1c-7.18,-0.47 -14.06,-2.38 -20.66,-5.73h-0.01c-0.69,-0.36 -1.38,-0.73 -2.07,-1.11c-2.76,-1.55 -5.48,-3.35 -8.15,-5.41c-11.02,-8.49 -16.36,-18.32 -16.36,-29.47v-23.09c0,-5.04 2.76,-16.85 8.61,-35.44c0.33,-1.09 0.64,-2.13 0.93,-3.09c0.15,-0.48 0.29,-0.95 0.42,-1.4c1.77,-5.87 2.73,-9.01 2.95,-9.44c2.39,-5.57 5.4,-9.29 9.12,-11.15c4.5,-2.25 9.13,-3.95 13.89,-5.08c4.78,-1.13 9.68,-1.69 14.73,-1.69c6.76,0 12.9,0.94 18.44,2.82c2,0.69 3.93,1.5 5.78,2.43c3.229,1.63 6.22,3.65 8.97,6.04c3.9,3.43 7.311,7.62 10.21,12.6c0.101,0.1 0.21,0.2 0.32,0.32c0.7,0.66 1.7,1.56 3,2.68c0.21,0.19 0.439,0.38 0.67,0.58h0.01c0.08,-1.16 0.19,-2.51 0.32,-4.06c0.08,-0.93 0.17,-1.93 0.27,-3c0.061,-0.71 0.141,-1.46 0.21,-2.24c0.08,-0.77 0.16,-1.58 0.24,-2.42c0.08,-0.84 0.17,-1.71 0.26,-2.61c0.04,-0.45 0.091,-0.9 0.141,-1.37c0.05,-0.47 0.1,-0.94 0.149,-1.42c-0.14,-1.73 -0.27,-3.42 -0.399,-5.08c-0.141,-1.65 -0.271,-3.28 -0.4,-4.87c0,-3.71 1.851,-6.24 5.57,-7.57c1.06,-0.53 2.52,-0.93 4.38,-1.19c2.66,-0.53 5.51,0.14 8.57,1.98c3.04,1.86 4.31,7.44 3.77,16.73c-0.26,5.84 -0.79,14.07 -1.59,24.68c-0.79,8.76 -1.99,22.17 -3.58,40.22c0.521,4.25 0.521,10.09 0,17.52c-1.33,5.04 -5.32,7.57 -11.95,7.57c-3.45,0 -6.76,-0.93 -9.96,-2.79c-1.479,-4.69 -2.27,-6.87 -2.37,-6.49c0.5,-7.15 -0.96,-16.67 -4.39,-28.55c-2.93,-6.1 -6.97,-14.79 -12.15,-26.08c-5.18,-11.28 -12.01,-17.32 -20.5,-18.12c-10.62,-0.8 -17.52,2.79 -20.71,10.75c-1.06,3.46 -2.53,8.5 -4.37,15.14c-3.19,9.82 -5.19,19.24 -5.98,28.26c-0.27,2.93 -0.54,4.12 -0.8,3.59c0.8,5.32 1.73,10.62 2.79,15.93c1.32,6.64 4.58,11.68 9.76,15.13c5.18,3.45 15.06,5.57 29.66,6.37c35.84,2.13 58,14.6 66.49,37.43c1.328,2.131 2.648,5.711 3.988,10.741z" fill="#faa51d"/><path d="M277.14,62.71c-0.05,0.48 -0.1,0.95 -0.149,1.42c0.04,-0.47 0.09,-0.94 0.14,-1.42c-0.13,-1.73 -0.26,-3.42 -0.39,-5.08c0.129,1.66 0.259,3.35 0.399,5.08z" fill="#faa51d"/><path d="M276.85,65.5c-0.09,0.9 -0.18,1.77 -0.26,2.61c0.08,-0.84 0.17,-1.71 0.26,-2.61z" fill="#faa51d"/><path d="M276.59,68.11c-0.08,0.84 -0.16,1.65 -0.24,2.42c0.07,-0.77 0.15,-1.58 0.24,-2.42z" fill="#faa51d"/><path d="M276.14,72.77c-0.1,1.07 -0.189,2.07 -0.27,3c0.08,-0.93 0.17,-1.93 0.27,-3z" fill="#faa51d"/><path d="M275.87,75.77c-0.13,1.55 -0.24,2.9 -0.32,4.06h-0.01v-0.01c0.08,-1.15 0.19,-2.51 0.33,-4.05z" fill="#faa51d"/><path d="M213.42,54.05c-4.76,1.13 -9.39,2.83 -13.89,5.08c-3.72,1.86 -6.73,5.58 -9.12,11.15c-0.22,0.43 -1.18,3.57 -2.95,9.44c1.74,-5.87 2.65,-9.01 2.87,-9.44c2.39,-5.57 5.44,-9.29 9.16,-11.15c4.51,-2.25 9.15,-3.95 13.93,-5.08z" fill="#faa51d"/><path d="M187.46,79.72c-0.13,0.45 -0.27,0.92 -0.42,1.4c0.14,-0.48 0.28,-0.95 0.42,-1.4z" fill="#faa51d"/><path d="M171.62,314.3c0.3,0.17 0.6,0.3 0.92,0.42c-0.32,-0.11 -0.63,-0.25 -0.92,-0.42z" fill="#faa51d"/><path d="M169.97,313.04c0.25,0.26 0.51,0.49 0.78,0.7c-0.28,-0.2 -0.54,-0.43 -0.78,-0.7z" fill="#faa51d"/><path d="M166.03,297.24c0,7.84 1.31,13.109 3.94,15.8c-2.64,-2.68 -3.96,-7.95 -3.96,-15.8c0,-2.12 0.12,-5.51 0.39,-10.15c0.16,-2.899 0.26,-5.26 0.32,-7.08c-0.04,1.82 -0.13,4.181 -0.29,7.08c-0.27,4.64 -0.4,8.03 -0.4,10.15z" fill="#faa51d"/></g></g></g></svg>